<?xml version="1.0" encoding="utf-8"?>
<!-- Generator: Adobe Illustrator 24.3.0, SVG Export Plug-In . SVG Version: 6.00 Build 0)  -->
<svg version="1.1" xmlns="http://www.w3.org/2000/svg" xmlns:xlink="http://www.w3.org/1999/xlink" x="0px" y="0px" width="104.4px"
	 height="124px" viewBox="0 0 104.4 124" style="enable-background:new 0 0 104.4 124;" xml:space="preserve">
<style type="text/css">
	.st0{fill:#FFFFFF;}
	.st1{fill:#004068;}
	.st2{fill:#F7CF38;}
	.st3{fill:#FF9D31;}
	.st4{fill:#DE9700;}
	.st5{fill:#02B9CD;}
	.st6{fill:#F88008;}
	.st7{fill:#FFDE83;}
	.st8{fill:#FFBE3B;}
	.st9{fill:#FF9E31;}
	.st10{fill:#333333;}
	.st11{fill:#4D4D4D;}
	.st12{fill:#FF6400;}
</style>
<g id="Layer_2">
</g>
<g id="Layer_1">
	<rect x="-466.4" y="-10055.6" class="st0" width="1920" height="1080"/>
	<rect x="-466.4" y="-8974.6" class="st0" width="1920" height="1080"/>
	<rect x="-466.4" y="-6815.6" class="st0" width="1920" height="1080"/>
	<rect x="-466.4" y="-5735.6" class="st0" width="1920" height="1080"/>
	<rect x="-466.4" y="-4655.6" class="st0" width="1920" height="1080"/>
	<rect x="-466.4" y="-3575.6" class="st0" width="1920" height="1080"/>
	<rect x="-466.4" y="-2495.6" class="st0" width="1920" height="1080"/>
	<rect x="-466.4" y="-1415.6" class="st0" width="1920" height="1080"/>
	<rect x="-466.4" y="-335.6" class="st0" width="1920" height="1080"/>
	<rect x="-466.4" y="744.4" class="st0" width="1920" height="1080"/>
	<rect x="-466.4" y="1824.4" class="st0" width="1920" height="1080"/>
</g>
<g id="Layer_3">
	<rect x="319.4" y="-8372" style="fill:none;" width="1076.2" height="75"/>
	
		<text transform="matrix(1 0 0 1 319.3794 -8330.0654)" class="st1" style="font-family:'HelveticaNeue-Bold'; font-size:58.7032px;">Upgrade Program 2024</text>
	<text transform="matrix(1 0 0 1 319.3794 -8551.6094)"><tspan x="0" y="0" style="fill:#044784; font-family:'Anton'; font-size:97.8386px;">KHAI GIẢNG KHÓA </tspan><tspan x="0" y="135.9" style="fill:#044784; font-family:'Anton'; font-size:97.8386px;">LỚP KODA PHOTOSHOP H298 </tspan></text>
	<rect x="670.6" y="-8390.6" class="st1" width="26" height="19"/>
</g>
<g id="Layer_6">
</g>
<g id="Layer_4">
	<g>
		<defs>
			<rect id="SVGID_1_" x="-466.4" y="-10055.6" width="1920" height="1080"/>
		</defs>
		<clipPath id="SVGID_2_">
			<use xlink:href="#SVGID_1_"  style="overflow:visible;"/>
		</clipPath>
	</g>
</g>
<g id="Layer_5">
	<rect x="-466.4" y="-4566.6" class="st2" width="1076" height="116"/>
	<rect x="-466.4" y="-1414.6" class="st3" width="816.6" height="1080"/>
	<rect x="-360.3" y="-1335.9" class="st0" width="649.5" height="950.8"/>
	<rect x="312.6" y="-8277.6" class="st4" width="1014" height="43"/>
	<rect x="309.6" y="-8219.6" class="st4" width="331" height="44"/>
	<text transform="matrix(1 0 0 1 322.3799 -8245.1553)"><tspan x="0" y="0" class="st0" style="font-family:'MyriadPro-Bold'; font-size:33.7px;">CHƯƠNG TRÌNH HỌC CẬP NHẬT LIÊN TỤC ĐỔI MỚI KHÔNG NGỪNG </tspan><tspan x="0" y="57.6" class="st0" style="font-family:'MyriadPro-Bold'; font-size:33.7px;">THEO QUÝ MỖI NĂM</tspan></text>
	<g>
		<text transform="matrix(1 0 0 1 -252.9048 -4479.1079)" class="st10" style="font-family:'Anton'; font-size:64.8602px;">NỘI DUNG CHƯƠNG TRÌNH KHÓA HỌC</text>
	</g>
	<rect x="424.9" y="-1109.8" style="fill:none;" width="959.1" height="157.3"/>
	<text transform="matrix(1 0 0 1 424.8892 -1087.7028)"><tspan x="0" y="0" class="st10" style="font-family:'HelveticaNeue-Medium'; font-size:31px;">Lớp Sáng:</tspan><tspan x="148.7" y="0" class="st10" style="font-family:'HelveticaNeue-Medium'; font-size:29px;"> Thứ 2-4: 8h30-10h30 sáng</tspan><tspan x="0" y="37.2" class="st10" style="font-family:'HelveticaNeue-Medium'; font-size:31px;">Lớp Tối:</tspan><tspan x="119.4" y="37.2" class="st10" style="font-family:'HelveticaNeue-Medium'; font-size:29px;"> Thứ 2-4: 7-9h tối</tspan><tspan x="0" y="74.4" class="st10" style="font-family:'HelveticaNeue-Medium'; font-size:31px;">Lớp Tối:</tspan><tspan x="119.4" y="74.4" class="st10" style="font-family:'HelveticaNeue-Medium'; font-size:29px;"> Thứ 6: 7-9h tối: Full Slot</tspan></text>
	<rect x="493.6" y="-6344.6" style="fill:none;" width="790.6" height="191.3"/>
	<text transform="matrix(1 0 0 1 689.7661 -6317.436)"><tspan x="0" y="0" style="font-family:'HelveticaNeue-Medium'; font-size:38px;">Nhằm đảm bảo chất lượng đầu ra </tspan><tspan x="109.5" y="64" style="font-family:'HelveticaNeue-Medium'; font-size:38px;">Chúng tôi xin phép giới hạn </tspan><tspan x="292.1" y="128" style="font-family:'HelveticaNeue-Medium'; font-size:38px;">số lượng mỗi lớp</tspan></text>
	<rect x="221.3" y="-6617.6" style="fill:none;" width="1062.9" height="246.6"/>
	<text transform="matrix(1 0 0 1 316.9653 -6548.686)"><tspan x="0" y="0" style="fill:#F78508; font-family:'Anton'; font-size:97px;">Chất lượng người học là </tspan><tspan x="277.9" y="116.4" style="fill:#F78508; font-family:'Anton'; font-size:97px;">ưu tiên hàng đầu</tspan></text>
	<g>
		<rect x="-342.6" y="-1296.9" style="fill:none;" width="666.1" height="157.4"/>
		<text transform="matrix(1 0 0 1 -342.5781 -1221.0514)"><tspan x="0" y="0" style="fill:#00B2DD; font-family:'Anton'; font-size:91px;">Thời</tspan><tspan x="167.3" y="0" style="fill:#00B2DD; font-family:'AppleBraille-Outline6Dot'; font-size:91px;"> </tspan><tspan x="198.4" y="0" style="fill:#00B2DD; font-family:'Anton'; font-size:91px;">gian</tspan><tspan x="365" y="0" style="fill:#00B2DD; font-family:'AppleBraille-Outline6Dot'; font-size:91px;"> </tspan><tspan x="396.1" y="0" style="fill:#00B2DD; font-family:'Anton'; font-size:91px;">học</tspan><tspan x="537.3" y="0" style="fill:#00B2DD; font-family:'AppleBraille-Outline6Dot'; font-size:91px;"> </tspan><tspan x="568.4" y="0" style="fill:#00B2DD; font-family:'Anton'; font-size:91px;">:</tspan></text>
	</g>
	<rect x="-311.1" y="851.8" style="fill:none;" width="366.6" height="135.4"/>
	<text transform="matrix(1 0 0 1 -311.1016 922.1273)" style="fill:#ED7837; font-family:'Anton'; font-size:99px;">ĐỊA </text>
	<rect x="-318" y="1411.6" style="fill:none;" width="707.5" height="51.4"/>
	<text transform="matrix(1 0 0 1 -318.0293 1425.8383)" class="st10" style="font-family:'HelveticaNeue-Bold'; font-size:20px;">2 chi nhánh cách nhau 30s đi xe máy</text>
	<path class="st5" d="M-59.4-7069.2c0,4.2-3.4,7.7-7.7,7.7h-229.6c-4.2,0-7.7-3.4-7.7-7.7v-65.6c0-4.2,3.4-7.7,7.7-7.7h229.6
		c4.2,0,7.7,3.4,7.7,7.7V-7069.2z"/>
	<rect x="-357.9" y="-7122.1" style="fill:none;" width="348.1" height="74"/>
	<text transform="matrix(1 0 0 1 -276.8418 -7083.522)" class="st0" style="font-family:'HelveticaNeue-Bold'; font-size:54px;">Liên hệ</text>
	<path class="st6" d="M1281.6-6049.2c0,4.2-3.4,7.7-7.7,7.7h-229.6c-4.2,0-7.7-3.4-7.7-7.7v-65.6c0-4.2,3.4-7.7,7.7-7.7h229.6
		c4.2,0,7.7,3.4,7.7,7.7V-6049.2z"/>
	<rect x="983.1" y="-6102.1" style="fill:none;" width="348.1" height="74"/>
	<text transform="matrix(1 0 0 1 1064.1582 -6063.522)" class="st0" style="font-family:'HelveticaNeue-Bold'; font-size:54px;">Liên hệ</text>
	<path d="M655.6-482.2c0,4.2-3.4,7.7-7.7,7.7H418.3c-4.2,0-7.7-3.4-7.7-7.7v-65.6c0-4.2,3.4-7.7,7.7-7.7h229.6
		c4.2,0,7.7,3.4,7.7,7.7V-482.2z"/>
	<rect x="357.1" y="-535.1" style="fill:none;" width="348.1" height="74"/>
	<text transform="matrix(1 0 0 1 438.1577 -496.5221)" class="st0" style="font-family:'HelveticaNeue-Bold'; font-size:54px;">Liên hệ</text>
	<rect x="1314.6" y="-1132.4" class="st3" width="139" height="481.8"/>
	<rect x="-462.4" y="-3263.6" class="st7" width="1916" height="424"/>
	<rect x="814.4" y="750.4" class="st8" width="639.1" height="1080"/>
	<rect x="-466.4" y="189.9" class="st8" width="103.1" height="356"/>
	<rect x="-304.4" y="-7557.2" style="fill:none;" width="522.3" height="245.3"/>
	<text transform="matrix(1 0 0 1 -304.4043 -7497.6377)"><tspan x="0" y="0" class="st10" style="font-family:'HelveticaNeue-Bold'; font-size:26px;">Đây là bộ môn mang lại tư duy về thẩm </tspan><tspan x="0" y="41" class="st10" style="font-family:'HelveticaNeue-Bold'; font-size:26px;">mĩ trong thiết kế được nâng cấp dựa trên </tspan><tspan x="0" y="82" class="st10" style="font-family:'HelveticaNeue-Bold'; font-size:26px;">xu hướng 2024 và được thiết lập trong </tspan><tspan x="0" y="123" class="st10" style="font-family:'HelveticaNeue-Bold'; font-size:26px;">giáo án chương trình học cho các sinh </tspan><tspan x="0" y="164" class="st10" style="font-family:'HelveticaNeue-Bold'; font-size:26px;">viên tại Nhật Bản</tspan></text>
	<polygon style="fill:none;" points="549.7,-7153.2 -302.4,-7153.2 -304.4,-7189.2 547.7,-7189.2 	"/>
	<text transform="matrix(1 0 0 1 -302.9849 -7163.5991)" class="st11" style="font-family:'MyriadPro-Bold'; font-size:36px;">Không gian lớp học</text>
	
		<image style="overflow:visible;" width="720" height="720" xlink:href="../../../../Downloads/LAYOUT 6/IMAG/PIC (5).jpg"  transform="matrix(0.9036 0 0 0.9036 -449.931 -6642.8677)">
	</image>
	
		<image style="overflow:visible;" width="991" height="1341" xlink:href="../../../../Downloads/LAYOUT 6/IMAG/PIC (3).jpg"  transform="matrix(0.3919 0 0 0.3919 193.9245 -6403.3315)">
	</image>
	
		<image style="overflow:visible;" width="1080" height="1528" xlink:href="../../../../Downloads/LAYOUT 6/IMAG/PIC (1).jpg"  transform="matrix(0.2587 0 0 0.2587 -85.9435 -6190.0801)">
	</image>
	<g>
		<rect x="420.6" y="-1225.6" style="fill:none;" width="608" height="138"/>
		<text transform="matrix(1 0 0 1 420.5957 -1187.9254)" class="st3" style="font-family:'Anton'; font-size:53px;">LỚP TRỰC TIẾP</text>
	</g>
	<g>
		<rect x="-335.3" y="-2326.8" style="fill:none;" width="865.1" height="75.2"/>
		<text transform="matrix(1 0 0 1 -335.3203 -2277.072)" class="st12" style="font-family:'Anton'; font-size:70px;">3 LÝ DO CHÍNH BẠN NÊN </text>
	</g>
	<g>
		<rect x="-335.3" y="-2235.7" style="fill:none;" width="865.1" height="75.2"/>
		<text transform="matrix(1 0 0 1 -335.3203 -2201.6658)" class="st12" style="font-family:'Anton'; font-size:48px;">KODA PHOTOSHOP tại HANNA&apos;S FAMILY</text>
	</g>
	<rect x="-190.3" y="-2042.1" style="fill:none;" width="816.6" height="139.1"/>
	<text transform="matrix(1 0 0 1 -190.3428 -2012.3009)" class="st11" style="font-family:'UTM-Avo'; font-size:42px;">Chất lượng giảng dạy</text>
	<rect x="-90.9" y="-4338.9" style="fill:none;" width="737.7" height="125.7"/>
	<text transform="matrix(1 0 0 1 -90.9438 -4313.3804)" style="font-family:'UTM-Avo'; font-size:36px;">INTRODUCTION</text>
	<rect x="-90.9" y="-4206.7" style="fill:none;" width="737.7" height="125.7"/>
	<text transform="matrix(1 0 0 1 -90.9438 -4181.1602)" style="font-family:'UTM-Avo'; font-size:36px;">THE KOKLORS &amp; CONCESK</text>
	<rect x="-90.9" y="-4074.5" style="fill:none;" width="737.7" height="46.3"/>
	<text transform="matrix(1 0 0 1 -90.9438 -4048.9392)" style="font-family:'UTM-Avo'; font-size:36px;">DESIGN </text>
	<rect x="-90.9" y="-3943.4" style="fill:none;" width="737.7" height="125.7"/>
	<text transform="matrix(1 0 0 1 -90.9438 -3917.8328)" style="font-family:'UTM-Avo'; font-size:36px;">EFFECTS, FINAL DETAILS, AND EXTRAS</text>
	<rect x="-90.9" y="-3809" style="fill:none;" width="737.7" height="125.7"/>
	<text transform="matrix(1 0 0 1 -90.9438 -3783.4236)" style="font-family:'UTM-Avo'; font-size:36px;">LAYOUKA, RATIONNE TYPES</text>
	<rect x="-190.3" y="-1892.2" style="fill:none;" width="816.6" height="139.1"/>
	<text transform="matrix(1 0 0 1 -190.3428 -1862.3556)" class="st11" style="font-family:'UTM-Avo'; font-size:42px;">Giảng viên giàu kinh nghiệm</text>
	<rect x="-190.3" y="-1742.5" style="fill:none;" width="816.6" height="139.1"/>
	<text transform="matrix(1 0 0 1 -190.3428 -1712.672)" class="st11" style="font-family:'UTM-Avo'; font-size:42px;">Không gian lớp học đa concept</text>
	<g>
		<rect x="420.6" y="-858.6" style="fill:none;" width="330" height="80"/>
		<text transform="matrix(1 0 0 1 420.5957 -820.9254)" class="st3" style="font-family:'Anton'; font-size:53px;">LỚP ONLINE</text>
	</g>
	<rect x="424.9" y="-841.6" style="fill:none;" width="579.7" height="227"/>
	<text transform="matrix(1 0 0 1 424.8892 -757.4906)"><tspan x="0" y="0" class="st10" style="font-family:'HelveticaNeue-Medium'; font-size:27px;">Lớp học online từ xa dành cho các bạn trong </tspan><tspan x="0" y="32.4" class="st10" style="font-family:'HelveticaNeue-Medium'; font-size:27px;">&amp; ngoài nước</tspan><tspan x="0" y="97.2" class="st10" style="font-family:'HelveticaNeue-Medium'; font-size:27px;">Đặc biệt là các bạn đang du học hoặc đang </tspan><tspan x="0" y="129.6" class="st10" style="font-family:'HelveticaNeue-Medium'; font-size:27px;">làm việc ở nước ngoài</tspan></text>
	
		<ellipse transform="matrix(0.9998 -1.787072e-02 1.787072e-02 0.9998 36.1139 -5.3148)" class="st9" cx="-279.3" cy="-2023.3" rx="58.8" ry="58.8"/>
	
		<ellipse transform="matrix(0.9998 -1.787072e-02 1.787072e-02 0.9998 33.5314 -5.2917)" class="st9" cx="-279.3" cy="-1878.8" rx="58.8" ry="58.8"/>
	
		<ellipse transform="matrix(1.667897e-02 -0.9999 0.9999 1.667897e-02 1453.4124 -1978.7688)" class="st9" cx="-279.3" cy="-1728.3" rx="58.8" ry="58.8"/>
	<rect x="-335.3" y="-2055.6" style="fill:none;" width="112" height="158"/>
	<text transform="matrix(1 0 0 1 -295.4795 -2010.8258)" class="st0" style="font-family:'Anton'; font-size:63px;">1</text>
	<rect x="-335.3" y="-1906" style="fill:none;" width="112" height="86"/>
	<text transform="matrix(1 0 0 1 -295.4795 -1861.276)" class="st0" style="font-family:'Anton'; font-size:63px;">2</text>
	<rect x="-335.3" y="-1755.5" style="fill:none;" width="112" height="86"/>
	<text transform="matrix(1 0 0 1 -295.4795 -1710.7643)" class="st0" style="font-family:'Anton'; font-size:63px;">3</text>
	<g>
		<rect x="-343.4" y="-202.6" style="fill:none;" width="1624" height="170.1"/>
		<text transform="matrix(1 0 0 1 11.3906 -164.2194)"><tspan x="0" y="0" style="fill:#E26F10; font-family:'Anton'; font-size:54px;">KODA PHOTOSHOP là môn học giúp bạn </tspan><tspan x="18.9" y="81" style="fill:#E26F10; font-family:'Anton'; font-size:54px;">ứng dụng nhiều vào cuộc sống hiện tại</tspan></text>
	</g>
	<g>
		<g>
			<rect x="-196.8" y="150.1" style="fill:none;" width="498" height="234"/>
			<text transform="matrix(1 0 0 1 -103.4336 170.7914)"><tspan x="0" y="0" class="st6" style="font-family:'HelveticaNeue-Bold'; font-size:29px;">Thông thạo phần mềm </tspan><tspan x="38.1" y="50" style="font-family:'HelveticaNeue'; font-size:29px;">Photoshop từ A-Z</tspan></text>
			<rect x="-142.4" y="463.1" style="fill:none;" width="389.3" height="234"/>
			<text transform="matrix(1 0 0 1 -134.0132 483.8177)"><tspan x="0" y="0" class="st6" style="font-family:'HelveticaNeue-Bold'; font-size:29px;">Thiết kế ấn phẩm, hình ảnh</tspan><tspan x="372.5" y="0" style="font-family:'HelveticaNeue'; font-size:29px;"> </tspan><tspan x="6.2" y="50" style="font-family:'HelveticaNeue'; font-size:29px;">sống động trong quảng cáo </tspan><tspan x="97.4" y="100" style="font-family:'HelveticaNeue'; font-size:29px;">&amp; các sự kiện</tspan></text>
		</g>
		<g>
			<rect x="365" y="150.1" style="fill:none;" width="293" height="234"/>
			<text transform="matrix(1 0 0 1 376.2266 170.7914)"><tspan x="0" y="0" class="st6" style="font-family:'HelveticaNeue-Bold'; font-size:29px;">Chỉnh sửa hình ảnh </tspan><tspan x="-4.5" y="50" style="font-family:'HelveticaNeue'; font-size:29px;">sống động, theo style </tspan><tspan x="67.3" y="100" style="font-family:'HelveticaNeue'; font-size:29px;">riêng mình</tspan></text>
			<rect x="338.7" y="463.1" style="fill:none;" width="345.4" height="234"/>
			<text transform="matrix(1 0 0 1 372.4702 483.8177)"><tspan x="0" y="0" class="st6" style="font-family:'HelveticaNeue-Bold'; font-size:29px;">Tự tay tạo nên kênh </tspan><tspan x="-1.8" y="50" style="font-family:'HelveticaNeue'; font-size:29px;">truyền thông cho việc </tspan><tspan x="6.4" y="100" style="font-family:'HelveticaNeue'; font-size:29px;">khởi nghiệp cá nhân</tspan></text>
		</g>
		<g>
			<rect x="801.5" y="150.1" style="fill:none;" width="332.5" height="234"/>
			<text transform="matrix(1 0 0 1 843.0835 170.7914)"><tspan x="0" y="0" class="st6" style="font-family:'HelveticaNeue-Bold'; font-size:29px;">Tự tay thiết kế CV</tspan><tspan x="249.3" y="0" style="font-family:'HelveticaNeue'; font-size:29px;"> </tspan><tspan x="-24.6" y="50" style="font-family:'HelveticaNeue'; font-size:29px;">ấn tượng ghi điểm cho </tspan><tspan x="23.6" y="100" style="font-family:'HelveticaNeue'; font-size:29px;">nhà tuyển dụng</tspan></text>
			<rect x="805.5" y="463.1" style="fill:none;" width="324.5" height="234"/>
			<text transform="matrix(1 0 0 1 847.8252 483.8177)"><tspan x="0" y="0" class="st6" style="font-family:'HelveticaNeue-Bold'; font-size:29px;">Thiết kế proposal </tspan><tspan x="-24.9" y="50" style="font-family:'HelveticaNeue'; font-size:29px;">chuyên nghiệp thu hút </tspan><tspan x="76.4" y="100" style="font-family:'HelveticaNeue'; font-size:29px;">đầu tư</tspan></text>
		</g>
	</g>
	<rect x="1208.6" y="-101.6" class="st8" width="245" height="37.8"/>
	<g>
		<g>
			<path class="st10" d="M94.5,8.8l0.1-0.2c0.8-1.4,0.9-2.9,0.5-4.3c-0.4-1.4-1.3-2.7-2.6-3.5l-0.2-0.1C91,0,89.4-0.2,88,0.2
				c-1.4,0.4-2.7,1.3-3.5,2.6l-0.8,1.3l10,5.8L94.5,8.8L94.5,8.8z M41.7,82.9c0.6-0.5,1.5-0.5,2,0.1c0.5,0.6,0.5,1.5-0.1,2
				C33.8,94,29,89.8,24,85.6c-3.8-3.3-7.8-6.7-15.4-0.5c-0.6,0.5-1.5,0.4-2-0.2c-0.5-0.6-0.4-1.5,0.2-2c9.5-7.7,14.3-3.5,19,0.6
				C29.8,86.9,33.7,90.3,41.7,82.9L41.7,82.9z M55.7,61.6L86.2,8.8l-3.8-2.2L51.8,59.5c0.8,0,1.6,0.2,2.3,0.7
				c0.5,0.3,0.9,0.6,1.2,0.9C55.5,61.3,55.6,61.4,55.7,61.6L55.7,61.6z M88.6,10.2L58.1,63c0.2,0,0.3,0,0.5,0.1
				c0.5,0.1,1,0.3,1.4,0.6c0.7,0.4,1.3,1,1.7,1.7l30.6-52.9L88.6,10.2L88.6,10.2z M59.6,68.6c0.2-0.5,0.2-1,0-1.5
				c-0.2-0.5-0.5-0.8-0.9-1.1c-0.2-0.1-0.4-0.2-0.6-0.2c-0.2,0-0.4,0-0.6,0c-0.8,0.1-1.6-0.1-2.3-0.5c-0.7-0.4-1.2-1-1.6-1.7
				c-0.1-0.2-0.2-0.4-0.3-0.5c-0.2-0.2-0.3-0.3-0.5-0.4c-0.4-0.3-0.9-0.3-1.4-0.2c-0.5,0.1-0.9,0.3-1.2,0.7l-0.6,12.2L59.6,68.6
				L59.6,68.6z M64.7,31.6h-60c-1.3,0-2.5,0.5-3.3,1.4C0.5,33.8,0,35,0,36.3V95c0,1.3,0.5,2.5,1.4,3.3c0.9,0.8,2,1.4,3.3,1.4h95.1
				c1.3,0,2.4-0.5,3.3-1.3c0.9-0.9,1.4-2.1,1.4-3.4V36.3c0-1.3-0.5-2.5-1.4-3.3c-0.8-0.9-2-1.4-3.3-1.4H84.6L62.4,69.9
				c-0.1,0.2-0.3,0.3-0.4,0.5l-13.2,8.7c-0.3,0.2-0.6,0.3-0.9,0.3c-0.8,0-1.4-0.7-1.3-1.5L47.3,62c0-0.2,0.1-0.5,0.2-0.7L64.7,31.6
				L64.7,31.6z M63.5,115.6c-0.9-1.7-1.6-3.5-2.2-5.5c-0.7-2.4-1.2-4.9-1.4-7.6H44.5c-0.2,2.7-0.7,5.2-1.4,7.6
				c-0.6,1.9-1.3,3.8-2.2,5.5H63.5z M75.9,118.4H28.5v5.6h47.4V118.4z"/>
		</g>
	</g>
	<g transform="translate(0,-952.36218)">
		<path class="st11" d="M459.9,980.6v49.8l14.2-13.6c1-1,2.7-0.9,3.6,0.1c0,0,0,0,0.1,0.1l5.8,6.6l14.7-14.2c1-0.9,2.5-0.9,3.5,0
			l24,22.9l14.1-15.1c1-1,2.6-1.1,3.6-0.1l19.4,18.1v-54.6H459.9L459.9,980.6z M527.3,986.4c1.4,0,2.6,1.1,2.7,2.5c0,0,0,0.1,0,0.1
			v4.2c0,1.4-1.1,2.6-2.5,2.6c-1.4,0-2.6-1.1-2.6-2.5c0,0,0,0,0-0.1V989C524.7,987.6,525.8,986.5,527.3,986.4L527.3,986.4z
			 M514.7,991.5c0.1,0,0.2,0,0.3,0c0.7,0,1.4,0.3,1.9,0.8l3,3c1,1,1.1,2.6,0.1,3.6c-1,1-2.6,1.1-3.6,0.1c0,0,0,0-0.1-0.1l-3-3
			c-1-1-1.1-2.6-0.1-3.6C513.5,991.9,514.1,991.6,514.7,991.5z M539.3,991.5c0.1,0,0.2,0,0.3,0c1.4-0.1,2.6,1.1,2.7,2.5
			c0,0.7-0.3,1.4-0.8,2l-3,3c-1,1-2.6,1.1-3.6,0.1c-1-1-1.1-2.6-0.1-3.6c0,0,0,0,0.1-0.1l3-3C538.2,991.9,538.7,991.6,539.3,991.5z
			 M527.3,997.5c4.9,0,9,4,9,8.9c0,4.9-4.1,8.9-9,8.9c-5,0-9.1-4-9.1-8.9C518.3,1001.5,522.4,997.5,527.3,997.5z M509.7,1003.9
			c0.1,0,0.2,0,0.3,0h4.2c1.4,0,2.6,1.1,2.6,2.5c0,1.4-1.1,2.6-2.5,2.6c0,0,0,0-0.1,0h-4.3c-1.4,0.1-2.6-1-2.7-2.4
			C507.1,1005.2,508.2,1004,509.7,1003.9L509.7,1003.9z M540.2,1003.9c0.1,0,0.2,0,0.3,0h4.2c1.4,0,2.6,1.1,2.6,2.5
			c0,1.4-1.1,2.6-2.5,2.6c0,0,0,0-0.1,0h-4.3c-1.4,0.1-2.6-1-2.7-2.4C537.7,1005.2,538.8,1004,540.2,1003.9
			C540.2,1003.9,540.2,1003.9,540.2,1003.9L540.2,1003.9z"/>
		<path class="st11" d="M500.1,1014.8l24.1,23c1,1,2.7,0.9,3.6-0.1c0,0,0,0,0,0l14.1-15.2l21,19.6v6H459.9v-10.7l15.8-15.1l5.8,6.6
			c0.9,1.1,2.6,1.2,3.6,0.2c0,0,0.1-0.1,0.1-0.1L500.1,1014.8L500.1,1014.8z"/>
	</g>
	<g>
		<path class="st11" d="M993.5,92.8V45.3l0,0V19.9c0-1.2-1-2.2-2.2-2.2h-78.5c-1.2,0-2.2,1-2.2,2.2v84.2c0,1.2,1,2.2,2.2,2.2h86.8
			C995.9,103,993.5,98.2,993.5,92.8z M935,24.9c4.8,0,8.7,3.9,8.7,8.7c0,4.8-3.9,8.7-8.7,8.7c-4.8,0-8.7-3.9-8.7-8.7
			C926.4,28.7,930.3,24.9,935,24.9z M918.6,62.2v-2.5c0-8.1,7.6-14.6,17-14.6c9.4,0,17,6.5,17,14.6v2.5c0,1.2-1,2.2-2.2,2.2h-29.7
			C919.5,64.4,918.6,63.4,918.6,62.2z M979.2,95h-56.4c-1.2,0-2.2-1-2.2-2.2c0-1.2,1-2.2,2.2-2.2h56.4c1.2,0,2.2,1,2.2,2.2
			C981.3,94.1,980.4,95,979.2,95z M979.2,75.3h-56.4c-1.2,0-2.2-1-2.2-2.2c0-1.2,1-2.2,2.2-2.2h56.4c1.2,0,2.2,1,2.2,2.2
			C981.3,74.3,980.4,75.3,979.2,75.3z M979.2,55.5h-23.4c-1.2,0-2.2-1-2.2-2.2c0-1.2,1-2.2,2.2-2.2h23.4c1.2,0,2.2,1,2.2,2.2
			C981.3,54.5,980.4,55.5,979.2,55.5z M979.2,35.7h-23.4c-1.2,0-2.2-1-2.2-2.2c0-1.2,1-2.2,2.2-2.2h23.4c1.2,0,2.2,1,2.2,2.2
			C981.3,34.7,980.4,35.7,979.2,35.7z"/>
		<path class="st11" d="M1022.6,43.1h-22.6c-1.2,0-2.2,1-2.2,2.2v47.5c0,7.4,6,13.5,13.5,13.5c7.4,0,13.5-6,13.5-13.5V45.3
			C1024.8,44.1,1023.8,43.1,1022.6,43.1z"/>
	</g>
	<g>
		<rect x="26.3" y="353" class="st11" width="52" height="19.1"/>
		<g>
			<polyline class="st11" points="80.9,419.2 80.9,402 101.6,402 101.6,348 81.1,348 81.1,325 			"/>
			<polyline class="st11" points="23.5,325 23.5,348 2.8,348 2.8,402 23.5,402 23.5,419.2 			"/>
			<polyline class="st11" points="30.4,412.4 30.4,391.7 74.1,391.7 74.1,412.4 			"/>
			<rect x="67.1" y="361.8" class="st11" width="20.8" height="6.9"/>
		</g>
	</g>
	<path class="st11" d="M544.1,363.7h-29.6l22-25.7h0.6c4.8,0.1,8.7-3.8,8.8-8.6c0.1-4.8-3.8-8.7-8.6-8.8c-4.8-0.1-8.7,3.8-8.8,8.6
		c0,1.6,0.4,3.2,1.2,4.6l-20.3,23.6l-15.8-20.2c1.9-4.3,0-9.3-4.3-11.2c-4.3-1.9-9.3,0-11.2,4.3c-1.9,4.3,0,9.3,4.3,11.2
		c1.1,0.5,2.2,0.7,3.4,0.7c0.5,0,1.1,0,1.6,0l16.9,21.5h-25.5c-4.4,0-7.9,3.5-7.9,7.9v43.9c0,4.4,3.5,7.9,7.9,7.9h65.3
		c4.4,0,7.9-3.5,7.9-7.9v-44C552,367.2,548.5,363.7,544.1,363.7z M519.7,396.4l-10.8,10.8c-1.5,1.5-4,1.6-5.6,0
		c-0.7-0.7-1.2-1.7-1.2-2.8v-21.7c0.1-2.2,1.9-3.9,4.1-3.8c1,0,2,0.5,2.7,1.2l10.8,10.8C521.1,392.5,521.1,394.8,519.7,396.4
		L519.7,396.4z"/>
	<g>
		<path class="st11" d="M930.6,416.2v-81.1H988v5.1h-52.4v76H930.6z M939,424.6v-81.1h57.4v5.1h-52.4v76H939z M994.7,423v7.8
			l7.8-7.8H994.7z M947.4,352v81.1h43.9v-13.5h13.5V352H947.4z M957.6,385.8h11.8v3.4h-11.8V385.8z M966,419.6H961v-10.1h5.1V419.6z
			 M977.8,419.6h-8.4v-23.6h8.4V419.6z M986.3,419.6h-5.1v-16.9h5.1V419.6z M994.7,380.7h-37.2v-3.4h37.2V380.7z M994.7,372.3h-37.2
			v-3.4h37.2V372.3z M994.7,363.8h-37.2v-3.4h37.2V363.8z"/>
	</g>
	<g>
		<rect x="-212.5" y="-4239.5" class="st12" width="73.7" height="72.7"/>
		<rect x="-203.2" y="-4227.7" style="fill:none;" width="68.4" height="67.3"/>
		<text transform="matrix(1 0 0 1 -203.1577 -4187.3364)" class="st0" style="font-family:'Anton'; font-size:56.908px;">U2</text>
	</g>
	<g>
		<rect x="-213.9" y="-4371.7" class="st12" width="73.7" height="72.7"/>
		<rect x="-201.8" y="-4360" style="fill:none;" width="68.4" height="67.3"/>
		<text transform="matrix(1 0 0 1 -201.8017 -4319.5571)" class="st0" style="font-family:'Anton'; font-size:56.908px;">U1</text>
	</g>
	<g>
		<rect x="-212.5" y="-4107.2" class="st12" width="73.7" height="72.7"/>
		<rect x="-203.2" y="-4095.5" style="fill:none;" width="68.4" height="67.3"/>
		<text transform="matrix(1 0 0 1 -203.1577 -4055.116)" class="st0" style="font-family:'Anton'; font-size:56.908px;">U3</text>
	</g>
	<g>
		<rect x="-213" y="-3975" class="st12" width="73.7" height="72.7"/>
		<rect x="-202.7" y="-3963.3" style="fill:none;" width="68.4" height="67.3"/>
		<text transform="matrix(1 0 0 1 -202.7051 -3922.8953)" class="st0" style="font-family:'Anton'; font-size:56.908px;">U4</text>
	</g>
	<g>
		<rect x="-212.5" y="-3843.2" class="st12" width="73.7" height="72.7"/>
		<rect x="-203.2" y="-3830.6" style="fill:none;" width="68.4" height="67.3"/>
		<text transform="matrix(1 0 0 1 -203.1577 -3790.2214)" class="st0" style="font-family:'Anton'; font-size:56.908px;">U5</text>
	</g>
	<rect x="739.2" y="-4370" style="fill:none;" width="434.6" height="125.7"/>
	<text transform="matrix(1 0 0 1 739.2246 -4344.4795)"><tspan x="0" y="0" style="font-family:'UTM-Avo'; font-size:36px;">POST ADS, BANNER, </tspan><tspan x="0" y="43.2" style="font-family:'UTM-Avo'; font-size:36px;">SQUARE POSTS</tspan></text>
	<rect x="739.2" y="-4208" style="fill:none;" width="737.7" height="125.7"/>
	<text transform="matrix(1 0 0 1 739.2246 -4182.4346)" style="font-family:'UTM-Avo'; font-size:36px;">TYPOGRAPHY NACIS</text>
	<rect x="739.2" y="-4073.2" style="fill:none;" width="737.7" height="46.3"/>
	<text transform="matrix(1 0 0 1 739.2246 -4047.6082)" style="font-family:'UTM-Avo'; font-size:36px;">ADVANCED MASK TECH</text>
	<rect x="739.2" y="-3943.8" style="fill:none;" width="737.7" height="125.7"/>
	<text transform="matrix(1 0 0 1 739.2246 -3918.2029)" style="font-family:'UTM-Avo'; font-size:36px;">CV &amp; CL DESIGN</text>
	<rect x="739.2" y="-3833.6" style="fill:none;" width="737.7" height="125.7"/>
	<text transform="matrix(1 0 0 1 739.2246 -3813.7458)"><tspan x="0" y="0" style="font-family:'UTM-Avo'; font-size:28.0023px;">Bạn vui lòng liên hệ để có </tspan><tspan x="0" y="33.6" style="font-family:'UTM-Avo'; font-size:28.0023px;">chương trình học chi tiết và cụ thể</tspan></text>
	<g>
		<rect x="620.3" y="-4237.6" class="st12" width="73.7" height="72.7"/>
		<rect x="629.7" y="-4225.9" style="fill:none;" width="68.4" height="67.3"/>
		<text transform="matrix(1 0 0 1 629.7207 -4185.5303)" class="st0" style="font-family:'Anton'; font-size:56.908px;">U7</text>
	</g>
	<g>
		<rect x="619" y="-4369.9" class="st12" width="73.7" height="72.7"/>
		<rect x="631.1" y="-4358.2" style="fill:none;" width="68.4" height="67.3"/>
		<text transform="matrix(1 0 0 1 631.0781 -4317.7505)" class="st0" style="font-family:'Anton'; font-size:56.908px;">U6</text>
	</g>
	<g>
		<rect x="620.3" y="-4105.4" class="st12" width="73.7" height="72.7"/>
		<rect x="629.7" y="-4093.7" style="fill:none;" width="68.4" height="67.3"/>
		<text transform="matrix(1 0 0 1 629.7207 -4053.3093)" class="st0" style="font-family:'Anton'; font-size:56.908px;">U8</text>
	</g>
	<g>
		<rect x="619.9" y="-3973.2" class="st12" width="73.7" height="72.7"/>
		<rect x="630.2" y="-3961.5" style="fill:none;" width="68.4" height="67.3"/>
		<text transform="matrix(1 0 0 1 630.1738 -3921.0886)" class="st0" style="font-family:'Anton'; font-size:56.908px;">U9</text>
	</g>
	<g>
		<rect x="620.3" y="-3841.4" class="st12" width="73.7" height="72.7"/>
		<rect x="629.7" y="-3828.8" style="fill:none;" width="68.4" height="67.3"/>
		<text transform="matrix(1 0 0 1 629.7207 -3788.4148)" class="st0" style="font-family:'Anton'; font-size:56.908px;">A</text>
	</g>
	<rect x="-320.4" y="1462.9" style="fill:none;" width="733.3" height="287.9"/>
	<text transform="matrix(1 0 0 1 -320.4058 1477.223)"><tspan x="0" y="0" class="st10" style="font-family:'HelveticaNeue-Bold'; font-size:20px;">Lưu ý: vì số lượng mỗi lớp hạn chế nên các bạn nhanh tay </tspan><tspan x="0" y="29" class="st10" style="font-family:'HelveticaNeue-Bold'; font-size:20px;">đăng kí sớm và đóng học phí để mình giữ chỗ và xếp lớp.</tspan><tspan x="0" y="87" class="st10" style="font-family:'HelveticaNeue-Bold'; font-size:20px;">Đăng kí trong 72h- Giảm 5% học phí</tspan><tspan x="0" y="116" class="st10" style="font-family:'HelveticaNeue-Bold'; font-size:20px;">Học phí: các bạn vui lòng inbox và sẽ cung cấp số TK </tspan><tspan x="0" y="174" class="st10" style="font-family:'HelveticaNeue-Bold'; font-size:20px;">p/s: Về bài học số 5 và bài số 6 trong chương trình học, </tspan><tspan x="0" y="203" class="st10" style="font-family:'HelveticaNeue-Bold'; font-size:20px;">các bạn sẽ biết cách làm đẹp hình ảnh của chính </tspan><tspan x="0" y="232" class="st10" style="font-family:'HelveticaNeue-Bold'; font-size:20px;">các bạn khi post lên Facebook</tspan></text>
	<g>
		<path class="st6" d="M-127.8,987.2c-13.9,0-25.1,10.7-25.1,23.9c0,3.8,0.9,7.5,2.7,10.9l0,0c7,11.8,15,23.8,22.5,35.6
			c7-12.1,15.6-23.4,22.3-35.6c1.8-3.4,2.7-7.1,2.7-10.9C-102.7,997.9-113.9,987.2-127.8,987.2L-127.8,987.2L-127.8,987.2z
			 M-127.8,997.3c7.3,0,13.3,5.9,13.3,13.3v0c0,7.3-5.9,13.3-13.3,13.3c0,0,0,0,0,0c-7.3,0-13.3-5.9-13.3-13.3
			C-141,1003.2-135.1,997.3-127.8,997.3L-127.8,997.3z"/>
	</g>
	<g>
		<path class="st6" d="M255.3,982.9c-13.9,0-25.1,10.7-25.1,23.9c0,3.8,0.9,7.5,2.7,10.9l0,0c7,11.8,15,23.8,22.5,35.6
			c7-12.1,15.6-23.4,22.3-35.6c1.8-3.4,2.7-7.1,2.7-10.9C280.5,993.6,269.2,982.9,255.3,982.9L255.3,982.9L255.3,982.9z
			 M255.3,992.9c7.3,0,13.3,5.9,13.3,13.3v0c0,7.3-5.9,13.3-13.3,13.3c0,0,0,0,0,0c-7.3,0-13.3-5.9-13.3-13.3
			C242.1,998.8,248,992.9,255.3,992.9L255.3,992.9z"/>
	</g>
	<rect x="-324.8" y="1083.3" style="fill:none;" width="394" height="77.6"/>
	<text transform="matrix(1 0 0 1 -301.9136 1096.8666)"><tspan x="0" y="0" class="st10" style="font-family:'HelveticaNeue-Bold'; font-size:19px;">345/86 Trần Hưng Đạo P. Cầu Kho Q.1 </tspan><tspan x="24.1" y="29" class="st10" style="font-family:'HelveticaNeue-Bold'; font-size:19px;">(KHỐI NGÀNH 3D &amp; Talent Team)</tspan></text>
	<rect x="-291.3" y="1262.6" style="fill:none;" width="327" height="77.6"/>
	<text transform="matrix(1 0 0 1 -200.0693 1281.1906)" class="st10" style="font-family:'HelveticaNeue-Bold'; font-size:26px;">0932709998</text>
	<rect x="91.8" y="1262.6" style="fill:none;" width="327" height="77.6"/>
	<text transform="matrix(1 0 0 1 175.8408 1281.1906)" class="st10" style="font-family:'HelveticaNeue-Bold'; font-size:26px;">0378 277 414 </text>
	<rect x="91.8" y="1078.9" style="fill:none;" width="327" height="77.6"/>
	<text transform="matrix(1 0 0 1 139.749 1093.2211)" class="st10" style="font-family:'HelveticaNeue-Bold'; font-size:20px;">20 PHAN VĂN TRỊ P2 Q5</text>
	<g transform="translate(0,-952.36218)">
		<path class="st6" d="M-106.2,2126.8c3.8,4,6.7,7.8,7.3,11.4c-0.1,8.3-7.9,18.6-17.3,27.9c-9.3,9.3-20.2,18.5-28,17.3
			c-3.7-0.6-7.5-3.5-11.5-7.4c-1.3-1.2-1.3-3.9,0-5.2l8-8c1.4-1.4,4.1-1.4,5.8-0.4l5.4,3.9c2.9,2.4,8.9-3.6,12.9-7.6
			c4-4,10.1-9.4,7.5-13l-3.9-5.4c-0.9-1.7-0.9-4.4,0.4-5.7l8-8C-110.2,2125.5-107.5,2125.5-106.2,2126.8L-106.2,2126.8z"/>
	</g>
	<g transform="translate(0,-952.36218)">
		<path class="st6" d="M277,2126.8c3.8,4,6.7,7.8,7.3,11.4c-0.1,8.3-7.9,18.6-17.3,27.9c-9.3,9.3-20.2,18.5-28,17.3
			c-3.7-0.6-7.5-3.5-11.5-7.4c-1.3-1.2-1.3-3.9,0-5.2l8-8c1.4-1.4,4.1-1.4,5.8-0.4l5.4,3.9c2.9,2.4,8.9-3.6,12.9-7.6
			c4-4,10.1-9.4,7.5-13l-3.9-5.4c-0.9-1.7-0.9-4.4,0.4-5.7l8-8C273,2125.5,275.6,2125.5,277,2126.8L277,2126.8z"/>
	</g>
	<rect x="90.6" y="-7583.6" width="63" height="63"/>
</g>
<g id="Layer_7">
	<rect x="-309.5" y="-7654.3" style="fill:none;" width="864.3" height="96.7"/>
	<text transform="matrix(1 0 0 1 -309.5156 -7604.5874)" class="st12" style="font-family:'Anton'; font-size:70px;">KODA PHOTOSHOP COURSE</text>
</g>
</svg>
