<?xml version="1.0" encoding="utf-8"?>
<!-- Generator: Adobe Illustrator 24.3.0, SVG Export Plug-In . SVG Version: 6.00 Build 0)  -->
<svg version="1.1" xmlns="http://www.w3.org/2000/svg" xmlns:xlink="http://www.w3.org/1999/xlink" x="0px" y="0px" width="124.9px"
	 height="139.5px" viewBox="0 0 124.9 139.5" style="enable-background:new 0 0 124.9 139.5;" xml:space="preserve">
<style type="text/css">
	.st0{fill:none;}
	.st1{fill:#EB7E29;}
	.st2{fill:#FF6400;}
	.st3{fill:#CD8024;}
	.st4{fill:#C18007;}
	.st5{fill:#FFA345;}
	.st6{fill:#FF8031;}
	.st7{fill:#E88038;}
	.st8{fill:#FF801E;}
	.st9{fill:#BB8008;}
	.st10{font-family:'HelveticaNeue-Bold';}
	.st11{font-size:29px;}
	.st12{font-size:26px;}
	.st13{font-family:'HelveticaNeue-Medium';}
</style>
<g id="Layer_2">
</g>
<g id="Layer_1">
	<rect x="-897.6" y="-8182" class="st0" width="1920" height="1080"/>
	<rect x="-897.6" y="-7101" class="st0" width="1920" height="1080"/>
	<rect x="-897.6" y="-9262" class="st0" width="1920" height="1080"/>
	<rect x="-897.6" y="-10342" class="st0" width="1920" height="1080"/>
	<rect x="-897.6" y="-4942" class="st0" width="1920" height="1080"/>
	<rect x="-897.6" y="-3862" class="st0" width="1920" height="1080"/>
	<rect x="-897.6" y="-2782" class="st0" width="1920" height="1080"/>
	<rect x="-897.6" y="-1702" class="st0" width="1920" height="1080"/>
	<rect x="-897.6" y="-622" class="st0" width="1920" height="1080"/>
	<rect x="-897.6" y="458" class="st0" width="1920" height="1080"/>
	<rect x="-897.6" y="1538" class="st0" width="1920" height="1080"/>
	<rect x="-897.6" y="2618" class="st0" width="1920" height="1080"/>
	<rect x="-897.6" y="3698" class="st0" width="1920" height="1080"/>
</g>
<g id="Layer_3">
	<rect x="-98.8" y="-8680.5" class="st0" width="1076.2" height="75"/>
	<text transform="matrix(1 0 0 1 -98.7676 -8638.5508)" class="st10" style="fill:#004068; font-size:58.7032px;">Upgrade Program 2024</text>
	<text transform="matrix(1 0 0 1 -98.7676 -8860.0947)"><tspan x="0" y="0" style="fill:#BC4C25; font-family:'Anton'; font-size:97.8386px;">KHAI GIẢNG KHÓA </tspan><tspan x="0" y="135.9" style="fill:#BC4C25; font-family:'Anton'; font-size:97.8386px;">KODA WATERCOLOR CLASS </tspan></text>
</g>
<g id="Layer_6">
</g>
<g id="Layer_4">
</g>
<g id="Layer_5">
	<rect x="-897.6" y="-5929" class="st1" width="723.4" height="126.1"/>
	<rect x="-897.6" y="-3728" class="st2" width="1076" height="116"/>
	<rect x="-102.6" y="-8588" class="st3" width="1014" height="43"/>
	<rect x="-102.6" y="-8530" class="st3" width="331" height="44"/>
	<text transform="matrix(1 0 0 1 -95.7671 -8553.6406)"><tspan x="0" y="0" style="fill:#FFFFFF; font-family:'MyriadPro-Bold'; font-size:33.7px;">CHƯƠNG TRÌNH HỌC CẬP NHẬT LIÊN TỤC ĐỔI MỚI KHÔNG NGỪNG </tspan><tspan x="0" y="57.6" style="fill:#FFFFFF; font-family:'MyriadPro-Bold'; font-size:33.7px;">THEO QUÝ MỖI NĂM</tspan></text>
	<g>
		<text transform="matrix(1 0 0 1 -684.0518 -3640.5935)" style="fill:#FFFFFF; font-family:'Anton'; font-size:64.8602px;">NỘI DUNG CHƯƠNG TRÌNH KHÓA HỌC</text>
	</g>
	<rect x="-668.9" y="-1324" class="st0" width="554.5" height="95.1"/>
	<text transform="matrix(1 0 0 1 -668.9331 -1304.0233)"><tspan x="0" y="0" class="st13" style="fill:#333333; font-size:27.9885px;">Lớp Sáng:</tspan><tspan x="134.3" y="0" class="st13" style="fill:#333333; font-size:26.1828px;"> Thứ 6: 9h-10h30 sáng </tspan><tspan x="0" y="33.6" class="st13" style="fill:#333333; font-size:27.9885px;">Lớp Sáng:</tspan><tspan x="134.3" y="33.6" class="st13" style="fill:#333333; font-size:26.1828px;"> Thứ 7: 9h-10h30 sáng </tspan><tspan x="0" y="67.2" class="st13" style="fill:#333333; font-size:27.9885px;">Lớp Sáng:</tspan><tspan x="134.3" y="67.2" class="st13" style="fill:#333333; font-size:26.1828px;"> Thứ chủ nhật: 9h-10h30 sáng</tspan></text>
	<rect x="-668.9" y="-1187.1" class="st0" width="581.5" height="95.1"/>
	<text transform="matrix(1 0 0 1 -668.9331 -1167.1112)"><tspan x="0" y="0" class="st13" style="fill:#333333; font-size:27.9885px;">Các em chọn 1 trong 3 hoặc 2 trong 3 buổi </tspan><tspan x="0" y="33.6" class="st13" style="fill:#333333; font-size:27.9885px;">Tùy theo lịch cá nhân</tspan></text>
	<rect x="128.4" y="-6760.4" class="st0" width="728.8" height="222.4"/>
	<text transform="matrix(1 0 0 1 178.0912 -6728.8877)"><tspan x="0" y="0" class="st13" style="font-size:44.1859px;">Theo sát từng học viên trong quá </tspan><tspan x="200.6" y="74.4" class="st13" style="font-size:44.1859px;">trình học và hướng dẫn </tspan><tspan x="404" y="148.8" class="st13" style="font-size:44.1859px;">bài vở về nhà </tspan></text>
	<g>
		<rect x="47.8" y="-6897.9" class="st0" width="822.6" height="152.5"/>
		<text transform="matrix(1 0 0 1 128.6929 -6831.8618)" style="fill:#BC4C25; font-family:'Anton'; font-size:93.0229px;">HƯỚNG DẪN TRỰC </text>
	</g>
	<g>
		<rect x="-677.5" y="-1525.4" class="st0" width="494.1" height="142.1"/>
		<text transform="matrix(1 0 0 1 -677.5132 -1467.0956)" style="fill:#C83443; font-family:'Anton'; font-size:82.1598px;">Thời gian học </text>
	</g>
	<g>
		<rect x="-755.9" y="-5903.9" class="st0" width="789.8" height="102.3"/>
		<text transform="matrix(1 0 0 1 -755.9233 -5839.2671)" style="fill:#FFFFFF; font-family:'Anton'; font-size:91px;">FROM STUDENTS</text>
	</g>
	<g>
		<rect x="-637.3" y="-4080.1" class="st0" width="716" height="211.8"/>
		<text transform="matrix(1 0 0 1 -637.3218 -3994.9441)"><tspan x="0" y="0" style="fill:#C3B397; font-family:'Anton'; font-size:120px;">FROM STU</tspan><tspan x="524" y="0" style="fill:#C3B397; font-family:'Anton'; font-size:120px;">-</tspan></text>
	</g>
	<g>
		<rect x="-685.2" y="612.7" class="st0" width="325.2" height="120.1"/>
		<text transform="matrix(1 0 0 1 -685.1758 675.0997)" class="st6" style="font-family:'Anton'; font-size:87.8215px;">ĐỊA </text>
	</g>
	
		<image style="overflow:visible;" width="1143" height="480" xlink:href="../../../../Downloads/pTS (16a).jpg"  transform="matrix(1.6772 0 0 1.6772 -896.1673 3835.4258)">
	</image>
	<rect x="-677.4" y="1088.5" class="st0" width="627.6" height="45.6"/>
	<text transform="matrix(1 0 0 1 -677.397 1108.1241)" class="st10" style="fill:#333333; font-size:27.4997px;">2 chi nhánh cách nhau 30s đi xe máy</text>
	<path class="st4" d="M858.7-6382.3c0,4.9-4,8.9-8.9,8.9h-267c-4.9,0-8.9-4-8.9-8.9v-76.3c0-4.9,4-8.9,8.9-8.9h267
		c4.9,0,8.9,4,8.9,8.9V-6382.3z"/>
	<rect x="511.6" y="-6443.8" class="st0" width="404.8" height="86"/>
	<text transform="matrix(1 0 0 1 605.8911 -6398.9443)" class="st10" style="fill:#FFFFFF; font-size:62.7905px;">Liên hệ</text>
	<path class="st5" d="M-453.5-789c0,3.8-3.1,6.9-6.9,6.9h-207.3c-3.8,0-6.9-3.1-6.9-6.9v-59.2c0-3.8,3.1-6.9,6.9-6.9h207.3
		c3.8,0,6.9,3.1,6.9,6.9V-789z"/>
	<rect x="-723" y="-836.7" class="st0" width="314.3" height="66.8"/>
	<text transform="matrix(1 0 0 1 -649.8633 -801.8622)" class="st10" style="fill:#FFFFFF; font-size:48.7542px;">Liên hệ</text>
	<rect x="-897.6" y="-1246.1" class="st6" width="69.5" height="1226.7"/>
	<rect x="-897.6" y="1200" class="st6" width="146" height="172.6"/>
	<rect x="914.4" y="519.1" class="st6" width="108" height="957.2"/>
	<rect x="-727" y="-7922.2" class="st0" width="774.6" height="94.5"/>
	<text transform="matrix(1 0 0 1 -727.0435 -7902.2017)"><tspan x="0" y="0" class="st10" style="fill:#333333; font-size:28px;">Khám phá những bí ẩn kỳ thú của nghệ thuật tranh màu </tspan><tspan x="0" y="41" class="st10" style="fill:#333333; font-size:28px;">nước đương đại cùng HANNA’S FAMILY nhé</tspan></text>
	<rect x="-727" y="-7787.2" class="st0" width="774.6" height="578.1"/>
	<text transform="matrix(1 0 0 1 -727.0435 -7767.2085)"><tspan x="0" y="0" class="st10" style="fill:#333333; font-size:28px;">Đây là lớp học vẽ tranh màu nước hiện đại mà bên</tspan><tspan x="0" y="41" class="st10" style="fill:#333333; font-size:28px;">HANNA&apos;S FAMILY đã ấp ủ từ lâu. Lớp học được mở ra </tspan><tspan x="0" y="82" class="st10" style="fill:#333333; font-size:28px;">với mục đích mang tới các bạn trẻ kiến thức đầy đủ và </tspan><tspan x="0" y="123" class="st10" style="fill:#333333; font-size:28px;">hiện đại nhất về lý thuyết của màu nước, màu sắc, cách </tspan><tspan x="0" y="164" class="st10" style="fill:#333333; font-size:28px;">phối màu, chọn cọ, giấy vẽ.. đến kỹ thuật vẽ, kiểm soát </tspan><tspan x="0" y="205" class="st10" style="fill:#333333; font-size:28px;">lượng nước, vẽ phác thảo… </tspan><tspan x="0" y="287" class="st10" style="fill:#333333; font-size:28px;">Sau khoá học, các bạn học viên sẽ có đủ khả năng để </tspan><tspan x="0" y="328" class="st10" style="fill:#333333; font-size:28px;">sáng tác những tác phẩm màu nước theo sở thích </tspan><tspan x="0" y="369" class="st10" style="fill:#333333; font-size:28px;">của mình.</tspan></text>
	<polygon class="st0" points="118.5,-7246.1 -733.6,-7246.1 -735.6,-7282.1 116.5,-7282.1 	"/>
	<text transform="matrix(1 0 0 1 -734.1318 -7256.5151)" style="fill:#4D4D4D; font-family:'MyriadPro-Bold'; font-size:36px;">Không gian lớp học</text>
	<g>
		<rect x="-672.8" y="-1405" class="st0" width="548.9" height="56"/>
		<text transform="matrix(1 0 0 1 -672.8096 -1371.036)" class="st6" style="font-family:'Anton'; font-size:47.8513px;">LỚP TRỰC TIẾP</text>
	</g>
	<g>
		<rect x="-674.7" y="-1089" class="st0" width="297.9" height="72.2"/>
		<text transform="matrix(1 0 0 1 -674.748 -1055.0419)" class="st6" style="font-family:'Anton'; font-size:47.8513px;">LỚP ONLINE</text>
	</g>
	<rect x="-670.9" y="-1080.4" class="st0" width="523.4" height="204.9"/>
	<text transform="matrix(1 0 0 1 -670.8715 -1004.5389)"><tspan x="0" y="0" class="st13" style="fill:#333333; font-size:24.3771px;">Lớp học online từ xa dành cho các bạn trong </tspan><tspan x="0" y="29.3" class="st13" style="fill:#333333; font-size:24.3771px;">&amp; ngoài nước</tspan><tspan x="0" y="87.8" class="st13" style="fill:#333333; font-size:24.3771px;">Đặc biệt là các bạn đang du học hoặc đang </tspan><tspan x="0" y="117" class="st13" style="fill:#333333; font-size:24.3771px;">làm việc ở nước ngoài</tspan></text>
	<g>
		<rect x="-774.6" y="-678.1" class="st0" width="1624" height="143.2"/>
		<text transform="matrix(1 0 0 1 -437.0776 -623.4143)" class="st6" style="font-family:'Anton'; font-size:77px;">KODA WATERCOLOR COURSE  </text>
	</g>
	<rect x="-526.4" y="-3506.5" class="st0" width="664.3" height="113.2"/>
	<text transform="matrix(1 0 0 1 -526.4087 -3482.1985)" style="font-family:'UTM-Avo'; font-size:34.1658px;">PREPARATION OF WATERCOLORS</text>
	<rect x="-526.4" y="-3387.4" class="st0" width="664.3" height="113.2"/>
	<text transform="matrix(1 0 0 1 -526.4087 -3363.1267)" style="font-family:'UTM-Avo'; font-size:34.1658px;">FROM IDEA TO PAPER</text>
	<rect x="-526.4" y="-3268.3" class="st0" width="664.3" height="41.7"/>
	<text transform="matrix(1 0 0 1 -526.4087 -3244.054)" style="font-family:'UTM-Avo'; font-size:34.1658px;">TECHNIQUE WCL &amp; BRUSH STROKES</text>
	<rect x="-526.4" y="-3150.2" class="st0" width="664.3" height="113.2"/>
	<text transform="matrix(1 0 0 1 -526.4087 -3125.9856)" style="font-family:'UTM-Avo'; font-size:34.1658px;">KNOW YOUR OWN IDEAS</text>
	<rect x="-526.4" y="-3029.2" class="st0" width="664.3" height="113.2"/>
	<text transform="matrix(1 0 0 1 -526.4087 -3004.9426)" style="font-family:'UTM-Avo'; font-size:34.1658px;">THE BODY - BASIC</text>
	<rect x="-635.6" y="-3413" class="st7" width="66" height="66"/>
	<rect x="-627.5" y="-3402.3" class="st0" width="61.6" height="60.6"/>
	<text transform="matrix(1 0 0 1 -627.4629 -3365.9255)" style="fill:#FFFFFF; font-family:'Anton'; font-size:51.2488px;">U2</text>
	<rect x="-637.6" y="-3532" class="st7" width="67" height="66"/>
	<rect x="-626.2" y="-3521.4" class="st0" width="61.6" height="60.6"/>
	<text transform="matrix(1 0 0 1 -626.2417 -3484.9983)" style="fill:#FFFFFF; font-family:'Anton'; font-size:51.2488px;">U1</text>
	<rect x="-635.6" y="-3294" class="st7" width="66" height="66"/>
	<rect x="-627.5" y="-3283.2" class="st0" width="61.6" height="60.6"/>
	<text transform="matrix(1 0 0 1 -627.4629 -3246.8542)" style="fill:#FFFFFF; font-family:'Anton'; font-size:51.2488px;">U3</text>
	<rect x="-636.6" y="-3175" class="st7" width="67" height="66"/>
	<rect x="-627.1" y="-3164.2" class="st0" width="61.6" height="60.6"/>
	<text transform="matrix(1 0 0 1 -627.0557 -3127.782)" style="fill:#FFFFFF; font-family:'Anton'; font-size:51.2488px;">U4</text>
	<rect x="-635.6" y="-3056" class="st7" width="66" height="65"/>
	<rect x="-627.5" y="-3044.7" class="st0" width="61.6" height="60.6"/>
	<text transform="matrix(1 0 0 1 -627.4629 -3008.3025)" style="fill:#FFFFFF; font-family:'Anton'; font-size:51.2488px;">U5</text>
	<rect x="254.5" y="-3507.9" class="st0" width="530.8" height="113.2"/>
	<text transform="matrix(1 0 0 1 254.5249 -3483.6516)" style="font-family:'UTM-Avo'; font-size:34.1658px;">THE CIRCLE OF COLORS</text>
	<rect x="254.5" y="-3388.5" class="st0" width="664.3" height="113.2"/>
	<text transform="matrix(1 0 0 1 254.5249 -3364.2747)" style="font-family:'UTM-Avo'; font-size:34.1658px;">PAINTING OUR ELEMENTS</text>
	<rect x="254.5" y="-3267.1" class="st0" width="664.3" height="41.7"/>
	<text transform="matrix(1 0 0 1 254.5249 -3242.8547)" style="font-family:'UTM-Avo'; font-size:34.1658px;">PROJECTS</text>
	<rect x="254.5" y="-3165.8" class="st0" width="664.3" height="113.2"/>
	<text transform="matrix(1 0 0 1 254.5249 -3147.9382)"><tspan x="0" y="0" style="font-family:'UTM-Avo'; font-size:25.2176px;">Bạn vui lòng liên hệ để có </tspan><tspan x="0" y="30.3" style="font-family:'UTM-Avo'; font-size:25.2176px;">chương trình học chi tiết và cụ thể</tspan></text>
	<rect x="147.4" y="-3411" class="st7" width="66" height="65"/>
	<rect x="155.9" y="-3400.7" class="st0" width="61.6" height="60.6"/>
	<text transform="matrix(1 0 0 1 155.9106 -3364.2991)" style="fill:#FFFFFF; font-family:'Anton'; font-size:51.2488px;">U7</text>
	<rect x="146.4" y="-3530" class="st7" width="66" height="65"/>
	<rect x="155.1" y="-3519.8" class="st0" width="61.6" height="60.6"/>
	<text transform="matrix(1 0 0 1 155.1311 -3483.3713)" style="fill:#FFFFFF; font-family:'Anton'; font-size:51.2488px;">U6</text>
	<rect x="147.4" y="-3292" class="st7" width="66" height="65"/>
	<rect x="155.9" y="-3281.6" class="st0" width="61.6" height="60.6"/>
	<text transform="matrix(1 0 0 1 155.9106 -3245.2273)" style="fill:#FFFFFF; font-family:'Anton'; font-size:51.2488px;">U8</text>
	<rect x="147.4" y="-3173" class="st7" width="66" height="65"/>
	<rect x="156.3" y="-3162.5" class="st0" width="61.6" height="60.6"/>
	<text transform="matrix(1 0 0 1 156.3188 -3126.155)" style="fill:#FFFFFF; font-family:'Anton'; font-size:51.2488px;">U9</text>
	<rect x="-677.4" y="1130.8" class="st0" width="650.5" height="255.3"/>
	<text transform="matrix(1 0 0 1 -677.397 1143.4825)"><tspan x="0" y="0" class="st10" style="fill:#333333; font-size:17.7417px;">Lưu ý: vì số lượng mỗi lớp hạn chế nên các bạn nhanh tay </tspan><tspan x="0" y="25.7" class="st10" style="fill:#333333; font-size:17.7417px;">đăng kí sớm và đóng học phí để mình giữ chỗ và xếp lớp.</tspan><tspan x="0" y="77.2" class="st10" style="fill:#333333; font-size:17.7417px;">Đăng kí trong 72h- Giảm 5% học phí</tspan><tspan x="0" y="102.9" class="st10" style="fill:#333333; font-size:17.7417px;">Học phí: các bạn vui lòng inbox và sẽ cung cấp số TK </tspan><tspan x="0" y="154.4" class="st10" style="fill:#333333; font-size:17.7417px;">p/s: Về bài học số 5 và bài số 6 trong chương trình học, </tspan><tspan x="0" y="180.1" class="st10" style="fill:#333333; font-size:17.7417px;">các bạn sẽ biết cách làm đẹp hình ảnh của chính </tspan><tspan x="0" y="205.8" class="st10" style="fill:#333333; font-size:17.7417px;">các bạn khi post lên Facebook</tspan></text>
	<g>
		<path class="st8" d="M-518.7,767.8c-12.3,0-22.3,9.5-22.3,21.2c0,3.3,0.8,6.6,2.4,9.6l0,0c6.2,10.5,13.3,21.1,20,31.6
			c6.2-10.7,13.8-20.7,19.8-31.6c1.6-3,2.4-6.3,2.4-9.6C-496.4,777.3-506.4,767.8-518.7,767.8L-518.7,767.8L-518.7,767.8z
			 M-518.7,776.7c6.5,0,11.8,5.3,11.8,11.8v0c0,6.5-5.3,11.8-11.8,11.8c0,0,0,0,0,0c-6.5,0-11.8-5.3-11.8-11.8
			C-530.4,782-525.2,776.7-518.7,776.7L-518.7,776.7z"/>
	</g>
	<g>
		<path class="st8" d="M-178.8,763.9c-12.3,0-22.3,9.5-22.3,21.2c0,3.3,0.8,6.6,2.4,9.6l0,0c6.2,10.5,13.3,21.1,20,31.6
			c6.2-10.7,13.8-20.7,19.8-31.6c1.6-3,2.4-6.3,2.4-9.6C-156.5,773.4-166.5,763.9-178.8,763.9L-178.8,763.9L-178.8,763.9z
			 M-178.8,772.8c6.5,0,11.8,5.3,11.8,11.8v0c0,6.5-5.3,11.8-11.8,11.8c0,0,0,0,0,0c-6.5,0-11.8-5.3-11.8-11.8
			C-190.6,778.1-185.3,772.8-178.8,772.8L-178.8,772.8z"/>
	</g>
	<rect x="-693.4" y="853" class="st0" width="349.5" height="68.9"/>
	<text transform="matrix(1 0 0 1 -684.6968 865.0363)"><tspan x="0" y="0" class="st10" style="fill:#333333; font-size:16.8546px;">345/86 TRẦN HƯNG ĐẠO P. Cầu Kho Q.1 </tspan><tspan x="32.9" y="25.7" class="st10" style="fill:#333333; font-size:16.8546px;">(KHỐI NGÀNH 3D &amp; Talent Team)</tspan></text>
	<rect x="-663.7" y="1012.1" class="st0" width="290.1" height="68.9"/>
	<text transform="matrix(1 0 0 1 -582.7983 1028.5519)" class="st10" style="fill:#333333; font-size:23.0642px;">0932709998</text>
	<rect x="-323.8" y="1012.1" class="st0" width="290.1" height="68.9"/>
	<text transform="matrix(1 0 0 1 -249.334 1028.5519)" class="st10" style="fill:#333333; font-size:23.0642px;">0378 277 414 </text>
	<rect x="-323.8" y="849.1" class="st0" width="290.1" height="68.9"/>
	<text transform="matrix(1 0 0 1 -281.3501 861.8019)" class="st10" style="fill:#333333; font-size:17.7417px;">20 PHAN VĂN TRỊ P2 Q5</text>
	<g transform="translate(0,-952.36218)">
		<path class="st8" d="M-499.5,1886.2c3.4,3.6,5.9,6.9,6.5,10.1c-0.1,7.4-7,16.5-15.4,24.8c-8.3,8.3-17.9,16.4-24.9,15.4
			c-3.3-0.6-6.6-3.1-10.2-6.5c-1.2-1.1-1.2-3.5,0-4.6l7.1-7.1c1.2-1.2,3.6-1.2,5.2-0.4l4.8,3.5c2.5,2.2,7.9-3.2,11.5-6.7
			c3.6-3.6,9-8.4,6.7-11.5l-3.5-4.8c-0.8-1.5-0.8-3.9,0.4-5.1l7.1-7.1C-503,1885-500.7,1885-499.5,1886.2L-499.5,1886.2z"/>
	</g>
	<g transform="translate(0,-952.36218)">
		<path class="st8" d="M-159.6,1886.2c3.4,3.6,5.9,6.9,6.5,10.1c-0.1,7.4-7,16.5-15.4,24.8c-8.3,8.3-17.9,16.4-24.9,15.4
			c-3.3-0.6-6.6-3.1-10.2-6.5c-1.2-1.1-1.2-3.5,0-4.6l7.1-7.1c1.2-1.2,3.6-1.2,5.2-0.4l4.8,3.5c2.5,2.2,7.9-3.2,11.5-6.7
			c3.6-3.6,9-8.4,6.7-11.5l-3.5-4.8c-0.8-1.5-0.8-3.9,0.4-5.1l7.1-7.1C-163.2,1885-160.8,1885-159.6,1886.2L-159.6,1886.2z"/>
	</g>
	<g>
		<rect x="-793.8" y="2784.4" class="st0" width="968" height="296"/>
		<text transform="matrix(1 0 0 1 -793.8418 2888.7344)"><tspan x="0" y="0" class="st6" style="font-family:'Anton'; font-size:147px;">FROM STU</tspan><tspan x="641.9" y="0" class="st6" style="font-family:'Anton'; font-size:147px;">-</tspan><tspan x="0" y="176.4" class="st6" style="font-family:'Anton'; font-size:147px;">DENTS </tspan></text>
	</g>
	<g>
		<defs>
			<rect id="SVGID_1_" x="-792.6" y="-2676" width="547" height="409"/>
		</defs>
		<clipPath id="SVGID_2_">
			<use xlink:href="#SVGID_1_"  style="overflow:visible;"/>
		</clipPath>
	</g>
	<g>
		<defs>
			<rect id="SVGID_3_" x="375.4" y="-2676" width="546" height="409"/>
		</defs>
		<clipPath id="SVGID_4_">
			<use xlink:href="#SVGID_3_"  style="overflow:visible;"/>
		</clipPath>
	</g>
	<g>
		<defs>
			<rect id="SVGID_5_" x="-208.6" y="-2676" width="546" height="409"/>
		</defs>
		<clipPath id="SVGID_6_">
			<use xlink:href="#SVGID_5_"  style="overflow:visible;"/>
		</clipPath>
	</g>
	<g>
		<defs>
			<rect id="SVGID_7_" x="-789.6" y="-2235" width="547" height="409"/>
		</defs>
		<clipPath id="SVGID_8_">
			<use xlink:href="#SVGID_7_"  style="overflow:visible;"/>
		</clipPath>
	</g>
	<g>
		<defs>
			<rect id="SVGID_9_" x="-206.6" y="-2235" width="546" height="409"/>
		</defs>
		<clipPath id="SVGID_10_">
			<use xlink:href="#SVGID_9_"  style="overflow:visible;"/>
		</clipPath>
	</g>
	<g>
		<defs>
			<rect id="SVGID_11_" x="375.4" y="-2235" width="546" height="409"/>
		</defs>
		<clipPath id="SVGID_12_">
			<use xlink:href="#SVGID_11_"  style="overflow:visible;"/>
		</clipPath>
	</g>
	<rect x="-628" y="-175.4" class="st0" width="498" height="234"/>
	<text transform="matrix(1 0 0 1 -565.5811 -154.718)"><tspan x="0" y="0" class="st9 st10 st11">Thành thạo kĩ thuật cơ bản</tspan><tspan x="5.9" y="50" class="st13 st12">Cách sử dụng cọ và phân biệt </tspan><tspan x="94.1" y="100" class="st13 st12">các loại giấy vẽ</tspan></text>
	<rect x="-573.6" y="176.6" class="st0" width="389.3" height="234"/>
	<text transform="matrix(1 0 0 1 -551.3569 197.3322)"><tspan x="0" y="0" class="st9 st10 st11">Tự tạo ra tác phẩm riêng</tspan><tspan x="344.9" y="0" class="st11" style="font-family:'HelveticaNeue';"> </tspan><tspan x="-6.7" y="50" class="st13 st12">Dùng trong việc trang trí hoặc </tspan><tspan x="63.1" y="100" class="st13 st12">công việc cá nhân</tspan></text>
	<rect x="-120.5" y="-175.4" class="st0" width="401.5" height="234"/>
	<text transform="matrix(1 0 0 1 -68.5215 -154.718)"><tspan x="0" y="0" class="st9 st10 st11">Tự tin với chính mình</tspan><tspan x="11.8" y="50" class="st10 st12">Phác thảo và hình họa </tspan><tspan x="82.5" y="100" class="st10 st12">vững chắc</tspan><tspan x="148.8" y="150" class="st13 st12"> </tspan></text>
	<rect x="-147.9" y="176.6" class="st0" width="456.4" height="234"/>
	<text transform="matrix(1 0 0 1 -100.7554 197.3332)"><tspan x="0" y="0" class="st9 st10 st11">Tim được dấu ấn cá nhân</tspan><tspan x="42.8" y="50" class="st13 st12">Phát triển và nhận diện </tspan><tspan x="82.5" y="100" class="st13 st12">được style riêng</tspan></text>
	<rect x="370.3" y="-175.4" class="st0" width="332.5" height="234"/>
	<text transform="matrix(1 0 0 1 408.2393 -154.718)"><tspan x="0" y="0" class="st9 st10 st11">Phối màu linh hoạt</tspan><tspan x="-31.5" y="50" class="st10 st12">Không còn phối màu theo </tspan><tspan x="71" y="100" class="st10 st12">bản năng</tspan></text>
	<rect x="374.3" y="176.6" class="st0" width="324.5" height="234"/>
	<text transform="matrix(1 0 0 1 375.0205 197.3322)"><tspan x="0" y="0" class="st9 st10 st11">Nâng cao gout thẩm mĩ</tspan><tspan x="5.2" y="50" class="st13 st11">Đánh giá được các sản </tspan><tspan x="62.5" y="100" class="st13 st11">phẩm hình ảnh</tspan></text>
	<g>
		<path d="M112.4-387.7c7.8-0.6,14.7,5,15.3,12.9c0.6,7.8-5,14.7-12.9,15.3c-7.9,0.6-14.7-5-15.3-12.9l0,0
			C98.9-380.1,104.6-386.9,112.4-387.7z"/>
		<path d="M115.6-354.7c-0.2,0-0.4,0-0.6,0c0,0,0,0,0.2,0C115.4-354.7,115.6-354.7,115.6-354.7z"/>
		<path d="M48.2-359.6c0,0.6-1.6,1-3.6,1c-1.8-0.2-3.6-0.6-5.6-1c1.8-0.4,3.6-0.8,5.6-1C46.6-360.6,48.2-360.2,48.2-359.6z"/>
		<path d="M132-340.8c-0.8-8.3-7.8-14.3-15.9-13.9h-0.2c-0.2,0-0.4,0-0.6,0c-0.2,0-0.4,0-0.6,0h-0.2c-2.8,0.4-5.4,1.6-7.6,3.4
			l-16.5,7.8l-32.4-15.1c10.3,0,25.6-1,25.6-1s-20.1-1.2-29.6-1h-0.2l0,0c-1.2,0-2.2,0.2-3.4,0.2c-0.4,0-0.6,0.4-0.6,0.8
			c0,0.4,0.2,0.6,0.6,0.6c1,0.2,1.8,0.2,2.8,0.2c-0.4,1.2-0.6,2.4-0.6,3.6c0,5,3,9.7,7.6,11.9l27,12.9c2,1,4.2,1,6.2,0l7.4-3.4
			l-0.4-4.2c0-0.4,0-1,0-1.4c0-2.6,0.6-5.4,2-7.6l0,0c0-0.2,0.2-0.2,0.4-0.2c0.2,0,0.4,0.2,0.6,0.4v0.2c-1.2,2.2-1.8,4.6-1.8,7.2
			c0,0.4,0,0.8,0,1.4l0.4,3.8l1,12.1l7.4-2.8l-2-22.3l0,0c0-0.2,0.2-0.4,0.4-0.6l0,0c0.2,0,0.4,0.2,0.6,0.4l2,23.1l-8.5,3l-16.5,6
			c-0.4-0.6-1-1.2-1.6-1.8c-3.4-2.6-12.9-2-20.9,1.2c-8.1,3.2-11.9,8.3-8.3,10.9c3.6,2.6,13.9,2.6,20.9-1.2c0.4-0.2,0.8-0.6,0.8-1
			c2.4,3,6.2,4.6,10.1,4.6c1.6,0,3-0.2,4.4-0.8l12.3-4.4l15.9-5.8c3.2-1.2,5-4.2,4.8-7.6l-1.8-20.7l0,0c0-0.2,0.2-0.4,0.4-0.6l0,0
			c0.2,0,0.4,0.2,0.6,0.4l1.8,20.7c0.4,3.8-1.8,7.2-5.4,8.7l-16.1,5.8l0.2,2.6v2.2c0,4.6,2.2,9.1,5.8,12.1v79.5h9.5
			c5.2,0,9.5-4.2,9.5-9.5l0,0v-70c3.8-2.8,5.8-7.2,5.8-12.1v-2.2L132-340.8z M72.6-316.9c1.4-0.2,2.8,0.2,2.8,1c0,0.8-1,1.6-2.6,1.8
			c-1.6,0.2-2.8-0.2-2.8-1C70-315.9,71-316.7,72.6-316.9z M57.5-309c0-0.8,1-1.6,2.6-1.8c1.6-0.2,2.8,0.2,2.8,1c0,0.8-1,1.6-2.6,1.8
			C58.7-307.8,57.7-308.2,57.5-309L57.5-309z M63.7-304.4c-1.4,0.2-2.8-0.2-2.8-1c0-0.8,1-1.6,2.6-1.8c1.6-0.2,2.8,0.2,2.8,1
			C66.3-305.4,65.1-304.6,63.7-304.4L63.7-304.4z M65.5-311.9c-1.4,0.2-2.8-0.2-2.8-1c0-0.8,1-1.6,2.6-1.8c1.6-0.2,2.8,0.2,2.8,1
			C68.1-312.9,66.9-311.9,65.5-311.9L65.5-311.9z M71.2-305.4c-1.4,0.2-2.8-0.2-2.8-1c0-0.8,1-1.6,2.6-1.8c1.6-0.2,2.8,0.2,2.8,1
			C73.8-306.4,72.8-305.6,71.2-305.4L71.2-305.4z M75.2-311.3c0.2,0.4,0.2,0.6,0.4,1c-0.8,0-1.6-0.2-1.6-0.6c0-0.4,0.6-1,1.6-1
			c0.4,0,0.8,0,1.2,0.2L75.2-311.3z M80.6-314.1c-1.4,0.2-2.8-0.2-2.8-1c0-0.8,1-1.6,2.6-1.8c1.6-0.2,2.8,0.2,2.8,1
			C83.2-315.1,82-314.3,80.6-314.1L80.6-314.1z"/>
		<path d="M41.6-301.2l-11.1-83.7c-0.2-1,0.6-2.2,1.8-2.2c1-0.2,2.2,0.6,2.2,1.8l11.1,83.9c0.2,1-0.6,2.2-1.8,2.2
			C42.6-299.2,41.8-300,41.6-301.2L41.6-301.2z"/>
		<path d="M51.2-212.8c0.2,1-0.6,2.2-1.8,2.2c-1,0.2-2.2-0.6-2.2-1.8L32.1-327.2L17-212.4c-0.2,1-1.2,1.8-2.2,1.8
			c-1-0.2-1.8-1.2-1.8-2.2l16.9-127.8c0-0.4,0.2-0.6,0.4-0.8l-5.8-42.9c-0.2-1,0.6-2.2,1.8-2.2c1-0.2,2.2,0.6,2.2,1.8L51.2-212.8z"
			/>
	</g>
	<g>
		<path d="M-335-306l-4.6-3.8c-4.7-3.9-7.6-9.6-8.1-15.8h-6.6c0.4,8.1,4.2,15.6,10.4,20.8l4.6,3.8c2.9,2.4,4.6,6,4.6,9.9v61.1
			c0,7.1-5.7,12.8-12.8,12.8h-63c-7.1,0-12.8-5.7-12.8-12.8v-61.1c0-3.8,1.7-7.4,4.6-9.9l4.6-3.8c6.2-5.2,10-12.7,10.4-20.8h-6.6
			c-0.4,6.1-3.3,11.8-8.1,15.8l-4.6,3.8c-4.4,3.7-7,9.1-7,14.9v61.1c0,10.7,8.7,19.4,19.4,19.4h63c10.7,0,19.4-8.7,19.4-19.4v-61.1
			C-328-296.8-330.6-302.3-335-306z"/>
		<polygon points="-389.7,-325.6 -381.7,-286.1 -374.5,-286.1 -382.5,-325.6 		"/>
		<path d="M-337.9-291.1c0-2.8-1.3-5.5-3.4-7.3l-4.6-3.8c-7-5.8-11.2-14.3-11.6-23.3h-21.7l8,39.4h33.3V-291.1z"/>
		<path d="M-365.8-249.9l-8.5,2.8c-1.8,5.7-1.6,10,0.4,12.9c2,2.4,5,3.8,8.1,3.9h6.4c-1-1.5-1.5-3.2-1.5-4.9c0-0.1,0-0.3,0-0.4
			C-358.3-245.6-364.1-249.1-365.8-249.9z"/>
		<polygon points="-381,-282.9 -374.4,-250.5 -367.7,-252.8 -373.8,-282.9 		"/>
		<path d="M-400.4-325.6c-0.4,9.1-4.6,17.5-11.6,23.3l-4.6,3.8c-2.2,1.8-3.4,4.5-3.4,7.3v4.9h34.9l-8-39.4H-400.4z"/>
		<path d="M-420-230c0,5.3,4.3,9.5,9.5,9.5h63c5.3,0,9.5-4.3,9.5-9.5v-52.9h-32.6l6.1,30c2.6,1.3,9.6,6,6.8,17.7
			c-0.1,2.6,1.9,4.7,4.5,4.8c0.1,0,0.3,0,0.4,0c0.9,0,1.6,0.7,1.6,1.6c0,0.9-0.7,1.6-1.6,1.6h-13.1c-4.2-0.1-8.1-2-10.8-5.2
			c-2.8-3.8-3-9.3-0.8-16.2l-7-34.4H-420V-230z"/>
		<path d="M-387.2-348.5l-11.8-58c-0.4-1.9-2.2-3.1-4.1-2.7c-0.1,0-0.3,0.1-0.4,0.1c-1.7,0.6-2.7,2.3-2.3,4l11.6,56.6H-387.2z"/>
		<path d="M-411.8-335.4h65.7c0.9,0,1.6,0.7,1.6,1.6v3.3c0,0.9-0.7,1.6-1.6,1.6h-65.7c-0.9,0-1.6-0.7-1.6-1.6v-3.3
			C-413.4-334.7-412.7-335.4-411.8-335.4z"/>
		<path d="M-411.8-345.3h65.7c0.9,0,1.6,0.7,1.6,1.6v3.3c0,0.9-0.7,1.6-1.6,1.6h-65.7c-0.9,0-1.6-0.7-1.6-1.6v-3.3
			C-413.4-344.5-412.7-345.3-411.8-345.3z"/>
	</g>
	<g>
		<path d="M68.4,7.7c-0.7-1.5-1.7-2.9-2.9-4.1C62.7,1,59.1-0.2,54.8,0c-1,0.1-1.7,0.9-1.7,1.9c0.1,1,0.9,1.7,1.9,1.7
			c3.3-0.2,5.9,0.7,8,2.6c0.3,0.3,0.7,0.7,0.9,1.1c-20.4-1.5-37.6,7.1-39.3,20.2c-1.8,13.8,17.8,2.1,39.7,4.9
			c21.9,2.9,37.9,19.3,39.7,5.5C105.8,24.2,89.9,10.8,68.4,7.7z"/>
		<g>
			<path d="M62.4,84.9C81.5,84.9,97,69.4,97,50.4c0-1.3-0.1-2.7-0.2-4c-3.1-0.6-6.6-2-10.8-3.8c-6.1-2.6-13.7-5.8-22-6.9
				c-2.2-0.3-4.7-0.4-7.1-0.4c-5.7,0-11.1,0.8-15.9,1.4c-3.8,0.5-7,1-9.8,1h0c-0.2,0-0.5,0-0.7,0c-1.6,3.9-2.4,8.2-2.4,12.7
				C27.9,69.4,43.4,84.9,62.4,84.9z"/>
			<path d="M90.7,81.8c-1.4,1.2-2.9,2.4-4.4,3.5c4.6,9,17.4,31.2,32.7,38.2l-19.9,5c-11.4-6.8-18.1-20.8-21.8-30.8
				c0.9,8.6,3.2,20.9,9.2,27.8l-14.3-2.7c-6.4-9.4-5.3-23.6-4.4-30.5c-1.8,0.2-3.6,0.4-5.4,0.4c-8.8,0-16.9-2.7-23.7-7.2l0,0
				c-0.7-0.5-1.5-1-2.2-1.6c-0.1-0.1-0.3-0.2-0.4-0.3c-0.7-0.5-1.4-1.1-2-1.7c0,0,0,0,0,0c-1.1,0.6-2.2,1.2-3.2,1.9
				c-0.3,0.2-0.6,0.4-0.9,0.5c-1,0.6-2,1.3-2.9,2c-0.3,0.2-0.6,0.4-0.8,0.6c-0.7,0.5-1.3,1-2,1.5c-0.4,0.3-0.9,0.7-1.3,1
				c-0.6,0.5-1.2,1-1.8,1.6c-0.7,0.6-1.3,1.2-1.9,1.9c-0.3,0.3-0.7,0.7-1,1c-8.6,9-14.7,20.6-17.1,33.6c0,0.2-0.1,0.3-0.1,0.5
				c-0.2,1.1-0.4,2.2-0.5,3.3c-0.1,0.5-0.1,1-0.2,1.5c-0.1,0.8-0.2,1.6-0.2,2.5c-0.1,1.4-0.2,2.8-0.2,4.3h38.8h86.1
				C124.7,114.3,110.9,92.5,90.7,81.8z"/>
		</g>
	</g>
	<path d="M568-304.4c-0.2-0.2-0.4-0.4-0.7-0.5l-0.3-0.2c-0.2-0.1-0.4-0.2-0.6-0.3l-0.4-0.1H566c-0.5-0.1-1-0.1-1.5,0h-0.1l-0.4,0.1
		l-0.6,0.3l-0.2,0.1c-0.2,0.2-0.5,0.3-0.7,0.5c-0.1,0.1-0.1,0.1-0.2,0.2c-3.9,3.7-7.4,14.2-7.4,28.1c0,11.4,5.4,42.3,8.7,59.7
		c0.2,0.9,1.1,1.6,2,1.4c0.7-0.1,1.2-0.7,1.4-1.4c3.2-17.4,8.6-48.3,8.6-59.7c0-13.9-3.5-24.5-7.4-28.1L568-304.4z"/>
	<path d="M561.5-313.5c0.6,0.2,1.1,0.4,1.7,0.5l0,0c1.3,0.3,2.7,0.3,4.1,0l0,0c0.6-0.1,1.2-0.3,1.7-0.5c4-1.6,6.6-5.4,6.6-9.6
		c0-4.5-6.6-18.5-10.4-26c-3.7,7.5-10.3,21.5-10.3,26C554.9-318.8,557.5-315,561.5-313.5z"/>
	<path d="M522.2-350.3c-8.8-1.7-18,0.3-25.2,5.6c-15.2,9.5-30.2,32.9-27.4,61.7c1.5,24.1,13.9,46.1,33.8,59.8
		c7.8,5.4,16,8.4,22.6,8.4c1.3,0,2.7-0.1,4-0.4c2.2-0.3,4.2-1.5,5.5-3.3c2.5-3.8,1.3-9.5-0.1-16.2c-0.6-3-1.3-6.1-1.7-9.4
		c-1.6-10.8-1.3-21.8,0.9-32.4l0,0c0.6-4.6,1.6-9.3,2.6-14.3c3.3-16.5,6.7-33.6-1.6-50.3C532.4-345.9,527.6-349.2,522.2-350.3z
		 M511.7-328.3c-3.1,0-5.7-2.5-5.7-5.7c0-3.1,2.5-5.7,5.7-5.7c3.1,0,5.7,2.5,5.7,5.7c0,0,0,0.1,0,0.1
		C517.3-330.8,514.8-328.3,511.7-328.3z M494.8-283c0,3.1-2.5,5.7-5.7,5.7c-3.1,0-5.7-2.5-5.7-5.7c0-3.1,2.5-5.7,5.7-5.7l0,0
		C492.3-288.7,494.8-286.1,494.8-283z M494.8-308.7c-3.1,0-5.7-2.5-5.7-5.7c0-3.1,2.5-5.7,5.7-5.7c3.1,0,5.7,2.5,5.7,5.7l0,0
		C500.5-311.2,497.9-308.7,494.8-308.7z M499.1-258.4c3.1,0,5.7,2.5,5.7,5.7c0,3.1-2.5,5.7-5.7,5.7c-3.1,0-5.7-2.5-5.7-5.7
		C493.4-255.9,495.9-258.4,499.1-258.4L499.1-258.4z M517-239.6c3.1,0,5.6,2.6,5.6,5.7c0,3.1-2.6,5.6-5.7,5.6
		c-3.1,0-5.6-2.6-5.6-5.7C511.3-237.1,513.8-239.6,517-239.6L517-239.6z M518.8-280.8c-4.8,0-8.9-6.6-8.9-14.4
		c0-7.8,4.1-14.4,8.9-14.4c4.8,0,8.9,6.6,8.9,14.4C527.7-287.4,523.7-280.8,518.8-280.8z"/>
	<g>
		<path d="M-410.8,8.8v19.4h12.8c7.7,0,14,6.3,14,14v10.3c0,2.7,2.2,4.9,4.9,4.9s4.9-2.2,4.9-4.9v-17c0-4,3.3-7.3,7.3-7.3
			c4,0,7.3,3.3,7.3,7.3v5.7c0,2.7,2.2,4.9,4.9,4.9c2.7,0,4.9-2.2,4.9-4.9V30.7c0-1.3,1.1-2.4,2.4-2.4h9.7V8.8H-410.8z"/>
		<path d="M-345.2,41.2c0,5.4-4.4,9.7-9.7,9.7c-5.4,0-9.7-4.4-9.7-9.7v-5.7c0-1.3-1.1-2.4-2.4-2.4c-1.3,0-2.4,1.1-2.4,2.4v17
			c0,5.4-4.4,9.7-9.7,9.7c-5.4,0-9.7-4.4-9.7-9.7V42.3c0-5-4.1-9.1-9.1-9.1l0,0h-12.8v31.6h72.9V33.1h-7.3V41.2z"/>
		<path d="M-410.8,85c0,0.5,0,0.9,0,1.4c0,0.6,0.1,1.2,0.3,1.8c0,0.2,0,0.3,0,0.5c0,0,0,0,0,0.1c0,0.1,0,0,0,0h72.1l0,0
			c0,0,0,0,0-0.1c0-0.2,0-0.3,0-0.5c0.1-0.6,0.2-1.2,0.3-1.8c0-0.5,0-0.9,0-1.4V69.6h-72.7V85z"/>
		<path d="M-407.4,94.9c0.2,0.2,0.3,0.4,0.5,0.6c0.2,0.3,0.4,0.5,0.7,0.7c0.7,0.7,1.4,1.3,2.1,1.8c0.1,0.1,0.1,0.1,0.2,0.1
			c0.2,0.2,0.5,0.3,0.8,0.5c0.6,0.4,1.1,0.7,1.7,0.9l0.9,0.4l1,0.3l0.6,0.2l1.1,0.3h0.2l1.2,0.2h0.4c0.5,0,1,0,1.4,0
			c6.6,0,11.8,5.3,11.8,11.9c0,0.5,0,1.1-0.1,1.6l-3.6,26c-1,6.8,3.7,13,10.5,14c6.8,1,13-3.7,14-10.5c0.2-1.1,0.2-2.3,0-3.5
			l-3.7-25.9c-0.9-6.5,3.6-12.5,10.1-13.4c0.5-0.1,1.1-0.1,1.6-0.1c0.5,0,1,0,1.4,0h0.4l1.2-0.2h0.2l1.1-0.3l0.6-0.2l1-0.3l0.9-0.4
			c0.6-0.3,1.2-0.6,1.7-0.9c0.3-0.1,0.5-0.3,0.8-0.5c0.1,0,0.1-0.1,0.2-0.1c0.8-0.6,1.5-1.2,2.1-1.8c0.2-0.2,0.5-0.5,0.7-0.7
			c0.2-0.2,0.4-0.4,0.5-0.6c0.2-0.3,0.5-0.6,0.7-1h-67.6C-407.9,94.3-407.7,94.6-407.4,94.9z"/>
	</g>
	<g>
		<g>
			<path d="M505.8,124.5l-9.5,26c-0.2,0.7-0.1,1.4,0.3,2c0.4,0.6,1.1,1,1.8,1h8.9c0.9,0,1.8-0.6,2.1-1.5l10-27.5H505.8z"/>
			<path d="M550.3,19.6l-1.2-7.1c-0.2-1.1-1.1-1.9-2.2-1.9H538c-1.1,0-2,0.8-2.2,1.9l-1.2,7.1H550.3z"/>
			<path d="M579.1,124.5h-13.7l10,27.5c0.3,0.9,1.2,1.5,2.1,1.5h8.9c0.7,0,1.4-0.4,1.8-1c0.4-0.6,0.5-1.4,0.3-2L579.1,124.5z"/>
			<path d="M536.3,124.5l1.7,22.5c0.1,1.2,1.1,2.1,2.2,2.1h4.5c1.2,0,2.1-0.9,2.2-2.1l1.7-22.5H536.3z"/>
			<path d="M596,106.6H488.9c-1.2,0-2.2,1-2.2,2.2v8.9c0,1.2,1,2.2,2.2,2.2H596c1.2,0,2.2-1,2.2-2.2v-8.9
				C598.2,107.6,597.2,106.6,596,106.6z"/>
		</g>
		<g>
			<g>
				<polygon points="522,24.1 513.8,24.1 515.3,32.3 520.5,32.3 				"/>
				<polygon points="571.1,24.1 562.8,24.1 564.4,32.3 569.6,32.3 				"/>
				<path d="M542.4,41.9c1.2,0,2.2,1,2.2,2.2c0,1.2-1,2.2-2.2,2.2c-1.2,0-2.2-1-2.2-2.2C540.2,42.9,541.2,41.9,542.4,41.9z"/>
				<path d="M500.1,77.6V24.1h-6.7c-1.2,0-2.2,1-2.2,2.2v73.6c0,1.2,1,2.2,2.2,2.2h6.7V77.6z"/>
				<path d="M544.5,57c0.9-1.1,2.1-1.7,3.5-1.7h11l5.4-9c0.8-1.3,2.3-2.2,3.8-2.2h12.1V24.1h-4.7l-2,10.8c-0.2,1.1-1.1,1.8-2.2,1.8
					h-8.9c-1.1,0-2-0.8-2.2-1.8l-2-10.8h-31.7l-2,10.8c-0.2,1.1-1.1,1.8-2.2,1.8h-8.9c-1.1,0-2-0.8-2.2-1.8l-2-10.8h-4.7v51.3h25.7
					L544.5,57z M542.4,37.5c3.7,0,6.7,3,6.7,6.7c0,3.7-3,6.7-6.7,6.7c-3.7,0-6.7-3-6.7-6.7C535.7,40.5,538.7,37.5,542.4,37.5z
					 M525.7,50.8c-0.6,0-1.1,0.5-1.1,1.1v1.1c0,1.2-1,2.2-2.2,2.2h-11.2v-4.5h9c0.5-2.5,2.8-4.5,5.5-4.5c3.1,0,5.6,2.5,5.6,5.6v3.3
					h-4.5V52C526.8,51.3,526.3,50.8,525.7,50.8z"/>
				<path d="M591.5,24.1h-6.7v22.3v55.8h6.7c1.2,0,2.2-1,2.2-2.2V26.3C593.7,25.1,592.7,24.1,591.5,24.1z"/>
				<path d="M558,84.3c0-1.2,1-2.2,2.2-2.2h2.2V64.2h4.5v17.8h1.2l2.4-13.8l4.4,0.8l-2.3,13h1c1.2,0,2.2,1,2.2,2.2v17.8h4.5V48.6
					h-12.1l-6,10.1c-0.4,0.7-1.1,1.1-1.9,1.1H548L533,79c-0.4,0.5-1.1,0.9-1.8,0.9h-26.8v22.3h4.5c0-9.8,8-17.8,17.8-17.8h4.5
					c9.8,0,17.8,8,17.8,17.8h8.9V84.3z M546.9,77.6v-4.5h8.9v4.5H546.9z"/>
				<rect x="562.5" y="86.5" width="8.9" height="15.6"/>
			</g>
			<path d="M531.3,88.8h-4.5c-7.4,0-13.4,6-13.4,13.4h31.2C544.7,94.8,538.7,88.8,531.3,88.8z M522.4,99.9h-4.5v-4.5h4.5V99.9z
				 M531.3,95.5h-4.5V91h4.5V95.5z M540.2,99.9h-4.5v-4.5h4.5V99.9z"/>
		</g>
	</g>
</g>
<g id="Layer_7">
	<rect x="-732.7" y="-8036.8" class="st0" width="864.3" height="96.7"/>
	<text transform="matrix(1 0 0 1 -732.6626 -7983.541)" style="fill:#B38005; font-family:'Anton'; font-size:75px;">KODA WATERCOLOR </text>
</g>
<g id="Layer_8">
	<g>
		<defs>
			<rect id="SVGID_13_" x="-897.6" y="-10342" width="1920" height="1080"/>
		</defs>
		<clipPath id="SVGID_14_">
			<use xlink:href="#SVGID_13_"  style="overflow:visible;"/>
		</clipPath>
	</g>
</g>
<g id="Layer_9">
</g>
<g id="Layer_10">
</g>
</svg>
