<?xml version="1.0" encoding="utf-8"?>
<!-- Generator: Adobe Illustrator 24.3.0, SVG Export Plug-In . SVG Version: 6.00 Build 0)  -->
<svg version="1.1" xmlns="http://www.w3.org/2000/svg" xmlns:xlink="http://www.w3.org/1999/xlink" x="0px" y="0px" width="101.8px"
	 height="198.8px" viewBox="0 0 101.8 198.8" style="enable-background:new 0 0 101.8 198.8;" xml:space="preserve">
<style type="text/css">
	.st0{fill:none;}
	.st1{fill:#EB7E29;}
	.st2{fill:#FF6400;}
	.st3{fill:#CD8024;}
	.st4{fill:#C18007;}
	.st5{fill:#FFA345;}
	.st6{fill:#FF8031;}
	.st7{fill:#E88038;}
	.st8{fill:#FF801E;}
</style>
<g id="Layer_2">
</g>
<g id="Layer_1">
	<rect x="-467.7" y="-7772.7" class="st0" width="1920" height="1080"/>
	<rect x="-467.7" y="-6691.7" class="st0" width="1920" height="1080"/>
	<rect x="-467.7" y="-8852.7" class="st0" width="1920" height="1080"/>
	<rect x="-467.7" y="-9932.7" class="st0" width="1920" height="1080"/>
	<rect x="-467.7" y="-4532.7" class="st0" width="1920" height="1080"/>
	<rect x="-467.7" y="-3452.7" class="st0" width="1920" height="1080"/>
	<rect x="-467.7" y="-2372.7" class="st0" width="1920" height="1080"/>
	<rect x="-467.7" y="-1292.7" class="st0" width="1920" height="1080"/>
	<rect x="-467.7" y="-212.7" class="st0" width="1920" height="1080"/>
	<rect x="-467.7" y="867.3" class="st0" width="1920" height="1080"/>
	<rect x="-467.7" y="1947.3" class="st0" width="1920" height="1080"/>
	<rect x="-467.7" y="3027.3" class="st0" width="1920" height="1080"/>
	<rect x="-467.7" y="4107.3" class="st0" width="1920" height="1080"/>
</g>
<g id="Layer_3">
	<rect x="331.1" y="-8271.1" class="st0" width="1076.2" height="75"/>
	
		<text transform="matrix(1 0 0 1 331.0601 -8229.1865)" style="fill:#004068; font-family:'HelveticaNeue-Bold'; font-size:58.7032px;">Upgrade Program 2024</text>
	<text transform="matrix(1 0 0 1 331.0601 -8450.7305)"><tspan x="0" y="0" style="fill:#BC4C25; font-family:'Anton'; font-size:97.8386px;">KHAI GIẢNG KHÓA </tspan><tspan x="0" y="135.9" style="fill:#BC4C25; font-family:'Anton'; font-size:97.8386px;">KODA WATERCOLOR CLASS </tspan></text>
</g>
<g id="Layer_6">
</g>
<g id="Layer_4">
</g>
<g id="Layer_5">
	<rect x="-467.7" y="-5519.7" class="st1" width="723.4" height="126.1"/>
	<rect x="-467.7" y="-3318.7" class="st2" width="1076" height="116"/>
	<rect x="327.3" y="-8178.7" class="st3" width="1014" height="43"/>
	<rect x="327.3" y="-8120.7" class="st3" width="331" height="44"/>
	<text transform="matrix(1 0 0 1 334.0606 -8144.2759)"><tspan x="0" y="0" style="fill:#FFFFFF; font-family:'MyriadPro-Bold'; font-size:33.7px;">CHƯƠNG TRÌNH HỌC CẬP NHẬT LIÊN TỤC ĐỔI MỚI KHÔNG NGỪNG </tspan><tspan x="0" y="57.6" style="fill:#FFFFFF; font-family:'MyriadPro-Bold'; font-size:33.7px;">THEO QUÝ MỖI NĂM</tspan></text>
	<g>
		<text transform="matrix(1 0 0 1 -254.2241 -3231.2292)" style="fill:#FFFFFF; font-family:'Anton'; font-size:64.8602px;">NỘI DUNG CHƯƠNG TRÌNH KHÓA HỌC</text>
	</g>
	<rect x="-239.1" y="-914.6" class="st0" width="554.5" height="95.1"/>
	<text transform="matrix(1 0 0 1 -239.1054 -894.6589)"><tspan x="0" y="0" style="fill:#333333; font-family:'HelveticaNeue-Medium'; font-size:27.9885px;">Lớp Sáng:</tspan><tspan x="134.3" y="0" style="fill:#333333; font-family:'HelveticaNeue-Medium'; font-size:26.1828px;"> Thứ 6: 9h-10h30 sáng </tspan><tspan x="0" y="33.6" style="fill:#333333; font-family:'HelveticaNeue-Medium'; font-size:27.9885px;">Lớp Sáng:</tspan><tspan x="134.3" y="33.6" style="fill:#333333; font-family:'HelveticaNeue-Medium'; font-size:26.1828px;"> Thứ 7: 9h-10h30 sáng </tspan><tspan x="0" y="67.2" style="fill:#333333; font-family:'HelveticaNeue-Medium'; font-size:27.9885px;">Lớp Sáng:</tspan><tspan x="134.3" y="67.2" style="fill:#333333; font-family:'HelveticaNeue-Medium'; font-size:26.1828px;"> Thứ chủ nhật: 9h-10h30 sáng</tspan></text>
	<rect x="-239.1" y="-777.7" class="st0" width="581.5" height="95.1"/>
	<text transform="matrix(1 0 0 1 -239.1054 -757.7468)"><tspan x="0" y="0" style="fill:#333333; font-family:'HelveticaNeue-Medium'; font-size:27.9885px;">Các em chọn 1 trong 3 hoặc 2 trong 3 buổi </tspan><tspan x="0" y="33.6" style="fill:#333333; font-family:'HelveticaNeue-Medium'; font-size:27.9885px;">Tùy theo lịch cá nhân</tspan></text>
	<rect x="558.2" y="-6351.1" class="st0" width="728.8" height="222.4"/>
	<text transform="matrix(1 0 0 1 607.9189 -6319.5229)"><tspan x="0" y="0" style="font-family:'HelveticaNeue-Medium'; font-size:44.1859px;">Theo sát từng học viên trong quá </tspan><tspan x="200.6" y="74.4" style="font-family:'HelveticaNeue-Medium'; font-size:44.1859px;">trình học và hướng dẫn </tspan><tspan x="404" y="148.8" style="font-family:'HelveticaNeue-Medium'; font-size:44.1859px;">bài vở về nhà </tspan></text>
	<g>
		<rect x="477.7" y="-6488.5" class="st0" width="822.6" height="152.5"/>
		<text transform="matrix(1 0 0 1 558.5206 -6422.4976)" style="fill:#BC4C25; font-family:'Anton'; font-size:93.0229px;">HƯỚNG DẪN TRỰC </text>
	</g>
	<g>
		<rect x="-247.7" y="-1116.1" class="st0" width="494.1" height="142.1"/>
		<text transform="matrix(1 0 0 1 -247.6855 -1057.7311)" style="fill:#C83443; font-family:'Anton'; font-size:82.1598px;">Thời gian học </text>
	</g>
	<g>
		<rect x="-326.1" y="-5494.5" class="st0" width="789.8" height="102.3"/>
		<text transform="matrix(1 0 0 1 -326.0956 -5429.9023)" style="fill:#FFFFFF; font-family:'Anton'; font-size:91px;">FROM STUDENTS</text>
	</g>
	<g>
		<rect x="-207.5" y="-3670.8" class="st0" width="716" height="211.8"/>
		<text transform="matrix(1 0 0 1 -207.4941 -3585.5798)"><tspan x="0" y="0" style="fill:#C3B397; font-family:'Anton'; font-size:120px;">FROM STU</tspan><tspan x="524" y="0" style="fill:#C3B397; font-family:'Anton'; font-size:120px;">-</tspan></text>
	</g>
	<g>
		<rect x="-255.3" y="1022.1" class="st0" width="325.2" height="120.1"/>
		<text transform="matrix(1 0 0 1 -255.3481 1084.4642)" class="st6" style="font-family:'Anton'; font-size:87.8215px;">ĐỊA </text>
	</g>
	
		<image style="overflow:visible;" width="1143" height="480" xlink:href="../../../../Downloads/pTS (16a).jpg"  transform="matrix(1.6772 0 0 1.6772 -466.3396 4244.79)">
	</image>
	<rect x="-247.6" y="1497.9" class="st0" width="627.6" height="45.6"/>
	
		<text transform="matrix(1 0 0 1 -247.5693 1517.4886)" style="fill:#333333; font-family:'HelveticaNeue-Bold'; font-size:27.4997px;">2 chi nhánh cách nhau 30s đi xe máy</text>
	<path class="st4" d="M1288.6-5973c0,4.9-4,8.9-8.9,8.9h-267c-4.9,0-8.9-4-8.9-8.9v-76.3c0-4.9,4-8.9,8.9-8.9h267
		c4.9,0,8.9,4,8.9,8.9V-5973z"/>
	<rect x="941.5" y="-6034.4" class="st0" width="404.8" height="86"/>
	
		<text transform="matrix(1 0 0 1 1035.7189 -5989.5796)" style="fill:#FFFFFF; font-family:'HelveticaNeue-Bold'; font-size:62.7905px;">Liên hệ</text>
	<path class="st5" d="M-23.7-379.6c0,3.8-3.1,6.9-6.9,6.9H-238c-3.8,0-6.9-3.1-6.9-6.9v-59.2c0-3.8,3.1-6.9,6.9-6.9h207.3
		c3.8,0,6.9,3.1,6.9,6.9V-379.6z"/>
	<rect x="-293.2" y="-427.3" class="st0" width="314.3" height="66.8"/>
	
		<text transform="matrix(1 0 0 1 -220.0356 -392.4977)" style="fill:#FFFFFF; font-family:'HelveticaNeue-Bold'; font-size:48.7542px;">Liên hệ</text>
	<rect x="-467.7" y="-836.7" class="st6" width="69.5" height="1226.7"/>
	<rect x="-467.7" y="1609.3" class="st6" width="146" height="172.6"/>
	<rect x="1344.3" y="928.4" class="st6" width="108" height="957.2"/>
	<rect x="-297.2" y="-7512.8" class="st0" width="774.6" height="94.5"/>
	<text transform="matrix(1 0 0 1 -297.2158 -7492.8369)"><tspan x="0" y="0" style="fill:#333333; font-family:'HelveticaNeue-Bold'; font-size:28px;">Khám phá những bí ẩn kỳ thú của nghệ thuật tranh màu </tspan><tspan x="0" y="41" style="fill:#333333; font-family:'HelveticaNeue-Bold'; font-size:28px;">nước đương đại cùng HANNA’S FAMILY nhé</tspan></text>
	<rect x="-297.2" y="-7377.8" class="st0" width="774.6" height="578.1"/>
	<text transform="matrix(1 0 0 1 -297.2158 -7357.8438)"><tspan x="0" y="0" style="fill:#333333; font-family:'HelveticaNeue-Bold'; font-size:28px;">Đây là lớp học vẽ tranh màu nước hiện đại mà bên</tspan><tspan x="0" y="41" style="fill:#333333; font-family:'HelveticaNeue-Bold'; font-size:28px;">HANNA&apos;S FAMILY đã ấp ủ từ lâu. Lớp học được mở ra </tspan><tspan x="0" y="82" style="fill:#333333; font-family:'HelveticaNeue-Bold'; font-size:28px;">với mục đích mang tới các bạn trẻ kiến thức đầy đủ và </tspan><tspan x="0" y="123" style="fill:#333333; font-family:'HelveticaNeue-Bold'; font-size:28px;">hiện đại nhất về lý thuyết của màu nước, màu sắc, cách </tspan><tspan x="0" y="164" style="fill:#333333; font-family:'HelveticaNeue-Bold'; font-size:28px;">phối màu, chọn cọ, giấy vẽ.. đến kỹ thuật vẽ, kiểm soát </tspan><tspan x="0" y="205" style="fill:#333333; font-family:'HelveticaNeue-Bold'; font-size:28px;">lượng nước, vẽ phác thảo… </tspan><tspan x="0" y="287" style="fill:#333333; font-family:'HelveticaNeue-Bold'; font-size:28px;">Sau khoá học, các bạn học viên sẽ có đủ khả năng để </tspan><tspan x="0" y="328" style="fill:#333333; font-family:'HelveticaNeue-Bold'; font-size:28px;">sáng tác những tác phẩm màu nước theo sở thích </tspan><tspan x="0" y="369" style="fill:#333333; font-family:'HelveticaNeue-Bold'; font-size:28px;">của mình.</tspan></text>
	<polygon class="st0" points="548.4,-6836.7 -303.7,-6836.7 -305.7,-6872.7 546.4,-6872.7 	"/>
	<text transform="matrix(1 0 0 1 -304.3041 -6847.1504)" style="fill:#4D4D4D; font-family:'MyriadPro-Bold'; font-size:36px;">Không gian lớp học</text>
	<g>
		<rect x="-243" y="-995.6" class="st0" width="548.9" height="56"/>
		<text transform="matrix(1 0 0 1 -242.9819 -961.6716)" class="st6" style="font-family:'Anton'; font-size:47.8513px;">LỚP TRỰC TIẾP</text>
	</g>
	<g>
		<rect x="-244.9" y="-679.7" class="st0" width="297.9" height="72.2"/>
		<text transform="matrix(1 0 0 1 -244.9203 -645.6774)" class="st6" style="font-family:'Anton'; font-size:47.8513px;">LỚP ONLINE</text>
	</g>
	<rect x="-241" y="-671.1" class="st0" width="523.4" height="204.9"/>
	<text transform="matrix(1 0 0 1 -241.0438 -595.1745)"><tspan x="0" y="0" style="fill:#333333; font-family:'HelveticaNeue-Medium'; font-size:24.3771px;">Lớp học online từ xa dành cho các bạn trong </tspan><tspan x="0" y="29.3" style="fill:#333333; font-family:'HelveticaNeue-Medium'; font-size:24.3771px;">&amp; ngoài nước</tspan><tspan x="0" y="87.8" style="fill:#333333; font-family:'HelveticaNeue-Medium'; font-size:24.3771px;">Đặc biệt là các bạn đang du học hoặc đang </tspan><tspan x="0" y="117" style="fill:#333333; font-family:'HelveticaNeue-Medium'; font-size:24.3771px;">làm việc ở nước ngoài</tspan></text>
	<g>
		<rect x="-344.7" y="-268.7" class="st0" width="1624" height="143.2"/>
		<text transform="matrix(1 0 0 1 -7.2499 -214.0498)" class="st6" style="font-family:'Anton'; font-size:77px;">KODA WATERCOLOR COURSE  </text>
	</g>
	<rect x="-96.6" y="-3097.1" class="st0" width="664.3" height="113.2"/>
	<text transform="matrix(1 0 0 1 -96.581 -3072.8342)" style="font-family:'UTM-Avo'; font-size:34.1658px;">PREPARATION OF WATERCOLORS</text>
	<rect x="-96.6" y="-2978" class="st0" width="664.3" height="113.2"/>
	<text transform="matrix(1 0 0 1 -96.581 -2953.7625)" style="font-family:'UTM-Avo'; font-size:34.1658px;">FROM IDEA TO PAPER</text>
	<rect x="-96.6" y="-2858.9" class="st0" width="664.3" height="41.7"/>
	<text transform="matrix(1 0 0 1 -96.581 -2834.6897)" style="font-family:'UTM-Avo'; font-size:34.1658px;">TECHNIQUE WCL &amp; BRUSH STROKES</text>
	<rect x="-96.6" y="-2740.9" class="st0" width="664.3" height="113.2"/>
	<text transform="matrix(1 0 0 1 -96.581 -2716.6213)" style="font-family:'UTM-Avo'; font-size:34.1658px;">KNOW YOUR OWN IDEAS</text>
	<rect x="-96.6" y="-2619.8" class="st0" width="664.3" height="113.2"/>
	<text transform="matrix(1 0 0 1 -96.581 -2595.5784)" style="font-family:'UTM-Avo'; font-size:34.1658px;">THE BODY - BASIC</text>
	<rect x="-205.7" y="-3003.7" class="st7" width="66" height="66"/>
	<rect x="-197.6" y="-2992.9" class="st0" width="61.6" height="60.6"/>
	<text transform="matrix(1 0 0 1 -197.6352 -2956.5613)" style="fill:#FFFFFF; font-family:'Anton'; font-size:51.2488px;">U2</text>
	<rect x="-207.7" y="-3122.7" class="st7" width="67" height="66"/>
	<rect x="-196.4" y="-3112" class="st0" width="61.6" height="60.6"/>
	<text transform="matrix(1 0 0 1 -196.414 -3075.634)" style="fill:#FFFFFF; font-family:'Anton'; font-size:51.2488px;">U1</text>
	<rect x="-205.7" y="-2884.7" class="st7" width="66" height="66"/>
	<rect x="-197.6" y="-2873.9" class="st0" width="61.6" height="60.6"/>
	<text transform="matrix(1 0 0 1 -197.6352 -2837.49)" style="fill:#FFFFFF; font-family:'Anton'; font-size:51.2488px;">U3</text>
	<rect x="-206.7" y="-2765.7" class="st7" width="67" height="66"/>
	<rect x="-197.2" y="-2754.8" class="st0" width="61.6" height="60.6"/>
	<text transform="matrix(1 0 0 1 -197.228 -2718.4177)" style="fill:#FFFFFF; font-family:'Anton'; font-size:51.2488px;">U4</text>
	<rect x="-205.7" y="-2646.7" class="st7" width="66" height="65"/>
	<rect x="-197.6" y="-2635.3" class="st0" width="61.6" height="60.6"/>
	<text transform="matrix(1 0 0 1 -197.6352 -2598.9382)" style="fill:#FFFFFF; font-family:'Anton'; font-size:51.2488px;">U5</text>
	<rect x="684.4" y="-3098.5" class="st0" width="530.8" height="113.2"/>
	<text transform="matrix(1 0 0 1 684.3526 -3074.2874)" style="font-family:'UTM-Avo'; font-size:34.1658px;">THE CIRCLE OF COLORS</text>
	<rect x="684.4" y="-2979.2" class="st0" width="664.3" height="113.2"/>
	<text transform="matrix(1 0 0 1 684.3526 -2954.9104)" style="font-family:'UTM-Avo'; font-size:34.1658px;">PAINTING OUR ELEMENTS</text>
	<rect x="684.4" y="-2857.7" class="st0" width="664.3" height="41.7"/>
	<text transform="matrix(1 0 0 1 684.3526 -2833.4905)" style="font-family:'UTM-Avo'; font-size:34.1658px;">PROJECTS</text>
	<rect x="684.4" y="-2756.5" class="st0" width="664.3" height="113.2"/>
	<text transform="matrix(1 0 0 1 684.3526 -2738.574)"><tspan x="0" y="0" style="font-family:'UTM-Avo'; font-size:25.2176px;">Bạn vui lòng liên hệ để có </tspan><tspan x="0" y="30.3" style="font-family:'UTM-Avo'; font-size:25.2176px;">chương trình học chi tiết và cụ thể</tspan></text>
	<rect x="577.3" y="-3001.7" class="st7" width="66" height="65"/>
	<rect x="585.7" y="-2991.3" class="st0" width="61.6" height="60.6"/>
	<text transform="matrix(1 0 0 1 585.7383 -2954.9348)" style="fill:#FFFFFF; font-family:'Anton'; font-size:51.2488px;">U7</text>
	<rect x="576.3" y="-3120.7" class="st7" width="66" height="65"/>
	<rect x="585" y="-3110.4" class="st0" width="61.6" height="60.6"/>
	<text transform="matrix(1 0 0 1 584.9588 -3074.0071)" style="fill:#FFFFFF; font-family:'Anton'; font-size:51.2488px;">U6</text>
	<rect x="577.3" y="-2882.7" class="st7" width="66" height="65"/>
	<rect x="585.7" y="-2872.2" class="st0" width="61.6" height="60.6"/>
	<text transform="matrix(1 0 0 1 585.7383 -2835.863)" style="fill:#FFFFFF; font-family:'Anton'; font-size:51.2488px;">U8</text>
	<rect x="577.3" y="-2763.7" class="st7" width="66" height="65"/>
	<rect x="586.1" y="-2753.2" class="st0" width="61.6" height="60.6"/>
	<text transform="matrix(1 0 0 1 586.1465 -2716.7908)" style="fill:#FFFFFF; font-family:'Anton'; font-size:51.2488px;">U9</text>
	<rect x="-247.6" y="1540.2" class="st0" width="650.5" height="255.3"/>
	<text transform="matrix(1 0 0 1 -247.5693 1552.847)"><tspan x="0" y="0" style="fill:#333333; font-family:'HelveticaNeue-Bold'; font-size:17.7417px;">Lưu ý: vì số lượng mỗi lớp hạn chế nên các bạn nhanh tay </tspan><tspan x="0" y="25.7" style="fill:#333333; font-family:'HelveticaNeue-Bold'; font-size:17.7417px;">đăng kí sớm và đóng học phí để mình giữ chỗ và xếp lớp.</tspan><tspan x="0" y="77.2" style="fill:#333333; font-family:'HelveticaNeue-Bold'; font-size:17.7417px;">Đăng kí trong 72h- Giảm 5% học phí</tspan><tspan x="0" y="102.9" style="fill:#333333; font-family:'HelveticaNeue-Bold'; font-size:17.7417px;">Học phí: các bạn vui lòng inbox và sẽ cung cấp số TK </tspan><tspan x="0" y="154.4" style="fill:#333333; font-family:'HelveticaNeue-Bold'; font-size:17.7417px;">p/s: Về bài học số 5 và bài số 6 trong chương trình học, </tspan><tspan x="0" y="180.1" style="fill:#333333; font-family:'HelveticaNeue-Bold'; font-size:17.7417px;">các bạn sẽ biết cách làm đẹp hình ảnh của chính </tspan><tspan x="0" y="205.8" style="fill:#333333; font-family:'HelveticaNeue-Bold'; font-size:17.7417px;">các bạn khi post lên Facebook</tspan></text>
	<g>
		<path class="st8" d="M-88.9,1177.2c-12.3,0-22.3,9.5-22.3,21.2c0,3.3,0.8,6.6,2.4,9.6l0,0c6.2,10.5,13.3,21.1,20,31.6
			c6.2-10.7,13.8-20.7,19.8-31.6c1.6-3,2.4-6.3,2.4-9.6C-66.6,1186.6-76.5,1177.2-88.9,1177.2L-88.9,1177.2L-88.9,1177.2z
			 M-88.9,1186.1c6.5,0,11.8,5.3,11.8,11.8v0c0,6.5-5.3,11.8-11.8,11.8c0,0,0,0,0,0c-6.5,0-11.8-5.3-11.8-11.8
			C-100.6,1191.3-95.3,1186.1-88.9,1186.1L-88.9,1186.1z"/>
	</g>
	<g>
		<path class="st8" d="M251,1173.3c-12.3,0-22.3,9.5-22.3,21.2c0,3.3,0.8,6.6,2.4,9.6l0,0c6.2,10.5,13.3,21.1,20,31.6
			c6.2-10.7,13.8-20.7,19.8-31.6c1.6-3,2.4-6.3,2.4-9.6C273.3,1182.8,263.3,1173.3,251,1173.3L251,1173.3L251,1173.3z M251,1182.2
			c6.5,0,11.8,5.3,11.8,11.8v0c0,6.5-5.3,11.8-11.8,11.8c0,0,0,0,0,0c-6.5,0-11.8-5.3-11.8-11.8
			C239.3,1187.4,244.5,1182.2,251,1182.2L251,1182.2z"/>
	</g>
	<rect x="-263.6" y="1262.4" class="st0" width="349.5" height="68.9"/>
	<text transform="matrix(1 0 0 1 -254.8691 1274.4008)"><tspan x="0" y="0" style="fill:#333333; font-family:'HelveticaNeue-Bold'; font-size:16.8546px;">345/86 TRẦN HƯNG ĐẠO P. Cầu Kho Q.1 </tspan><tspan x="32.9" y="25.7" style="fill:#333333; font-family:'HelveticaNeue-Bold'; font-size:16.8546px;">(KHỐI NGÀNH 3D &amp; Talent Team)</tspan></text>
	<rect x="-233.9" y="1421.5" class="st0" width="290.1" height="68.9"/>
	
		<text transform="matrix(1 0 0 1 -152.9706 1437.9164)" style="fill:#333333; font-family:'HelveticaNeue-Bold'; font-size:23.0642px;">0932709998</text>
	<rect x="106" y="1421.5" class="st0" width="290.1" height="68.9"/>
	
		<text transform="matrix(1 0 0 1 180.4937 1437.9164)" style="fill:#333333; font-family:'HelveticaNeue-Bold'; font-size:23.0642px;">0378 277 414 </text>
	<rect x="106" y="1258.5" class="st0" width="290.1" height="68.9"/>
	
		<text transform="matrix(1 0 0 1 148.4776 1271.1664)" style="fill:#333333; font-family:'HelveticaNeue-Bold'; font-size:17.7417px;">20 PHAN VĂN TRỊ P2 Q5</text>
	<g transform="translate(0,-952.36218)">
		<path class="st8" d="M-69.7,2295.6c3.4,3.6,5.9,6.9,6.5,10.1c-0.1,7.4-7,16.5-15.4,24.8c-8.3,8.3-17.9,16.4-24.9,15.4
			c-3.3-0.6-6.6-3.1-10.2-6.5c-1.2-1.1-1.2-3.5,0-4.6l7.1-7.1c1.2-1.2,3.6-1.2,5.2-0.4l4.8,3.5c2.5,2.2,7.9-3.2,11.5-6.7
			c3.6-3.6,9-8.4,6.7-11.5l-3.5-4.8c-0.8-1.5-0.8-3.9,0.4-5.1l7.1-7.1C-73.2,2294.4-70.8,2294.4-69.7,2295.6L-69.7,2295.6z"/>
	</g>
	<g transform="translate(0,-952.36218)">
		<path class="st8" d="M270.2,2295.6c3.4,3.6,5.9,6.9,6.5,10.1c-0.1,7.4-7,16.5-15.4,24.8c-8.3,8.3-17.9,16.4-24.9,15.4
			c-3.3-0.6-6.6-3.1-10.2-6.5c-1.2-1.1-1.2-3.5,0-4.6l7.1-7.1c1.2-1.2,3.6-1.2,5.2-0.4l4.8,3.5c2.5,2.2,7.9-3.2,11.5-6.7
			c3.6-3.6,9-8.4,6.7-11.5l-3.5-4.8c-0.8-1.5-0.8-3.9,0.4-5.1l7.1-7.1C266.7,2294.4,269,2294.4,270.2,2295.6L270.2,2295.6z"/>
	</g>
	<g>
		<rect x="-364" y="3193.7" class="st0" width="968" height="296"/>
		<text transform="matrix(1 0 0 1 -364.0141 3298.0989)"><tspan x="0" y="0" class="st6" style="font-family:'Anton'; font-size:147px;">FROM STU</tspan><tspan x="641.9" y="0" class="st6" style="font-family:'Anton'; font-size:147px;">-</tspan><tspan x="0" y="176.4" class="st6" style="font-family:'Anton'; font-size:147px;">DENTS </tspan></text>
	</g>
	<g>
		<defs>
			<rect id="SVGID_1_" x="-362.7" y="-2266.7" width="547" height="409"/>
		</defs>
		<clipPath id="SVGID_2_">
			<use xlink:href="#SVGID_1_"  style="overflow:visible;"/>
		</clipPath>
	</g>
	<g>
		<defs>
			<rect id="SVGID_3_" x="805.3" y="-2266.7" width="546" height="409"/>
		</defs>
		<clipPath id="SVGID_4_">
			<use xlink:href="#SVGID_3_"  style="overflow:visible;"/>
		</clipPath>
	</g>
	<g>
		<defs>
			<rect id="SVGID_5_" x="221.3" y="-2266.7" width="546" height="409"/>
		</defs>
		<clipPath id="SVGID_6_">
			<use xlink:href="#SVGID_5_"  style="overflow:visible;"/>
		</clipPath>
	</g>
	<g>
		<defs>
			<rect id="SVGID_7_" x="-359.7" y="-1825.7" width="547" height="409"/>
		</defs>
		<clipPath id="SVGID_8_">
			<use xlink:href="#SVGID_7_"  style="overflow:visible;"/>
		</clipPath>
	</g>
	<g>
		<defs>
			<rect id="SVGID_9_" x="223.3" y="-1825.7" width="546" height="409"/>
		</defs>
		<clipPath id="SVGID_10_">
			<use xlink:href="#SVGID_9_"  style="overflow:visible;"/>
		</clipPath>
	</g>
	<g>
		<defs>
			<rect id="SVGID_11_" x="805.3" y="-1825.7" width="546" height="409"/>
		</defs>
		<clipPath id="SVGID_12_">
			<use xlink:href="#SVGID_11_"  style="overflow:visible;"/>
		</clipPath>
	</g>
	<rect x="-198.1" y="233.9" class="st0" width="498" height="234"/>
	<text transform="matrix(1 0 0 1 -135.7534 254.6465)"><tspan x="0" y="0" style="fill:#BB8008; font-family:'HelveticaNeue-Bold'; font-size:29px;">Thành thạo kĩ thuật cơ bản</tspan><tspan x="5.9" y="50" style="font-family:'HelveticaNeue-Medium'; font-size:26px;">Cách sử dụng cọ và phân biệt </tspan><tspan x="94.1" y="100" style="font-family:'HelveticaNeue-Medium'; font-size:26px;">các loại giấy vẽ</tspan></text>
	<rect x="-143.7" y="586" class="st0" width="389.3" height="234"/>
	<text transform="matrix(1 0 0 1 -121.5292 606.6966)"><tspan x="0" y="0" style="fill:#BB8008; font-family:'HelveticaNeue-Bold'; font-size:29px;">Tự tạo ra tác phẩm riêng</tspan><tspan x="344.9" y="0" style="font-family:'HelveticaNeue'; font-size:29px;"> </tspan><tspan x="-6.7" y="50" style="font-family:'HelveticaNeue-Medium'; font-size:26px;">Dùng trong việc trang trí hoặc </tspan><tspan x="63.1" y="100" style="font-family:'HelveticaNeue-Medium'; font-size:26px;">công việc cá nhân</tspan></text>
	<rect x="309.4" y="233.9" class="st0" width="401.5" height="234"/>
	<text transform="matrix(1 0 0 1 361.3062 254.6465)"><tspan x="0" y="0" style="fill:#BB8008; font-family:'HelveticaNeue-Bold'; font-size:29px;">Tự tin với chính mình</tspan><tspan x="11.8" y="50" style="font-family:'HelveticaNeue-Bold'; font-size:26px;">Phác thảo và hình họa </tspan><tspan x="82.5" y="100" style="font-family:'HelveticaNeue-Bold'; font-size:26px;">vững chắc</tspan><tspan x="148.8" y="150" style="font-family:'HelveticaNeue-Medium'; font-size:26px;"> </tspan></text>
	<rect x="281.9" y="586" class="st0" width="456.4" height="234"/>
	<text transform="matrix(1 0 0 1 329.0723 606.6976)"><tspan x="0" y="0" style="fill:#BB8008; font-family:'HelveticaNeue-Bold'; font-size:29px;">Tim được dấu ấn cá nhân</tspan><tspan x="42.8" y="50" style="font-family:'HelveticaNeue-Medium'; font-size:26px;">Phát triển và nhận diện </tspan><tspan x="82.5" y="100" style="font-family:'HelveticaNeue-Medium'; font-size:26px;">được style riêng</tspan></text>
	<rect x="800.1" y="233.9" class="st0" width="332.5" height="234"/>
	<text transform="matrix(1 0 0 1 838.067 254.6465)"><tspan x="0" y="0" style="fill:#BB8008; font-family:'HelveticaNeue-Bold'; font-size:29px;">Phối màu linh hoạt</tspan><tspan x="-31.5" y="50" style="font-family:'HelveticaNeue-Bold'; font-size:26px;">Không còn phối màu theo </tspan><tspan x="71" y="100" style="font-family:'HelveticaNeue-Bold'; font-size:26px;">bản năng</tspan></text>
	<rect x="804.1" y="586" class="st0" width="324.5" height="234"/>
	<text transform="matrix(1 0 0 1 804.8482 606.6966)"><tspan x="0" y="0" style="fill:#BB8008; font-family:'HelveticaNeue-Bold'; font-size:29px;">Nâng cao gout thẩm mĩ</tspan><tspan x="5.2" y="50" style="font-family:'HelveticaNeue-Medium'; font-size:29px;">Đánh giá được các sản </tspan><tspan x="62.5" y="100" style="font-family:'HelveticaNeue-Medium'; font-size:29px;">phẩm hình ảnh</tspan></text>
	<g>
		<path d="M542.3,21.6c7.8-0.6,14.7,5,15.3,12.9c0.6,7.8-5,14.7-12.9,15.3c-7.9,0.6-14.7-5-15.3-12.9l0,0
			C528.8,29.3,534.4,22.4,542.3,21.6z"/>
		<path d="M545.5,54.6c-0.2,0-0.4,0-0.6,0c0,0,0,0,0.2,0C545.3,54.6,545.5,54.6,545.5,54.6z"/>
		<path d="M478,49.8c0,0.6-1.6,1-3.6,1c-1.8-0.2-3.6-0.6-5.6-1c1.8-0.4,3.6-0.8,5.6-1C476.4,48.8,478,49.2,478,49.8z"/>
		<path d="M561.8,68.5c-0.8-8.3-7.8-14.3-15.9-13.9h-0.2c-0.2,0-0.4,0-0.6,0c-0.2,0-0.4,0-0.6,0h-0.2c-2.8,0.4-5.4,1.6-7.6,3.4
			l-16.5,7.8l-32.4-15.1c10.3,0,25.6-1,25.6-1s-20.1-1.2-29.6-1h-0.2l0,0c-1.2,0-2.2,0.2-3.4,0.2c-0.4,0-0.6,0.4-0.6,0.8
			c0,0.4,0.2,0.6,0.6,0.6c1,0.2,1.8,0.2,2.8,0.2c-0.4,1.2-0.6,2.4-0.6,3.6c0,5,3,9.7,7.6,11.9l27,12.9c2,1,4.2,1,6.2,0l7.4-3.4
			l-0.4-4.2c0-0.4,0-1,0-1.4c0-2.6,0.6-5.4,2-7.6l0,0c0-0.2,0.2-0.2,0.4-0.2c0.2,0,0.4,0.2,0.6,0.4v0.2c-1.2,2.2-1.8,4.6-1.8,7.2
			c0,0.4,0,0.8,0,1.4l0.4,3.8l1,12.1l7.4-2.8l-2-22.3l0,0c0-0.2,0.2-0.4,0.4-0.6l0,0c0.2,0,0.4,0.2,0.6,0.4l2,23.1l-8.5,3l-16.5,6
			c-0.4-0.6-1-1.2-1.6-1.8c-3.4-2.6-12.9-2-20.9,1.2c-8.1,3.2-11.9,8.3-8.3,10.9c3.6,2.6,13.9,2.6,20.9-1.2c0.4-0.2,0.8-0.6,0.8-1
			c2.4,3,6.2,4.6,10.1,4.6c1.6,0,3-0.2,4.4-0.8l12.3-4.4l15.9-5.8c3.2-1.2,5-4.2,4.8-7.6l-1.8-20.7l0,0c0-0.2,0.2-0.4,0.4-0.6l0,0
			c0.2,0,0.4,0.2,0.6,0.4l1.8,20.7c0.4,3.8-1.8,7.2-5.4,8.7l-16.1,5.8l0.2,2.6v2.2c0,4.6,2.2,9.1,5.8,12.1v79.5h9.5
			c5.2,0,9.5-4.2,9.5-9.5l0,0v-70c3.8-2.8,5.8-7.2,5.8-12.1V105L561.8,68.5z M502.4,92.5c1.4-0.2,2.8,0.2,2.8,1c0,0.8-1,1.6-2.6,1.8
			c-1.6,0.2-2.8-0.2-2.8-1C499.8,93.5,500.8,92.7,502.4,92.5z M487.3,100.3c0-0.8,1-1.6,2.6-1.8c1.6-0.2,2.8,0.2,2.8,1
			c0,0.8-1,1.6-2.6,1.8C488.5,101.5,487.5,101.1,487.3,100.3L487.3,100.3z M493.5,105c-1.4,0.2-2.8-0.2-2.8-1c0-0.8,1-1.6,2.6-1.8
			c1.6-0.2,2.8,0.2,2.8,1C496.2,103.9,495,104.8,493.5,105L493.5,105z M495.4,97.5c-1.4,0.2-2.8-0.2-2.8-1c0-0.8,1-1.6,2.6-1.8
			c1.6-0.2,2.8,0.2,2.8,1C498,96.5,496.8,97.5,495.4,97.5L495.4,97.5z M501,103.9c-1.4,0.2-2.8-0.2-2.8-1c0-0.8,1-1.6,2.6-1.8
			c1.6-0.2,2.8,0.2,2.8,1C503.6,102.9,502.6,103.7,501,103.9L501,103.9z M505,98.1c0.2,0.4,0.2,0.6,0.4,1c-0.8,0-1.6-0.2-1.6-0.6
			c0-0.4,0.6-1,1.6-1c0.4,0,0.8,0,1.2,0.2L505,98.1z M510.5,95.3c-1.4,0.2-2.8-0.2-2.8-1c0-0.8,1-1.6,2.6-1.8c1.6-0.2,2.8,0.2,2.8,1
			C513.1,94.3,511.9,95.1,510.5,95.3L510.5,95.3z"/>
		<path d="M471.4,108.2l-11.1-83.7c-0.2-1,0.6-2.2,1.8-2.2c1-0.2,2.2,0.6,2.2,1.8l11.1,83.9c0.2,1-0.6,2.2-1.8,2.2
			C472.4,110.2,471.6,109.4,471.4,108.2L471.4,108.2z"/>
		<path d="M481.1,196.5c0.2,1-0.6,2.2-1.8,2.2c-1,0.2-2.2-0.6-2.2-1.8L461.9,82.2l-15.1,114.7c-0.2,1-1.2,1.8-2.2,1.8
			c-1-0.2-1.8-1.2-1.8-2.2l16.9-127.8c0-0.4,0.2-0.6,0.4-0.8L454.3,25c-0.2-1,0.6-2.2,1.8-2.2c1-0.2,2.2,0.6,2.2,1.8L481.1,196.5z"
			/>
	</g>
	<g>
		<path d="M94.8,103.4l-4.6-3.8c-4.7-3.9-7.6-9.6-8.1-15.8h-6.6c0.4,8.1,4.2,15.6,10.4,20.8l4.6,3.8c2.9,2.4,4.6,6,4.6,9.9v61.1
			c0,7.1-5.7,12.8-12.8,12.8h-63c-7.1,0-12.8-5.7-12.8-12.8v-61.1c0-3.8,1.7-7.4,4.6-9.9l4.6-3.8c6.2-5.2,10-12.7,10.4-20.8h-6.6
			c-0.4,6.1-3.3,11.8-8.1,15.8L7,103.4c-4.4,3.7-7,9.1-7,14.9v61.1c0,10.7,8.7,19.4,19.4,19.4h63c10.7,0,19.4-8.7,19.4-19.4v-61.1
			C101.8,112.5,99.3,107.1,94.8,103.4z"/>
		<polygon points="40.1,83.8 48.2,123.2 55.3,123.2 47.3,83.8 		"/>
		<path d="M92,118.3c0-2.8-1.3-5.5-3.4-7.3l-4.6-3.8c-7-5.8-11.2-14.3-11.6-23.3H50.6l8,39.4H92V118.3z"/>
		<path d="M64,159.5l-8.5,2.8c-1.8,5.7-1.6,10,0.4,12.9c2,2.4,5,3.8,8.1,3.9h6.4c-1-1.5-1.5-3.2-1.5-4.9c0-0.1,0-0.3,0-0.4
			C71.5,163.8,65.7,160.3,64,159.5z"/>
		<polygon points="48.8,126.5 55.4,158.8 62.1,156.6 56,126.5 		"/>
		<path d="M29.5,83.8c-0.4,9.1-4.6,17.5-11.6,23.3l-4.6,3.8c-2.2,1.8-3.4,4.5-3.4,7.3v4.9h34.9l-8-39.4H29.5z"/>
		<path d="M9.9,179.4c0,5.3,4.3,9.5,9.5,9.5h63c5.3,0,9.5-4.3,9.5-9.5v-52.9H59.3l6.1,30c2.6,1.3,9.6,6,6.8,17.7
			c-0.1,2.6,1.9,4.7,4.5,4.8c0.1,0,0.3,0,0.4,0c0.9,0,1.6,0.7,1.6,1.6c0,0.9-0.7,1.6-1.6,1.6H64c-4.2-0.1-8.1-2-10.8-5.2
			c-2.8-3.8-3-9.3-0.8-16.2l-7-34.4H9.9V179.4z"/>
		<path d="M42.6,60.8l-11.8-58c-0.4-1.9-2.2-3.1-4.1-2.7c-0.1,0-0.3,0.1-0.4,0.1c-1.7,0.6-2.7,2.3-2.3,4l11.6,56.6H42.6z"/>
		<path d="M18.1,74h65.7c0.9,0,1.6,0.7,1.6,1.6v3.3c0,0.9-0.7,1.6-1.6,1.6H18.1c-0.9,0-1.6-0.7-1.6-1.6v-3.3
			C16.4,74.7,17.2,74,18.1,74z"/>
		<path d="M18.1,64.1h65.7c0.9,0,1.6,0.7,1.6,1.6V69c0,0.9-0.7,1.6-1.6,1.6H18.1c-0.9,0-1.6-0.7-1.6-1.6v-3.3
			C16.4,64.8,17.2,64.1,18.1,64.1z"/>
	</g>
	<g>
		<path d="M498.2,417.1c-0.7-1.5-1.7-2.9-2.9-4.1c-2.7-2.7-6.3-3.9-10.6-3.6c-1,0.1-1.7,0.9-1.7,1.9c0.1,1,0.9,1.7,1.9,1.7
			c3.3-0.2,5.9,0.7,8,2.6c0.3,0.3,0.7,0.7,0.9,1.1c-20.4-1.5-37.6,7.1-39.3,20.2c-1.8,13.8,17.8,2.1,39.7,4.9
			c21.9,2.9,37.9,19.3,39.7,5.5C535.6,433.6,519.7,420.2,498.2,417.1z"/>
		<g>
			<path d="M492.3,494.3c19.1,0,34.5-15.5,34.5-34.5c0-1.3-0.1-2.7-0.2-4c-3.1-0.6-6.6-2-10.8-3.8c-6.1-2.6-13.7-5.8-22-6.9
				c-2.2-0.3-4.7-0.4-7.1-0.4c-5.7,0-11.1,0.8-15.9,1.4c-3.8,0.5-7,1-9.8,1h0c-0.2,0-0.5,0-0.7,0c-1.6,3.9-2.4,8.2-2.4,12.7
				C457.8,478.8,473.2,494.3,492.3,494.3z"/>
			<path d="M520.6,491.1c-1.4,1.2-2.9,2.4-4.4,3.5c4.6,9,17.4,31.2,32.7,38.2l-19.9,5c-11.4-6.8-18.1-20.8-21.8-30.8
				c0.9,8.6,3.2,20.9,9.2,27.8l-14.3-2.7c-6.4-9.4-5.3-23.6-4.4-30.5c-1.8,0.2-3.6,0.4-5.4,0.4c-8.8,0-16.9-2.7-23.7-7.2l0,0
				c-0.7-0.5-1.5-1-2.2-1.6c-0.1-0.1-0.3-0.2-0.4-0.3c-0.7-0.5-1.4-1.1-2-1.7c0,0,0,0,0,0c-1.1,0.6-2.2,1.2-3.2,1.9
				c-0.3,0.2-0.6,0.4-0.9,0.5c-1,0.6-2,1.3-2.9,2c-0.3,0.2-0.6,0.4-0.8,0.6c-0.7,0.5-1.3,1-2,1.5c-0.4,0.3-0.9,0.7-1.3,1
				c-0.6,0.5-1.2,1-1.8,1.6c-0.7,0.6-1.3,1.2-1.9,1.9c-0.3,0.3-0.7,0.7-1,1c-8.6,9-14.7,20.6-17.1,33.6c0,0.2-0.1,0.3-0.1,0.5
				c-0.2,1.1-0.4,2.2-0.5,3.3c-0.1,0.5-0.1,1-0.2,1.5c-0.1,0.8-0.2,1.6-0.2,2.5c-0.1,1.4-0.2,2.8-0.2,4.3h38.8h86.1
				C554.6,523.7,540.7,501.8,520.6,491.1z"/>
		</g>
	</g>
	<path d="M997.8,105c-0.2-0.2-0.4-0.4-0.7-0.5l-0.3-0.2c-0.2-0.1-0.4-0.2-0.6-0.3l-0.4-0.1h-0.1c-0.5-0.1-1-0.1-1.5,0h-0.1l-0.4,0.1
		l-0.6,0.3l-0.2,0.1c-0.2,0.2-0.5,0.3-0.7,0.5c-0.1,0.1-0.1,0.1-0.2,0.2c-3.9,3.7-7.4,14.2-7.4,28.1c0,11.4,5.4,42.3,8.7,59.7
		c0.2,0.9,1.1,1.6,2,1.4c0.7-0.1,1.2-0.7,1.4-1.4c3.2-17.4,8.6-48.3,8.6-59.7c0-13.9-3.5-24.5-7.4-28.1L997.8,105z"/>
	<path d="M991.3,95.9c0.6,0.2,1.1,0.4,1.7,0.5l0,0c1.3,0.3,2.7,0.3,4.1,0l0,0c0.6-0.1,1.2-0.3,1.7-0.5c4-1.6,6.6-5.4,6.6-9.6
		c0-4.5-6.6-18.5-10.4-26c-3.7,7.5-10.3,21.5-10.3,26C984.7,90.5,987.4,94.4,991.3,95.9z"/>
	<path d="M952,59.1c-8.8-1.7-18,0.3-25.2,5.6c-15.2,9.5-30.2,32.9-27.4,61.7c1.5,24.1,13.9,46.1,33.8,59.8c7.8,5.4,16,8.4,22.6,8.4
		c1.3,0,2.7-0.1,4-0.4c2.2-0.3,4.2-1.5,5.5-3.3c2.5-3.8,1.3-9.5-0.1-16.2c-0.6-3-1.3-6.1-1.7-9.4c-1.6-10.8-1.3-21.8,0.9-32.4l0,0
		c0.6-4.6,1.6-9.3,2.6-14.3c3.3-16.5,6.7-33.6-1.6-50.3C962.2,63.5,957.5,60.2,952,59.1z M941.5,81c-3.1,0-5.7-2.5-5.7-5.7
		c0-3.1,2.5-5.7,5.7-5.7c3.1,0,5.7,2.5,5.7,5.7c0,0,0,0.1,0,0.1C947.1,78.5,944.6,81,941.5,81z M924.6,126.3c0,3.1-2.5,5.7-5.7,5.7
		c-3.1,0-5.7-2.5-5.7-5.7c0-3.1,2.5-5.7,5.7-5.7l0,0C922.1,120.7,924.6,123.2,924.6,126.3z M924.6,100.7c-3.1,0-5.7-2.5-5.7-5.7
		s2.5-5.7,5.7-5.7c3.1,0,5.7,2.5,5.7,5.7l0,0C930.3,98.2,927.8,100.7,924.6,100.7z M928.9,151c3.1,0,5.7,2.5,5.7,5.7
		c0,3.1-2.5,5.7-5.7,5.7c-3.1,0-5.7-2.5-5.7-5.7C923.2,153.5,925.8,151,928.9,151L928.9,151z M946.8,169.8c3.1,0,5.6,2.6,5.6,5.7
		c0,3.1-2.6,5.6-5.7,5.6c-3.1,0-5.6-2.6-5.6-5.7C941.2,172.3,943.7,169.8,946.8,169.8L946.8,169.8z M948.7,128.6
		c-4.8,0-8.9-6.6-8.9-14.4c0-7.8,4.1-14.4,8.9-14.4c4.8,0,8.9,6.6,8.9,14.4C957.6,122,953.5,128.6,948.7,128.6z"/>
	<g>
		<path d="M19,418.2v19.4h12.8c7.7,0,14,6.3,14,14V462c0,2.7,2.2,4.9,4.9,4.9s4.9-2.2,4.9-4.9v-17c0-4,3.3-7.3,7.3-7.3
			c4,0,7.3,3.3,7.3,7.3v5.7c0,2.7,2.2,4.9,4.9,4.9c2.7,0,4.9-2.2,4.9-4.9v-10.5c0-1.3,1.1-2.4,2.4-2.4H92v-19.4H19z"/>
		<path d="M84.7,450.6c0,5.4-4.4,9.7-9.7,9.7c-5.4,0-9.7-4.4-9.7-9.7v-5.7c0-1.3-1.1-2.4-2.4-2.4c-1.3,0-2.4,1.1-2.4,2.4v17
			c0,5.4-4.4,9.7-9.7,9.7c-5.4,0-9.7-4.4-9.7-9.7v-10.3c0-5-4.1-9.1-9.1-9.1l0,0H19v31.6H92v-31.6h-7.3V450.6z"/>
		<path d="M19,494.4c0,0.5,0,0.9,0,1.4c0,0.6,0.1,1.2,0.3,1.8c0,0.2,0,0.3,0,0.5c0,0,0,0,0,0.1c0,0.1,0,0,0,0h72.1l0,0
			c0,0,0,0,0-0.1c0-0.2,0-0.3,0-0.5c0.1-0.6,0.2-1.2,0.3-1.8c0-0.5,0-0.9,0-1.4V479H19V494.4z"/>
		<path d="M22.4,504.3c0.2,0.2,0.3,0.4,0.5,0.6c0.2,0.3,0.4,0.5,0.7,0.7c0.7,0.7,1.4,1.3,2.1,1.8c0.1,0.1,0.1,0.1,0.2,0.1
			c0.2,0.2,0.5,0.3,0.8,0.5c0.6,0.4,1.1,0.7,1.7,0.9l0.9,0.4l1,0.3l0.6,0.2l1.1,0.3h0.2l1.2,0.2h0.4c0.5,0,1,0,1.4,0
			c6.6,0,11.8,5.3,11.8,11.9c0,0.5,0,1.1-0.1,1.6l-3.6,26c-1,6.8,3.7,13,10.5,14c6.8,1,13-3.7,14-10.5c0.2-1.1,0.2-2.3,0-3.5
			L64,524.1c-0.9-6.5,3.6-12.5,10.1-13.4c0.5-0.1,1.1-0.1,1.6-0.1c0.5,0,1,0,1.4,0h0.4l1.2-0.2H79l1.1-0.3l0.6-0.2l1-0.3l0.9-0.4
			c0.6-0.3,1.2-0.6,1.7-0.9c0.3-0.1,0.5-0.3,0.8-0.5c0.1,0,0.1-0.1,0.2-0.1c0.8-0.6,1.5-1.2,2.1-1.8c0.2-0.2,0.5-0.5,0.7-0.7
			c0.2-0.2,0.4-0.4,0.5-0.6c0.2-0.3,0.5-0.6,0.7-1H21.7C21.9,503.6,22.2,503.9,22.4,504.3z"/>
	</g>
	<g>
		<g>
			<path d="M935.6,533.8l-9.5,26c-0.2,0.7-0.1,1.4,0.3,2c0.4,0.6,1.1,1,1.8,1h8.9c0.9,0,1.8-0.6,2.1-1.5l10-27.5H935.6z"/>
			<path d="M980.1,429l-1.2-7.1c-0.2-1.1-1.1-1.9-2.2-1.9h-8.9c-1.1,0-2,0.8-2.2,1.9l-1.2,7.1H980.1z"/>
			<path d="M1008.9,533.8h-13.7l10,27.5c0.3,0.9,1.2,1.5,2.1,1.5h8.9c0.7,0,1.4-0.4,1.8-1c0.4-0.6,0.5-1.4,0.3-2L1008.9,533.8z"/>
			<path d="M966.1,533.8l1.7,22.5c0.1,1.2,1.1,2.1,2.2,2.1h4.5c1.2,0,2.1-0.9,2.2-2.1l1.7-22.5H966.1z"/>
			<path d="M1025.8,516H918.7c-1.2,0-2.2,1-2.2,2.2v8.9c0,1.2,1,2.2,2.2,2.2h107.1c1.2,0,2.2-1,2.2-2.2v-8.9
				C1028,517,1027,516,1025.8,516z"/>
		</g>
		<g>
			<g>
				<polygon points="951.9,433.4 943.6,433.4 945.1,441.6 950.3,441.6 				"/>
				<polygon points="1000.9,433.4 992.7,433.4 994.2,441.6 999.4,441.6 				"/>
				<path d="M972.3,451.3c1.2,0,2.2,1,2.2,2.2c0,1.2-1,2.2-2.2,2.2c-1.2,0-2.2-1-2.2-2.2C970,452.3,971,451.3,972.3,451.3z"/>
				<path d="M929.9,487v-53.5h-6.7c-1.2,0-2.2,1-2.2,2.2v73.6c0,1.2,1,2.2,2.2,2.2h6.7V487z"/>
				<path d="M974.3,466.4c0.9-1.1,2.1-1.7,3.5-1.7h11l5.4-9c0.8-1.3,2.3-2.2,3.8-2.2h12.1v-20.1h-4.7l-2,10.8
					c-0.2,1.1-1.1,1.8-2.2,1.8h-8.9c-1.1,0-2-0.8-2.2-1.8l-2-10.8h-31.7l-2,10.8c-0.2,1.1-1.1,1.8-2.2,1.8h-8.9
					c-1.1,0-2-0.8-2.2-1.8l-2-10.8h-4.7v51.3H960L974.3,466.4z M972.3,446.8c3.7,0,6.7,3,6.7,6.7c0,3.7-3,6.7-6.7,6.7
					c-3.7,0-6.7-3-6.7-6.7C965.6,449.8,968.6,446.8,972.3,446.8z M955.5,460.2c-0.6,0-1.1,0.5-1.1,1.1v1.1c0,1.2-1,2.2-2.2,2.2H941
					v-4.5h9c0.5-2.5,2.8-4.5,5.5-4.5c3.1,0,5.6,2.5,5.6,5.6v3.3h-4.5v-3.3C956.6,460.7,956.1,460.2,955.5,460.2z"/>
				<path d="M1021.3,433.4h-6.7v22.3v55.8h6.7c1.2,0,2.2-1,2.2-2.2v-73.6C1023.6,434.4,1022.6,433.4,1021.3,433.4z"/>
				<path d="M987.9,493.7c0-1.2,1-2.2,2.2-2.2h2.2v-17.8h4.5v17.8h1.2l2.4-13.8l4.4,0.8l-2.3,13h1c1.2,0,2.2,1,2.2,2.2v17.8h4.5V458
					h-12.1l-6,10.1c-0.4,0.7-1.1,1.1-1.9,1.1h-12.3l-14.9,19.2c-0.4,0.5-1.1,0.9-1.8,0.9h-26.8v22.3h4.5c0-9.8,8-17.8,17.8-17.8h4.5
					c9.8,0,17.8,8,17.8,17.8h8.9V493.7z M976.7,487v-4.5h8.9v4.5H976.7z"/>
				<rect x="992.3" y="495.9" width="8.9" height="15.6"/>
			</g>
			<path d="M961.1,498.1h-4.5c-7.4,0-13.4,6-13.4,13.4h31.2C974.5,504.1,968.5,498.1,961.1,498.1z M952.2,509.3h-4.5v-4.5h4.5V509.3
				z M961.1,504.8h-4.5v-4.5h4.5V504.8z M970,509.3h-4.5v-4.5h4.5V509.3z"/>
		</g>
	</g>
</g>
<g id="Layer_7">
	<rect x="-302.8" y="-7627.4" class="st0" width="864.3" height="96.7"/>
	<text transform="matrix(1 0 0 1 -302.8349 -7574.1763)" style="fill:#B38005; font-family:'Anton'; font-size:75px;">KODA WATERCOLOR </text>
</g>
<g id="Layer_8">
	<g>
		<defs>
			<rect id="SVGID_13_" x="-467.7" y="-9932.7" width="1920" height="1080"/>
		</defs>
		<clipPath id="SVGID_14_">
			<use xlink:href="#SVGID_13_"  style="overflow:visible;"/>
		</clipPath>
	</g>
</g>
<g id="Layer_9">
</g>
<g id="Layer_10">
</g>
</svg>
