<?xml version="1.0" encoding="utf-8"?>
<!-- Generator: Adobe Illustrator 24.3.0, SVG Export Plug-In . SVG Version: 6.00 Build 0)  -->
<svg version="1.1" xmlns="http://www.w3.org/2000/svg" xmlns:xlink="http://www.w3.org/1999/xlink" x="0px" y="0px" width="114.2px"
	 height="88.6px" viewBox="0 0 114.2 88.6" style="enable-background:new 0 0 114.2 88.6;" xml:space="preserve">
<style type="text/css">
	.st0{fill:#FFFFFF;}
	.st1{fill:#004068;}
	.st2{fill:#F7CF38;}
	.st3{fill:#FF9D31;}
	.st4{fill:#DE9700;}
	.st5{fill:#02B9CD;}
	.st6{fill:#F88008;}
	.st7{fill:#FFDE83;}
	.st8{fill:#FFBE3B;}
	.st9{fill:#FF9E31;}
	.st10{fill:#333333;}
	.st11{fill:#4D4D4D;}
	.st12{fill:#FF6400;}
</style>
<g id="Layer_2">
</g>
<g id="Layer_1">
	<rect x="-1377" y="-10073.3" class="st0" width="1920" height="1080"/>
	<rect x="-1377" y="-8992.3" class="st0" width="1920" height="1080"/>
	<rect x="-1377" y="-6833.3" class="st0" width="1920" height="1080"/>
	<rect x="-1377" y="-5753.3" class="st0" width="1920" height="1080"/>
	<rect x="-1377" y="-4673.3" class="st0" width="1920" height="1080"/>
	<rect x="-1377" y="-3593.3" class="st0" width="1920" height="1080"/>
	<rect x="-1377" y="-2513.3" class="st0" width="1920" height="1080"/>
	<rect x="-1377" y="-1433.3" class="st0" width="1920" height="1080"/>
	<rect x="-1377" y="-353.3" class="st0" width="1920" height="1080"/>
	<rect x="-1377" y="726.7" class="st0" width="1920" height="1080"/>
	<rect x="-1377" y="1806.7" class="st0" width="1920" height="1080"/>
</g>
<g id="Layer_3">
	<rect x="-591.2" y="-8389.7" style="fill:none;" width="1076.2" height="75"/>
	
		<text transform="matrix(1 0 0 1 -591.2222 -8347.7803)" class="st1" style="font-family:'HelveticaNeue-Bold'; font-size:58.7032px;">Upgrade Program 2024</text>
	<text transform="matrix(1 0 0 1 -591.2222 -8569.3242)"><tspan x="0" y="0" style="fill:#044784; font-family:'Anton'; font-size:97.8386px;">KHAI GIẢNG KHÓA </tspan><tspan x="0" y="135.9" style="fill:#044784; font-family:'Anton'; font-size:97.8386px;">LỚP KODA PHOTOSHOP H298 </tspan></text>
	<rect x="-240" y="-8408.3" class="st1" width="26" height="19"/>
</g>
<g id="Layer_6">
</g>
<g id="Layer_4">
	<g>
		<defs>
			<rect id="SVGID_1_" x="-1377" y="-10073.3" width="1920" height="1080"/>
		</defs>
		<clipPath id="SVGID_2_">
			<use xlink:href="#SVGID_1_"  style="overflow:visible;"/>
		</clipPath>
	</g>
</g>
<g id="Layer_5">
	<rect x="-1377" y="-4584.3" class="st2" width="1076" height="116"/>
	<rect x="-1377" y="-1432.3" class="st3" width="816.6" height="1080"/>
	<rect x="-1270.9" y="-1353.7" class="st0" width="649.5" height="950.8"/>
	<rect x="-598" y="-8295.3" class="st4" width="1014" height="43"/>
	<rect x="-601" y="-8237.3" class="st4" width="331" height="44"/>
	<text transform="matrix(1 0 0 1 -588.2217 -8262.8701)"><tspan x="0" y="0" class="st0" style="font-family:'MyriadPro-Bold'; font-size:33.7px;">CHƯƠNG TRÌNH HỌC CẬP NHẬT LIÊN TỤC ĐỔI MỚI KHÔNG NGỪNG </tspan><tspan x="0" y="57.6" class="st0" style="font-family:'MyriadPro-Bold'; font-size:33.7px;">THEO QUÝ MỖI NĂM</tspan></text>
	<g>
		<text transform="matrix(1 0 0 1 -1163.5063 -4496.8228)" class="st10" style="font-family:'Anton'; font-size:64.8602px;">NỘI DUNG CHƯƠNG TRÌNH KHÓA HỌC</text>
	</g>
	<rect x="-485.7" y="-1127.6" style="fill:none;" width="959.1" height="157.3"/>
	<text transform="matrix(1 0 0 1 -485.7124 -1105.418)"><tspan x="0" y="0" class="st10" style="font-family:'HelveticaNeue-Medium'; font-size:31px;">Lớp Sáng:</tspan><tspan x="148.7" y="0" class="st10" style="font-family:'HelveticaNeue-Medium'; font-size:29px;"> Thứ 2-4: 8h30-10h30 sáng</tspan><tspan x="0" y="37.2" class="st10" style="font-family:'HelveticaNeue-Medium'; font-size:31px;">Lớp Tối:</tspan><tspan x="119.4" y="37.2" class="st10" style="font-family:'HelveticaNeue-Medium'; font-size:29px;"> Thứ 2-4: 7-9h tối</tspan><tspan x="0" y="74.4" class="st10" style="font-family:'HelveticaNeue-Medium'; font-size:31px;">Lớp Tối:</tspan><tspan x="119.4" y="74.4" class="st10" style="font-family:'HelveticaNeue-Medium'; font-size:29px;"> Thứ 6: 7-9h tối: Full Slot</tspan></text>
	<rect x="-417" y="-6362.3" style="fill:none;" width="790.6" height="191.3"/>
	<text transform="matrix(1 0 0 1 -220.8355 -6335.1514)"><tspan x="0" y="0" style="font-family:'HelveticaNeue-Medium'; font-size:38px;">Nhằm đảm bảo chất lượng đầu ra </tspan><tspan x="109.5" y="64" style="font-family:'HelveticaNeue-Medium'; font-size:38px;">Chúng tôi xin phép giới hạn </tspan><tspan x="292.1" y="128" style="font-family:'HelveticaNeue-Medium'; font-size:38px;">số lượng mỗi lớp</tspan></text>
	<rect x="-689.3" y="-6635.3" style="fill:none;" width="1062.9" height="246.6"/>
	<text transform="matrix(1 0 0 1 -593.6363 -6566.4014)"><tspan x="0" y="0" style="fill:#F78508; font-family:'Anton'; font-size:97px;">Chất lượng người học là </tspan><tspan x="277.9" y="116.4" style="fill:#F78508; font-family:'Anton'; font-size:97px;">ưu tiên hàng đầu</tspan></text>
	<g>
		<rect x="-1253.2" y="-1314.6" style="fill:none;" width="666.1" height="157.4"/>
		<text transform="matrix(1 0 0 1 -1253.1797 -1238.7666)"><tspan x="0" y="0" style="fill:#00B2DD; font-family:'Anton'; font-size:91px;">Thời</tspan><tspan x="167.3" y="0" style="fill:#00B2DD; font-family:'AppleBraille-Outline6Dot'; font-size:91px;"> </tspan><tspan x="198.4" y="0" style="fill:#00B2DD; font-family:'Anton'; font-size:91px;">gian</tspan><tspan x="365" y="0" style="fill:#00B2DD; font-family:'AppleBraille-Outline6Dot'; font-size:91px;"> </tspan><tspan x="396.1" y="0" style="fill:#00B2DD; font-family:'Anton'; font-size:91px;">học</tspan><tspan x="537.3" y="0" style="fill:#00B2DD; font-family:'AppleBraille-Outline6Dot'; font-size:91px;"> </tspan><tspan x="568.4" y="0" style="fill:#00B2DD; font-family:'Anton'; font-size:91px;">:</tspan></text>
	</g>
	<rect x="-1221.7" y="834.1" style="fill:none;" width="366.6" height="135.4"/>
	<text transform="matrix(1 0 0 1 -1221.7031 904.4121)" style="fill:#ED7837; font-family:'Anton'; font-size:99px;">ĐỊA </text>
	<rect x="-1228.6" y="1393.8" style="fill:none;" width="707.5" height="51.4"/>
	<text transform="matrix(1 0 0 1 -1228.6309 1408.123)" class="st10" style="font-family:'HelveticaNeue-Bold'; font-size:20px;">2 chi nhánh cách nhau 30s đi xe máy</text>
	<path class="st5" d="M-970-7087c0,4.2-3.4,7.7-7.7,7.7h-229.6c-4.2,0-7.7-3.4-7.7-7.7v-65.6c0-4.2,3.4-7.7,7.7-7.7h229.6
		c4.2,0,7.7,3.4,7.7,7.7V-7087z"/>
	<rect x="-1268.5" y="-7139.8" style="fill:none;" width="348.1" height="74"/>
	<text transform="matrix(1 0 0 1 -1187.4434 -7101.2373)" class="st0" style="font-family:'HelveticaNeue-Bold'; font-size:54px;">Liên hệ</text>
	<path class="st6" d="M371-6067c0,4.2-3.4,7.7-7.7,7.7H133.7c-4.2,0-7.7-3.4-7.7-7.7v-65.6c0-4.2,3.4-7.7,7.7-7.7h229.6
		c4.2,0,7.7,3.4,7.7,7.7V-6067z"/>
	<rect x="72.5" y="-6119.8" style="fill:none;" width="348.1" height="74"/>
	<text transform="matrix(1 0 0 1 153.5566 -6081.2373)" class="st0" style="font-family:'HelveticaNeue-Bold'; font-size:54px;">Liên hệ</text>
	<path d="M-255-500c0,4.2-3.4,7.7-7.7,7.7h-229.6c-4.2,0-7.7-3.4-7.7-7.7v-65.6c0-4.2,3.4-7.7,7.7-7.7h229.6c4.2,0,7.7,3.4,7.7,7.7
		V-500z"/>
	<rect x="-553.5" y="-552.8" style="fill:none;" width="348.1" height="74"/>
	<text transform="matrix(1 0 0 1 -472.4439 -514.2373)" class="st0" style="font-family:'HelveticaNeue-Bold'; font-size:54px;">Liên hệ</text>
	<rect x="404" y="-1150.2" class="st3" width="139" height="481.8"/>
	<rect x="-1373" y="-3281.3" class="st7" width="1916" height="424"/>
	<rect x="-96.2" y="732.7" class="st8" width="639.1" height="1080"/>
	<rect x="-1377" y="172.2" class="st8" width="103.1" height="356"/>
	<rect x="-1215" y="-7574.9" style="fill:none;" width="522.3" height="245.3"/>
	<text transform="matrix(1 0 0 1 -1215.0059 -7515.353)"><tspan x="0" y="0" class="st10" style="font-family:'HelveticaNeue-Bold'; font-size:26px;">Đây là bộ môn mang lại tư duy về thẩm </tspan><tspan x="0" y="41" class="st10" style="font-family:'HelveticaNeue-Bold'; font-size:26px;">mĩ trong thiết kế được nâng cấp dựa trên </tspan><tspan x="0" y="82" class="st10" style="font-family:'HelveticaNeue-Bold'; font-size:26px;">xu hướng 2024 và được thiết lập trong </tspan><tspan x="0" y="123" class="st10" style="font-family:'HelveticaNeue-Bold'; font-size:26px;">giáo án chương trình học cho các sinh </tspan><tspan x="0" y="164" class="st10" style="font-family:'HelveticaNeue-Bold'; font-size:26px;">viên tại Nhật Bản</tspan></text>
	<polygon style="fill:none;" points="-360.9,-7170.9 -1213,-7170.9 -1215,-7206.9 -362.9,-7206.9 	"/>
	<text transform="matrix(1 0 0 1 -1213.5864 -7181.3145)" class="st11" style="font-family:'MyriadPro-Bold'; font-size:36px;">Không gian lớp học</text>
	
		<image style="overflow:visible;" width="720" height="720" xlink:href="../../../../Downloads/LAYOUT 6/IMAG/PIC (5).jpg"  transform="matrix(0.9036 0 0 0.9036 -1360.5326 -6660.583)">
	</image>
	
		<image style="overflow:visible;" width="991" height="1341" xlink:href="../../../../Downloads/LAYOUT 6/IMAG/PIC (3).jpg"  transform="matrix(0.3919 0 0 0.3919 -716.6771 -6421.0464)">
	</image>
	
		<image style="overflow:visible;" width="1080" height="1528" xlink:href="../../../../Downloads/LAYOUT 6/IMAG/PIC (1).jpg"  transform="matrix(0.2587 0 0 0.2587 -996.5451 -6207.7949)">
	</image>
	<g>
		<rect x="-490" y="-1243.3" style="fill:none;" width="608" height="138"/>
		<text transform="matrix(1 0 0 1 -490.0059 -1205.6406)" class="st3" style="font-family:'Anton'; font-size:53px;">LỚP TRỰC TIẾP</text>
	</g>
	<g>
		<rect x="-1245.9" y="-2344.5" style="fill:none;" width="865.1" height="75.2"/>
		<text transform="matrix(1 0 0 1 -1245.9219 -2294.7871)" class="st12" style="font-family:'Anton'; font-size:70px;">3 LÝ DO CHÍNH BẠN NÊN </text>
	</g>
	<g>
		<rect x="-1245.9" y="-2253.5" style="fill:none;" width="865.1" height="75.2"/>
		<text transform="matrix(1 0 0 1 -1245.9219 -2219.3809)" class="st12" style="font-family:'Anton'; font-size:48px;">KODA PHOTOSHOP tại HANNA&apos;S FAMILY</text>
	</g>
	<rect x="-1100.9" y="-2059.8" style="fill:none;" width="816.6" height="139.1"/>
	<text transform="matrix(1 0 0 1 -1100.9443 -2030.0161)" class="st11" style="font-family:'UTM-Avo'; font-size:42px;">Chất lượng giảng dạy</text>
	<rect x="-1001.5" y="-4356.7" style="fill:none;" width="737.7" height="125.7"/>
	<text transform="matrix(1 0 0 1 -1001.5455 -4331.0957)" style="font-family:'UTM-Avo'; font-size:36px;">INTRODUCTION</text>
	<rect x="-1001.5" y="-4224.4" style="fill:none;" width="737.7" height="125.7"/>
	<text transform="matrix(1 0 0 1 -1001.5455 -4198.8755)" style="font-family:'UTM-Avo'; font-size:36px;">THE KOKLORS &amp; CONCESK</text>
	<rect x="-1001.5" y="-4092.2" style="fill:none;" width="737.7" height="46.3"/>
	<text transform="matrix(1 0 0 1 -1001.5455 -4066.6543)" style="font-family:'UTM-Avo'; font-size:36px;">DESIGN </text>
	<rect x="-1001.5" y="-3961.1" style="fill:none;" width="737.7" height="125.7"/>
	<text transform="matrix(1 0 0 1 -1001.5455 -3935.5479)" style="font-family:'UTM-Avo'; font-size:36px;">EFFECTS, FINAL DETAILS, AND EXTRAS</text>
	<rect x="-1001.5" y="-3826.7" style="fill:none;" width="737.7" height="125.7"/>
	<text transform="matrix(1 0 0 1 -1001.5455 -3801.1387)" style="font-family:'UTM-Avo'; font-size:36px;">LAYOUKA, RATIONNE TYPES</text>
	<rect x="-1100.9" y="-1909.9" style="fill:none;" width="816.6" height="139.1"/>
	<text transform="matrix(1 0 0 1 -1100.9443 -1880.0708)" class="st11" style="font-family:'UTM-Avo'; font-size:42px;">Giảng viên giàu kinh nghiệm</text>
	<rect x="-1100.9" y="-1760.2" style="fill:none;" width="816.6" height="139.1"/>
	<text transform="matrix(1 0 0 1 -1100.9443 -1730.3872)" class="st11" style="font-family:'UTM-Avo'; font-size:42px;">Không gian lớp học đa concept</text>
	<g>
		<rect x="-490" y="-876.3" style="fill:none;" width="330" height="80"/>
		<text transform="matrix(1 0 0 1 -490.0059 -838.6406)" class="st3" style="font-family:'Anton'; font-size:53px;">LỚP ONLINE</text>
	</g>
	<rect x="-485.7" y="-859.3" style="fill:none;" width="579.7" height="227"/>
	<text transform="matrix(1 0 0 1 -485.7124 -775.2058)"><tspan x="0" y="0" class="st10" style="font-family:'HelveticaNeue-Medium'; font-size:27px;">Lớp học online từ xa dành cho các bạn trong </tspan><tspan x="0" y="32.4" class="st10" style="font-family:'HelveticaNeue-Medium'; font-size:27px;">&amp; ngoài nước</tspan><tspan x="0" y="97.2" class="st10" style="font-family:'HelveticaNeue-Medium'; font-size:27px;">Đặc biệt là các bạn đang du học hoặc đang </tspan><tspan x="0" y="129.6" class="st10" style="font-family:'HelveticaNeue-Medium'; font-size:27px;">làm việc ở nước ngoài</tspan></text>
	
		<ellipse transform="matrix(0.9998 -1.787072e-02 1.787072e-02 0.9998 36.2851 -21.5907)" class="st9" cx="-1189.9" cy="-2041.1" rx="58.8" ry="58.8"/>
	
		<ellipse transform="matrix(0.9998 -1.787072e-02 1.787072e-02 0.9998 33.7025 -21.5676)" class="st9" cx="-1189.9" cy="-1896.5" rx="58.8" ry="58.8"/>
	
		<ellipse transform="matrix(1.667897e-02 -0.9999 0.9999 1.667897e-02 575.7114 -2906.6633)" class="st9" cx="-1189.9" cy="-1746" rx="58.8" ry="58.8"/>
	<rect x="-1245.9" y="-2073.3" style="fill:none;" width="112" height="158"/>
	<text transform="matrix(1 0 0 1 -1206.0811 -2028.541)" class="st0" style="font-family:'Anton'; font-size:63px;">1</text>
	<rect x="-1245.9" y="-1923.7" style="fill:none;" width="112" height="86"/>
	<text transform="matrix(1 0 0 1 -1206.0811 -1878.9912)" class="st0" style="font-family:'Anton'; font-size:63px;">2</text>
	<rect x="-1245.9" y="-1773.2" style="fill:none;" width="112" height="86"/>
	<text transform="matrix(1 0 0 1 -1206.0811 -1728.4795)" class="st0" style="font-family:'Anton'; font-size:63px;">3</text>
	<g>
		<rect x="-1254" y="-220.3" style="fill:none;" width="1624" height="170.1"/>
		<text transform="matrix(1 0 0 1 -899.211 -181.9346)"><tspan x="0" y="0" style="fill:#E26F10; font-family:'Anton'; font-size:54px;">KODA PHOTOSHOP là môn học giúp bạn </tspan><tspan x="18.9" y="81" style="fill:#E26F10; font-family:'Anton'; font-size:54px;">ứng dụng nhiều vào cuộc sống hiện tại</tspan></text>
	</g>
	<g>
		<g>
			<rect x="-1107.4" y="132.4" style="fill:none;" width="498" height="234"/>
			<text transform="matrix(1 0 0 1 -1014.0352 153.0762)"><tspan x="0" y="0" class="st6" style="font-family:'HelveticaNeue-Bold'; font-size:29px;">Thông thạo phần mềm </tspan><tspan x="38.1" y="50" style="font-family:'HelveticaNeue'; font-size:29px;">Photoshop từ A-Z</tspan></text>
			<rect x="-1053" y="445.4" style="fill:none;" width="389.3" height="234"/>
			<text transform="matrix(1 0 0 1 -1044.6147 466.1025)"><tspan x="0" y="0" class="st6" style="font-family:'HelveticaNeue-Bold'; font-size:29px;">Thiết kế ấn phẩm, hình ảnh</tspan><tspan x="372.5" y="0" style="font-family:'HelveticaNeue'; font-size:29px;"> </tspan><tspan x="6.2" y="50" style="font-family:'HelveticaNeue'; font-size:29px;">sống động trong quảng cáo </tspan><tspan x="97.4" y="100" style="font-family:'HelveticaNeue'; font-size:29px;">&amp; các sự kiện</tspan></text>
		</g>
		<g>
			<rect x="-545.6" y="132.4" style="fill:none;" width="293" height="234"/>
			<text transform="matrix(1 0 0 1 -534.3751 153.0762)"><tspan x="0" y="0" class="st6" style="font-family:'HelveticaNeue-Bold'; font-size:29px;">Chỉnh sửa hình ảnh </tspan><tspan x="-4.5" y="50" style="font-family:'HelveticaNeue'; font-size:29px;">sống động, theo style </tspan><tspan x="67.3" y="100" style="font-family:'HelveticaNeue'; font-size:29px;">riêng mình</tspan></text>
			<rect x="-571.9" y="445.4" style="fill:none;" width="345.4" height="234"/>
			<text transform="matrix(1 0 0 1 -538.1314 466.1025)"><tspan x="0" y="0" class="st6" style="font-family:'HelveticaNeue-Bold'; font-size:29px;">Tự tay tạo nên kênh </tspan><tspan x="-1.8" y="50" style="font-family:'HelveticaNeue'; font-size:29px;">truyền thông cho việc </tspan><tspan x="6.4" y="100" style="font-family:'HelveticaNeue'; font-size:29px;">khởi nghiệp cá nhân</tspan></text>
		</g>
		<g>
			<rect x="-109.1" y="132.4" style="fill:none;" width="332.5" height="234"/>
			<text transform="matrix(1 0 0 1 -67.5181 153.0762)"><tspan x="0" y="0" class="st6" style="font-family:'HelveticaNeue-Bold'; font-size:29px;">Tự tay thiết kế CV</tspan><tspan x="249.3" y="0" style="font-family:'HelveticaNeue'; font-size:29px;"> </tspan><tspan x="-24.6" y="50" style="font-family:'HelveticaNeue'; font-size:29px;">ấn tượng ghi điểm cho </tspan><tspan x="23.6" y="100" style="font-family:'HelveticaNeue'; font-size:29px;">nhà tuyển dụng</tspan></text>
			<rect x="-105.1" y="445.4" style="fill:none;" width="324.5" height="234"/>
			<text transform="matrix(1 0 0 1 -62.7764 466.1025)"><tspan x="0" y="0" class="st6" style="font-family:'HelveticaNeue-Bold'; font-size:29px;">Thiết kế proposal </tspan><tspan x="-24.9" y="50" style="font-family:'HelveticaNeue'; font-size:29px;">chuyên nghiệp thu hút </tspan><tspan x="76.4" y="100" style="font-family:'HelveticaNeue'; font-size:29px;">đầu tư</tspan></text>
		</g>
	</g>
	<rect x="298" y="-119.3" class="st8" width="245" height="37.8"/>
	<g>
		<g>
			<path class="st10" d="M-816.1-8.9l0.1-0.2c0.8-1.4,0.9-2.9,0.5-4.3c-0.4-1.4-1.3-2.7-2.6-3.5l-0.2-0.1c-1.3-0.7-2.9-0.9-4.3-0.5
				c-1.4,0.4-2.7,1.3-3.5,2.6l-0.8,1.3l10,5.8L-816.1-8.9L-816.1-8.9z M-868.9,65.2c0.6-0.5,1.5-0.5,2,0.1c0.5,0.6,0.5,1.5-0.1,2
				c-9.8,9.1-14.6,4.9-19.5,0.6c-3.8-3.3-7.8-6.7-15.4-0.5c-0.6,0.5-1.5,0.4-2-0.2c-0.5-0.6-0.4-1.5,0.2-2c9.5-7.7,14.3-3.5,19,0.6
				C-880.8,69.2-876.9,72.6-868.9,65.2L-868.9,65.2z M-854.9,43.8L-824.4-9l-3.8-2.2l-30.6,52.9c0.8,0,1.6,0.2,2.3,0.7
				c0.5,0.3,0.9,0.6,1.2,0.9C-855.1,43.5-855,43.7-854.9,43.8L-854.9,43.8z M-822-7.5l-30.5,52.8c0.2,0,0.3,0,0.5,0.1
				c0.5,0.1,1,0.3,1.4,0.6c0.7,0.4,1.3,1,1.7,1.7l30.6-52.9L-822-7.5L-822-7.5z M-851,50.9c0.2-0.5,0.2-1,0-1.5
				c-0.2-0.5-0.5-0.8-0.9-1.1c-0.2-0.1-0.4-0.2-0.6-0.2c-0.2,0-0.4,0-0.6,0c-0.8,0.1-1.6-0.1-2.3-0.5c-0.7-0.4-1.2-1-1.6-1.7
				c-0.1-0.2-0.2-0.4-0.3-0.5c-0.2-0.2-0.3-0.3-0.5-0.4c-0.4-0.3-0.9-0.3-1.4-0.2c-0.5,0.1-0.9,0.3-1.2,0.7l-0.6,12.2L-851,50.9
				L-851,50.9z M-845.9,13.9h-60c-1.3,0-2.5,0.5-3.3,1.4c-0.9,0.8-1.4,2-1.4,3.3v58.8c0,1.3,0.5,2.5,1.4,3.3c0.9,0.8,2,1.4,3.3,1.4
				h95.1c1.3,0,2.4-0.5,3.3-1.3c0.9-0.9,1.4-2.1,1.4-3.4V18.5c0-1.3-0.5-2.5-1.4-3.3c-0.8-0.9-2-1.4-3.3-1.4h-15.2l-22.1,38.4
				c-0.1,0.2-0.3,0.3-0.4,0.5l-13.2,8.7c-0.3,0.2-0.6,0.3-0.9,0.3c-0.8,0-1.4-0.7-1.3-1.5l0.8-15.9c0-0.2,0.1-0.5,0.2-0.7
				L-845.9,13.9L-845.9,13.9z M-847.1,97.9c-0.9-1.7-1.6-3.5-2.2-5.5c-0.7-2.4-1.2-4.9-1.4-7.6h-15.4c-0.2,2.7-0.7,5.2-1.4,7.6
				c-0.6,1.9-1.3,3.8-2.2,5.5H-847.1z M-834.7,100.7h-47.4v5.6h47.4V100.7z"/>
		</g>
	</g>
	<g transform="translate(0,-952.36218)">
		<path class="st11" d="M-450.7,962.8v49.8l14.2-13.6c1-1,2.7-0.9,3.6,0.1c0,0,0,0,0.1,0.1l5.8,6.6l14.7-14.2c1-0.9,2.5-0.9,3.5,0
			l24,22.9l14.1-15.1c1-1,2.6-1.1,3.6-0.1l19.4,18.1v-54.6H-450.7L-450.7,962.8z M-383.3,968.7c1.4,0,2.6,1.1,2.7,2.5
			c0,0,0,0.1,0,0.1v4.2c0,1.4-1.1,2.6-2.5,2.6c-1.4,0-2.6-1.1-2.6-2.5c0,0,0,0,0-0.1v-4.3C-385.9,969.9-384.8,968.8-383.3,968.7
			L-383.3,968.7z M-395.9,973.8c0.1,0,0.2,0,0.3,0c0.7,0,1.4,0.3,1.9,0.8l3,3c1,1,1.1,2.6,0.1,3.6c-1,1-2.6,1.1-3.6,0.1
			c0,0,0,0-0.1-0.1l-3-3c-1-1-1.1-2.6-0.1-3.6C-397.1,974.2-396.5,973.9-395.9,973.8z M-371.3,973.8c0.1,0,0.2,0,0.3,0
			c1.4-0.1,2.6,1.1,2.7,2.5c0,0.7-0.3,1.4-0.8,2l-3,3c-1,1-2.6,1.1-3.6,0.1c-1-1-1.1-2.6-0.1-3.6c0,0,0,0,0.1-0.1l3-3
			C-372.4,974.2-371.9,973.9-371.3,973.8z M-383.3,979.8c4.9,0,9,4,9,8.9c0,4.9-4.1,8.9-9,8.9c-5,0-9.1-4-9.1-8.9
			C-392.3,983.8-388.2,979.8-383.3,979.8z M-400.9,986.2c0.1,0,0.2,0,0.3,0h4.2c1.4,0,2.6,1.1,2.6,2.5c0,1.4-1.1,2.6-2.5,2.6
			c0,0,0,0-0.1,0h-4.3c-1.4,0.1-2.6-1-2.7-2.4C-403.5,987.5-402.4,986.2-400.9,986.2L-400.9,986.2z M-370.4,986.2c0.1,0,0.2,0,0.3,0
			h4.2c1.4,0,2.6,1.1,2.6,2.5c0,1.4-1.1,2.6-2.5,2.6c0,0,0,0-0.1,0h-4.3c-1.4,0.1-2.6-1-2.7-2.4
			C-372.9,987.5-371.8,986.2-370.4,986.2C-370.4,986.2-370.4,986.2-370.4,986.2L-370.4,986.2z"/>
		<path class="st11" d="M-410.5,997.1l24.1,23c1,1,2.7,0.9,3.6-0.1c0,0,0,0,0,0l14.1-15.2l21,19.6v6h-103.1v-10.7l15.8-15.1l5.8,6.6
			c0.9,1.1,2.6,1.2,3.6,0.2c0,0,0.1-0.1,0.1-0.1L-410.5,997.1L-410.5,997.1z"/>
	</g>
	<g>
		<path class="st11" d="M82.9,75.1V27.6l0,0V2.2c0-1.2-1-2.2-2.2-2.2H2.2C1,0,0,1,0,2.2v84.2c0,1.2,1,2.2,2.2,2.2H89
			C85.3,85.3,82.9,80.5,82.9,75.1z M24.4,7.1c4.8,0,8.7,3.9,8.7,8.7c0,4.8-3.9,8.7-8.7,8.7c-4.8,0-8.7-3.9-8.7-8.7
			C15.8,11,19.7,7.1,24.4,7.1z M8,44.5v-2.5c0-8.1,7.6-14.6,17-14.6c9.4,0,17,6.5,17,14.6v2.5c0,1.2-1,2.2-2.2,2.2H10.2
			C8.9,46.7,8,45.7,8,44.5z M68.6,77.3H12.2c-1.2,0-2.2-1-2.2-2.2c0-1.2,1-2.2,2.2-2.2h56.4c1.2,0,2.2,1,2.2,2.2
			C70.7,76.3,69.8,77.3,68.6,77.3z M68.6,57.6H12.2c-1.2,0-2.2-1-2.2-2.2c0-1.2,1-2.2,2.2-2.2h56.4c1.2,0,2.2,1,2.2,2.2
			C70.7,56.6,69.8,57.6,68.6,57.6z M68.6,37.8H45.1c-1.2,0-2.2-1-2.2-2.2c0-1.2,1-2.2,2.2-2.2h23.4c1.2,0,2.2,1,2.2,2.2
			C70.7,36.8,69.8,37.8,68.6,37.8z M68.6,18H45.1c-1.2,0-2.2-1-2.2-2.2c0-1.2,1-2.2,2.2-2.2h23.4c1.2,0,2.2,1,2.2,2.2
			C70.7,17,69.8,18,68.6,18z"/>
		<path class="st11" d="M112,25.4H89.5c-1.2,0-2.2,1-2.2,2.2v47.5c0,7.4,6,13.5,13.5,13.5c7.4,0,13.5-6,13.5-13.5V27.6
			C114.2,26.4,113.2,25.4,112,25.4z"/>
	</g>
	<g>
		<rect x="-884.3" y="335.2" class="st11" width="52" height="19.1"/>
		<g>
			<polyline class="st11" points="-829.7,401.5 -829.7,384.3 -809,384.3 -809,330.3 -829.5,330.3 -829.5,307.3 			"/>
			<polyline class="st11" points="-887.1,307.3 -887.1,330.3 -907.8,330.3 -907.8,384.3 -887.1,384.3 -887.1,401.5 			"/>
			<polyline class="st11" points="-880.2,394.7 -880.2,374 -836.5,374 -836.5,394.7 			"/>
			<rect x="-843.5" y="344" class="st11" width="20.8" height="6.9"/>
		</g>
	</g>
	<path class="st11" d="M-366.5,346h-29.6l22-25.7h0.6c4.8,0.1,8.7-3.8,8.8-8.6c0.1-4.8-3.8-8.7-8.6-8.8c-4.8-0.1-8.7,3.8-8.8,8.6
		c0,1.6,0.4,3.2,1.2,4.6l-20.3,23.6l-15.8-20.2c1.9-4.3,0-9.3-4.3-11.2c-4.3-1.9-9.3,0-11.2,4.3c-1.9,4.3,0,9.3,4.3,11.2
		c1.1,0.5,2.2,0.7,3.4,0.7c0.5,0,1.1,0,1.6,0l16.9,21.5h-25.5c-4.4,0-7.9,3.5-7.9,7.9v43.9c0,4.4,3.5,7.9,7.9,7.9h65.3
		c4.4,0,7.9-3.5,7.9-7.9v-44C-358.6,349.5-362.1,346-366.5,346z M-390.9,378.7l-10.8,10.8c-1.5,1.5-4,1.6-5.6,0
		c-0.7-0.7-1.2-1.7-1.2-2.8v-21.7c0.1-2.2,1.9-3.9,4.1-3.8c1,0,2,0.5,2.7,1.2l10.8,10.8C-389.5,374.8-389.5,377.1-390.9,378.7
		L-390.9,378.7z"/>
	<g>
		<path class="st11" d="M20,398.5v-81.1h57.4v5.1H25v76H20z M28.4,406.9v-81.1h57.4v5.1H33.5v76H28.4z M84.1,405.2v7.8l7.8-7.8H84.1
			z M36.8,334.3v81.1h43.9v-13.5h13.5v-67.6H36.8z M47,368.1h11.8v3.4H47V368.1z M55.4,401.9h-5.1v-10.1h5.1V401.9z M67.2,401.9
			h-8.4v-23.6h8.4V401.9z M75.7,401.9h-5.1V385h5.1V401.9z M84.1,363H47v-3.4h37.2V363z M84.1,354.6H47v-3.4h37.2V354.6z
			 M84.1,346.1H47v-3.4h37.2V346.1z"/>
	</g>
	<g>
		<rect x="-1123.2" y="-4257.2" class="st12" width="73.7" height="72.7"/>
		<rect x="-1113.8" y="-4245.5" style="fill:none;" width="68.4" height="67.3"/>
		<text transform="matrix(1 0 0 1 -1113.7593 -4205.0518)" class="st0" style="font-family:'Anton'; font-size:56.908px;">U2</text>
	</g>
	<g>
		<rect x="-1124.5" y="-4389.4" class="st12" width="73.7" height="72.7"/>
		<rect x="-1112.4" y="-4377.7" style="fill:none;" width="68.4" height="67.3"/>
		<text transform="matrix(1 0 0 1 -1112.4033 -4337.2725)" class="st0" style="font-family:'Anton'; font-size:56.908px;">U1</text>
	</g>
	<g>
		<rect x="-1123.2" y="-4124.9" class="st12" width="73.7" height="72.7"/>
		<rect x="-1113.8" y="-4113.2" style="fill:none;" width="68.4" height="67.3"/>
		<text transform="matrix(1 0 0 1 -1113.7593 -4072.8311)" class="st0" style="font-family:'Anton'; font-size:56.908px;">U3</text>
	</g>
	<g>
		<rect x="-1123.6" y="-3992.7" class="st12" width="73.7" height="72.7"/>
		<rect x="-1113.3" y="-3981" style="fill:none;" width="68.4" height="67.3"/>
		<text transform="matrix(1 0 0 1 -1113.3066 -3940.6104)" class="st0" style="font-family:'Anton'; font-size:56.908px;">U4</text>
	</g>
	<g>
		<rect x="-1123.2" y="-3861" class="st12" width="73.7" height="72.7"/>
		<rect x="-1113.8" y="-3848.3" style="fill:none;" width="68.4" height="67.3"/>
		<text transform="matrix(1 0 0 1 -1113.7593 -3807.9365)" class="st0" style="font-family:'Anton'; font-size:56.908px;">U5</text>
	</g>
	<rect x="-171.4" y="-4387.8" style="fill:none;" width="434.6" height="125.7"/>
	<text transform="matrix(1 0 0 1 -171.377 -4362.1948)"><tspan x="0" y="0" style="font-family:'UTM-Avo'; font-size:36px;">POST ADS, BANNER, </tspan><tspan x="0" y="43.2" style="font-family:'UTM-Avo'; font-size:36px;">SQUARE POSTS</tspan></text>
	<rect x="-171.4" y="-4225.7" style="fill:none;" width="737.7" height="125.7"/>
	<text transform="matrix(1 0 0 1 -171.377 -4200.1499)" style="font-family:'UTM-Avo'; font-size:36px;">TYPOGRAPHY NACIS</text>
	<rect x="-171.4" y="-4090.9" style="fill:none;" width="737.7" height="46.3"/>
	<text transform="matrix(1 0 0 1 -171.377 -4065.3232)" style="font-family:'UTM-Avo'; font-size:36px;">ADVANCED MASK TECH</text>
	<rect x="-171.4" y="-3961.5" style="fill:none;" width="737.7" height="125.7"/>
	<text transform="matrix(1 0 0 1 -171.377 -3935.918)" style="font-family:'UTM-Avo'; font-size:36px;">CV &amp; CL DESIGN</text>
	<rect x="-171.4" y="-3851.3" style="fill:none;" width="737.7" height="125.7"/>
	<text transform="matrix(1 0 0 1 -171.377 -3831.4609)"><tspan x="0" y="0" style="font-family:'UTM-Avo'; font-size:28.0023px;">Bạn vui lòng liên hệ để có </tspan><tspan x="0" y="33.6" style="font-family:'UTM-Avo'; font-size:28.0023px;">chương trình học chi tiết và cụ thể</tspan></text>
	<g>
		<rect x="-290.3" y="-4255.4" class="st12" width="73.7" height="72.7"/>
		<rect x="-280.9" y="-4243.6" style="fill:none;" width="68.4" height="67.3"/>
		<text transform="matrix(1 0 0 1 -280.8809 -4203.2456)" class="st0" style="font-family:'Anton'; font-size:56.908px;">U7</text>
	</g>
	<g>
		<rect x="-291.6" y="-4387.6" class="st12" width="73.7" height="72.7"/>
		<rect x="-279.5" y="-4375.9" style="fill:none;" width="68.4" height="67.3"/>
		<text transform="matrix(1 0 0 1 -279.5235 -4335.4658)" class="st0" style="font-family:'Anton'; font-size:56.908px;">U6</text>
	</g>
	<g>
		<rect x="-290.3" y="-4123.1" class="st12" width="73.7" height="72.7"/>
		<rect x="-280.9" y="-4111.4" style="fill:none;" width="68.4" height="67.3"/>
		<text transform="matrix(1 0 0 1 -280.8809 -4071.0244)" class="st0" style="font-family:'Anton'; font-size:56.908px;">U8</text>
	</g>
	<g>
		<rect x="-290.7" y="-3990.9" class="st12" width="73.7" height="72.7"/>
		<rect x="-280.4" y="-3979.2" style="fill:none;" width="68.4" height="67.3"/>
		<text transform="matrix(1 0 0 1 -280.4278 -3938.8037)" class="st0" style="font-family:'Anton'; font-size:56.908px;">U9</text>
	</g>
	<g>
		<rect x="-290.3" y="-3859.2" class="st12" width="73.7" height="72.7"/>
		<rect x="-280.9" y="-3846.5" style="fill:none;" width="68.4" height="67.3"/>
		<text transform="matrix(1 0 0 1 -280.8809 -3806.1299)" class="st0" style="font-family:'Anton'; font-size:56.908px;">A</text>
	</g>
	<rect x="-1231" y="1445.2" style="fill:none;" width="733.3" height="287.9"/>
	<text transform="matrix(1 0 0 1 -1231.0073 1459.5078)"><tspan x="0" y="0" class="st10" style="font-family:'HelveticaNeue-Bold'; font-size:20px;">Lưu ý: vì số lượng mỗi lớp hạn chế nên các bạn nhanh tay </tspan><tspan x="0" y="29" class="st10" style="font-family:'HelveticaNeue-Bold'; font-size:20px;">đăng kí sớm và đóng học phí để mình giữ chỗ và xếp lớp.</tspan><tspan x="0" y="87" class="st10" style="font-family:'HelveticaNeue-Bold'; font-size:20px;">Đăng kí trong 72h- Giảm 5% học phí</tspan><tspan x="0" y="116" class="st10" style="font-family:'HelveticaNeue-Bold'; font-size:20px;">Học phí: các bạn vui lòng inbox và sẽ cung cấp số TK </tspan><tspan x="0" y="174" class="st10" style="font-family:'HelveticaNeue-Bold'; font-size:20px;">p/s: Về bài học số 5 và bài số 6 trong chương trình học, </tspan><tspan x="0" y="203" class="st10" style="font-family:'HelveticaNeue-Bold'; font-size:20px;">các bạn sẽ biết cách làm đẹp hình ảnh của chính </tspan><tspan x="0" y="232" class="st10" style="font-family:'HelveticaNeue-Bold'; font-size:20px;">các bạn khi post lên Facebook</tspan></text>
	<g>
		<path class="st6" d="M-1038.4,969.5c-13.9,0-25.1,10.7-25.1,23.9c0,3.8,0.9,7.5,2.7,10.9l0,0c7,11.8,15,23.8,22.5,35.6
			c7-12.1,15.6-23.4,22.3-35.6c1.8-3.4,2.7-7.1,2.7-10.9C-1013.3,980.2-1024.5,969.5-1038.4,969.5L-1038.4,969.5L-1038.4,969.5z
			 M-1038.4,979.6c7.3,0,13.3,5.9,13.3,13.3v0c0,7.3-5.9,13.3-13.3,13.3c0,0,0,0,0,0c-7.3,0-13.3-5.9-13.3-13.3
			C-1051.6,985.5-1045.7,979.6-1038.4,979.6L-1038.4,979.6z"/>
	</g>
	<g>
		<path class="st6" d="M-655.3,965.2c-13.9,0-25.1,10.7-25.1,23.9c0,3.8,0.9,7.5,2.7,10.9l0,0c7,11.8,15,23.8,22.5,35.6
			c7-12.1,15.6-23.4,22.3-35.6c1.8-3.4,2.7-7.1,2.7-10.9C-630.1,975.9-641.4,965.2-655.3,965.2L-655.3,965.2L-655.3,965.2z
			 M-655.3,975.2c7.3,0,13.3,5.9,13.3,13.3v0c0,7.3-5.9,13.3-13.3,13.3c0,0,0,0,0,0c-7.3,0-13.3-5.9-13.3-13.3
			C-668.5,981.1-662.6,975.2-655.3,975.2L-655.3,975.2z"/>
	</g>
	<rect x="-1235.4" y="1065.6" style="fill:none;" width="394" height="77.6"/>
	<text transform="matrix(1 0 0 1 -1212.5151 1079.1514)"><tspan x="0" y="0" class="st10" style="font-family:'HelveticaNeue-Bold'; font-size:19px;">345/86 Trần Hưng Đạo P. Cầu Kho Q.1 </tspan><tspan x="24.1" y="29" class="st10" style="font-family:'HelveticaNeue-Bold'; font-size:19px;">(KHỐI NGÀNH 3D &amp; Talent Team)</tspan></text>
	<rect x="-1201.9" y="1244.9" style="fill:none;" width="327" height="77.6"/>
	<text transform="matrix(1 0 0 1 -1110.6709 1263.4753)" class="st10" style="font-family:'HelveticaNeue-Bold'; font-size:26px;">0932709998</text>
	<rect x="-818.8" y="1244.9" style="fill:none;" width="327" height="77.6"/>
	<text transform="matrix(1 0 0 1 -734.7608 1263.4753)" class="st10" style="font-family:'HelveticaNeue-Bold'; font-size:26px;">0378 277 414 </text>
	<rect x="-818.8" y="1061.2" style="fill:none;" width="327" height="77.6"/>
	<text transform="matrix(1 0 0 1 -770.8526 1075.5059)" class="st10" style="font-family:'HelveticaNeue-Bold'; font-size:20px;">20 PHAN VĂN TRỊ P2 Q5</text>
	<g transform="translate(0,-952.36218)">
		<path class="st6" d="M-1016.8,2109.1c3.8,4,6.7,7.8,7.3,11.4c-0.1,8.3-7.9,18.6-17.3,27.9c-9.3,9.3-20.2,18.5-28,17.3
			c-3.7-0.6-7.5-3.5-11.5-7.4c-1.3-1.2-1.3-3.9,0-5.2l8-8c1.4-1.4,4.1-1.4,5.8-0.4l5.4,3.9c2.9,2.4,8.9-3.6,12.9-7.6
			c4-4,10.1-9.4,7.5-13l-3.9-5.4c-0.9-1.7-0.9-4.4,0.4-5.7l8-8C-1020.8,2107.7-1018.1,2107.7-1016.8,2109.1L-1016.8,2109.1z"/>
	</g>
	<g transform="translate(0,-952.36218)">
		<path class="st6" d="M-633.6,2109.1c3.8,4,6.7,7.8,7.3,11.4c-0.1,8.3-7.9,18.6-17.3,27.9c-9.3,9.3-20.2,18.5-28,17.3
			c-3.7-0.6-7.5-3.5-11.5-7.4c-1.3-1.2-1.3-3.9,0-5.2l8-8c1.4-1.4,4.1-1.4,5.8-0.4l5.4,3.9c2.9,2.4,8.9-3.6,12.9-7.6
			c4-4,10.1-9.4,7.5-13l-3.9-5.4c-0.9-1.7-0.9-4.4,0.4-5.7l8-8C-637.6,2107.7-635,2107.7-633.6,2109.1L-633.6,2109.1z"/>
	</g>
	<rect x="-820" y="-7601.3" width="63" height="63"/>
</g>
<g id="Layer_7">
	<rect x="-1220.1" y="-7672" style="fill:none;" width="864.3" height="96.7"/>
	<text transform="matrix(1 0 0 1 -1220.1172 -7622.3027)" class="st12" style="font-family:'Anton'; font-size:70px;">KODA PHOTOSHOP COURSE</text>
</g>
</svg>
