<?xml version="1.0" encoding="utf-8"?>
<!-- Generator: Adobe Illustrator 24.3.0, SVG Export Plug-In . SVG Version: 6.00 Build 0)  -->
<svg version="1.1" xmlns="http://www.w3.org/2000/svg" xmlns:xlink="http://www.w3.org/1999/xlink" x="0px" y="0px" width="122.2px"
	 height="177.2px" viewBox="0 0 122.2 177.2" style="enable-background:new 0 0 122.2 177.2;" xml:space="preserve">
<style type="text/css">
	.st0{fill:none;}
	.st1{fill:#EB7E29;}
	.st2{fill:#FF6400;}
	.st3{fill:#CD8024;}
	.st4{fill:#C18007;}
	.st5{fill:#FFA345;}
	.st6{fill:#FF8031;}
	.st7{fill:#E88038;}
	.st8{fill:#FF801E;}
</style>
<g id="Layer_2">
</g>
<g id="Layer_1">
	<rect x="-910.5" y="-7794.3" class="st0" width="1920" height="1080"/>
	<rect x="-910.5" y="-6713.3" class="st0" width="1920" height="1080"/>
	<rect x="-910.5" y="-8874.3" class="st0" width="1920" height="1080"/>
	<rect x="-910.5" y="-9954.3" class="st0" width="1920" height="1080"/>
	<rect x="-910.5" y="-4554.3" class="st0" width="1920" height="1080"/>
	<rect x="-910.5" y="-3474.3" class="st0" width="1920" height="1080"/>
	<rect x="-910.5" y="-2394.3" class="st0" width="1920" height="1080"/>
	<rect x="-910.5" y="-1314.3" class="st0" width="1920" height="1080"/>
	<rect x="-910.5" y="-234.3" class="st0" width="1920" height="1080"/>
	<rect x="-910.5" y="845.7" class="st0" width="1920" height="1080"/>
	<rect x="-910.5" y="1925.7" class="st0" width="1920" height="1080"/>
	<rect x="-910.5" y="3005.7" class="st0" width="1920" height="1080"/>
	<rect x="-910.5" y="4085.7" class="st0" width="1920" height="1080"/>
</g>
<g id="Layer_3">
	<rect x="-111.8" y="-8292.7" class="st0" width="1076.2" height="75"/>
	
		<text transform="matrix(1 0 0 1 -111.7622 -8250.7637)" style="fill:#004068; font-family:'HelveticaNeue-Bold'; font-size:58.7032px;">Upgrade Program 2024</text>
	<text transform="matrix(1 0 0 1 -111.7622 -8472.3076)"><tspan x="0" y="0" style="fill:#BC4C25; font-family:'Anton'; font-size:97.8386px;">KHAI GIẢNG KHÓA </tspan><tspan x="0" y="135.9" style="fill:#BC4C25; font-family:'Anton'; font-size:97.8386px;">KODA WATERCOLOR CLASS </tspan></text>
</g>
<g id="Layer_6">
</g>
<g id="Layer_4">
</g>
<g id="Layer_5">
	<rect x="-910.5" y="-5541.3" class="st1" width="723.4" height="126.1"/>
	<rect x="-910.5" y="-3340.3" class="st2" width="1076" height="116"/>
	<rect x="-115.5" y="-8200.3" class="st3" width="1014" height="43"/>
	<rect x="-115.5" y="-8142.3" class="st3" width="331" height="44"/>
	<text transform="matrix(1 0 0 1 -108.7617 -8165.853)"><tspan x="0" y="0" style="fill:#FFFFFF; font-family:'MyriadPro-Bold'; font-size:33.7px;">CHƯƠNG TRÌNH HỌC CẬP NHẬT LIÊN TỤC ĐỔI MỚI KHÔNG NGỪNG </tspan><tspan x="0" y="57.6" style="fill:#FFFFFF; font-family:'MyriadPro-Bold'; font-size:33.7px;">THEO QUÝ MỖI NĂM</tspan></text>
	<g>
		<text transform="matrix(1 0 0 1 -697.0464 -3252.8062)" style="fill:#FFFFFF; font-family:'Anton'; font-size:64.8602px;">NỘI DUNG CHƯƠNG TRÌNH KHÓA HỌC</text>
	</g>
	<rect x="-681.9" y="-936.2" class="st0" width="554.5" height="95.1"/>
	<text transform="matrix(1 0 0 1 -681.9277 -916.236)"><tspan x="0" y="0" style="fill:#333333; font-family:'HelveticaNeue-Medium'; font-size:27.9885px;">Lớp Sáng:</tspan><tspan x="134.3" y="0" style="fill:#333333; font-family:'HelveticaNeue-Medium'; font-size:26.1828px;"> Thứ 6: 9h-10h30 sáng </tspan><tspan x="0" y="33.6" style="fill:#333333; font-family:'HelveticaNeue-Medium'; font-size:27.9885px;">Lớp Sáng:</tspan><tspan x="134.3" y="33.6" style="fill:#333333; font-family:'HelveticaNeue-Medium'; font-size:26.1828px;"> Thứ 7: 9h-10h30 sáng </tspan><tspan x="0" y="67.2" style="fill:#333333; font-family:'HelveticaNeue-Medium'; font-size:27.9885px;">Lớp Sáng:</tspan><tspan x="134.3" y="67.2" style="fill:#333333; font-family:'HelveticaNeue-Medium'; font-size:26.1828px;"> Thứ chủ nhật: 9h-10h30 sáng</tspan></text>
	<rect x="-681.9" y="-799.3" class="st0" width="581.5" height="95.1"/>
	<text transform="matrix(1 0 0 1 -681.9277 -779.3239)"><tspan x="0" y="0" style="fill:#333333; font-family:'HelveticaNeue-Medium'; font-size:27.9885px;">Các em chọn 1 trong 3 hoặc 2 trong 3 buổi </tspan><tspan x="0" y="33.6" style="fill:#333333; font-family:'HelveticaNeue-Medium'; font-size:27.9885px;">Tùy theo lịch cá nhân</tspan></text>
	<rect x="115.4" y="-6372.6" class="st0" width="728.8" height="222.4"/>
	<text transform="matrix(1 0 0 1 165.0966 -6341.1001)"><tspan x="0" y="0" style="font-family:'HelveticaNeue-Medium'; font-size:44.1859px;">Theo sát từng học viên trong quá </tspan><tspan x="200.6" y="74.4" style="font-family:'HelveticaNeue-Medium'; font-size:44.1859px;">trình học và hướng dẫn </tspan><tspan x="404" y="148.8" style="font-family:'HelveticaNeue-Medium'; font-size:44.1859px;">bài vở về nhà </tspan></text>
	<g>
		<rect x="34.8" y="-6510.1" class="st0" width="822.6" height="152.5"/>
		<text transform="matrix(1 0 0 1 115.6983 -6444.0747)" style="fill:#BC4C25; font-family:'Anton'; font-size:93.0229px;">HƯỚNG DẪN TRỰC </text>
	</g>
	<g>
		<rect x="-690.5" y="-1137.6" class="st0" width="494.1" height="142.1"/>
		<text transform="matrix(1 0 0 1 -690.5078 -1079.3082)" style="fill:#C83443; font-family:'Anton'; font-size:82.1598px;">Thời gian học </text>
	</g>
	<g>
		<rect x="-768.9" y="-5516.1" class="st0" width="789.8" height="102.3"/>
		<text transform="matrix(1 0 0 1 -768.918 -5451.4795)" style="fill:#FFFFFF; font-family:'Anton'; font-size:91px;">FROM STUDENTS</text>
	</g>
	<g>
		<rect x="-650.3" y="-3692.4" class="st0" width="716" height="211.8"/>
		<text transform="matrix(1 0 0 1 -650.3164 -3607.1567)"><tspan x="0" y="0" style="fill:#C3B397; font-family:'Anton'; font-size:120px;">FROM STU</tspan><tspan x="524" y="0" style="fill:#C3B397; font-family:'Anton'; font-size:120px;">-</tspan></text>
	</g>
	<g>
		<rect x="-698.2" y="1000.5" class="st0" width="325.2" height="120.1"/>
		<text transform="matrix(1 0 0 1 -698.1704 1062.8871)" class="st6" style="font-family:'Anton'; font-size:87.8215px;">ĐỊA </text>
	</g>
	
		<image style="overflow:visible;" width="1143" height="480" xlink:href="../../../../Downloads/pTS (16a).jpg"  transform="matrix(1.6772 0 0 1.6772 -909.1619 4223.2129)">
	</image>
	<rect x="-690.4" y="1476.3" class="st0" width="627.6" height="45.6"/>
	
		<text transform="matrix(1 0 0 1 -690.3916 1495.9115)" style="fill:#333333; font-family:'HelveticaNeue-Bold'; font-size:27.4997px;">2 chi nhánh cách nhau 30s đi xe máy</text>
	<path class="st4" d="M845.7-5994.6c0,4.9-4,8.9-8.9,8.9h-267c-4.9,0-8.9-4-8.9-8.9v-76.3c0-4.9,4-8.9,8.9-8.9h267
		c4.9,0,8.9,4,8.9,8.9V-5994.6z"/>
	<rect x="498.6" y="-6056" class="st0" width="404.8" height="86"/>
	
		<text transform="matrix(1 0 0 1 592.8965 -6011.1567)" style="fill:#FFFFFF; font-family:'HelveticaNeue-Bold'; font-size:62.7905px;">Liên hệ</text>
	<path class="st5" d="M-466.5-401.2c0,3.8-3.1,6.9-6.9,6.9h-207.3c-3.8,0-6.9-3.1-6.9-6.9v-59.2c0-3.8,3.1-6.9,6.9-6.9h207.3
		c3.8,0,6.9,3.1,6.9,6.9V-401.2z"/>
	<rect x="-736" y="-448.9" class="st0" width="314.3" height="66.8"/>
	
		<text transform="matrix(1 0 0 1 -662.8579 -414.0748)" style="fill:#FFFFFF; font-family:'HelveticaNeue-Bold'; font-size:48.7542px;">Liên hệ</text>
	<rect x="-910.5" y="-858.3" class="st6" width="69.5" height="1226.7"/>
	<rect x="-910.5" y="1587.8" class="st6" width="146" height="172.6"/>
	<rect x="901.5" y="906.8" class="st6" width="108" height="957.2"/>
	<rect x="-740" y="-7534.4" class="st0" width="774.6" height="94.5"/>
	<text transform="matrix(1 0 0 1 -740.0381 -7514.4141)"><tspan x="0" y="0" style="fill:#333333; font-family:'HelveticaNeue-Bold'; font-size:28px;">Khám phá những bí ẩn kỳ thú của nghệ thuật tranh màu </tspan><tspan x="0" y="41" style="fill:#333333; font-family:'HelveticaNeue-Bold'; font-size:28px;">nước đương đại cùng HANNA’S FAMILY nhé</tspan></text>
	<rect x="-740" y="-7399.4" class="st0" width="774.6" height="578.1"/>
	<text transform="matrix(1 0 0 1 -740.0381 -7379.4209)"><tspan x="0" y="0" style="fill:#333333; font-family:'HelveticaNeue-Bold'; font-size:28px;">Đây là lớp học vẽ tranh màu nước hiện đại mà bên</tspan><tspan x="0" y="41" style="fill:#333333; font-family:'HelveticaNeue-Bold'; font-size:28px;">HANNA&apos;S FAMILY đã ấp ủ từ lâu. Lớp học được mở ra </tspan><tspan x="0" y="82" style="fill:#333333; font-family:'HelveticaNeue-Bold'; font-size:28px;">với mục đích mang tới các bạn trẻ kiến thức đầy đủ và </tspan><tspan x="0" y="123" style="fill:#333333; font-family:'HelveticaNeue-Bold'; font-size:28px;">hiện đại nhất về lý thuyết của màu nước, màu sắc, cách </tspan><tspan x="0" y="164" style="fill:#333333; font-family:'HelveticaNeue-Bold'; font-size:28px;">phối màu, chọn cọ, giấy vẽ.. đến kỹ thuật vẽ, kiểm soát </tspan><tspan x="0" y="205" style="fill:#333333; font-family:'HelveticaNeue-Bold'; font-size:28px;">lượng nước, vẽ phác thảo… </tspan><tspan x="0" y="287" style="fill:#333333; font-family:'HelveticaNeue-Bold'; font-size:28px;">Sau khoá học, các bạn học viên sẽ có đủ khả năng để </tspan><tspan x="0" y="328" style="fill:#333333; font-family:'HelveticaNeue-Bold'; font-size:28px;">sáng tác những tác phẩm màu nước theo sở thích </tspan><tspan x="0" y="369" style="fill:#333333; font-family:'HelveticaNeue-Bold'; font-size:28px;">của mình.</tspan></text>
	<polygon class="st0" points="105.5,-6858.3 -746.5,-6858.3 -748.5,-6894.3 103.5,-6894.3 	"/>
	<text transform="matrix(1 0 0 1 -747.1265 -6868.7275)" style="fill:#4D4D4D; font-family:'MyriadPro-Bold'; font-size:36px;">Không gian lớp học</text>
	<g>
		<rect x="-685.8" y="-1017.2" class="st0" width="548.9" height="56"/>
		<text transform="matrix(1 0 0 1 -685.8041 -983.2487)" class="st6" style="font-family:'Anton'; font-size:47.8513px;">LỚP TRỰC TIẾP</text>
	</g>
	<g>
		<rect x="-687.7" y="-701.2" class="st0" width="297.9" height="72.2"/>
		<text transform="matrix(1 0 0 1 -687.7427 -667.2545)" class="st6" style="font-family:'Anton'; font-size:47.8513px;">LỚP ONLINE</text>
	</g>
	<rect x="-683.9" y="-692.7" class="st0" width="523.4" height="204.9"/>
	<text transform="matrix(1 0 0 1 -683.8661 -616.7516)"><tspan x="0" y="0" style="fill:#333333; font-family:'HelveticaNeue-Medium'; font-size:24.3771px;">Lớp học online từ xa dành cho các bạn trong </tspan><tspan x="0" y="29.3" style="fill:#333333; font-family:'HelveticaNeue-Medium'; font-size:24.3771px;">&amp; ngoài nước</tspan><tspan x="0" y="87.8" style="fill:#333333; font-family:'HelveticaNeue-Medium'; font-size:24.3771px;">Đặc biệt là các bạn đang du học hoặc đang </tspan><tspan x="0" y="117" style="fill:#333333; font-family:'HelveticaNeue-Medium'; font-size:24.3771px;">làm việc ở nước ngoài</tspan></text>
	<g>
		<rect x="-787.6" y="-290.3" class="st0" width="1624" height="143.2"/>
		<text transform="matrix(1 0 0 1 -450.0722 -235.6269)" class="st6" style="font-family:'Anton'; font-size:77px;">KODA WATERCOLOR COURSE  </text>
	</g>
	<rect x="-539.4" y="-3118.7" class="st0" width="664.3" height="113.2"/>
	<text transform="matrix(1 0 0 1 -539.4033 -3094.4111)" style="font-family:'UTM-Avo'; font-size:34.1658px;">PREPARATION OF WATERCOLORS</text>
	<rect x="-539.4" y="-2999.6" class="st0" width="664.3" height="113.2"/>
	<text transform="matrix(1 0 0 1 -539.4033 -2975.3394)" style="font-family:'UTM-Avo'; font-size:34.1658px;">FROM IDEA TO PAPER</text>
	<rect x="-539.4" y="-2880.5" class="st0" width="664.3" height="41.7"/>
	<text transform="matrix(1 0 0 1 -539.4033 -2856.2666)" style="font-family:'UTM-Avo'; font-size:34.1658px;">TECHNIQUE WCL &amp; BRUSH STROKES</text>
	<rect x="-539.4" y="-2762.5" class="st0" width="664.3" height="113.2"/>
	<text transform="matrix(1 0 0 1 -539.4033 -2738.1982)" style="font-family:'UTM-Avo'; font-size:34.1658px;">KNOW YOUR OWN IDEAS</text>
	<rect x="-539.4" y="-2641.4" class="st0" width="664.3" height="113.2"/>
	<text transform="matrix(1 0 0 1 -539.4033 -2617.1553)" style="font-family:'UTM-Avo'; font-size:34.1658px;">THE BODY - BASIC</text>
	<rect x="-648.5" y="-3025.3" class="st7" width="66" height="66"/>
	<rect x="-640.5" y="-3014.5" class="st0" width="61.6" height="60.6"/>
	<text transform="matrix(1 0 0 1 -640.4575 -2978.1382)" style="fill:#FFFFFF; font-family:'Anton'; font-size:51.2488px;">U2</text>
	<rect x="-650.5" y="-3144.3" class="st7" width="67" height="66"/>
	<rect x="-639.2" y="-3133.6" class="st0" width="61.6" height="60.6"/>
	<text transform="matrix(1 0 0 1 -639.2363 -3097.2109)" style="fill:#FFFFFF; font-family:'Anton'; font-size:51.2488px;">U1</text>
	<rect x="-648.5" y="-2906.3" class="st7" width="66" height="66"/>
	<rect x="-640.5" y="-2895.5" class="st0" width="61.6" height="60.6"/>
	<text transform="matrix(1 0 0 1 -640.4575 -2859.0669)" style="fill:#FFFFFF; font-family:'Anton'; font-size:51.2488px;">U3</text>
	<rect x="-649.5" y="-2787.3" class="st7" width="67" height="66"/>
	<rect x="-640.1" y="-2776.4" class="st0" width="61.6" height="60.6"/>
	<text transform="matrix(1 0 0 1 -640.0503 -2739.9946)" style="fill:#FFFFFF; font-family:'Anton'; font-size:51.2488px;">U4</text>
	<rect x="-648.5" y="-2668.3" class="st7" width="66" height="65"/>
	<rect x="-640.5" y="-2656.9" class="st0" width="61.6" height="60.6"/>
	<text transform="matrix(1 0 0 1 -640.4575 -2620.5151)" style="fill:#FFFFFF; font-family:'Anton'; font-size:51.2488px;">U5</text>
	<rect x="241.5" y="-3120.1" class="st0" width="530.8" height="113.2"/>
	<text transform="matrix(1 0 0 1 241.5303 -3095.8643)" style="font-family:'UTM-Avo'; font-size:34.1658px;">THE CIRCLE OF COLORS</text>
	<rect x="241.5" y="-3000.7" class="st0" width="664.3" height="113.2"/>
	<text transform="matrix(1 0 0 1 241.5303 -2976.4873)" style="font-family:'UTM-Avo'; font-size:34.1658px;">PAINTING OUR ELEMENTS</text>
	<rect x="241.5" y="-2879.3" class="st0" width="664.3" height="41.7"/>
	<text transform="matrix(1 0 0 1 241.5303 -2855.0674)" style="font-family:'UTM-Avo'; font-size:34.1658px;">PROJECTS</text>
	<rect x="241.5" y="-2778.1" class="st0" width="664.3" height="113.2"/>
	<text transform="matrix(1 0 0 1 241.5303 -2760.1509)"><tspan x="0" y="0" style="font-family:'UTM-Avo'; font-size:25.2176px;">Bạn vui lòng liên hệ để có </tspan><tspan x="0" y="30.3" style="font-family:'UTM-Avo'; font-size:25.2176px;">chương trình học chi tiết và cụ thể</tspan></text>
	<rect x="134.5" y="-3023.3" class="st7" width="66" height="65"/>
	<rect x="142.9" y="-3012.9" class="st0" width="61.6" height="60.6"/>
	<text transform="matrix(1 0 0 1 142.916 -2976.5117)" style="fill:#FFFFFF; font-family:'Anton'; font-size:51.2488px;">U7</text>
	<rect x="133.5" y="-3142.3" class="st7" width="66" height="65"/>
	<rect x="142.1" y="-3132" class="st0" width="61.6" height="60.6"/>
	<text transform="matrix(1 0 0 1 142.1365 -3095.584)" style="fill:#FFFFFF; font-family:'Anton'; font-size:51.2488px;">U6</text>
	<rect x="134.5" y="-2904.3" class="st7" width="66" height="65"/>
	<rect x="142.9" y="-2893.8" class="st0" width="61.6" height="60.6"/>
	<text transform="matrix(1 0 0 1 142.916 -2857.4399)" style="fill:#FFFFFF; font-family:'Anton'; font-size:51.2488px;">U8</text>
	<rect x="134.5" y="-2785.3" class="st7" width="66" height="65"/>
	<rect x="143.3" y="-2774.8" class="st0" width="61.6" height="60.6"/>
	<text transform="matrix(1 0 0 1 143.3242 -2738.3677)" style="fill:#FFFFFF; font-family:'Anton'; font-size:51.2488px;">U9</text>
	<rect x="-690.4" y="1518.6" class="st0" width="650.5" height="255.3"/>
	<text transform="matrix(1 0 0 1 -690.3916 1531.2699)"><tspan x="0" y="0" style="fill:#333333; font-family:'HelveticaNeue-Bold'; font-size:17.7417px;">Lưu ý: vì số lượng mỗi lớp hạn chế nên các bạn nhanh tay </tspan><tspan x="0" y="25.7" style="fill:#333333; font-family:'HelveticaNeue-Bold'; font-size:17.7417px;">đăng kí sớm và đóng học phí để mình giữ chỗ và xếp lớp.</tspan><tspan x="0" y="77.2" style="fill:#333333; font-family:'HelveticaNeue-Bold'; font-size:17.7417px;">Đăng kí trong 72h- Giảm 5% học phí</tspan><tspan x="0" y="102.9" style="fill:#333333; font-family:'HelveticaNeue-Bold'; font-size:17.7417px;">Học phí: các bạn vui lòng inbox và sẽ cung cấp số TK </tspan><tspan x="0" y="154.4" style="fill:#333333; font-family:'HelveticaNeue-Bold'; font-size:17.7417px;">p/s: Về bài học số 5 và bài số 6 trong chương trình học, </tspan><tspan x="0" y="180.1" style="fill:#333333; font-family:'HelveticaNeue-Bold'; font-size:17.7417px;">các bạn sẽ biết cách làm đẹp hình ảnh của chính </tspan><tspan x="0" y="205.8" style="fill:#333333; font-family:'HelveticaNeue-Bold'; font-size:17.7417px;">các bạn khi post lên Facebook</tspan></text>
	<g>
		<path class="st8" d="M-531.7,1155.6c-12.3,0-22.3,9.5-22.3,21.2c0,3.3,0.8,6.6,2.4,9.6l0,0c6.2,10.5,13.3,21.1,20,31.6
			c6.2-10.7,13.8-20.7,19.8-31.6c1.6-3,2.4-6.3,2.4-9.6C-509.4,1165.1-519.4,1155.6-531.7,1155.6L-531.7,1155.6L-531.7,1155.6z
			 M-531.7,1164.5c6.5,0,11.8,5.3,11.8,11.8v0c0,6.5-5.3,11.8-11.8,11.8c0,0,0,0,0,0c-6.5,0-11.8-5.3-11.8-11.8
			C-543.4,1169.7-538.2,1164.5-531.7,1164.5L-531.7,1164.5z"/>
	</g>
	<g>
		<path class="st8" d="M-191.8,1151.7c-12.3,0-22.3,9.5-22.3,21.2c0,3.3,0.8,6.6,2.4,9.6l0,0c6.2,10.5,13.3,21.1,20,31.6
			c6.2-10.7,13.8-20.7,19.8-31.6c1.6-3,2.4-6.3,2.4-9.6C-169.5,1161.2-179.5,1151.7-191.8,1151.7L-191.8,1151.7L-191.8,1151.7z
			 M-191.8,1160.6c6.5,0,11.8,5.3,11.8,11.8v0c0,6.5-5.3,11.8-11.8,11.8c0,0,0,0,0,0c-6.5,0-11.8-5.3-11.8-11.8
			C-203.6,1165.9-198.3,1160.6-191.8,1160.6L-191.8,1160.6z"/>
	</g>
	<rect x="-706.4" y="1240.8" class="st0" width="349.5" height="68.9"/>
	<text transform="matrix(1 0 0 1 -697.6914 1252.8236)"><tspan x="0" y="0" style="fill:#333333; font-family:'HelveticaNeue-Bold'; font-size:16.8546px;">345/86 TRẦN HƯNG ĐẠO P. Cầu Kho Q.1 </tspan><tspan x="32.9" y="25.7" style="fill:#333333; font-family:'HelveticaNeue-Bold'; font-size:16.8546px;">(KHỐI NGÀNH 3D &amp; Talent Team)</tspan></text>
	<rect x="-676.7" y="1399.9" class="st0" width="290.1" height="68.9"/>
	
		<text transform="matrix(1 0 0 1 -595.793 1416.3392)" style="fill:#333333; font-family:'HelveticaNeue-Bold'; font-size:23.0642px;">0932709998</text>
	<rect x="-336.8" y="1399.9" class="st0" width="290.1" height="68.9"/>
	
		<text transform="matrix(1 0 0 1 -262.3286 1416.3392)" style="fill:#333333; font-family:'HelveticaNeue-Bold'; font-size:23.0642px;">0378 277 414 </text>
	<rect x="-336.8" y="1236.9" class="st0" width="290.1" height="68.9"/>
	
		<text transform="matrix(1 0 0 1 -294.3447 1249.5892)" style="fill:#333333; font-family:'HelveticaNeue-Bold'; font-size:17.7417px;">20 PHAN VĂN TRỊ P2 Q5</text>
	<g transform="translate(0,-952.36218)">
		<path class="st8" d="M-512.5,2274c3.4,3.6,5.9,6.9,6.5,10.1c-0.1,7.4-7,16.5-15.4,24.8c-8.3,8.3-17.9,16.4-24.9,15.4
			c-3.3-0.6-6.6-3.1-10.2-6.5c-1.2-1.1-1.2-3.5,0-4.6l7.1-7.1c1.2-1.2,3.6-1.2,5.2-0.4l4.8,3.5c2.5,2.2,7.9-3.2,11.5-6.7
			c3.6-3.6,9-8.4,6.7-11.5l-3.5-4.8c-0.8-1.5-0.8-3.9,0.4-5.1l7.1-7.1C-516,2272.8-513.7,2272.8-512.5,2274L-512.5,2274z"/>
	</g>
	<g transform="translate(0,-952.36218)">
		<path class="st8" d="M-172.6,2274c3.4,3.6,5.9,6.9,6.5,10.1c-0.1,7.4-7,16.5-15.4,24.8c-8.3,8.3-17.9,16.4-24.9,15.4
			c-3.3-0.6-6.6-3.1-10.2-6.5c-1.2-1.1-1.2-3.5,0-4.6l7.1-7.1c1.2-1.2,3.6-1.2,5.2-0.4l4.8,3.5c2.5,2.2,7.9-3.2,11.5-6.7
			c3.6-3.6,9-8.4,6.7-11.5l-3.5-4.8c-0.8-1.5-0.8-3.9,0.4-5.1l7.1-7.1C-176.2,2272.8-173.8,2272.8-172.6,2274L-172.6,2274z"/>
	</g>
	<g>
		<rect x="-806.8" y="3172.1" class="st0" width="968" height="296"/>
		<text transform="matrix(1 0 0 1 -806.8364 3276.5217)"><tspan x="0" y="0" class="st6" style="font-family:'Anton'; font-size:147px;">FROM STU</tspan><tspan x="641.9" y="0" class="st6" style="font-family:'Anton'; font-size:147px;">-</tspan><tspan x="0" y="176.4" class="st6" style="font-family:'Anton'; font-size:147px;">DENTS </tspan></text>
	</g>
	<g>
		<defs>
			<rect id="SVGID_1_" x="-805.5" y="-2288.3" width="547" height="409"/>
		</defs>
		<clipPath id="SVGID_2_">
			<use xlink:href="#SVGID_1_"  style="overflow:visible;"/>
		</clipPath>
	</g>
	<g>
		<defs>
			<rect id="SVGID_3_" x="362.5" y="-2288.3" width="546" height="409"/>
		</defs>
		<clipPath id="SVGID_4_">
			<use xlink:href="#SVGID_3_"  style="overflow:visible;"/>
		</clipPath>
	</g>
	<g>
		<defs>
			<rect id="SVGID_5_" x="-221.5" y="-2288.3" width="546" height="409"/>
		</defs>
		<clipPath id="SVGID_6_">
			<use xlink:href="#SVGID_5_"  style="overflow:visible;"/>
		</clipPath>
	</g>
	<g>
		<defs>
			<rect id="SVGID_7_" x="-802.5" y="-1847.3" width="547" height="409"/>
		</defs>
		<clipPath id="SVGID_8_">
			<use xlink:href="#SVGID_7_"  style="overflow:visible;"/>
		</clipPath>
	</g>
	<g>
		<defs>
			<rect id="SVGID_9_" x="-219.5" y="-1847.3" width="546" height="409"/>
		</defs>
		<clipPath id="SVGID_10_">
			<use xlink:href="#SVGID_9_"  style="overflow:visible;"/>
		</clipPath>
	</g>
	<g>
		<defs>
			<rect id="SVGID_11_" x="362.5" y="-1847.3" width="546" height="409"/>
		</defs>
		<clipPath id="SVGID_12_">
			<use xlink:href="#SVGID_11_"  style="overflow:visible;"/>
		</clipPath>
	</g>
	<rect x="-640.9" y="212.3" class="st0" width="498" height="234"/>
	<text transform="matrix(1 0 0 1 -578.5757 233.0694)"><tspan x="0" y="0" style="fill:#BB8008; font-family:'HelveticaNeue-Bold'; font-size:29px;">Thành thạo kĩ thuật cơ bản</tspan><tspan x="5.9" y="50" style="font-family:'HelveticaNeue-Medium'; font-size:26px;">Cách sử dụng cọ và phân biệt </tspan><tspan x="94.1" y="100" style="font-family:'HelveticaNeue-Medium'; font-size:26px;">các loại giấy vẽ</tspan></text>
	<rect x="-586.5" y="564.4" class="st0" width="389.3" height="234"/>
	<text transform="matrix(1 0 0 1 -564.3516 585.1195)"><tspan x="0" y="0" style="fill:#BB8008; font-family:'HelveticaNeue-Bold'; font-size:29px;">Tự tạo ra tác phẩm riêng</tspan><tspan x="344.9" y="0" style="font-family:'HelveticaNeue'; font-size:29px;"> </tspan><tspan x="-6.7" y="50" style="font-family:'HelveticaNeue-Medium'; font-size:26px;">Dùng trong việc trang trí hoặc </tspan><tspan x="63.1" y="100" style="font-family:'HelveticaNeue-Medium'; font-size:26px;">công việc cá nhân</tspan></text>
	<rect x="-133.4" y="212.3" class="st0" width="401.5" height="234"/>
	<text transform="matrix(1 0 0 1 -81.5161 233.0694)"><tspan x="0" y="0" style="fill:#BB8008; font-family:'HelveticaNeue-Bold'; font-size:29px;">Tự tin với chính mình</tspan><tspan x="11.8" y="50" style="font-family:'HelveticaNeue-Bold'; font-size:26px;">Phác thảo và hình họa </tspan><tspan x="82.5" y="100" style="font-family:'HelveticaNeue-Bold'; font-size:26px;">vững chắc</tspan><tspan x="148.8" y="150" style="font-family:'HelveticaNeue-Medium'; font-size:26px;"> </tspan></text>
	<rect x="-160.9" y="564.4" class="st0" width="456.4" height="234"/>
	<text transform="matrix(1 0 0 1 -113.75 585.1205)"><tspan x="0" y="0" style="fill:#BB8008; font-family:'HelveticaNeue-Bold'; font-size:29px;">Tim được dấu ấn cá nhân</tspan><tspan x="42.8" y="50" style="font-family:'HelveticaNeue-Medium'; font-size:26px;">Phát triển và nhận diện </tspan><tspan x="82.5" y="100" style="font-family:'HelveticaNeue-Medium'; font-size:26px;">được style riêng</tspan></text>
	<rect x="357.3" y="212.3" class="st0" width="332.5" height="234"/>
	<text transform="matrix(1 0 0 1 395.2447 233.0694)"><tspan x="0" y="0" style="fill:#BB8008; font-family:'HelveticaNeue-Bold'; font-size:29px;">Phối màu linh hoạt</tspan><tspan x="-31.5" y="50" style="font-family:'HelveticaNeue-Bold'; font-size:26px;">Không còn phối màu theo </tspan><tspan x="71" y="100" style="font-family:'HelveticaNeue-Bold'; font-size:26px;">bản năng</tspan></text>
	<rect x="361.3" y="564.4" class="st0" width="324.5" height="234"/>
	<text transform="matrix(1 0 0 1 362.0259 585.1195)"><tspan x="0" y="0" style="fill:#BB8008; font-family:'HelveticaNeue-Bold'; font-size:29px;">Nâng cao gout thẩm mĩ</tspan><tspan x="5.2" y="50" style="font-family:'HelveticaNeue-Medium'; font-size:29px;">Đánh giá được các sản </tspan><tspan x="62.5" y="100" style="font-family:'HelveticaNeue-Medium'; font-size:29px;">phẩm hình ảnh</tspan></text>
	<g>
		<path d="M99.4,0c7.8-0.6,14.7,5,15.3,12.9c0.6,7.8-5,14.7-12.9,15.3c-7.9,0.6-14.7-5-15.3-12.9l0,0C85.9,7.7,91.6,0.8,99.4,0z"/>
		<path d="M102.7,33.1c-0.2,0-0.4,0-0.6,0c0,0,0,0,0.2,0C102.5,33.1,102.7,33.1,102.7,33.1z"/>
		<path d="M35.2,28.2c0,0.6-1.6,1-3.6,1c-1.8-0.2-3.6-0.6-5.6-1c1.8-0.4,3.6-0.8,5.6-1C33.6,27.2,35.2,27.6,35.2,28.2z"/>
		<path d="M119,46.9c-0.8-8.3-7.8-14.3-15.9-13.9h-0.2c-0.2,0-0.4,0-0.6,0c-0.2,0-0.4,0-0.6,0h-0.2c-2.8,0.4-5.4,1.6-7.6,3.4
			l-16.5,7.8L44.9,29.2c10.3,0,25.6-1,25.6-1s-20.1-1.2-29.6-1h-0.2l0,0c-1.2,0-2.2,0.2-3.4,0.2c-0.4,0-0.6,0.4-0.6,0.8
			c0,0.4,0.2,0.6,0.6,0.6c1,0.2,1.8,0.2,2.8,0.2c-0.4,1.2-0.6,2.4-0.6,3.6c0,5,3,9.7,7.6,11.9l27,12.9c2,1,4.2,1,6.2,0l7.4-3.4
			l-0.4-4.2c0-0.4,0-1,0-1.4c0-2.6,0.6-5.4,2-7.6l0,0c0-0.2,0.2-0.2,0.4-0.2c0.2,0,0.4,0.2,0.6,0.4v0.2c-1.2,2.2-1.8,4.6-1.8,7.2
			c0,0.4,0,0.8,0,1.4l0.4,3.8l1,12.1l7.4-2.8l-2-22.3l0,0c0-0.2,0.2-0.4,0.4-0.6l0,0c0.2,0,0.4,0.2,0.6,0.4l2,23.1l-8.5,3l-16.5,6
			c-0.4-0.6-1-1.2-1.6-1.8c-3.4-2.6-12.9-2-20.9,1.2c-8.1,3.2-11.9,8.3-8.3,10.9c3.6,2.6,13.9,2.6,20.9-1.2c0.4-0.2,0.8-0.6,0.8-1
			c2.4,3,6.2,4.6,10.1,4.6c1.6,0,3-0.2,4.4-0.8L91.2,80l15.9-5.8c3.2-1.2,5-4.2,4.8-7.6l-1.8-20.7l0,0c0-0.2,0.2-0.4,0.4-0.6l0,0
			c0.2,0,0.4,0.2,0.6,0.4l1.8,20.7c0.4,3.8-1.8,7.2-5.4,8.7l-16.1,5.8l0.2,2.6v2.2c0,4.6,2.2,9.1,5.8,12.1v79.5h9.5
			c5.2,0,9.5-4.2,9.5-9.5l0,0v-70c3.8-2.8,5.8-7.2,5.8-12.1v-2.2L119,46.9z M59.6,70.9c1.4-0.2,2.8,0.2,2.8,1c0,0.8-1,1.6-2.6,1.8
			c-1.6,0.2-2.8-0.2-2.8-1C57,71.9,58,71.1,59.6,70.9z M44.5,78.7c0-0.8,1-1.6,2.6-1.8c1.6-0.2,2.8,0.2,2.8,1s-1,1.6-2.6,1.8
			C45.7,80,44.7,79.6,44.5,78.7L44.5,78.7z M50.7,83.4c-1.4,0.2-2.8-0.2-2.8-1c0-0.8,1-1.6,2.6-1.8c1.6-0.2,2.8,0.2,2.8,1
			C53.3,82.4,52.1,83.2,50.7,83.4L50.7,83.4z M52.5,75.9c-1.4,0.2-2.8-0.2-2.8-1s1-1.6,2.6-1.8c1.6-0.2,2.8,0.2,2.8,1
			C55.2,74.9,53.9,75.9,52.5,75.9L52.5,75.9z M58.2,82.4c-1.4,0.2-2.8-0.2-2.8-1c0-0.8,1-1.6,2.6-1.8c1.6-0.2,2.8,0.2,2.8,1
			C60.8,81.4,59.8,82.2,58.2,82.4L58.2,82.4z M62.2,76.5c0.2,0.4,0.2,0.6,0.4,1c-0.8,0-1.6-0.2-1.6-0.6c0-0.4,0.6-1,1.6-1
			c0.4,0,0.8,0,1.2,0.2L62.2,76.5z M67.6,73.7c-1.4,0.2-2.8-0.2-2.8-1c0-0.8,1-1.6,2.6-1.8c1.6-0.2,2.8,0.2,2.8,1
			C70.2,72.7,69,73.5,67.6,73.7L67.6,73.7z"/>
		<path d="M28.6,86.6L17.5,2.9c-0.2-1,0.6-2.2,1.8-2.2c1-0.2,2.2,0.6,2.2,1.8l11.1,83.9c0.2,1-0.6,2.2-1.8,2.2
			C29.6,88.6,28.8,87.8,28.6,86.6L28.6,86.6z"/>
		<path d="M38.2,175c0.2,1-0.6,2.2-1.8,2.2c-1,0.2-2.2-0.6-2.2-1.8L19.1,60.6L4,175.4c-0.2,1-1.2,1.8-2.2,1.8C0.8,177,0,176,0,175
			L16.9,47.1c0-0.4,0.2-0.6,0.4-0.8L11.5,3.5c-0.2-1,0.6-2.2,1.8-2.2c1-0.2,2.2,0.6,2.2,1.8L38.2,175z"/>
	</g>
	<g>
		<path d="M-348,81.8l-4.6-3.8c-4.7-3.9-7.6-9.6-8.1-15.8h-6.6c0.4,8.1,4.2,15.6,10.4,20.8l4.6,3.8c2.9,2.4,4.6,6,4.6,9.9v61.1
			c0,7.1-5.7,12.8-12.8,12.8h-63c-7.1,0-12.8-5.7-12.8-12.8V96.7c0-3.8,1.7-7.4,4.6-9.9l4.6-3.8c6.2-5.2,10-12.7,10.4-20.8h-6.6
			c-0.4,6.1-3.3,11.8-8.1,15.8l-4.6,3.8c-4.4,3.7-7,9.1-7,14.9v61.1c0,10.7,8.7,19.4,19.4,19.4h63c10.7,0,19.4-8.7,19.4-19.4V96.7
			C-341,91-343.6,85.5-348,81.8z"/>
		<polygon points="-402.7,62.2 -394.7,101.6 -387.5,101.6 -395.5,62.2 		"/>
		<path d="M-350.9,96.7c0-2.8-1.3-5.5-3.4-7.3l-4.6-3.8c-7-5.8-11.2-14.3-11.6-23.3h-21.7l8,39.4h33.3V96.7z"/>
		<path d="M-378.8,137.9l-8.5,2.8c-1.8,5.7-1.6,10,0.4,12.9c2,2.4,5,3.8,8.1,3.9h6.4c-1-1.5-1.5-3.2-1.5-4.9c0-0.1,0-0.3,0-0.4
			C-371.3,142.2-377.1,138.7-378.8,137.9z"/>
		<polygon points="-394,104.9 -387.4,137.3 -380.7,135 -386.8,104.9 		"/>
		<path d="M-413.4,62.2c-0.4,9.1-4.6,17.5-11.6,23.3l-4.6,3.8c-2.2,1.8-3.4,4.5-3.4,7.3v4.9h34.9l-8-39.4H-413.4z"/>
		<path d="M-433,157.8c0,5.3,4.3,9.5,9.5,9.5h63c5.3,0,9.5-4.3,9.5-9.5v-52.9h-32.6l6.1,30c2.6,1.3,9.6,6,6.8,17.7
			c-0.1,2.6,1.9,4.7,4.5,4.8c0.1,0,0.3,0,0.4,0c0.9,0,1.6,0.7,1.6,1.6c0,0.9-0.7,1.6-1.6,1.6h-13.1c-4.2-0.1-8.1-2-10.8-5.2
			c-2.8-3.8-3-9.3-0.8-16.2l-7-34.4H-433V157.8z"/>
		<path d="M-400.2,39.2l-11.8-58c-0.4-1.9-2.2-3.1-4.1-2.7c-0.1,0-0.3,0.1-0.4,0.1c-1.7,0.6-2.7,2.3-2.3,4l11.6,56.6H-400.2z"/>
		<path d="M-424.8,52.4h65.7c0.9,0,1.6,0.7,1.6,1.6v3.3c0,0.9-0.7,1.6-1.6,1.6h-65.7c-0.9,0-1.6-0.7-1.6-1.6V54
			C-426.4,53.1-425.7,52.4-424.8,52.4z"/>
		<path d="M-424.8,42.5h65.7c0.9,0,1.6,0.7,1.6,1.6v3.3c0,0.9-0.7,1.6-1.6,1.6h-65.7c-0.9,0-1.6-0.7-1.6-1.6v-3.3
			C-426.4,43.3-425.7,42.5-424.8,42.5z"/>
	</g>
	<g>
		<path d="M55.4,395.5c-0.7-1.5-1.7-2.9-2.9-4.1c-2.7-2.7-6.3-3.9-10.6-3.6c-1,0.1-1.7,0.9-1.7,1.9c0.1,1,0.9,1.7,1.9,1.7
			c3.3-0.2,5.9,0.7,8,2.6c0.3,0.3,0.7,0.7,0.9,1.1c-20.4-1.5-37.6,7.1-39.3,20.2c-1.8,13.8,17.8,2.1,39.7,4.9
			c21.9,2.9,37.9,19.3,39.7,5.5C92.8,412,76.9,398.6,55.4,395.5z"/>
		<g>
			<path d="M49.5,472.7c19.1,0,34.5-15.5,34.5-34.5c0-1.3-0.1-2.7-0.2-4c-3.1-0.6-6.6-2-10.8-3.8c-6.1-2.6-13.7-5.8-22-6.9
				c-2.2-0.3-4.7-0.4-7.1-0.4c-5.7,0-11.1,0.8-15.9,1.4c-3.8,0.5-7,1-9.8,1h0c-0.2,0-0.5,0-0.7,0c-1.6,3.9-2.4,8.2-2.4,12.7
				C14.9,457.2,30.4,472.7,49.5,472.7z"/>
			<path d="M77.7,469.6c-1.4,1.2-2.9,2.4-4.4,3.5c4.6,9,17.4,31.2,32.7,38.2l-19.9,5c-11.4-6.8-18.1-20.8-21.8-30.8
				c0.9,8.6,3.2,20.9,9.2,27.8l-14.3-2.7c-6.4-9.4-5.3-23.6-4.4-30.5c-1.8,0.2-3.6,0.4-5.4,0.4c-8.8,0-16.9-2.7-23.7-7.2l0,0
				c-0.7-0.5-1.5-1-2.2-1.6c-0.1-0.1-0.3-0.2-0.4-0.3c-0.7-0.5-1.4-1.1-2-1.7c0,0,0,0,0,0c-1.1,0.6-2.2,1.2-3.2,1.9
				c-0.3,0.2-0.6,0.4-0.9,0.5c-1,0.6-2,1.3-2.9,2c-0.3,0.2-0.6,0.4-0.8,0.6c-0.7,0.5-1.3,1-2,1.5c-0.4,0.3-0.9,0.7-1.3,1
				c-0.6,0.5-1.2,1-1.8,1.6c-0.7,0.6-1.3,1.2-1.9,1.9c-0.3,0.3-0.7,0.7-1,1c-8.6,9-14.7,20.6-17.1,33.6c0,0.2-0.1,0.3-0.1,0.5
				c-0.2,1.1-0.4,2.2-0.5,3.3c-0.1,0.5-0.1,1-0.2,1.5c-0.1,0.8-0.2,1.6-0.2,2.5c-0.1,1.4-0.2,2.8-0.2,4.3h38.8h86.1
				C111.7,502.1,97.9,480.3,77.7,469.6z"/>
		</g>
	</g>
	<path d="M555,83.4c-0.2-0.2-0.4-0.4-0.7-0.5l-0.3-0.2c-0.2-0.1-0.4-0.2-0.6-0.3l-0.4-0.1H553c-0.5-0.1-1-0.1-1.5,0h-0.1l-0.4,0.1
		l-0.6,0.3l-0.2,0.1c-0.2,0.2-0.5,0.3-0.7,0.5c-0.1,0.1-0.1,0.1-0.2,0.2c-3.9,3.7-7.4,14.2-7.4,28.1c0,11.4,5.4,42.3,8.7,59.7
		c0.2,0.9,1.1,1.6,2,1.4c0.7-0.1,1.2-0.7,1.4-1.4c3.2-17.4,8.6-48.3,8.6-59.7c0-13.9-3.5-24.5-7.4-28.1L555,83.4z"/>
	<path d="M548.5,74.3c0.6,0.2,1.1,0.4,1.7,0.5l0,0c1.3,0.3,2.7,0.3,4.1,0l0,0c0.6-0.1,1.2-0.3,1.7-0.5c4-1.6,6.6-5.4,6.6-9.6
		c0-4.5-6.6-18.5-10.4-26c-3.7,7.5-10.3,21.5-10.3,26C541.9,69,544.5,72.8,548.5,74.3z"/>
	<path d="M509.2,37.5c-8.8-1.7-18,0.3-25.2,5.6c-15.2,9.5-30.2,32.9-27.4,61.7c1.5,24.1,13.9,46.1,33.8,59.8
		c7.8,5.4,16,8.4,22.6,8.4c1.3,0,2.7-0.1,4-0.4c2.2-0.3,4.2-1.5,5.5-3.3c2.5-3.8,1.3-9.5-0.1-16.2c-0.6-3-1.3-6.1-1.7-9.4
		c-1.6-10.8-1.3-21.8,0.9-32.4l0,0c0.6-4.6,1.6-9.3,2.6-14.3c3.3-16.5,6.7-33.6-1.6-50.3C519.4,41.9,514.6,38.6,509.2,37.5z
		 M498.7,59.4c-3.1,0-5.7-2.5-5.7-5.7c0-3.1,2.5-5.7,5.7-5.7c3.1,0,5.7,2.5,5.7,5.7c0,0,0,0.1,0,0.1C504.3,57,501.8,59.4,498.7,59.4
		z M481.8,104.8c0,3.1-2.5,5.7-5.7,5.7c-3.1,0-5.7-2.5-5.7-5.7c0-3.1,2.5-5.7,5.7-5.7l0,0C479.3,99.1,481.8,101.6,481.8,104.8z
		 M481.8,79.1c-3.1,0-5.7-2.5-5.7-5.7s2.5-5.7,5.7-5.7c3.1,0,5.7,2.5,5.7,5.7l0,0C487.5,76.6,484.9,79.1,481.8,79.1z M486.1,129.4
		c3.1,0,5.7,2.5,5.7,5.7c0,3.1-2.5,5.7-5.7,5.7c-3.1,0-5.7-2.5-5.7-5.7C480.4,131.9,482.9,129.4,486.1,129.4L486.1,129.4z
		 M504,148.2c3.1,0,5.6,2.6,5.6,5.7c0,3.1-2.6,5.6-5.7,5.6c-3.1,0-5.6-2.6-5.6-5.7C498.3,150.7,500.8,148.2,504,148.2L504,148.2z
		 M505.9,107c-4.8,0-8.9-6.6-8.9-14.4c0-7.8,4.1-14.4,8.9-14.4s8.9,6.6,8.9,14.4C514.7,100.4,510.7,107,505.9,107z"/>
	<g>
		<path d="M-423.8,396.6v19.4h12.8c7.7,0,14,6.3,14,14v10.3c0,2.7,2.2,4.9,4.9,4.9s4.9-2.2,4.9-4.9v-17c0-4,3.3-7.3,7.3-7.3
			c4,0,7.3,3.3,7.3,7.3v5.7c0,2.7,2.2,4.9,4.9,4.9c2.7,0,4.9-2.2,4.9-4.9v-10.5c0-1.3,1.1-2.4,2.4-2.4h9.7v-19.4H-423.8z"/>
		<path d="M-358.2,429c0,5.4-4.4,9.7-9.7,9.7c-5.4,0-9.7-4.4-9.7-9.7v-5.7c0-1.3-1.1-2.4-2.4-2.4c-1.3,0-2.4,1.1-2.4,2.4v17
			c0,5.4-4.4,9.7-9.7,9.7c-5.4,0-9.7-4.4-9.7-9.7v-10.3c0-5-4.1-9.1-9.1-9.1l0,0h-12.8v31.6h72.9v-31.6h-7.3V429z"/>
		<path d="M-423.8,472.8c0,0.5,0,0.9,0,1.4c0,0.6,0.1,1.2,0.3,1.8c0,0.2,0,0.3,0,0.5c0,0,0,0,0,0.1c0,0.1,0,0,0,0h72.1l0,0
			c0,0,0,0,0-0.1c0-0.2,0-0.3,0-0.5c0.1-0.6,0.2-1.2,0.3-1.8c0-0.5,0-0.9,0-1.4v-15.4h-72.7V472.8z"/>
		<path d="M-420.4,482.7c0.2,0.2,0.3,0.4,0.5,0.6c0.2,0.3,0.4,0.5,0.7,0.7c0.7,0.7,1.4,1.3,2.1,1.8c0.1,0.1,0.1,0.1,0.2,0.1
			c0.2,0.2,0.5,0.3,0.8,0.5c0.6,0.4,1.1,0.7,1.7,0.9l0.9,0.4l1,0.3l0.6,0.2l1.1,0.3h0.2l1.2,0.2h0.4c0.5,0,1,0,1.4,0
			c6.6,0,11.8,5.3,11.8,11.9c0,0.5,0,1.1-0.1,1.6l-3.6,26c-1,6.8,3.7,13,10.5,14c6.8,1,13-3.7,14-10.5c0.2-1.1,0.2-2.3,0-3.5
			l-3.7-25.9c-0.9-6.5,3.6-12.5,10.1-13.4c0.5-0.1,1.1-0.1,1.6-0.1c0.5,0,1,0,1.4,0h0.4l1.2-0.2h0.2l1.1-0.3l0.6-0.2l1-0.3l0.9-0.4
			c0.6-0.3,1.2-0.6,1.7-0.9c0.3-0.1,0.5-0.3,0.8-0.5c0.1,0,0.1-0.1,0.2-0.1c0.8-0.6,1.5-1.2,2.1-1.8c0.2-0.2,0.5-0.5,0.7-0.7
			c0.2-0.2,0.4-0.4,0.5-0.6c0.2-0.3,0.5-0.6,0.7-1h-67.6C-420.9,482-420.7,482.4-420.4,482.7z"/>
	</g>
	<g>
		<g>
			<path d="M492.8,512.2l-9.5,26c-0.2,0.7-0.1,1.4,0.3,2c0.4,0.6,1.1,1,1.8,1h8.9c0.9,0,1.8-0.6,2.1-1.5l10-27.5H492.8z"/>
			<path d="M537.3,407.4l-1.2-7.1c-0.2-1.1-1.1-1.9-2.2-1.9H525c-1.1,0-2,0.8-2.2,1.9l-1.2,7.1H537.3z"/>
			<path d="M566.1,512.2h-13.7l10,27.5c0.3,0.9,1.2,1.5,2.1,1.5h8.9c0.7,0,1.4-0.4,1.8-1c0.4-0.6,0.5-1.4,0.3-2L566.1,512.2z"/>
			<path d="M523.3,512.2l1.7,22.5c0.1,1.2,1.1,2.1,2.2,2.1h4.5c1.2,0,2.1-0.9,2.2-2.1l1.7-22.5H523.3z"/>
			<path d="M583,494.4H475.9c-1.2,0-2.2,1-2.2,2.2v8.9c0,1.2,1,2.2,2.2,2.2H583c1.2,0,2.2-1,2.2-2.2v-8.9
				C585.2,495.4,584.2,494.4,583,494.4z"/>
		</g>
		<g>
			<g>
				<polygon points="509,411.9 500.8,411.9 502.3,420 507.5,420 				"/>
				<polygon points="558.1,411.9 549.8,411.9 551.4,420 556.6,420 				"/>
				<path d="M529.4,429.7c1.2,0,2.2,1,2.2,2.2c0,1.2-1,2.2-2.2,2.2c-1.2,0-2.2-1-2.2-2.2C527.2,430.7,528.2,429.7,529.4,429.7z"/>
				<path d="M487.1,465.4v-53.5h-6.7c-1.2,0-2.2,1-2.2,2.2v73.6c0,1.2,1,2.2,2.2,2.2h6.7V465.4z"/>
				<path d="M531.5,444.8c0.9-1.1,2.1-1.7,3.5-1.7h11l5.4-9c0.8-1.3,2.3-2.2,3.8-2.2h12.1v-20.1h-4.7l-2,10.8
					c-0.2,1.1-1.1,1.8-2.2,1.8h-8.9c-1.1,0-2-0.8-2.2-1.8l-2-10.8h-31.7l-2,10.8c-0.2,1.1-1.1,1.8-2.2,1.8h-8.9
					c-1.1,0-2-0.8-2.2-1.8l-2-10.8h-4.7v51.3h25.7L531.5,444.8z M529.4,425.3c3.7,0,6.7,3,6.7,6.7c0,3.7-3,6.7-6.7,6.7
					c-3.7,0-6.7-3-6.7-6.7C522.7,428.3,525.8,425.3,529.4,425.3z M512.7,438.6c-0.6,0-1.1,0.5-1.1,1.1v1.1c0,1.2-1,2.2-2.2,2.2
					h-11.2v-4.5h9c0.5-2.5,2.8-4.5,5.5-4.5c3.1,0,5.6,2.5,5.6,5.6v3.3h-4.5v-3.3C513.8,439.1,513.3,438.6,512.7,438.6z"/>
				<path d="M578.5,411.9h-6.7v22.3v55.8h6.7c1.2,0,2.2-1,2.2-2.2v-73.6C580.7,412.9,579.7,411.9,578.5,411.9z"/>
				<path d="M545.1,472.1c0-1.2,1-2.2,2.2-2.2h2.2V452h4.5v17.8h1.2l2.4-13.8l4.4,0.8l-2.3,13h1c1.2,0,2.2,1,2.2,2.2v17.8h4.5v-53.5
					h-12.1l-6,10.1c-0.4,0.7-1.1,1.1-1.9,1.1H535L520,466.8c-0.4,0.5-1.1,0.9-1.8,0.9h-26.8v22.3h4.5c0-9.8,8-17.8,17.8-17.8h4.5
					c9.8,0,17.8,8,17.8,17.8h8.9V472.1z M533.9,465.4v-4.5h8.9v4.5H533.9z"/>
				<rect x="549.5" y="474.3" width="8.9" height="15.6"/>
			</g>
			<path d="M518.3,476.6h-4.5c-7.4,0-13.4,6-13.4,13.4h31.2C531.7,482.6,525.7,476.6,518.3,476.6z M509.4,487.7h-4.5v-4.5h4.5V487.7
				z M518.3,483.2h-4.5v-4.5h4.5V483.2z M527.2,487.7h-4.5v-4.5h4.5V487.7z"/>
		</g>
	</g>
</g>
<g id="Layer_7">
	<rect x="-745.7" y="-7649" class="st0" width="864.3" height="96.7"/>
	<text transform="matrix(1 0 0 1 -745.6572 -7595.7534)" style="fill:#B38005; font-family:'Anton'; font-size:75px;">KODA WATERCOLOR </text>
</g>
<g id="Layer_8">
	<g>
		<defs>
			<rect id="SVGID_13_" x="-910.5" y="-9954.3" width="1920" height="1080"/>
		</defs>
		<clipPath id="SVGID_14_">
			<use xlink:href="#SVGID_13_"  style="overflow:visible;"/>
		</clipPath>
	</g>
</g>
<g id="Layer_9">
</g>
<g id="Layer_10">
</g>
</svg>
