<?xml version="1.0" encoding="utf-8"?>
<!-- Generator: Adobe Illustrator 24.3.0, SVG Export Plug-In . SVG Version: 6.00 Build 0)  -->
<svg version="1.1" xmlns="http://www.w3.org/2000/svg" xmlns:xlink="http://www.w3.org/1999/xlink" x="0px" y="0px" width="111.5px"
	 height="142.8px" viewBox="0 0 111.5 142.8" style="enable-background:new 0 0 111.5 142.8;" xml:space="preserve">
<style type="text/css">
	.st0{fill:none;}
	.st1{fill:#EB7E29;}
	.st2{fill:#FF6400;}
	.st3{fill:#CD8024;}
	.st4{fill:#C18007;}
	.st5{fill:#FFA345;}
	.st6{fill:#FF8031;}
	.st7{fill:#E88038;}
	.st8{fill:#FF801E;}
	.st9{fill:#BB8008;}
	.st10{font-family:'HelveticaNeue-Bold';}
	.st11{font-size:29px;}
	.st12{font-size:26px;}
</style>
<g id="Layer_2">
</g>
<g id="Layer_1">
	<rect x="-1384.2" y="-8192.7" class="st0" width="1920" height="1080"/>
	<rect x="-1384.2" y="-7111.7" class="st0" width="1920" height="1080"/>
	<rect x="-1384.2" y="-9272.7" class="st0" width="1920" height="1080"/>
	<rect x="-1384.2" y="-10352.7" class="st0" width="1920" height="1080"/>
	<rect x="-1384.2" y="-4952.7" class="st0" width="1920" height="1080"/>
	<rect x="-1384.2" y="-3872.7" class="st0" width="1920" height="1080"/>
	<rect x="-1384.2" y="-2792.7" class="st0" width="1920" height="1080"/>
	<rect x="-1384.2" y="-1712.7" class="st0" width="1920" height="1080"/>
	<rect x="-1384.2" y="-632.7" class="st0" width="1920" height="1080"/>
	<rect x="-1384.2" y="447.3" class="st0" width="1920" height="1080"/>
	<rect x="-1384.2" y="1527.3" class="st0" width="1920" height="1080"/>
	<rect x="-1384.2" y="2607.3" class="st0" width="1920" height="1080"/>
	<rect x="-1384.2" y="3687.3" class="st0" width="1920" height="1080"/>
</g>
<g id="Layer_3">
	<rect x="-585.4" y="-8691.2" class="st0" width="1076.2" height="75"/>
	<text transform="matrix(1 0 0 1 -585.4399 -8649.25)" class="st10" style="fill:#004068; font-size:58.7032px;">Upgrade Program 2024</text>
	<text transform="matrix(1 0 0 1 -585.4399 -8870.793)"><tspan x="0" y="0" style="fill:#BC4C25; font-family:'Anton'; font-size:97.8386px;">KHAI GIẢNG KHÓA </tspan><tspan x="0" y="135.9" style="fill:#BC4C25; font-family:'Anton'; font-size:97.8386px;">KODA WATERCOLOR CLASS </tspan></text>
</g>
<g id="Layer_6">
</g>
<g id="Layer_4">
</g>
<g id="Layer_5">
	<rect x="-1384.2" y="-5939.7" class="st1" width="723.4" height="126.1"/>
	<rect x="-1384.2" y="-3738.7" class="st2" width="1076" height="116"/>
	<rect x="-589.2" y="-8598.7" class="st3" width="1014" height="43"/>
	<rect x="-589.2" y="-8540.7" class="st3" width="331" height="44"/>
	<text transform="matrix(1 0 0 1 -582.4394 -8564.3389)"><tspan x="0" y="0" style="fill:#FFFFFF; font-family:'MyriadPro-Bold'; font-size:33.7px;">CHƯƠNG TRÌNH HỌC CẬP NHẬT LIÊN TỤC ĐỔI MỚI KHÔNG NGỪNG </tspan><tspan x="0" y="57.6" style="fill:#FFFFFF; font-family:'MyriadPro-Bold'; font-size:33.7px;">THEO QUÝ MỖI NĂM</tspan></text>
	<g>
		<text transform="matrix(1 0 0 1 -1170.7241 -3651.292)" style="fill:#FFFFFF; font-family:'Anton'; font-size:64.8602px;">NỘI DUNG CHƯƠNG TRÌNH KHÓA HỌC</text>
	</g>
	<rect x="-1155.6" y="-1334.7" class="st0" width="554.5" height="95.1"/>
	<text transform="matrix(1 0 0 1 -1155.6055 -1314.7217)"><tspan x="0" y="0" style="fill:#333333; font-family:'HelveticaNeue-Medium'; font-size:27.9885px;">Lớp Sáng:</tspan><tspan x="134.3" y="0" style="fill:#333333; font-family:'HelveticaNeue-Medium'; font-size:26.1828px;"> Thứ 6: 9h-10h30 sáng </tspan><tspan x="0" y="33.6" style="fill:#333333; font-family:'HelveticaNeue-Medium'; font-size:27.9885px;">Lớp Sáng:</tspan><tspan x="134.3" y="33.6" style="fill:#333333; font-family:'HelveticaNeue-Medium'; font-size:26.1828px;"> Thứ 7: 9h-10h30 sáng </tspan><tspan x="0" y="67.2" style="fill:#333333; font-family:'HelveticaNeue-Medium'; font-size:27.9885px;">Lớp Sáng:</tspan><tspan x="134.3" y="67.2" style="fill:#333333; font-family:'HelveticaNeue-Medium'; font-size:26.1828px;"> Thứ chủ nhật: 9h-10h30 sáng</tspan></text>
	<rect x="-1155.6" y="-1197.8" class="st0" width="581.5" height="95.1"/>
	<text transform="matrix(1 0 0 1 -1155.6055 -1177.8096)"><tspan x="0" y="0" style="fill:#333333; font-family:'HelveticaNeue-Medium'; font-size:27.9885px;">Các em chọn 1 trong 3 hoặc 2 trong 3 buổi </tspan><tspan x="0" y="33.6" style="fill:#333333; font-family:'HelveticaNeue-Medium'; font-size:27.9885px;">Tùy theo lịch cá nhân</tspan></text>
	<rect x="-358.3" y="-6771.1" class="st0" width="728.8" height="222.4"/>
	<text transform="matrix(1 0 0 1 -308.5811 -6739.5859)"><tspan x="0" y="0" style="font-family:'HelveticaNeue-Medium'; font-size:44.1859px;">Theo sát từng học viên trong quá </tspan><tspan x="200.6" y="74.4" style="font-family:'HelveticaNeue-Medium'; font-size:44.1859px;">trình học và hướng dẫn </tspan><tspan x="404" y="148.8" style="font-family:'HelveticaNeue-Medium'; font-size:44.1859px;">bài vở về nhà </tspan></text>
	<g>
		<rect x="-438.8" y="-6908.6" class="st0" width="822.6" height="152.5"/>
		<text transform="matrix(1 0 0 1 -357.9795 -6842.5605)" style="fill:#BC4C25; font-family:'Anton'; font-size:93.0229px;">HƯỚNG DẪN TRỰC </text>
	</g>
	<g>
		<rect x="-1164.2" y="-1536.1" class="st0" width="494.1" height="142.1"/>
		<text transform="matrix(1 0 0 1 -1164.1855 -1477.7939)" style="fill:#C83443; font-family:'Anton'; font-size:82.1598px;">Thời gian học </text>
	</g>
	<g>
		<rect x="-1242.6" y="-5914.6" class="st0" width="789.8" height="102.3"/>
		<text transform="matrix(1 0 0 1 -1242.5957 -5849.9653)" style="fill:#FFFFFF; font-family:'Anton'; font-size:91px;">FROM STUDENTS</text>
	</g>
	<g>
		<rect x="-1124" y="-4090.8" class="st0" width="716" height="211.8"/>
		<text transform="matrix(1 0 0 1 -1123.9941 -4005.6426)"><tspan x="0" y="0" style="fill:#C3B397; font-family:'Anton'; font-size:120px;">FROM STU</tspan><tspan x="524" y="0" style="fill:#C3B397; font-family:'Anton'; font-size:120px;">-</tspan></text>
	</g>
	<g>
		<rect x="-1171.8" y="602" class="st0" width="325.2" height="120.1"/>
		<text transform="matrix(1 0 0 1 -1171.8481 664.4013)" class="st6" style="font-family:'Anton'; font-size:87.8215px;">ĐỊA </text>
	</g>
	
		<image style="overflow:visible;" width="1143" height="480" xlink:href="../../../../Downloads/pTS (16a).jpg"  transform="matrix(1.6772 0 0 1.6772 -1382.8396 3824.7273)">
	</image>
	<rect x="-1164.1" y="1077.8" class="st0" width="627.6" height="45.6"/>
	<text transform="matrix(1 0 0 1 -1164.0693 1097.4258)" class="st10" style="fill:#333333; font-size:27.4997px;">2 chi nhánh cách nhau 30s đi xe máy</text>
	<path class="st4" d="M372.1-6393c0,4.9-4,8.9-8.9,8.9h-267c-4.9,0-8.9-4-8.9-8.9v-76.3c0-4.9,4-8.9,8.9-8.9h267
		c4.9,0,8.9,4,8.9,8.9V-6393z"/>
	<rect x="25" y="-6454.5" class="st0" width="404.8" height="86"/>
	<text transform="matrix(1 0 0 1 119.2188 -6409.6426)" class="st10" style="fill:#FFFFFF; font-size:62.7905px;">Liên hệ</text>
	<path class="st5" d="M-940.2-799.7c0,3.8-3.1,6.9-6.9,6.9h-207.3c-3.8,0-6.9-3.1-6.9-6.9v-59.2c0-3.8,3.1-6.9,6.9-6.9h207.3
		c3.8,0,6.9,3.1,6.9,6.9V-799.7z"/>
	<rect x="-1209.7" y="-847.4" class="st0" width="314.3" height="66.8"/>
	<text transform="matrix(1 0 0 1 -1136.5356 -812.5606)" class="st10" style="fill:#FFFFFF; font-size:48.7542px;">Liên hệ</text>
	<rect x="-1384.2" y="-1256.8" class="st6" width="69.5" height="1226.7"/>
	<rect x="-1384.2" y="1189.3" class="st6" width="146" height="172.6"/>
	<rect x="427.8" y="508.4" class="st6" width="108" height="957.2"/>
	<rect x="-1213.7" y="-7932.9" class="st0" width="774.6" height="94.5"/>
	<text transform="matrix(1 0 0 1 -1213.7158 -7912.8999)"><tspan x="0" y="0" class="st10" style="fill:#333333; font-size:28px;">Khám phá những bí ẩn kỳ thú của nghệ thuật tranh màu </tspan><tspan x="0" y="41" class="st10" style="fill:#333333; font-size:28px;">nước đương đại cùng HANNA’S FAMILY nhé</tspan></text>
	<rect x="-1213.7" y="-7797.9" class="st0" width="774.6" height="578.1"/>
	<text transform="matrix(1 0 0 1 -1213.7158 -7777.9067)"><tspan x="0" y="0" class="st10" style="fill:#333333; font-size:28px;">Đây là lớp học vẽ tranh màu nước hiện đại mà bên</tspan><tspan x="0" y="41" class="st10" style="fill:#333333; font-size:28px;">HANNA&apos;S FAMILY đã ấp ủ từ lâu. Lớp học được mở ra </tspan><tspan x="0" y="82" class="st10" style="fill:#333333; font-size:28px;">với mục đích mang tới các bạn trẻ kiến thức đầy đủ và </tspan><tspan x="0" y="123" class="st10" style="fill:#333333; font-size:28px;">hiện đại nhất về lý thuyết của màu nước, màu sắc, cách </tspan><tspan x="0" y="164" class="st10" style="fill:#333333; font-size:28px;">phối màu, chọn cọ, giấy vẽ.. đến kỹ thuật vẽ, kiểm soát </tspan><tspan x="0" y="205" class="st10" style="fill:#333333; font-size:28px;">lượng nước, vẽ phác thảo… </tspan><tspan x="0" y="287" class="st10" style="fill:#333333; font-size:28px;">Sau khoá học, các bạn học viên sẽ có đủ khả năng để </tspan><tspan x="0" y="328" class="st10" style="fill:#333333; font-size:28px;">sáng tác những tác phẩm màu nước theo sở thích </tspan><tspan x="0" y="369" class="st10" style="fill:#333333; font-size:28px;">của mình.</tspan></text>
	<polygon class="st0" points="-368.1,-7256.8 -1220.2,-7256.8 -1222.2,-7292.8 -370.1,-7292.8 	"/>
	<text transform="matrix(1 0 0 1 -1220.8042 -7267.2134)" style="fill:#4D4D4D; font-family:'MyriadPro-Bold'; font-size:36px;">Không gian lớp học</text>
	<g>
		<rect x="-1159.5" y="-1415.7" class="st0" width="548.9" height="56"/>
		<text transform="matrix(1 0 0 1 -1159.4819 -1381.7344)" class="st6" style="font-family:'Anton'; font-size:47.8513px;">LỚP TRỰC TIẾP</text>
	</g>
	<g>
		<rect x="-1161.4" y="-1099.7" class="st0" width="297.9" height="72.2"/>
		<text transform="matrix(1 0 0 1 -1161.4204 -1065.7402)" class="st6" style="font-family:'Anton'; font-size:47.8513px;">LỚP ONLINE</text>
	</g>
	<rect x="-1157.5" y="-1091.1" class="st0" width="523.4" height="204.9"/>
	<text transform="matrix(1 0 0 1 -1157.5438 -1015.2374)"><tspan x="0" y="0" style="fill:#333333; font-family:'HelveticaNeue-Medium'; font-size:24.3771px;">Lớp học online từ xa dành cho các bạn trong </tspan><tspan x="0" y="29.3" style="fill:#333333; font-family:'HelveticaNeue-Medium'; font-size:24.3771px;">&amp; ngoài nước</tspan><tspan x="0" y="87.8" style="fill:#333333; font-family:'HelveticaNeue-Medium'; font-size:24.3771px;">Đặc biệt là các bạn đang du học hoặc đang </tspan><tspan x="0" y="117" style="fill:#333333; font-family:'HelveticaNeue-Medium'; font-size:24.3771px;">làm việc ở nước ngoài</tspan></text>
	<g>
		<rect x="-1261.2" y="-688.8" class="st0" width="1624" height="143.2"/>
		<text transform="matrix(1 0 0 1 -923.75 -634.1127)" class="st6" style="font-family:'Anton'; font-size:77px;">KODA WATERCOLOR COURSE  </text>
	</g>
	<rect x="-1013.1" y="-3517.2" class="st0" width="664.3" height="113.2"/>
	<text transform="matrix(1 0 0 1 -1013.081 -3492.897)" style="font-family:'UTM-Avo'; font-size:34.1658px;">PREPARATION OF WATERCOLORS</text>
	<rect x="-1013.1" y="-3398.1" class="st0" width="664.3" height="113.2"/>
	<text transform="matrix(1 0 0 1 -1013.081 -3373.8252)" style="font-family:'UTM-Avo'; font-size:34.1658px;">FROM IDEA TO PAPER</text>
	<rect x="-1013.1" y="-3279" class="st0" width="664.3" height="41.7"/>
	<text transform="matrix(1 0 0 1 -1013.081 -3254.7524)" style="font-family:'UTM-Avo'; font-size:34.1658px;">TECHNIQUE WCL &amp; BRUSH STROKES</text>
	<rect x="-1013.1" y="-3160.9" class="st0" width="664.3" height="113.2"/>
	<text transform="matrix(1 0 0 1 -1013.081 -3136.6841)" style="font-family:'UTM-Avo'; font-size:34.1658px;">KNOW YOUR OWN IDEAS</text>
	<rect x="-1013.1" y="-3039.9" class="st0" width="664.3" height="113.2"/>
	<text transform="matrix(1 0 0 1 -1013.081 -3015.6411)" style="font-family:'UTM-Avo'; font-size:34.1658px;">THE BODY - BASIC</text>
	<rect x="-1122.2" y="-3423.7" class="st7" width="66" height="66"/>
	<rect x="-1114.1" y="-3413" class="st0" width="61.6" height="60.6"/>
	<text transform="matrix(1 0 0 1 -1114.1353 -3376.624)" style="fill:#FFFFFF; font-family:'Anton'; font-size:51.2488px;">U2</text>
	<rect x="-1124.2" y="-3542.7" class="st7" width="67" height="66"/>
	<rect x="-1112.9" y="-3532.1" class="st0" width="61.6" height="60.6"/>
	<text transform="matrix(1 0 0 1 -1112.9141 -3495.6968)" style="fill:#FFFFFF; font-family:'Anton'; font-size:51.2488px;">U1</text>
	<rect x="-1122.2" y="-3304.7" class="st7" width="66" height="66"/>
	<rect x="-1114.1" y="-3293.9" class="st0" width="61.6" height="60.6"/>
	<text transform="matrix(1 0 0 1 -1114.1353 -3257.5527)" style="fill:#FFFFFF; font-family:'Anton'; font-size:51.2488px;">U3</text>
	<rect x="-1123.2" y="-3185.7" class="st7" width="67" height="66"/>
	<rect x="-1113.7" y="-3174.9" class="st0" width="61.6" height="60.6"/>
	<text transform="matrix(1 0 0 1 -1113.728 -3138.4805)" style="fill:#FFFFFF; font-family:'Anton'; font-size:51.2488px;">U4</text>
	<rect x="-1122.2" y="-3066.7" class="st7" width="66" height="65"/>
	<rect x="-1114.1" y="-3055.4" class="st0" width="61.6" height="60.6"/>
	<text transform="matrix(1 0 0 1 -1114.1353 -3019.001)" style="fill:#FFFFFF; font-family:'Anton'; font-size:51.2488px;">U5</text>
	<rect x="-232.1" y="-3518.6" class="st0" width="530.8" height="113.2"/>
	<text transform="matrix(1 0 0 1 -232.1474 -3494.3501)" style="font-family:'UTM-Avo'; font-size:34.1658px;">THE CIRCLE OF COLORS</text>
	<rect x="-232.1" y="-3399.2" class="st0" width="664.3" height="113.2"/>
	<text transform="matrix(1 0 0 1 -232.1474 -3374.9731)" style="font-family:'UTM-Avo'; font-size:34.1658px;">PAINTING OUR ELEMENTS</text>
	<rect x="-232.1" y="-3277.8" class="st0" width="664.3" height="41.7"/>
	<text transform="matrix(1 0 0 1 -232.1474 -3253.5532)" style="font-family:'UTM-Avo'; font-size:34.1658px;">PROJECTS</text>
	<rect x="-232.1" y="-3176.5" class="st0" width="664.3" height="113.2"/>
	<text transform="matrix(1 0 0 1 -232.1474 -3158.6367)"><tspan x="0" y="0" style="font-family:'UTM-Avo'; font-size:25.2176px;">Bạn vui lòng liên hệ để có </tspan><tspan x="0" y="30.3" style="font-family:'UTM-Avo'; font-size:25.2176px;">chương trình học chi tiết và cụ thể</tspan></text>
	<rect x="-339.2" y="-3421.7" class="st7" width="66" height="65"/>
	<rect x="-330.8" y="-3411.4" class="st0" width="61.6" height="60.6"/>
	<text transform="matrix(1 0 0 1 -330.7617 -3374.9976)" style="fill:#FFFFFF; font-family:'Anton'; font-size:51.2488px;">U7</text>
	<rect x="-340.2" y="-3540.7" class="st7" width="66" height="65"/>
	<rect x="-331.5" y="-3530.5" class="st0" width="61.6" height="60.6"/>
	<text transform="matrix(1 0 0 1 -331.5412 -3494.0698)" style="fill:#FFFFFF; font-family:'Anton'; font-size:51.2488px;">U6</text>
	<rect x="-339.2" y="-3302.7" class="st7" width="66" height="65"/>
	<rect x="-330.8" y="-3292.3" class="st0" width="61.6" height="60.6"/>
	<text transform="matrix(1 0 0 1 -330.7617 -3255.9258)" style="fill:#FFFFFF; font-family:'Anton'; font-size:51.2488px;">U8</text>
	<rect x="-339.2" y="-3183.7" class="st7" width="66" height="65"/>
	<rect x="-330.4" y="-3173.2" class="st0" width="61.6" height="60.6"/>
	<text transform="matrix(1 0 0 1 -330.3535 -3136.8535)" style="fill:#FFFFFF; font-family:'Anton'; font-size:51.2488px;">U9</text>
	<rect x="-1164.1" y="1120.1" class="st0" width="650.5" height="255.3"/>
	<text transform="matrix(1 0 0 1 -1164.0693 1132.7842)"><tspan x="0" y="0" class="st10" style="fill:#333333; font-size:17.7417px;">Lưu ý: vì số lượng mỗi lớp hạn chế nên các bạn nhanh tay </tspan><tspan x="0" y="25.7" class="st10" style="fill:#333333; font-size:17.7417px;">đăng kí sớm và đóng học phí để mình giữ chỗ và xếp lớp.</tspan><tspan x="0" y="77.2" class="st10" style="fill:#333333; font-size:17.7417px;">Đăng kí trong 72h- Giảm 5% học phí</tspan><tspan x="0" y="102.9" class="st10" style="fill:#333333; font-size:17.7417px;">Học phí: các bạn vui lòng inbox và sẽ cung cấp số TK </tspan><tspan x="0" y="154.4" class="st10" style="fill:#333333; font-size:17.7417px;">p/s: Về bài học số 5 và bài số 6 trong chương trình học, </tspan><tspan x="0" y="180.1" class="st10" style="fill:#333333; font-size:17.7417px;">các bạn sẽ biết cách làm đẹp hình ảnh của chính </tspan><tspan x="0" y="205.8" class="st10" style="fill:#333333; font-size:17.7417px;">các bạn khi post lên Facebook</tspan></text>
	<g>
		<path class="st8" d="M-1005.4,757.1c-12.3,0-22.3,9.5-22.3,21.2c0,3.3,0.8,6.6,2.4,9.6l0,0c6.2,10.5,13.3,21.1,20,31.6
			c6.2-10.7,13.8-20.7,19.8-31.6c1.6-3,2.4-6.3,2.4-9.6C-983.1,766.6-993,757.1-1005.4,757.1L-1005.4,757.1L-1005.4,757.1z
			 M-1005.4,766c6.5,0,11.8,5.3,11.8,11.8v0c0,6.5-5.3,11.8-11.8,11.8c0,0,0,0,0,0c-6.5,0-11.8-5.3-11.8-11.8
			C-1017.1,771.3-1011.8,766-1005.4,766L-1005.4,766z"/>
	</g>
	<g>
		<path class="st8" d="M-665.5,753.2c-12.3,0-22.3,9.5-22.3,21.2c0,3.3,0.8,6.6,2.4,9.6l0,0c6.2,10.5,13.3,21.1,20,31.6
			c6.2-10.7,13.8-20.7,19.8-31.6c1.6-3,2.4-6.3,2.4-9.6C-643.2,762.7-653.2,753.2-665.5,753.2L-665.5,753.2L-665.5,753.2z
			 M-665.5,762.1c6.5,0,11.8,5.3,11.8,11.8v0c0,6.5-5.3,11.8-11.8,11.8c0,0,0,0,0,0c-6.5,0-11.8-5.3-11.8-11.8
			C-677.2,767.4-672,762.1-665.5,762.1L-665.5,762.1z"/>
	</g>
	<rect x="-1180.1" y="842.3" class="st0" width="349.5" height="68.9"/>
	<text transform="matrix(1 0 0 1 -1171.3691 854.3378)"><tspan x="0" y="0" class="st10" style="fill:#333333; font-size:16.8546px;">345/86 TRẦN HƯNG ĐẠO P. Cầu Kho Q.1 </tspan><tspan x="32.9" y="25.7" class="st10" style="fill:#333333; font-size:16.8546px;">(KHỐI NGÀNH 3D &amp; Talent Team)</tspan></text>
	<rect x="-1150.4" y="1001.4" class="st0" width="290.1" height="68.9"/>
	<text transform="matrix(1 0 0 1 -1069.4707 1017.8535)" class="st10" style="fill:#333333; font-size:23.0642px;">0932709998</text>
	<rect x="-810.5" y="1001.4" class="st0" width="290.1" height="68.9"/>
	<text transform="matrix(1 0 0 1 -736.0063 1017.8535)" class="st10" style="fill:#333333; font-size:23.0642px;">0378 277 414 </text>
	<rect x="-810.5" y="838.4" class="st0" width="290.1" height="68.9"/>
	<text transform="matrix(1 0 0 1 -768.0224 851.1035)" class="st10" style="fill:#333333; font-size:17.7417px;">20 PHAN VĂN TRỊ P2 Q5</text>
	<g transform="translate(0,-952.36218)">
		<path class="st8" d="M-986.2,1875.5c3.4,3.6,5.9,6.9,6.5,10.1c-0.1,7.4-7,16.5-15.4,24.8c-8.3,8.3-17.9,16.4-24.9,15.4
			c-3.3-0.6-6.6-3.1-10.2-6.5c-1.2-1.1-1.2-3.5,0-4.6l7.1-7.1c1.2-1.2,3.6-1.2,5.2-0.4l4.8,3.5c2.5,2.2,7.9-3.2,11.5-6.7
			c3.6-3.6,9-8.4,6.7-11.5l-3.5-4.8c-0.8-1.5-0.8-3.9,0.4-5.1l7.1-7.1C-989.7,1874.3-987.3,1874.3-986.2,1875.5L-986.2,1875.5z"/>
	</g>
	<g transform="translate(0,-952.36218)">
		<path class="st8" d="M-646.3,1875.5c3.4,3.6,5.9,6.9,6.5,10.1c-0.1,7.4-7,16.5-15.4,24.8c-8.3,8.3-17.9,16.4-24.9,15.4
			c-3.3-0.6-6.6-3.1-10.2-6.5c-1.2-1.1-1.2-3.5,0-4.6l7.1-7.1c1.2-1.2,3.6-1.2,5.2-0.4l4.8,3.5c2.5,2.2,7.9-3.2,11.5-6.7
			c3.6-3.6,9-8.4,6.7-11.5l-3.5-4.8c-0.8-1.5-0.8-3.9,0.4-5.1l7.1-7.1C-649.8,1874.3-647.5,1874.3-646.3,1875.5L-646.3,1875.5z"/>
	</g>
	<g>
		<rect x="-1280.5" y="2773.7" class="st0" width="968" height="296"/>
		<text transform="matrix(1 0 0 1 -1280.5142 2878.0361)"><tspan x="0" y="0" class="st6" style="font-family:'Anton'; font-size:147px;">FROM STU</tspan><tspan x="641.9" y="0" class="st6" style="font-family:'Anton'; font-size:147px;">-</tspan><tspan x="0" y="176.4" class="st6" style="font-family:'Anton'; font-size:147px;">DENTS </tspan></text>
	</g>
	<g>
		<defs>
			<rect id="SVGID_1_" x="-1279.2" y="-2686.7" width="547" height="409"/>
		</defs>
		<clipPath id="SVGID_2_">
			<use xlink:href="#SVGID_1_"  style="overflow:visible;"/>
		</clipPath>
	</g>
	<g>
		<defs>
			<rect id="SVGID_3_" x="-111.2" y="-2686.7" width="546" height="409"/>
		</defs>
		<clipPath id="SVGID_4_">
			<use xlink:href="#SVGID_3_"  style="overflow:visible;"/>
		</clipPath>
	</g>
	<g>
		<defs>
			<rect id="SVGID_5_" x="-695.2" y="-2686.7" width="546" height="409"/>
		</defs>
		<clipPath id="SVGID_6_">
			<use xlink:href="#SVGID_5_"  style="overflow:visible;"/>
		</clipPath>
	</g>
	<g>
		<defs>
			<rect id="SVGID_7_" x="-1276.2" y="-2245.7" width="547" height="409"/>
		</defs>
		<clipPath id="SVGID_8_">
			<use xlink:href="#SVGID_7_"  style="overflow:visible;"/>
		</clipPath>
	</g>
	<g>
		<defs>
			<rect id="SVGID_9_" x="-693.2" y="-2245.7" width="546" height="409"/>
		</defs>
		<clipPath id="SVGID_10_">
			<use xlink:href="#SVGID_9_"  style="overflow:visible;"/>
		</clipPath>
	</g>
	<g>
		<defs>
			<rect id="SVGID_11_" x="-111.2" y="-2245.7" width="546" height="409"/>
		</defs>
		<clipPath id="SVGID_12_">
			<use xlink:href="#SVGID_11_"  style="overflow:visible;"/>
		</clipPath>
	</g>
	<rect x="-1114.6" y="-186.1" class="st0" width="498" height="234"/>
	<text transform="matrix(1 0 0 1 -1052.2534 -165.4164)"><tspan x="0" y="0" class="st9 st10 st11">Thành thạo kĩ thuật cơ bản</tspan><tspan x="5.9" y="50" class="st12" style="font-family:'HelveticaNeue-Medium';">Cách sử dụng cọ và phân biệt </tspan><tspan x="94.1" y="100" class="st12" style="font-family:'HelveticaNeue-Medium';">các loại giấy vẽ</tspan></text>
	<rect x="-1060.2" y="165.9" class="st0" width="389.3" height="234"/>
	<text transform="matrix(1 0 0 1 -1038.0293 186.6337)"><tspan x="0" y="0" class="st9 st10 st11">Tự tạo ra tác phẩm riêng</tspan><tspan x="344.9" y="0" class="st11" style="font-family:'HelveticaNeue';"> </tspan><tspan x="-6.7" y="50" class="st12" style="font-family:'HelveticaNeue-Medium';">Dùng trong việc trang trí hoặc </tspan><tspan x="63.1" y="100" class="st12" style="font-family:'HelveticaNeue-Medium';">công việc cá nhân</tspan></text>
	<rect x="-607.1" y="-186.1" class="st0" width="401.5" height="234"/>
	<text transform="matrix(1 0 0 1 -555.1938 -165.4164)"><tspan x="0" y="0" class="st9 st10 st11">Tự tin với chính mình</tspan><tspan x="11.8" y="50" class="st10 st12">Phác thảo và hình họa </tspan><tspan x="82.5" y="100" class="st10 st12">vững chắc</tspan><tspan x="148.8" y="150" class="st12" style="font-family:'HelveticaNeue-Medium';"> </tspan></text>
	<rect x="-634.6" y="165.9" class="st0" width="456.4" height="234"/>
	<text transform="matrix(1 0 0 1 -587.4277 186.6347)"><tspan x="0" y="0" class="st9 st10 st11">Tim được dấu ấn cá nhân</tspan><tspan x="42.8" y="50" class="st12" style="font-family:'HelveticaNeue-Medium';">Phát triển và nhận diện </tspan><tspan x="82.5" y="100" class="st12" style="font-family:'HelveticaNeue-Medium';">được style riêng</tspan></text>
	<rect x="-116.4" y="-186.1" class="st0" width="332.5" height="234"/>
	<text transform="matrix(1 0 0 1 -78.4331 -165.4164)"><tspan x="0" y="0" class="st9 st10 st11">Phối màu linh hoạt</tspan><tspan x="-31.5" y="50" class="st10 st12">Không còn phối màu theo </tspan><tspan x="71" y="100" class="st10 st12">bản năng</tspan></text>
	<rect x="-112.4" y="165.9" class="st0" width="324.5" height="234"/>
	<text transform="matrix(1 0 0 1 -111.6518 186.6337)"><tspan x="0" y="0" class="st9 st10 st11">Nâng cao gout thẩm mĩ</tspan><tspan x="5.2" y="50" class="st11" style="font-family:'HelveticaNeue-Medium';">Đánh giá được các sản </tspan><tspan x="62.5" y="100" class="st11" style="font-family:'HelveticaNeue-Medium';">phẩm hình ảnh</tspan></text>
	<g>
		<path d="M-374.2-398.4c7.8-0.6,14.7,5,15.3,12.9c0.6,7.8-5,14.7-12.9,15.3c-7.9,0.6-14.7-5-15.3-12.9l0,0
			C-387.7-390.8-382.1-397.6-374.2-398.4z"/>
		<path d="M-371-365.4c-0.2,0-0.4,0-0.6,0c0,0,0,0,0.2,0C-371.2-365.4-371-365.4-371-365.4z"/>
		<path d="M-438.5-370.3c0,0.6-1.6,1-3.6,1c-1.8-0.2-3.6-0.6-5.6-1c1.8-0.4,3.6-0.8,5.6-1C-440.1-371.3-438.5-370.9-438.5-370.3z"/>
		<path d="M-354.7-351.5c-0.8-8.3-7.8-14.3-15.9-13.9h-0.2c-0.2,0-0.4,0-0.6,0c-0.2,0-0.4,0-0.6,0h-0.2c-2.8,0.4-5.4,1.6-7.6,3.4
			l-16.5,7.8l-32.4-15.1c10.3,0,25.6-1,25.6-1s-20.1-1.2-29.6-1h-0.2l0,0c-1.2,0-2.2,0.2-3.4,0.2c-0.4,0-0.6,0.4-0.6,0.8
			c0,0.4,0.2,0.6,0.6,0.6c1,0.2,1.8,0.2,2.8,0.2c-0.4,1.2-0.6,2.4-0.6,3.6c0,5,3,9.7,7.6,11.9l27,12.9c2,1,4.2,1,6.2,0l7.4-3.4
			l-0.4-4.2c0-0.4,0-1,0-1.4c0-2.6,0.6-5.4,2-7.6l0,0c0-0.2,0.2-0.2,0.4-0.2c0.2,0,0.4,0.2,0.6,0.4v0.2c-1.2,2.2-1.8,4.6-1.8,7.2
			c0,0.4,0,0.8,0,1.4l0.4,3.8l1,12.1l7.4-2.8l-2-22.3l0,0c0-0.2,0.2-0.4,0.4-0.6l0,0c0.2,0,0.4,0.2,0.6,0.4l2,23.1l-8.5,3l-16.5,6
			c-0.4-0.6-1-1.2-1.6-1.8c-3.4-2.6-12.9-2-20.9,1.2c-8.1,3.2-11.9,8.3-8.3,10.9c3.6,2.6,13.9,2.6,20.9-1.2c0.4-0.2,0.8-0.6,0.8-1
			c2.4,3,6.2,4.6,10.1,4.6c1.6,0,3-0.2,4.4-0.8l12.3-4.4l15.9-5.8c3.2-1.2,5-4.2,4.8-7.6l-1.8-20.7l0,0c0-0.2,0.2-0.4,0.4-0.6l0,0
			c0.2,0,0.4,0.2,0.6,0.4l1.8,20.7c0.4,3.8-1.8,7.2-5.4,8.7l-16.1,5.8l0.2,2.6v2.2c0,4.6,2.2,9.1,5.8,12.1v79.5h9.5
			c5.2,0,9.5-4.2,9.5-9.5l0,0v-70c3.8-2.8,5.8-7.2,5.8-12.1v-2.2L-354.7-351.5z M-414.1-327.6c1.4-0.2,2.8,0.2,2.8,1
			c0,0.8-1,1.6-2.6,1.8c-1.6,0.2-2.8-0.2-2.8-1C-416.7-326.6-415.7-327.4-414.1-327.6z M-429.2-319.7c0-0.8,1-1.6,2.6-1.8
			c1.6-0.2,2.8,0.2,2.8,1c0,0.8-1,1.6-2.6,1.8C-428-318.5-429-318.9-429.2-319.7L-429.2-319.7z M-423-315.1c-1.4,0.2-2.8-0.2-2.8-1
			c0-0.8,1-1.6,2.6-1.8c1.6-0.2,2.8,0.2,2.8,1C-420.3-316.1-421.5-315.3-423-315.1L-423-315.1z M-421.1-322.6
			c-1.4,0.2-2.8-0.2-2.8-1c0-0.8,1-1.6,2.6-1.8c1.6-0.2,2.8,0.2,2.8,1C-418.5-323.6-419.7-322.6-421.1-322.6L-421.1-322.6z
			 M-415.5-316.1c-1.4,0.2-2.8-0.2-2.8-1c0-0.8,1-1.6,2.6-1.8c1.6-0.2,2.8,0.2,2.8,1C-412.9-317.1-413.9-316.3-415.5-316.1
			L-415.5-316.1z M-411.5-322c0.2,0.4,0.2,0.6,0.4,1c-0.8,0-1.6-0.2-1.6-0.6c0-0.4,0.6-1,1.6-1c0.4,0,0.8,0,1.2,0.2L-411.5-322z
			 M-406-324.8c-1.4,0.2-2.8-0.2-2.8-1c0-0.8,1-1.6,2.6-1.8c1.6-0.2,2.8,0.2,2.8,1C-403.4-325.8-404.6-325-406-324.8L-406-324.8z"/>
		<path d="M-445.1-311.9l-11.1-83.7c-0.2-1,0.6-2.2,1.8-2.2c1-0.2,2.2,0.6,2.2,1.8l11.1,83.9c0.2,1-0.6,2.2-1.8,2.2
			C-444.1-309.9-444.9-310.7-445.1-311.9L-445.1-311.9z"/>
		<path d="M-435.4-223.5c0.2,1-0.6,2.2-1.8,2.2c-1,0.2-2.2-0.6-2.2-1.8l-15.1-114.7l-15.1,114.7c-0.2,1-1.2,1.8-2.2,1.8
			c-1-0.2-1.8-1.2-1.8-2.2l16.9-127.8c0-0.4,0.2-0.6,0.4-0.8l-5.8-42.9c-0.2-1,0.6-2.2,1.8-2.2c1-0.2,2.2,0.6,2.2,1.8L-435.4-223.5z
			"/>
	</g>
	<g>
		<path d="M-821.7-316.7l-4.6-3.8c-4.7-3.9-7.6-9.6-8.1-15.8h-6.6c0.4,8.1,4.2,15.6,10.4,20.8l4.6,3.8c2.9,2.4,4.6,6,4.6,9.9v61.1
			c0,7.1-5.7,12.8-12.8,12.8h-63c-7.1,0-12.8-5.7-12.8-12.8v-61.1c0-3.8,1.7-7.4,4.6-9.9l4.6-3.8c6.2-5.2,10-12.7,10.4-20.8h-6.6
			c-0.4,6.1-3.3,11.8-8.1,15.8l-4.6,3.8c-4.4,3.7-7,9.1-7,14.9v61.1c0,10.7,8.7,19.4,19.4,19.4h63c10.7,0,19.4-8.7,19.4-19.4v-61.1
			C-814.7-307.5-817.2-313-821.7-316.7z"/>
		<polygon points="-876.4,-336.3 -868.3,-296.8 -861.2,-296.8 -869.2,-336.3 		"/>
		<path d="M-824.5-301.8c0-2.8-1.3-5.5-3.4-7.3l-4.6-3.8c-7-5.8-11.2-14.3-11.6-23.3h-21.7l8,39.4h33.3V-301.8z"/>
		<path d="M-852.5-260.6l-8.5,2.8c-1.8,5.7-1.6,10,0.4,12.9c2,2.4,5,3.8,8.1,3.9h6.4c-1-1.5-1.5-3.2-1.5-4.9c0-0.1,0-0.3,0-0.4
			C-845-256.3-850.8-259.8-852.5-260.6z"/>
		<polygon points="-867.7,-293.6 -861.1,-261.2 -854.4,-263.5 -860.5,-293.6 		"/>
		<path d="M-887-336.3c-0.4,9.1-4.6,17.5-11.6,23.3l-4.6,3.8c-2.2,1.8-3.4,4.5-3.4,7.3v4.9h34.9l-8-39.4H-887z"/>
		<path d="M-906.6-240.7c0,5.3,4.3,9.5,9.5,9.5h63c5.3,0,9.5-4.3,9.5-9.5v-52.9h-32.6l6.1,30c2.6,1.3,9.6,6,6.8,17.7
			c-0.1,2.6,1.9,4.7,4.5,4.8c0.1,0,0.3,0,0.4,0c0.9,0,1.6,0.7,1.6,1.6c0,0.9-0.7,1.6-1.6,1.6h-13.1c-4.2-0.1-8.1-2-10.8-5.2
			c-2.8-3.8-3-9.3-0.8-16.2l-7-34.4h-35.6V-240.7z"/>
		<path d="M-873.9-359.2l-11.8-58c-0.4-1.9-2.2-3.1-4.1-2.7c-0.1,0-0.3,0.1-0.4,0.1c-1.7,0.6-2.7,2.3-2.3,4l11.6,56.6H-873.9z"/>
		<path d="M-898.4-346.1h65.7c0.9,0,1.6,0.7,1.6,1.6v3.3c0,0.9-0.7,1.6-1.6,1.6h-65.7c-0.9,0-1.6-0.7-1.6-1.6v-3.3
			C-900.1-345.4-899.3-346.1-898.4-346.1z"/>
		<path d="M-898.4-356h65.7c0.9,0,1.6,0.7,1.6,1.6v3.3c0,0.9-0.7,1.6-1.6,1.6h-65.7c-0.9,0-1.6-0.7-1.6-1.6v-3.3
			C-900.1-355.2-899.3-356-898.4-356z"/>
	</g>
	<g>
		<path d="M-418.3-3c-0.7-1.5-1.7-2.9-2.9-4.1c-2.7-2.7-6.3-3.9-10.6-3.6c-1,0.1-1.7,0.9-1.7,1.9c0.1,1,0.9,1.7,1.9,1.7
			c3.3-0.2,5.9,0.7,8,2.6c0.3,0.3,0.7,0.7,0.9,1.1c-20.4-1.5-37.6,7.1-39.3,20.2c-1.8,13.8,17.8,2.1,39.7,4.9
			c21.9,2.9,37.9,19.3,39.7,5.5C-380.9,13.5-396.8,0.1-418.3-3z"/>
		<g>
			<path d="M-424.2,74.2c19.1,0,34.5-15.5,34.5-34.5c0-1.3-0.1-2.7-0.2-4c-3.1-0.6-6.6-2-10.8-3.8c-6.1-2.6-13.7-5.8-22-6.9
				c-2.2-0.3-4.7-0.4-7.1-0.4c-5.7,0-11.1,0.8-15.9,1.4c-3.8,0.5-7,1-9.8,1h0c-0.2,0-0.5,0-0.7,0c-1.6,3.9-2.4,8.2-2.4,12.7
				C-458.7,58.7-443.3,74.2-424.2,74.2z"/>
			<path d="M-395.9,71.1c-1.4,1.2-2.9,2.4-4.4,3.5c4.6,9,17.4,31.2,32.7,38.2l-19.9,5c-11.4-6.8-18.1-20.8-21.8-30.8
				c0.9,8.6,3.2,20.9,9.2,27.8l-14.3-2.7c-6.4-9.4-5.3-23.6-4.4-30.5c-1.8,0.2-3.6,0.4-5.4,0.4c-8.8,0-16.9-2.7-23.7-7.2l0,0
				c-0.7-0.5-1.5-1-2.2-1.6c-0.1-0.1-0.3-0.2-0.4-0.3c-0.7-0.5-1.4-1.1-2-1.7c0,0,0,0,0,0c-1.1,0.6-2.2,1.2-3.2,1.9
				c-0.3,0.2-0.6,0.4-0.9,0.5c-1,0.6-2,1.3-2.9,2c-0.3,0.2-0.6,0.4-0.8,0.6c-0.7,0.5-1.3,1-2,1.5c-0.4,0.3-0.9,0.7-1.3,1
				c-0.6,0.5-1.2,1-1.8,1.6c-0.7,0.6-1.3,1.2-1.9,1.9c-0.3,0.3-0.7,0.7-1,1c-8.6,9-14.7,20.6-17.1,33.6c0,0.2-0.1,0.3-0.1,0.5
				c-0.2,1.1-0.4,2.2-0.5,3.3c-0.1,0.5-0.1,1-0.2,1.5c-0.1,0.8-0.2,1.6-0.2,2.5c-0.1,1.4-0.2,2.8-0.2,4.3h38.8h86.1
				C-361.9,103.6-375.8,81.8-395.9,71.1z"/>
		</g>
	</g>
	<path d="M81.3-315.1c-0.2-0.2-0.4-0.4-0.7-0.5l-0.3-0.2c-0.2-0.1-0.4-0.2-0.6-0.3l-0.4-0.1h-0.1c-0.5-0.1-1-0.1-1.5,0h-0.1
		l-0.4,0.1l-0.6,0.3l-0.2,0.1c-0.2,0.2-0.5,0.3-0.7,0.5c-0.1,0.1-0.1,0.1-0.2,0.2c-3.9,3.7-7.4,14.2-7.4,28.1
		c0,11.4,5.4,42.3,8.7,59.7c0.2,0.9,1.1,1.6,2,1.4c0.7-0.1,1.2-0.7,1.4-1.4c3.2-17.4,8.6-48.3,8.6-59.7c0-13.9-3.5-24.5-7.4-28.1
		L81.3-315.1z"/>
	<path d="M74.8-324.2c0.6,0.2,1.1,0.4,1.7,0.5l0,0c1.3,0.3,2.7,0.3,4.1,0l0,0c0.6-0.1,1.2-0.3,1.7-0.5c4-1.6,6.6-5.4,6.6-9.6
		c0-4.5-6.6-18.5-10.4-26c-3.7,7.5-10.3,21.5-10.3,26C68.2-329.5,70.9-325.7,74.8-324.2z"/>
	<path d="M35.5-361c-8.8-1.7-18,0.3-25.2,5.6c-15.2,9.5-30.2,32.9-27.4,61.7c1.5,24.1,13.9,46.1,33.8,59.8c7.8,5.4,16,8.4,22.6,8.4
		c1.3,0,2.7-0.1,4-0.4c2.2-0.3,4.2-1.5,5.5-3.3c2.5-3.8,1.3-9.5-0.1-16.2c-0.6-3-1.3-6.1-1.7-9.4c-1.6-10.8-1.3-21.8,0.9-32.4l0,0
		c0.6-4.6,1.6-9.3,2.6-14.3c3.3-16.5,6.7-33.6-1.6-50.3C45.7-356.6,41-359.9,35.5-361z M25-339c-3.1,0-5.7-2.5-5.7-5.7
		c0-3.1,2.5-5.7,5.7-5.7c3.1,0,5.7,2.5,5.7,5.7c0,0,0,0.1,0,0.1C30.6-341.5,28.1-339,25-339z M8.1-293.7c0,3.1-2.5,5.7-5.7,5.7
		c-3.1,0-5.7-2.5-5.7-5.7c0-3.1,2.5-5.7,5.7-5.7l0,0C5.6-299.4,8.1-296.8,8.1-293.7z M8.1-319.4c-3.1,0-5.7-2.5-5.7-5.7
		s2.5-5.7,5.7-5.7c3.1,0,5.7,2.5,5.7,5.7l0,0C13.8-321.9,11.3-319.4,8.1-319.4z M12.4-269.1c3.1,0,5.7,2.5,5.7,5.7
		c0,3.1-2.5,5.7-5.7,5.7c-3.1,0-5.7-2.5-5.7-5.7C6.7-266.6,9.3-269.1,12.4-269.1L12.4-269.1z M30.3-250.3c3.1,0,5.6,2.6,5.6,5.7
		c0,3.1-2.6,5.6-5.7,5.6c-3.1,0-5.6-2.6-5.6-5.7C24.7-247.8,27.2-250.3,30.3-250.3L30.3-250.3z M32.2-291.5c-4.8,0-8.9-6.6-8.9-14.4
		c0-7.8,4.1-14.4,8.9-14.4s8.9,6.6,8.9,14.4C41.1-298.1,37-291.5,32.2-291.5z"/>
	<g>
		<path d="M-897.5-1.9v19.4h12.8c7.7,0,14,6.3,14,14v10.3c0,2.7,2.2,4.9,4.9,4.9c2.7,0,4.9-2.2,4.9-4.9v-17c0-4,3.3-7.3,7.3-7.3
			c4,0,7.3,3.3,7.3,7.3v5.7c0,2.7,2.2,4.9,4.9,4.9c2.7,0,4.9-2.2,4.9-4.9V20c0-1.3,1.1-2.4,2.4-2.4h9.7V-1.9H-897.5z"/>
		<path d="M-831.8,30.5c0,5.4-4.4,9.7-9.7,9.7c-5.4,0-9.7-4.4-9.7-9.7v-5.7c0-1.3-1.1-2.4-2.4-2.4c-1.3,0-2.4,1.1-2.4,2.4v17
			c0,5.4-4.4,9.7-9.7,9.7c-5.4,0-9.7-4.4-9.7-9.7V31.6c0-5-4.1-9.1-9.1-9.1l0,0h-12.8V54h72.9V22.5h-7.3V30.5z"/>
		<path d="M-897.5,74.3c0,0.5,0,0.9,0,1.4c0,0.6,0.1,1.2,0.3,1.8c0,0.2,0,0.3,0,0.5c0,0,0,0,0,0.1c0,0.1,0,0,0,0h72.1l0,0
			c0,0,0,0,0-0.1c0-0.2,0-0.3,0-0.5c0.1-0.6,0.2-1.2,0.3-1.8c0-0.5,0-0.9,0-1.4V58.9h-72.7V74.3z"/>
		<path d="M-894.1,84.2c0.2,0.2,0.3,0.4,0.5,0.6c0.2,0.3,0.4,0.5,0.7,0.7c0.7,0.7,1.4,1.3,2.1,1.8c0.1,0.1,0.1,0.1,0.2,0.1
			c0.2,0.2,0.5,0.3,0.8,0.5c0.6,0.4,1.1,0.7,1.7,0.9l0.9,0.4l1,0.3l0.6,0.2l1.1,0.3h0.2l1.2,0.2h0.4c0.5,0,1,0,1.4,0
			c6.6,0,11.8,5.3,11.8,11.9c0,0.5,0,1.1-0.1,1.6l-3.6,26c-1,6.8,3.7,13,10.5,14c6.8,1,13-3.7,14-10.5c0.2-1.1,0.2-2.3,0-3.5
			l-3.7-25.9c-0.9-6.5,3.6-12.5,10.1-13.4c0.5-0.1,1.1-0.1,1.6-0.1c0.5,0,1,0,1.4,0h0.4l1.2-0.2h0.2l1.1-0.3l0.6-0.2l1-0.3l0.9-0.4
			c0.6-0.3,1.2-0.6,1.7-0.9c0.3-0.1,0.5-0.3,0.8-0.5c0.1,0,0.1-0.1,0.2-0.1c0.8-0.6,1.5-1.2,2.1-1.8c0.2-0.2,0.5-0.5,0.7-0.7
			c0.2-0.2,0.4-0.4,0.5-0.6c0.2-0.3,0.5-0.6,0.7-1h-67.6C-894.6,83.6-894.3,83.9-894.1,84.2z"/>
	</g>
	<g>
		<g>
			<path d="M19.1,113.8l-9.5,26c-0.2,0.7-0.1,1.4,0.3,2c0.4,0.6,1.1,1,1.8,1h8.9c0.9,0,1.8-0.6,2.1-1.5l10-27.5H19.1z"/>
			<path d="M63.6,8.9l-1.2-7.1C62.2,0.8,61.3,0,60.2,0h-8.9c-1.1,0-2,0.8-2.2,1.9l-1.2,7.1H63.6z"/>
			<path d="M92.4,113.8H78.7l10,27.5c0.3,0.9,1.2,1.5,2.1,1.5h8.9c0.7,0,1.4-0.4,1.8-1c0.4-0.6,0.5-1.4,0.3-2L92.4,113.8z"/>
			<path d="M49.6,113.8l1.7,22.5c0.1,1.2,1.1,2.1,2.2,2.1H58c1.2,0,2.1-0.9,2.2-2.1l1.7-22.5H49.6z"/>
			<path d="M109.3,95.9H2.2c-1.2,0-2.2,1-2.2,2.2v8.9c0,1.2,1,2.2,2.2,2.2h107.1c1.2,0,2.2-1,2.2-2.2v-8.9
				C111.5,96.9,110.5,95.9,109.3,95.9z"/>
		</g>
		<g>
			<g>
				<polygon points="35.4,13.4 27.1,13.4 28.6,21.6 33.8,21.6 				"/>
				<polygon points="84.4,13.4 76.2,13.4 77.7,21.6 82.9,21.6 				"/>
				<path d="M55.8,31.2c1.2,0,2.2,1,2.2,2.2c0,1.2-1,2.2-2.2,2.2c-1.2,0-2.2-1-2.2-2.2C53.5,32.2,54.5,31.2,55.8,31.2z"/>
				<path d="M13.4,66.9V13.4H6.7c-1.2,0-2.2,1-2.2,2.2v73.6c0,1.2,1,2.2,2.2,2.2h6.7V66.9z"/>
				<path d="M57.8,46.3c0.9-1.1,2.1-1.7,3.5-1.7h11l5.4-9c0.8-1.3,2.3-2.2,3.8-2.2h12.1V13.4H89l-2,10.8c-0.2,1.1-1.1,1.8-2.2,1.8
					h-8.9c-1.1,0-2-0.8-2.2-1.8l-2-10.8H39.9l-2,10.8c-0.2,1.1-1.1,1.8-2.2,1.8h-8.9c-1.1,0-2-0.8-2.2-1.8l-2-10.8h-4.7v51.3h25.7
					L57.8,46.3z M55.8,26.8c3.7,0,6.7,3,6.7,6.7c0,3.7-3,6.7-6.7,6.7c-3.7,0-6.7-3-6.7-6.7C49.1,29.8,52.1,26.8,55.8,26.8z M39,40.1
					c-0.6,0-1.1,0.5-1.1,1.1v1.1c0,1.2-1,2.2-2.2,2.2H24.5v-4.5h9c0.5-2.5,2.8-4.5,5.5-4.5c3.1,0,5.6,2.5,5.6,5.6v3.3h-4.5v-3.3
					C40.1,40.7,39.6,40.1,39,40.1z"/>
				<path d="M104.8,13.4h-6.7v22.3v55.8h6.7c1.2,0,2.2-1,2.2-2.2V15.6C107.1,14.4,106.1,13.4,104.8,13.4z"/>
				<path d="M71.4,73.6c0-1.2,1-2.2,2.2-2.2h2.2V53.5h4.5v17.8h1.2l2.4-13.8l4.4,0.8l-2.3,13h1c1.2,0,2.2,1,2.2,2.2v17.8h4.5V37.9
					H81.6l-6,10.1c-0.4,0.7-1.1,1.1-1.9,1.1H61.3L46.4,68.3c-0.4,0.5-1.1,0.9-1.8,0.9H17.8v22.3h4.5c0-9.8,8-17.8,17.8-17.8h4.5
					c9.8,0,17.8,8,17.8,17.8h8.9V73.6z M60.2,66.9v-4.5h8.9v4.5H60.2z"/>
				<rect x="75.8" y="75.8" width="8.9" height="15.6"/>
			</g>
			<path d="M44.6,78.1h-4.5c-7.4,0-13.4,6-13.4,13.4H58C58,84.1,52,78.1,44.6,78.1z M35.7,89.2h-4.5v-4.5h4.5V89.2z M44.6,84.8h-4.5
				v-4.5h4.5V84.8z M53.5,89.2h-4.5v-4.5h4.5V89.2z"/>
		</g>
	</g>
</g>
<g id="Layer_7">
	<rect x="-1219.3" y="-8047.5" class="st0" width="864.3" height="96.7"/>
	<text transform="matrix(1 0 0 1 -1219.335 -7994.2393)" style="fill:#B38005; font-family:'Anton'; font-size:75px;">KODA WATERCOLOR </text>
</g>
<g id="Layer_8">
	<g>
		<defs>
			<rect id="SVGID_13_" x="-1384.2" y="-10352.7" width="1920" height="1080"/>
		</defs>
		<clipPath id="SVGID_14_">
			<use xlink:href="#SVGID_13_"  style="overflow:visible;"/>
		</clipPath>
	</g>
</g>
<g id="Layer_9">
</g>
<g id="Layer_10">
</g>
</svg>
