<?xml version="1.0" encoding="utf-8"?>
<!-- Generator: Adobe Illustrator 24.3.0, SVG Export Plug-In . SVG Version: 6.00 Build 0)  -->
<svg version="1.1" xmlns="http://www.w3.org/2000/svg" xmlns:xlink="http://www.w3.org/1999/xlink" x="0px" y="0px" width="50.3px"
	 height="70.4px" viewBox="0 0 50.3 70.4" style="enable-background:new 0 0 50.3 70.4;" xml:space="preserve">
<style type="text/css">
	.st0{fill:#FFFFFF;}
	.st1{fill:#004068;}
	.st2{fill:#F7CF38;}
	.st3{fill:#FF9D31;}
	.st4{fill:#DE9700;}
	.st5{fill:none;}
	.st6{fill:#ED7837;}
	.st7{font-family:'Anton';}
	.st8{font-size:99px;}
	.st9{fill:#02B9CD;}
	.st10{fill:#F88008;}
	.st11{fill:#FFDE83;}
	.st12{fill:#FFBE3B;}
	.st13{fill:#FF9E31;}
	.st14{fill:#333333;}
	.st15{fill:#4D4D4D;}
	.st16{fill:#FF6400;}
</style>
<g id="Layer_2">
</g>
<g id="Layer_1">
	<rect x="-313.5" y="-11042.8" class="st0" width="1920" height="1080"/>
	<rect x="-313.5" y="-9961.8" class="st0" width="1920" height="1080"/>
	<rect x="-313.5" y="-7802.8" class="st0" width="1920" height="1080"/>
	<rect x="-313.5" y="-6722.8" class="st0" width="1920" height="1080"/>
	<rect x="-313.5" y="-5642.8" class="st0" width="1920" height="1080"/>
	<rect x="-313.5" y="-4562.8" class="st0" width="1920" height="1080"/>
	<rect x="-313.5" y="-3482.8" class="st0" width="1920" height="1080"/>
	<rect x="-313.5" y="-2402.8" class="st0" width="1920" height="1080"/>
	<rect x="-313.5" y="-1322.8" class="st0" width="1920" height="1080"/>
	<rect x="-313.5" y="-242.8" class="st0" width="1920" height="1080"/>
	<rect x="-313.5" y="837.2" class="st0" width="1920" height="1080"/>
</g>
<g id="Layer_3">
	<rect x="472.3" y="-9359.2" class="st5" width="1076.2" height="75"/>
	
		<text transform="matrix(1 0 0 1 472.2988 -9317.3037)" class="st1" style="font-family:'HelveticaNeue-Bold'; font-size:58.7032px;">Upgrade Program 2024</text>
	<text transform="matrix(1 0 0 1 472.2988 -9538.8467)"><tspan x="0" y="0" class="st7" style="fill:#044784; font-size:97.8386px;">KHAI GIẢNG KHÓA </tspan><tspan x="0" y="135.9" class="st7" style="fill:#044784; font-size:97.8386px;">LỚP KODA PHOTOSHOP H298 </tspan></text>
	<rect x="823.5" y="-9377.8" class="st1" width="26" height="19"/>
</g>
<g id="Layer_6">
</g>
<g id="Layer_4">
	<g>
		<defs>
			<rect id="SVGID_1_" x="-313.5" y="-11042.8" width="1920" height="1080"/>
		</defs>
		<clipPath id="SVGID_2_">
			<use xlink:href="#SVGID_1_"  style="overflow:visible;"/>
		</clipPath>
	</g>
</g>
<g id="Layer_5">
	<rect x="-313.5" y="-5553.8" class="st2" width="1076" height="116"/>
	<rect x="-313.5" y="-2401.8" class="st3" width="816.6" height="1080"/>
	<rect x="-207.3" y="-2323.2" class="st0" width="649.5" height="950.8"/>
	<rect x="465.5" y="-9264.8" class="st4" width="1014" height="43"/>
	<rect x="462.5" y="-9206.8" class="st4" width="331" height="44"/>
	<text transform="matrix(1 0 0 1 475.2993 -9232.3926)"><tspan x="0" y="0" class="st0" style="font-family:'MyriadPro-Bold'; font-size:33.7px;">CHƯƠNG TRÌNH HỌC CẬP NHẬT LIÊN TỤC ĐỔI MỚI KHÔNG NGỪNG </tspan><tspan x="0" y="57.6" class="st0" style="font-family:'MyriadPro-Bold'; font-size:33.7px;">THEO QUÝ MỖI NĂM</tspan></text>
	<g>
		<text transform="matrix(1 0 0 1 -99.9854 -5466.3457)" class="st14 st7" style="font-size:64.8602px;">NỘI DUNG CHƯƠNG TRÌNH KHÓA HỌC</text>
	</g>
	<rect x="577.8" y="-2097.1" class="st5" width="959.1" height="157.3"/>
	<text transform="matrix(1 0 0 1 577.8086 -2074.9404)"><tspan x="0" y="0" class="st14" style="font-family:'HelveticaNeue-Medium'; font-size:31px;">Lớp Sáng:</tspan><tspan x="148.7" y="0" class="st14" style="font-family:'HelveticaNeue-Medium'; font-size:29px;"> Thứ 2-4: 8h30-10h30 sáng</tspan><tspan x="0" y="37.2" class="st14" style="font-family:'HelveticaNeue-Medium'; font-size:31px;">Lớp Tối:</tspan><tspan x="119.4" y="37.2" class="st14" style="font-family:'HelveticaNeue-Medium'; font-size:29px;"> Thứ 2-4: 7-9h tối</tspan><tspan x="0" y="74.4" class="st14" style="font-family:'HelveticaNeue-Medium'; font-size:31px;">Lớp Tối:</tspan><tspan x="119.4" y="74.4" class="st14" style="font-family:'HelveticaNeue-Medium'; font-size:29px;"> Thứ 6: 7-9h tối: Full Slot</tspan></text>
	<rect x="646.5" y="-7331.8" class="st5" width="790.6" height="191.3"/>
	<text transform="matrix(1 0 0 1 842.6855 -7304.6738)"><tspan x="0" y="0" style="font-family:'HelveticaNeue-Medium'; font-size:38px;">Nhằm đảm bảo chất lượng đầu ra </tspan><tspan x="109.5" y="64" style="font-family:'HelveticaNeue-Medium'; font-size:38px;">Chúng tôi xin phép giới hạn </tspan><tspan x="292.1" y="128" style="font-family:'HelveticaNeue-Medium'; font-size:38px;">số lượng mỗi lớp</tspan></text>
	<rect x="374.3" y="-7604.8" class="st5" width="1062.9" height="246.6"/>
	<text transform="matrix(1 0 0 1 469.8847 -7535.9238)"><tspan x="0" y="0" class="st7" style="fill:#F78508; font-size:97px;">Chất lượng người học là </tspan><tspan x="277.9" y="116.4" class="st7" style="fill:#F78508; font-size:97px;">ưu tiên hàng đầu</tspan></text>
	<g>
		<rect x="-189.7" y="-2284.1" class="st5" width="666.1" height="157.4"/>
		<text transform="matrix(1 0 0 1 -189.6587 -2208.2891)"><tspan x="0" y="0" class="st7" style="fill:#00B2DD; font-size:91px;">Thời</tspan><tspan x="167.3" y="0" style="fill:#00B2DD; font-family:'AppleBraille-Outline6Dot'; font-size:91px;"> </tspan><tspan x="198.4" y="0" class="st7" style="fill:#00B2DD; font-size:91px;">gian</tspan><tspan x="365" y="0" style="fill:#00B2DD; font-family:'AppleBraille-Outline6Dot'; font-size:91px;"> </tspan><tspan x="396.1" y="0" class="st7" style="fill:#00B2DD; font-size:91px;">học</tspan><tspan x="537.3" y="0" style="fill:#00B2DD; font-family:'AppleBraille-Outline6Dot'; font-size:91px;"> </tspan><tspan x="568.4" y="0" class="st7" style="fill:#00B2DD; font-size:91px;">:</tspan></text>
	</g>
	<rect x="-158.2" y="-135.4" class="st5" width="366.6" height="135.4"/>
	<text transform="matrix(1 0 0 1 -158.1822 -65.1104)" class="st6 st7 st8">ĐỊA </text>
	<rect x="-165.1" y="424.3" class="st5" width="707.5" height="51.4"/>
	<text transform="matrix(1 0 0 1 -165.1099 438.6006)" class="st14" style="font-family:'HelveticaNeue-Bold'; font-size:20px;">2 chi nhánh cách nhau 30s đi xe máy</text>
	<path class="st9" d="M93.5-8056.5c0,4.2-3.4,7.7-7.7,7.7h-229.6c-4.2,0-7.7-3.4-7.7-7.7v-65.6c0-4.2,3.4-7.7,7.7-7.7H85.8
		c4.2,0,7.7,3.4,7.7,7.7V-8056.5z"/>
	<rect x="-205" y="-8109.3" class="st5" width="348.1" height="74"/>
	<text transform="matrix(1 0 0 1 -123.9224 -8070.7598)" class="st0" style="font-family:'HelveticaNeue-Bold'; font-size:54px;">Liên hệ</text>
	<path class="st10" d="M1434.5-7036.5c0,4.2-3.4,7.7-7.7,7.7h-229.6c-4.2,0-7.7-3.4-7.7-7.7v-65.6c0-4.2,3.4-7.7,7.7-7.7h229.6
		c4.2,0,7.7,3.4,7.7,7.7V-7036.5z"/>
	<rect x="1136" y="-7089.3" class="st5" width="348.1" height="74"/>
	<text transform="matrix(1 0 0 1 1217.0776 -7050.7598)" class="st0" style="font-family:'HelveticaNeue-Bold'; font-size:54px;">Liên hệ</text>
	<path d="M808.5-1469.5c0,4.2-3.4,7.7-7.7,7.7H571.2c-4.2,0-7.7-3.4-7.7-7.7v-65.6c0-4.2,3.4-7.7,7.7-7.7h229.6
		c4.2,0,7.7,3.4,7.7,7.7V-1469.5z"/>
	<rect x="510" y="-1522.3" class="st5" width="348.1" height="74"/>
	<text transform="matrix(1 0 0 1 591.0771 -1483.7598)" class="st0" style="font-family:'HelveticaNeue-Bold'; font-size:54px;">Liên hệ</text>
	<rect x="1467.5" y="-2119.7" class="st3" width="139" height="481.8"/>
	<rect x="-309.5" y="-4250.8" class="st11" width="1916" height="424"/>
	<rect x="967.4" y="-236.8" class="st12" width="639.1" height="1080"/>
	<rect x="-313.5" y="-797.3" class="st12" width="103.1" height="356"/>
	<rect x="-151.5" y="-8544.4" class="st5" width="522.3" height="245.3"/>
	<text transform="matrix(1 0 0 1 -151.4849 -8484.876)"><tspan x="0" y="0" class="st14" style="font-family:'HelveticaNeue-Bold'; font-size:26px;">Đây là bộ môn mang lại tư duy về thẩm </tspan><tspan x="0" y="41" class="st14" style="font-family:'HelveticaNeue-Bold'; font-size:26px;">mĩ trong thiết kế được nâng cấp dựa trên </tspan><tspan x="0" y="82" class="st14" style="font-family:'HelveticaNeue-Bold'; font-size:26px;">xu hướng 2024 và được thiết lập trong </tspan><tspan x="0" y="123" class="st14" style="font-family:'HelveticaNeue-Bold'; font-size:26px;">giáo án chương trình học cho các sinh </tspan><tspan x="0" y="164" class="st14" style="font-family:'HelveticaNeue-Bold'; font-size:26px;">viên tại Nhật Bản</tspan></text>
	<polygon class="st5" points="702.6,-8140.4 -149.5,-8140.4 -151.5,-8176.4 700.6,-8176.4 	"/>
	<text transform="matrix(1 0 0 1 -150.0655 -8150.8369)" class="st15" style="font-family:'MyriadPro-Bold'; font-size:36px;">Không gian lớp học</text>
	
		<image style="overflow:visible;" width="720" height="720" xlink:href="../../../../Downloads/LAYOUT 6/IMAG/PIC (5).jpg"  transform="matrix(0.9036 0 0 0.9036 -297.0116 -7630.1055)">
	</image>
	
		<image style="overflow:visible;" width="991" height="1341" xlink:href="../../../../Downloads/LAYOUT 6/IMAG/PIC (3).jpg"  transform="matrix(0.3919 0 0 0.3919 346.8439 -7390.5693)">
	</image>
	
		<image style="overflow:visible;" width="1080" height="1528" xlink:href="../../../../Downloads/LAYOUT 6/IMAG/PIC (1).jpg"  transform="matrix(0.2587 0 0 0.2587 66.9759 -7177.3179)">
	</image>
	<g>
		<rect x="573.5" y="-2212.8" class="st5" width="608" height="138"/>
		<text transform="matrix(1 0 0 1 573.5151 -2175.1631)" class="st3 st7" style="font-size:53px;">LỚP TRỰC TIẾP</text>
	</g>
	<g>
		<rect x="-182.4" y="-3314" class="st5" width="865.1" height="75.2"/>
		<text transform="matrix(1 0 0 1 -182.4009 -3264.3096)" class="st16 st7" style="font-size:70px;">3 LÝ DO CHÍNH BẠN NÊN </text>
	</g>
	<g>
		<rect x="-182.4" y="-3223" class="st5" width="865.1" height="75.2"/>
		<text transform="matrix(1 0 0 1 -182.4009 -3188.9033)" class="st16 st7" style="font-size:48px;">KODA PHOTOSHOP tại HANNA&apos;S FAMILY</text>
	</g>
	<rect x="-37.4" y="-3029.4" class="st5" width="816.6" height="139.1"/>
	<text transform="matrix(1 0 0 1 -37.4234 -2999.5386)" class="st15" style="font-family:'UTM-Avo'; font-size:42px;">Chất lượng giảng dạy</text>
	<rect x="62" y="-5326.2" class="st5" width="737.7" height="125.7"/>
	<text transform="matrix(1 0 0 1 61.9756 -5300.6182)" style="font-family:'UTM-Avo'; font-size:36px;">INTRODUCTION</text>
	<rect x="62" y="-5194" class="st5" width="737.7" height="125.7"/>
	<text transform="matrix(1 0 0 1 61.9756 -5168.3979)" style="font-family:'UTM-Avo'; font-size:36px;">THE KOKLORS &amp; CONCESK</text>
	<rect x="62" y="-5061.7" class="st5" width="737.7" height="46.3"/>
	<text transform="matrix(1 0 0 1 61.9756 -5036.1768)" style="font-family:'UTM-Avo'; font-size:36px;">DESIGN </text>
	<rect x="62" y="-4930.6" class="st5" width="737.7" height="125.7"/>
	<text transform="matrix(1 0 0 1 61.9756 -4905.0703)" style="font-family:'UTM-Avo'; font-size:36px;">EFFECTS, FINAL DETAILS, AND EXTRAS</text>
	<rect x="62" y="-4796.2" class="st5" width="737.7" height="125.7"/>
	<text transform="matrix(1 0 0 1 61.9756 -4770.6611)" style="font-family:'UTM-Avo'; font-size:36px;">LAYOUKA, RATIONNE TYPES</text>
	<rect x="-37.4" y="-2879.4" class="st5" width="816.6" height="139.1"/>
	<text transform="matrix(1 0 0 1 -37.4234 -2849.5933)" class="st15" style="font-family:'UTM-Avo'; font-size:42px;">Giảng viên giàu kinh nghiệm</text>
	<rect x="-37.4" y="-2729.7" class="st5" width="816.6" height="139.1"/>
	<text transform="matrix(1 0 0 1 -37.4234 -2699.9097)" class="st15" style="font-family:'UTM-Avo'; font-size:42px;">Không gian lớp học đa concept</text>
	<g>
		<rect x="573.5" y="-1845.8" class="st5" width="330" height="80"/>
		<text transform="matrix(1 0 0 1 573.5151 -1808.1631)" class="st3 st7" style="font-size:53px;">LỚP ONLINE</text>
	</g>
	<rect x="577.8" y="-1828.8" class="st5" width="579.7" height="227"/>
	<text transform="matrix(1 0 0 1 577.8086 -1744.7283)"><tspan x="0" y="0" class="st14" style="font-family:'HelveticaNeue-Medium'; font-size:27px;">Lớp học online từ xa dành cho các bạn trong </tspan><tspan x="0" y="32.4" class="st14" style="font-family:'HelveticaNeue-Medium'; font-size:27px;">&amp; ngoài nước</tspan><tspan x="0" y="97.2" class="st14" style="font-family:'HelveticaNeue-Medium'; font-size:27px;">Đặc biệt là các bạn đang du học hoặc đang </tspan><tspan x="0" y="129.6" class="st14" style="font-family:'HelveticaNeue-Medium'; font-size:27px;">làm việc ở nước ngoài</tspan></text>
	
		<ellipse transform="matrix(0.9998 -1.787072e-02 1.787072e-02 0.9998 53.781 -2.7396)" class="st13" cx="-126.4" cy="-3010.6" rx="58.8" ry="58.8"/>
	
		<ellipse transform="matrix(0.9998 -1.787072e-02 1.787072e-02 0.9998 51.1984 -2.7166)" class="st13" cx="-126.4" cy="-2866.1" rx="58.8" ry="58.8"/>
	
		<ellipse transform="matrix(1.667897e-02 -0.9999 0.9999 1.667897e-02 2590.8816 -2796.6423)" class="st13" cx="-126.4" cy="-2715.6" rx="58.8" ry="58.8"/>
	<rect x="-182.4" y="-3042.8" class="st5" width="112" height="158"/>
	<text transform="matrix(1 0 0 1 -142.5601 -2998.0635)" class="st0 st7" style="font-size:63px;">1</text>
	<rect x="-182.4" y="-2893.2" class="st5" width="112" height="86"/>
	<text transform="matrix(1 0 0 1 -142.5601 -2848.5137)" class="st0 st7" style="font-size:63px;">2</text>
	<rect x="-182.4" y="-2742.7" class="st5" width="112" height="86"/>
	<text transform="matrix(1 0 0 1 -142.5601 -2698.002)" class="st0 st7" style="font-size:63px;">3</text>
	<g>
		<rect x="-190.5" y="-1189.8" class="st5" width="1624" height="170.1"/>
		<text transform="matrix(1 0 0 1 164.31 -1151.457)"><tspan x="0" y="0" class="st7" style="fill:#E26F10; font-size:54px;">KODA PHOTOSHOP là môn học giúp bạn </tspan><tspan x="18.9" y="81" class="st7" style="fill:#E26F10; font-size:54px;">ứng dụng nhiều vào cuộc sống hiện tại</tspan></text>
	</g>
	<g>
		<g>
			<rect x="-43.9" y="-837.2" class="st5" width="498" height="234"/>
			<text transform="matrix(1 0 0 1 49.4858 -816.4464)"><tspan x="0" y="0" class="st10" style="font-family:'HelveticaNeue-Bold'; font-size:29px;">Thông thạo phần mềm </tspan><tspan x="38.1" y="50" style="font-family:'HelveticaNeue'; font-size:29px;">Photoshop từ A-Z</tspan></text>
			<rect x="10.5" y="-524.1" class="st5" width="389.3" height="234"/>
			<text transform="matrix(1 0 0 1 18.9062 -503.42)"><tspan x="0" y="0" class="st10" style="font-family:'HelveticaNeue-Bold'; font-size:29px;">Thiết kế ấn phẩm, hình ảnh</tspan><tspan x="372.5" y="0" style="font-family:'HelveticaNeue'; font-size:29px;"> </tspan><tspan x="6.2" y="50" style="font-family:'HelveticaNeue'; font-size:29px;">sống động trong quảng cáo </tspan><tspan x="97.4" y="100" style="font-family:'HelveticaNeue'; font-size:29px;">&amp; các sự kiện</tspan></text>
		</g>
		<g>
			<rect x="517.9" y="-837.2" class="st5" width="293" height="234"/>
			<text transform="matrix(1 0 0 1 529.146 -816.4464)"><tspan x="0" y="0" class="st10" style="font-family:'HelveticaNeue-Bold'; font-size:29px;">Chỉnh sửa hình ảnh </tspan><tspan x="-4.5" y="50" style="font-family:'HelveticaNeue'; font-size:29px;">sống động, theo style </tspan><tspan x="67.3" y="100" style="font-family:'HelveticaNeue'; font-size:29px;">riêng mình</tspan></text>
			<rect x="491.7" y="-524.1" class="st5" width="345.4" height="234"/>
			<text transform="matrix(1 0 0 1 525.3896 -503.42)"><tspan x="0" y="0" class="st10" style="font-family:'HelveticaNeue-Bold'; font-size:29px;">Tự tay tạo nên kênh </tspan><tspan x="-1.8" y="50" style="font-family:'HelveticaNeue'; font-size:29px;">truyền thông cho việc </tspan><tspan x="6.4" y="100" style="font-family:'HelveticaNeue'; font-size:29px;">khởi nghiệp cá nhân</tspan></text>
		</g>
		<g>
			<rect x="954.4" y="-837.2" class="st5" width="332.5" height="234"/>
			<text transform="matrix(1 0 0 1 996.0029 -816.4464)"><tspan x="0" y="0" class="st10" style="font-family:'HelveticaNeue-Bold'; font-size:29px;">Tự tay thiết kế CV</tspan><tspan x="249.3" y="0" style="font-family:'HelveticaNeue'; font-size:29px;"> </tspan><tspan x="-24.6" y="50" style="font-family:'HelveticaNeue'; font-size:29px;">ấn tượng ghi điểm cho </tspan><tspan x="23.6" y="100" style="font-family:'HelveticaNeue'; font-size:29px;">nhà tuyển dụng</tspan></text>
			<rect x="958.4" y="-524.1" class="st5" width="324.5" height="234"/>
			<text transform="matrix(1 0 0 1 1000.7446 -503.42)"><tspan x="0" y="0" class="st10" style="font-family:'HelveticaNeue-Bold'; font-size:29px;">Thiết kế proposal </tspan><tspan x="-24.9" y="50" style="font-family:'HelveticaNeue'; font-size:29px;">chuyên nghiệp thu hút </tspan><tspan x="76.4" y="100" style="font-family:'HelveticaNeue'; font-size:29px;">đầu tư</tspan></text>
		</g>
	</g>
	<rect x="1361.5" y="-1088.8" class="st12" width="245" height="37.8"/>
	<g>
		<g>
			<path class="st14" d="M247.4-978.5l0.1-0.2c0.8-1.4,0.9-2.9,0.5-4.3c-0.4-1.4-1.3-2.7-2.6-3.5l-0.2-0.1c-1.3-0.7-2.9-0.9-4.3-0.5
				c-1.4,0.4-2.7,1.3-3.5,2.6l-0.8,1.3l10,5.8L247.4-978.5L247.4-978.5z M194.6-904.3c0.6-0.5,1.5-0.5,2,0.1c0.5,0.6,0.5,1.5-0.1,2
				c-9.8,9.1-14.6,4.9-19.5,0.6c-3.8-3.3-7.8-6.7-15.4-0.5c-0.6,0.5-1.5,0.4-2-0.2c-0.5-0.6-0.4-1.5,0.2-2c9.5-7.7,14.3-3.5,19,0.6
				C182.8-900.3,186.7-897,194.6-904.3L194.6-904.3z M208.6-925.7l30.5-52.8l-3.8-2.2l-30.6,52.9c0.8,0,1.6,0.2,2.3,0.7
				c0.5,0.3,0.9,0.6,1.2,0.9C208.4-926,208.5-925.8,208.6-925.7L208.6-925.7z M241.5-977.1L211-924.3c0.2,0,0.3,0,0.5,0.1
				c0.5,0.1,1,0.3,1.4,0.6c0.7,0.4,1.3,1,1.7,1.7l30.6-52.9L241.5-977.1L241.5-977.1z M212.5-918.6c0.2-0.5,0.2-1,0-1.5
				c-0.2-0.5-0.5-0.8-0.9-1.1c-0.2-0.1-0.4-0.2-0.6-0.2c-0.2,0-0.4,0-0.6,0c-0.8,0.1-1.6-0.1-2.3-0.5c-0.7-0.4-1.2-1-1.6-1.7
				c-0.1-0.2-0.2-0.4-0.3-0.5c-0.2-0.2-0.3-0.3-0.5-0.4c-0.4-0.3-0.9-0.3-1.4-0.2c-0.5,0.1-0.9,0.3-1.2,0.7l-0.6,12.2L212.5-918.6
				L212.5-918.6z M217.6-955.7h-60c-1.3,0-2.5,0.5-3.3,1.4c-0.9,0.8-1.4,2-1.4,3.3v58.8c0,1.3,0.5,2.5,1.4,3.3
				c0.9,0.8,2,1.4,3.3,1.4h95.1c1.3,0,2.4-0.5,3.3-1.3c0.9-0.9,1.4-2.1,1.4-3.4V-951c0-1.3-0.5-2.5-1.4-3.3c-0.8-0.9-2-1.4-3.3-1.4
				h-15.2l-22.1,38.4c-0.1,0.2-0.3,0.3-0.4,0.5l-13.2,8.7c-0.3,0.2-0.6,0.3-0.9,0.3c-0.8,0-1.4-0.7-1.3-1.5l0.8-15.9
				c0-0.2,0.1-0.5,0.2-0.7L217.6-955.7L217.6-955.7z M216.4-871.6c-0.9-1.7-1.6-3.5-2.2-5.5c-0.7-2.4-1.2-4.9-1.4-7.6h-15.4
				c-0.2,2.7-0.7,5.2-1.4,7.6c-0.6,1.9-1.3,3.8-2.2,5.5H216.4z M228.8-868.8h-47.4v5.6h47.4V-868.8z"/>
		</g>
	</g>
	<g transform="translate(0,-952.36218)">
		<path class="st15" d="M612.8-6.7v49.8L627,29.6c1-1,2.7-0.9,3.6,0.1c0,0,0,0,0.1,0.1l5.8,6.6l14.7-14.2c1-0.9,2.5-0.9,3.5,0
			l24,22.9l14.1-15.1c1-1,2.6-1.1,3.6-0.1l19.4,18.1V-6.7H612.8L612.8-6.7z M680.2-0.8c1.4,0,2.6,1.1,2.7,2.5c0,0,0,0.1,0,0.1V6
			c0,1.4-1.1,2.6-2.5,2.6c-1.4,0-2.6-1.1-2.6-2.5c0,0,0,0,0-0.1V1.8C677.7,0.4,678.8-0.8,680.2-0.8L680.2-0.8z M667.6,4.3
			c0.1,0,0.2,0,0.3,0c0.7,0,1.4,0.3,1.9,0.8l3,3c1,1,1.1,2.6,0.1,3.6c-1,1-2.6,1.1-3.6,0.1c0,0,0,0-0.1-0.1l-3-3
			c-1-1-1.1-2.6-0.1-3.6C666.5,4.6,667,4.4,667.6,4.3z M692.2,4.3c0.1,0,0.2,0,0.3,0c1.4-0.1,2.6,1.1,2.7,2.5c0,0.7-0.3,1.4-0.8,2
			l-3,3c-1,1-2.6,1.1-3.6,0.1c-1-1-1.1-2.6-0.1-3.6c0,0,0,0,0.1-0.1l3-3C691.1,4.7,691.7,4.4,692.2,4.3z M680.3,10.3
			c4.9,0,9,4,9,8.9c0,4.9-4.1,8.9-9,8.9c-5,0-9.1-4-9.1-8.9C671.2,14.3,675.3,10.3,680.3,10.3z M662.6,16.6c0.1,0,0.2,0,0.3,0h4.2
			c1.4,0,2.6,1.1,2.6,2.5c0,1.4-1.1,2.6-2.5,2.6c0,0,0,0-0.1,0h-4.3c-1.4,0.1-2.6-1-2.7-2.4C660.1,17.9,661.1,16.7,662.6,16.6
			L662.6,16.6z M693.1,16.6c0.1,0,0.2,0,0.3,0h4.2c1.4,0,2.6,1.1,2.6,2.5c0,1.4-1.1,2.6-2.5,2.6c0,0,0,0-0.1,0h-4.3
			c-1.4,0.1-2.6-1-2.7-2.4C690.6,17.9,691.7,16.7,693.1,16.6C693.1,16.6,693.1,16.6,693.1,16.6L693.1,16.6z"/>
		<path class="st15" d="M653,27.5l24.1,23c1,1,2.7,0.9,3.6-0.1c0,0,0,0,0,0l14.1-15.2l21,19.6v6H612.8V50.3l15.8-15.1l5.8,6.6
			c0.9,1.1,2.6,1.2,3.6,0.2c0,0,0.1-0.1,0.1-0.1L653,27.5L653,27.5z"/>
	</g>
	<g>
		<path class="st15" d="M1146.4-894.4v-47.5l0,0v-25.4c0-1.2-1-2.2-2.2-2.2h-78.5c-1.2,0-2.2,1-2.2,2.2v84.2c0,1.2,1,2.2,2.2,2.2
			h86.8C1148.8-884.2,1146.4-889,1146.4-894.4z M1088-962.4c4.8,0,8.7,3.9,8.7,8.7c0,4.8-3.9,8.7-8.7,8.7c-4.8,0-8.7-3.9-8.7-8.7
			C1079.3-958.5,1083.2-962.4,1088-962.4z M1071.5-925v-2.5c0-8.1,7.6-14.6,17-14.6c9.4,0,17,6.5,17,14.6v2.5c0,1.2-1,2.2-2.2,2.2
			h-29.7C1072.5-922.8,1071.5-923.8,1071.5-925z M1132.1-892.2h-56.4c-1.2,0-2.2-1-2.2-2.2c0-1.2,1-2.2,2.2-2.2h56.4
			c1.2,0,2.2,1,2.2,2.2C1134.3-893.2,1133.3-892.2,1132.1-892.2z M1132.1-912h-56.4c-1.2,0-2.2-1-2.2-2.2c0-1.2,1-2.2,2.2-2.2h56.4
			c1.2,0,2.2,1,2.2,2.2C1134.3-913,1133.3-912,1132.1-912z M1132.1-931.7h-23.4c-1.2,0-2.2-1-2.2-2.2c0-1.2,1-2.2,2.2-2.2h23.4
			c1.2,0,2.2,1,2.2,2.2C1134.3-932.7,1133.3-931.7,1132.1-931.7z M1132.1-951.5h-23.4c-1.2,0-2.2-1-2.2-2.2c0-1.2,1-2.2,2.2-2.2
			h23.4c1.2,0,2.2,1,2.2,2.2C1134.3-952.5,1133.3-951.5,1132.1-951.5z"/>
		<path class="st15" d="M1175.5-944.1H1153c-1.2,0-2.2,1-2.2,2.2v47.5c0,7.4,6,13.5,13.5,13.5c7.4,0,13.5-6,13.5-13.5v-47.5
			C1177.7-943.1,1176.7-944.1,1175.5-944.1z"/>
	</g>
	<g>
		<rect x="179.2" y="-634.3" class="st15" width="52" height="19.1"/>
		<g>
			<polyline class="st15" points="233.9,-568 233.9,-585.3 254.5,-585.3 254.5,-639.2 234,-639.2 234,-662.2 			"/>
			<polyline class="st15" points="176.4,-662.2 176.4,-639.2 155.7,-639.2 155.7,-585.3 176.4,-585.3 176.4,-568 			"/>
			<polyline class="st15" points="183.4,-574.9 183.4,-595.6 227,-595.6 227,-574.9 			"/>
			<rect x="220" y="-625.5" class="st15" width="20.8" height="6.9"/>
		</g>
	</g>
	<path class="st15" d="M697-623.5h-29.6l22-25.7h0.6c4.8,0.1,8.7-3.8,8.8-8.6c0.1-4.8-3.8-8.7-8.6-8.8c-4.8-0.1-8.7,3.8-8.8,8.6
		c0,1.6,0.4,3.2,1.2,4.6l-20.3,23.6l-15.8-20.2c1.9-4.3,0-9.3-4.3-11.2c-4.3-1.9-9.3,0-11.2,4.3c-1.9,4.3,0,9.3,4.3,11.2
		c1.1,0.5,2.2,0.7,3.4,0.7c0.5,0,1.1,0,1.6,0l16.9,21.5h-25.5c-4.4,0-7.9,3.5-7.9,7.9v43.9c0,4.4,3.5,7.9,7.9,7.9H697
		c4.4,0,7.9-3.5,7.9-7.9v-44C704.9-620,701.4-623.5,697-623.5z M672.6-590.9L661.7-580c-1.5,1.5-4,1.6-5.6,0
		c-0.7-0.7-1.2-1.7-1.2-2.8v-21.7c0.1-2.2,1.9-3.9,4.1-3.8c1,0,2,0.5,2.7,1.2l10.8,10.8C674-594.8,674-592.4,672.6-590.9
		L672.6-590.9z"/>
	<g>
		<path class="st15" d="M1083.5-571v-81.1h57.4v5.1h-52.4v76H1083.5z M1091.9-562.6v-81.1h57.4v5.1H1097v76H1091.9z M1147.6-564.3
			v7.8l7.8-7.8H1147.6z M1100.4-635.2v81.1h43.9v-13.5h13.5v-67.6H1100.4z M1110.5-601.4h11.8v3.4h-11.8V-601.4z M1118.9-567.7h-5.1
			v-10.1h5.1V-567.7z M1130.8-567.7h-8.4v-23.6h8.4V-567.7z M1139.2-567.7h-5.1v-16.9h5.1V-567.7z M1147.6-606.5h-37.2v-3.4h37.2
			V-606.5z M1147.6-615h-37.2v-3.4h37.2V-615z M1147.6-623.4h-37.2v-3.4h37.2V-623.4z"/>
	</g>
	<g>
		<rect x="-59.6" y="-5226.7" class="st16" width="73.7" height="72.7"/>
		<rect x="-50.2" y="-5215" class="st5" width="68.4" height="67.3"/>
		<text transform="matrix(1 0 0 1 -50.2383 -5174.5742)" class="st0 st7" style="font-size:56.908px;">U2</text>
	</g>
	<g>
		<rect x="-61" y="-5358.9" class="st16" width="73.7" height="72.7"/>
		<rect x="-48.9" y="-5347.2" class="st5" width="68.4" height="67.3"/>
		<text transform="matrix(1 0 0 1 -48.8824 -5306.7949)" class="st0 st7" style="font-size:56.908px;">U1</text>
	</g>
	<g>
		<rect x="-59.6" y="-5094.5" class="st16" width="73.7" height="72.7"/>
		<rect x="-50.2" y="-5082.8" class="st5" width="68.4" height="67.3"/>
		<text transform="matrix(1 0 0 1 -50.2383 -5042.3535)" class="st0 st7" style="font-size:56.908px;">U3</text>
	</g>
	<g>
		<rect x="-60.1" y="-4962.2" class="st16" width="73.7" height="72.7"/>
		<rect x="-49.8" y="-4950.5" class="st5" width="68.4" height="67.3"/>
		<text transform="matrix(1 0 0 1 -49.7857 -4910.1328)" class="st0 st7" style="font-size:56.908px;">U4</text>
	</g>
	<g>
		<rect x="-59.6" y="-4830.5" class="st16" width="73.7" height="72.7"/>
		<rect x="-50.2" y="-4817.9" class="st5" width="68.4" height="67.3"/>
		<text transform="matrix(1 0 0 1 -50.2383 -4777.459)" class="st0 st7" style="font-size:56.908px;">U5</text>
	</g>
	<rect x="892.1" y="-5357.3" class="st5" width="434.6" height="125.7"/>
	<text transform="matrix(1 0 0 1 892.144 -5331.7173)"><tspan x="0" y="0" style="font-family:'UTM-Avo'; font-size:36px;">POST ADS, BANNER, </tspan><tspan x="0" y="43.2" style="font-family:'UTM-Avo'; font-size:36px;">SQUARE POSTS</tspan></text>
	<rect x="892.1" y="-5195.2" class="st5" width="737.7" height="125.7"/>
	<text transform="matrix(1 0 0 1 892.144 -5169.6724)" style="font-family:'UTM-Avo'; font-size:36px;">TYPOGRAPHY NACIS</text>
	<rect x="892.1" y="-5060.4" class="st5" width="737.7" height="46.3"/>
	<text transform="matrix(1 0 0 1 892.144 -5034.8457)" style="font-family:'UTM-Avo'; font-size:36px;">ADVANCED MASK TECH</text>
	<rect x="892.1" y="-4931" class="st5" width="737.7" height="125.7"/>
	<text transform="matrix(1 0 0 1 892.144 -4905.4404)" style="font-family:'UTM-Avo'; font-size:36px;">CV &amp; CL DESIGN</text>
	<rect x="892.1" y="-4820.9" class="st5" width="737.7" height="125.7"/>
	<text transform="matrix(1 0 0 1 892.144 -4800.9834)"><tspan x="0" y="0" style="font-family:'UTM-Avo'; font-size:28.0023px;">Bạn vui lòng liên hệ để có </tspan><tspan x="0" y="33.6" style="font-family:'UTM-Avo'; font-size:28.0023px;">chương trình học chi tiết và cụ thể</tspan></text>
	<g>
		<rect x="773.2" y="-5224.9" class="st16" width="73.7" height="72.7"/>
		<rect x="782.6" y="-5213.2" class="st5" width="68.4" height="67.3"/>
		<text transform="matrix(1 0 0 1 782.6401 -5172.7681)" class="st0 st7" style="font-size:56.908px;">U7</text>
	</g>
	<g>
		<rect x="771.9" y="-5357.1" class="st16" width="73.7" height="72.7"/>
		<rect x="784" y="-5345.4" class="st5" width="68.4" height="67.3"/>
		<text transform="matrix(1 0 0 1 783.9976 -5304.9883)" class="st0 st7" style="font-size:56.908px;">U6</text>
	</g>
	<g>
		<rect x="773.2" y="-5092.7" class="st16" width="73.7" height="72.7"/>
		<rect x="782.6" y="-5081" class="st5" width="68.4" height="67.3"/>
		<text transform="matrix(1 0 0 1 782.6401 -5040.5469)" class="st0 st7" style="font-size:56.908px;">U8</text>
	</g>
	<g>
		<rect x="772.8" y="-4960.4" class="st16" width="73.7" height="72.7"/>
		<rect x="783.1" y="-4948.7" class="st5" width="68.4" height="67.3"/>
		<text transform="matrix(1 0 0 1 783.0933 -4908.3262)" class="st0 st7" style="font-size:56.908px;">U9</text>
	</g>
	<g>
		<rect x="773.2" y="-4828.7" class="st16" width="73.7" height="72.7"/>
		<rect x="782.6" y="-4816.1" class="st5" width="68.4" height="67.3"/>
		<text transform="matrix(1 0 0 1 782.6401 -4775.6523)" class="st0 st7" style="font-size:56.908px;">A</text>
	</g>
	<rect x="-167.5" y="475.7" class="st5" width="733.3" height="287.9"/>
	<text transform="matrix(1 0 0 1 -167.4864 489.9853)"><tspan x="0" y="0" class="st14" style="font-family:'HelveticaNeue-Bold'; font-size:20px;">Lưu ý: vì số lượng mỗi lớp hạn chế nên các bạn nhanh tay </tspan><tspan x="0" y="29" class="st14" style="font-family:'HelveticaNeue-Bold'; font-size:20px;">đăng kí sớm và đóng học phí để mình giữ chỗ và xếp lớp.</tspan><tspan x="0" y="87" class="st14" style="font-family:'HelveticaNeue-Bold'; font-size:20px;">Đăng kí trong 72h- Giảm 5% học phí</tspan><tspan x="0" y="116" class="st14" style="font-family:'HelveticaNeue-Bold'; font-size:20px;">Học phí: các bạn vui lòng inbox và sẽ cung cấp số TK </tspan><tspan x="0" y="174" class="st14" style="font-family:'HelveticaNeue-Bold'; font-size:20px;">p/s: Về bài học số 5 và bài số 6 trong chương trình học, </tspan><tspan x="0" y="203" class="st14" style="font-family:'HelveticaNeue-Bold'; font-size:20px;">các bạn sẽ biết cách làm đẹp hình ảnh của chính </tspan><tspan x="0" y="232" class="st14" style="font-family:'HelveticaNeue-Bold'; font-size:20px;">các bạn khi post lên Facebook</tspan></text>
	<g>
		<path class="st10" d="M25.1,0C11.2,0,0,10.7,0,23.9c0,3.8,0.9,7.5,2.7,10.9l0,0c7,11.8,15,23.8,22.5,35.6
			c7-12.1,15.6-23.4,22.3-35.6c1.8-3.4,2.7-7.1,2.7-10.9C50.3,10.7,39,0,25.1,0L25.1,0L25.1,0z M25.1,10c7.3,0,13.3,5.9,13.3,13.3v0
			c0,7.3-5.9,13.3-13.3,13.3c0,0,0,0,0,0c-7.3,0-13.3-5.9-13.3-13.3C11.9,16,17.8,10,25.1,10L25.1,10z"/>
	</g>
	<g>
		<path class="st10" d="M408.3-4.4c-13.9,0-25.1,10.7-25.1,23.9c0,3.8,0.9,7.5,2.7,10.9l0,0c7,11.8,15,23.8,22.5,35.6
			c7-12.1,15.6-23.4,22.3-35.6c1.8-3.4,2.7-7.1,2.7-10.9C433.4,6.3,422.1-4.4,408.3-4.4L408.3-4.4L408.3-4.4z M408.3,5.7
			c7.3,0,13.3,5.9,13.3,13.3v0c0,7.3-5.9,13.3-13.3,13.3c0,0,0,0,0,0c-7.3,0-13.3-5.9-13.3-13.3C395,11.6,400.9,5.7,408.3,5.7
			L408.3,5.7z"/>
	</g>
	<rect x="-171.9" y="96.1" class="st5" width="394" height="77.6"/>
	<text transform="matrix(1 0 0 1 -148.9942 109.6289)"><tspan x="0" y="0" class="st14" style="font-family:'HelveticaNeue-Bold'; font-size:19px;">345/86 Trần Hưng Đạo P. Cầu Kho Q.1 </tspan><tspan x="24.1" y="29" class="st14" style="font-family:'HelveticaNeue-Bold'; font-size:19px;">(KHỐI NGÀNH 3D &amp; Talent Team)</tspan></text>
	<rect x="-138.4" y="275.4" class="st5" width="327" height="77.6"/>
	<text transform="matrix(1 0 0 1 -47.1499 293.9529)" class="st14" style="font-family:'HelveticaNeue-Bold'; font-size:26px;">0932709998</text>
	<rect x="244.8" y="275.4" class="st5" width="327" height="77.6"/>
	<text transform="matrix(1 0 0 1 328.7602 293.9529)" class="st14" style="font-family:'HelveticaNeue-Bold'; font-size:26px;">0378 277 414 </text>
	<rect x="244.8" y="91.7" class="st5" width="327" height="77.6"/>
	<text transform="matrix(1 0 0 1 292.6684 105.9834)" class="st14" style="font-family:'HelveticaNeue-Bold'; font-size:20px;">20 PHAN VĂN TRỊ P2 Q5</text>
	<g transform="translate(0,-952.36218)">
		<path class="st10" d="M46.7,1139.6c3.8,4,6.7,7.8,7.3,11.4c-0.1,8.3-7.9,18.6-17.3,27.9c-9.3,9.3-20.2,18.5-28,17.3
			c-3.7-0.6-7.5-3.5-11.5-7.4c-1.3-1.2-1.3-3.9,0-5.2l8-8c1.4-1.4,4.1-1.4,5.8-0.4l5.4,3.9c2.9,2.4,8.9-3.6,12.9-7.6
			c4-4,10.1-9.4,7.5-13l-3.9-5.4c-0.9-1.7-0.9-4.4,0.4-5.7l8-8C42.8,1138.2,45.4,1138.2,46.7,1139.6L46.7,1139.6z"/>
	</g>
	<g transform="translate(0,-952.36218)">
		<path class="st10" d="M429.9,1139.6c3.8,4,6.7,7.8,7.3,11.4c-0.1,8.3-7.9,18.6-17.3,27.9c-9.3,9.3-20.2,18.5-28,17.3
			c-3.7-0.6-7.5-3.5-11.5-7.4c-1.3-1.2-1.3-3.9,0-5.2l8-8c1.4-1.4,4.1-1.4,5.8-0.4l5.4,3.9c2.9,2.4,8.9-3.6,12.9-7.6
			c4-4,10.1-9.4,7.5-13l-3.9-5.4c-0.9-1.7-0.9-4.4,0.4-5.7l8-8C425.9,1138.2,428.6,1138.2,429.9,1139.6L429.9,1139.6z"/>
	</g>
	<rect x="243.5" y="-8570.8" width="63" height="63"/>
</g>
<g id="Layer_7">
	<rect x="-156.6" y="-8641.5" class="st5" width="864.3" height="96.7"/>
	<text transform="matrix(1 0 0 1 -156.5962 -8591.8252)" class="st16 st7" style="font-size:70px;">KODA PHOTOSHOP COURSE</text>
</g>
</svg>
