<svg width="25" height="24" viewBox="0 0 25 24" fill="none" xmlns="http://www.w3.org/2000/svg">
<path d="M12.1113 11.5C11.4483 11.5 10.8124 11.2366 10.3436 10.7678C9.87472 10.2989 9.61133 9.66304 9.61133 9C9.61133 8.33696 9.87472 7.70107 10.3436 7.23223C10.8124 6.76339 11.4483 6.5 12.1113 6.5C12.7744 6.5 13.4103 6.76339 13.8791 7.23223C14.3479 7.70107 14.6113 8.33696 14.6113 9C14.6113 9.3283 14.5467 9.65339 14.421 9.95671C14.2954 10.26 14.1112 10.5356 13.8791 10.7678C13.6469 10.9999 13.3714 11.1841 13.068 11.3097C12.7647 11.4353 12.4396 11.5 12.1113 11.5ZM12.1113 2C10.2548 2 8.47434 2.7375 7.16158 4.05025C5.84883 5.36301 5.11133 7.14348 5.11133 9C5.11133 14.25 12.1113 22 12.1113 22C12.1113 22 19.1113 14.25 19.1113 9C19.1113 7.14348 18.3738 5.36301 17.0611 4.05025C15.7483 2.7375 13.9678 2 12.1113 2Z" fill="white"/>
</svg>
