<svg width="329" height="40" viewBox="0 0 329 40" fill="none" xmlns="http://www.w3.org/2000/svg">
<g clip-path="url(#clip0_1132_50803)">
<path d="M62.535 8.74267C60.4549 9.91722 58.771 11.5159 57.1531 13.1799C56.2947 14.0608 55.6343 15.0069 55.2051 16.1489C55.007 16.6383 55.007 17.1277 55.3702 17.5192C55.7994 18.0086 56.1296 17.4213 56.4928 17.2908C57.7805 16.8014 59.0351 16.051 60.653 16.5078C58.837 17.3887 56.7899 17.5518 55.3372 19.2158C56.3937 19.542 57.2852 19.4441 58.0776 19.1831C62.1718 17.9107 65.6717 15.7247 68.2471 12.3642C70.9876 8.80792 69.6339 5.83892 65.0774 5.34952C59.8606 4.79487 55.3371 6.32831 51.441 9.78671C50.0873 10.9613 49.7241 12.3316 50.6816 14.2892C47.9742 12.1684 47.743 10.4719 49.8562 8.48166C54.3136 4.24022 59.7285 2.7394 65.7708 3.75082C70.2942 4.50123 72.3083 8.93843 69.898 12.821C67.0915 17.3887 62.8982 20.1945 57.5493 21.2386C57.2192 21.3038 56.889 21.3038 56.5588 21.2712C54.4787 21.1081 53.8513 19.803 54.974 18.1065C52.6957 17.0298 52.3655 15.9857 53.9834 14.0281C56.2286 11.418 59.0021 9.46045 62.535 8.74267Z" fill="#005B72"/>
<path d="M88.0583 11.7771C89.7753 12.658 89.8083 12.8211 88.6196 14.2567C87.7612 15.3007 86.8367 16.3448 86.1763 17.5193C85.4829 18.7591 84.9877 19.9989 85.9452 21.4019C83.9971 21.2061 83.733 20.8472 83.7 18.3676C83.9641 17.6498 84.2283 16.9321 84.4924 16.2469C84.9547 15.627 85.516 15.0397 85.681 14.0936C84.9216 14.3872 84.4594 14.7787 84.0632 15.3007C82.0161 16.8994 80.068 18.6286 78.4171 20.6515C78.0539 21.1082 77.7898 22.087 76.9974 21.4671C76.37 20.9777 76.37 20.0642 76.8983 19.3464C78.285 17.4214 79.7378 15.5291 81.0586 13.5389C81.2567 13.2453 82.7425 12.7559 81.2567 12.0707C81.0916 11.9728 81.6529 11.6139 81.95 11.4508C82.7094 10.9614 83.4689 10.8635 84.1952 11.4834C85.0207 12.1686 84.2283 12.7232 84.0632 13.3431C83.7 13.7999 83.3698 14.2241 83.0066 14.6808C82.8085 14.8766 82.3462 15.0723 82.6104 15.3334C82.8745 15.627 83.1387 15.2029 83.3368 15.0071C83.766 14.6482 84.1952 14.2567 84.6245 13.8978C85.7471 13.2453 86.6386 12.0707 88.0583 11.7771Z" fill="#005B72"/>
<path d="M78.1533 12.4953C74.9176 12.0059 69.9649 15.6927 69.6017 18.8248C69.4696 19.8688 69.8659 20.4235 70.9885 20.1625C73.2007 19.6731 76.4364 15.5622 76.3043 13.2783C76.2713 12.6584 76.5685 12.8215 76.8326 12.8215C77.7901 12.8215 78.1533 13.4088 78.2194 14.2897C78.4175 17.324 72.9365 21.9569 69.9319 21.2718C68.8423 21.0108 68.3801 20.3256 68.215 19.1837C67.5876 15.3338 73.6629 9.85253 77.1298 10.7008C77.1628 10.7008 77.1958 10.6356 77.2288 10.6029L77.1958 10.5703C76.8656 11.5165 78.4175 11.5817 78.1533 12.4953Z" fill="#005B72"/>
<path d="M77.1959 10.604C76.6015 9.6905 75.545 9.33161 74.8516 8.54858C74.4554 8.12444 74.0922 7.70029 74.6865 7.2109C75.3138 6.68888 75.7431 6.98251 76.1063 7.60242C76.5355 8.35282 76.9978 9.0706 77.526 9.75576C77.9883 10.3104 77.427 10.343 77.1959 10.604Z" fill="#005B72"/>
<path d="M78.1211 12.5287L78.2204 12.5613L78.1542 12.4961L78.1211 12.5287Z" fill="#005B72"/>
<path d="M221.747 13.0828C219.997 15.5298 218.544 17.5526 217.026 19.7059C215.507 17.5852 214.054 15.595 212.634 13.5722C212.502 13.6048 212.403 13.6374 212.271 13.6701C212.271 15.334 212.238 16.9653 212.271 18.6293C212.304 19.5754 212.073 19.9996 211.016 19.9996C209.927 19.9996 209.762 19.5102 209.762 18.5966C209.795 15.8887 209.762 13.1807 209.795 10.4727C209.795 9.95064 209.465 9.06973 210.257 8.93922C211.149 8.80872 212.205 8.4172 212.964 9.49387C214.252 11.3536 215.606 13.2133 217.026 15.2035C218.313 13.409 219.634 11.8103 220.658 10.0159C221.417 8.74347 222.441 8.80872 223.596 8.84135C224.158 8.84135 224.356 9.10236 224.356 9.65701C224.356 12.7891 224.323 15.9539 224.356 19.086C224.356 20.1627 223.629 19.9343 223.002 19.967C222.309 19.9996 221.681 20.0648 221.714 19.0208C221.78 17.1611 221.747 15.334 221.747 13.0828Z" fill="#00A6CE"/>
<path d="M132.996 19.9351C131.906 19.9351 130.783 20.0004 129.694 19.9351C127.416 19.772 126.095 18.369 126.062 16.1178C126.029 14.9106 126.029 13.7361 126.062 12.5289C126.095 10.3103 127.482 8.8095 129.694 8.74425C131.873 8.679 134.085 8.679 136.297 8.74425C138.675 8.84213 140.028 10.1798 140.127 12.5289C140.194 13.7035 140.194 14.9106 140.127 16.1178C140.028 18.4017 138.609 19.8372 136.264 19.9351C135.208 20.0004 134.085 19.9351 132.996 19.9351ZM133.029 17.3576C138.179 17.2924 137.453 18.108 137.552 12.8552C137.585 11.7459 137.057 11.2891 135.967 11.2891C134.052 11.3217 132.137 11.3217 130.189 11.2891C129.166 11.2891 128.67 11.6806 128.67 12.7247C128.802 18.1407 127.878 17.2924 133.029 17.3576Z" fill="#00A6CE"/>
<path d="M166.739 8.84216C167.895 8.84216 169.051 8.7769 170.206 8.84216C171.923 8.94004 173.211 10.1798 173.277 11.8764C173.343 13.5077 173.376 15.1391 173.277 16.7378C173.178 18.5322 171.758 19.8373 169.744 19.9025C167.499 19.9678 165.254 19.9025 163.008 19.9351C162.117 19.9678 161.853 19.5436 161.919 18.7606C161.952 18.1081 161.919 17.4555 161.919 16.803C161.919 16.1831 161.853 15.7916 161.126 15.4001C160.235 14.9107 160.466 13.4099 160.928 13.2141C162.447 12.6594 161.919 11.5175 161.853 10.6366C161.754 9.13579 162.249 8.58114 163.768 8.74428C164.758 8.94004 165.749 8.84216 166.739 8.84216ZM167.466 11.2891C166.739 11.2891 166.046 11.2891 165.32 11.2891C164.758 11.2891 164.362 11.4196 164.362 12.1048C164.329 12.7573 164.527 13.1815 165.254 13.1162C166.112 13.051 166.706 13.1488 166.706 14.2908C166.706 15.3022 166.343 15.6611 165.353 15.5632C164.692 15.498 164.362 15.759 164.362 16.4767C164.362 17.325 164.824 17.4555 165.518 17.4229C166.409 17.3903 167.268 17.4229 168.159 17.4229C170.867 17.4229 170.867 17.4229 170.867 14.6823C170.834 11.2891 170.834 11.2891 167.466 11.2891Z" fill="#00A6CE"/>
<path d="M251.133 8.74414C252.619 8.77677 254.072 8.80939 255.557 8.84202C258.595 8.87465 260.246 11.3543 259.057 14.1275C258.859 14.5843 258.595 14.9758 258.364 15.3999C257.538 15.9872 256.614 16.183 255.59 16.1503C253.51 16.1503 251.43 16.3135 249.35 16.2156C248.029 16.1503 247.798 16.705 247.798 17.8143C247.798 18.4994 248.392 19.5109 247.204 19.8697C245.784 20.2613 245.223 19.8371 245.223 18.3363C245.223 15.5957 245.256 12.8224 245.19 10.0818C245.157 9.10303 245.487 8.74414 246.51 8.77677C248.062 8.87465 249.581 8.77677 251.133 8.74414ZM252.223 13.736C253.279 13.736 254.303 13.7034 255.359 13.736C256.284 13.7686 256.779 13.475 256.779 12.4309C256.779 11.4521 256.251 11.2564 255.425 11.2564C253.345 11.289 251.265 11.3216 249.152 11.2564C248.128 11.2237 247.831 11.5826 247.831 12.5614C247.831 13.5076 248.194 13.8012 249.086 13.736C250.142 13.7034 251.166 13.736 252.223 13.736Z" fill="#00A6CE"/>
<path d="M143.858 12.7567C143.858 14.8447 143.825 16.8676 143.891 18.8578C143.924 19.9345 143.33 19.9345 142.537 19.9671C141.712 19.9671 141.183 19.8692 141.216 18.8578C141.283 16.0845 141.216 13.3439 141.249 10.5707C141.249 9.98341 140.853 9.1025 141.712 8.87411C142.636 8.6131 143.66 8.51522 144.452 9.39614C146.169 11.3211 147.886 13.1808 149.603 15.1058C149.867 15.3994 150.098 15.693 150.726 15.8888C150.726 13.9965 150.759 12.1041 150.726 10.2118C150.693 9.233 150.858 8.71098 152.046 8.74361C153.169 8.77623 153.4 9.233 153.4 10.2118C153.334 12.8545 153.4 15.5299 153.367 18.1726C153.367 18.7599 153.763 19.6735 152.938 19.8692C152.046 20.0976 150.99 20.2607 150.197 19.3472C148.48 17.3896 146.697 15.4646 144.947 13.5071C144.683 13.2134 144.485 12.8545 143.858 12.7567Z" fill="#00A6CE"/>
<path d="M231.488 19.9339C229.837 19.9339 228.186 19.9012 226.535 19.9339C225.677 19.9665 225.38 19.6402 225.413 18.7919C225.446 15.8229 225.446 12.8213 225.413 9.85229C225.413 9.03663 225.677 8.67773 226.535 8.67773C229.837 8.71036 233.139 8.71036 236.408 8.67773C237.431 8.67773 237.53 9.23238 237.53 10.0154C237.53 10.7985 237.464 11.3857 236.408 11.3857C234.063 11.3531 231.686 11.4184 229.342 11.3531C228.351 11.3205 227.955 11.6467 228.021 12.6582C228.087 13.8327 228.087 15.0399 228.021 16.2144C227.988 17.0954 228.351 17.3237 229.177 17.3237C231.521 17.2911 233.898 17.3564 236.242 17.2911C237.299 17.2585 237.53 17.65 237.53 18.5962C237.53 19.575 237.266 19.9665 236.209 19.9012C234.691 19.9012 233.073 19.9339 231.488 19.9339Z" fill="#00A6CE"/>
<path d="M119.953 19.9335C118.798 19.9335 117.642 19.9661 116.487 19.9335C113.911 19.8683 112.557 18.4653 112.524 15.9531C112.524 14.7459 112.491 13.5714 112.524 12.3642C112.59 10.4066 113.878 8.87316 115.826 8.77528C118.567 8.64478 121.307 8.74266 124.081 8.71003C125.302 8.71003 124.939 9.52569 125.005 10.1782C125.071 10.896 124.972 11.418 123.982 11.418C121.571 11.3854 119.128 11.4506 116.718 11.3854C115.496 11.3528 115.067 11.8095 115.1 13.0167C115.199 18.0412 114.439 17.2908 119.458 17.356C120.878 17.3887 122.331 17.4213 123.751 17.3234C124.807 17.2582 125.005 17.7149 125.038 18.6285C125.038 19.6073 124.774 19.9988 123.751 19.9335C122.496 19.8683 121.208 19.9335 119.953 19.9335Z" fill="#00A6CE"/>
<path d="M181.433 19.9338C180.278 19.9338 179.122 19.9664 177.967 19.9338C175.853 19.8359 174.599 18.5961 174.566 16.5406C174.533 14.3873 174.599 12.2013 174.533 10.048C174.5 8.93865 175.028 8.84077 175.919 8.84077C176.943 8.80815 177.24 9.16704 177.207 10.1458C177.141 12.1034 177.24 14.061 177.174 16.0186C177.141 17.0953 177.57 17.4542 178.627 17.4215C180.542 17.3563 182.49 17.3563 184.405 17.4215C185.528 17.4542 185.825 16.9648 185.792 15.9533C185.759 14.061 185.759 12.1687 185.792 10.2437C185.792 9.16704 187.872 7.73148 188.895 8.02511C189.358 8.15562 189.325 8.41663 189.226 8.74289C188.334 11.4183 188.433 14.1589 188.367 16.9321C188.334 18.6287 186.881 19.8685 185.065 19.9338C183.844 19.999 182.622 19.9338 181.433 19.9338Z" fill="#00A6CE"/>
<path d="M260.213 15.4312C260.246 13.702 260.312 11.9728 260.279 10.2436C260.279 9.39529 260.345 8.80802 261.468 8.80802C262.524 8.80802 262.755 9.19953 262.755 10.1457C262.788 13.0495 262.821 13.0495 265.727 13.0495C267.213 13.0495 268.698 13.0168 270.184 13.0821C271.208 13.1147 271.604 12.7232 271.505 11.7444C271.472 11.255 271.538 10.7656 271.505 10.2762C271.406 9.29741 271.637 8.80802 272.826 8.77539C273.948 8.77539 274.212 9.19953 274.212 10.211C274.146 12.6906 274.179 15.2028 274.179 17.6824C274.179 20.162 273.948 20.3251 271.439 19.64C271.538 18.9875 271.571 18.3349 271.373 17.715C271.67 15.5291 271.637 15.4964 269.524 15.4964C267.708 15.4964 265.925 15.5291 264.109 15.4964C262.854 15.4638 262.524 15.9858 262.92 17.0951C262.887 17.5845 262.755 18.0739 262.788 18.5307C262.887 19.5421 262.59 19.9989 261.435 19.9663C260.246 19.9663 260.246 19.3464 260.279 18.4981C260.279 17.4866 260.246 16.4752 260.213 15.4312Z" fill="#00A6CE"/>
<path d="M196.983 8.84163C198.205 8.84163 199.394 8.87425 200.615 8.84163C201.54 8.809 202.035 8.97213 202.002 10.0488C202.002 11.0602 201.639 11.3539 200.648 11.3212C198.403 11.256 196.158 11.3539 193.913 11.2886C192.526 11.256 192.097 11.8106 192.097 13.1157C192.196 18.0423 191.536 17.3245 196.356 17.3571C197.842 17.3571 199.328 17.4224 200.814 17.3571C201.804 17.3245 202.035 17.7486 201.969 18.5969C201.936 19.3147 202.035 19.9999 200.913 19.9672C198.337 19.902 195.762 19.9999 193.186 19.9346C190.974 19.8694 189.653 18.4338 189.62 16.3131C189.587 14.9101 189.587 13.5072 189.62 12.1043C189.687 10.2446 190.941 9.00476 192.856 8.87425C192.955 8.87425 193.087 8.87425 193.186 8.87425C194.474 8.84163 195.729 8.84163 196.983 8.84163Z" fill="#00A6CE"/>
<path d="M188.499 30.8977C187.542 32.2028 186.617 33.5405 185.594 34.9108C184.603 33.5405 183.646 32.2354 182.391 30.5062C182.391 32.007 182.358 33.0511 182.391 34.0951C182.424 34.7476 182.259 35.1065 181.5 35.1065C180.773 35.1065 180.542 34.8455 180.575 34.1604C180.608 32.3659 180.575 30.5714 180.608 28.8096C180.608 28.3855 180.311 27.7003 181.004 27.5698C181.665 27.4393 182.391 27.3414 182.886 28.0918C183.712 29.3643 184.636 30.5714 185.594 31.9091C186.551 30.6041 187.443 29.4295 188.202 28.1897C188.731 27.3741 189.457 27.3414 190.216 27.5372C190.976 27.7003 190.613 28.4507 190.613 28.9075C190.646 30.6367 190.613 32.3659 190.646 34.0951C190.646 34.7803 190.481 35.0739 189.721 35.0739C188.995 35.0739 188.764 34.7803 188.797 34.0951C188.83 33.0511 188.797 31.9744 188.797 30.8977C188.698 30.9303 188.599 30.9303 188.499 30.8977Z" fill="#006177"/>
<path d="M171.627 35.0727C171.561 35.0727 171.528 35.0727 171.462 35.0727C165.981 35.3989 166.674 33.5718 166.74 29.8198C166.74 28.3842 167.698 27.536 169.183 27.5033C170.9 27.4381 172.584 27.5033 174.301 27.4707C174.995 27.4707 175.259 27.6338 175.259 28.3842C175.259 29.1673 174.896 29.2652 174.268 29.2652C172.782 29.2325 171.297 29.2978 169.811 29.2325C168.919 29.1999 168.556 29.4935 168.523 30.4397C168.424 33.3761 168.391 33.3761 171.297 33.3761C171.363 33.3761 171.396 33.3761 171.462 33.3761C172.122 33.1803 173.278 33.8655 173.344 32.8214C173.41 31.7774 172.254 32.2342 171.66 32.2015C170.933 32.1689 170.933 31.7448 170.9 31.2554C170.867 30.6028 171.165 30.4723 171.759 30.4397C175.226 30.1461 175.16 30.1461 175.259 33.5718C175.292 34.8769 174.896 35.301 173.608 35.1379C172.947 35.0074 172.287 35.0727 171.627 35.0727Z" fill="#006177"/>
<path d="M152.113 27.4707C152.774 27.4707 153.434 27.4707 154.094 27.4707C155.811 27.5033 156.703 28.3516 156.835 30.0156C156.835 30.0808 156.835 30.1134 156.835 30.1787C156.868 33.8329 157.165 35.3663 152.179 35.0727C152.113 35.0727 152.08 35.0727 152.014 35.0727C147.458 35.0727 147.061 34.6811 147.227 30.1787C147.293 28.3842 148.151 27.536 149.967 27.4707C150.693 27.4707 151.387 27.4707 152.113 27.4707ZM151.948 33.3435C155.316 33.2782 155.019 33.8002 155.052 31.3859C155.085 29.1999 155.052 29.1999 152.807 29.1999C152.212 29.1999 151.585 29.2652 150.991 29.1999C149.34 28.9715 148.91 29.6567 149.01 31.1901C149.142 33.3108 149.043 33.3435 151.288 33.3435C151.486 33.3435 151.717 33.3435 151.948 33.3435Z" fill="#006177"/>
<path d="M209.333 27.4707C210.257 27.4707 211.215 27.4707 212.139 27.4707C213.757 27.5033 214.682 28.4169 214.715 29.9829C214.748 31.5164 213.79 32.5278 212.206 32.5931C211.116 32.6257 209.993 32.6583 208.904 32.5931C207.55 32.4952 206.493 32.5604 206.791 34.3549C206.923 35.1053 206.328 35.0727 205.8 35.0727C205.305 35.0727 204.975 34.9422 204.975 34.3549C205.008 32.2994 204.975 30.244 204.975 28.1559C204.975 27.536 205.338 27.4707 205.833 27.4707C207.022 27.5033 208.177 27.4707 209.333 27.4707ZM209.762 30.8312C210.522 30.8312 211.281 30.8312 212.04 30.8312C212.536 30.8312 212.866 30.6681 212.866 30.1134C212.866 29.6241 212.734 29.2325 212.172 29.2325C210.588 29.1999 209.003 29.2325 207.451 29.2325C206.824 29.2325 206.857 29.6893 206.824 30.1461C206.824 30.6028 207.022 30.8312 207.484 30.8312C208.243 30.8312 209.003 30.8312 209.762 30.8312Z" fill="#006177"/>
<path d="M137.883 31.1249C137.883 27.4707 137.883 27.4707 141.614 27.4707C141.68 27.4707 141.713 27.4707 141.779 27.4707C146.104 27.4707 147.227 28.841 146.335 33.0498C146.104 34.2244 145.378 35.0074 144.09 35.04C142.274 35.1053 140.491 35.04 138.675 35.0727C138.015 35.0727 137.85 34.779 137.85 34.1918C137.916 33.1803 137.883 32.1689 137.883 31.1249ZM142.142 33.3435C142.835 33.1151 143.991 33.8329 144.42 32.9193C144.882 31.9079 144.849 30.6355 144.42 29.5914C144.123 28.841 143.132 29.1999 142.472 29.1999C139.236 29.2325 139.732 28.58 139.633 32.0384C139.6 33.1803 140.029 33.474 141.052 33.3435C141.35 33.3108 141.68 33.3435 142.142 33.3435Z" fill="#006177"/>
<path d="M215.243 31.2241C215.243 30.3432 215.243 29.4949 215.243 28.614C215.243 27.9941 215.177 27.4395 216.135 27.4395C217.026 27.4395 217.191 27.8962 217.059 28.5488C216.762 30.2127 217.521 30.6368 219.04 30.4085C219.535 30.3432 220.031 30.3432 220.526 30.4085C222.243 30.6368 223.465 30.4085 223.002 28.2225C222.87 27.5373 223.332 27.4395 223.894 27.4395C224.488 27.4395 224.818 27.5373 224.785 28.2225C224.752 30.2127 224.752 32.2355 224.785 34.2258C224.785 34.8783 224.554 35.074 223.927 35.074C223.233 35.074 222.837 34.8783 222.969 34.1605C223.332 32.3008 222.342 31.9419 220.757 32.1377C220.229 32.2029 219.667 32.2029 219.106 32.1377C217.521 31.9093 216.696 32.3987 217.026 34.0952C217.158 34.7478 216.894 35.074 216.135 35.074C215.408 35.074 215.177 34.813 215.21 34.0952C215.276 33.1817 215.243 32.2029 215.243 31.2241Z" fill="#006177"/>
<path d="M254.172 35.0723C254.106 35.0723 254.073 35.0723 254.007 35.0723C249.748 35.0723 248.592 33.702 249.517 29.4606C249.781 28.2208 250.639 27.503 251.96 27.503C253.479 27.4704 255.03 27.4704 256.549 27.503C258.068 27.5682 259.026 28.4492 259.026 29.95C259.125 33.7999 259.587 35.3986 254.172 35.0723ZM254.271 33.3431C254.997 33.3431 255.691 33.3431 256.417 33.3431C256.912 33.3431 257.243 33.18 257.375 32.6906C258.101 30.3089 257.309 29.1996 254.832 29.1996C253.974 29.1996 253.082 29.1996 252.224 29.1996C251.63 29.1996 251.366 29.4606 251.266 30.0478C250.771 32.8211 251.2 33.3431 253.974 33.3431C254.04 33.3431 254.139 33.3431 254.271 33.3431Z" fill="#005B72"/>
<path d="M164.065 32.5929C164.065 30.8637 164.098 29.6239 164.065 28.3841C164.032 27.6337 164.363 27.4705 165.056 27.4705C165.716 27.4705 165.914 27.7315 165.914 28.3514C165.881 30.1459 165.914 31.9403 165.881 33.7022C165.881 34.1589 166.212 34.9093 165.419 35.0399C164.792 35.1377 164.131 35.203 163.636 34.5505C162.547 33.2454 161.391 32.0382 160.268 30.7658C160.103 30.57 159.971 30.309 159.443 30.3743C159.443 31.6141 159.443 32.8865 159.443 34.1589C159.443 34.7136 159.344 35.0725 158.65 35.0725C157.924 35.0725 157.693 34.8441 157.693 34.1263C157.726 32.3971 157.693 30.6679 157.726 28.9387C157.726 28.4493 157.363 27.7315 158.056 27.5031C158.816 27.2748 159.509 27.4379 160.103 28.123C161.226 29.5586 162.514 30.8963 164.065 32.5929Z" fill="#006177"/>
<path d="M93.2421 16.6727C93.9024 16.2159 94.5298 15.7265 95.1901 15.2697C95.7514 14.8782 96.2797 14.9435 96.808 15.3676C97.4023 15.857 97.1052 16.3138 96.874 16.7706C96.6099 17.3578 96.3127 17.9125 96.0486 18.4998C96.0156 18.6303 96.0156 18.7608 95.9826 18.8913C96.1146 18.8586 96.2467 18.826 96.4118 18.7934C96.6759 18.826 97.0722 18.7934 97.1382 18.9565C97.3693 19.3807 96.9071 19.3154 96.709 19.348C95.6854 19.4786 95.1241 20.1311 94.5958 20.9467C93.143 23.1653 91.6572 25.4166 89.4781 27.0479C88.4215 27.8635 87.2328 28.8423 85.7801 27.8635C84.8886 27.2763 85.3838 25.7102 86.6715 24.1115C87.563 23.0348 88.9498 22.4802 89.7092 21.273H89.6762C93.044 20.2616 94.5628 18.7281 94.7939 16.0854C94.3647 16.379 93.9685 16.6727 93.5723 16.9337C93.4732 16.8684 93.3742 16.7706 93.2421 16.6727ZM93.011 20.5226C90.2375 21.8929 88.0253 23.2632 86.5725 25.6123C86.3084 26.0365 85.9451 26.6564 86.4734 27.0805C86.9027 27.4068 87.431 27.0479 87.8272 26.7542C89.9073 25.1229 91.5582 23.1653 93.011 20.5226Z" fill="#005B72"/>
<path d="M248.757 31.4184C248.757 32.2993 248.724 33.1476 248.757 34.0285C248.79 34.7463 248.658 35.1378 247.799 35.1378C247.007 35.1052 246.974 34.7463 246.908 34.1264C246.875 33.5065 247.337 32.4625 246.479 32.2993C245.224 32.0709 243.837 32.1362 242.582 32.3646C241.988 32.4625 242.318 33.4086 242.318 33.9959C242.285 34.6158 242.384 35.1705 241.427 35.1378C240.436 35.1378 240.568 34.5179 240.568 33.9633C240.568 32.1362 240.601 30.2765 240.568 28.4494C240.568 27.7643 240.766 27.5033 241.493 27.5033C242.186 27.5033 242.285 27.7969 242.318 28.3842C242.351 29.0693 241.955 30.1786 242.582 30.3091C243.903 30.5701 245.323 30.5375 246.677 30.3417C247.304 30.2439 246.941 29.2977 246.974 28.7431C247.007 28.0579 246.908 27.4706 247.964 27.5033C248.922 27.5359 248.823 28.0905 248.823 28.7104C248.757 29.5587 248.757 30.4723 248.757 31.4184Z" fill="#006177"/>
<path d="M132.599 31.3863C132.599 32.2998 132.566 33.246 132.599 34.1595C132.632 34.8447 132.4 35.1057 131.674 35.1057C130.981 35.0731 130.585 34.8773 130.717 34.1595C131.08 32.3324 130.122 31.9083 128.537 32.1367C128.108 32.2019 127.646 32.1693 127.217 32.1367C125.665 32.0062 124.278 32.0388 124.773 34.2574C124.905 34.8773 124.542 35.1057 123.915 35.1057C123.321 35.1057 123.023 34.9426 123.023 34.29C123.056 32.2998 123.056 30.277 123.023 28.2868C123.023 27.569 123.387 27.5364 123.948 27.5364C124.608 27.5037 124.872 27.7974 124.773 28.3846C124.377 30.3096 125.335 30.7338 127.019 30.4727C127.448 30.4075 127.91 30.4401 128.339 30.4727C129.924 30.6359 131.212 30.538 130.75 28.3846C130.585 27.6016 131.146 27.569 131.74 27.5364C132.533 27.4711 132.632 27.8626 132.632 28.5152C132.599 29.4287 132.599 30.4075 132.599 31.3863Z" fill="#005B72"/>
<path d="M115.794 29.9508C115.794 31.6474 115.794 32.9198 115.794 34.1596C115.794 34.7143 115.728 35.0732 115.001 35.0732C114.308 35.0732 114.011 34.8774 114.044 34.1596C114.077 32.3652 114.044 30.5707 114.077 28.8089C114.077 28.3847 113.746 27.7322 114.44 27.5691C115.067 27.406 115.728 27.4386 116.223 28.0259C117.51 29.494 118.831 30.897 120.416 32.6262C120.416 30.9622 120.416 29.6898 120.416 28.4174C120.416 27.8627 120.482 27.5038 121.208 27.5038C121.869 27.5038 122.199 27.667 122.199 28.4174C122.166 30.1466 122.199 31.8758 122.166 33.605C122.166 34.0944 122.529 34.8122 121.803 35.0405C121.043 35.2689 120.35 35.1058 119.756 34.4206C118.567 32.9525 117.279 31.6474 115.794 29.9508Z" fill="#005B72"/>
<path d="M195.597 27.5044C196.654 27.5044 197.678 27.5044 198.734 27.5044C199.295 27.5044 199.692 27.537 199.659 28.2548C199.659 28.9073 199.527 29.2662 198.767 29.2336C197.347 29.201 195.895 29.2988 194.475 29.201C193.352 29.1357 193.088 29.5599 193.088 30.6039C193.088 33.3771 193.055 33.3771 195.828 33.3771C196.819 33.3771 197.81 33.4098 198.8 33.3771C199.427 33.3445 199.692 33.5403 199.659 34.1928C199.626 34.7475 199.56 35.1063 198.866 35.1063C196.654 35.0737 194.475 35.0737 192.263 35.1063C191.47 35.1063 191.371 34.7801 191.371 34.1276C191.404 32.2352 191.404 30.3429 191.371 28.4506C191.371 27.7654 191.569 27.4718 192.296 27.5044C193.385 27.537 194.475 27.5044 195.597 27.5044Z" fill="#005B72"/>
<path d="M230.233 35.0733C225.677 35.0733 225.677 35.0733 225.71 30.5708C225.71 29.8204 225.743 29.07 225.71 28.287C225.677 27.6344 225.974 27.4713 226.602 27.4713C227.262 27.4713 227.46 27.6997 227.46 28.3196C227.427 29.6246 227.493 30.9297 227.427 32.2021C227.394 32.9852 227.592 33.4093 228.517 33.3441C229.771 33.2788 231.059 33.2788 232.314 33.3441C233.238 33.4093 233.436 33.0178 233.403 32.2021C233.337 31.0276 233.37 29.8204 233.403 28.6459C233.403 28.0912 233.205 27.4713 234.196 27.4387C235.285 27.406 235.12 28.0586 235.12 28.7111C235.12 29.9509 235.12 31.1907 235.12 32.4305C235.087 34.3881 234.46 35.008 232.446 35.0406C231.653 35.0733 230.927 35.0733 230.233 35.0733Z" fill="#005B72"/>
<path d="M89.7102 21.3045C88.3895 21.2718 87.8281 20.5867 87.9602 19.3142C88.2244 16.6062 90.0073 14.8444 91.8893 13.1805C92.8138 12.3648 93.9695 11.7775 95.1581 11.3534C97.3043 10.603 98.5589 11.5492 98.4929 13.9309C98.3278 12.9195 97.6344 12.8216 96.809 12.8542C94.2666 13.05 90.3045 16.541 89.7102 19.249C90.9648 18.3354 92.1205 17.4872 93.2761 16.6715C93.3751 16.7694 93.5072 16.8999 93.6063 16.9978C93.111 17.4872 92.5497 17.9113 92.1535 18.466C91.3611 19.4447 90.0073 19.9341 89.7102 21.3045Z" fill="#005B72"/>
<path d="M267.708 30.7339C267.939 31.3212 268.137 31.9411 268.764 32.4958C269.458 31.1907 270.217 29.9835 270.745 28.6785C271.241 27.4387 272 27.2429 273.222 27.6018C272.264 29.5267 271.34 31.3865 270.415 33.2788C270.184 33.6377 269.986 34.0292 269.755 34.3881C269.095 35.3995 268.104 35.3995 267.51 34.3228C266.321 32.1369 265.198 29.9183 264.01 27.667C265.33 27.1776 266.09 27.5039 266.552 28.7437C266.915 29.4615 267.345 30.0814 267.708 30.7339Z" fill="#006177"/>
<path d="M106.68 27.5046C107.769 27.5046 108.892 27.5372 109.982 27.5046C110.576 27.5046 110.873 27.6024 110.873 28.2876C110.873 28.9727 110.675 29.2011 109.949 29.2338C107.274 29.3969 107.307 29.4295 107.307 32.0723C107.307 32.79 107.274 33.4752 107.307 34.193C107.34 34.9434 107.01 35.1065 106.317 35.1065C105.59 35.1065 105.524 34.715 105.557 34.193C105.59 33.5405 105.557 32.8879 105.557 32.2354C105.557 31.3219 105.821 30.2126 105.392 29.5274C104.963 28.8096 103.774 29.299 102.916 29.2338C102.189 29.2011 102.156 28.8096 102.156 28.2876C102.123 27.6024 102.487 27.4719 103.048 27.5046C104.27 27.5046 105.458 27.5046 106.68 27.5046Z" fill="#005B72"/>
<path d="M233.37 13.0833C234.096 13.0833 234.79 13.1159 235.516 13.0833C236.54 12.9854 236.969 13.2464 236.969 14.3884C236.969 15.5303 236.374 15.5629 235.516 15.5629C233.931 15.5303 232.346 15.5303 230.728 15.5629C229.771 15.5956 229.672 15.0735 229.672 14.3231C229.672 13.6053 229.738 13.0181 230.695 13.0833C231.62 13.1159 232.511 13.0833 233.37 13.0833Z" fill="#00A6CE"/>
<path d="M273.586 34.6499C273.619 32.5944 273.652 30.5716 273.652 28.5161C273.652 27.7983 273.784 27.4395 274.643 27.4395C275.468 27.4395 275.501 27.8962 275.468 28.4835C275.468 30.3758 275.468 32.2355 275.468 34.1279C275.468 34.5846 275.402 34.9762 274.907 35.1393C274.477 34.9762 273.85 35.3024 273.586 34.6499Z" fill="#006177"/>
<path d="M113.152 31.3528C113.152 32.2663 113.119 33.1798 113.152 34.126C113.185 34.8112 112.987 35.1048 112.228 35.0722C111.534 35.0722 111.402 34.7459 111.402 34.1586C111.435 32.201 111.435 30.2435 111.402 28.3185C111.402 27.6986 111.567 27.4702 112.228 27.4376C112.987 27.405 113.152 27.7639 113.119 28.4164C113.152 29.3952 113.152 30.374 113.152 31.3528Z" fill="#005B72"/>
<path d="M196.787 30.4071C197.282 30.4071 197.777 30.4397 198.272 30.4071C198.966 30.3418 199.263 30.5702 199.23 31.3206C199.197 31.9405 198.966 32.1689 198.338 32.1689C197.315 32.1363 196.258 32.1363 195.235 32.1689C194.508 32.2015 194.31 31.9405 194.31 31.2227C194.277 30.4071 194.739 30.3744 195.334 30.4071C195.829 30.4397 196.291 30.4071 196.787 30.4071Z" fill="#005B72"/>
<path d="M184.471 5.80801C183.249 7.08044 182.291 8.48338 180.277 7.73297C180.938 5.80801 182.357 5.35124 184.471 5.80801Z" fill="#00A6CE"/>
<path d="M232.711 21.7951C232.909 22.7739 232.347 22.937 231.489 22.937C230.663 22.937 230.201 22.8065 230.201 21.8277C230.201 20.7837 230.597 20.5879 231.555 20.5879C232.479 20.5879 232.876 20.8815 232.711 21.7951Z" fill="#00A6CE"/>
<path d="M256.482 26.9157C254.963 26.6547 253.643 26.4263 252.256 26.981C253.312 24.8602 254.93 24.795 256.482 26.9157Z" fill="#006177"/>
<path d="M113.087 25.7737C112.294 25.2843 111.304 25.8716 110.412 25.1538C111.436 24.7297 112.294 24.8602 113.12 24.958C113.615 24.9907 113.846 25.3822 113.846 25.9042C113.846 26.3936 113.582 26.7525 113.087 26.8177C112.525 26.9156 111.931 26.9809 111.37 26.6872C111.7 25.7084 112.657 26.5241 113.087 25.7737Z" fill="#006177"/>
<path d="M152.839 26.7204C151.518 27.1119 150.824 26.4594 150.164 25.6111C151.848 25.3501 151.848 25.3501 152.839 26.7204Z" fill="#006177"/>
<path d="M195.565 35.5961C196.225 35.4982 196.358 35.8571 196.358 36.4444C196.391 37.26 195.961 37.26 195.367 37.26C194.608 37.2927 194.674 36.8359 194.641 36.3139C194.608 35.6287 195.004 35.5635 195.565 35.5961Z" fill="#005B72"/>
<path d="M255.096 36.3779C255.195 37.063 254.931 37.2588 254.304 37.2914C253.577 37.324 253.412 37.0304 253.412 36.3452C253.412 35.6275 253.775 35.5948 254.337 35.5948C254.964 35.5622 255.261 35.7906 255.096 36.3779Z" fill="#005B72"/>
<path d="M231.158 26.7204C230.036 27.112 229.309 26.5899 228.748 25.709C230.201 25.2849 230.201 25.2849 231.158 26.7204Z" fill="#005B72"/>
<path d="M316.84 8.74275C318.061 8.74275 319.25 8.64487 320.438 8.77538C322.618 8.97114 323.905 10.3414 324.004 12.4948C324.07 13.7346 324.037 14.9744 324.004 16.2142C323.938 18.3023 322.552 19.8357 320.438 19.9336C318.127 20.0315 315.816 20.0315 313.538 19.9336C311.293 19.8357 309.972 18.3675 309.939 16.1163C309.906 14.9418 309.906 13.7346 309.939 12.56C310.005 10.2436 311.392 8.84063 313.736 8.74275C314.759 8.6775 315.816 8.71013 316.84 8.74275C316.84 8.71013 316.84 8.71013 316.84 8.74275ZM317.005 17.3561C322.056 17.2909 321.363 18.1065 321.429 12.7558C321.429 12.6905 321.429 12.6579 321.429 12.5927C321.429 11.7118 320.934 11.2876 320.075 11.2876C317.995 11.2876 315.915 11.2876 313.835 11.2876C313.076 11.2876 312.679 11.6791 312.58 12.4622C311.986 17.0625 312.217 17.3235 316.84 17.3235C316.906 17.3561 316.939 17.3561 317.005 17.3561Z" fill="#00A6CE"/>
<path d="M282.236 19.9348C281.014 19.9348 279.825 19.9674 278.604 19.9348C276.524 19.8369 275.269 18.5645 275.236 16.509C275.203 14.3557 275.269 12.1697 275.203 10.0163C275.17 9.03756 275.599 8.8418 276.458 8.8418C277.349 8.8418 277.91 8.90705 277.877 10.049C277.778 12.0392 277.877 14.062 277.844 16.0522C277.811 17.031 278.175 17.4225 279.165 17.3899C281.146 17.3573 283.127 17.3573 285.108 17.3899C286.099 17.4225 286.495 17.031 286.462 16.0522C286.429 14.062 286.528 12.0392 286.429 10.049C286.396 8.93968 286.924 8.8418 287.816 8.8418C288.674 8.8418 289.136 9.00493 289.103 10.0163C289.037 12.1371 289.136 14.2252 289.07 16.3459C289.004 18.6624 287.684 19.9022 285.339 19.9674C284.316 19.9674 283.292 19.9348 282.236 19.9348Z" fill="#00A6CE"/>
<path d="M308.915 14.4198C308.915 15.9532 308.882 17.454 308.915 18.9548C308.948 20.0968 308.189 19.9336 307.495 19.9336C306.769 19.9663 306.142 19.901 306.274 18.9222C306.274 18.857 306.274 18.8243 306.274 18.7591C306.109 15.4964 306.109 15.4964 302.708 15.4964C299.505 15.4964 299.472 15.4964 299.439 18.5959C299.439 19.5421 299.208 19.9336 298.151 19.9336C297.029 19.9336 296.93 19.379 296.93 18.5307C296.963 15.7248 296.963 12.8863 296.93 10.0804C296.897 9.06903 297.293 8.77539 298.283 8.77539C299.307 8.77539 299.439 9.23216 299.439 10.0804C299.505 13.0495 299.538 13.0495 302.543 13.0495C302.708 13.0495 302.873 13.0495 303.038 13.0495C306.109 13.0495 306.175 13.0495 306.241 9.94994C306.274 8.97115 306.67 8.77539 307.528 8.77539C308.42 8.77539 309.047 8.84064 308.915 9.98257C308.849 10.733 308.915 11.4834 308.915 12.2664C308.915 13.0168 308.915 13.702 308.915 14.4198Z" fill="#00A6CE"/>
<path d="M312.778 27.4707C317.401 27.4707 317.5 27.536 317.5 32.1037C317.5 32.8214 317.467 33.5066 317.5 34.2244C317.533 34.8443 317.368 35.1053 316.675 35.1053C316.014 35.1053 315.585 34.9422 315.717 34.1917C315.981 32.7562 315.189 32.5931 314.033 32.6909C313.274 32.7562 312.481 32.6909 311.722 32.7236C311.095 32.7562 310.83 32.5604 310.863 31.9079C310.863 31.2227 311.028 30.8965 311.788 30.9617C312.712 30.9944 313.67 30.9617 314.594 30.9617C315.156 30.9617 315.717 30.9617 315.717 30.1461C315.717 29.3957 315.288 29.2325 314.66 29.2652C314.561 29.2652 314.429 29.2652 314.33 29.2652C309.84 29.102 309.873 29.102 309.807 33.5066C309.807 34.0939 310.302 35.04 309.047 35.1053C308.453 35.1379 307.958 35.1053 307.991 34.2896C308.024 32.7888 307.925 31.2554 308.024 29.7546C308.123 28.319 308.915 27.4707 310.467 27.536C311.26 27.5033 312.019 27.4707 312.778 27.4707Z" fill="#006177"/>
<path d="M326.315 30.7993C325.655 31.7455 324.995 32.6917 324.301 33.6378C323.245 35.106 323.212 35.1386 322.188 33.5726C321.627 32.659 321.132 31.7129 320.141 30.6362C320.141 32.0391 320.108 33.1158 320.141 34.2251C320.174 34.845 319.976 35.106 319.316 35.106C318.721 35.106 318.391 34.9755 318.391 34.2904C318.424 32.3001 318.391 30.2773 318.391 28.2871C318.391 27.9608 318.358 27.6019 318.82 27.5367C319.415 27.4714 320.042 27.4062 320.438 27.9935C321.099 28.907 321.792 29.8205 322.386 30.7667C322.882 31.5497 323.311 31.5824 323.872 30.8972C324.565 30.0163 325.358 29.2006 325.952 28.2218C326.481 27.3736 327.207 27.4062 327.933 27.5367C328.759 27.6672 328.33 28.4176 328.363 28.8744C328.429 30.6036 328.363 32.3328 328.396 34.062C328.396 34.6492 328.363 35.106 327.537 35.0734C326.778 35.0734 326.613 34.7471 326.646 34.0946C326.679 33.0506 326.646 31.9739 326.646 30.9298C326.547 30.8646 326.414 30.832 326.315 30.7993Z" fill="#005B72"/>
<path d="M305.349 32.4949C305.349 30.9941 305.349 29.8196 305.349 28.6776C305.349 28.0904 305.25 27.5031 306.208 27.4705C307.264 27.4378 307.165 28.0577 307.165 28.7429C307.165 30.3742 307.198 32.0055 307.132 33.6042C307.132 34.0936 307.496 34.8114 306.769 35.0072C306.01 35.2356 305.316 35.1377 304.722 34.4199C303.533 33.017 302.246 31.6793 300.859 30.1458C300.496 31.5161 300.727 32.7233 300.661 33.8979C300.628 34.4852 300.826 35.1051 299.835 35.1051C298.911 35.1051 298.944 34.583 298.944 33.9631C298.944 32.2339 298.911 30.5047 298.977 28.7755C298.977 28.3514 298.647 27.6989 299.34 27.5357C299.968 27.4052 300.628 27.3726 301.156 27.9599C302.279 29.2323 303.401 30.4721 304.557 31.7119C304.722 31.9077 304.92 32.0708 305.349 32.4949Z" fill="#006177"/>
<path d="M280.453 27.503C281.51 27.503 282.533 27.503 283.59 27.503C284.151 27.503 284.514 27.5683 284.514 28.286C284.514 28.9712 284.349 29.2648 283.59 29.2322C282.236 29.1996 280.849 29.2648 279.462 29.1996C278.373 29.1343 277.911 29.428 277.944 30.6025C277.977 33.3431 277.911 33.3431 280.684 33.3431C281.675 33.3431 282.665 33.3758 283.656 33.3431C284.283 33.3105 284.547 33.5063 284.514 34.1588C284.514 34.7461 284.415 35.0723 283.722 35.0723C281.543 35.0397 279.33 35.0397 277.151 35.0723C276.359 35.0723 276.26 34.7134 276.26 34.0935C276.293 32.2012 276.293 30.3089 276.26 28.4165C276.26 27.6988 276.491 27.4704 277.184 27.503C278.241 27.5356 279.33 27.503 280.453 27.503Z" fill="#005B72"/>
<path d="M289.336 29.1999C288.246 29.1999 287.156 29.1673 286.067 29.1999C285.374 29.2325 285.109 29.0041 285.109 28.2864C285.109 27.6338 285.407 27.4707 286.001 27.4707C288.279 27.5033 290.59 27.5033 292.869 27.4707C293.562 27.4707 293.826 27.6665 293.826 28.3842C293.826 29.1999 293.364 29.1999 292.77 29.1999C291.614 29.1999 290.458 29.1999 289.336 29.1999Z" fill="#005B72"/>
<path d="M320.075 7.79812C319.052 7.896 318.127 8.15701 317.401 7.34135C317.137 7.04771 316.807 7.08033 316.575 7.34135C315.816 8.18963 314.859 7.79812 313.67 7.92862C314.528 6.9172 314.76 5.77528 316.179 5.61215C317.896 5.44901 319.217 5.97104 320.075 7.79812Z" fill="#00A6CE"/>
<path d="M288.542 32.7247C288.542 32.17 288.575 31.648 288.542 31.0934C288.509 30.4735 288.905 30.4082 289.4 30.4082C289.929 30.4082 290.391 30.4408 290.358 31.1586C290.325 32.1374 290.325 33.1162 290.358 34.0624C290.391 34.6823 290.292 35.0738 289.5 35.1064C288.641 35.139 288.476 34.7475 288.542 34.0297C288.542 33.6056 288.509 33.1488 288.542 32.7247Z" fill="#006177"/>
<path d="M281.444 32.1374C280.883 32.1374 280.354 32.1374 279.793 32.1374C279.133 32.1374 279.166 31.7133 279.133 31.2565C279.133 30.7671 279.166 30.4082 279.793 30.4082C280.949 30.4408 282.104 30.4408 283.26 30.4082C283.821 30.4082 284.019 30.6366 284.019 31.1912C284.019 31.7459 283.92 32.1374 283.227 32.1374C282.666 32.1048 282.071 32.1374 281.444 32.1374Z" fill="#005B72"/>
<path d="M279.199 5.83983C281.246 5.31781 282.633 5.83983 283.326 7.69954C281.345 8.5152 280.421 7.07964 279.199 5.83983Z" fill="#00A6CE"/>
<path d="M317.004 20.6202C317.929 20.4571 318.226 20.8812 318.259 21.7947C318.292 22.7735 317.83 22.9367 316.971 22.9693C316.047 22.9693 315.717 22.7083 315.717 21.7621C315.717 20.8159 316.113 20.4897 317.004 20.6202Z" fill="#00A6CE"/>
<path d="M282.533 26.8846C281.014 26.6888 279.693 26.4278 278.273 26.9825C279.462 24.927 281.014 24.8944 282.533 26.8846Z" fill="#005B72"/>
<path d="M281.18 36.3787C281.279 37.0639 281.015 37.2597 280.388 37.2597C279.661 37.2923 279.496 36.9986 279.496 36.3461C279.496 35.6283 279.859 35.5957 280.421 35.5957C281.015 35.5957 281.312 35.7915 281.18 36.3787Z" fill="#005B72"/>
<path d="M30.0126 29.9188C28.7249 33.6709 27.008 36.8356 23.6071 38.9563C24.3005 39.3152 24.8618 38.9237 25.4231 38.6953C28.5928 37.2924 31.0692 35.0412 32.654 32.0395C33.5785 30.2451 34.7672 29.6252 36.6492 29.9188C37.0124 29.9841 37.4086 29.7883 37.8708 30.2125C34.0078 36.2484 28.4608 39.7068 21.2299 39.9678C13.2726 40.2614 7.23029 36.7704 2.67383 29.9188C4.06058 29.9188 5.15017 29.9515 6.20674 29.9188C7.09822 29.8862 7.23029 30.6366 7.52745 31.1586C9.31041 34.3886 11.6877 36.9988 15.1216 38.5648C15.6168 38.7932 16.0791 39.1521 16.8715 38.989C16.0791 38.2386 15.3197 37.6187 14.6263 36.9335C12.9754 35.2043 11.9849 33.0836 11.0604 30.9302C10.7302 30.1472 10.9283 29.8209 11.8198 29.9188C12.315 29.9515 12.8103 29.9841 13.3056 29.9188C14.3291 29.7883 14.7253 30.2125 14.9565 31.1913C15.4517 33.5404 16.1451 35.8242 17.5649 37.8144C18.0932 38.5322 18.5884 39.3479 19.8431 39.4131C19.1497 36.8683 18.9186 34.356 18.5884 31.8764C18.3903 30.3756 18.7535 29.5926 20.4374 29.8862C20.7016 29.9188 20.9987 29.9188 21.2629 29.8862C22.1213 29.7883 22.3855 30.082 22.3194 30.9955C22.1213 33.8014 21.8242 36.5746 20.9987 39.3805C22.4185 39.3152 22.9468 38.3038 23.5081 37.4555C24.6307 35.759 25.3901 33.8666 25.6873 31.8764C25.9514 30.082 26.8099 29.6252 28.4277 29.8862C28.824 29.9841 29.3192 29.9188 30.0126 29.9188Z" fill="#00A9C4"/>
<path d="M28.5605 27.7005C32.0935 23.8832 34.3387 19.7723 35.2962 14.9436C35.7915 17.1622 36.3858 19.3482 35.6264 21.632C35.5273 21.9256 35.2962 22.2519 35.3292 22.5455C35.3622 23.1328 35.7584 23.6222 36.3197 23.6875C36.9141 23.7527 36.848 23.1002 36.881 22.7087C37.1452 19.6744 37.0461 16.6402 36.1546 13.7038C35.8575 12.725 35.7915 12.3335 37.0791 12.2682C38.697 12.1703 39.4234 12.7576 39.8196 14.2584C40.9422 18.402 40.9092 22.4803 39.5225 26.5586C39.3244 27.1132 39.1923 27.8636 38.3668 27.6679C37.5414 27.4395 36.4848 28.4183 35.8245 26.9501C35.1641 25.4819 33.4472 25.4167 32.5557 26.7543C31.5982 28.2552 30.2114 27.57 28.5605 27.7005Z" fill="#00A9C4"/>
<path d="M16.1785 17.2257C15.7493 20.2926 15.9144 23.2942 16.1125 26.3285C16.1455 26.981 16.3766 27.8619 15.188 27.7314C14.2635 27.6335 13.0418 28.2534 12.8768 26.5242C12.4145 22.1849 12.3815 17.8782 12.8768 13.5389C12.9758 12.658 13.372 12.2665 14.2635 12.3643C14.3295 12.3643 14.3626 12.3643 14.4286 12.3643C17.9615 12.2665 17.9615 12.2665 18.7539 15.627C19.2822 17.9108 20.1407 20.0642 21.3293 22.1196C21.8906 23.0658 21.4944 24.6971 20.6029 25.2518C19.9426 25.6433 19.8435 25.0234 19.6454 24.7298C18.4238 22.9027 17.4662 20.9777 16.7729 18.8896C16.6078 18.3024 16.3766 17.7803 16.1785 17.2257Z" fill="#00A9C4"/>
<path d="M24.6312 16.965C23.9379 18.5311 23.5086 20.2276 22.5841 21.8263C21.5276 20.3581 20.6361 19.0857 21.4285 17.1934C21.9568 15.9536 22.0559 14.5833 22.353 13.2456C22.4521 12.8214 22.419 12.332 23.0464 12.332C24.3671 12.332 25.6878 12.332 27.0085 12.332C27.6028 12.332 27.6689 12.7888 27.7349 13.2456C28.3292 17.7806 28.3623 22.3157 27.7019 26.8508C27.4708 28.4495 26.117 27.5033 25.2916 27.6665C24.3011 27.8296 24.4662 27.0466 24.5322 26.4593C24.8954 23.3271 24.7303 20.1624 24.6312 16.965Z" fill="#00A9C4"/>
<path d="M25.127 0.619141C30.707 1.89157 34.8342 5.08896 38.0369 10.1134C36.8813 10.1134 36.0229 10.0482 35.1644 10.1134C34.2069 10.2113 33.7116 9.81979 33.2824 8.97151C31.6975 5.90462 29.4523 3.42501 26.3816 1.76107C25.7873 1.4348 25.193 0.945405 24.4336 1.27167L24.4666 1.3043C24.4996 1.27167 24.5657 1.20642 24.5657 1.17379C24.5657 1.07591 24.5326 1.01066 24.4996 0.912778C24.4336 0.847526 24.4336 0.749646 24.4336 0.651767C24.6647 0.651767 24.8958 0.651767 25.127 0.619141Z" fill="#00A9C4"/>
<path d="M16.1467 0.978608C12.4817 2.38154 9.67519 4.86115 7.85921 8.28693C7.06678 9.75512 6.20832 10.4076 4.55743 10.1466C4.02914 10.0488 3.46784 10.1466 2.60938 10.1466C5.8121 5.15479 9.90632 1.9574 15.4863 0.652344C15.7175 0.750223 15.9486 0.848102 16.1467 0.978608Z" fill="#00A9C4"/>
<path d="M4.85362 27.5373C3.96214 27.8635 3.13669 27.6352 2.31125 27.7004C1.71693 27.733 1.45278 27.4394 1.25468 26.9174C0.429232 24.6662 0 22.3497 0 19.9353C0 19.1523 0.297161 18.9239 1.05657 18.8913C3.53291 18.7608 3.53291 18.7281 3.63196 21.1751C3.73101 23.3285 4.16025 25.4492 4.85362 27.5373Z" fill="#00A9C4"/>
<path d="M24.401 1.30576C26.5802 3.52436 28.4952 5.90609 29.5848 8.8751C29.948 9.85389 29.915 10.1802 28.7263 10.1802C26.25 10.1802 26.283 10.2128 25.5896 7.8963C24.7972 5.25356 24.0708 2.54557 21.7266 0.718489C21.9577 0.229092 22.486 0.392224 22.8492 0.261719C23.3775 0.326972 23.8727 0.359598 24.401 0.424851C24.401 0.52273 24.434 0.620609 24.434 0.685862C23.9718 0.751115 23.3775 0.392224 23.1133 0.848994C22.9812 1.07738 23.5425 1.20789 23.8067 1.30576C24.0048 1.30576 24.2359 1.30576 24.401 1.30576Z" fill="#00A9C4"/>
<path d="M19.183 0.0644531C19.9424 0.0644531 20.6688 0.0644531 21.4282 0.0644531C21.0981 0.423344 20.3717 0.684355 21.065 1.33688C21.7914 3.88175 21.9895 6.52449 22.2207 9.16723C22.2867 10.0155 21.9895 10.146 21.2301 10.1786C18.3246 10.3092 18.2255 10.2765 18.5887 7.50328C18.8528 5.28468 18.8859 3.06608 19.8104 0.977993C20.5037 0.0970795 19.183 0.488597 19.183 0.0644531Z" fill="#00A9C4"/>
<path d="M18.1589 1.30536C16.3429 3.49133 15.4844 6.13407 14.8571 8.84206C14.593 9.88611 11.7534 10.767 10.994 10.0492C10.6969 9.7556 10.928 9.42934 11.027 9.16833C12.3147 5.87306 13.9986 2.87143 17.2344 1.01172C17.4985 1.07697 17.9278 0.881213 18.1589 1.30536Z" fill="#00A9C4"/>
<path d="M7.65974 16.704C4.52304 16.6388 4.78719 17.2587 5.41452 13.996C5.67867 12.6583 6.27299 12.2995 7.62672 12.3321C10.9945 12.43 10.9615 12.3647 10.5983 15.5295C10.4993 16.4104 10.2681 16.8019 9.31063 16.7366C8.78234 16.6388 8.22104 16.704 7.65974 16.704Z" fill="#00A9C4"/>
<path d="M7.75829 22.1865C7.29604 22.1865 6.96586 22.1865 6.63568 22.1865C4.78668 22.1865 4.12633 21.2403 4.65461 19.4459C4.8197 18.8586 5.21591 18.8912 5.67816 18.8912C6.60266 18.8912 7.52716 18.9565 8.45166 18.8586C9.83841 18.6955 10.2346 19.087 10.3337 20.5878C10.4988 23.2306 8.58373 21.795 7.75829 22.1865Z" fill="#00A9C4"/>
<path d="M4.78735 12.5288C4.52321 13.6707 4.35812 14.8453 3.92889 15.9545C3.33457 17.488 1.94782 16.5745 0.957283 16.6397C-0.132306 16.705 0.627104 15.824 0.594087 15.3346C0.594087 15.2368 0.627104 15.1063 0.660122 15.0084C1.38651 12.1699 1.61764 12.0068 4.78735 12.5288Z" fill="#00A9C4"/>
<path d="M18.1608 1.30383C17.9296 0.879686 17.5004 1.07544 17.1702 1.01019C16.8401 1.01019 16.5099 0.977565 16.1467 0.977565C15.9156 0.879685 15.6844 0.74918 15.4863 0.6513C16.675 0.129277 17.8966 -0.0338548 19.1843 0.0640245C19.2173 0.488168 20.505 0.096651 19.8117 0.977565C19.0523 0.161904 18.6891 1.20595 18.1608 1.30383Z" fill="#00A9C4"/>
<path d="M21.0651 1.33743C20.3718 0.684899 21.0982 0.423888 21.4283 0.0649975C21.9236 -0.000255374 22.4189 -0.0655082 22.8481 0.260756C22.4849 0.423888 21.9566 0.260756 21.7255 0.717526C21.2302 0.619647 21.0982 0.913284 21.0651 1.33743Z" fill="#00A9C4"/>
<path d="M24.4334 0.685384C24.4334 0.587505 24.4334 0.489626 24.4004 0.424373C24.6976 0.35912 24.9287 0.424373 25.1268 0.652758C24.8957 0.652758 24.6645 0.652758 24.4334 0.685384Z" fill="#00A9C4"/>
<path d="M23.806 1.27282C23.5088 1.17494 22.9805 1.04443 23.1126 0.816048C23.3767 0.359279 23.9711 0.718169 24.4333 0.652916C24.4333 0.750796 24.4333 0.848675 24.4333 0.946554C24.2022 1.01181 23.905 0.979181 23.806 1.27282Z" fill="#00A9C4"/>
<path d="M23.8066 1.27158C23.9057 0.945312 24.2029 1.01057 24.434 0.945312C24.467 1.04319 24.5 1.10844 24.5 1.20632C24.5 1.23895 24.434 1.27158 24.401 1.33683C24.2359 1.3042 24.0047 1.3042 23.8066 1.27158Z" fill="#00A9C4"/>
</g>
<defs>
<clipPath id="clip0_1132_50803">
<rect width="328.461" height="40" fill="white"/>
</clipPath>
</defs>
</svg>
