<?xml version="1.0" encoding="utf-8"?>
<!-- Generator: Adobe Illustrator 24.3.0, SVG Export Plug-In . SVG Version: 6.00 Build 0)  -->
<svg version="1.1" xmlns="http://www.w3.org/2000/svg" xmlns:xlink="http://www.w3.org/1999/xlink" x="0px" y="0px" width="81.1px"
	 height="102.8px" viewBox="0 0 81.1 102.8" style="enable-background:new 0 0 81.1 102.8;" xml:space="preserve">
<style type="text/css">
	.st0{fill:#FFFFFF;}
	.st1{fill:#004068;}
	.st2{fill:#F7CF38;}
	.st3{fill:#FF9D31;}
	.st4{fill:#DE9700;}
	.st5{fill:#02B9CD;}
	.st6{fill:#F88008;}
	.st7{fill:#FFDE83;}
	.st8{fill:#FFBE3B;}
	.st9{fill:#FF9E31;}
	.st10{fill:none;}
	.st11{font-family:'HelveticaNeue-Bold';}
	.st12{font-size:29px;}
	.st13{font-family:'HelveticaNeue';}
	.st14{fill:#333333;}
	.st15{fill:#4D4D4D;}
	.st16{fill:#FF6400;}
</style>
<g id="Layer_2">
</g>
<g id="Layer_1">
	<rect x="-937.3" y="-10376.3" class="st0" width="1920" height="1080"/>
	<rect x="-937.3" y="-9295.3" class="st0" width="1920" height="1080"/>
	<rect x="-937.3" y="-7136.3" class="st0" width="1920" height="1080"/>
	<rect x="-937.3" y="-6056.3" class="st0" width="1920" height="1080"/>
	<rect x="-937.3" y="-4976.3" class="st0" width="1920" height="1080"/>
	<rect x="-937.3" y="-3896.3" class="st0" width="1920" height="1080"/>
	<rect x="-937.3" y="-2816.3" class="st0" width="1920" height="1080"/>
	<rect x="-937.3" y="-1736.3" class="st0" width="1920" height="1080"/>
	<rect x="-937.3" y="-656.3" class="st0" width="1920" height="1080"/>
	<rect x="-937.3" y="423.7" class="st0" width="1920" height="1080"/>
	<rect x="-937.3" y="1503.7" class="st0" width="1920" height="1080"/>
</g>
<g id="Layer_3">
	<rect x="-151.5" y="-8692.7" class="st10" width="1076.2" height="75"/>
	<text transform="matrix(1 0 0 1 -151.5434 -8650.7852)" class="st1 st11" style="font-size:58.7032px;">Upgrade Program 2024</text>
	<text transform="matrix(1 0 0 1 -151.5434 -8872.3281)"><tspan x="0" y="0" style="fill:#044784; font-family:'Anton'; font-size:97.8386px;">KHAI GIẢNG KHÓA </tspan><tspan x="0" y="135.9" style="fill:#044784; font-family:'Anton'; font-size:97.8386px;">LỚP KODA PHOTOSHOP H298 </tspan></text>
	<rect x="199.7" y="-8711.3" class="st1" width="26" height="19"/>
</g>
<g id="Layer_6">
</g>
<g id="Layer_4">
	<g>
		<defs>
			<rect id="SVGID_1_" x="-937.3" y="-10376.3" width="1920" height="1080"/>
		</defs>
		<clipPath id="SVGID_2_">
			<use xlink:href="#SVGID_1_"  style="overflow:visible;"/>
		</clipPath>
	</g>
</g>
<g id="Layer_5">
	<rect x="-937.3" y="-4887.3" class="st2" width="1076" height="116"/>
	<rect x="-937.3" y="-1735.3" class="st3" width="816.6" height="1080"/>
	<rect x="-831.2" y="-1656.7" class="st0" width="649.5" height="950.8"/>
	<rect x="-158.3" y="-8598.3" class="st4" width="1014" height="43"/>
	<rect x="-161.3" y="-8540.3" class="st4" width="331" height="44"/>
	<text transform="matrix(1 0 0 1 -148.5429 -8565.874)"><tspan x="0" y="0" class="st0" style="font-family:'MyriadPro-Bold'; font-size:33.7px;">CHƯƠNG TRÌNH HỌC CẬP NHẬT LIÊN TỤC ĐỔI MỚI KHÔNG NGỪNG </tspan><tspan x="0" y="57.6" class="st0" style="font-family:'MyriadPro-Bold'; font-size:33.7px;">THEO QUÝ MỖI NĂM</tspan></text>
	<g>
		<text transform="matrix(1 0 0 1 -723.8276 -4799.8271)" class="st14" style="font-family:'Anton'; font-size:64.8602px;">NỘI DUNG CHƯƠNG TRÌNH KHÓA HỌC</text>
	</g>
	<rect x="-46" y="-1430.6" class="st10" width="959.1" height="157.3"/>
	<text transform="matrix(1 0 0 1 -46.0336 -1408.4221)"><tspan x="0" y="0" class="st14" style="font-family:'HelveticaNeue-Medium'; font-size:31px;">Lớp Sáng:</tspan><tspan x="148.7" y="0" class="st14 st12" style="font-family:'HelveticaNeue-Medium';"> Thứ 2-4: 8h30-10h30 sáng</tspan><tspan x="0" y="37.2" class="st14" style="font-family:'HelveticaNeue-Medium'; font-size:31px;">Lớp Tối:</tspan><tspan x="119.4" y="37.2" class="st14 st12" style="font-family:'HelveticaNeue-Medium';"> Thứ 2-4: 7-9h tối</tspan><tspan x="0" y="74.4" class="st14" style="font-family:'HelveticaNeue-Medium'; font-size:31px;">Lớp Tối:</tspan><tspan x="119.4" y="74.4" class="st14 st12" style="font-family:'HelveticaNeue-Medium';"> Thứ 6: 7-9h tối: Full Slot</tspan></text>
	<rect x="22.7" y="-6665.3" class="st10" width="790.6" height="191.3"/>
	<text transform="matrix(1 0 0 1 218.8433 -6638.1558)"><tspan x="0" y="0" style="font-family:'HelveticaNeue-Medium'; font-size:38px;">Nhằm đảm bảo chất lượng đầu ra </tspan><tspan x="109.5" y="64" style="font-family:'HelveticaNeue-Medium'; font-size:38px;">Chúng tôi xin phép giới hạn </tspan><tspan x="292.1" y="128" style="font-family:'HelveticaNeue-Medium'; font-size:38px;">số lượng mỗi lớp</tspan></text>
	<rect x="-249.6" y="-6938.3" class="st10" width="1062.9" height="246.6"/>
	<text transform="matrix(1 0 0 1 -153.9574 -6869.4058)"><tspan x="0" y="0" style="fill:#F78508; font-family:'Anton'; font-size:97px;">Chất lượng người học là </tspan><tspan x="277.9" y="116.4" style="fill:#F78508; font-family:'Anton'; font-size:97px;">ưu tiên hàng đầu</tspan></text>
	<g>
		<rect x="-813.5" y="-1617.6" class="st10" width="666.1" height="157.4"/>
		<text transform="matrix(1 0 0 1 -813.5009 -1541.7708)"><tspan x="0" y="0" style="fill:#00B2DD; font-family:'Anton'; font-size:91px;">Thời</tspan><tspan x="167.3" y="0" style="fill:#00B2DD; font-family:'AppleBraille-Outline6Dot'; font-size:91px;"> </tspan><tspan x="198.4" y="0" style="fill:#00B2DD; font-family:'Anton'; font-size:91px;">gian</tspan><tspan x="365" y="0" style="fill:#00B2DD; font-family:'AppleBraille-Outline6Dot'; font-size:91px;"> </tspan><tspan x="396.1" y="0" style="fill:#00B2DD; font-family:'Anton'; font-size:91px;">học</tspan><tspan x="537.3" y="0" style="fill:#00B2DD; font-family:'AppleBraille-Outline6Dot'; font-size:91px;"> </tspan><tspan x="568.4" y="0" style="fill:#00B2DD; font-family:'Anton'; font-size:91px;">:</tspan></text>
	</g>
	<rect x="-782" y="531.1" class="st10" width="366.6" height="135.4"/>
	<text transform="matrix(1 0 0 1 -782.0244 601.4079)" style="fill:#ED7837; font-family:'Anton'; font-size:99px;">ĐỊA </text>
	<rect x="-789" y="1090.8" class="st10" width="707.5" height="51.4"/>
	<text transform="matrix(1 0 0 1 -788.9521 1105.1189)" class="st14 st11" style="font-size:20px;">2 chi nhánh cách nhau 30s đi xe máy</text>
	<path class="st5" d="M-530.3-7390c0,4.2-3.4,7.7-7.7,7.7h-229.6c-4.2,0-7.7-3.4-7.7-7.7v-65.6c0-4.2,3.4-7.7,7.7-7.7H-538
		c4.2,0,7.7,3.4,7.7,7.7V-7390z"/>
	<rect x="-828.8" y="-7442.8" class="st10" width="348.1" height="74"/>
	<text transform="matrix(1 0 0 1 -747.7646 -7404.2417)" class="st0 st11" style="font-size:54px;">Liên hệ</text>
	<path class="st6" d="M810.7-6370c0,4.2-3.4,7.7-7.7,7.7H573.4c-4.2,0-7.7-3.4-7.7-7.7v-65.6c0-4.2,3.4-7.7,7.7-7.7H803
		c4.2,0,7.7,3.4,7.7,7.7V-6370z"/>
	<rect x="512.2" y="-6422.8" class="st10" width="348.1" height="74"/>
	<text transform="matrix(1 0 0 1 593.2354 -6384.2417)" class="st0 st11" style="font-size:54px;">Liên hệ</text>
	<path d="M184.7-803c0,4.2-3.4,7.7-7.7,7.7H-52.6c-4.2,0-7.7-3.4-7.7-7.7v-65.6c0-4.2,3.4-7.7,7.7-7.7H177c4.2,0,7.7,3.4,7.7,7.7
		V-803z"/>
	<rect x="-113.8" y="-855.8" class="st10" width="348.1" height="74"/>
	<text transform="matrix(1 0 0 1 -32.7651 -817.2415)" class="st0 st11" style="font-size:54px;">Liên hệ</text>
	<rect x="843.7" y="-1453.2" class="st3" width="139" height="481.8"/>
	<rect x="-933.3" y="-3584.3" class="st7" width="1916" height="424"/>
	<rect x="343.5" y="429.7" class="st8" width="639.1" height="1080"/>
	<rect x="-937.3" y="-130.8" class="st8" width="103.1" height="356"/>
	<rect x="-775.3" y="-7877.9" class="st10" width="522.3" height="245.3"/>
	<text transform="matrix(1 0 0 1 -775.3271 -7818.3574)"><tspan x="0" y="0" class="st14 st11" style="font-size:26px;">Đây là bộ môn mang lại tư duy về thẩm </tspan><tspan x="0" y="41" class="st14 st11" style="font-size:26px;">mĩ trong thiết kế được nâng cấp dựa trên </tspan><tspan x="0" y="82" class="st14 st11" style="font-size:26px;">xu hướng 2024 và được thiết lập trong </tspan><tspan x="0" y="123" class="st14 st11" style="font-size:26px;">giáo án chương trình học cho các sinh </tspan><tspan x="0" y="164" class="st14 st11" style="font-size:26px;">viên tại Nhật Bản</tspan></text>
	<polygon class="st10" points="78.8,-7473.9 -773.3,-7473.9 -775.3,-7509.9 76.8,-7509.9 	"/>
	<text transform="matrix(1 0 0 1 -773.9077 -7484.3188)" class="st15" style="font-family:'MyriadPro-Bold'; font-size:36px;">Không gian lớp học</text>
	
		<image style="overflow:visible;" width="720" height="720" xlink:href="../../../../Downloads/LAYOUT 6/IMAG/PIC (5).jpg"  transform="matrix(0.9036 0 0 0.9036 -920.8538 -6963.5869)">
	</image>
	
		<image style="overflow:visible;" width="991" height="1341" xlink:href="../../../../Downloads/LAYOUT 6/IMAG/PIC (3).jpg"  transform="matrix(0.3919 0 0 0.3919 -276.9982 -6724.0508)">
	</image>
	
		<image style="overflow:visible;" width="1080" height="1528" xlink:href="../../../../Downloads/LAYOUT 6/IMAG/PIC (1).jpg"  transform="matrix(0.2587 0 0 0.2587 -556.8663 -6510.7993)">
	</image>
	<g>
		<rect x="-50.3" y="-1546.3" class="st10" width="608" height="138"/>
		<text transform="matrix(1 0 0 1 -50.3271 -1508.6448)" class="st3" style="font-family:'Anton'; font-size:53px;">LỚP TRỰC TIẾP</text>
	</g>
	<g>
		<rect x="-806.2" y="-2647.5" class="st10" width="865.1" height="75.2"/>
		<text transform="matrix(1 0 0 1 -806.2431 -2597.7913)" class="st16" style="font-family:'Anton'; font-size:70px;">3 LÝ DO CHÍNH BẠN NÊN </text>
	</g>
	<g>
		<rect x="-806.2" y="-2556.5" class="st10" width="865.1" height="75.2"/>
		<text transform="matrix(1 0 0 1 -806.2431 -2522.385)" class="st16" style="font-family:'Anton'; font-size:48px;">KODA PHOTOSHOP tại HANNA&apos;S FAMILY</text>
	</g>
	<rect x="-661.3" y="-2362.8" class="st10" width="816.6" height="139.1"/>
	<text transform="matrix(1 0 0 1 -661.2656 -2333.0203)" class="st15" style="font-family:'UTM-Avo'; font-size:42px;">Chất lượng giảng dạy</text>
	<rect x="-561.9" y="-4659.7" class="st10" width="737.7" height="125.7"/>
	<text transform="matrix(1 0 0 1 -561.8666 -4634.1001)" style="font-family:'UTM-Avo'; font-size:36px;">INTRODUCTION</text>
	<rect x="-561.9" y="-4527.4" class="st10" width="737.7" height="125.7"/>
	<text transform="matrix(1 0 0 1 -561.8666 -4501.8799)" style="font-family:'UTM-Avo'; font-size:36px;">THE KOKLORS &amp; CONCESK</text>
	<rect x="-561.9" y="-4395.2" class="st10" width="737.7" height="46.3"/>
	<text transform="matrix(1 0 0 1 -561.8666 -4369.6587)" style="font-family:'UTM-Avo'; font-size:36px;">DESIGN </text>
	<rect x="-561.9" y="-4264.1" class="st10" width="737.7" height="125.7"/>
	<text transform="matrix(1 0 0 1 -561.8666 -4238.5522)" style="font-family:'UTM-Avo'; font-size:36px;">EFFECTS, FINAL DETAILS, AND EXTRAS</text>
	<rect x="-561.9" y="-4129.7" class="st10" width="737.7" height="125.7"/>
	<text transform="matrix(1 0 0 1 -561.8666 -4104.1431)" style="font-family:'UTM-Avo'; font-size:36px;">LAYOUKA, RATIONNE TYPES</text>
	<rect x="-661.3" y="-2212.9" class="st10" width="816.6" height="139.1"/>
	<text transform="matrix(1 0 0 1 -661.2656 -2183.075)" class="st15" style="font-family:'UTM-Avo'; font-size:42px;">Giảng viên giàu kinh nghiệm</text>
	<rect x="-661.3" y="-2063.2" class="st10" width="816.6" height="139.1"/>
	<text transform="matrix(1 0 0 1 -661.2656 -2033.3914)" class="st15" style="font-family:'UTM-Avo'; font-size:42px;">Không gian lớp học đa concept</text>
	<g>
		<rect x="-50.3" y="-1179.3" class="st10" width="330" height="80"/>
		<text transform="matrix(1 0 0 1 -50.3271 -1141.6448)" class="st3" style="font-family:'Anton'; font-size:53px;">LỚP ONLINE</text>
	</g>
	<rect x="-46" y="-1162.3" class="st10" width="579.7" height="227"/>
	<text transform="matrix(1 0 0 1 -46.0336 -1078.21)"><tspan x="0" y="0" class="st14" style="font-family:'HelveticaNeue-Medium'; font-size:27px;">Lớp học online từ xa dành cho các bạn trong </tspan><tspan x="0" y="32.4" class="st14" style="font-family:'HelveticaNeue-Medium'; font-size:27px;">&amp; ngoài nước</tspan><tspan x="0" y="97.2" class="st14" style="font-family:'HelveticaNeue-Medium'; font-size:27px;">Đặc biệt là các bạn đang du học hoặc đang </tspan><tspan x="0" y="129.6" class="st14" style="font-family:'HelveticaNeue-Medium'; font-size:27px;">làm việc ở nước ngoài</tspan></text>
	
		<ellipse transform="matrix(0.9998 -1.787072e-02 1.787072e-02 0.9998 41.7702 -13.7817)" class="st9" cx="-750.2" cy="-2344.1" rx="58.8" ry="58.8"/>
	
		<ellipse transform="matrix(0.9998 -1.787072e-02 1.787072e-02 0.9998 39.1877 -13.7586)" class="st9" cx="-750.2" cy="-2199.5" rx="58.8" ry="58.8"/>
	
		<ellipse transform="matrix(1.667897e-02 -0.9999 0.9999 1.667897e-02 1311.0189 -2764.9961)" class="st9" cx="-750.2" cy="-2049" rx="58.8" ry="58.8"/>
	<rect x="-806.2" y="-2376.3" class="st10" width="112" height="158"/>
	<text transform="matrix(1 0 0 1 -766.4023 -2331.5452)" class="st0" style="font-family:'Anton'; font-size:63px;">1</text>
	<rect x="-806.2" y="-2226.7" class="st10" width="112" height="86"/>
	<text transform="matrix(1 0 0 1 -766.4023 -2181.9954)" class="st0" style="font-family:'Anton'; font-size:63px;">2</text>
	<rect x="-806.2" y="-2076.2" class="st10" width="112" height="86"/>
	<text transform="matrix(1 0 0 1 -766.4023 -2031.4836)" class="st0" style="font-family:'Anton'; font-size:63px;">3</text>
	<g>
		<rect x="-814.3" y="-523.3" class="st10" width="1624" height="170.1"/>
		<text transform="matrix(1 0 0 1 -459.5322 -484.9388)"><tspan x="0" y="0" style="fill:#E26F10; font-family:'Anton'; font-size:54px;">KODA PHOTOSHOP là môn học giúp bạn </tspan><tspan x="18.9" y="81" style="fill:#E26F10; font-family:'Anton'; font-size:54px;">ứng dụng nhiều vào cuộc sống hiện tại</tspan></text>
	</g>
	<g>
		<g>
			<rect x="-667.7" y="-170.6" class="st10" width="498" height="234"/>
			<text transform="matrix(1 0 0 1 -574.3564 -149.928)"><tspan x="0" y="0" class="st6 st11 st12">Thông thạo phần mềm </tspan><tspan x="38.1" y="50" class="st13 st12">Photoshop từ A-Z</tspan></text>
			<rect x="-613.3" y="142.4" class="st10" width="389.3" height="234"/>
			<text transform="matrix(1 0 0 1 -604.936 163.0984)"><tspan x="0" y="0" class="st6 st11 st12">Thiết kế ấn phẩm, hình ảnh</tspan><tspan x="372.5" y="0" class="st13 st12"> </tspan><tspan x="6.2" y="50" class="st13 st12">sống động trong quảng cáo </tspan><tspan x="97.4" y="100" class="st13 st12">&amp; các sự kiện</tspan></text>
		</g>
		<g>
			<rect x="-106" y="-170.6" class="st10" width="293" height="234"/>
			<text transform="matrix(1 0 0 1 -94.6962 -149.928)"><tspan x="0" y="0" class="st6 st11 st12">Chỉnh sửa hình ảnh </tspan><tspan x="-4.5" y="50" class="st13 st12">sống động, theo style </tspan><tspan x="67.3" y="100" class="st13 st12">riêng mình</tspan></text>
			<rect x="-132.2" y="142.4" class="st10" width="345.4" height="234"/>
			<text transform="matrix(1 0 0 1 -98.4526 163.0984)"><tspan x="0" y="0" class="st6 st11 st12">Tự tay tạo nên kênh </tspan><tspan x="-1.8" y="50" class="st13 st12">truyền thông cho việc </tspan><tspan x="6.4" y="100" class="st13 st12">khởi nghiệp cá nhân</tspan></text>
		</g>
		<g>
			<rect x="330.5" y="-170.6" class="st10" width="332.5" height="234"/>
			<text transform="matrix(1 0 0 1 372.1607 -149.928)"><tspan x="0" y="0" class="st6 st11 st12">Tự tay thiết kế CV</tspan><tspan x="249.3" y="0" class="st13 st12"> </tspan><tspan x="-24.6" y="50" class="st13 st12">ấn tượng ghi điểm cho </tspan><tspan x="23.6" y="100" class="st13 st12">nhà tuyển dụng</tspan></text>
			<rect x="334.5" y="142.4" class="st10" width="324.5" height="234"/>
			<text transform="matrix(1 0 0 1 376.9024 163.0984)"><tspan x="0" y="0" class="st6 st11 st12">Thiết kế proposal </tspan><tspan x="-24.9" y="50" class="st13 st12">chuyên nghiệp thu hút </tspan><tspan x="76.4" y="100" class="st13 st12">đầu tư</tspan></text>
		</g>
	</g>
	<rect x="737.7" y="-422.3" class="st8" width="245" height="37.8"/>
	<g>
		<g>
			<path class="st14" d="M-376.5-311.9l0.1-0.2c0.8-1.4,0.9-2.9,0.5-4.3c-0.4-1.4-1.3-2.7-2.6-3.5l-0.2-0.1
				c-1.3-0.7-2.9-0.9-4.3-0.5c-1.4,0.4-2.7,1.3-3.5,2.6l-0.8,1.3l10,5.8L-376.5-311.9L-376.5-311.9z M-429.2-237.8
				c0.6-0.5,1.5-0.5,2,0.1c0.5,0.6,0.5,1.5-0.1,2c-9.8,9.1-14.6,4.9-19.5,0.6c-3.8-3.3-7.8-6.7-15.4-0.5c-0.6,0.5-1.5,0.4-2-0.2
				c-0.5-0.6-0.4-1.5,0.2-2c9.5-7.7,14.3-3.5,19,0.6C-441.1-233.8-437.2-230.5-429.2-237.8L-429.2-237.8z M-415.2-259.2l30.5-52.8
				l-3.8-2.2l-30.6,52.9c0.8,0,1.6,0.2,2.3,0.7c0.5,0.3,0.9,0.6,1.2,0.9C-415.5-259.5-415.3-259.3-415.2-259.2L-415.2-259.2z
				 M-382.3-310.6l-30.5,52.8c0.2,0,0.3,0,0.5,0.1c0.5,0.1,1,0.3,1.4,0.6c0.7,0.4,1.3,1,1.7,1.7l30.6-52.9L-382.3-310.6
				L-382.3-310.6z M-411.3-252.1c0.2-0.5,0.2-1,0-1.5c-0.2-0.5-0.5-0.8-0.9-1.1c-0.2-0.1-0.4-0.2-0.6-0.2c-0.2,0-0.4,0-0.6,0
				c-0.8,0.1-1.6-0.1-2.3-0.5c-0.7-0.4-1.2-1-1.6-1.7c-0.1-0.2-0.2-0.4-0.3-0.5c-0.2-0.2-0.3-0.3-0.5-0.4c-0.4-0.3-0.9-0.3-1.4-0.2
				c-0.5,0.1-0.9,0.3-1.2,0.7l-0.6,12.2L-411.3-252.1L-411.3-252.1z M-406.2-289.1h-60c-1.3,0-2.5,0.5-3.3,1.4
				c-0.9,0.8-1.4,2-1.4,3.3v58.8c0,1.3,0.5,2.5,1.4,3.3c0.9,0.8,2,1.4,3.3,1.4h95.1c1.3,0,2.4-0.5,3.3-1.3c0.9-0.9,1.4-2.1,1.4-3.4
				v-58.8c0-1.3-0.5-2.5-1.4-3.3c-0.8-0.9-2-1.4-3.3-1.4h-15.2l-22.1,38.4c-0.1,0.2-0.3,0.3-0.4,0.5l-13.2,8.7
				c-0.3,0.2-0.6,0.3-0.9,0.3c-0.8,0-1.4-0.7-1.3-1.5l0.8-15.9c0-0.2,0.1-0.5,0.2-0.7L-406.2-289.1L-406.2-289.1z M-407.4-205.1
				c-0.9-1.7-1.6-3.5-2.2-5.5c-0.7-2.4-1.2-4.9-1.4-7.6h-15.4c-0.2,2.7-0.7,5.2-1.4,7.6c-0.6,1.9-1.3,3.8-2.2,5.5H-407.4z
				 M-395-202.3h-47.4v5.6h47.4V-202.3z"/>
		</g>
	</g>
	<g transform="translate(0,-952.36218)">
		<path class="st15" d="M-11,659.8v49.8l14.2-13.6c1-1,2.7-0.9,3.6,0.1c0,0,0,0,0.1,0.1l5.8,6.6l14.7-14.2c1-0.9,2.5-0.9,3.5,0
			l24,22.9l14.1-15.1c1-1,2.6-1.1,3.6-0.1l19.4,18.1v-54.6H-11L-11,659.8z M56.3,665.7c1.4,0,2.6,1.1,2.7,2.5c0,0,0,0.1,0,0.1v4.2
			c0,1.4-1.1,2.6-2.5,2.6c-1.4,0-2.6-1.1-2.6-2.5c0,0,0,0,0-0.1v-4.3C53.8,666.9,54.9,665.8,56.3,665.7L56.3,665.7z M43.8,670.8
			c0.1,0,0.2,0,0.3,0c0.7,0,1.4,0.3,1.9,0.8l3,3c1,1,1.1,2.6,0.1,3.6c-1,1-2.6,1.1-3.6,0.1c0,0,0,0-0.1-0.1l-3-3
			c-1-1-1.1-2.6-0.1-3.6C42.6,671.2,43.2,670.9,43.8,670.8z M68.4,670.8c0.1,0,0.2,0,0.3,0c1.4-0.1,2.6,1.1,2.7,2.5
			c0,0.7-0.3,1.4-0.8,2l-3,3c-1,1-2.6,1.1-3.6,0.1c-1-1-1.1-2.6-0.1-3.6c0,0,0,0,0.1-0.1l3-3C67.3,671.2,67.8,670.9,68.4,670.8z
			 M56.4,676.8c4.9,0,9,4,9,8.9c0,4.9-4.1,8.9-9,8.9c-5,0-9.1-4-9.1-8.9C47.4,680.8,51.5,676.8,56.4,676.8z M38.7,683.2
			c0.1,0,0.2,0,0.3,0h4.2c1.4,0,2.6,1.1,2.6,2.5c0,1.4-1.1,2.6-2.5,2.6c0,0,0,0-0.1,0H39c-1.4,0.1-2.6-1-2.7-2.4
			C36.2,684.4,37.3,683.2,38.7,683.2L38.7,683.2z M69.3,683.2c0.1,0,0.2,0,0.3,0h4.2c1.4,0,2.6,1.1,2.6,2.5c0,1.4-1.1,2.6-2.5,2.6
			c0,0,0,0-0.1,0h-4.3c-1.4,0.1-2.6-1-2.7-2.4C66.7,684.4,67.8,683.2,69.3,683.2C69.3,683.2,69.3,683.2,69.3,683.2L69.3,683.2z"/>
		<path class="st15" d="M29.2,694.1l24.1,23c1,1,2.7,0.9,3.6-0.1c0,0,0,0,0,0l14.1-15.2l21,19.6v6H-11v-10.7l15.8-15.1l5.8,6.6
			c0.9,1.1,2.6,1.2,3.6,0.2c0,0,0.1-0.1,0.1-0.1L29.2,694.1L29.2,694.1z"/>
	</g>
	<g>
		<path class="st15" d="M522.6-227.9v-47.5l0,0v-25.4c0-1.2-1-2.2-2.2-2.2h-78.5c-1.2,0-2.2,1-2.2,2.2v84.2c0,1.2,1,2.2,2.2,2.2
			h86.8C525-217.7,522.6-222.5,522.6-227.9z M464.1-295.9c4.8,0,8.7,3.9,8.7,8.7c0,4.8-3.9,8.7-8.7,8.7c-4.8,0-8.7-3.9-8.7-8.7
			C455.4-292,459.3-295.9,464.1-295.9z M447.7-258.5v-2.5c0-8.1,7.6-14.6,17-14.6c9.4,0,17,6.5,17,14.6v2.5c0,1.2-1,2.2-2.2,2.2
			h-29.7C448.6-256.3,447.7-257.3,447.7-258.5z M508.2-225.7h-56.4c-1.2,0-2.2-1-2.2-2.2c0-1.2,1-2.2,2.2-2.2h56.4
			c1.2,0,2.2,1,2.2,2.2C510.4-226.7,509.4-225.7,508.2-225.7z M508.2-245.5h-56.4c-1.2,0-2.2-1-2.2-2.2c0-1.2,1-2.2,2.2-2.2h56.4
			c1.2,0,2.2,1,2.2,2.2C510.4-246.4,509.4-245.5,508.2-245.5z M508.2-265.2h-23.4c-1.2,0-2.2-1-2.2-2.2c0-1.2,1-2.2,2.2-2.2h23.4
			c1.2,0,2.2,1,2.2,2.2C510.4-266.2,509.4-265.2,508.2-265.2z M508.2-285h-23.4c-1.2,0-2.2-1-2.2-2.2c0-1.2,1-2.2,2.2-2.2h23.4
			c1.2,0,2.2,1,2.2,2.2C510.4-286,509.4-285,508.2-285z"/>
		<path class="st15" d="M551.7-277.6h-22.6c-1.2,0-2.2,1-2.2,2.2v47.5c0,7.4,6,13.5,13.5,13.5c7.4,0,13.5-6,13.5-13.5v-47.5
			C553.9-276.6,552.9-277.6,551.7-277.6z"/>
	</g>
	<g>
		<rect x="-444.6" y="32.2" class="st15" width="52" height="19.1"/>
		<g>
			<polyline class="st15" points="-390,98.5 -390,81.3 -369.3,81.3 -369.3,27.3 -389.9,27.3 -389.9,4.3 			"/>
			<polyline class="st15" points="-447.4,4.3 -447.4,27.3 -468.1,27.3 -468.1,81.3 -447.4,81.3 -447.4,98.5 			"/>
			<polyline class="st15" points="-440.5,91.7 -440.5,71 -396.8,71 -396.8,91.7 			"/>
			<rect x="-403.8" y="41" class="st15" width="20.8" height="6.9"/>
		</g>
	</g>
	<path class="st15" d="M73.2,43H43.6l22-25.7h0.6c4.8,0.1,8.7-3.8,8.8-8.6C75,4,71.2,0.1,66.4,0c-4.8-0.1-8.7,3.8-8.8,8.6
		c0,1.6,0.4,3.2,1.2,4.6L38.5,36.8L22.8,16.6c1.9-4.3,0-9.3-4.3-11.2c-4.3-1.9-9.3,0-11.2,4.3c-1.9,4.3,0,9.3,4.3,11.2
		c1.1,0.5,2.2,0.7,3.4,0.7c0.5,0,1.1,0,1.6,0l16.9,21.5H7.9C3.5,43.1,0,46.6,0,51v43.9c0,4.4,3.5,7.9,7.9,7.9h65.3
		c4.4,0,7.9-3.5,7.9-7.9v-44C81.1,46.5,77.6,43,73.2,43z M48.7,75.6L37.9,86.5c-1.5,1.5-4,1.6-5.6,0c-0.7-0.7-1.2-1.7-1.2-2.8V62.1
		c0.1-2.2,1.9-3.9,4.1-3.8c1,0,2,0.5,2.7,1.2l10.8,10.8C50.2,71.8,50.2,74.1,48.7,75.6L48.7,75.6z"/>
	<g>
		<path class="st15" d="M459.6,95.5V14.4h57.4v5.1h-52.4v76H459.6z M468.1,103.9V22.9h57.4v5.1h-52.4v76H468.1z M523.8,102.2v7.8
			l7.8-7.8H523.8z M476.5,31.3v81.1h43.9V98.9h13.5V31.3H476.5z M486.7,65.1h11.8v3.4h-11.8V65.1z M495.1,98.9H490V88.7h5.1V98.9z
			 M506.9,98.9h-8.4V75.2h8.4V98.9z M515.4,98.9h-5.1V82h5.1V98.9z M523.8,60h-37.2v-3.4h37.2V60z M523.8,51.6h-37.2v-3.4h37.2V51.6
			z M523.8,43.1h-37.2v-3.4h37.2V43.1z"/>
	</g>
	<g>
		<rect x="-683.5" y="-4560.2" class="st16" width="73.7" height="72.7"/>
		<rect x="-674.1" y="-4548.5" class="st10" width="68.4" height="67.3"/>
		<text transform="matrix(1 0 0 1 -674.0805 -4508.0562)" class="st0" style="font-family:'Anton'; font-size:56.908px;">U2</text>
	</g>
	<g>
		<rect x="-684.8" y="-4692.4" class="st16" width="73.7" height="72.7"/>
		<rect x="-672.7" y="-4680.7" class="st10" width="68.4" height="67.3"/>
		<text transform="matrix(1 0 0 1 -672.7245 -4640.2769)" class="st0" style="font-family:'Anton'; font-size:56.908px;">U1</text>
	</g>
	<g>
		<rect x="-683.5" y="-4428" class="st16" width="73.7" height="72.7"/>
		<rect x="-674.1" y="-4416.2" class="st10" width="68.4" height="67.3"/>
		<text transform="matrix(1 0 0 1 -674.0805 -4375.8354)" class="st0" style="font-family:'Anton'; font-size:56.908px;">U3</text>
	</g>
	<g>
		<rect x="-683.9" y="-4295.7" class="st16" width="73.7" height="72.7"/>
		<rect x="-673.6" y="-4284" class="st10" width="68.4" height="67.3"/>
		<text transform="matrix(1 0 0 1 -673.6279 -4243.6147)" class="st0" style="font-family:'Anton'; font-size:56.908px;">U4</text>
	</g>
	<g>
		<rect x="-683.5" y="-4164" class="st16" width="73.7" height="72.7"/>
		<rect x="-674.1" y="-4151.3" class="st10" width="68.4" height="67.3"/>
		<text transform="matrix(1 0 0 1 -674.0805 -4110.9409)" class="st0" style="font-family:'Anton'; font-size:56.908px;">U5</text>
	</g>
	<rect x="268.3" y="-4690.8" class="st10" width="434.6" height="125.7"/>
	<text transform="matrix(1 0 0 1 268.3018 -4665.1992)"><tspan x="0" y="0" style="font-family:'UTM-Avo'; font-size:36px;">POST ADS, BANNER, </tspan><tspan x="0" y="43.2" style="font-family:'UTM-Avo'; font-size:36px;">SQUARE POSTS</tspan></text>
	<rect x="268.3" y="-4528.7" class="st10" width="737.7" height="125.7"/>
	<text transform="matrix(1 0 0 1 268.3018 -4503.1543)" style="font-family:'UTM-Avo'; font-size:36px;">TYPOGRAPHY NACIS</text>
	<rect x="268.3" y="-4393.9" class="st10" width="737.7" height="46.3"/>
	<text transform="matrix(1 0 0 1 268.3018 -4368.3276)" style="font-family:'UTM-Avo'; font-size:36px;">ADVANCED MASK TECH</text>
	<rect x="268.3" y="-4264.5" class="st10" width="737.7" height="125.7"/>
	<text transform="matrix(1 0 0 1 268.3018 -4238.9224)" style="font-family:'UTM-Avo'; font-size:36px;">CV &amp; CL DESIGN</text>
	<rect x="268.3" y="-4154.4" class="st10" width="737.7" height="125.7"/>
	<text transform="matrix(1 0 0 1 268.3018 -4134.4653)"><tspan x="0" y="0" style="font-family:'UTM-Avo'; font-size:28.0023px;">Bạn vui lòng liên hệ để có </tspan><tspan x="0" y="33.6" style="font-family:'UTM-Avo'; font-size:28.0023px;">chương trình học chi tiết và cụ thể</tspan></text>
	<g>
		<rect x="149.4" y="-4558.4" class="st16" width="73.7" height="72.7"/>
		<rect x="158.8" y="-4546.7" class="st10" width="68.4" height="67.3"/>
		<text transform="matrix(1 0 0 1 158.7979 -4506.25)" class="st0" style="font-family:'Anton'; font-size:56.908px;">U7</text>
	</g>
	<g>
		<rect x="148.1" y="-4690.6" class="st16" width="73.7" height="72.7"/>
		<rect x="160.2" y="-4678.9" class="st10" width="68.4" height="67.3"/>
		<text transform="matrix(1 0 0 1 160.1553 -4638.4702)" class="st0" style="font-family:'Anton'; font-size:56.908px;">U6</text>
	</g>
	<g>
		<rect x="149.4" y="-4426.1" class="st16" width="73.7" height="72.7"/>
		<rect x="158.8" y="-4414.4" class="st10" width="68.4" height="67.3"/>
		<text transform="matrix(1 0 0 1 158.7979 -4374.0288)" class="st0" style="font-family:'Anton'; font-size:56.908px;">U8</text>
	</g>
	<g>
		<rect x="149" y="-4293.9" class="st16" width="73.7" height="72.7"/>
		<rect x="159.3" y="-4282.2" class="st10" width="68.4" height="67.3"/>
		<text transform="matrix(1 0 0 1 159.2511 -4241.8081)" class="st0" style="font-family:'Anton'; font-size:56.908px;">U9</text>
	</g>
	<g>
		<rect x="149.4" y="-4162.2" class="st16" width="73.7" height="72.7"/>
		<rect x="158.8" y="-4149.5" class="st10" width="68.4" height="67.3"/>
		<text transform="matrix(1 0 0 1 158.7979 -4109.1343)" class="st0" style="font-family:'Anton'; font-size:56.908px;">A</text>
	</g>
	<rect x="-791.3" y="1142.2" class="st10" width="733.3" height="287.9"/>
	<text transform="matrix(1 0 0 1 -791.3286 1156.5037)"><tspan x="0" y="0" class="st14 st11" style="font-size:20px;">Lưu ý: vì số lượng mỗi lớp hạn chế nên các bạn nhanh tay </tspan><tspan x="0" y="29" class="st14 st11" style="font-size:20px;">đăng kí sớm và đóng học phí để mình giữ chỗ và xếp lớp.</tspan><tspan x="0" y="87" class="st14 st11" style="font-size:20px;">Đăng kí trong 72h- Giảm 5% học phí</tspan><tspan x="0" y="116" class="st14 st11" style="font-size:20px;">Học phí: các bạn vui lòng inbox và sẽ cung cấp số TK </tspan><tspan x="0" y="174" class="st14 st11" style="font-size:20px;">p/s: Về bài học số 5 và bài số 6 trong chương trình học, </tspan><tspan x="0" y="203" class="st14 st11" style="font-size:20px;">các bạn sẽ biết cách làm đẹp hình ảnh của chính </tspan><tspan x="0" y="232" class="st14 st11" style="font-size:20px;">các bạn khi post lên Facebook</tspan></text>
	<g>
		<path class="st6" d="M-598.7,666.5c-13.9,0-25.1,10.7-25.1,23.9c0,3.8,0.9,7.5,2.7,10.9l0,0c7,11.8,15,23.8,22.5,35.6
			c7-12.1,15.6-23.4,22.3-35.6c1.8-3.4,2.7-7.1,2.7-10.9C-573.6,677.2-584.8,666.5-598.7,666.5L-598.7,666.5L-598.7,666.5z
			 M-598.7,676.6c7.3,0,13.3,5.9,13.3,13.3v0c0,7.3-5.9,13.3-13.3,13.3c0,0,0,0,0,0c-7.3,0-13.3-5.9-13.3-13.3
			C-612,682.5-606,676.6-598.7,676.6L-598.7,676.6z"/>
	</g>
	<g>
		<path class="st6" d="M-215.6,662.2c-13.9,0-25.1,10.7-25.1,23.9c0,3.8,0.9,7.5,2.7,10.9l0,0c7,11.8,15,23.8,22.5,35.6
			c7-12.1,15.6-23.4,22.3-35.6c1.8-3.4,2.7-7.1,2.7-10.9C-190.4,672.9-201.7,662.2-215.6,662.2L-215.6,662.2L-215.6,662.2z
			 M-215.6,672.2c7.3,0,13.3,5.9,13.3,13.3v0c0,7.3-5.9,13.3-13.3,13.3c0,0,0,0,0,0c-7.3,0-13.3-5.9-13.3-13.3
			C-228.8,678.1-222.9,672.2-215.6,672.2L-215.6,672.2z"/>
	</g>
	<rect x="-795.7" y="762.6" class="st10" width="394" height="77.6"/>
	<text transform="matrix(1 0 0 1 -772.8364 776.1472)"><tspan x="0" y="0" class="st14 st11" style="font-size:19px;">345/86 Trần Hưng Đạo P. Cầu Kho Q.1 </tspan><tspan x="24.1" y="29" class="st14 st11" style="font-size:19px;">(KHỐI NGÀNH 3D &amp; Talent Team)</tspan></text>
	<rect x="-762.2" y="941.9" class="st10" width="327" height="77.6"/>
	<text transform="matrix(1 0 0 1 -670.9921 960.4711)" class="st14 st11" style="font-size:26px;">0932709998</text>
	<rect x="-379.1" y="941.9" class="st10" width="327" height="77.6"/>
	<text transform="matrix(1 0 0 1 -295.082 960.4711)" class="st14 st11" style="font-size:26px;">0378 277 414 </text>
	<rect x="-379.1" y="758.2" class="st10" width="327" height="77.6"/>
	<text transform="matrix(1 0 0 1 -331.1738 772.5016)" class="st14 st11" style="font-size:20px;">20 PHAN VĂN TRỊ P2 Q5</text>
	<g transform="translate(0,-952.36218)">
		<path class="st6" d="M-577.1,1806.1c3.8,4,6.7,7.8,7.3,11.4c-0.1,8.3-7.9,18.6-17.3,27.9c-9.3,9.3-20.2,18.5-28,17.3
			c-3.7-0.6-7.5-3.5-11.5-7.4c-1.3-1.2-1.3-3.9,0-5.2l8-8c1.4-1.4,4.1-1.4,5.8-0.4l5.4,3.9c2.9,2.4,8.9-3.6,12.9-7.6
			c4-4,10.1-9.4,7.5-13l-3.9-5.4c-0.9-1.7-0.9-4.4,0.4-5.7l8-8C-581.1,1804.7-578.4,1804.7-577.1,1806.1L-577.1,1806.1z"/>
	</g>
	<g transform="translate(0,-952.36218)">
		<path class="st6" d="M-194,1806.1c3.8,4,6.7,7.8,7.3,11.4c-0.1,8.3-7.9,18.6-17.3,27.9c-9.3,9.3-20.2,18.5-28,17.3
			c-3.7-0.6-7.5-3.5-11.5-7.4c-1.3-1.2-1.3-3.9,0-5.2l8-8c1.4-1.4,4.1-1.4,5.8-0.4l5.4,3.9c2.9,2.4,8.9-3.6,12.9-7.6
			c4-4,10.1-9.4,7.5-13l-3.9-5.4c-0.9-1.7-0.9-4.4,0.4-5.7l8-8C-198,1804.7-195.3,1804.7-194,1806.1L-194,1806.1z"/>
	</g>
	<rect x="-380.3" y="-7904.3" width="63" height="63"/>
</g>
<g id="Layer_7">
	<rect x="-780.4" y="-7975" class="st10" width="864.3" height="96.7"/>
	<text transform="matrix(1 0 0 1 -780.4384 -7925.3071)" class="st16" style="font-family:'Anton'; font-size:70px;">KODA PHOTOSHOP COURSE</text>
</g>
</svg>
