<?xml version="1.0" encoding="utf-8"?>
<!-- Generator: Adobe Illustrator 24.3.0, SVG Export Plug-In . SVG Version: 6.00 Build 0)  -->
<svg version="1.1" xmlns="http://www.w3.org/2000/svg" xmlns:xlink="http://www.w3.org/1999/xlink" x="0px" y="0px" width="106.4px"
	 height="136px" viewBox="0 0 106.4 136" style="enable-background:new 0 0 106.4 136;" xml:space="preserve">
<style type="text/css">
	.st0{fill:none;}
	.st1{fill:#EB7E29;}
	.st2{fill:#FF6400;}
	.st3{fill:#CD8024;}
	.st4{fill:#C18007;}
	.st5{fill:#FFA345;}
	.st6{fill:#FF8031;}
	.st7{fill:#E88038;}
	.st8{fill:#FF801E;}
</style>
<g id="Layer_2">
</g>
<g id="Layer_1">
	<rect x="-1366.7" y="-7831.2" class="st0" width="1920" height="1080"/>
	<rect x="-1366.7" y="-6750.2" class="st0" width="1920" height="1080"/>
	<rect x="-1366.7" y="-8911.2" class="st0" width="1920" height="1080"/>
	<rect x="-1366.7" y="-9991.2" class="st0" width="1920" height="1080"/>
	<rect x="-1366.7" y="-4591.2" class="st0" width="1920" height="1080"/>
	<rect x="-1366.7" y="-3511.2" class="st0" width="1920" height="1080"/>
	<rect x="-1366.7" y="-2431.2" class="st0" width="1920" height="1080"/>
	<rect x="-1366.7" y="-1351.2" class="st0" width="1920" height="1080"/>
	<rect x="-1366.7" y="-271.2" class="st0" width="1920" height="1080"/>
	<rect x="-1366.7" y="808.8" class="st0" width="1920" height="1080"/>
	<rect x="-1366.7" y="1888.8" class="st0" width="1920" height="1080"/>
	<rect x="-1366.7" y="2968.8" class="st0" width="1920" height="1080"/>
	<rect x="-1366.7" y="4048.8" class="st0" width="1920" height="1080"/>
</g>
<g id="Layer_3">
	<rect x="-567.9" y="-8329.6" class="st0" width="1076.2" height="75"/>
	
		<text transform="matrix(1 0 0 1 -567.9381 -8287.7061)" style="fill:#004068; font-family:'HelveticaNeue-Bold'; font-size:58.7032px;">Upgrade Program 2024</text>
	<text transform="matrix(1 0 0 1 -567.9381 -8509.25)"><tspan x="0" y="0" style="fill:#BC4C25; font-family:'Anton'; font-size:97.8386px;">KHAI GIẢNG KHÓA </tspan><tspan x="0" y="135.9" style="fill:#BC4C25; font-family:'Anton'; font-size:97.8386px;">KODA WATERCOLOR CLASS </tspan></text>
</g>
<g id="Layer_6">
</g>
<g id="Layer_4">
</g>
<g id="Layer_5">
	<rect x="-1366.7" y="-5578.2" class="st1" width="723.4" height="126.1"/>
	<rect x="-1366.7" y="-3377.2" class="st2" width="1076" height="116"/>
	<rect x="-571.7" y="-8237.2" class="st3" width="1014" height="43"/>
	<rect x="-571.7" y="-8179.2" class="st3" width="331" height="44"/>
	<text transform="matrix(1 0 0 1 -564.9376 -8202.7959)"><tspan x="0" y="0" style="fill:#FFFFFF; font-family:'MyriadPro-Bold'; font-size:33.7px;">CHƯƠNG TRÌNH HỌC CẬP NHẬT LIÊN TỤC ĐỔI MỚI KHÔNG NGỪNG </tspan><tspan x="0" y="57.6" style="fill:#FFFFFF; font-family:'MyriadPro-Bold'; font-size:33.7px;">THEO QUÝ MỖI NĂM</tspan></text>
	<g>
		<text transform="matrix(1 0 0 1 -1153.2223 -3289.7485)" style="fill:#FFFFFF; font-family:'Anton'; font-size:64.8602px;">NỘI DUNG CHƯƠNG TRÌNH KHÓA HỌC</text>
	</g>
	<rect x="-1138.1" y="-973.2" class="st0" width="554.5" height="95.1"/>
	<text transform="matrix(1 0 0 1 -1138.1036 -953.1783)"><tspan x="0" y="0" style="fill:#333333; font-family:'HelveticaNeue-Medium'; font-size:27.9885px;">Lớp Sáng:</tspan><tspan x="134.3" y="0" style="fill:#333333; font-family:'HelveticaNeue-Medium'; font-size:26.1828px;"> Thứ 6: 9h-10h30 sáng </tspan><tspan x="0" y="33.6" style="fill:#333333; font-family:'HelveticaNeue-Medium'; font-size:27.9885px;">Lớp Sáng:</tspan><tspan x="134.3" y="33.6" style="fill:#333333; font-family:'HelveticaNeue-Medium'; font-size:26.1828px;"> Thứ 7: 9h-10h30 sáng </tspan><tspan x="0" y="67.2" style="fill:#333333; font-family:'HelveticaNeue-Medium'; font-size:27.9885px;">Lớp Sáng:</tspan><tspan x="134.3" y="67.2" style="fill:#333333; font-family:'HelveticaNeue-Medium'; font-size:26.1828px;"> Thứ chủ nhật: 9h-10h30 sáng</tspan></text>
	<rect x="-1138.1" y="-836.2" class="st0" width="581.5" height="95.1"/>
	<text transform="matrix(1 0 0 1 -1138.1036 -816.2662)"><tspan x="0" y="0" style="fill:#333333; font-family:'HelveticaNeue-Medium'; font-size:27.9885px;">Các em chọn 1 trong 3 hoặc 2 trong 3 buổi </tspan><tspan x="0" y="33.6" style="fill:#333333; font-family:'HelveticaNeue-Medium'; font-size:27.9885px;">Tùy theo lịch cá nhân</tspan></text>
	<rect x="-340.8" y="-6409.6" class="st0" width="728.8" height="222.4"/>
	<text transform="matrix(1 0 0 1 -291.0793 -6378.0425)"><tspan x="0" y="0" style="font-family:'HelveticaNeue-Medium'; font-size:44.1859px;">Theo sát từng học viên trong quá </tspan><tspan x="200.6" y="74.4" style="font-family:'HelveticaNeue-Medium'; font-size:44.1859px;">trình học và hướng dẫn </tspan><tspan x="404" y="148.8" style="font-family:'HelveticaNeue-Medium'; font-size:44.1859px;">bài vở về nhà </tspan></text>
	<g>
		<rect x="-421.3" y="-6547.1" class="st0" width="822.6" height="152.5"/>
		<text transform="matrix(1 0 0 1 -340.4777 -6481.0171)" style="fill:#BC4C25; font-family:'Anton'; font-size:93.0229px;">HƯỚNG DẪN TRỰC </text>
	</g>
	<g>
		<rect x="-1146.7" y="-1174.6" class="st0" width="494.1" height="142.1"/>
		<text transform="matrix(1 0 0 1 -1146.6837 -1116.2506)" style="fill:#C83443; font-family:'Anton'; font-size:82.1598px;">Thời gian học </text>
	</g>
	<g>
		<rect x="-1225.1" y="-5553" class="st0" width="789.8" height="102.3"/>
		<text transform="matrix(1 0 0 1 -1225.0939 -5488.4219)" style="fill:#FFFFFF; font-family:'Anton'; font-size:91px;">FROM STUDENTS</text>
	</g>
	<g>
		<rect x="-1106.5" y="-3729.3" class="st0" width="716" height="211.8"/>
		<text transform="matrix(1 0 0 1 -1106.4923 -3644.0991)"><tspan x="0" y="0" style="fill:#C3B397; font-family:'Anton'; font-size:120px;">FROM STU</tspan><tspan x="524" y="0" style="fill:#C3B397; font-family:'Anton'; font-size:120px;">-</tspan></text>
	</g>
	<g>
		<rect x="-1154.3" y="963.6" class="st0" width="325.2" height="120.1"/>
		<text transform="matrix(1 0 0 1 -1154.3463 1025.9447)" class="st6" style="font-family:'Anton'; font-size:87.8215px;">ĐỊA </text>
	</g>
	
		<image style="overflow:visible;" width="1143" height="480" xlink:href="../../../../Downloads/pTS (16a).jpg"  transform="matrix(1.6772 0 0 1.6772 -1365.3379 4186.271)">
	</image>
	<rect x="-1146.6" y="1439.3" class="st0" width="627.6" height="45.6"/>
	
		<text transform="matrix(1 0 0 1 -1146.5675 1458.9691)" style="fill:#333333; font-family:'HelveticaNeue-Bold'; font-size:27.4997px;">2 chi nhánh cách nhau 30s đi xe máy</text>
	<path class="st4" d="M389.6-6031.5c0,4.9-4,8.9-8.9,8.9h-267c-4.9,0-8.9-4-8.9-8.9v-76.3c0-4.9,4-8.9,8.9-8.9h267
		c4.9,0,8.9,4,8.9,8.9V-6031.5z"/>
	<rect x="42.5" y="-6092.9" class="st0" width="404.8" height="86"/>
	
		<text transform="matrix(1 0 0 1 136.7206 -6048.0991)" style="fill:#FFFFFF; font-family:'HelveticaNeue-Bold'; font-size:62.7905px;">Liên hệ</text>
	<path class="st5" d="M-922.7-438.1c0,3.8-3.1,6.9-6.9,6.9H-1137c-3.8,0-6.9-3.1-6.9-6.9v-59.2c0-3.8,3.1-6.9,6.9-6.9h207.3
		c3.8,0,6.9,3.1,6.9,6.9V-438.1z"/>
	<rect x="-1192.2" y="-485.8" class="st0" width="314.3" height="66.8"/>
	
		<text transform="matrix(1 0 0 1 -1119.0338 -451.0172)" style="fill:#FFFFFF; font-family:'HelveticaNeue-Bold'; font-size:48.7542px;">Liên hệ</text>
	<rect x="-1366.7" y="-895.2" class="st6" width="69.5" height="1226.7"/>
	<rect x="-1366.7" y="1550.8" class="st6" width="146" height="172.6"/>
	<rect x="445.3" y="869.9" class="st6" width="108" height="957.2"/>
	<rect x="-1196.2" y="-7571.3" class="st0" width="774.6" height="94.5"/>
	<text transform="matrix(1 0 0 1 -1196.214 -7551.3564)"><tspan x="0" y="0" style="fill:#333333; font-family:'HelveticaNeue-Bold'; font-size:28px;">Khám phá những bí ẩn kỳ thú của nghệ thuật tranh màu </tspan><tspan x="0" y="41" style="fill:#333333; font-family:'HelveticaNeue-Bold'; font-size:28px;">nước đương đại cùng HANNA’S FAMILY nhé</tspan></text>
	<rect x="-1196.2" y="-7436.4" class="st0" width="774.6" height="578.1"/>
	<text transform="matrix(1 0 0 1 -1196.214 -7416.3633)"><tspan x="0" y="0" style="fill:#333333; font-family:'HelveticaNeue-Bold'; font-size:28px;">Đây là lớp học vẽ tranh màu nước hiện đại mà bên</tspan><tspan x="0" y="41" style="fill:#333333; font-family:'HelveticaNeue-Bold'; font-size:28px;">HANNA&apos;S FAMILY đã ấp ủ từ lâu. Lớp học được mở ra </tspan><tspan x="0" y="82" style="fill:#333333; font-family:'HelveticaNeue-Bold'; font-size:28px;">với mục đích mang tới các bạn trẻ kiến thức đầy đủ và </tspan><tspan x="0" y="123" style="fill:#333333; font-family:'HelveticaNeue-Bold'; font-size:28px;">hiện đại nhất về lý thuyết của màu nước, màu sắc, cách </tspan><tspan x="0" y="164" style="fill:#333333; font-family:'HelveticaNeue-Bold'; font-size:28px;">phối màu, chọn cọ, giấy vẽ.. đến kỹ thuật vẽ, kiểm soát </tspan><tspan x="0" y="205" style="fill:#333333; font-family:'HelveticaNeue-Bold'; font-size:28px;">lượng nước, vẽ phác thảo… </tspan><tspan x="0" y="287" style="fill:#333333; font-family:'HelveticaNeue-Bold'; font-size:28px;">Sau khoá học, các bạn học viên sẽ có đủ khả năng để </tspan><tspan x="0" y="328" style="fill:#333333; font-family:'HelveticaNeue-Bold'; font-size:28px;">sáng tác những tác phẩm màu nước theo sở thích </tspan><tspan x="0" y="369" style="fill:#333333; font-family:'HelveticaNeue-Bold'; font-size:28px;">của mình.</tspan></text>
	<polygon class="st0" points="-350.6,-6895.2 -1202.7,-6895.2 -1204.7,-6931.2 -352.6,-6931.2 	"/>
	<text transform="matrix(1 0 0 1 -1203.3024 -6905.6699)" style="fill:#4D4D4D; font-family:'MyriadPro-Bold'; font-size:36px;">Không gian lớp học</text>
	<g>
		<rect x="-1142" y="-1054.2" class="st0" width="548.9" height="56"/>
		<text transform="matrix(1 0 0 1 -1141.9801 -1020.191)" class="st6" style="font-family:'Anton'; font-size:47.8513px;">LỚP TRỰC TIẾP</text>
	</g>
	<g>
		<rect x="-1143.9" y="-738.2" class="st0" width="297.9" height="72.2"/>
		<text transform="matrix(1 0 0 1 -1143.9186 -704.1968)" class="st6" style="font-family:'Anton'; font-size:47.8513px;">LỚP ONLINE</text>
	</g>
	<rect x="-1140" y="-729.6" class="st0" width="523.4" height="204.9"/>
	<text transform="matrix(1 0 0 1 -1140.0421 -653.694)"><tspan x="0" y="0" style="fill:#333333; font-family:'HelveticaNeue-Medium'; font-size:24.3771px;">Lớp học online từ xa dành cho các bạn trong </tspan><tspan x="0" y="29.3" style="fill:#333333; font-family:'HelveticaNeue-Medium'; font-size:24.3771px;">&amp; ngoài nước</tspan><tspan x="0" y="87.8" style="fill:#333333; font-family:'HelveticaNeue-Medium'; font-size:24.3771px;">Đặc biệt là các bạn đang du học hoặc đang </tspan><tspan x="0" y="117" style="fill:#333333; font-family:'HelveticaNeue-Medium'; font-size:24.3771px;">làm việc ở nước ngoài</tspan></text>
	<g>
		<rect x="-1243.7" y="-327.2" class="st0" width="1624" height="143.2"/>
		<text transform="matrix(1 0 0 1 -906.2482 -272.5693)" class="st6" style="font-family:'Anton'; font-size:77px;">KODA WATERCOLOR COURSE  </text>
	</g>
	<rect x="-995.6" y="-3155.6" class="st0" width="664.3" height="113.2"/>
	<text transform="matrix(1 0 0 1 -995.5792 -3131.3535)" style="font-family:'UTM-Avo'; font-size:34.1658px;">PREPARATION OF WATERCOLORS</text>
	<rect x="-995.6" y="-3036.5" class="st0" width="664.3" height="113.2"/>
	<text transform="matrix(1 0 0 1 -995.5792 -3012.2817)" style="font-family:'UTM-Avo'; font-size:34.1658px;">FROM IDEA TO PAPER</text>
	<rect x="-995.6" y="-2917.5" class="st0" width="664.3" height="41.7"/>
	<text transform="matrix(1 0 0 1 -995.5792 -2893.209)" style="font-family:'UTM-Avo'; font-size:34.1658px;">TECHNIQUE WCL &amp; BRUSH STROKES</text>
	<rect x="-995.6" y="-2799.4" class="st0" width="664.3" height="113.2"/>
	<text transform="matrix(1 0 0 1 -995.5792 -2775.1406)" style="font-family:'UTM-Avo'; font-size:34.1658px;">KNOW YOUR OWN IDEAS</text>
	<rect x="-995.6" y="-2678.4" class="st0" width="664.3" height="113.2"/>
	<text transform="matrix(1 0 0 1 -995.5792 -2654.0977)" style="font-family:'UTM-Avo'; font-size:34.1658px;">THE BODY - BASIC</text>
	<rect x="-1104.7" y="-3062.2" class="st7" width="66" height="66"/>
	<rect x="-1096.6" y="-3051.5" class="st0" width="61.6" height="60.6"/>
	<text transform="matrix(1 0 0 1 -1096.6334 -3015.0806)" style="fill:#FFFFFF; font-family:'Anton'; font-size:51.2488px;">U2</text>
	<rect x="-1106.7" y="-3181.2" class="st7" width="67" height="66"/>
	<rect x="-1095.4" y="-3170.5" class="st0" width="61.6" height="60.6"/>
	<text transform="matrix(1 0 0 1 -1095.4122 -3134.1533)" style="fill:#FFFFFF; font-family:'Anton'; font-size:51.2488px;">U1</text>
	<rect x="-1104.7" y="-2943.2" class="st7" width="66" height="66"/>
	<rect x="-1096.6" y="-2932.4" class="st0" width="61.6" height="60.6"/>
	<text transform="matrix(1 0 0 1 -1096.6334 -2896.0093)" style="fill:#FFFFFF; font-family:'Anton'; font-size:51.2488px;">U3</text>
	<rect x="-1105.7" y="-2824.2" class="st7" width="67" height="66"/>
	<rect x="-1096.2" y="-2813.3" class="st0" width="61.6" height="60.6"/>
	<text transform="matrix(1 0 0 1 -1096.2262 -2776.937)" style="fill:#FFFFFF; font-family:'Anton'; font-size:51.2488px;">U4</text>
	<rect x="-1104.7" y="-2705.2" class="st7" width="66" height="65"/>
	<rect x="-1096.6" y="-2693.8" class="st0" width="61.6" height="60.6"/>
	<text transform="matrix(1 0 0 1 -1096.6334 -2657.4575)" style="fill:#FFFFFF; font-family:'Anton'; font-size:51.2488px;">U5</text>
	<rect x="-214.6" y="-3157.1" class="st0" width="530.8" height="113.2"/>
	<text transform="matrix(1 0 0 1 -214.6456 -3132.8066)" style="font-family:'UTM-Avo'; font-size:34.1658px;">THE CIRCLE OF COLORS</text>
	<rect x="-214.6" y="-3037.7" class="st0" width="664.3" height="113.2"/>
	<text transform="matrix(1 0 0 1 -214.6456 -3013.4297)" style="font-family:'UTM-Avo'; font-size:34.1658px;">PAINTING OUR ELEMENTS</text>
	<rect x="-214.6" y="-2916.3" class="st0" width="664.3" height="41.7"/>
	<text transform="matrix(1 0 0 1 -214.6456 -2892.0098)" style="font-family:'UTM-Avo'; font-size:34.1658px;">PROJECTS</text>
	<rect x="-214.6" y="-2815" class="st0" width="664.3" height="113.2"/>
	<text transform="matrix(1 0 0 1 -214.6456 -2797.0933)"><tspan x="0" y="0" style="font-family:'UTM-Avo'; font-size:25.2176px;">Bạn vui lòng liên hệ để có </tspan><tspan x="0" y="30.3" style="font-family:'UTM-Avo'; font-size:25.2176px;">chương trình học chi tiết và cụ thể</tspan></text>
	<rect x="-321.7" y="-3060.2" class="st7" width="66" height="65"/>
	<rect x="-313.3" y="-3049.8" class="st0" width="61.6" height="60.6"/>
	<text transform="matrix(1 0 0 1 -313.2599 -3013.4541)" style="fill:#FFFFFF; font-family:'Anton'; font-size:51.2488px;">U7</text>
	<rect x="-322.7" y="-3179.2" class="st7" width="66" height="65"/>
	<rect x="-314" y="-3168.9" class="st0" width="61.6" height="60.6"/>
	<text transform="matrix(1 0 0 1 -314.0394 -3132.5264)" style="fill:#FFFFFF; font-family:'Anton'; font-size:51.2488px;">U6</text>
	<rect x="-321.7" y="-2941.2" class="st7" width="66" height="65"/>
	<rect x="-313.3" y="-2930.8" class="st0" width="61.6" height="60.6"/>
	<text transform="matrix(1 0 0 1 -313.2599 -2894.3823)" style="fill:#FFFFFF; font-family:'Anton'; font-size:51.2488px;">U8</text>
	<rect x="-321.7" y="-2822.2" class="st7" width="66" height="65"/>
	<rect x="-312.9" y="-2811.7" class="st0" width="61.6" height="60.6"/>
	<text transform="matrix(1 0 0 1 -312.8517 -2775.3101)" style="fill:#FFFFFF; font-family:'Anton'; font-size:51.2488px;">U9</text>
	<rect x="-1146.6" y="1481.7" class="st0" width="650.5" height="255.3"/>
	<text transform="matrix(1 0 0 1 -1146.5675 1494.3275)"><tspan x="0" y="0" style="fill:#333333; font-family:'HelveticaNeue-Bold'; font-size:17.7417px;">Lưu ý: vì số lượng mỗi lớp hạn chế nên các bạn nhanh tay </tspan><tspan x="0" y="25.7" style="fill:#333333; font-family:'HelveticaNeue-Bold'; font-size:17.7417px;">đăng kí sớm và đóng học phí để mình giữ chỗ và xếp lớp.</tspan><tspan x="0" y="77.2" style="fill:#333333; font-family:'HelveticaNeue-Bold'; font-size:17.7417px;">Đăng kí trong 72h- Giảm 5% học phí</tspan><tspan x="0" y="102.9" style="fill:#333333; font-family:'HelveticaNeue-Bold'; font-size:17.7417px;">Học phí: các bạn vui lòng inbox và sẽ cung cấp số TK </tspan><tspan x="0" y="154.4" style="fill:#333333; font-family:'HelveticaNeue-Bold'; font-size:17.7417px;">p/s: Về bài học số 5 và bài số 6 trong chương trình học, </tspan><tspan x="0" y="180.1" style="fill:#333333; font-family:'HelveticaNeue-Bold'; font-size:17.7417px;">các bạn sẽ biết cách làm đẹp hình ảnh của chính </tspan><tspan x="0" y="205.8" style="fill:#333333; font-family:'HelveticaNeue-Bold'; font-size:17.7417px;">các bạn khi post lên Facebook</tspan></text>
	<g>
		<path class="st8" d="M-987.9,1118.6c-12.3,0-22.3,9.5-22.3,21.2c0,3.3,0.8,6.6,2.4,9.6l0,0c6.2,10.5,13.3,21.1,20,31.6
			c6.2-10.7,13.8-20.7,19.8-31.6c1.6-3,2.4-6.3,2.4-9.6C-965.6,1128.1-975.5,1118.6-987.9,1118.6L-987.9,1118.6L-987.9,1118.6z
			 M-987.8,1127.5c6.5,0,11.8,5.3,11.8,11.8v0c0,6.5-5.3,11.8-11.8,11.8c0,0,0,0,0,0c-6.5,0-11.8-5.3-11.8-11.8
			C-999.6,1132.8-994.3,1127.5-987.8,1127.5L-987.8,1127.5z"/>
	</g>
	<g>
		<path class="st8" d="M-648,1114.8c-12.3,0-22.3,9.5-22.3,21.2c0,3.3,0.8,6.6,2.4,9.6l0,0c6.2,10.5,13.3,21.1,20,31.6
			c6.2-10.7,13.8-20.7,19.8-31.6c1.6-3,2.4-6.3,2.4-9.6C-625.7,1124.3-635.7,1114.8-648,1114.8L-648,1114.8L-648,1114.8z
			 M-648,1123.7c6.5,0,11.8,5.3,11.8,11.8v0c0,6.5-5.3,11.8-11.8,11.8c0,0,0,0,0,0c-6.5,0-11.8-5.3-11.8-11.8
			C-659.7,1128.9-654.5,1123.7-648,1123.7L-648,1123.7z"/>
	</g>
	<rect x="-1162.6" y="1203.8" class="st0" width="349.5" height="68.9"/>
	<text transform="matrix(1 0 0 1 -1153.8673 1215.8812)"><tspan x="0" y="0" style="fill:#333333; font-family:'HelveticaNeue-Bold'; font-size:16.8546px;">345/86 TRẦN HƯNG ĐẠO P. Cầu Kho Q.1 </tspan><tspan x="32.9" y="25.7" style="fill:#333333; font-family:'HelveticaNeue-Bold'; font-size:16.8546px;">(KHỐI NGÀNH 3D &amp; Talent Team)</tspan></text>
	<rect x="-1132.9" y="1362.9" class="st0" width="290.1" height="68.9"/>
	
		<text transform="matrix(1 0 0 1 -1051.9689 1379.3969)" style="fill:#333333; font-family:'HelveticaNeue-Bold'; font-size:23.0642px;">0932709998</text>
	<rect x="-793" y="1362.9" class="st0" width="290.1" height="68.9"/>
	
		<text transform="matrix(1 0 0 1 -718.5045 1379.3969)" style="fill:#333333; font-family:'HelveticaNeue-Bold'; font-size:23.0642px;">0378 277 414 </text>
	<rect x="-793" y="1200" class="st0" width="290.1" height="68.9"/>
	
		<text transform="matrix(1 0 0 1 -750.5206 1212.6469)" style="fill:#333333; font-family:'HelveticaNeue-Bold'; font-size:17.7417px;">20 PHAN VĂN TRỊ P2 Q5</text>
	<g transform="translate(0,-952.36218)">
		<path class="st8" d="M-968.7,2237.1c3.4,3.6,5.9,6.9,6.5,10.1c-0.1,7.4-7,16.5-15.4,24.8c-8.3,8.3-17.9,16.4-24.9,15.4
			c-3.3-0.6-6.6-3.1-10.2-6.5c-1.2-1.1-1.2-3.5,0-4.6l7.1-7.1c1.2-1.2,3.6-1.2,5.2-0.4l4.8,3.5c2.5,2.2,7.9-3.2,11.5-6.7
			c3.6-3.6,9-8.4,6.7-11.5l-3.5-4.8c-0.8-1.5-0.8-3.9,0.4-5.1l7.1-7.1C-972.2,2235.9-969.8,2235.9-968.7,2237.1L-968.7,2237.1z"/>
	</g>
	<g transform="translate(0,-952.36218)">
		<path class="st8" d="M-628.8,2237.1c3.4,3.6,5.9,6.9,6.5,10.1c-0.1,7.4-7,16.5-15.4,24.8c-8.3,8.3-17.9,16.4-24.9,15.4
			c-3.3-0.6-6.6-3.1-10.2-6.5c-1.2-1.1-1.2-3.5,0-4.6l7.1-7.1c1.2-1.2,3.6-1.2,5.2-0.4l4.8,3.5c2.5,2.2,7.9-3.2,11.5-6.7
			c3.6-3.6,9-8.4,6.7-11.5l-3.5-4.8c-0.8-1.5-0.8-3.9,0.4-5.1l7.1-7.1C-632.3,2235.9-630,2235.9-628.8,2237.1L-628.8,2237.1z"/>
	</g>
	<g>
		<rect x="-1263" y="3135.2" class="st0" width="968" height="296"/>
		<text transform="matrix(1 0 0 1 -1263.0123 3239.5796)"><tspan x="0" y="0" class="st6" style="font-family:'Anton'; font-size:147px;">FROM STU</tspan><tspan x="641.9" y="0" class="st6" style="font-family:'Anton'; font-size:147px;">-</tspan><tspan x="0" y="176.4" class="st6" style="font-family:'Anton'; font-size:147px;">DENTS </tspan></text>
	</g>
	<g>
		<defs>
			<rect id="SVGID_1_" x="-1261.7" y="-2325.2" width="547" height="409"/>
		</defs>
		<clipPath id="SVGID_2_">
			<use xlink:href="#SVGID_1_"  style="overflow:visible;"/>
		</clipPath>
	</g>
	<g>
		<defs>
			<rect id="SVGID_3_" x="-93.7" y="-2325.2" width="546" height="409"/>
		</defs>
		<clipPath id="SVGID_4_">
			<use xlink:href="#SVGID_3_"  style="overflow:visible;"/>
		</clipPath>
	</g>
	<g>
		<defs>
			<rect id="SVGID_5_" x="-677.7" y="-2325.2" width="546" height="409"/>
		</defs>
		<clipPath id="SVGID_6_">
			<use xlink:href="#SVGID_5_"  style="overflow:visible;"/>
		</clipPath>
	</g>
	<g>
		<defs>
			<rect id="SVGID_7_" x="-1258.7" y="-1884.2" width="547" height="409"/>
		</defs>
		<clipPath id="SVGID_8_">
			<use xlink:href="#SVGID_7_"  style="overflow:visible;"/>
		</clipPath>
	</g>
	<g>
		<defs>
			<rect id="SVGID_9_" x="-675.7" y="-1884.2" width="546" height="409"/>
		</defs>
		<clipPath id="SVGID_10_">
			<use xlink:href="#SVGID_9_"  style="overflow:visible;"/>
		</clipPath>
	</g>
	<g>
		<defs>
			<rect id="SVGID_11_" x="-93.7" y="-1884.2" width="546" height="409"/>
		</defs>
		<clipPath id="SVGID_12_">
			<use xlink:href="#SVGID_11_"  style="overflow:visible;"/>
		</clipPath>
	</g>
	<rect x="-1097.1" y="175.4" class="st0" width="498" height="234"/>
	<text transform="matrix(1 0 0 1 -1034.7516 196.127)"><tspan x="0" y="0" style="fill:#BB8008; font-family:'HelveticaNeue-Bold'; font-size:29px;">Thành thạo kĩ thuật cơ bản</tspan><tspan x="5.9" y="50" style="font-family:'HelveticaNeue-Medium'; font-size:26px;">Cách sử dụng cọ và phân biệt </tspan><tspan x="94.1" y="100" style="font-family:'HelveticaNeue-Medium'; font-size:26px;">các loại giấy vẽ</tspan></text>
	<rect x="-1042.7" y="527.5" class="st0" width="389.3" height="234"/>
	<text transform="matrix(1 0 0 1 -1020.5275 548.1772)"><tspan x="0" y="0" style="fill:#BB8008; font-family:'HelveticaNeue-Bold'; font-size:29px;">Tự tạo ra tác phẩm riêng</tspan><tspan x="344.9" y="0" style="font-family:'HelveticaNeue'; font-size:29px;"> </tspan><tspan x="-6.7" y="50" style="font-family:'HelveticaNeue-Medium'; font-size:26px;">Dùng trong việc trang trí hoặc </tspan><tspan x="63.1" y="100" style="font-family:'HelveticaNeue-Medium'; font-size:26px;">công việc cá nhân</tspan></text>
	<rect x="-589.6" y="175.4" class="st0" width="401.5" height="234"/>
	<text transform="matrix(1 0 0 1 -537.692 196.127)"><tspan x="0" y="0" style="fill:#BB8008; font-family:'HelveticaNeue-Bold'; font-size:29px;">Tự tin với chính mình</tspan><tspan x="11.8" y="50" style="font-family:'HelveticaNeue-Bold'; font-size:26px;">Phác thảo và hình họa </tspan><tspan x="82.5" y="100" style="font-family:'HelveticaNeue-Bold'; font-size:26px;">vững chắc</tspan><tspan x="148.8" y="150" style="font-family:'HelveticaNeue-Medium'; font-size:26px;"> </tspan></text>
	<rect x="-617.1" y="527.5" class="st0" width="456.4" height="234"/>
	<text transform="matrix(1 0 0 1 -569.9259 548.1782)"><tspan x="0" y="0" style="fill:#BB8008; font-family:'HelveticaNeue-Bold'; font-size:29px;">Tim được dấu ấn cá nhân</tspan><tspan x="42.8" y="50" style="font-family:'HelveticaNeue-Medium'; font-size:26px;">Phát triển và nhận diện </tspan><tspan x="82.5" y="100" style="font-family:'HelveticaNeue-Medium'; font-size:26px;">được style riêng</tspan></text>
	<rect x="-98.9" y="175.4" class="st0" width="332.5" height="234"/>
	<text transform="matrix(1 0 0 1 -60.9313 196.127)"><tspan x="0" y="0" style="fill:#BB8008; font-family:'HelveticaNeue-Bold'; font-size:29px;">Phối màu linh hoạt</tspan><tspan x="-31.5" y="50" style="font-family:'HelveticaNeue-Bold'; font-size:26px;">Không còn phối màu theo </tspan><tspan x="71" y="100" style="font-family:'HelveticaNeue-Bold'; font-size:26px;">bản năng</tspan></text>
	<rect x="-94.9" y="527.5" class="st0" width="324.5" height="234"/>
	<text transform="matrix(1 0 0 1 -94.15 548.1772)"><tspan x="0" y="0" style="fill:#BB8008; font-family:'HelveticaNeue-Bold'; font-size:29px;">Nâng cao gout thẩm mĩ</tspan><tspan x="5.2" y="50" style="font-family:'HelveticaNeue-Medium'; font-size:29px;">Đánh giá được các sản </tspan><tspan x="62.5" y="100" style="font-family:'HelveticaNeue-Medium'; font-size:29px;">phẩm hình ảnh</tspan></text>
	<g>
		<path d="M-356.7-36.9c7.8-0.6,14.7,5,15.3,12.9c0.6,7.8-5,14.7-12.9,15.3c-7.9,0.6-14.7-5-15.3-12.9l0,0
			C-370.2-29.2-364.6-36.1-356.7-36.9z"/>
		<path d="M-353.5-3.9c-0.2,0-0.4,0-0.6,0c0,0,0,0,0.2,0C-353.7-3.9-353.5-3.9-353.5-3.9z"/>
		<path d="M-421-8.7c0,0.6-1.6,1-3.6,1c-1.8-0.2-3.6-0.6-5.6-1c1.8-0.4,3.6-0.8,5.6-1C-422.6-9.7-421-9.3-421-8.7z"/>
		<path d="M-337.2,10c-0.8-8.3-7.8-14.3-15.9-13.9h-0.2c-0.2,0-0.4,0-0.6,0c-0.2,0-0.4,0-0.6,0h-0.2c-2.8,0.4-5.4,1.6-7.6,3.4
			l-16.5,7.8l-32.4-15.1c10.3,0,25.6-1,25.6-1s-20.1-1.2-29.6-1h-0.2l0,0c-1.2,0-2.2,0.2-3.4,0.2c-0.4,0-0.6,0.4-0.6,0.8
			c0,0.4,0.2,0.6,0.6,0.6c1,0.2,1.8,0.2,2.8,0.2c-0.4,1.2-0.6,2.4-0.6,3.6c0,5,3,9.7,7.6,11.9l27,12.9c2,1,4.2,1,6.2,0l7.4-3.4
			l-0.4-4.2c0-0.4,0-1,0-1.4c0-2.6,0.6-5.4,2-7.6l0,0c0-0.2,0.2-0.2,0.4-0.2c0.2,0,0.4,0.2,0.6,0.4v0.2c-1.2,2.2-1.8,4.6-1.8,7.2
			c0,0.4,0,0.8,0,1.4l0.4,3.8l1,12.1l7.4-2.8l-2-22.3l0,0c0-0.2,0.2-0.4,0.4-0.6l0,0c0.2,0,0.4,0.2,0.6,0.4l2,23.1l-8.5,3l-16.5,6
			c-0.4-0.6-1-1.2-1.6-1.8c-3.4-2.6-12.9-2-20.9,1.2c-8.1,3.2-11.9,8.3-8.3,10.9c3.6,2.6,13.9,2.6,20.9-1.2c0.4-0.2,0.8-0.6,0.8-1
			c2.4,3,6.2,4.6,10.1,4.6c1.6,0,3-0.2,4.4-0.8L-365,43l15.9-5.8c3.2-1.2,5-4.2,4.8-7.6l-1.8-20.7l0,0c0-0.2,0.2-0.4,0.4-0.6l0,0
			c0.2,0,0.4,0.2,0.6,0.4l1.8,20.7c0.4,3.8-1.8,7.2-5.4,8.7l-16.1,5.8l0.2,2.6v2.2c0,4.6,2.2,9.1,5.8,12.1v79.5h9.5
			c5.2,0,9.5-4.2,9.5-9.5l0,0v-70c3.8-2.8,5.8-7.2,5.8-12.1v-2.2L-337.2,10z M-396.6,34c1.4-0.2,2.8,0.2,2.8,1c0,0.8-1,1.6-2.6,1.8
			c-1.6,0.2-2.8-0.2-2.8-1C-399.2,35-398.2,34.2-396.6,34z M-411.7,41.8c0-0.8,1-1.6,2.6-1.8c1.6-0.2,2.8,0.2,2.8,1
			c0,0.8-1,1.6-2.6,1.8C-410.5,43-411.5,42.6-411.7,41.8L-411.7,41.8z M-405.5,46.4c-1.4,0.2-2.8-0.2-2.8-1c0-0.8,1-1.6,2.6-1.8
			c1.6-0.2,2.8,0.2,2.8,1C-402.8,45.4-404,46.2-405.5,46.4L-405.5,46.4z M-403.6,39c-1.4,0.2-2.8-0.2-2.8-1c0-0.8,1-1.6,2.6-1.8
			c1.6-0.2,2.8,0.2,2.8,1C-401,38-402.2,39-403.6,39L-403.6,39z M-398,45.4c-1.4,0.2-2.8-0.2-2.8-1c0-0.8,1-1.6,2.6-1.8
			c1.6-0.2,2.8,0.2,2.8,1C-395.4,44.4-396.4,45.2-398,45.4L-398,45.4z M-394,39.6c0.2,0.4,0.2,0.6,0.4,1c-0.8,0-1.6-0.2-1.6-0.6
			c0-0.4,0.6-1,1.6-1c0.4,0,0.8,0,1.2,0.2L-394,39.6z M-388.5,36.8c-1.4,0.2-2.8-0.2-2.8-1c0-0.8,1-1.6,2.6-1.8
			c1.6-0.2,2.8,0.2,2.8,1C-385.9,35.8-387.1,36.6-388.5,36.8L-388.5,36.8z"/>
		<path d="M-427.6,49.7l-11.1-83.7c-0.2-1,0.6-2.2,1.8-2.2c1-0.2,2.2,0.6,2.2,1.8l11.1,83.9c0.2,1-0.6,2.2-1.8,2.2
			C-426.6,51.7-427.4,50.9-427.6,49.7L-427.6,49.7z"/>
		<path d="M-417.9,138c0.2,1-0.6,2.2-1.8,2.2c-1,0.2-2.2-0.6-2.2-1.8l-15.1-114.7l-15.1,114.7c-0.2,1-1.2,1.8-2.2,1.8
			c-1-0.2-1.8-1.2-1.8-2.2l16.9-127.8c0-0.4,0.2-0.6,0.4-0.8l-5.8-42.9c-0.2-1,0.6-2.2,1.8-2.2c1-0.2,2.2,0.6,2.2,1.8L-417.9,138z"
			/>
	</g>
	<g>
		<path d="M-804.2,44.9l-4.6-3.8c-4.7-3.9-7.6-9.6-8.1-15.8h-6.6c0.4,8.1,4.2,15.6,10.4,20.8l4.6,3.8c2.9,2.4,4.6,6,4.6,9.9v61.1
			c0,7.1-5.7,12.8-12.8,12.8h-63c-7.1,0-12.8-5.7-12.8-12.8V59.8c0-3.8,1.7-7.4,4.6-9.9l4.6-3.8c6.2-5.2,10-12.7,10.4-20.8h-6.6
			c-0.4,6.1-3.3,11.8-8.1,15.8l-4.6,3.8c-4.4,3.7-7,9.1-7,14.9v61.1c0,10.7,8.7,19.4,19.4,19.4h63c10.7,0,19.4-8.7,19.4-19.4V59.8
			C-797.2,54-799.7,48.6-804.2,44.9z"/>
		<polygon points="-858.9,25.3 -850.8,64.7 -843.7,64.7 -851.7,25.3 		"/>
		<path d="M-807,59.8c0-2.8-1.3-5.5-3.4-7.3l-4.6-3.8c-7-5.8-11.2-14.3-11.6-23.3h-21.7l8,39.4h33.3V59.8z"/>
		<path d="M-835,100.9l-8.5,2.8c-1.8,5.7-1.6,10,0.4,12.9c2,2.4,5,3.8,8.1,3.9h6.4c-1-1.5-1.5-3.2-1.5-4.9c0-0.1,0-0.3,0-0.4
			C-827.5,105.2-833.3,101.7-835,100.9z"/>
		<polygon points="-850.2,68 -843.6,100.3 -836.9,98.1 -843,68 		"/>
		<path d="M-869.5,25.3c-0.4,9.1-4.6,17.5-11.6,23.3l-4.6,3.8c-2.2,1.8-3.4,4.5-3.4,7.3v4.9h34.9l-8-39.4H-869.5z"/>
		<path d="M-889.1,120.9c0,5.3,4.3,9.5,9.5,9.5h63c5.3,0,9.5-4.3,9.5-9.5V68h-32.6l6.1,30c2.6,1.3,9.6,6,6.8,17.7
			c-0.1,2.6,1.9,4.7,4.5,4.8c0.1,0,0.3,0,0.4,0c0.9,0,1.6,0.7,1.6,1.6c0,0.9-0.7,1.6-1.6,1.6H-835c-4.2-0.1-8.1-2-10.8-5.2
			c-2.8-3.8-3-9.3-0.8-16.2l-7-34.4h-35.6V120.9z"/>
		<path d="M-856.4,2.3l-11.8-58c-0.4-1.9-2.2-3.1-4.1-2.7c-0.1,0-0.3,0.1-0.4,0.1c-1.7,0.6-2.7,2.3-2.3,4l11.6,56.6H-856.4z"/>
		<path d="M-880.9,15.4h65.7c0.9,0,1.6,0.7,1.6,1.6v3.3c0,0.9-0.7,1.6-1.6,1.6h-65.7c-0.9,0-1.6-0.7-1.6-1.6v-3.3
			C-882.6,16.2-881.8,15.4-880.9,15.4z"/>
		<path d="M-880.9,5.6h65.7c0.9,0,1.6,0.7,1.6,1.6v3.3c0,0.9-0.7,1.6-1.6,1.6h-65.7c-0.9,0-1.6-0.7-1.6-1.6V7.2
			C-882.6,6.3-881.8,5.6-880.9,5.6z"/>
	</g>
	<g>
		<path d="M-400.8,358.6c-0.7-1.5-1.7-2.9-2.9-4.1c-2.7-2.7-6.3-3.9-10.6-3.6c-1,0.1-1.7,0.9-1.7,1.9c0.1,1,0.9,1.7,1.9,1.7
			c3.3-0.2,5.9,0.7,8,2.6c0.3,0.3,0.7,0.7,0.9,1.1c-20.4-1.5-37.6,7.1-39.3,20.2c-1.8,13.8,17.8,2.1,39.7,4.9
			c21.9,2.9,37.9,19.3,39.7,5.5C-363.4,375.1-379.3,361.7-400.8,358.6z"/>
		<g>
			<path d="M-406.7,435.7c19.1,0,34.5-15.5,34.5-34.5c0-1.3-0.1-2.7-0.2-4c-3.1-0.6-6.6-2-10.8-3.8c-6.1-2.6-13.7-5.8-22-6.9
				c-2.2-0.3-4.7-0.4-7.1-0.4c-5.7,0-11.1,0.8-15.9,1.4c-3.8,0.5-7,1-9.8,1h0c-0.2,0-0.5,0-0.7,0c-1.6,3.9-2.4,8.2-2.4,12.7
				C-441.2,420.3-425.8,435.7-406.7,435.7z"/>
			<path d="M-378.4,432.6c-1.4,1.2-2.9,2.4-4.4,3.5c4.6,9,17.4,31.2,32.7,38.2l-19.9,5c-11.4-6.8-18.1-20.8-21.8-30.8
				c0.9,8.6,3.2,20.9,9.2,27.8l-14.3-2.7c-6.4-9.4-5.3-23.6-4.4-30.5c-1.8,0.2-3.6,0.4-5.4,0.4c-8.8,0-16.9-2.7-23.7-7.2l0,0
				c-0.7-0.5-1.5-1-2.2-1.6c-0.1-0.1-0.3-0.2-0.4-0.3c-0.7-0.5-1.4-1.1-2-1.7c0,0,0,0,0,0c-1.1,0.6-2.2,1.2-3.2,1.9
				c-0.3,0.2-0.6,0.4-0.9,0.5c-1,0.6-2,1.3-2.9,2c-0.3,0.2-0.6,0.4-0.8,0.6c-0.7,0.5-1.3,1-2,1.5c-0.4,0.3-0.9,0.7-1.3,1
				c-0.6,0.5-1.2,1-1.8,1.6c-0.7,0.6-1.3,1.2-1.9,1.9c-0.3,0.3-0.7,0.7-1,1c-8.6,9-14.7,20.6-17.1,33.6c0,0.2-0.1,0.3-0.1,0.5
				c-0.2,1.1-0.4,2.2-0.5,3.3c-0.1,0.5-0.1,1-0.2,1.5c-0.1,0.8-0.2,1.6-0.2,2.5c-0.1,1.4-0.2,2.8-0.2,4.3h38.8h86.1
				C-344.4,465.1-358.3,443.3-378.4,432.6z"/>
		</g>
	</g>
	<path d="M98.8,46.5c-0.2-0.2-0.4-0.4-0.7-0.5l-0.3-0.2c-0.2-0.1-0.4-0.2-0.6-0.3L97,45.4h-0.1c-0.5-0.1-1-0.1-1.5,0h-0.1l-0.4,0.1
		l-0.6,0.3L94,45.9c-0.2,0.2-0.5,0.3-0.7,0.5c-0.1,0.1-0.1,0.1-0.2,0.2c-3.9,3.7-7.4,14.2-7.4,28.1c0,11.4,5.4,42.3,8.7,59.7
		c0.2,0.9,1.1,1.6,2,1.4c0.7-0.1,1.2-0.7,1.4-1.4c3.2-17.4,8.6-48.3,8.6-59.7c0-13.9-3.5-24.5-7.4-28.1L98.8,46.5z"/>
	<path d="M92.3,37.4c0.6,0.2,1.1,0.4,1.7,0.5l0,0c1.3,0.3,2.7,0.3,4.1,0l0,0c0.6-0.1,1.2-0.3,1.7-0.5c4-1.6,6.6-5.4,6.6-9.6
		c0-4.5-6.6-18.5-10.4-26c-3.7,7.5-10.3,21.5-10.3,26C85.7,32,88.4,35.8,92.3,37.4z"/>
	<path d="M53,0.6c-8.8-1.7-18,0.3-25.2,5.6C12.6,15.7-2.4,39,0.3,67.8c1.5,24.1,13.9,46.1,33.8,59.8c7.8,5.4,16,8.4,22.6,8.4
		c1.3,0,2.7-0.1,4-0.4c2.2-0.3,4.2-1.5,5.5-3.3c2.5-3.8,1.3-9.5-0.1-16.2c-0.6-3-1.3-6.1-1.7-9.4C62.8,96,63.1,85,65.2,74.3l0,0
		c0.6-4.6,1.6-9.3,2.6-14.3c3.3-16.5,6.7-33.6-1.6-50.3C63.2,5,58.5,1.7,53,0.6z M42.5,22.5c-3.1,0-5.7-2.5-5.7-5.7
		c0-3.1,2.5-5.7,5.7-5.7c3.1,0,5.7,2.5,5.7,5.7c0,0,0,0.1,0,0.1C48.1,20,45.6,22.5,42.5,22.5z M25.6,67.8c0,3.1-2.5,5.7-5.7,5.7
		c-3.1,0-5.7-2.5-5.7-5.7c0-3.1,2.5-5.7,5.7-5.7l0,0C23.1,62.2,25.6,64.7,25.6,67.8z M25.6,42.2c-3.1,0-5.7-2.5-5.7-5.7
		s2.5-5.7,5.7-5.7c3.1,0,5.7,2.5,5.7,5.7l0,0C31.3,39.6,28.8,42.2,25.6,42.2z M29.9,92.5c3.1,0,5.7,2.5,5.7,5.7
		c0,3.1-2.5,5.7-5.7,5.7c-3.1,0-5.7-2.5-5.7-5.7C24.2,95,26.8,92.5,29.9,92.5L29.9,92.5z M47.8,111.3c3.1,0,5.6,2.6,5.6,5.7
		c0,3.1-2.6,5.6-5.7,5.6c-3.1,0-5.6-2.6-5.6-5.7C42.2,113.8,44.7,111.3,47.8,111.3L47.8,111.3z M49.7,70.1c-4.8,0-8.9-6.6-8.9-14.4
		c0-7.8,4.1-14.4,8.9-14.4s8.9,6.6,8.9,14.4C58.6,63.5,54.5,70.1,49.7,70.1z"/>
	<g>
		<path d="M-880,359.7v19.4h12.8c7.7,0,14,6.3,14,14v10.3c0,2.7,2.2,4.9,4.9,4.9c2.7,0,4.9-2.2,4.9-4.9v-17c0-4,3.3-7.3,7.3-7.3
			c4,0,7.3,3.3,7.3,7.3v5.7c0,2.7,2.2,4.9,4.9,4.9c2.7,0,4.9-2.2,4.9-4.9v-10.5c0-1.3,1.1-2.4,2.4-2.4h9.7v-19.4H-880z"/>
		<path d="M-814.3,392.1c0,5.4-4.4,9.7-9.7,9.7c-5.4,0-9.7-4.4-9.7-9.7v-5.7c0-1.3-1.1-2.4-2.4-2.4c-1.3,0-2.4,1.1-2.4,2.4v17
			c0,5.4-4.4,9.7-9.7,9.7c-5.4,0-9.7-4.4-9.7-9.7v-10.3c0-5-4.1-9.1-9.1-9.1l0,0H-880v31.6h72.9V384h-7.3V392.1z"/>
		<path d="M-880,435.9c0,0.5,0,0.9,0,1.4c0,0.6,0.1,1.2,0.3,1.8c0,0.2,0,0.3,0,0.5c0,0,0,0,0,0.1c0,0.1,0,0,0,0h72.1l0,0
			c0,0,0,0,0-0.1c0-0.2,0-0.3,0-0.5c0.1-0.6,0.2-1.2,0.3-1.8c0-0.5,0-0.9,0-1.4v-15.4H-880V435.9z"/>
		<path d="M-876.6,445.7c0.2,0.2,0.3,0.4,0.5,0.6c0.2,0.3,0.4,0.5,0.7,0.7c0.7,0.7,1.4,1.3,2.1,1.8c0.1,0.1,0.1,0.1,0.2,0.1
			c0.2,0.2,0.5,0.3,0.8,0.5c0.6,0.4,1.1,0.7,1.7,0.9l0.9,0.4l1,0.3l0.6,0.2l1.1,0.3h0.2l1.2,0.2h0.4c0.5,0,1,0,1.4,0
			c6.6,0,11.8,5.3,11.8,11.9c0,0.5,0,1.1-0.1,1.6l-3.6,26c-1,6.8,3.7,13,10.5,14c6.8,1,13-3.7,14-10.5c0.2-1.1,0.2-2.3,0-3.5
			l-3.7-25.9c-0.9-6.5,3.6-12.5,10.1-13.4c0.5-0.1,1.1-0.1,1.6-0.1c0.5,0,1,0,1.4,0h0.4l1.2-0.2h0.2l1.1-0.3l0.6-0.2l1-0.3l0.9-0.4
			c0.6-0.3,1.2-0.6,1.7-0.9c0.3-0.1,0.5-0.3,0.8-0.5c0.1,0,0.1-0.1,0.2-0.1c0.8-0.6,1.5-1.2,2.1-1.8c0.2-0.2,0.5-0.5,0.7-0.7
			c0.2-0.2,0.4-0.4,0.5-0.6c0.2-0.3,0.5-0.6,0.7-1h-67.6C-877.1,445.1-876.8,445.4-876.6,445.7z"/>
	</g>
	<g>
		<g>
			<path d="M36.6,475.3l-9.5,26c-0.2,0.7-0.1,1.4,0.3,2c0.4,0.6,1.1,1,1.8,1h8.9c0.9,0,1.8-0.6,2.1-1.5l10-27.5H36.6z"/>
			<path d="M81.1,370.5l-1.2-7.1c-0.2-1.1-1.1-1.9-2.2-1.9h-8.9c-1.1,0-2,0.8-2.2,1.9l-1.2,7.1H81.1z"/>
			<path d="M109.9,475.3H96.2l10,27.5c0.3,0.9,1.2,1.5,2.1,1.5h8.9c0.7,0,1.4-0.4,1.8-1c0.4-0.6,0.5-1.4,0.3-2L109.9,475.3z"/>
			<path d="M67.1,475.3l1.7,22.5c0.1,1.2,1.1,2.1,2.2,2.1h4.5c1.2,0,2.1-0.9,2.2-2.1l1.7-22.5H67.1z"/>
			<path d="M126.8,457.5H19.7c-1.2,0-2.2,1-2.2,2.2v8.9c0,1.2,1,2.2,2.2,2.2h107.1c1.2,0,2.2-1,2.2-2.2v-8.9
				C129,458.4,128,457.5,126.8,457.5z"/>
		</g>
		<g>
			<g>
				<polygon points="52.9,374.9 44.6,374.9 46.1,383.1 51.3,383.1 				"/>
				<polygon points="101.9,374.9 93.7,374.9 95.2,383.1 100.4,383.1 				"/>
				<path d="M73.3,392.8c1.2,0,2.2,1,2.2,2.2c0,1.2-1,2.2-2.2,2.2c-1.2,0-2.2-1-2.2-2.2C71,393.8,72,392.8,73.3,392.8z"/>
				<path d="M30.9,428.5v-53.5h-6.7c-1.2,0-2.2,1-2.2,2.2v73.6c0,1.2,1,2.2,2.2,2.2h6.7V428.5z"/>
				<path d="M75.3,407.9c0.9-1.1,2.1-1.7,3.5-1.7h11l5.4-9c0.8-1.3,2.3-2.2,3.8-2.2h12.1v-20.1h-4.7l-2,10.8
					c-0.2,1.1-1.1,1.8-2.2,1.8h-8.9c-1.1,0-2-0.8-2.2-1.8l-2-10.8H57.4l-2,10.8c-0.2,1.1-1.1,1.8-2.2,1.8h-8.9c-1.1,0-2-0.8-2.2-1.8
					l-2-10.8h-4.7v51.3H61L75.3,407.9z M73.3,388.3c3.7,0,6.7,3,6.7,6.7c0,3.7-3,6.7-6.7,6.7c-3.7,0-6.7-3-6.7-6.7
					C66.6,391.3,69.6,388.3,73.3,388.3z M56.5,401.7c-0.6,0-1.1,0.5-1.1,1.1v1.1c0,1.2-1,2.2-2.2,2.2H42v-4.5h9
					c0.5-2.5,2.8-4.5,5.5-4.5c3.1,0,5.6,2.5,5.6,5.6v3.3h-4.5v-3.3C57.7,402.2,57.1,401.7,56.5,401.7z"/>
				<path d="M122.3,374.9h-6.7v22.3V453h6.7c1.2,0,2.2-1,2.2-2.2v-73.6C124.6,375.9,123.6,374.9,122.3,374.9z"/>
				<path d="M88.9,435.1c0-1.2,1-2.2,2.2-2.2h2.2v-17.8h4.5v17.8H99l2.4-13.8l4.4,0.8l-2.3,13h1c1.2,0,2.2,1,2.2,2.2V453h4.5v-53.5
					H99.1l-6,10.1c-0.4,0.7-1.1,1.1-1.9,1.1H78.8l-14.9,19.2c-0.4,0.5-1.1,0.9-1.8,0.9H35.3V453h4.5c0-9.8,8-17.8,17.8-17.8h4.5
					c9.8,0,17.8,8,17.8,17.8h8.9V435.1z M77.7,428.5V424h8.9v4.5H77.7z"/>
				<rect x="93.3" y="437.4" width="8.9" height="15.6"/>
			</g>
			<path d="M62.1,439.6h-4.5c-7.4,0-13.4,6-13.4,13.4h31.2C75.5,445.6,69.5,439.6,62.1,439.6z M53.2,450.8h-4.5v-4.5h4.5V450.8z
				 M62.1,446.3h-4.5v-4.5h4.5V446.3z M71,450.8h-4.5v-4.5H71V450.8z"/>
		</g>
	</g>
</g>
<g id="Layer_7">
	<rect x="-1201.8" y="-7685.9" class="st0" width="864.3" height="96.7"/>
	<text transform="matrix(1 0 0 1 -1201.8331 -7632.6958)" style="fill:#B38005; font-family:'Anton'; font-size:75px;">KODA WATERCOLOR </text>
</g>
<g id="Layer_8">
	<g>
		<defs>
			<rect id="SVGID_13_" x="-1366.7" y="-9991.2" width="1920" height="1080"/>
		</defs>
		<clipPath id="SVGID_14_">
			<use xlink:href="#SVGID_13_"  style="overflow:visible;"/>
		</clipPath>
	</g>
</g>
<g id="Layer_9">
</g>
<g id="Layer_10">
</g>
</svg>
