<?xml version="1.0" encoding="utf-8"?>
<!-- Generator: Adobe Illustrator 24.3.0, SVG Export Plug-In . SVG Version: 6.00 Build 0)  -->
<svg version="1.1" xmlns="http://www.w3.org/2000/svg" xmlns:xlink="http://www.w3.org/1999/xlink" x="0px" y="0px" width="57.8px"
	 height="57.8px" viewBox="0 0 57.8 57.8" style="enable-background:new 0 0 57.8 57.8;" xml:space="preserve">
<style type="text/css">
	.st0{fill:#FFFFFF;}
	.st1{fill:#004068;}
	.st2{fill:#F7CF38;}
	.st3{fill:#FF9D31;}
	.st4{fill:#DE9700;}
	.st5{fill:#02B9CD;}
	.st6{fill:#F88008;}
	.st7{fill:#FFDE83;}
	.st8{fill:#FFBE3B;}
	.st9{fill:#FF9E31;}
	.st10{fill:#333333;}
	.st11{fill:#4D4D4D;}
	.st12{fill:#FF6400;}
</style>
<g id="Layer_2">
</g>
<g id="Layer_1">
	<rect x="-692.8" y="-11229" class="st0" width="1920" height="1080"/>
	<rect x="-692.8" y="-10148" class="st0" width="1920" height="1080"/>
	<rect x="-692.8" y="-7989" class="st0" width="1920" height="1080"/>
	<rect x="-692.8" y="-6909" class="st0" width="1920" height="1080"/>
	<rect x="-692.8" y="-5829" class="st0" width="1920" height="1080"/>
	<rect x="-692.8" y="-4749" class="st0" width="1920" height="1080"/>
	<rect x="-692.8" y="-3669" class="st0" width="1920" height="1080"/>
	<rect x="-692.8" y="-2589" class="st0" width="1920" height="1080"/>
	<rect x="-692.8" y="-1509" class="st0" width="1920" height="1080"/>
	<rect x="-692.8" y="-429" class="st0" width="1920" height="1080"/>
	<rect x="-692.8" y="651" class="st0" width="1920" height="1080"/>
</g>
<g id="Layer_3">
	<rect x="92.9" y="-9545.4" style="fill:none;" width="1076.2" height="75"/>
	
		<text transform="matrix(1 0 0 1 92.9466 -9503.5039)" class="st1" style="font-family:'HelveticaNeue-Bold'; font-size:58.7032px;">Upgrade Program 2024</text>
	<text transform="matrix(1 0 0 1 92.9466 -9725.0479)"><tspan x="0" y="0" style="fill:#044784; font-family:'Anton'; font-size:97.8386px;">KHAI GIẢNG KHÓA </tspan><tspan x="0" y="135.9" style="fill:#044784; font-family:'Anton'; font-size:97.8386px;">LỚP KODA PHOTOSHOP H298 </tspan></text>
	<rect x="444.2" y="-9564" class="st1" width="26" height="19"/>
</g>
<g id="Layer_6">
</g>
<g id="Layer_4">
	<g>
		<defs>
			<rect id="SVGID_1_" x="-692.8" y="-11229" width="1920" height="1080"/>
		</defs>
		<clipPath id="SVGID_2_">
			<use xlink:href="#SVGID_1_"  style="overflow:visible;"/>
		</clipPath>
	</g>
</g>
<g id="Layer_5">
	<rect x="-692.8" y="-5740" class="st2" width="1076" height="116"/>
	<rect x="-692.8" y="-2588" class="st3" width="816.6" height="1080"/>
	<rect x="-586.7" y="-2509.4" class="st0" width="649.5" height="950.8"/>
	<rect x="86.2" y="-9451" class="st4" width="1014" height="43"/>
	<rect x="83.2" y="-9393" class="st4" width="331" height="44"/>
	<text transform="matrix(1 0 0 1 95.9471 -9418.5938)"><tspan x="0" y="0" class="st0" style="font-family:'MyriadPro-Bold'; font-size:33.7px;">CHƯƠNG TRÌNH HỌC CẬP NHẬT LIÊN TỤC ĐỔI MỚI KHÔNG NGỪNG </tspan><tspan x="0" y="57.6" class="st0" style="font-family:'MyriadPro-Bold'; font-size:33.7px;">THEO QUÝ MỖI NĂM</tspan></text>
	<g>
		<text transform="matrix(1 0 0 1 -479.3376 -5652.5464)" class="st10" style="font-family:'Anton'; font-size:64.8602px;">NỘI DUNG CHƯƠNG TRÌNH KHÓA HỌC</text>
	</g>
	<rect x="198.5" y="-2283.3" style="fill:none;" width="959.1" height="157.3"/>
	<text transform="matrix(1 0 0 1 198.4564 -2261.1414)"><tspan x="0" y="0" class="st10" style="font-family:'HelveticaNeue-Medium'; font-size:31px;">Lớp Sáng:</tspan><tspan x="148.7" y="0" class="st10" style="font-family:'HelveticaNeue-Medium'; font-size:29px;"> Thứ 2-4: 8h30-10h30 sáng</tspan><tspan x="0" y="37.2" class="st10" style="font-family:'HelveticaNeue-Medium'; font-size:31px;">Lớp Tối:</tspan><tspan x="119.4" y="37.2" class="st10" style="font-family:'HelveticaNeue-Medium'; font-size:29px;"> Thứ 2-4: 7-9h tối</tspan><tspan x="0" y="74.4" class="st10" style="font-family:'HelveticaNeue-Medium'; font-size:31px;">Lớp Tối:</tspan><tspan x="119.4" y="74.4" class="st10" style="font-family:'HelveticaNeue-Medium'; font-size:29px;"> Thứ 6: 7-9h tối: Full Slot</tspan></text>
	<rect x="267.2" y="-7518" style="fill:none;" width="790.6" height="191.3"/>
	<text transform="matrix(1 0 0 1 463.3333 -7490.875)"><tspan x="0" y="0" style="font-family:'HelveticaNeue-Medium'; font-size:38px;">Nhằm đảm bảo chất lượng đầu ra </tspan><tspan x="109.5" y="64" style="font-family:'HelveticaNeue-Medium'; font-size:38px;">Chúng tôi xin phép giới hạn </tspan><tspan x="292.1" y="128" style="font-family:'HelveticaNeue-Medium'; font-size:38px;">số lượng mỗi lớp</tspan></text>
	<rect x="-5.1" y="-7791" style="fill:none;" width="1062.9" height="246.6"/>
	<text transform="matrix(1 0 0 1 90.5326 -7722.125)"><tspan x="0" y="0" style="fill:#F78508; font-family:'Anton'; font-size:97px;">Chất lượng người học là </tspan><tspan x="277.9" y="116.4" style="fill:#F78508; font-family:'Anton'; font-size:97px;">ưu tiên hàng đầu</tspan></text>
	<g>
		<rect x="-569" y="-2470.3" style="fill:none;" width="666.1" height="157.4"/>
		<text transform="matrix(1 0 0 1 -569.0109 -2394.49)"><tspan x="0" y="0" style="fill:#00B2DD; font-family:'Anton'; font-size:91px;">Thời</tspan><tspan x="167.3" y="0" style="fill:#00B2DD; font-family:'AppleBraille-Outline6Dot'; font-size:91px;"> </tspan><tspan x="198.4" y="0" style="fill:#00B2DD; font-family:'Anton'; font-size:91px;">gian</tspan><tspan x="365" y="0" style="fill:#00B2DD; font-family:'AppleBraille-Outline6Dot'; font-size:91px;"> </tspan><tspan x="396.1" y="0" style="fill:#00B2DD; font-family:'Anton'; font-size:91px;">học</tspan><tspan x="537.3" y="0" style="fill:#00B2DD; font-family:'AppleBraille-Outline6Dot'; font-size:91px;"> </tspan><tspan x="568.4" y="0" style="fill:#00B2DD; font-family:'Anton'; font-size:91px;">:</tspan></text>
	</g>
	<rect x="-537.5" y="-321.6" style="fill:none;" width="366.6" height="135.4"/>
	<text transform="matrix(1 0 0 1 -537.5343 -251.3113)" style="fill:#ED7837; font-family:'Anton'; font-size:99px;">ĐỊA </text>
	<rect x="-544.5" y="238.1" style="fill:none;" width="707.5" height="51.4"/>
	<text transform="matrix(1 0 0 1 -544.462 252.3996)" class="st10" style="font-family:'HelveticaNeue-Bold'; font-size:20px;">2 chi nhánh cách nhau 30s đi xe máy</text>
	<path class="st5" d="M-285.8-8242.7c0,4.2-3.4,7.7-7.7,7.7h-229.6c-4.2,0-7.7-3.4-7.7-7.7v-65.6c0-4.2,3.4-7.7,7.7-7.7h229.6
		c4.2,0,7.7,3.4,7.7,7.7V-8242.7z"/>
	<rect x="-584.3" y="-8295.5" style="fill:none;" width="348.1" height="74"/>
	<text transform="matrix(1 0 0 1 -503.2746 -8256.9609)" class="st0" style="font-family:'HelveticaNeue-Bold'; font-size:54px;">Liên hệ</text>
	<path class="st6" d="M1055.2-7222.7c0,4.2-3.4,7.7-7.7,7.7H817.9c-4.2,0-7.7-3.4-7.7-7.7v-65.6c0-4.2,3.4-7.7,7.7-7.7h229.6
		c4.2,0,7.7,3.4,7.7,7.7V-7222.7z"/>
	<rect x="756.7" y="-7275.5" style="fill:none;" width="348.1" height="74"/>
	<text transform="matrix(1 0 0 1 837.7255 -7236.9609)" class="st0" style="font-family:'HelveticaNeue-Bold'; font-size:54px;">Liên hệ</text>
	<path d="M429.2-1655.7c0,4.2-3.4,7.7-7.7,7.7H191.9c-4.2,0-7.7-3.4-7.7-7.7v-65.6c0-4.2,3.4-7.7,7.7-7.7h229.6
		c4.2,0,7.7,3.4,7.7,7.7V-1655.7z"/>
	<rect x="130.7" y="-1708.5" style="fill:none;" width="348.1" height="74"/>
	<text transform="matrix(1 0 0 1 211.725 -1669.9607)" class="st0" style="font-family:'HelveticaNeue-Bold'; font-size:54px;">Liên hệ</text>
	<rect x="1088.2" y="-2305.9" class="st3" width="139" height="481.8"/>
	<rect x="-688.8" y="-4437" class="st7" width="1916" height="424"/>
	<rect x="588" y="-423" class="st8" width="639.1" height="1080"/>
	<rect x="-692.8" y="-983.5" class="st8" width="103.1" height="356"/>
	<rect x="-530.8" y="-8730.6" style="fill:none;" width="522.3" height="245.3"/>
	<text transform="matrix(1 0 0 1 -530.837 -8671.0762)"><tspan x="0" y="0" class="st10" style="font-family:'HelveticaNeue-Bold'; font-size:26px;">Đây là bộ môn mang lại tư duy về thẩm </tspan><tspan x="0" y="41" class="st10" style="font-family:'HelveticaNeue-Bold'; font-size:26px;">mĩ trong thiết kế được nâng cấp dựa trên </tspan><tspan x="0" y="82" class="st10" style="font-family:'HelveticaNeue-Bold'; font-size:26px;">xu hướng 2024 và được thiết lập trong </tspan><tspan x="0" y="123" class="st10" style="font-family:'HelveticaNeue-Bold'; font-size:26px;">giáo án chương trình học cho các sinh </tspan><tspan x="0" y="164" class="st10" style="font-family:'HelveticaNeue-Bold'; font-size:26px;">viên tại Nhật Bản</tspan></text>
	<polygon style="fill:none;" points="323.2,-8326.6 -528.8,-8326.6 -530.8,-8362.6 321.2,-8362.6 	"/>
	<text transform="matrix(1 0 0 1 -529.4176 -8337.0381)" class="st11" style="font-family:'MyriadPro-Bold'; font-size:36px;">Không gian lớp học</text>
	
		<image style="overflow:visible;" width="720" height="720" xlink:href="../../../../Downloads/LAYOUT 6/IMAG/PIC (5).jpg"  transform="matrix(0.9036 0 0 0.9036 -676.3638 -7816.3062)">
	</image>
	
		<image style="overflow:visible;" width="991" height="1341" xlink:href="../../../../Downloads/LAYOUT 6/IMAG/PIC (3).jpg"  transform="matrix(0.3919 0 0 0.3919 -32.5082 -7576.77)">
	</image>
	
		<image style="overflow:visible;" width="1080" height="1528" xlink:href="../../../../Downloads/LAYOUT 6/IMAG/PIC (1).jpg"  transform="matrix(0.2587 0 0 0.2587 -312.3763 -7363.5186)">
	</image>
	<g>
		<rect x="194.2" y="-2399" style="fill:none;" width="608" height="138"/>
		<text transform="matrix(1 0 0 1 194.1629 -2361.364)" class="st3" style="font-family:'Anton'; font-size:53px;">LỚP TRỰC TIẾP</text>
	</g>
	<g>
		<rect x="-561.8" y="-3500.2" style="fill:none;" width="865.1" height="75.2"/>
		<text transform="matrix(1 0 0 1 -561.7531 -3450.5105)" class="st12" style="font-family:'Anton'; font-size:70px;">3 LÝ DO CHÍNH BẠN NÊN </text>
	</g>
	<g>
		<rect x="-561.8" y="-3409.2" style="fill:none;" width="865.1" height="75.2"/>
		<text transform="matrix(1 0 0 1 -561.7531 -3375.1042)" class="st12" style="font-family:'Anton'; font-size:48px;">KODA PHOTOSHOP tại HANNA&apos;S FAMILY</text>
	</g>
	<rect x="-416.8" y="-3215.6" style="fill:none;" width="816.6" height="139.1"/>
	<text transform="matrix(1 0 0 1 -416.7755 -3185.7395)" class="st11" style="font-family:'UTM-Avo'; font-size:42px;">Chất lượng giảng dạy</text>
	<rect x="-317.4" y="-5512.4" style="fill:none;" width="737.7" height="125.7"/>
	<text transform="matrix(1 0 0 1 -317.3766 -5486.8193)" style="font-family:'UTM-Avo'; font-size:36px;">INTRODUCTION</text>
	<rect x="-317.4" y="-5380.2" style="fill:none;" width="737.7" height="125.7"/>
	<text transform="matrix(1 0 0 1 -317.3766 -5354.5991)" style="font-family:'UTM-Avo'; font-size:36px;">THE KOKLORS &amp; CONCESK</text>
	<rect x="-317.4" y="-5247.9" style="fill:none;" width="737.7" height="46.3"/>
	<text transform="matrix(1 0 0 1 -317.3766 -5222.3779)" style="font-family:'UTM-Avo'; font-size:36px;">DESIGN </text>
	<rect x="-317.4" y="-5116.8" style="fill:none;" width="737.7" height="125.7"/>
	<text transform="matrix(1 0 0 1 -317.3766 -5091.2715)" style="font-family:'UTM-Avo'; font-size:36px;">EFFECTS, FINAL DETAILS, AND EXTRAS</text>
	<rect x="-317.4" y="-4982.4" style="fill:none;" width="737.7" height="125.7"/>
	<text transform="matrix(1 0 0 1 -317.3766 -4956.8623)" style="font-family:'UTM-Avo'; font-size:36px;">LAYOUKA, RATIONNE TYPES</text>
	<rect x="-416.8" y="-3065.6" style="fill:none;" width="816.6" height="139.1"/>
	<text transform="matrix(1 0 0 1 -416.7755 -3035.7942)" class="st11" style="font-family:'UTM-Avo'; font-size:42px;">Giảng viên giàu kinh nghiệm</text>
	<rect x="-416.8" y="-2915.9" style="fill:none;" width="816.6" height="139.1"/>
	<text transform="matrix(1 0 0 1 -416.7755 -2886.1106)" class="st11" style="font-family:'UTM-Avo'; font-size:42px;">Không gian lớp học đa concept</text>
	<g>
		<rect x="194.2" y="-2032" style="fill:none;" width="330" height="80"/>
		<text transform="matrix(1 0 0 1 194.1629 -1994.364)" class="st3" style="font-family:'Anton'; font-size:53px;">LỚP ONLINE</text>
	</g>
	<rect x="198.5" y="-2015" style="fill:none;" width="579.7" height="227"/>
	<text transform="matrix(1 0 0 1 198.4564 -1930.9292)"><tspan x="0" y="0" class="st10" style="font-family:'HelveticaNeue-Medium'; font-size:27px;">Lớp học online từ xa dành cho các bạn trong </tspan><tspan x="0" y="32.4" class="st10" style="font-family:'HelveticaNeue-Medium'; font-size:27px;">&amp; ngoài nước</tspan><tspan x="0" y="97.2" class="st10" style="font-family:'HelveticaNeue-Medium'; font-size:27px;">Đặc biệt là các bạn đang du học hoặc đang </tspan><tspan x="0" y="129.6" class="st10" style="font-family:'HelveticaNeue-Medium'; font-size:27px;">làm việc ở nước ngoài</tspan></text>
	
		<ellipse transform="matrix(0.9998 -1.787072e-02 1.787072e-02 0.9998 57.0479 -9.5487)" class="st9" cx="-505.8" cy="-3196.8" rx="58.8" ry="58.8"/>
	
		<ellipse transform="matrix(0.9998 -1.787072e-02 1.787072e-02 0.9998 54.4654 -9.5256)" class="st9" cx="-505.8" cy="-3052.3" rx="58.8" ry="58.8"/>
	
		<ellipse transform="matrix(1.667897e-02 -0.9999 0.9999 1.667897e-02 2404.0317 -3359.0369)" class="st9" cx="-505.8" cy="-2901.8" rx="58.8" ry="58.8"/>
	<rect x="-561.8" y="-3229" style="fill:none;" width="112" height="158"/>
	<text transform="matrix(1 0 0 1 -521.9122 -3184.2644)" class="st0" style="font-family:'Anton'; font-size:63px;">1</text>
	<rect x="-561.8" y="-3079.4" style="fill:none;" width="112" height="86"/>
	<text transform="matrix(1 0 0 1 -521.9122 -3034.7146)" class="st0" style="font-family:'Anton'; font-size:63px;">2</text>
	<rect x="-561.8" y="-2928.9" style="fill:none;" width="112" height="86"/>
	<text transform="matrix(1 0 0 1 -521.9122 -2884.2029)" class="st0" style="font-family:'Anton'; font-size:63px;">3</text>
	<g>
		<rect x="-569.9" y="-1376" style="fill:none;" width="1624" height="170.1"/>
		<text transform="matrix(1 0 0 1 -215.0421 -1337.658)"><tspan x="0" y="0" style="fill:#E26F10; font-family:'Anton'; font-size:54px;">KODA PHOTOSHOP là môn học giúp bạn </tspan><tspan x="18.9" y="81" style="fill:#E26F10; font-family:'Anton'; font-size:54px;">ứng dụng nhiều vào cuộc sống hiện tại</tspan></text>
	</g>
	<g>
		<g>
			<rect x="-423.2" y="-1023.4" style="fill:none;" width="498" height="234"/>
			<text transform="matrix(1 0 0 1 -329.8664 -1002.6472)"><tspan x="0" y="0" class="st6" style="font-family:'HelveticaNeue-Bold'; font-size:29px;">Thông thạo phần mềm </tspan><tspan x="38.1" y="50" style="font-family:'HelveticaNeue'; font-size:29px;">Photoshop từ A-Z</tspan></text>
			<rect x="-368.8" y="-710.3" style="fill:none;" width="389.3" height="234"/>
			<text transform="matrix(1 0 0 1 -360.446 -689.6208)"><tspan x="0" y="0" class="st6" style="font-family:'HelveticaNeue-Bold'; font-size:29px;">Thiết kế ấn phẩm, hình ảnh</tspan><tspan x="372.5" y="0" style="font-family:'HelveticaNeue'; font-size:29px;"> </tspan><tspan x="6.2" y="50" style="font-family:'HelveticaNeue'; font-size:29px;">sống động trong quảng cáo </tspan><tspan x="97.4" y="100" style="font-family:'HelveticaNeue'; font-size:29px;">&amp; các sự kiện</tspan></text>
		</g>
		<g>
			<rect x="138.5" y="-1023.4" style="fill:none;" width="293" height="234"/>
			<text transform="matrix(1 0 0 1 149.7938 -1002.6472)"><tspan x="0" y="0" class="st6" style="font-family:'HelveticaNeue-Bold'; font-size:29px;">Chỉnh sửa hình ảnh </tspan><tspan x="-4.5" y="50" style="font-family:'HelveticaNeue'; font-size:29px;">sống động, theo style </tspan><tspan x="67.3" y="100" style="font-family:'HelveticaNeue'; font-size:29px;">riêng mình</tspan></text>
			<rect x="112.3" y="-710.3" style="fill:none;" width="345.4" height="234"/>
			<text transform="matrix(1 0 0 1 146.0375 -689.6208)"><tspan x="0" y="0" class="st6" style="font-family:'HelveticaNeue-Bold'; font-size:29px;">Tự tay tạo nên kênh </tspan><tspan x="-1.8" y="50" style="font-family:'HelveticaNeue'; font-size:29px;">truyền thông cho việc </tspan><tspan x="6.4" y="100" style="font-family:'HelveticaNeue'; font-size:29px;">khởi nghiệp cá nhân</tspan></text>
		</g>
		<g>
			<rect x="575" y="-1023.4" style="fill:none;" width="332.5" height="234"/>
			<text transform="matrix(1 0 0 1 616.6508 -1002.6472)"><tspan x="0" y="0" class="st6" style="font-family:'HelveticaNeue-Bold'; font-size:29px;">Tự tay thiết kế CV</tspan><tspan x="249.3" y="0" style="font-family:'HelveticaNeue'; font-size:29px;"> </tspan><tspan x="-24.6" y="50" style="font-family:'HelveticaNeue'; font-size:29px;">ấn tượng ghi điểm cho </tspan><tspan x="23.6" y="100" style="font-family:'HelveticaNeue'; font-size:29px;">nhà tuyển dụng</tspan></text>
			<rect x="579" y="-710.3" style="fill:none;" width="324.5" height="234"/>
			<text transform="matrix(1 0 0 1 621.3925 -689.6208)"><tspan x="0" y="0" class="st6" style="font-family:'HelveticaNeue-Bold'; font-size:29px;">Thiết kế proposal </tspan><tspan x="-24.9" y="50" style="font-family:'HelveticaNeue'; font-size:29px;">chuyên nghiệp thu hút </tspan><tspan x="76.4" y="100" style="font-family:'HelveticaNeue'; font-size:29px;">đầu tư</tspan></text>
		</g>
	</g>
	<rect x="982.2" y="-1275" class="st8" width="245" height="37.8"/>
	<g>
		<g>
			<path class="st10" d="M-132-1164.7l0.1-0.2c0.8-1.4,0.9-2.9,0.5-4.3c-0.4-1.4-1.3-2.7-2.6-3.5l-0.2-0.1c-1.3-0.7-2.9-0.9-4.3-0.5
				c-1.4,0.4-2.7,1.3-3.5,2.6l-0.8,1.3l10,5.8L-132-1164.7L-132-1164.7z M-184.8-1090.5c0.6-0.5,1.5-0.5,2,0.1
				c0.5,0.6,0.5,1.5-0.1,2c-9.8,9.1-14.6,4.9-19.5,0.6c-3.8-3.3-7.8-6.7-15.4-0.5c-0.6,0.5-1.5,0.4-2-0.2c-0.5-0.6-0.4-1.5,0.2-2
				c9.5-7.7,14.3-3.5,19,0.6C-196.6-1086.5-192.7-1083.2-184.8-1090.5L-184.8-1090.5z M-170.7-1111.9l30.5-52.8l-3.8-2.2l-30.6,52.9
				c0.8,0,1.6,0.2,2.3,0.7c0.5,0.3,0.9,0.6,1.2,0.9C-171-1112.2-170.9-1112-170.7-1111.9L-170.7-1111.9z M-137.8-1163.3l-30.5,52.8
				c0.2,0,0.3,0,0.5,0.1c0.5,0.1,1,0.3,1.4,0.6c0.7,0.4,1.3,1,1.7,1.7l30.6-52.9L-137.8-1163.3L-137.8-1163.3z M-166.9-1104.8
				c0.2-0.5,0.2-1,0-1.5c-0.2-0.5-0.5-0.8-0.9-1.1c-0.2-0.1-0.4-0.2-0.6-0.2c-0.2,0-0.4,0-0.6,0c-0.8,0.1-1.6-0.1-2.3-0.5
				c-0.7-0.4-1.2-1-1.6-1.7c-0.1-0.2-0.2-0.4-0.3-0.5c-0.2-0.2-0.3-0.3-0.5-0.4c-0.4-0.3-0.9-0.3-1.4-0.2c-0.5,0.1-0.9,0.3-1.2,0.7
				l-0.6,12.2L-166.9-1104.8L-166.9-1104.8z M-161.7-1141.9h-60c-1.3,0-2.5,0.5-3.3,1.4c-0.9,0.8-1.4,2-1.4,3.3v58.8
				c0,1.3,0.5,2.5,1.4,3.3c0.9,0.8,2,1.4,3.3,1.4h95.1c1.3,0,2.4-0.5,3.3-1.3c0.9-0.9,1.4-2.1,1.4-3.4v-58.8c0-1.3-0.5-2.5-1.4-3.3
				c-0.8-0.9-2-1.4-3.3-1.4h-15.2l-22.1,38.4c-0.1,0.2-0.3,0.3-0.4,0.5l-13.2,8.7c-0.3,0.2-0.6,0.3-0.9,0.3c-0.8,0-1.4-0.7-1.3-1.5
				l0.8-15.9c0-0.2,0.1-0.5,0.2-0.7L-161.7-1141.9L-161.7-1141.9z M-162.9-1057.8c-0.9-1.7-1.6-3.5-2.2-5.5
				c-0.7-2.4-1.2-4.9-1.4-7.6h-15.4c-0.2,2.7-0.7,5.2-1.4,7.6c-0.6,1.9-1.3,3.8-2.2,5.5H-162.9z M-150.5-1055h-47.4v5.6h47.4V-1055z
				"/>
		</g>
	</g>
	<g transform="translate(0,-952.36218)">
		<path class="st11" d="M233.5-192.9v49.8l14.2-13.6c1-1,2.7-0.9,3.6,0.1c0,0,0,0,0.1,0.1l5.8,6.6l14.7-14.2c1-0.9,2.5-0.9,3.5,0
			l24,22.9l14.1-15.1c1-1,2.6-1.1,3.6-0.1l19.4,18.1v-54.6H233.5L233.5-192.9z M300.8-187c1.4,0,2.6,1.1,2.7,2.5c0,0,0,0.1,0,0.1
			v4.2c0,1.4-1.1,2.6-2.5,2.6c-1.4,0-2.6-1.1-2.6-2.5c0,0,0,0,0-0.1v-4.3C298.3-185.8,299.4-187,300.8-187L300.8-187z M288.3-181.9
			c0.1,0,0.2,0,0.3,0c0.7,0,1.4,0.3,1.9,0.8l3,3c1,1,1.1,2.6,0.1,3.6c-1,1-2.6,1.1-3.6,0.1c0,0,0,0-0.1-0.1l-3-3
			c-1-1-1.1-2.6-0.1-3.6C287.1-181.6,287.7-181.8,288.3-181.9z M312.9-181.9c0.1,0,0.2,0,0.3,0c1.4-0.1,2.6,1.1,2.7,2.5
			c0,0.7-0.3,1.4-0.8,2l-3,3c-1,1-2.6,1.1-3.6,0.1c-1-1-1.1-2.6-0.1-3.6c0,0,0,0,0.1-0.1l3-3C311.8-181.5,312.3-181.8,312.9-181.9z
			 M300.9-175.9c4.9,0,9,4,9,8.9c0,4.9-4.1,8.9-9,8.9c-5,0-9.1-4-9.1-8.9C291.8-171.9,296-175.9,300.9-175.9z M283.2-169.6
			c0.1,0,0.2,0,0.3,0h4.2c1.4,0,2.6,1.1,2.6,2.5c0,1.4-1.1,2.6-2.5,2.6c0,0,0,0-0.1,0h-4.3c-1.4,0.1-2.6-1-2.7-2.4
			C280.7-168.3,281.8-169.5,283.2-169.6L283.2-169.6z M313.8-169.6c0.1,0,0.2,0,0.3,0h4.2c1.4,0,2.6,1.1,2.6,2.5
			c0,1.4-1.1,2.6-2.5,2.6c0,0,0,0-0.1,0H314c-1.4,0.1-2.6-1-2.7-2.4C311.2-168.3,312.3-169.5,313.8-169.6
			C313.8-169.6,313.8-169.6,313.8-169.6L313.8-169.6z"/>
		<path class="st11" d="M273.6-158.7l24.1,23c1,1,2.7,0.9,3.6-0.1c0,0,0,0,0,0l14.1-15.2l21,19.6v6H233.5v-10.7l15.8-15.1l5.8,6.6
			c0.9,1.1,2.6,1.2,3.6,0.2c0,0,0.1-0.1,0.1-0.1L273.6-158.7L273.6-158.7z"/>
	</g>
	<g>
		<path class="st11" d="M767-1080.6v-47.5l0,0v-25.4c0-1.2-1-2.2-2.2-2.2h-78.5c-1.2,0-2.2,1-2.2,2.2v84.2c0,1.2,1,2.2,2.2,2.2h86.8
			C769.4-1070.4,767-1075.2,767-1080.6z M708.6-1148.6c4.8,0,8.7,3.9,8.7,8.7c0,4.8-3.9,8.7-8.7,8.7c-4.8,0-8.7-3.9-8.7-8.7
			C699.9-1144.7,703.8-1148.6,708.6-1148.6z M692.1-1111.2v-2.5c0-8.1,7.6-14.6,17-14.6c9.4,0,17,6.5,17,14.6v2.5
			c0,1.2-1,2.2-2.2,2.2h-29.7C693.1-1109,692.1-1110,692.1-1111.2z M752.7-1078.4h-56.4c-1.2,0-2.2-1-2.2-2.2s1-2.2,2.2-2.2h56.4
			c1.2,0,2.2,1,2.2,2.2S753.9-1078.4,752.7-1078.4z M752.7-1098.2h-56.4c-1.2,0-2.2-1-2.2-2.2c0-1.2,1-2.2,2.2-2.2h56.4
			c1.2,0,2.2,1,2.2,2.2C754.9-1099.2,753.9-1098.2,752.7-1098.2z M752.7-1117.9h-23.4c-1.2,0-2.2-1-2.2-2.2c0-1.2,1-2.2,2.2-2.2
			h23.4c1.2,0,2.2,1,2.2,2.2C754.9-1118.9,753.9-1117.9,752.7-1117.9z M752.7-1137.7h-23.4c-1.2,0-2.2-1-2.2-2.2
			c0-1.2,1-2.2,2.2-2.2h23.4c1.2,0,2.2,1,2.2,2.2C754.9-1138.7,753.9-1137.7,752.7-1137.7z"/>
		<path class="st11" d="M796.2-1130.3h-22.6c-1.2,0-2.2,1-2.2,2.2v47.5c0,7.4,6,13.5,13.5,13.5c7.4,0,13.5-6,13.5-13.5v-47.5
			C798.4-1129.3,797.4-1130.3,796.2-1130.3z"/>
	</g>
	<g>
		<rect x="-200.2" y="-820.5" class="st11" width="52" height="19.1"/>
		<g>
			<polyline class="st11" points="-145.5,-754.2 -145.5,-771.5 -124.8,-771.5 -124.8,-825.4 -145.4,-825.4 -145.4,-848.4 			"/>
			<polyline class="st11" points="-202.9,-848.4 -202.9,-825.4 -223.6,-825.4 -223.6,-771.5 -202.9,-771.5 -202.9,-754.2 			"/>
			<polyline class="st11" points="-196,-761.1 -196,-781.8 -152.3,-781.8 -152.3,-761.1 			"/>
			<rect x="-159.4" y="-811.7" class="st11" width="20.8" height="6.9"/>
		</g>
	</g>
	<path class="st11" d="M317.7-809.7h-29.6l22-25.7h0.6c4.8,0.1,8.7-3.8,8.8-8.6c0.1-4.8-3.8-8.7-8.6-8.8c-4.8-0.1-8.7,3.8-8.8,8.6
		c0,1.6,0.4,3.2,1.2,4.6L283-816l-15.8-20.2c1.9-4.3,0-9.3-4.3-11.2c-4.3-1.9-9.3,0-11.2,4.3c-1.9,4.3,0,9.3,4.3,11.2
		c1.1,0.5,2.2,0.7,3.4,0.7c0.5,0,1.1,0,1.6,0l16.9,21.5h-25.5c-4.4,0-7.9,3.5-7.9,7.9v43.9c0,4.4,3.5,7.9,7.9,7.9h65.3
		c4.4,0,7.9-3.5,7.9-7.9v-44C325.6-806.2,322-809.7,317.7-809.7z M293.2-777.1l-10.8,10.8c-1.5,1.5-4,1.6-5.6,0
		c-0.7-0.7-1.2-1.7-1.2-2.8v-21.7c0.1-2.2,1.9-3.9,4.1-3.8c1,0,2,0.5,2.7,1.2l10.8,10.8C294.7-781,294.7-778.6,293.2-777.1
		L293.2-777.1z"/>
	<g>
		<path class="st11" d="M704.1-757.2v-81.1h57.4v5.1h-52.4v76H704.1z M712.6-748.8v-81.1H770v5.1h-52.4v76H712.6z M768.3-750.5v7.8
			l7.8-7.8H768.3z M721-821.4v81.1h43.9v-13.5h13.5v-67.6H721z M731.1-787.6H743v3.4h-11.8V-787.6z M739.6-753.9h-5.1V-764h5.1
			V-753.9z M751.4-753.9H743v-23.6h8.4V-753.9z M759.9-753.9h-5.1v-16.9h5.1V-753.9z M768.3-792.7h-37.2v-3.4h37.2V-792.7z
			 M768.3-801.2h-37.2v-3.4h37.2V-801.2z M768.3-809.6h-37.2v-3.4h37.2V-809.6z"/>
	</g>
	<g>
		<rect x="-439" y="-5412.9" class="st12" width="73.7" height="72.7"/>
		<rect x="-429.6" y="-5401.2" style="fill:none;" width="68.4" height="67.3"/>
		<text transform="matrix(1 0 0 1 -429.5905 -5360.7754)" class="st0" style="font-family:'Anton'; font-size:56.908px;">U2</text>
	</g>
	<g>
		<rect x="-440.3" y="-5545.1" class="st12" width="73.7" height="72.7"/>
		<rect x="-428.2" y="-5533.4" style="fill:none;" width="68.4" height="67.3"/>
		<text transform="matrix(1 0 0 1 -428.2345 -5492.9961)" class="st0" style="font-family:'Anton'; font-size:56.908px;">U1</text>
	</g>
	<g>
		<rect x="-439" y="-5280.7" class="st12" width="73.7" height="72.7"/>
		<rect x="-429.6" y="-5269" style="fill:none;" width="68.4" height="67.3"/>
		<text transform="matrix(1 0 0 1 -429.5905 -5228.5547)" class="st0" style="font-family:'Anton'; font-size:56.908px;">U3</text>
	</g>
	<g>
		<rect x="-439.4" y="-5148.5" class="st12" width="73.7" height="72.7"/>
		<rect x="-429.1" y="-5136.7" style="fill:none;" width="68.4" height="67.3"/>
		<text transform="matrix(1 0 0 1 -429.1378 -5096.334)" class="st0" style="font-family:'Anton'; font-size:56.908px;">U4</text>
	</g>
	<g>
		<rect x="-439" y="-5016.7" class="st12" width="73.7" height="72.7"/>
		<rect x="-429.6" y="-5004.1" style="fill:none;" width="68.4" height="67.3"/>
		<text transform="matrix(1 0 0 1 -429.5905 -4963.6602)" class="st0" style="font-family:'Anton'; font-size:56.908px;">U5</text>
	</g>
	<rect x="512.8" y="-5543.5" style="fill:none;" width="434.6" height="125.7"/>
	<text transform="matrix(1 0 0 1 512.7919 -5517.9185)"><tspan x="0" y="0" style="font-family:'UTM-Avo'; font-size:36px;">POST ADS, BANNER, </tspan><tspan x="0" y="43.2" style="font-family:'UTM-Avo'; font-size:36px;">SQUARE POSTS</tspan></text>
	<rect x="512.8" y="-5381.4" style="fill:none;" width="737.7" height="125.7"/>
	<text transform="matrix(1 0 0 1 512.7919 -5355.8735)" style="font-family:'UTM-Avo'; font-size:36px;">TYPOGRAPHY NACIS</text>
	<rect x="512.8" y="-5246.6" style="fill:none;" width="737.7" height="46.3"/>
	<text transform="matrix(1 0 0 1 512.7919 -5221.0469)" style="font-family:'UTM-Avo'; font-size:36px;">ADVANCED MASK TECH</text>
	<rect x="512.8" y="-5117.2" style="fill:none;" width="737.7" height="125.7"/>
	<text transform="matrix(1 0 0 1 512.7919 -5091.6416)" style="font-family:'UTM-Avo'; font-size:36px;">CV &amp; CL DESIGN</text>
	<rect x="512.8" y="-5007.1" style="fill:none;" width="737.7" height="125.7"/>
	<text transform="matrix(1 0 0 1 512.7919 -4987.1846)"><tspan x="0" y="0" style="font-family:'UTM-Avo'; font-size:28.0023px;">Bạn vui lòng liên hệ để có </tspan><tspan x="0" y="33.6" style="font-family:'UTM-Avo'; font-size:28.0023px;">chương trình học chi tiết và cụ thể</tspan></text>
	<g>
		<rect x="393.9" y="-5411.1" class="st12" width="73.7" height="72.7"/>
		<rect x="403.3" y="-5399.4" style="fill:none;" width="68.4" height="67.3"/>
		<text transform="matrix(1 0 0 1 403.2879 -5358.9692)" class="st0" style="font-family:'Anton'; font-size:56.908px;">U7</text>
	</g>
	<g>
		<rect x="392.5" y="-5543.3" class="st12" width="73.7" height="72.7"/>
		<rect x="404.6" y="-5531.6" style="fill:none;" width="68.4" height="67.3"/>
		<text transform="matrix(1 0 0 1 404.6454 -5491.1895)" class="st0" style="font-family:'Anton'; font-size:56.908px;">U6</text>
	</g>
	<g>
		<rect x="393.9" y="-5278.9" class="st12" width="73.7" height="72.7"/>
		<rect x="403.3" y="-5267.2" style="fill:none;" width="68.4" height="67.3"/>
		<text transform="matrix(1 0 0 1 403.2879 -5226.748)" class="st0" style="font-family:'Anton'; font-size:56.908px;">U8</text>
	</g>
	<g>
		<rect x="393.4" y="-5146.6" class="st12" width="73.7" height="72.7"/>
		<rect x="403.7" y="-5134.9" style="fill:none;" width="68.4" height="67.3"/>
		<text transform="matrix(1 0 0 1 403.7411 -5094.5273)" class="st0" style="font-family:'Anton'; font-size:56.908px;">U9</text>
	</g>
	<g>
		<rect x="393.9" y="-5014.9" class="st12" width="73.7" height="72.7"/>
		<rect x="403.3" y="-5002.3" style="fill:none;" width="68.4" height="67.3"/>
		<text transform="matrix(1 0 0 1 403.2879 -4961.8535)" class="st0" style="font-family:'Anton'; font-size:56.908px;">A</text>
	</g>
	<rect x="-546.8" y="289.5" style="fill:none;" width="733.3" height="287.9"/>
	<text transform="matrix(1 0 0 1 -546.8385 303.7844)"><tspan x="0" y="0" class="st10" style="font-family:'HelveticaNeue-Bold'; font-size:20px;">Lưu ý: vì số lượng mỗi lớp hạn chế nên các bạn nhanh tay </tspan><tspan x="0" y="29" class="st10" style="font-family:'HelveticaNeue-Bold'; font-size:20px;">đăng kí sớm và đóng học phí để mình giữ chỗ và xếp lớp.</tspan><tspan x="0" y="87" class="st10" style="font-family:'HelveticaNeue-Bold'; font-size:20px;">Đăng kí trong 72h- Giảm 5% học phí</tspan><tspan x="0" y="116" class="st10" style="font-family:'HelveticaNeue-Bold'; font-size:20px;">Học phí: các bạn vui lòng inbox và sẽ cung cấp số TK </tspan><tspan x="0" y="174" class="st10" style="font-family:'HelveticaNeue-Bold'; font-size:20px;">p/s: Về bài học số 5 và bài số 6 trong chương trình học, </tspan><tspan x="0" y="203" class="st10" style="font-family:'HelveticaNeue-Bold'; font-size:20px;">các bạn sẽ biết cách làm đẹp hình ảnh của chính </tspan><tspan x="0" y="232" class="st10" style="font-family:'HelveticaNeue-Bold'; font-size:20px;">các bạn khi post lên Facebook</tspan></text>
	<g>
		<path class="st6" d="M-354.2-186.2c-13.9,0-25.1,10.7-25.1,23.9c0,3.8,0.9,7.5,2.7,10.9l0,0c7,11.8,15,23.8,22.5,35.6
			c7-12.1,15.6-23.4,22.3-35.6c1.8-3.4,2.7-7.1,2.7-10.9C-329.1-175.5-340.3-186.2-354.2-186.2L-354.2-186.2L-354.2-186.2z
			 M-354.2-176.2c7.3,0,13.3,5.9,13.3,13.3v0c0,7.3-5.9,13.3-13.3,13.3c0,0,0,0,0,0c-7.3,0-13.3-5.9-13.3-13.3
			C-367.5-170.2-361.5-176.2-354.2-176.2L-354.2-176.2z"/>
	</g>
	<g>
		<path class="st6" d="M28.9-190.6c-13.9,0-25.1,10.7-25.1,23.9c0,3.8,0.9,7.5,2.7,10.9l0,0c7,11.8,15,23.8,22.5,35.6
			c7-12.1,15.6-23.4,22.3-35.6c1.8-3.4,2.7-7.1,2.7-10.9C54-179.9,42.8-190.6,28.9-190.6L28.9-190.6L28.9-190.6z M28.9-180.5
			c7.3,0,13.3,5.9,13.3,13.3v0c0,7.3-5.9,13.3-13.3,13.3c0,0,0,0,0,0c-7.3,0-13.3-5.9-13.3-13.3C15.7-174.6,21.6-180.5,28.9-180.5
			L28.9-180.5z"/>
	</g>
	<rect x="-551.2" y="-90.1" style="fill:none;" width="394" height="77.6"/>
	<text transform="matrix(1 0 0 1 -528.3463 -76.572)"><tspan x="0" y="0" class="st10" style="font-family:'HelveticaNeue-Bold'; font-size:19px;">345/86 Trần Hưng Đạo P. Cầu Kho Q.1 </tspan><tspan x="24.1" y="29" class="st10" style="font-family:'HelveticaNeue-Bold'; font-size:19px;">(KHỐI NGÀNH 3D &amp; Talent Team)</tspan></text>
	<rect x="-517.7" y="89.2" style="fill:none;" width="327" height="77.6"/>
	<text transform="matrix(1 0 0 1 -426.5021 107.7519)" class="st10" style="font-family:'HelveticaNeue-Bold'; font-size:26px;">0932709998</text>
	<rect x="-134.6" y="89.2" style="fill:none;" width="327" height="77.6"/>
	<text transform="matrix(1 0 0 1 -50.5919 107.7519)" class="st10" style="font-family:'HelveticaNeue-Bold'; font-size:26px;">0378 277 414 </text>
	<rect x="-134.6" y="-94.5" style="fill:none;" width="327" height="77.6"/>
	<text transform="matrix(1 0 0 1 -86.6837 -80.2175)" class="st10" style="font-family:'HelveticaNeue-Bold'; font-size:20px;">20 PHAN VĂN TRỊ P2 Q5</text>
	<g transform="translate(0,-952.36218)">
		<path class="st6" d="M-332.6,953.4c3.8,4,6.7,7.8,7.3,11.4c-0.1,8.3-7.9,18.6-17.3,27.9c-9.3,9.3-20.2,18.5-28,17.3
			c-3.7-0.6-7.5-3.5-11.5-7.4c-1.3-1.2-1.3-3.9,0-5.2l8-8c1.4-1.4,4.1-1.4,5.8-0.4l5.4,3.9c2.9,2.4,8.9-3.6,12.9-7.6
			c4-4,10.1-9.4,7.5-13l-3.9-5.4c-0.9-1.7-0.9-4.4,0.4-5.7l8-8C-336.6,952-333.9,952-332.6,953.4L-332.6,953.4z"/>
	</g>
	<g transform="translate(0,-952.36218)">
		<path class="st6" d="M50.5,953.4c3.8,4,6.7,7.8,7.3,11.4c-0.1,8.3-7.9,18.6-17.3,27.9c-9.3,9.3-20.2,18.5-28,17.3
			c-3.7-0.6-7.5-3.5-11.5-7.4c-1.3-1.2-1.3-3.9,0-5.2l8-8c1.4-1.4,4.1-1.4,5.8-0.4l5.4,3.9c2.9,2.4,8.9-3.6,12.9-7.6
			c4-4,10.1-9.4,7.5-13l-3.9-5.4c-0.9-1.7-0.9-4.4,0.4-5.7l8-8C46.5,952,49.2,952,50.5,953.4L50.5,953.4z"/>
	</g>
	<rect x="-135.8" y="-8757" width="63" height="63"/>
</g>
<g id="Layer_7">
	<rect x="-535.9" y="-8827.7" style="fill:none;" width="864.3" height="96.7"/>
	<text transform="matrix(1 0 0 1 -535.9484 -8778.0264)" class="st12" style="font-family:'Anton'; font-size:70px;">KODA PHOTOSHOP COURSE</text>
</g>
</svg>
