<?xml version="1.0" encoding="utf-8"?>
<!-- Generator: Adobe Illustrator 24.3.0, SVG Export Plug-In . SVG Version: 6.00 Build 0)  -->
<svg version="1.1" xmlns="http://www.w3.org/2000/svg" xmlns:xlink="http://www.w3.org/1999/xlink" x="0px" y="0px" width="103.1px"
	 height="67.6px" viewBox="0 0 103.1 67.6" style="enable-background:new 0 0 103.1 67.6;" xml:space="preserve">
<style type="text/css">
	.st0{fill:#FFFFFF;}
	.st1{fill:#004068;}
	.st2{fill:#F7CF38;}
	.st3{fill:#FF9D31;}
	.st4{fill:#DE9700;}
	.st5{fill:#02B9CD;}
	.st6{fill:#F88008;}
	.st7{fill:#FFDE83;}
	.st8{fill:#FFBE3B;}
	.st9{fill:#FF9E31;}
	.st10{fill:#333333;}
	.st11{fill:#4D4D4D;}
	.st12{fill:#FF6400;}
</style>
<g id="Layer_2">
</g>
<g id="Layer_1">
	<rect x="-926.3" y="-10083.7" class="st0" width="1920" height="1080"/>
	<rect x="-926.3" y="-9002.7" class="st0" width="1920" height="1080"/>
	<rect x="-926.3" y="-6843.7" class="st0" width="1920" height="1080"/>
	<rect x="-926.3" y="-5763.7" class="st0" width="1920" height="1080"/>
	<rect x="-926.3" y="-4683.7" class="st0" width="1920" height="1080"/>
	<rect x="-926.3" y="-3603.7" class="st0" width="1920" height="1080"/>
	<rect x="-926.3" y="-2523.7" class="st0" width="1920" height="1080"/>
	<rect x="-926.3" y="-1443.7" class="st0" width="1920" height="1080"/>
	<rect x="-926.3" y="-363.7" class="st0" width="1920" height="1080"/>
	<rect x="-926.3" y="716.3" class="st0" width="1920" height="1080"/>
	<rect x="-926.3" y="1796.3" class="st0" width="1920" height="1080"/>
</g>
<g id="Layer_3">
	<rect x="-140.5" y="-8400.2" style="fill:none;" width="1076.2" height="75"/>
	
		<text transform="matrix(1 0 0 1 -140.5244 -8358.2539)" class="st1" style="font-family:'HelveticaNeue-Bold'; font-size:58.7032px;">Upgrade Program 2024</text>
	<text transform="matrix(1 0 0 1 -140.5244 -8579.7969)"><tspan x="0" y="0" style="fill:#044784; font-family:'Anton'; font-size:97.8386px;">KHAI GIẢNG KHÓA </tspan><tspan x="0" y="135.9" style="fill:#044784; font-family:'Anton'; font-size:97.8386px;">LỚP KODA PHOTOSHOP H298 </tspan></text>
	<rect x="210.7" y="-8418.7" class="st1" width="26" height="19"/>
</g>
<g id="Layer_6">
</g>
<g id="Layer_4">
	<g>
		<defs>
			<rect id="SVGID_1_" x="-926.3" y="-10083.7" width="1920" height="1080"/>
		</defs>
		<clipPath id="SVGID_2_">
			<use xlink:href="#SVGID_1_"  style="overflow:visible;"/>
		</clipPath>
	</g>
</g>
<g id="Layer_5">
	<rect x="-926.3" y="-4594.7" class="st2" width="1076" height="116"/>
	<rect x="-926.3" y="-1442.7" class="st3" width="816.6" height="1080"/>
	<rect x="-820.2" y="-1364.1" class="st0" width="649.5" height="950.8"/>
	<rect x="-147.3" y="-8305.7" class="st4" width="1014" height="43"/>
	<rect x="-150.3" y="-8247.7" class="st4" width="331" height="44"/>
	<text transform="matrix(1 0 0 1 -137.5239 -8273.3428)"><tspan x="0" y="0" class="st0" style="font-family:'MyriadPro-Bold'; font-size:33.7px;">CHƯƠNG TRÌNH HỌC CẬP NHẬT LIÊN TỤC ĐỔI MỚI KHÔNG NGỪNG </tspan><tspan x="0" y="57.6" class="st0" style="font-family:'MyriadPro-Bold'; font-size:33.7px;">THEO QUÝ MỖI NĂM</tspan></text>
	<g>
		<text transform="matrix(1 0 0 1 -712.8086 -4507.2959)" class="st10" style="font-family:'Anton'; font-size:64.8602px;">NỘI DUNG CHƯƠNG TRÌNH KHÓA HỌC</text>
	</g>
	<rect x="-35" y="-1138" style="fill:none;" width="959.1" height="157.3"/>
	<text transform="matrix(1 0 0 1 -35.0146 -1115.8906)"><tspan x="0" y="0" class="st10" style="font-family:'HelveticaNeue-Medium'; font-size:31px;">Lớp Sáng:</tspan><tspan x="148.7" y="0" class="st10" style="font-family:'HelveticaNeue-Medium'; font-size:29px;"> Thứ 2-4: 8h30-10h30 sáng</tspan><tspan x="0" y="37.2" class="st10" style="font-family:'HelveticaNeue-Medium'; font-size:31px;">Lớp Tối:</tspan><tspan x="119.4" y="37.2" class="st10" style="font-family:'HelveticaNeue-Medium'; font-size:29px;"> Thứ 2-4: 7-9h tối</tspan><tspan x="0" y="74.4" class="st10" style="font-family:'HelveticaNeue-Medium'; font-size:31px;">Lớp Tối:</tspan><tspan x="119.4" y="74.4" class="st10" style="font-family:'HelveticaNeue-Medium'; font-size:29px;"> Thứ 6: 7-9h tối: Full Slot</tspan></text>
	<rect x="33.7" y="-6372.8" style="fill:none;" width="790.6" height="191.3"/>
	<text transform="matrix(1 0 0 1 229.8623 -6345.624)"><tspan x="0" y="0" style="font-family:'HelveticaNeue-Medium'; font-size:38px;">Nhằm đảm bảo chất lượng đầu ra </tspan><tspan x="109.5" y="64" style="font-family:'HelveticaNeue-Medium'; font-size:38px;">Chúng tôi xin phép giới hạn </tspan><tspan x="292.1" y="128" style="font-family:'HelveticaNeue-Medium'; font-size:38px;">số lượng mỗi lớp</tspan></text>
	<rect x="-238.6" y="-6645.7" style="fill:none;" width="1062.9" height="246.6"/>
	<text transform="matrix(1 0 0 1 -142.9384 -6576.874)"><tspan x="0" y="0" style="fill:#F78508; font-family:'Anton'; font-size:97px;">Chất lượng người học là </tspan><tspan x="277.9" y="116.4" style="fill:#F78508; font-family:'Anton'; font-size:97px;">ưu tiên hàng đầu</tspan></text>
	<g>
		<rect x="-802.5" y="-1325.1" style="fill:none;" width="666.1" height="157.4"/>
		<text transform="matrix(1 0 0 1 -802.4819 -1249.2393)"><tspan x="0" y="0" style="fill:#00B2DD; font-family:'Anton'; font-size:91px;">Thời</tspan><tspan x="167.3" y="0" style="fill:#00B2DD; font-family:'AppleBraille-Outline6Dot'; font-size:91px;"> </tspan><tspan x="198.4" y="0" style="fill:#00B2DD; font-family:'Anton'; font-size:91px;">gian</tspan><tspan x="365" y="0" style="fill:#00B2DD; font-family:'AppleBraille-Outline6Dot'; font-size:91px;"> </tspan><tspan x="396.1" y="0" style="fill:#00B2DD; font-family:'Anton'; font-size:91px;">học</tspan><tspan x="537.3" y="0" style="fill:#00B2DD; font-family:'AppleBraille-Outline6Dot'; font-size:91px;"> </tspan><tspan x="568.4" y="0" style="fill:#00B2DD; font-family:'Anton'; font-size:91px;">:</tspan></text>
	</g>
	<rect x="-771" y="823.7" style="fill:none;" width="366.6" height="135.4"/>
	<text transform="matrix(1 0 0 1 -771.0054 893.9394)" style="fill:#ED7837; font-family:'Anton'; font-size:99px;">ĐỊA </text>
	<rect x="-777.9" y="1383.4" style="fill:none;" width="707.5" height="51.4"/>
	<text transform="matrix(1 0 0 1 -777.9331 1397.6504)" class="st10" style="font-family:'HelveticaNeue-Bold'; font-size:20px;">2 chi nhánh cách nhau 30s đi xe máy</text>
	<path class="st5" d="M-519.3-7097.4c0,4.2-3.4,7.7-7.7,7.7h-229.6c-4.2,0-7.7-3.4-7.7-7.7v-65.6c0-4.2,3.4-7.7,7.7-7.7H-527
		c4.2,0,7.7,3.4,7.7,7.7V-7097.4z"/>
	<rect x="-817.8" y="-7150.3" style="fill:none;" width="348.1" height="74"/>
	<text transform="matrix(1 0 0 1 -736.7456 -7111.71)" class="st0" style="font-family:'HelveticaNeue-Bold'; font-size:54px;">Liên hệ</text>
	<path class="st6" d="M821.7-6077.4c0,4.2-3.4,7.7-7.7,7.7H584.4c-4.2,0-7.7-3.4-7.7-7.7v-65.6c0-4.2,3.4-7.7,7.7-7.7H814
		c4.2,0,7.7,3.4,7.7,7.7V-6077.4z"/>
	<rect x="523.2" y="-6130.3" style="fill:none;" width="348.1" height="74"/>
	<text transform="matrix(1 0 0 1 604.2544 -6091.71)" class="st0" style="font-family:'HelveticaNeue-Bold'; font-size:54px;">Liên hệ</text>
	<path d="M195.7-510.4c0,4.2-3.4,7.7-7.7,7.7H-41.6c-4.2,0-7.7-3.4-7.7-7.7v-65.6c0-4.2,3.4-7.7,7.7-7.7H188c4.2,0,7.7,3.4,7.7,7.7
		V-510.4z"/>
	<rect x="-102.8" y="-563.3" style="fill:none;" width="348.1" height="74"/>
	<text transform="matrix(1 0 0 1 -21.7461 -524.71)" class="st0" style="font-family:'HelveticaNeue-Bold'; font-size:54px;">Liên hệ</text>
	<rect x="854.7" y="-1160.6" class="st3" width="139" height="481.8"/>
	<rect x="-922.3" y="-3291.7" class="st7" width="1916" height="424"/>
	<rect x="354.5" y="722.3" class="st8" width="639.1" height="1080"/>
	<rect x="-926.3" y="161.8" class="st8" width="103.1" height="356"/>
	<rect x="-764.3" y="-7585.4" style="fill:none;" width="522.3" height="245.3"/>
	<text transform="matrix(1 0 0 1 -764.3081 -7525.8257)"><tspan x="0" y="0" class="st10" style="font-family:'HelveticaNeue-Bold'; font-size:26px;">Đây là bộ môn mang lại tư duy về thẩm </tspan><tspan x="0" y="41" class="st10" style="font-family:'HelveticaNeue-Bold'; font-size:26px;">mĩ trong thiết kế được nâng cấp dựa trên </tspan><tspan x="0" y="82" class="st10" style="font-family:'HelveticaNeue-Bold'; font-size:26px;">xu hướng 2024 và được thiết lập trong </tspan><tspan x="0" y="123" class="st10" style="font-family:'HelveticaNeue-Bold'; font-size:26px;">giáo án chương trình học cho các sinh </tspan><tspan x="0" y="164" class="st10" style="font-family:'HelveticaNeue-Bold'; font-size:26px;">viên tại Nhật Bản</tspan></text>
	<polygon style="fill:none;" points="89.8,-7181.3 -762.3,-7181.3 -764.3,-7217.3 87.8,-7217.3 	"/>
	<text transform="matrix(1 0 0 1 -762.8887 -7191.7871)" class="st11" style="font-family:'MyriadPro-Bold'; font-size:36px;">Không gian lớp học</text>
	
		<image style="overflow:visible;" width="720" height="720" xlink:href="../../../../Downloads/LAYOUT 6/IMAG/PIC (5).jpg"  transform="matrix(0.9036 0 0 0.9036 -909.8348 -6671.0557)">
	</image>
	
		<image style="overflow:visible;" width="991" height="1341" xlink:href="../../../../Downloads/LAYOUT 6/IMAG/PIC (3).jpg"  transform="matrix(0.3919 0 0 0.3919 -265.9792 -6431.5195)">
	</image>
	
		<image style="overflow:visible;" width="1080" height="1528" xlink:href="../../../../Downloads/LAYOUT 6/IMAG/PIC (1).jpg"  transform="matrix(0.2587 0 0 0.2587 -545.8473 -6218.2681)">
	</image>
	<g>
		<rect x="-39.3" y="-1253.7" style="fill:none;" width="608" height="138"/>
		<text transform="matrix(1 0 0 1 -39.3081 -1216.1133)" class="st3" style="font-family:'Anton'; font-size:53px;">LỚP TRỰC TIẾP</text>
	</g>
	<g>
		<rect x="-795.2" y="-2355" style="fill:none;" width="865.1" height="75.2"/>
		<text transform="matrix(1 0 0 1 -795.2241 -2305.2598)" class="st12" style="font-family:'Anton'; font-size:70px;">3 LÝ DO CHÍNH BẠN NÊN </text>
	</g>
	<g>
		<rect x="-795.2" y="-2263.9" style="fill:none;" width="865.1" height="75.2"/>
		<text transform="matrix(1 0 0 1 -795.2241 -2229.8535)" class="st12" style="font-family:'Anton'; font-size:48px;">KODA PHOTOSHOP tại HANNA&apos;S FAMILY</text>
	</g>
	<rect x="-650.2" y="-2070.3" style="fill:none;" width="816.6" height="139.1"/>
	<text transform="matrix(1 0 0 1 -650.2466 -2040.4888)" class="st11" style="font-family:'UTM-Avo'; font-size:42px;">Chất lượng giảng dạy</text>
	<rect x="-550.8" y="-4367.1" style="fill:none;" width="737.7" height="125.7"/>
	<text transform="matrix(1 0 0 1 -550.8477 -4341.5684)" style="font-family:'UTM-Avo'; font-size:36px;">INTRODUCTION</text>
	<rect x="-550.8" y="-4234.9" style="fill:none;" width="737.7" height="125.7"/>
	<text transform="matrix(1 0 0 1 -550.8477 -4209.3481)" style="font-family:'UTM-Avo'; font-size:36px;">THE KOKLORS &amp; CONCESK</text>
	<rect x="-550.8" y="-4102.7" style="fill:none;" width="737.7" height="46.3"/>
	<text transform="matrix(1 0 0 1 -550.8477 -4077.127)" style="font-family:'UTM-Avo'; font-size:36px;">DESIGN </text>
	<rect x="-550.8" y="-3971.6" style="fill:none;" width="737.7" height="125.7"/>
	<text transform="matrix(1 0 0 1 -550.8477 -3946.0205)" style="font-family:'UTM-Avo'; font-size:36px;">EFFECTS, FINAL DETAILS, AND EXTRAS</text>
	<rect x="-550.8" y="-3837.2" style="fill:none;" width="737.7" height="125.7"/>
	<text transform="matrix(1 0 0 1 -550.8477 -3811.6113)" style="font-family:'UTM-Avo'; font-size:36px;">LAYOUKA, RATIONNE TYPES</text>
	<rect x="-650.2" y="-1920.4" style="fill:none;" width="816.6" height="139.1"/>
	<text transform="matrix(1 0 0 1 -650.2466 -1890.5435)" class="st11" style="font-family:'UTM-Avo'; font-size:42px;">Giảng viên giàu kinh nghiệm</text>
	<rect x="-650.2" y="-1770.7" style="fill:none;" width="816.6" height="139.1"/>
	<text transform="matrix(1 0 0 1 -650.2466 -1740.8599)" class="st11" style="font-family:'UTM-Avo'; font-size:42px;">Không gian lớp học đa concept</text>
	<g>
		<rect x="-39.3" y="-886.7" style="fill:none;" width="330" height="80"/>
		<text transform="matrix(1 0 0 1 -39.3081 -849.1133)" class="st3" style="font-family:'Anton'; font-size:53px;">LỚP ONLINE</text>
	</g>
	<rect x="-35" y="-869.8" style="fill:none;" width="579.7" height="227"/>
	<text transform="matrix(1 0 0 1 -35.0146 -785.6785)"><tspan x="0" y="0" class="st10" style="font-family:'HelveticaNeue-Medium'; font-size:27px;">Lớp học online từ xa dành cho các bạn trong </tspan><tspan x="0" y="32.4" class="st10" style="font-family:'HelveticaNeue-Medium'; font-size:27px;">&amp; ngoài nước</tspan><tspan x="0" y="97.2" class="st10" style="font-family:'HelveticaNeue-Medium'; font-size:27px;">Đặc biệt là các bạn đang du học hoặc đang </tspan><tspan x="0" y="129.6" class="st10" style="font-family:'HelveticaNeue-Medium'; font-size:27px;">làm việc ở nước ngoài</tspan></text>
	
		<ellipse transform="matrix(0.9998 -1.787072e-02 1.787072e-02 0.9998 36.5442 -13.5381)" class="st9" cx="-739.2" cy="-2051.5" rx="58.8" ry="58.8"/>
	
		<ellipse transform="matrix(0.9998 -1.787072e-02 1.787072e-02 0.9998 33.9617 -13.515)" class="st9" cx="-739.2" cy="-1907" rx="58.8" ry="58.8"/>
	
		<ellipse transform="matrix(1.667897e-02 -0.9999 0.9999 1.667897e-02 1029.3633 -2466.3264)" class="st9" cx="-739.2" cy="-1756.5" rx="58.8" ry="58.8"/>
	<rect x="-795.2" y="-2083.7" style="fill:none;" width="112" height="158"/>
	<text transform="matrix(1 0 0 1 -755.3833 -2039.0137)" class="st0" style="font-family:'Anton'; font-size:63px;">1</text>
	<rect x="-795.2" y="-1934.2" style="fill:none;" width="112" height="86"/>
	<text transform="matrix(1 0 0 1 -755.3833 -1889.4639)" class="st0" style="font-family:'Anton'; font-size:63px;">2</text>
	<rect x="-795.2" y="-1783.7" style="fill:none;" width="112" height="86"/>
	<text transform="matrix(1 0 0 1 -755.3833 -1738.9521)" class="st0" style="font-family:'Anton'; font-size:63px;">3</text>
	<g>
		<rect x="-803.3" y="-230.7" style="fill:none;" width="1624" height="170.1"/>
		<text transform="matrix(1 0 0 1 -448.5132 -192.4073)"><tspan x="0" y="0" style="fill:#E26F10; font-family:'Anton'; font-size:54px;">KODA PHOTOSHOP là môn học giúp bạn </tspan><tspan x="18.9" y="81" style="fill:#E26F10; font-family:'Anton'; font-size:54px;">ứng dụng nhiều vào cuộc sống hiện tại</tspan></text>
	</g>
	<g>
		<g>
			<rect x="-656.7" y="121.9" style="fill:none;" width="498" height="234"/>
			<text transform="matrix(1 0 0 1 -563.3374 142.6035)"><tspan x="0" y="0" class="st6" style="font-family:'HelveticaNeue-Bold'; font-size:29px;">Thông thạo phần mềm </tspan><tspan x="38.1" y="50" style="font-family:'HelveticaNeue'; font-size:29px;">Photoshop từ A-Z</tspan></text>
			<rect x="-602.3" y="434.9" style="fill:none;" width="389.3" height="234"/>
			<text transform="matrix(1 0 0 1 -593.917 455.6299)"><tspan x="0" y="0" class="st6" style="font-family:'HelveticaNeue-Bold'; font-size:29px;">Thiết kế ấn phẩm, hình ảnh</tspan><tspan x="372.5" y="0" style="font-family:'HelveticaNeue'; font-size:29px;"> </tspan><tspan x="6.2" y="50" style="font-family:'HelveticaNeue'; font-size:29px;">sống động trong quảng cáo </tspan><tspan x="97.4" y="100" style="font-family:'HelveticaNeue'; font-size:29px;">&amp; các sự kiện</tspan></text>
		</g>
		<g>
			<rect x="-94.9" y="121.9" style="fill:none;" width="293" height="234"/>
			<text transform="matrix(1 0 0 1 -83.6772 142.6035)"><tspan x="0" y="0" class="st6" style="font-family:'HelveticaNeue-Bold'; font-size:29px;">Chỉnh sửa hình ảnh </tspan><tspan x="-4.5" y="50" style="font-family:'HelveticaNeue'; font-size:29px;">sống động, theo style </tspan><tspan x="67.3" y="100" style="font-family:'HelveticaNeue'; font-size:29px;">riêng mình</tspan></text>
			<rect x="-121.2" y="434.9" style="fill:none;" width="345.4" height="234"/>
			<text transform="matrix(1 0 0 1 -87.4336 455.6299)"><tspan x="0" y="0" class="st6" style="font-family:'HelveticaNeue-Bold'; font-size:29px;">Tự tay tạo nên kênh </tspan><tspan x="-1.8" y="50" style="font-family:'HelveticaNeue'; font-size:29px;">truyền thông cho việc </tspan><tspan x="6.4" y="100" style="font-family:'HelveticaNeue'; font-size:29px;">khởi nghiệp cá nhân</tspan></text>
		</g>
		<g>
			<rect x="341.6" y="121.9" style="fill:none;" width="332.5" height="234"/>
			<text transform="matrix(1 0 0 1 383.1797 142.6035)"><tspan x="0" y="0" class="st6" style="font-family:'HelveticaNeue-Bold'; font-size:29px;">Tự tay thiết kế CV</tspan><tspan x="249.3" y="0" style="font-family:'HelveticaNeue'; font-size:29px;"> </tspan><tspan x="-24.6" y="50" style="font-family:'HelveticaNeue'; font-size:29px;">ấn tượng ghi điểm cho </tspan><tspan x="23.6" y="100" style="font-family:'HelveticaNeue'; font-size:29px;">nhà tuyển dụng</tspan></text>
			<rect x="345.6" y="434.9" style="fill:none;" width="324.5" height="234"/>
			<text transform="matrix(1 0 0 1 387.9214 455.6299)"><tspan x="0" y="0" class="st6" style="font-family:'HelveticaNeue-Bold'; font-size:29px;">Thiết kế proposal </tspan><tspan x="-24.9" y="50" style="font-family:'HelveticaNeue'; font-size:29px;">chuyên nghiệp thu hút </tspan><tspan x="76.4" y="100" style="font-family:'HelveticaNeue'; font-size:29px;">đầu tư</tspan></text>
		</g>
	</g>
	<rect x="748.7" y="-129.7" class="st8" width="245" height="37.8"/>
	<g>
		<g>
			<path class="st10" d="M-365.4-19.4l0.1-0.2c0.8-1.4,0.9-2.9,0.5-4.3c-0.4-1.4-1.3-2.7-2.6-3.5l-0.2-0.1c-1.3-0.7-2.9-0.9-4.3-0.5
				c-1.4,0.4-2.7,1.3-3.5,2.6l-0.8,1.3l10,5.8L-365.4-19.4L-365.4-19.4z M-418.2,54.7c0.6-0.5,1.5-0.5,2,0.1c0.5,0.6,0.5,1.5-0.1,2
				c-9.8,9.1-14.6,4.9-19.5,0.6c-3.8-3.3-7.8-6.7-15.4-0.5c-0.6,0.5-1.5,0.4-2-0.2c-0.5-0.6-0.4-1.5,0.2-2c9.5-7.7,14.3-3.5,19,0.6
				C-430.1,58.7-426.2,62.1-418.2,54.7L-418.2,54.7z M-404.2,33.4l30.5-52.8l-3.8-2.2l-30.6,52.9c0.8,0,1.6,0.2,2.3,0.7
				c0.5,0.3,0.9,0.6,1.2,0.9C-404.4,33.1-404.3,33.2-404.2,33.4L-404.2,33.4z M-371.3-18l-30.5,52.8c0.2,0,0.3,0,0.5,0.1
				c0.5,0.1,1,0.3,1.4,0.6c0.7,0.4,1.3,1,1.7,1.7l30.6-52.9L-371.3-18L-371.3-18z M-400.3,40.4c0.2-0.5,0.2-1,0-1.5
				c-0.2-0.5-0.5-0.8-0.9-1.1c-0.2-0.1-0.4-0.2-0.6-0.2c-0.2,0-0.4,0-0.6,0c-0.8,0.1-1.6-0.1-2.3-0.5c-0.7-0.4-1.2-1-1.6-1.7
				c-0.1-0.2-0.2-0.4-0.3-0.5c-0.2-0.2-0.3-0.3-0.5-0.4c-0.4-0.3-0.9-0.3-1.4-0.2c-0.5,0.1-0.9,0.3-1.2,0.7l-0.6,12.2L-400.3,40.4
				L-400.3,40.4z M-395.2,3.4h-60c-1.3,0-2.5,0.5-3.3,1.4c-0.9,0.8-1.4,2-1.4,3.3v58.8c0,1.3,0.5,2.5,1.4,3.3c0.9,0.8,2,1.4,3.3,1.4
				h95.1c1.3,0,2.4-0.5,3.3-1.3c0.9-0.9,1.4-2.1,1.4-3.4V8.1c0-1.3-0.5-2.5-1.4-3.3c-0.8-0.9-2-1.4-3.3-1.4h-15.2l-22.1,38.4
				c-0.1,0.2-0.3,0.3-0.4,0.5l-13.2,8.7c-0.3,0.2-0.6,0.3-0.9,0.3c-0.8,0-1.4-0.7-1.3-1.5l0.8-15.9c0-0.2,0.1-0.5,0.2-0.7
				L-395.2,3.4L-395.2,3.4z M-396.4,87.4c-0.9-1.7-1.6-3.5-2.2-5.5c-0.7-2.4-1.2-4.9-1.4-7.6h-15.4c-0.2,2.7-0.7,5.2-1.4,7.6
				c-0.6,1.9-1.3,3.8-2.2,5.5H-396.4z M-384,90.2h-47.4v5.6h47.4V90.2z"/>
		</g>
	</g>
	<g transform="translate(0,-952.36218)">
		<path class="st11" d="M0,952.4v49.8l14.2-13.6c1-1,2.7-0.9,3.6,0.1c0,0,0,0,0.1,0.1l5.8,6.6l14.7-14.2c1-0.9,2.5-0.9,3.5,0
			l24,22.9l14.1-15.1c1-1,2.6-1.1,3.6-0.1l19.4,18.1v-54.6H0L0,952.4z M67.4,958.2c1.4,0,2.6,1.1,2.7,2.5c0,0,0,0.1,0,0.1v4.2
			c0,1.4-1.1,2.6-2.5,2.6c-1.4,0-2.6-1.1-2.6-2.5c0,0,0,0,0-0.1v-4.3C64.8,959.5,65.9,958.3,67.4,958.2L67.4,958.2z M54.8,963.4
			c0.1,0,0.2,0,0.3,0c0.7,0,1.4,0.3,1.9,0.8l3,3c1,1,1.1,2.6,0.1,3.6c-1,1-2.6,1.1-3.6,0.1c0,0,0,0-0.1-0.1l-3-3
			c-1-1-1.1-2.6-0.1-3.6C53.6,963.7,54.2,963.4,54.8,963.4z M79.4,963.4c0.1,0,0.2,0,0.3,0c1.4-0.1,2.6,1.1,2.7,2.5
			c0,0.7-0.3,1.4-0.8,2l-3,3c-1,1-2.6,1.1-3.6,0.1c-1-1-1.1-2.6-0.1-3.6c0,0,0,0,0.1-0.1l3-3C78.3,963.7,78.8,963.4,79.4,963.4z
			 M67.4,969.3c4.9,0,9,4,9,8.9c0,4.9-4.1,8.9-9,8.9c-5,0-9.1-4-9.1-8.9C58.4,973.3,62.5,969.3,67.4,969.3z M49.7,975.7
			c0.1,0,0.2,0,0.3,0h4.2c1.4,0,2.6,1.1,2.6,2.5c0,1.4-1.1,2.6-2.5,2.6c0,0,0,0-0.1,0H50c-1.4,0.1-2.6-1-2.7-2.4
			C47.2,977,48.3,975.8,49.7,975.7L49.7,975.7z M80.3,975.7c0.1,0,0.2,0,0.3,0h4.2c1.4,0,2.6,1.1,2.6,2.5c0,1.4-1.1,2.6-2.5,2.6
			c0,0,0,0-0.1,0h-4.3c-1.4,0.1-2.6-1-2.7-2.4C77.8,977,78.9,975.8,80.3,975.7C80.3,975.7,80.3,975.7,80.3,975.7L80.3,975.7z"/>
		<path class="st11" d="M40.2,986.6l24.1,23c1,1,2.7,0.9,3.6-0.1c0,0,0,0,0,0l14.1-15.2l21,19.6v6H0v-10.7l15.8-15.1l5.8,6.6
			c0.9,1.1,2.6,1.2,3.6,0.2c0,0,0.1-0.1,0.1-0.1L40.2,986.6L40.2,986.6z"/>
	</g>
	<g>
		<path class="st11" d="M533.6,64.7V17.1l0,0V-8.3c0-1.2-1-2.2-2.2-2.2h-78.5c-1.2,0-2.2,1-2.2,2.2v84.2c0,1.2,1,2.2,2.2,2.2h86.8
			C536,74.8,533.6,70,533.6,64.7z M475.1-3.3c4.8,0,8.7,3.9,8.7,8.7c0,4.8-3.9,8.7-8.7,8.7c-4.8,0-8.7-3.9-8.7-8.7
			C466.5,0.6,470.4-3.3,475.1-3.3z M458.7,34v-2.5c0-8.1,7.6-14.6,17-14.6c9.4,0,17,6.5,17,14.6V34c0,1.2-1,2.2-2.2,2.2h-29.7
			C459.6,36.2,458.7,35.2,458.7,34z M519.2,66.8h-56.4c-1.2,0-2.2-1-2.2-2.2c0-1.2,1-2.2,2.2-2.2h56.4c1.2,0,2.2,1,2.2,2.2
			C521.4,65.9,520.5,66.8,519.2,66.8z M519.2,47.1h-56.4c-1.2,0-2.2-1-2.2-2.2c0-1.2,1-2.2,2.2-2.2h56.4c1.2,0,2.2,1,2.2,2.2
			C521.4,46.1,520.5,47.1,519.2,47.1z M519.2,27.3h-23.4c-1.2,0-2.2-1-2.2-2.2c0-1.2,1-2.2,2.2-2.2h23.4c1.2,0,2.2,1,2.2,2.2
			C521.4,26.3,520.5,27.3,519.2,27.3z M519.2,7.5h-23.4c-1.2,0-2.2-1-2.2-2.2c0-1.2,1-2.2,2.2-2.2h23.4c1.2,0,2.2,1,2.2,2.2
			C521.4,6.6,520.5,7.5,519.2,7.5z"/>
		<path class="st11" d="M562.7,14.9h-22.6c-1.2,0-2.2,1-2.2,2.2v47.5c0,7.4,6,13.5,13.5,13.5c7.4,0,13.5-6,13.5-13.5V17.1
			C564.9,15.9,563.9,14.9,562.7,14.9z"/>
	</g>
	<g>
		<rect x="-433.6" y="324.8" class="st11" width="52" height="19.1"/>
		<g>
			<polyline class="st11" points="-379,391 -379,373.8 -358.3,373.8 -358.3,319.8 -378.8,319.8 -378.8,296.8 			"/>
			<polyline class="st11" points="-436.4,296.8 -436.4,319.8 -457.1,319.8 -457.1,373.8 -436.4,373.8 -436.4,391 			"/>
			<polyline class="st11" points="-429.5,384.2 -429.5,363.5 -385.8,363.5 -385.8,384.2 			"/>
			<rect x="-392.8" y="333.6" class="st11" width="20.8" height="6.9"/>
		</g>
	</g>
	<path class="st11" d="M84.2,335.5H54.6l22-25.7h0.6c4.8,0.1,8.7-3.8,8.8-8.6c0.1-4.8-3.8-8.7-8.6-8.8c-4.8-0.1-8.7,3.8-8.8,8.6
		c0,1.6,0.4,3.2,1.2,4.6l-20.3,23.6l-15.8-20.2c1.9-4.3,0-9.3-4.3-11.2c-4.3-1.9-9.3,0-11.2,4.3c-1.9,4.3,0,9.3,4.3,11.2
		c1.1,0.5,2.2,0.7,3.4,0.7c0.5,0,1.1,0,1.6,0l16.9,21.5H18.9c-4.4,0-7.9,3.5-7.9,7.9v43.9c0,4.4,3.5,7.9,7.9,7.9h65.3
		c4.4,0,7.9-3.5,7.9-7.9v-44C92.1,339,88.6,335.5,84.2,335.5z M59.8,368.2L48.9,379c-1.5,1.5-4,1.6-5.6,0c-0.7-0.7-1.2-1.7-1.2-2.8
		v-21.7c0.1-2.2,1.9-3.9,4.1-3.8c1,0,2,0.5,2.7,1.2l10.8,10.8C61.2,364.3,61.2,366.7,59.8,368.2L59.8,368.2z"/>
	<g>
		<path class="st11" d="M470.7,388v-81.1h57.4v5.1h-52.4v76H470.7z M479.1,396.5v-81.1h57.4v5.1h-52.4v76H479.1z M534.8,394.8v7.8
			l7.8-7.8H534.8z M487.5,323.8v81.1h43.9v-13.5H545v-67.6H487.5z M497.7,357.6h11.8v3.4h-11.8V357.6z M506.1,391.4h-5.1v-10.1h5.1
			V391.4z M517.9,391.4h-8.4v-23.6h8.4V391.4z M526.4,391.4h-5.1v-16.9h5.1V391.4z M534.8,352.5h-37.2v-3.4h37.2V352.5z
			 M534.8,344.1h-37.2v-3.4h37.2V344.1z M534.8,335.7h-37.2v-3.4h37.2V335.7z"/>
	</g>
	<g>
		<rect x="-672.5" y="-4267.6" class="st12" width="73.7" height="72.7"/>
		<rect x="-663.1" y="-4255.9" style="fill:none;" width="68.4" height="67.3"/>
		<text transform="matrix(1 0 0 1 -663.0615 -4215.5244)" class="st0" style="font-family:'Anton'; font-size:56.908px;">U2</text>
	</g>
	<g>
		<rect x="-673.8" y="-4399.9" class="st12" width="73.7" height="72.7"/>
		<rect x="-661.7" y="-4388.1" style="fill:none;" width="68.4" height="67.3"/>
		<text transform="matrix(1 0 0 1 -661.7056 -4347.7451)" class="st0" style="font-family:'Anton'; font-size:56.908px;">U1</text>
	</g>
	<g>
		<rect x="-672.5" y="-4135.4" class="st12" width="73.7" height="72.7"/>
		<rect x="-663.1" y="-4123.7" style="fill:none;" width="68.4" height="67.3"/>
		<text transform="matrix(1 0 0 1 -663.0615 -4083.3037)" class="st0" style="font-family:'Anton'; font-size:56.908px;">U3</text>
	</g>
	<g>
		<rect x="-672.9" y="-4003.2" class="st12" width="73.7" height="72.7"/>
		<rect x="-662.6" y="-3991.5" style="fill:none;" width="68.4" height="67.3"/>
		<text transform="matrix(1 0 0 1 -662.6089 -3951.083)" class="st0" style="font-family:'Anton'; font-size:56.908px;">U4</text>
	</g>
	<g>
		<rect x="-672.5" y="-3871.4" class="st12" width="73.7" height="72.7"/>
		<rect x="-663.1" y="-3858.8" style="fill:none;" width="68.4" height="67.3"/>
		<text transform="matrix(1 0 0 1 -663.0615 -3818.4092)" class="st0" style="font-family:'Anton'; font-size:56.908px;">U5</text>
	</g>
	<rect x="279.3" y="-4398.2" style="fill:none;" width="434.6" height="125.7"/>
	<text transform="matrix(1 0 0 1 279.3208 -4372.6675)"><tspan x="0" y="0" style="font-family:'UTM-Avo'; font-size:36px;">POST ADS, BANNER, </tspan><tspan x="0" y="43.2" style="font-family:'UTM-Avo'; font-size:36px;">SQUARE POSTS</tspan></text>
	<rect x="279.3" y="-4236.2" style="fill:none;" width="737.7" height="125.7"/>
	<text transform="matrix(1 0 0 1 279.3208 -4210.6226)" style="font-family:'UTM-Avo'; font-size:36px;">TYPOGRAPHY NACIS</text>
	<rect x="279.3" y="-4101.4" style="fill:none;" width="737.7" height="46.3"/>
	<text transform="matrix(1 0 0 1 279.3208 -4075.7959)" style="font-family:'UTM-Avo'; font-size:36px;">ADVANCED MASK TECH</text>
	<rect x="279.3" y="-3972" style="fill:none;" width="737.7" height="125.7"/>
	<text transform="matrix(1 0 0 1 279.3208 -3946.3906)" style="font-family:'UTM-Avo'; font-size:36px;">CV &amp; CL DESIGN</text>
	<rect x="279.3" y="-3861.8" style="fill:none;" width="737.7" height="125.7"/>
	<text transform="matrix(1 0 0 1 279.3208 -3841.9336)"><tspan x="0" y="0" style="font-family:'UTM-Avo'; font-size:28.0023px;">Bạn vui lòng liên hệ để có </tspan><tspan x="0" y="33.6" style="font-family:'UTM-Avo'; font-size:28.0023px;">chương trình học chi tiết và cụ thể</tspan></text>
	<g>
		<rect x="160.4" y="-4265.8" class="st12" width="73.7" height="72.7"/>
		<rect x="169.8" y="-4254.1" style="fill:none;" width="68.4" height="67.3"/>
		<text transform="matrix(1 0 0 1 169.8169 -4213.7183)" class="st0" style="font-family:'Anton'; font-size:56.908px;">U7</text>
	</g>
	<g>
		<rect x="159.1" y="-4398.1" class="st12" width="73.7" height="72.7"/>
		<rect x="171.2" y="-4386.3" style="fill:none;" width="68.4" height="67.3"/>
		<text transform="matrix(1 0 0 1 171.1743 -4345.9385)" class="st0" style="font-family:'Anton'; font-size:56.908px;">U6</text>
	</g>
	<g>
		<rect x="160.4" y="-4133.6" class="st12" width="73.7" height="72.7"/>
		<rect x="169.8" y="-4121.9" style="fill:none;" width="68.4" height="67.3"/>
		<text transform="matrix(1 0 0 1 169.8169 -4081.4971)" class="st0" style="font-family:'Anton'; font-size:56.908px;">U8</text>
	</g>
	<g>
		<rect x="160" y="-4001.4" class="st12" width="73.7" height="72.7"/>
		<rect x="170.3" y="-3989.7" style="fill:none;" width="68.4" height="67.3"/>
		<text transform="matrix(1 0 0 1 170.2701 -3949.2764)" class="st0" style="font-family:'Anton'; font-size:56.908px;">U9</text>
	</g>
	<g>
		<rect x="160.4" y="-3869.6" class="st12" width="73.7" height="72.7"/>
		<rect x="169.8" y="-3857" style="fill:none;" width="68.4" height="67.3"/>
		<text transform="matrix(1 0 0 1 169.8169 -3816.6025)" class="st0" style="font-family:'Anton'; font-size:56.908px;">A</text>
	</g>
	<rect x="-780.3" y="1434.8" style="fill:none;" width="733.3" height="287.9"/>
	<text transform="matrix(1 0 0 1 -780.3095 1449.0352)"><tspan x="0" y="0" class="st10" style="font-family:'HelveticaNeue-Bold'; font-size:20px;">Lưu ý: vì số lượng mỗi lớp hạn chế nên các bạn nhanh tay </tspan><tspan x="0" y="29" class="st10" style="font-family:'HelveticaNeue-Bold'; font-size:20px;">đăng kí sớm và đóng học phí để mình giữ chỗ và xếp lớp.</tspan><tspan x="0" y="87" class="st10" style="font-family:'HelveticaNeue-Bold'; font-size:20px;">Đăng kí trong 72h- Giảm 5% học phí</tspan><tspan x="0" y="116" class="st10" style="font-family:'HelveticaNeue-Bold'; font-size:20px;">Học phí: các bạn vui lòng inbox và sẽ cung cấp số TK </tspan><tspan x="0" y="174" class="st10" style="font-family:'HelveticaNeue-Bold'; font-size:20px;">p/s: Về bài học số 5 và bài số 6 trong chương trình học, </tspan><tspan x="0" y="203" class="st10" style="font-family:'HelveticaNeue-Bold'; font-size:20px;">các bạn sẽ biết cách làm đẹp hình ảnh của chính </tspan><tspan x="0" y="232" class="st10" style="font-family:'HelveticaNeue-Bold'; font-size:20px;">các bạn khi post lên Facebook</tspan></text>
	<g>
		<path class="st6" d="M-587.7,959c-13.9,0-25.1,10.7-25.1,23.9c0,3.8,0.9,7.5,2.7,10.9l0,0c7,11.8,15,23.8,22.5,35.6
			c7-12.1,15.6-23.4,22.3-35.6c1.8-3.4,2.7-7.1,2.7-10.9C-562.6,969.8-573.8,959.1-587.7,959L-587.7,959L-587.7,959z M-587.7,969.1
			c7.3,0,13.3,5.9,13.3,13.3v0c0,7.3-5.9,13.3-13.3,13.3c0,0,0,0,0,0c-7.3,0-13.3-5.9-13.3-13.3C-600.9,975-595,969.1-587.7,969.1
			L-587.7,969.1z"/>
	</g>
	<g>
		<path class="st6" d="M-204.6,954.7c-13.9,0-25.1,10.7-25.1,23.9c0,3.8,0.9,7.5,2.7,10.9l0,0c7,11.8,15,23.8,22.5,35.6
			c7-12.1,15.6-23.4,22.3-35.6c1.8-3.4,2.7-7.1,2.7-10.9C-179.4,965.4-190.7,954.7-204.6,954.7L-204.6,954.7L-204.6,954.7z
			 M-204.6,964.7c7.3,0,13.3,5.9,13.3,13.3v0c0,7.3-5.9,13.3-13.3,13.3c0,0,0,0,0,0c-7.3,0-13.3-5.9-13.3-13.3
			C-217.8,970.7-211.9,964.7-204.6,964.7L-204.6,964.7z"/>
	</g>
	<rect x="-784.7" y="1055.1" style="fill:none;" width="394" height="77.6"/>
	<text transform="matrix(1 0 0 1 -761.8173 1068.6787)"><tspan x="0" y="0" class="st10" style="font-family:'HelveticaNeue-Bold'; font-size:19px;">345/86 Trần Hưng Đạo P. Cầu Kho Q.1 </tspan><tspan x="24.1" y="29" class="st10" style="font-family:'HelveticaNeue-Bold'; font-size:19px;">(KHỐI NGÀNH 3D &amp; Talent Team)</tspan></text>
	<rect x="-751.2" y="1234.4" style="fill:none;" width="327" height="77.6"/>
	<text transform="matrix(1 0 0 1 -659.9731 1253.0027)" class="st10" style="font-family:'HelveticaNeue-Bold'; font-size:26px;">0932709998</text>
	<rect x="-368.1" y="1234.4" style="fill:none;" width="327" height="77.6"/>
	<text transform="matrix(1 0 0 1 -284.063 1253.0027)" class="st10" style="font-family:'HelveticaNeue-Bold'; font-size:26px;">0378 277 414 </text>
	<rect x="-368.1" y="1050.8" style="fill:none;" width="327" height="77.6"/>
	<text transform="matrix(1 0 0 1 -320.1548 1065.0332)" class="st10" style="font-family:'HelveticaNeue-Bold'; font-size:20px;">20 PHAN VĂN TRỊ P2 Q5</text>
	<g transform="translate(0,-952.36218)">
		<path class="st6" d="M-566.1,2098.6c3.8,4,6.7,7.8,7.3,11.4c-0.1,8.3-7.9,18.6-17.3,27.9c-9.3,9.3-20.2,18.5-28,17.3
			c-3.7-0.6-7.5-3.5-11.5-7.4c-1.3-1.2-1.3-3.9,0-5.2l8-8c1.4-1.4,4.1-1.4,5.8-0.4l5.4,3.9c2.9,2.4,8.9-3.6,12.9-7.6
			c4-4,10.1-9.4,7.5-13l-3.9-5.4c-0.9-1.7-0.9-4.4,0.4-5.7l8-8C-570.1,2097.3-567.4,2097.3-566.1,2098.6L-566.1,2098.6z"/>
	</g>
	<g transform="translate(0,-952.36218)">
		<path class="st6" d="M-183,2098.6c3.8,4,6.7,7.8,7.3,11.4c-0.1,8.3-7.9,18.6-17.3,27.9c-9.3,9.3-20.2,18.5-28,17.3
			c-3.7-0.6-7.5-3.5-11.5-7.4c-1.3-1.2-1.3-3.9,0-5.2l8-8c1.4-1.4,4.1-1.4,5.8-0.4l5.4,3.9c2.9,2.4,8.9-3.6,12.9-7.6
			c4-4,10.1-9.4,7.5-13l-3.9-5.4c-0.9-1.7-0.9-4.4,0.4-5.7l8-8C-186.9,2097.3-184.3,2097.3-183,2098.6L-183,2098.6z"/>
	</g>
	<rect x="-369.3" y="-7611.7" width="63" height="63"/>
</g>
<g id="Layer_7">
	<rect x="-769.4" y="-7682.5" style="fill:none;" width="864.3" height="96.7"/>
	<text transform="matrix(1 0 0 1 -769.4194 -7632.7754)" class="st12" style="font-family:'Anton'; font-size:70px;">KODA PHOTOSHOP COURSE</text>
</g>
</svg>
