<svg width="40" height="40" viewBox="0 0 40 40" fill="none" xmlns="http://www.w3.org/2000/svg">
<g clip-path="url(#clip0_1131_46537)">
<rect width="40" height="40" rx="20" fill="#184E77"/>
<path d="M28.0625 16.75H27.25C26.8011 16.75 26.4375 17.1136 26.4375 17.5625V20C26.4375 23.7984 23.1626 26.8463 19.288 26.4685C15.9111 26.1389 13.4375 23.1032 13.4375 19.7105V17.5625C13.4375 17.1136 13.0739 16.75 12.625 16.75H11.8125C11.3636 16.75 11 17.1136 11 17.5625V19.6019C11 24.1539 14.2485 28.2118 18.7188 28.8283V30.5625H15.875C15.4261 30.5625 15.0625 30.9261 15.0625 31.375V32.1875C15.0625 32.6364 15.4261 33 15.875 33H24C24.4489 33 24.8125 32.6364 24.8125 32.1875V31.375C24.8125 30.9261 24.4489 30.5625 24 30.5625H21.1562V28.8476C25.5087 28.2504 28.875 24.5145 28.875 20V17.5625C28.875 17.1136 28.5114 16.75 28.0625 16.75ZM19.9375 24.875C22.6299 24.875 24.8125 22.6924 24.8125 20H20.4793C20.1802 20 19.9375 19.8182 19.9375 19.5938V18.7812C19.9375 18.5568 20.1802 18.375 20.4793 18.375H24.8125V16.75H20.4793C20.1802 16.75 19.9375 16.5682 19.9375 16.3438V15.5312C19.9375 15.3068 20.1802 15.125 20.4793 15.125H24.8125V13.5H20.4793C20.1802 13.5 19.9375 13.3182 19.9375 13.0938V12.2812C19.9375 12.0568 20.1802 11.875 20.4793 11.875H24.8125C24.8125 9.18258 22.6299 7 19.9375 7C17.2451 7 15.0625 9.18258 15.0625 11.875V20C15.0625 22.6924 17.2451 24.875 19.9375 24.875Z" fill="white"/>
</g>
<defs>
<clipPath id="clip0_1131_46537">
<rect width="40" height="40" rx="20" fill="white"/>
</clipPath>
</defs>
</svg>
