<?xml version="1.0" encoding="utf-8"?>
<!-- Generator: Adobe Illustrator 24.3.0, SVG Export Plug-In . SVG Version: 6.00 Build 0)  -->
<svg version="1.1" xmlns="http://www.w3.org/2000/svg" xmlns:xlink="http://www.w3.org/1999/xlink" x="0px" y="0px" width="98.8px"
	 height="94.2px" viewBox="0 0 98.8 94.2" style="enable-background:new 0 0 98.8 94.2;" xml:space="preserve">
<style type="text/css">
	.st0{fill:#FFFFFF;}
	.st1{fill:#004068;}
	.st2{fill:#F7CF38;}
	.st3{fill:#FF9D31;}
	.st4{fill:#DE9700;}
	.st5{fill:#02B9CD;}
	.st6{fill:#F88008;}
	.st7{fill:#FFDE83;}
	.st8{fill:#FFBE3B;}
	.st9{fill:#FF9E31;}
	.st10{fill:none;}
	.st11{font-family:'HelveticaNeue-Bold';}
	.st12{font-size:29px;}
	.st13{font-family:'HelveticaNeue';}
	.st14{fill:#333333;}
	.st15{fill:#4D4D4D;}
	.st16{fill:#FF6400;}
</style>
<g id="Layer_2">
</g>
<g id="Layer_1">
	<rect x="-469.2" y="-10380.6" class="st0" width="1920" height="1080"/>
	<rect x="-469.2" y="-9299.6" class="st0" width="1920" height="1080"/>
	<rect x="-469.2" y="-7140.6" class="st0" width="1920" height="1080"/>
	<rect x="-469.2" y="-6060.6" class="st0" width="1920" height="1080"/>
	<rect x="-469.2" y="-4980.6" class="st0" width="1920" height="1080"/>
	<rect x="-469.2" y="-3900.6" class="st0" width="1920" height="1080"/>
	<rect x="-469.2" y="-2820.6" class="st0" width="1920" height="1080"/>
	<rect x="-469.2" y="-1740.6" class="st0" width="1920" height="1080"/>
	<rect x="-469.2" y="-660.6" class="st0" width="1920" height="1080"/>
	<rect x="-469.2" y="419.4" class="st0" width="1920" height="1080"/>
	<rect x="-469.2" y="1499.4" class="st0" width="1920" height="1080"/>
</g>
<g id="Layer_3">
	<rect x="316.6" y="-8697" class="st10" width="1076.2" height="75"/>
	<text transform="matrix(1 0 0 1 316.5645 -8655.0664)" class="st1 st11" style="font-size:58.7032px;">Upgrade Program 2024</text>
	<text transform="matrix(1 0 0 1 316.5645 -8876.6094)"><tspan x="0" y="0" style="fill:#044784; font-family:'Anton'; font-size:97.8386px;">KHAI GIẢNG KHÓA </tspan><tspan x="0" y="135.9" style="fill:#044784; font-family:'Anton'; font-size:97.8386px;">LỚP KODA PHOTOSHOP H298 </tspan></text>
	<rect x="667.8" y="-8715.6" class="st1" width="26" height="19"/>
</g>
<g id="Layer_6">
</g>
<g id="Layer_4">
	<g>
		<defs>
			<rect id="SVGID_1_" x="-469.2" y="-10380.6" width="1920" height="1080"/>
		</defs>
		<clipPath id="SVGID_2_">
			<use xlink:href="#SVGID_1_"  style="overflow:visible;"/>
		</clipPath>
	</g>
</g>
<g id="Layer_5">
	<rect x="-469.2" y="-4891.6" class="st2" width="1076" height="116"/>
	<rect x="-469.2" y="-1739.6" class="st3" width="816.6" height="1080"/>
	<rect x="-363.1" y="-1660.9" class="st0" width="649.5" height="950.8"/>
	<rect x="309.8" y="-8602.6" class="st4" width="1014" height="43"/>
	<rect x="306.8" y="-8544.6" class="st4" width="331" height="44"/>
	<text transform="matrix(1 0 0 1 319.565 -8570.1553)"><tspan x="0" y="0" class="st0" style="font-family:'MyriadPro-Bold'; font-size:33.7px;">CHƯƠNG TRÌNH HỌC CẬP NHẬT LIÊN TỤC ĐỔI MỚI KHÔNG NGỪNG </tspan><tspan x="0" y="57.6" class="st0" style="font-family:'MyriadPro-Bold'; font-size:33.7px;">THEO QUÝ MỖI NĂM</tspan></text>
	<g>
		<text transform="matrix(1 0 0 1 -255.7197 -4804.1084)" class="st14" style="font-family:'Anton'; font-size:64.8602px;">NỘI DUNG CHƯƠNG TRÌNH KHÓA HỌC</text>
	</g>
	<rect x="422.1" y="-1434.8" class="st10" width="959.1" height="157.3"/>
	<text transform="matrix(1 0 0 1 422.0743 -1412.7031)"><tspan x="0" y="0" class="st14" style="font-family:'HelveticaNeue-Medium'; font-size:31px;">Lớp Sáng:</tspan><tspan x="148.7" y="0" class="st14 st12" style="font-family:'HelveticaNeue-Medium';"> Thứ 2-4: 8h30-10h30 sáng</tspan><tspan x="0" y="37.2" class="st14" style="font-family:'HelveticaNeue-Medium'; font-size:31px;">Lớp Tối:</tspan><tspan x="119.4" y="37.2" class="st14 st12" style="font-family:'HelveticaNeue-Medium';"> Thứ 2-4: 7-9h tối</tspan><tspan x="0" y="74.4" class="st14" style="font-family:'HelveticaNeue-Medium'; font-size:31px;">Lớp Tối:</tspan><tspan x="119.4" y="74.4" class="st14 st12" style="font-family:'HelveticaNeue-Medium';"> Thứ 6: 7-9h tối: Full Slot</tspan></text>
	<rect x="490.8" y="-6669.6" class="st10" width="790.6" height="191.3"/>
	<text transform="matrix(1 0 0 1 686.9512 -6642.4365)"><tspan x="0" y="0" style="font-family:'HelveticaNeue-Medium'; font-size:38px;">Nhằm đảm bảo chất lượng đầu ra </tspan><tspan x="109.5" y="64" style="font-family:'HelveticaNeue-Medium'; font-size:38px;">Chúng tôi xin phép giới hạn </tspan><tspan x="292.1" y="128" style="font-family:'HelveticaNeue-Medium'; font-size:38px;">số lượng mỗi lớp</tspan></text>
	<rect x="218.5" y="-6942.6" class="st10" width="1062.9" height="246.6"/>
	<text transform="matrix(1 0 0 1 314.1505 -6873.6865)"><tspan x="0" y="0" style="fill:#F78508; font-family:'Anton'; font-size:97px;">Chất lượng người học là </tspan><tspan x="277.9" y="116.4" style="fill:#F78508; font-family:'Anton'; font-size:97px;">ưu tiên hàng đầu</tspan></text>
	<g>
		<rect x="-345.4" y="-1621.9" class="st10" width="666.1" height="157.4"/>
		<text transform="matrix(1 0 0 1 -345.393 -1546.0518)"><tspan x="0" y="0" style="fill:#00B2DD; font-family:'Anton'; font-size:91px;">Thời</tspan><tspan x="167.3" y="0" style="fill:#00B2DD; font-family:'AppleBraille-Outline6Dot'; font-size:91px;"> </tspan><tspan x="198.4" y="0" style="fill:#00B2DD; font-family:'Anton'; font-size:91px;">gian</tspan><tspan x="365" y="0" style="fill:#00B2DD; font-family:'AppleBraille-Outline6Dot'; font-size:91px;"> </tspan><tspan x="396.1" y="0" style="fill:#00B2DD; font-family:'Anton'; font-size:91px;">học</tspan><tspan x="537.3" y="0" style="fill:#00B2DD; font-family:'AppleBraille-Outline6Dot'; font-size:91px;"> </tspan><tspan x="568.4" y="0" style="fill:#00B2DD; font-family:'Anton'; font-size:91px;">:</tspan></text>
	</g>
	<rect x="-313.9" y="526.8" class="st10" width="366.6" height="135.4"/>
	<text transform="matrix(1 0 0 1 -313.9164 597.1269)" style="fill:#ED7837; font-family:'Anton'; font-size:99px;">ĐỊA </text>
	<rect x="-320.8" y="1086.6" class="st10" width="707.5" height="51.4"/>
	<text transform="matrix(1 0 0 1 -320.8442 1100.8379)" class="st14 st11" style="font-size:20px;">2 chi nhánh cách nhau 30s đi xe máy</text>
	<path class="st5" d="M-62.2-7394.2c0,4.2-3.4,7.7-7.7,7.7h-229.6c-4.2,0-7.7-3.4-7.7-7.7v-65.6c0-4.2,3.4-7.7,7.7-7.7h229.6
		c4.2,0,7.7,3.4,7.7,7.7V-7394.2z"/>
	<rect x="-360.7" y="-7447.1" class="st10" width="348.1" height="74"/>
	<text transform="matrix(1 0 0 1 -279.6567 -7408.5225)" class="st0 st11" style="font-size:54px;">Liên hệ</text>
	<path class="st6" d="M1278.8-6374.2c0,4.2-3.4,7.7-7.7,7.7h-229.6c-4.2,0-7.7-3.4-7.7-7.7v-65.6c0-4.2,3.4-7.7,7.7-7.7h229.6
		c4.2,0,7.7,3.4,7.7,7.7V-6374.2z"/>
	<rect x="980.3" y="-6427.1" class="st10" width="348.1" height="74"/>
	<text transform="matrix(1 0 0 1 1061.3433 -6388.5225)" class="st0 st11" style="font-size:54px;">Liên hệ</text>
	<path d="M652.8-807.2c0,4.2-3.4,7.7-7.7,7.7H415.5c-4.2,0-7.7-3.4-7.7-7.7v-65.6c0-4.2,3.4-7.7,7.7-7.7h229.6
		c4.2,0,7.7,3.4,7.7,7.7V-807.2z"/>
	<rect x="354.3" y="-860.1" class="st10" width="348.1" height="74"/>
	<text transform="matrix(1 0 0 1 435.3428 -821.5225)" class="st0 st11" style="font-size:54px;">Liên hệ</text>
	<rect x="1311.8" y="-1457.4" class="st3" width="139" height="481.8"/>
	<rect x="-465.2" y="-3588.6" class="st7" width="1916" height="424"/>
	<rect x="811.6" y="425.4" class="st8" width="639.1" height="1080"/>
	<rect x="-469.2" y="-135.1" class="st8" width="103.1" height="356"/>
	<rect x="-307.2" y="-7882.2" class="st10" width="522.3" height="245.3"/>
	<text transform="matrix(1 0 0 1 -307.2192 -7822.6382)"><tspan x="0" y="0" class="st14 st11" style="font-size:26px;">Đây là bộ môn mang lại tư duy về thẩm </tspan><tspan x="0" y="41" class="st14 st11" style="font-size:26px;">mĩ trong thiết kế được nâng cấp dựa trên </tspan><tspan x="0" y="82" class="st14 st11" style="font-size:26px;">xu hướng 2024 và được thiết lập trong </tspan><tspan x="0" y="123" class="st14 st11" style="font-size:26px;">giáo án chương trình học cho các sinh </tspan><tspan x="0" y="164" class="st14 st11" style="font-size:26px;">viên tại Nhật Bản</tspan></text>
	<polygon class="st10" points="546.9,-7478.2 -305.2,-7478.2 -307.2,-7514.2 544.9,-7514.2 	"/>
	<text transform="matrix(1 0 0 1 -305.7997 -7488.5996)" class="st15" style="font-family:'MyriadPro-Bold'; font-size:36px;">Không gian lớp học</text>
	
		<image style="overflow:visible;" width="720" height="720" xlink:href="../../../../Downloads/LAYOUT 6/IMAG/PIC (5).jpg"  transform="matrix(0.9036 0 0 0.9036 -452.7459 -6967.8682)">
	</image>
	
		<image style="overflow:visible;" width="991" height="1341" xlink:href="../../../../Downloads/LAYOUT 6/IMAG/PIC (3).jpg"  transform="matrix(0.3919 0 0 0.3919 191.1096 -6728.332)">
	</image>
	
		<image style="overflow:visible;" width="1080" height="1528" xlink:href="../../../../Downloads/LAYOUT 6/IMAG/PIC (1).jpg"  transform="matrix(0.2587 0 0 0.2587 -88.7584 -6515.0806)">
	</image>
	<g>
		<rect x="417.8" y="-1550.6" class="st10" width="608" height="138"/>
		<text transform="matrix(1 0 0 1 417.7808 -1512.9258)" class="st3" style="font-family:'Anton'; font-size:53px;">LỚP TRỰC TIẾP</text>
	</g>
	<g>
		<rect x="-338.1" y="-2651.8" class="st10" width="865.1" height="75.2"/>
		<text transform="matrix(1 0 0 1 -338.1352 -2602.0723)" class="st16" style="font-family:'Anton'; font-size:70px;">3 LÝ DO CHÍNH BẠN NÊN </text>
	</g>
	<g>
		<rect x="-338.1" y="-2560.7" class="st10" width="865.1" height="75.2"/>
		<text transform="matrix(1 0 0 1 -338.1352 -2526.666)" class="st16" style="font-family:'Anton'; font-size:48px;">KODA PHOTOSHOP tại HANNA&apos;S FAMILY</text>
	</g>
	<rect x="-193.2" y="-2367.1" class="st10" width="816.6" height="139.1"/>
	<text transform="matrix(1 0 0 1 -193.1577 -2337.3013)" class="st15" style="font-family:'UTM-Avo'; font-size:42px;">Chất lượng giảng dạy</text>
	<rect x="-93.8" y="-4663.9" class="st10" width="737.7" height="125.7"/>
	<text transform="matrix(1 0 0 1 -93.7587 -4638.3809)" style="font-family:'UTM-Avo'; font-size:36px;">INTRODUCTION</text>
	<rect x="-93.8" y="-4531.7" class="st10" width="737.7" height="125.7"/>
	<text transform="matrix(1 0 0 1 -93.7587 -4506.1606)" style="font-family:'UTM-Avo'; font-size:36px;">THE KOKLORS &amp; CONCESK</text>
	<rect x="-93.8" y="-4399.5" class="st10" width="737.7" height="46.3"/>
	<text transform="matrix(1 0 0 1 -93.7587 -4373.9395)" style="font-family:'UTM-Avo'; font-size:36px;">DESIGN </text>
	<rect x="-93.8" y="-4268.4" class="st10" width="737.7" height="125.7"/>
	<text transform="matrix(1 0 0 1 -93.7587 -4242.833)" style="font-family:'UTM-Avo'; font-size:36px;">EFFECTS, FINAL DETAILS, AND EXTRAS</text>
	<rect x="-93.8" y="-4134" class="st10" width="737.7" height="125.7"/>
	<text transform="matrix(1 0 0 1 -93.7587 -4108.4238)" style="font-family:'UTM-Avo'; font-size:36px;">LAYOUKA, RATIONNE TYPES</text>
	<rect x="-193.2" y="-2217.2" class="st10" width="816.6" height="139.1"/>
	<text transform="matrix(1 0 0 1 -193.1577 -2187.356)" class="st15" style="font-family:'UTM-Avo'; font-size:42px;">Giảng viên giàu kinh nghiệm</text>
	<rect x="-193.2" y="-2067.5" class="st10" width="816.6" height="139.1"/>
	<text transform="matrix(1 0 0 1 -193.1577 -2037.6724)" class="st15" style="font-family:'UTM-Avo'; font-size:42px;">Không gian lớp học đa concept</text>
	<g>
		<rect x="417.8" y="-1183.6" class="st10" width="330" height="80"/>
		<text transform="matrix(1 0 0 1 417.7808 -1145.9258)" class="st3" style="font-family:'Anton'; font-size:53px;">LỚP ONLINE</text>
	</g>
	<rect x="422.1" y="-1166.6" class="st10" width="579.7" height="227"/>
	<text transform="matrix(1 0 0 1 422.0743 -1082.491)"><tspan x="0" y="0" class="st14" style="font-family:'HelveticaNeue-Medium'; font-size:27px;">Lớp học online từ xa dành cho các bạn trong </tspan><tspan x="0" y="32.4" class="st14" style="font-family:'HelveticaNeue-Medium'; font-size:27px;">&amp; ngoài nước</tspan><tspan x="0" y="97.2" class="st14" style="font-family:'HelveticaNeue-Medium'; font-size:27px;">Đặc biệt là các bạn đang du học hoặc đang </tspan><tspan x="0" y="129.6" class="st14" style="font-family:'HelveticaNeue-Medium'; font-size:27px;">làm việc ở nước ngoài</tspan></text>
	
		<ellipse transform="matrix(0.9998 -1.787072e-02 1.787072e-02 0.9998 41.9214 -5.417)" class="st9" cx="-282.1" cy="-2348.3" rx="58.8" ry="58.8"/>
	
		<ellipse transform="matrix(0.9998 -1.787072e-02 1.787072e-02 0.9998 39.3389 -5.3939)" class="st9" cx="-282.1" cy="-2203.8" rx="58.8" ry="58.8"/>
	
		<ellipse transform="matrix(1.667897e-02 -0.9999 0.9999 1.667897e-02 1775.5996 -2301.1631)" class="st9" cx="-282.1" cy="-2053.3" rx="58.8" ry="58.8"/>
	<rect x="-338.1" y="-2380.6" class="st10" width="112" height="158"/>
	<text transform="matrix(1 0 0 1 -298.2944 -2335.8262)" class="st0" style="font-family:'Anton'; font-size:63px;">1</text>
	<rect x="-338.1" y="-2231" class="st10" width="112" height="86"/>
	<text transform="matrix(1 0 0 1 -298.2944 -2186.2764)" class="st0" style="font-family:'Anton'; font-size:63px;">2</text>
	<rect x="-338.1" y="-2080.5" class="st10" width="112" height="86"/>
	<text transform="matrix(1 0 0 1 -298.2944 -2035.7646)" class="st0" style="font-family:'Anton'; font-size:63px;">3</text>
	<g>
		<rect x="-346.2" y="-527.6" class="st10" width="1624" height="170.1"/>
		<text transform="matrix(1 0 0 1 8.5757 -489.2198)"><tspan x="0" y="0" style="fill:#E26F10; font-family:'Anton'; font-size:54px;">KODA PHOTOSHOP là môn học giúp bạn </tspan><tspan x="18.9" y="81" style="fill:#E26F10; font-family:'Anton'; font-size:54px;">ứng dụng nhiều vào cuộc sống hiện tại</tspan></text>
	</g>
	<g>
		<g>
			<rect x="-199.6" y="-174.9" class="st10" width="498" height="234"/>
			<text transform="matrix(1 0 0 1 -106.2485 -154.209)"><tspan x="0" y="0" class="st6 st11 st12">Thông thạo phần mềm </tspan><tspan x="38.1" y="50" class="st13 st12">Photoshop từ A-Z</tspan></text>
			<rect x="-145.2" y="138.1" class="st10" width="389.3" height="234"/>
			<text transform="matrix(1 0 0 1 -136.8281 158.8174)"><tspan x="0" y="0" class="st6 st11 st12">Thiết kế ấn phẩm, hình ảnh</tspan><tspan x="372.5" y="0" class="st13 st12"> </tspan><tspan x="6.2" y="50" class="st13 st12">sống động trong quảng cáo </tspan><tspan x="97.4" y="100" class="st13 st12">&amp; các sự kiện</tspan></text>
		</g>
		<g>
			<rect x="362.1" y="-174.9" class="st10" width="293" height="234"/>
			<text transform="matrix(1 0 0 1 373.4117 -154.209)"><tspan x="0" y="0" class="st6 st11 st12">Chỉnh sửa hình ảnh </tspan><tspan x="-4.5" y="50" class="st13 st12">sống động, theo style </tspan><tspan x="67.3" y="100" class="st13 st12">riêng mình</tspan></text>
			<rect x="335.9" y="138.1" class="st10" width="345.4" height="234"/>
			<text transform="matrix(1 0 0 1 369.6553 158.8174)"><tspan x="0" y="0" class="st6 st11 st12">Tự tay tạo nên kênh </tspan><tspan x="-1.8" y="50" class="st13 st12">truyền thông cho việc </tspan><tspan x="6.4" y="100" class="st13 st12">khởi nghiệp cá nhân</tspan></text>
		</g>
		<g>
			<rect x="798.7" y="-174.9" class="st10" width="332.5" height="234"/>
			<text transform="matrix(1 0 0 1 840.2686 -154.209)"><tspan x="0" y="0" class="st6 st11 st12">Tự tay thiết kế CV</tspan><tspan x="249.3" y="0" class="st13 st12"> </tspan><tspan x="-24.6" y="50" class="st13 st12">ấn tượng ghi điểm cho </tspan><tspan x="23.6" y="100" class="st13 st12">nhà tuyển dụng</tspan></text>
			<rect x="802.7" y="138.1" class="st10" width="324.5" height="234"/>
			<text transform="matrix(1 0 0 1 845.0103 158.8174)"><tspan x="0" y="0" class="st6 st11 st12">Thiết kế proposal </tspan><tspan x="-24.9" y="50" class="st13 st12">chuyên nghiệp thu hút </tspan><tspan x="76.4" y="100" class="st13 st12">đầu tư</tspan></text>
		</g>
	</g>
	<rect x="1205.8" y="-426.6" class="st8" width="245" height="37.8"/>
	<g>
		<g>
			<path class="st14" d="M91.6-316.2l0.1-0.2c0.8-1.4,0.9-2.9,0.5-4.3c-0.4-1.4-1.3-2.7-2.6-3.5l-0.2-0.1c-1.3-0.7-2.9-0.9-4.3-0.5
				c-1.4,0.4-2.7,1.3-3.5,2.6l-0.8,1.3l10,5.8L91.6-316.2L91.6-316.2z M38.9-242.1c0.6-0.5,1.5-0.5,2,0.1c0.5,0.6,0.5,1.5-0.1,2
				c-9.8,9.1-14.6,4.9-19.5,0.6c-3.8-3.3-7.8-6.7-15.4-0.5c-0.6,0.5-1.5,0.4-2-0.2c-0.5-0.6-0.4-1.5,0.2-2c9.5-7.7,14.3-3.5,19,0.6
				C27-238.1,30.9-234.7,38.9-242.1L38.9-242.1z M52.9-263.4l30.5-52.8l-3.8-2.2L49-265.5c0.8,0,1.6,0.2,2.3,0.7
				c0.5,0.3,0.9,0.6,1.2,0.9C52.6-263.7,52.8-263.6,52.9-263.4L52.9-263.4z M85.8-314.8L55.3-262c0.2,0,0.3,0,0.5,0.1
				c0.5,0.1,1,0.3,1.4,0.6c0.7,0.4,1.3,1,1.7,1.7l30.6-52.9L85.8-314.8L85.8-314.8z M56.8-256.4c0.2-0.5,0.2-1,0-1.5
				c-0.2-0.5-0.5-0.8-0.9-1.1c-0.2-0.1-0.4-0.2-0.6-0.2c-0.2,0-0.4,0-0.6,0c-0.8,0.1-1.6-0.1-2.3-0.5c-0.7-0.4-1.2-1-1.6-1.7
				c-0.1-0.2-0.2-0.4-0.3-0.5c-0.2-0.2-0.3-0.3-0.5-0.4c-0.4-0.3-0.9-0.3-1.4-0.2c-0.5,0.1-0.9,0.3-1.2,0.7l-0.6,12.2L56.8-256.4
				L56.8-256.4z M61.9-293.4h-60c-1.3,0-2.5,0.5-3.3,1.4c-0.9,0.8-1.4,2-1.4,3.3v58.8c0,1.3,0.5,2.5,1.4,3.3c0.9,0.8,2,1.4,3.3,1.4
				h95.1c1.3,0,2.4-0.5,3.3-1.3c0.9-0.9,1.4-2.1,1.4-3.4v-58.8c0-1.3-0.5-2.5-1.4-3.3c-0.8-0.9-2-1.4-3.3-1.4H81.7l-22.1,38.4
				c-0.1,0.2-0.3,0.3-0.4,0.5l-13.2,8.7c-0.3,0.2-0.6,0.3-0.9,0.3c-0.8,0-1.4-0.7-1.3-1.5l0.8-15.9c0-0.2,0.1-0.5,0.2-0.7
				L61.9-293.4L61.9-293.4z M60.7-209.4c-0.9-1.7-1.6-3.5-2.2-5.5c-0.7-2.4-1.2-4.9-1.4-7.6H41.7c-0.2,2.7-0.7,5.2-1.4,7.6
				c-0.6,1.9-1.3,3.8-2.2,5.5H60.7z M73.1-206.6H25.7v5.6h47.4V-206.6z"/>
		</g>
	</g>
	<g transform="translate(0,-952.36218)">
		<path class="st15" d="M457.1,655.5v49.8l14.2-13.6c1-1,2.7-0.9,3.6,0.1c0,0,0,0,0.1,0.1l5.8,6.6l14.7-14.2c1-0.9,2.5-0.9,3.5,0
			l24,22.9l14.1-15.1c1-1,2.6-1.1,3.6-0.1l19.4,18.1v-54.6H457.1L457.1,655.5z M524.4,661.4c1.4,0,2.6,1.1,2.7,2.5c0,0,0,0.1,0,0.1
			v4.2c0,1.4-1.1,2.6-2.5,2.6c-1.4,0-2.6-1.1-2.6-2.5c0,0,0,0,0-0.1V664C521.9,662.6,523,661.5,524.4,661.4L524.4,661.4z
			 M511.9,666.5c0.1,0,0.2,0,0.3,0c0.7,0,1.4,0.3,1.9,0.8l3,3c1,1,1.1,2.6,0.1,3.6c-1,1-2.6,1.1-3.6,0.1c0,0,0,0-0.1-0.1l-3-3
			c-1-1-1.1-2.6-0.1-3.6C510.7,666.9,511.3,666.6,511.9,666.5z M536.5,666.5c0.1,0,0.2,0,0.3,0c1.4-0.1,2.6,1.1,2.7,2.5
			c0,0.7-0.3,1.4-0.8,2l-3,3c-1,1-2.6,1.1-3.6,0.1c-1-1-1.1-2.6-0.1-3.6c0,0,0,0,0.1-0.1l3-3C535.4,666.9,535.9,666.6,536.5,666.5z
			 M524.5,672.5c4.9,0,9,4,9,8.9c0,4.9-4.1,8.9-9,8.9c-5,0-9.1-4-9.1-8.9C515.5,676.5,519.6,672.5,524.5,672.5z M506.8,678.9
			c0.1,0,0.2,0,0.3,0h4.2c1.4,0,2.6,1.1,2.6,2.5c0,1.4-1.1,2.6-2.5,2.6c0,0,0,0-0.1,0h-4.3c-1.4,0.1-2.6-1-2.7-2.4
			C504.3,680.2,505.4,679,506.8,678.9L506.8,678.9z M537.4,678.9c0.1,0,0.2,0,0.3,0h4.2c1.4,0,2.6,1.1,2.6,2.5
			c0,1.4-1.1,2.6-2.5,2.6c0,0,0,0-0.1,0h-4.3c-1.4,0.1-2.6-1-2.7-2.4C534.9,680.2,535.9,679,537.4,678.9
			C537.4,678.9,537.4,678.9,537.4,678.9L537.4,678.9z"/>
		<path class="st15" d="M497.3,689.8l24.1,23c1,1,2.7,0.9,3.6-0.1c0,0,0,0,0,0l14.1-15.2l21,19.6v6H457.1v-10.7l15.8-15.1l5.8,6.6
			c0.9,1.1,2.6,1.2,3.6,0.2c0,0,0.1-0.1,0.1-0.1L497.3,689.8L497.3,689.8z"/>
	</g>
	<g>
		<path class="st15" d="M990.7-232.2v-47.5l0,0v-25.4c0-1.2-1-2.2-2.2-2.2H910c-1.2,0-2.2,1-2.2,2.2v84.2c0,1.2,1,2.2,2.2,2.2h86.8
			C993.1-222,990.7-226.8,990.7-232.2z M932.2-300.1c4.8,0,8.7,3.9,8.7,8.7c0,4.8-3.9,8.7-8.7,8.7c-4.8,0-8.7-3.9-8.7-8.7
			C923.6-296.3,927.4-300.1,932.2-300.1z M915.8-262.8v-2.5c0-8.1,7.6-14.6,17-14.6c9.4,0,17,6.5,17,14.6v2.5c0,1.2-1,2.2-2.2,2.2
			H918C916.7-260.6,915.8-261.6,915.8-262.8z M976.3-230H920c-1.2,0-2.2-1-2.2-2.2c0-1.2,1-2.2,2.2-2.2h56.4c1.2,0,2.2,1,2.2,2.2
			C978.5-230.9,977.6-230,976.3-230z M976.3-249.7H920c-1.2,0-2.2-1-2.2-2.2c0-1.2,1-2.2,2.2-2.2h56.4c1.2,0,2.2,1,2.2,2.2
			C978.5-250.7,977.6-249.7,976.3-249.7z M976.3-269.5h-23.4c-1.2,0-2.2-1-2.2-2.2c0-1.2,1-2.2,2.2-2.2h23.4c1.2,0,2.2,1,2.2,2.2
			C978.5-270.5,977.6-269.5,976.3-269.5z M976.3-289.3h-23.4c-1.2,0-2.2-1-2.2-2.2c0-1.2,1-2.2,2.2-2.2h23.4c1.2,0,2.2,1,2.2,2.2
			C978.5-290.3,977.6-289.3,976.3-289.3z"/>
		<path class="st15" d="M1019.8-281.9h-22.6c-1.2,0-2.2,1-2.2,2.2v47.5c0,7.4,6,13.5,13.5,13.5c7.4,0,13.5-6,13.5-13.5v-47.5
			C1022-280.9,1021-281.9,1019.8-281.9z"/>
	</g>
	<g>
		<rect x="23.5" y="28" class="st15" width="52" height="19.1"/>
		<g>
			<polyline class="st15" points="78.1,94.2 78.1,77 98.8,77 98.8,23 78.2,23 78.2,0 			"/>
			<polyline class="st15" points="20.7,0 20.7,23 0,23 0,77 20.7,77 20.7,94.2 			"/>
			<polyline class="st15" points="27.6,87.4 27.6,66.7 71.3,66.7 71.3,87.4 			"/>
			<rect x="64.3" y="36.8" class="st15" width="20.8" height="6.9"/>
		</g>
	</g>
	<path class="st15" d="M541.3,38.7h-29.6l22-25.7h0.6c4.8,0.1,8.7-3.8,8.8-8.6c0.1-4.8-3.8-8.7-8.6-8.8c-4.8-0.1-8.7,3.8-8.8,8.6
		c0,1.6,0.4,3.2,1.2,4.6l-20.3,23.6l-15.8-20.2c1.9-4.3,0-9.3-4.3-11.2c-4.3-1.9-9.3,0-11.2,4.3c-1.9,4.3,0,9.3,4.3,11.2
		c1.1,0.5,2.2,0.7,3.4,0.7c0.5,0,1.1,0,1.6,0l16.9,21.5H476c-4.4,0-7.9,3.5-7.9,7.9v43.9c0,4.4,3.5,7.9,7.9,7.9h65.3
		c4.4,0,7.9-3.5,7.9-7.9v-44C549.2,42.2,545.7,38.7,541.3,38.7z M516.8,71.4L506,82.2c-1.5,1.5-4,1.6-5.6,0
		c-0.7-0.7-1.2-1.7-1.2-2.8V57.8c0.1-2.2,1.9-3.9,4.1-3.8c1,0,2,0.5,2.7,1.2L516.8,66C518.3,67.5,518.3,69.8,516.8,71.4L516.8,71.4z
		"/>
	<g>
		<path class="st15" d="M927.7,91.2V10.1h57.4v5.1h-52.4v76H927.7z M936.2,99.6V18.6h57.4v5.1h-52.4v76H936.2z M991.9,98v7.8
			l7.8-7.8H991.9z M944.6,27v81.1h43.9V94.6h13.5V27H944.6z M954.8,60.8h11.8v3.4h-11.8V60.8z M963.2,94.6h-5.1V84.4h5.1V94.6z
			 M975,94.6h-8.4V70.9h8.4V94.6z M983.5,94.6h-5.1V77.7h5.1V94.6z M991.9,55.7h-37.2v-3.4h37.2V55.7z M991.9,47.3h-37.2v-3.4h37.2
			V47.3z M991.9,38.8h-37.2v-3.4h37.2V38.8z"/>
	</g>
	<g>
		<rect x="-215.4" y="-4564.5" class="st16" width="73.7" height="72.7"/>
		<rect x="-206" y="-4552.7" class="st10" width="68.4" height="67.3"/>
		<text transform="matrix(1 0 0 1 -205.9726 -4512.3369)" class="st0" style="font-family:'Anton'; font-size:56.908px;">U2</text>
	</g>
	<g>
		<rect x="-216.7" y="-4696.7" class="st16" width="73.7" height="72.7"/>
		<rect x="-204.6" y="-4685" class="st10" width="68.4" height="67.3"/>
		<text transform="matrix(1 0 0 1 -204.6167 -4644.5576)" class="st0" style="font-family:'Anton'; font-size:56.908px;">U1</text>
	</g>
	<g>
		<rect x="-215.4" y="-4432.2" class="st16" width="73.7" height="72.7"/>
		<rect x="-206" y="-4420.5" class="st10" width="68.4" height="67.3"/>
		<text transform="matrix(1 0 0 1 -205.9726 -4380.1162)" class="st0" style="font-family:'Anton'; font-size:56.908px;">U3</text>
	</g>
	<g>
		<rect x="-215.8" y="-4300" class="st16" width="73.7" height="72.7"/>
		<rect x="-205.5" y="-4288.3" class="st10" width="68.4" height="67.3"/>
		<text transform="matrix(1 0 0 1 -205.52 -4247.8955)" class="st0" style="font-family:'Anton'; font-size:56.908px;">U4</text>
	</g>
	<g>
		<rect x="-215.4" y="-4168.2" class="st16" width="73.7" height="72.7"/>
		<rect x="-206" y="-4155.6" class="st10" width="68.4" height="67.3"/>
		<text transform="matrix(1 0 0 1 -205.9726 -4115.2217)" class="st0" style="font-family:'Anton'; font-size:56.908px;">U5</text>
	</g>
	<rect x="736.4" y="-4695" class="st10" width="434.6" height="125.7"/>
	<text transform="matrix(1 0 0 1 736.4097 -4669.48)"><tspan x="0" y="0" style="font-family:'UTM-Avo'; font-size:36px;">POST ADS, BANNER, </tspan><tspan x="0" y="43.2" style="font-family:'UTM-Avo'; font-size:36px;">SQUARE POSTS</tspan></text>
	<rect x="736.4" y="-4533" class="st10" width="737.7" height="125.7"/>
	<text transform="matrix(1 0 0 1 736.4097 -4507.4351)" style="font-family:'UTM-Avo'; font-size:36px;">TYPOGRAPHY NACIS</text>
	<rect x="736.4" y="-4398.2" class="st10" width="737.7" height="46.3"/>
	<text transform="matrix(1 0 0 1 736.4097 -4372.6084)" style="font-family:'UTM-Avo'; font-size:36px;">ADVANCED MASK TECH</text>
	<rect x="736.4" y="-4268.8" class="st10" width="737.7" height="125.7"/>
	<text transform="matrix(1 0 0 1 736.4097 -4243.2031)" style="font-family:'UTM-Avo'; font-size:36px;">CV &amp; CL DESIGN</text>
	<rect x="736.4" y="-4158.6" class="st10" width="737.7" height="125.7"/>
	<text transform="matrix(1 0 0 1 736.4097 -4138.7461)"><tspan x="0" y="0" style="font-family:'UTM-Avo'; font-size:28.0023px;">Bạn vui lòng liên hệ để có </tspan><tspan x="0" y="33.6" style="font-family:'UTM-Avo'; font-size:28.0023px;">chương trình học chi tiết và cụ thể</tspan></text>
	<g>
		<rect x="617.5" y="-4562.6" class="st16" width="73.7" height="72.7"/>
		<rect x="626.9" y="-4550.9" class="st10" width="68.4" height="67.3"/>
		<text transform="matrix(1 0 0 1 626.9058 -4510.5308)" class="st0" style="font-family:'Anton'; font-size:56.908px;">U7</text>
	</g>
	<g>
		<rect x="616.2" y="-4694.9" class="st16" width="73.7" height="72.7"/>
		<rect x="628.3" y="-4683.2" class="st10" width="68.4" height="67.3"/>
		<text transform="matrix(1 0 0 1 628.2632 -4642.751)" class="st0" style="font-family:'Anton'; font-size:56.908px;">U6</text>
	</g>
	<g>
		<rect x="617.5" y="-4430.4" class="st16" width="73.7" height="72.7"/>
		<rect x="626.9" y="-4418.7" class="st10" width="68.4" height="67.3"/>
		<text transform="matrix(1 0 0 1 626.9058 -4378.3096)" class="st0" style="font-family:'Anton'; font-size:56.908px;">U8</text>
	</g>
	<g>
		<rect x="617.1" y="-4298.2" class="st16" width="73.7" height="72.7"/>
		<rect x="627.4" y="-4286.5" class="st10" width="68.4" height="67.3"/>
		<text transform="matrix(1 0 0 1 627.3589 -4246.0889)" class="st0" style="font-family:'Anton'; font-size:56.908px;">U9</text>
	</g>
	<g>
		<rect x="617.5" y="-4166.4" class="st16" width="73.7" height="72.7"/>
		<rect x="626.9" y="-4153.8" class="st10" width="68.4" height="67.3"/>
		<text transform="matrix(1 0 0 1 626.9058 -4113.415)" class="st0" style="font-family:'Anton'; font-size:56.908px;">A</text>
	</g>
	<rect x="-323.2" y="1137.9" class="st10" width="733.3" height="287.9"/>
	<text transform="matrix(1 0 0 1 -323.2206 1152.2227)"><tspan x="0" y="0" class="st14 st11" style="font-size:20px;">Lưu ý: vì số lượng mỗi lớp hạn chế nên các bạn nhanh tay </tspan><tspan x="0" y="29" class="st14 st11" style="font-size:20px;">đăng kí sớm và đóng học phí để mình giữ chỗ và xếp lớp.</tspan><tspan x="0" y="87" class="st14 st11" style="font-size:20px;">Đăng kí trong 72h- Giảm 5% học phí</tspan><tspan x="0" y="116" class="st14 st11" style="font-size:20px;">Học phí: các bạn vui lòng inbox và sẽ cung cấp số TK </tspan><tspan x="0" y="174" class="st14 st11" style="font-size:20px;">p/s: Về bài học số 5 và bài số 6 trong chương trình học, </tspan><tspan x="0" y="203" class="st14 st11" style="font-size:20px;">các bạn sẽ biết cách làm đẹp hình ảnh của chính </tspan><tspan x="0" y="232" class="st14 st11" style="font-size:20px;">các bạn khi post lên Facebook</tspan></text>
	<g>
		<path class="st6" d="M-130.6,662.2c-13.9,0-25.1,10.7-25.1,23.9c0,3.8,0.9,7.5,2.7,10.9l0,0c7,11.8,15,23.8,22.5,35.6
			c7-12.1,15.6-23.4,22.3-35.6c1.8-3.4,2.7-7.1,2.7-10.9C-105.5,672.9-116.7,662.2-130.6,662.2L-130.6,662.2L-130.6,662.2z
			 M-130.6,672.3c7.3,0,13.3,5.9,13.3,13.3v0c0,7.3-5.9,13.3-13.3,13.3c0,0,0,0,0,0c-7.3,0-13.3-5.9-13.3-13.3
			C-143.9,678.2-137.9,672.3-130.6,672.3L-130.6,672.3z"/>
	</g>
	<g>
		<path class="st6" d="M252.5,657.9c-13.9,0-25.1,10.7-25.1,23.9c0,3.8,0.9,7.5,2.7,10.9l0,0c7,11.8,15,23.8,22.5,35.6
			c7-12.1,15.6-23.4,22.3-35.6c1.8-3.4,2.7-7.1,2.7-10.9C277.7,668.6,266.4,657.9,252.5,657.9L252.5,657.9L252.5,657.9z
			 M252.5,667.9c7.3,0,13.3,5.9,13.3,13.3v0c0,7.3-5.9,13.3-13.3,13.3c0,0,0,0,0,0c-7.3,0-13.3-5.9-13.3-13.3
			C239.3,673.8,245.2,667.9,252.5,667.9L252.5,667.9z"/>
	</g>
	<rect x="-327.6" y="758.3" class="st10" width="394" height="77.6"/>
	<text transform="matrix(1 0 0 1 -304.7285 771.8661)"><tspan x="0" y="0" class="st14 st11" style="font-size:19px;">345/86 Trần Hưng Đạo P. Cầu Kho Q.1 </tspan><tspan x="24.1" y="29" class="st14 st11" style="font-size:19px;">(KHỐI NGÀNH 3D &amp; Talent Team)</tspan></text>
	<rect x="-294.1" y="937.6" class="st10" width="327" height="77.6"/>
	<text transform="matrix(1 0 0 1 -202.8842 956.1901)" class="st14 st11" style="font-size:26px;">0932709998</text>
	<rect x="89" y="937.6" class="st10" width="327" height="77.6"/>
	<text transform="matrix(1 0 0 1 173.0259 956.1901)" class="st14 st11" style="font-size:26px;">0378 277 414 </text>
	<rect x="89" y="753.9" class="st10" width="327" height="77.6"/>
	<text transform="matrix(1 0 0 1 136.9341 768.2206)" class="st14 st11" style="font-size:20px;">20 PHAN VĂN TRỊ P2 Q5</text>
	<g transform="translate(0,-952.36218)">
		<path class="st6" d="M-109,1801.8c3.8,4,6.7,7.8,7.3,11.4c-0.1,8.3-7.9,18.6-17.3,27.9c-9.3,9.3-20.2,18.5-28,17.3
			c-3.7-0.6-7.5-3.5-11.5-7.4c-1.3-1.2-1.3-3.9,0-5.2l8-8c1.4-1.4,4.1-1.4,5.8-0.4l5.4,3.9c2.9,2.4,8.9-3.6,12.9-7.6
			c4-4,10.1-9.4,7.5-13l-3.9-5.4c-0.9-1.7-0.9-4.4,0.4-5.7l8-8C-113,1800.5-110.3,1800.5-109,1801.8L-109,1801.8z"/>
	</g>
	<g transform="translate(0,-952.36218)">
		<path class="st6" d="M274.1,1801.8c3.8,4,6.7,7.8,7.3,11.4c-0.1,8.3-7.9,18.6-17.3,27.9c-9.3,9.3-20.2,18.5-28,17.3
			c-3.7-0.6-7.5-3.5-11.5-7.4c-1.3-1.2-1.3-3.9,0-5.2l8-8c1.4-1.4,4.1-1.4,5.8-0.4l5.4,3.9c2.9,2.4,8.9-3.6,12.9-7.6
			c4-4,10.1-9.4,7.5-13l-3.9-5.4c-0.9-1.7-0.9-4.4,0.4-5.7l8-8C270.2,1800.5,272.8,1800.5,274.1,1801.8L274.1,1801.8z"/>
	</g>
	<rect x="87.8" y="-7908.6" width="63" height="63"/>
</g>
<g id="Layer_7">
	<rect x="-312.3" y="-7979.3" class="st10" width="864.3" height="96.7"/>
	<text transform="matrix(1 0 0 1 -312.3305 -7929.5879)" class="st16" style="font-family:'Anton'; font-size:70px;">KODA PHOTOSHOP COURSE</text>
</g>
</svg>
