<?xml version="1.0" encoding="utf-8"?>
<!-- Generator: Adobe Illustrator 24.3.0, SVG Export Plug-In . SVG Version: 6.00 Build 0)  -->
<svg version="1.1" xmlns="http://www.w3.org/2000/svg" xmlns:xlink="http://www.w3.org/1999/xlink" x="0px" y="0px" width="74.3px"
	 height="98px" viewBox="0 0 74.3 98" style="enable-background:new 0 0 74.3 98;" xml:space="preserve">
<style type="text/css">
	.st0{fill:#FFFFFF;}
	.st1{fill:#004068;}
	.st2{fill:#F7CF38;}
	.st3{fill:#FF9D31;}
	.st4{fill:#DE9700;}
	.st5{fill:#02B9CD;}
	.st6{fill:#F88008;}
	.st7{fill:#FFDE83;}
	.st8{fill:#FFBE3B;}
	.st9{fill:#FF9E31;}
	.st10{fill:none;}
	.st11{font-family:'HelveticaNeue-Bold';}
	.st12{font-size:29px;}
	.st13{font-family:'HelveticaNeue';}
	.st14{fill:#333333;}
	.st15{fill:#4D4D4D;}
	.st16{fill:#FF6400;}
</style>
<g id="Layer_2">
</g>
<g id="Layer_1">
	<rect x="-1397" y="-10390.7" class="st0" width="1920" height="1080"/>
	<rect x="-1397" y="-9309.7" class="st0" width="1920" height="1080"/>
	<rect x="-1397" y="-7150.7" class="st0" width="1920" height="1080"/>
	<rect x="-1397" y="-6070.7" class="st0" width="1920" height="1080"/>
	<rect x="-1397" y="-4990.7" class="st0" width="1920" height="1080"/>
	<rect x="-1397" y="-3910.7" class="st0" width="1920" height="1080"/>
	<rect x="-1397" y="-2830.7" class="st0" width="1920" height="1080"/>
	<rect x="-1397" y="-1750.7" class="st0" width="1920" height="1080"/>
	<rect x="-1397" y="-670.7" class="st0" width="1920" height="1080"/>
	<rect x="-1397" y="409.3" class="st0" width="1920" height="1080"/>
	<rect x="-1397" y="1489.3" class="st0" width="1920" height="1080"/>
</g>
<g id="Layer_3">
	<rect x="-611.2" y="-8707.1" class="st10" width="1076.2" height="75"/>
	<text transform="matrix(1 0 0 1 -611.1763 -8665.1973)" class="st1 st11" style="font-size:58.7032px;">Upgrade Program 2024</text>
	<text transform="matrix(1 0 0 1 -611.1763 -8886.7412)"><tspan x="0" y="0" style="fill:#044784; font-family:'Anton'; font-size:97.8386px;">KHAI GIẢNG KHÓA </tspan><tspan x="0" y="135.9" style="fill:#044784; font-family:'Anton'; font-size:97.8386px;">LỚP KODA PHOTOSHOP H298 </tspan></text>
	<rect x="-260" y="-8725.7" class="st1" width="26" height="19"/>
</g>
<g id="Layer_6">
</g>
<g id="Layer_4">
	<g>
		<defs>
			<rect id="SVGID_1_" x="-1397" y="-10390.7" width="1920" height="1080"/>
		</defs>
		<clipPath id="SVGID_2_">
			<use xlink:href="#SVGID_1_"  style="overflow:visible;"/>
		</clipPath>
	</g>
</g>
<g id="Layer_5">
	<rect x="-1397" y="-4901.7" class="st2" width="1076" height="116"/>
	<rect x="-1397" y="-1749.7" class="st3" width="816.6" height="1080"/>
	<rect x="-1290.8" y="-1671.1" class="st0" width="649.5" height="950.8"/>
	<rect x="-618" y="-8612.7" class="st4" width="1014" height="43"/>
	<rect x="-621" y="-8554.7" class="st4" width="331" height="44"/>
	<text transform="matrix(1 0 0 1 -608.1758 -8580.2871)"><tspan x="0" y="0" class="st0" style="font-family:'MyriadPro-Bold'; font-size:33.7px;">CHƯƠNG TRÌNH HỌC CẬP NHẬT LIÊN TỤC ĐỔI MỚI KHÔNG NGỪNG </tspan><tspan x="0" y="57.6" class="st0" style="font-family:'MyriadPro-Bold'; font-size:33.7px;">THEO QUÝ MỖI NĂM</tspan></text>
	<g>
		<text transform="matrix(1 0 0 1 -1183.4604 -4814.2402)" class="st14" style="font-family:'Anton'; font-size:64.8602px;">NỘI DUNG CHƯƠNG TRÌNH KHÓA HỌC</text>
	</g>
	<rect x="-505.7" y="-1445" class="st10" width="959.1" height="157.3"/>
	<text transform="matrix(1 0 0 1 -505.6665 -1422.835)"><tspan x="0" y="0" class="st14" style="font-family:'HelveticaNeue-Medium'; font-size:31px;">Lớp Sáng:</tspan><tspan x="148.7" y="0" class="st14 st12" style="font-family:'HelveticaNeue-Medium';"> Thứ 2-4: 8h30-10h30 sáng</tspan><tspan x="0" y="37.2" class="st14" style="font-family:'HelveticaNeue-Medium'; font-size:31px;">Lớp Tối:</tspan><tspan x="119.4" y="37.2" class="st14 st12" style="font-family:'HelveticaNeue-Medium';"> Thứ 2-4: 7-9h tối</tspan><tspan x="0" y="74.4" class="st14" style="font-family:'HelveticaNeue-Medium'; font-size:31px;">Lớp Tối:</tspan><tspan x="119.4" y="74.4" class="st14 st12" style="font-family:'HelveticaNeue-Medium';"> Thứ 6: 7-9h tối: Full Slot</tspan></text>
	<rect x="-437" y="-6679.7" class="st10" width="790.6" height="191.3"/>
	<text transform="matrix(1 0 0 1 -240.7896 -6652.5684)"><tspan x="0" y="0" style="font-family:'HelveticaNeue-Medium'; font-size:38px;">Nhằm đảm bảo chất lượng đầu ra </tspan><tspan x="109.5" y="64" style="font-family:'HelveticaNeue-Medium'; font-size:38px;">Chúng tôi xin phép giới hạn </tspan><tspan x="292.1" y="128" style="font-family:'HelveticaNeue-Medium'; font-size:38px;">số lượng mỗi lớp</tspan></text>
	<rect x="-709.2" y="-6952.7" class="st10" width="1062.9" height="246.6"/>
	<text transform="matrix(1 0 0 1 -613.5904 -6883.8184)"><tspan x="0" y="0" style="fill:#F78508; font-family:'Anton'; font-size:97px;">Chất lượng người học là </tspan><tspan x="277.9" y="116.4" style="fill:#F78508; font-family:'Anton'; font-size:97px;">ưu tiên hàng đầu</tspan></text>
	<g>
		<rect x="-1273.1" y="-1632" class="st10" width="666.1" height="157.4"/>
		<text transform="matrix(1 0 0 1 -1273.1338 -1556.1836)"><tspan x="0" y="0" style="fill:#00B2DD; font-family:'Anton'; font-size:91px;">Thời</tspan><tspan x="167.3" y="0" style="fill:#00B2DD; font-family:'AppleBraille-Outline6Dot'; font-size:91px;"> </tspan><tspan x="198.4" y="0" style="fill:#00B2DD; font-family:'Anton'; font-size:91px;">gian</tspan><tspan x="365" y="0" style="fill:#00B2DD; font-family:'AppleBraille-Outline6Dot'; font-size:91px;"> </tspan><tspan x="396.1" y="0" style="fill:#00B2DD; font-family:'Anton'; font-size:91px;">học</tspan><tspan x="537.3" y="0" style="fill:#00B2DD; font-family:'AppleBraille-Outline6Dot'; font-size:91px;"> </tspan><tspan x="568.4" y="0" style="fill:#00B2DD; font-family:'Anton'; font-size:91px;">:</tspan></text>
	</g>
	<rect x="-1241.7" y="516.7" class="st10" width="366.6" height="135.4"/>
	<text transform="matrix(1 0 0 1 -1241.6572 586.9951)" style="fill:#ED7837; font-family:'Anton'; font-size:99px;">ĐỊA </text>
	<rect x="-1248.6" y="1076.4" class="st10" width="707.5" height="51.4"/>
	<text transform="matrix(1 0 0 1 -1248.585 1090.7061)" class="st14 st11" style="font-size:20px;">2 chi nhánh cách nhau 30s đi xe máy</text>
	<path class="st5" d="M-990-7404.4c0,4.2-3.4,7.7-7.7,7.7h-229.6c-4.2,0-7.7-3.4-7.7-7.7v-65.6c0-4.2,3.4-7.7,7.7-7.7h229.6
		c4.2,0,7.7,3.4,7.7,7.7V-7404.4z"/>
	<rect x="-1288.5" y="-7457.2" class="st10" width="348.1" height="74"/>
	<text transform="matrix(1 0 0 1 -1207.3975 -7418.6543)" class="st0 st11" style="font-size:54px;">Liên hệ</text>
	<path class="st6" d="M351-6384.4c0,4.2-3.4,7.7-7.7,7.7H113.7c-4.2,0-7.7-3.4-7.7-7.7v-65.6c0-4.2,3.4-7.7,7.7-7.7h229.6
		c4.2,0,7.7,3.4,7.7,7.7V-6384.4z"/>
	<rect x="52.5" y="-6437.2" class="st10" width="348.1" height="74"/>
	<text transform="matrix(1 0 0 1 133.6025 -6398.6543)" class="st0 st11" style="font-size:54px;">Liên hệ</text>
	<path d="M-275-817.4c0,4.2-3.4,7.7-7.7,7.7h-229.6c-4.2,0-7.7-3.4-7.7-7.7V-883c0-4.2,3.4-7.7,7.7-7.7h229.6c4.2,0,7.7,3.4,7.7,7.7
		V-817.4z"/>
	<rect x="-573.5" y="-870.2" class="st10" width="348.1" height="74"/>
	<text transform="matrix(1 0 0 1 -492.398 -831.6543)" class="st0 st11" style="font-size:54px;">Liên hệ</text>
	<rect x="384" y="-1467.6" class="st3" width="139" height="481.8"/>
	<rect x="-1393" y="-3598.7" class="st7" width="1916" height="424"/>
	<rect x="-116.1" y="415.3" class="st8" width="639.1" height="1080"/>
	<rect x="-1397" y="-145.2" class="st8" width="103.1" height="356"/>
	<rect x="-1235" y="-7892.3" class="st10" width="522.3" height="245.3"/>
	<text transform="matrix(1 0 0 1 -1234.96 -7832.77)"><tspan x="0" y="0" class="st14 st11" style="font-size:26px;">Đây là bộ môn mang lại tư duy về thẩm </tspan><tspan x="0" y="41" class="st14 st11" style="font-size:26px;">mĩ trong thiết kế được nâng cấp dựa trên </tspan><tspan x="0" y="82" class="st14 st11" style="font-size:26px;">xu hướng 2024 và được thiết lập trong </tspan><tspan x="0" y="123" class="st14 st11" style="font-size:26px;">giáo án chương trình học cho các sinh </tspan><tspan x="0" y="164" class="st14 st11" style="font-size:26px;">viên tại Nhật Bản</tspan></text>
	<polygon class="st10" points="-380.9,-7488.3 -1233,-7488.3 -1235,-7524.3 -382.9,-7524.3 	"/>
	<text transform="matrix(1 0 0 1 -1233.5405 -7498.7314)" class="st15" style="font-family:'MyriadPro-Bold'; font-size:36px;">Không gian lớp học</text>
	
		<image style="overflow:visible;" width="720" height="720" xlink:href="../../../../Downloads/LAYOUT 6/IMAG/PIC (5).jpg"  transform="matrix(0.9036 0 0 0.9036 -1380.4867 -6978)">
	</image>
	
		<image style="overflow:visible;" width="991" height="1341" xlink:href="../../../../Downloads/LAYOUT 6/IMAG/PIC (3).jpg"  transform="matrix(0.3919 0 0 0.3919 -736.6312 -6738.4634)">
	</image>
	
		<image style="overflow:visible;" width="1080" height="1528" xlink:href="../../../../Downloads/LAYOUT 6/IMAG/PIC (1).jpg"  transform="matrix(0.2587 0 0 0.2587 -1016.4992 -6525.2119)">
	</image>
	<g>
		<rect x="-510" y="-1560.7" class="st10" width="608" height="138"/>
		<text transform="matrix(1 0 0 1 -509.96 -1523.0576)" class="st3" style="font-family:'Anton'; font-size:53px;">LỚP TRỰC TIẾP</text>
	</g>
	<g>
		<rect x="-1265.9" y="-2661.9" class="st10" width="865.1" height="75.2"/>
		<text transform="matrix(1 0 0 1 -1265.876 -2612.2041)" class="st16" style="font-family:'Anton'; font-size:70px;">3 LÝ DO CHÍNH BẠN NÊN </text>
	</g>
	<g>
		<rect x="-1265.9" y="-2570.9" class="st10" width="865.1" height="75.2"/>
		<text transform="matrix(1 0 0 1 -1265.876 -2536.7979)" class="st16" style="font-family:'Anton'; font-size:48px;">KODA PHOTOSHOP tại HANNA&apos;S FAMILY</text>
	</g>
	<rect x="-1120.9" y="-2377.3" class="st10" width="816.6" height="139.1"/>
	<text transform="matrix(1 0 0 1 -1120.8984 -2347.4331)" class="st15" style="font-family:'UTM-Avo'; font-size:42px;">Chất lượng giảng dạy</text>
	<rect x="-1021.5" y="-4674.1" class="st10" width="737.7" height="125.7"/>
	<text transform="matrix(1 0 0 1 -1021.4996 -4648.5127)" style="font-family:'UTM-Avo'; font-size:36px;">INTRODUCTION</text>
	<rect x="-1021.5" y="-4541.9" class="st10" width="737.7" height="125.7"/>
	<text transform="matrix(1 0 0 1 -1021.4996 -4516.2925)" style="font-family:'UTM-Avo'; font-size:36px;">THE KOKLORS &amp; CONCESK</text>
	<rect x="-1021.5" y="-4409.6" class="st10" width="737.7" height="46.3"/>
	<text transform="matrix(1 0 0 1 -1021.4996 -4384.0713)" style="font-family:'UTM-Avo'; font-size:36px;">DESIGN </text>
	<rect x="-1021.5" y="-4278.5" class="st10" width="737.7" height="125.7"/>
	<text transform="matrix(1 0 0 1 -1021.4996 -4252.9648)" style="font-family:'UTM-Avo'; font-size:36px;">EFFECTS, FINAL DETAILS, AND EXTRAS</text>
	<rect x="-1021.5" y="-4144.1" class="st10" width="737.7" height="125.7"/>
	<text transform="matrix(1 0 0 1 -1021.4996 -4118.5557)" style="font-family:'UTM-Avo'; font-size:36px;">LAYOUKA, RATIONNE TYPES</text>
	<rect x="-1120.9" y="-2227.3" class="st10" width="816.6" height="139.1"/>
	<text transform="matrix(1 0 0 1 -1120.8984 -2197.4878)" class="st15" style="font-family:'UTM-Avo'; font-size:42px;">Giảng viên giàu kinh nghiệm</text>
	<rect x="-1120.9" y="-2077.6" class="st10" width="816.6" height="139.1"/>
	<text transform="matrix(1 0 0 1 -1120.8984 -2047.8042)" class="st15" style="font-family:'UTM-Avo'; font-size:42px;">Không gian lớp học đa concept</text>
	<g>
		<rect x="-510" y="-1193.7" class="st10" width="330" height="80"/>
		<text transform="matrix(1 0 0 1 -509.96 -1156.0576)" class="st3" style="font-family:'Anton'; font-size:53px;">LỚP ONLINE</text>
	</g>
	<rect x="-505.7" y="-1176.7" class="st10" width="579.7" height="227"/>
	<text transform="matrix(1 0 0 1 -505.6665 -1092.6228)"><tspan x="0" y="0" class="st14" style="font-family:'HelveticaNeue-Medium'; font-size:27px;">Lớp học online từ xa dành cho các bạn trong </tspan><tspan x="0" y="32.4" class="st14" style="font-family:'HelveticaNeue-Medium'; font-size:27px;">&amp; ngoài nước</tspan><tspan x="0" y="97.2" class="st14" style="font-family:'HelveticaNeue-Medium'; font-size:27px;">Đặc biệt là các bạn đang du học hoặc đang </tspan><tspan x="0" y="129.6" class="st14" style="font-family:'HelveticaNeue-Medium'; font-size:27px;">làm việc ở nước ngoài</tspan></text>
	
		<ellipse transform="matrix(0.9998 -1.787072e-02 1.787072e-02 0.9998 41.9543 -21.998)" class="st9" cx="-1209.9" cy="-2358.5" rx="58.8" ry="58.8"/>
	
		<ellipse transform="matrix(0.9998 -1.787072e-02 1.787072e-02 0.9998 39.3718 -21.9749)" class="st9" cx="-1209.9" cy="-2214" rx="58.8" ry="58.8"/>
	
		<ellipse transform="matrix(1.667897e-02 -0.9999 0.9999 1.667897e-02 873.463 -3238.7375)" class="st9" cx="-1209.9" cy="-2063.4" rx="58.8" ry="58.8"/>
	<rect x="-1265.9" y="-2390.7" class="st10" width="112" height="158"/>
	<text transform="matrix(1 0 0 1 -1226.0352 -2345.958)" class="st0" style="font-family:'Anton'; font-size:63px;">1</text>
	<rect x="-1265.9" y="-2241.1" class="st10" width="112" height="86"/>
	<text transform="matrix(1 0 0 1 -1226.0352 -2196.4082)" class="st0" style="font-family:'Anton'; font-size:63px;">2</text>
	<rect x="-1265.9" y="-2090.6" class="st10" width="112" height="86"/>
	<text transform="matrix(1 0 0 1 -1226.0352 -2045.8965)" class="st0" style="font-family:'Anton'; font-size:63px;">3</text>
	<g>
		<rect x="-1274" y="-537.7" class="st10" width="1624" height="170.1"/>
		<text transform="matrix(1 0 0 1 -919.1651 -499.3516)"><tspan x="0" y="0" style="fill:#E26F10; font-family:'Anton'; font-size:54px;">KODA PHOTOSHOP là môn học giúp bạn </tspan><tspan x="18.9" y="81" style="fill:#E26F10; font-family:'Anton'; font-size:54px;">ứng dụng nhiều vào cuộc sống hiện tại</tspan></text>
	</g>
	<g>
		<g>
			<rect x="-1127.4" y="-185" class="st10" width="498" height="234"/>
			<text transform="matrix(1 0 0 1 -1033.9893 -164.3408)"><tspan x="0" y="0" class="st6 st11 st12">Thông thạo phần mềm </tspan><tspan x="38.1" y="50" class="st13 st12">Photoshop từ A-Z</tspan></text>
			<rect x="-1073" y="128" class="st10" width="389.3" height="234"/>
			<text transform="matrix(1 0 0 1 -1064.5688 148.6855)"><tspan x="0" y="0" class="st6 st11 st12">Thiết kế ấn phẩm, hình ảnh</tspan><tspan x="372.5" y="0" class="st13 st12"> </tspan><tspan x="6.2" y="50" class="st13 st12">sống động trong quảng cáo </tspan><tspan x="97.4" y="100" class="st13 st12">&amp; các sự kiện</tspan></text>
		</g>
		<g>
			<rect x="-565.6" y="-185" class="st10" width="293" height="234"/>
			<text transform="matrix(1 0 0 1 -554.3292 -164.3408)"><tspan x="0" y="0" class="st6 st11 st12">Chỉnh sửa hình ảnh </tspan><tspan x="-4.5" y="50" class="st13 st12">sống động, theo style </tspan><tspan x="67.3" y="100" class="st13 st12">riêng mình</tspan></text>
			<rect x="-591.8" y="128" class="st10" width="345.4" height="234"/>
			<text transform="matrix(1 0 0 1 -558.0855 148.6855)"><tspan x="0" y="0" class="st6 st11 st12">Tự tay tạo nên kênh </tspan><tspan x="-1.8" y="50" class="st13 st12">truyền thông cho việc </tspan><tspan x="6.4" y="100" class="st13 st12">khởi nghiệp cá nhân</tspan></text>
		</g>
		<g>
			<rect x="-129.1" y="-185" class="st10" width="332.5" height="234"/>
			<text transform="matrix(1 0 0 1 -87.4722 -164.3408)"><tspan x="0" y="0" class="st6 st11 st12">Tự tay thiết kế CV</tspan><tspan x="249.3" y="0" class="st13 st12"> </tspan><tspan x="-24.6" y="50" class="st13 st12">ấn tượng ghi điểm cho </tspan><tspan x="23.6" y="100" class="st13 st12">nhà tuyển dụng</tspan></text>
			<rect x="-125.1" y="128" class="st10" width="324.5" height="234"/>
			<text transform="matrix(1 0 0 1 -82.7305 148.6855)"><tspan x="0" y="0" class="st6 st11 st12">Thiết kế proposal </tspan><tspan x="-24.9" y="50" class="st13 st12">chuyên nghiệp thu hút </tspan><tspan x="76.4" y="100" class="st13 st12">đầu tư</tspan></text>
		</g>
	</g>
	<rect x="278" y="-436.7" class="st8" width="245" height="37.8"/>
	<g>
		<g>
			<path class="st14" d="M-836.1-326.3l0.1-0.2c0.8-1.4,0.9-2.9,0.5-4.3c-0.4-1.4-1.3-2.7-2.6-3.5l-0.2-0.1
				c-1.3-0.7-2.9-0.9-4.3-0.5c-1.4,0.4-2.7,1.3-3.5,2.6l-0.8,1.3l10,5.8L-836.1-326.3L-836.1-326.3z M-888.9-252.2
				c0.6-0.5,1.5-0.5,2,0.1c0.5,0.6,0.5,1.5-0.1,2c-9.8,9.1-14.6,4.9-19.5,0.6c-3.8-3.3-7.8-6.7-15.4-0.5c-0.6,0.5-1.5,0.4-2-0.2
				c-0.5-0.6-0.4-1.5,0.2-2c9.5-7.7,14.3-3.5,19,0.6C-900.7-248.2-896.8-244.9-888.9-252.2L-888.9-252.2z M-874.9-273.6l30.5-52.8
				l-3.8-2.2l-30.6,52.9c0.8,0,1.6,0.2,2.3,0.7c0.5,0.3,0.9,0.6,1.2,0.9C-875.1-273.9-875-273.7-874.9-273.6L-874.9-273.6z
				 M-841.9-325l-30.5,52.8c0.2,0,0.3,0,0.5,0.1c0.5,0.1,1,0.3,1.4,0.6c0.7,0.4,1.3,1,1.7,1.7l30.6-52.9L-841.9-325L-841.9-325z
				 M-871-266.5c0.2-0.5,0.2-1,0-1.5c-0.2-0.5-0.5-0.8-0.9-1.1c-0.2-0.1-0.4-0.2-0.6-0.2c-0.2,0-0.4,0-0.6,0
				c-0.8,0.1-1.6-0.1-2.3-0.5c-0.7-0.4-1.2-1-1.6-1.7c-0.1-0.2-0.2-0.4-0.3-0.5c-0.2-0.2-0.3-0.3-0.5-0.4c-0.4-0.3-0.9-0.3-1.4-0.2
				c-0.5,0.1-0.9,0.3-1.2,0.7l-0.6,12.2L-871-266.5L-871-266.5z M-865.9-303.6h-60c-1.3,0-2.5,0.5-3.3,1.4c-0.9,0.8-1.4,2-1.4,3.3
				v58.8c0,1.3,0.5,2.5,1.4,3.3c0.9,0.8,2,1.4,3.3,1.4h95.1c1.3,0,2.4-0.5,3.3-1.3c0.9-0.9,1.4-2.1,1.4-3.4v-58.8
				c0-1.3-0.5-2.5-1.4-3.3c-0.8-0.9-2-1.4-3.3-1.4H-846l-22.1,38.4c-0.1,0.2-0.3,0.3-0.4,0.5l-13.2,8.7c-0.3,0.2-0.6,0.3-0.9,0.3
				c-0.8,0-1.4-0.7-1.3-1.5l0.8-15.9c0-0.2,0.1-0.5,0.2-0.7L-865.9-303.6L-865.9-303.6z M-867-219.5c-0.9-1.7-1.6-3.5-2.2-5.5
				c-0.7-2.4-1.2-4.9-1.4-7.6H-886c-0.2,2.7-0.7,5.2-1.4,7.6c-0.6,1.9-1.3,3.8-2.2,5.5H-867z M-854.6-216.7H-902v5.6h47.4V-216.7z"
				/>
		</g>
	</g>
	<g transform="translate(0,-952.36218)">
		<path class="st15" d="M-470.7,645.4v49.8l14.2-13.6c1-1,2.7-0.9,3.6,0.1c0,0,0,0,0.1,0.1l5.8,6.6l14.7-14.2c1-0.9,2.5-0.9,3.5,0
			l24,22.9l14.1-15.1c1-1,2.6-1.1,3.6-0.1l19.4,18.1v-54.6H-470.7L-470.7,645.4z M-403.3,651.3c1.4,0,2.6,1.1,2.7,2.5
			c0,0,0,0.1,0,0.1v4.2c0,1.4-1.1,2.6-2.5,2.6c-1.4,0-2.6-1.1-2.6-2.5c0,0,0,0,0-0.1v-4.3C-405.8,652.5-404.7,651.3-403.3,651.3
			L-403.3,651.3z M-415.8,656.4c0.1,0,0.2,0,0.3,0c0.7,0,1.4,0.3,1.9,0.8l3,3c1,1,1.1,2.6,0.1,3.6c-1,1-2.6,1.1-3.6,0.1
			c0,0,0,0-0.1-0.1l-3-3c-1-1-1.1-2.6-0.1-3.6C-417,656.8-416.4,656.5-415.8,656.4z M-391.3,656.4c0.1,0,0.2,0,0.3,0
			c1.4-0.1,2.6,1.1,2.7,2.5c0,0.7-0.3,1.4-0.8,2l-3,3c-1,1-2.6,1.1-3.6,0.1c-1-1-1.1-2.6-0.1-3.6c0,0,0,0,0.1-0.1l3-3
			C-392.3,656.8-391.8,656.5-391.3,656.4z M-403.2,662.4c4.9,0,9,4,9,8.9c0,4.9-4.1,8.9-9,8.9c-5,0-9.1-4-9.1-8.9
			C-412.3,666.4-408.2,662.4-403.2,662.4z M-420.9,668.7c0.1,0,0.2,0,0.3,0h4.2c1.4,0,2.6,1.1,2.6,2.5c0,1.4-1.1,2.6-2.5,2.6
			c0,0,0,0-0.1,0h-4.3c-1.4,0.1-2.6-1-2.7-2.4C-423.4,670-422.3,668.8-420.9,668.7L-420.9,668.7z M-390.4,668.7c0.1,0,0.2,0,0.3,0
			h4.2c1.4,0,2.6,1.1,2.6,2.5c0,1.4-1.1,2.6-2.5,2.6c0,0,0,0-0.1,0h-4.3c-1.4,0.1-2.6-1-2.7-2.4C-392.9,670-391.8,668.8-390.4,668.7
			C-390.4,668.7-390.4,668.7-390.4,668.7L-390.4,668.7z"/>
		<path class="st15" d="M-430.5,679.6l24.1,23c1,1,2.7,0.9,3.6-0.1c0,0,0,0,0,0l14.1-15.2l21,19.6v6h-103.1v-10.7l15.8-15.1l5.8,6.6
			c0.9,1.1,2.6,1.2,3.6,0.2c0,0,0.1-0.1,0.1-0.1L-430.5,679.6L-430.5,679.6z"/>
	</g>
	<g>
		<path class="st15" d="M62.9-242.3v-47.5l0,0v-25.4c0-1.2-1-2.2-2.2-2.2h-78.5c-1.2,0-2.2,1-2.2,2.2v84.2c0,1.2,1,2.2,2.2,2.2h86.8
			C65.3-232.1,62.9-236.9,62.9-242.3z M4.5-310.3c4.8,0,8.7,3.9,8.7,8.7c0,4.8-3.9,8.7-8.7,8.7c-4.8,0-8.7-3.9-8.7-8.7
			C-4.2-306.4-0.3-310.3,4.5-310.3z M-12-272.9v-2.5c0-8.1,7.6-14.6,17-14.6c9.4,0,17,6.5,17,14.6v2.5c0,1.2-1,2.2-2.2,2.2H-9.8
			C-11-270.7-12-271.7-12-272.9z M48.6-240.1H-7.8c-1.2,0-2.2-1-2.2-2.2c0-1.2,1-2.2,2.2-2.2h56.4c1.2,0,2.2,1,2.2,2.2
			C50.8-241.1,49.8-240.1,48.6-240.1z M48.6-259.9H-7.8c-1.2,0-2.2-1-2.2-2.2c0-1.2,1-2.2,2.2-2.2h56.4c1.2,0,2.2,1,2.2,2.2
			C50.8-260.8,49.8-259.9,48.6-259.9z M48.6-279.6H25.2c-1.2,0-2.2-1-2.2-2.2c0-1.2,1-2.2,2.2-2.2h23.4c1.2,0,2.2,1,2.2,2.2
			C50.8-280.6,49.8-279.6,48.6-279.6z M48.6-299.4H25.2c-1.2,0-2.2-1-2.2-2.2c0-1.2,1-2.2,2.2-2.2h23.4c1.2,0,2.2,1,2.2,2.2
			C50.8-300.4,49.8-299.4,48.6-299.4z"/>
		<path class="st15" d="M92.1-292H69.5c-1.2,0-2.2,1-2.2,2.2v47.5c0,7.4,6,13.5,13.5,13.5c7.4,0,13.5-6,13.5-13.5v-47.5
			C94.3-291,93.3-292,92.1-292z"/>
	</g>
	<g>
		<rect x="-904.3" y="17.8" class="st15" width="52" height="19.1"/>
		<g>
			<polyline class="st15" points="-849.6,84.1 -849.6,66.8 -828.9,66.8 -828.9,12.9 -849.5,12.9 -849.5,-10.1 			"/>
			<polyline class="st15" points="-907.1,-10.1 -907.1,12.9 -927.7,12.9 -927.7,66.8 -907.1,66.8 -907.1,84.1 			"/>
			<polyline class="st15" points="-900.1,77.2 -900.1,56.6 -856.4,56.6 -856.4,77.2 			"/>
			<rect x="-863.5" y="26.6" class="st15" width="20.8" height="6.9"/>
		</g>
	</g>
	<path class="st15" d="M-386.4,28.6H-416l22-25.7h0.6c4.8,0.1,8.7-3.8,8.8-8.6c0.1-4.8-3.8-8.7-8.6-8.8c-4.8-0.1-8.7,3.8-8.8,8.6
		c0,1.6,0.4,3.2,1.2,4.6l-20.3,23.6l-15.8-20.2c1.9-4.3,0-9.3-4.3-11.2c-4.3-1.9-9.3,0-11.2,4.3c-1.9,4.3,0,9.3,4.3,11.2
		c1.1,0.5,2.2,0.7,3.4,0.7c0.5,0,1.1,0,1.6,0l16.9,21.5h-25.5c-4.4,0-7.9,3.5-7.9,7.9v43.9c0,4.4,3.5,7.9,7.9,7.9h65.3
		c4.4,0,7.9-3.5,7.9-7.9v-44C-378.5,32.1-382.1,28.6-386.4,28.6z M-410.9,61.2l-10.8,10.8c-1.5,1.5-4,1.6-5.6,0
		c-0.7-0.7-1.2-1.7-1.2-2.8V47.6c0.1-2.2,1.9-3.9,4.1-3.8c1,0,2,0.5,2.7,1.2l10.8,10.8C-409.5,57.4-409.5,59.7-410.9,61.2
		L-410.9,61.2z"/>
	<g>
		<path class="st15" d="M0,81.1V0h57.4v5.1H5.1v76H0z M8.4,89.5V8.4h57.4v5.1H13.5v76H8.4z M64.2,87.8v7.8l7.8-7.8H64.2z M16.9,16.9
			V98h43.9V84.4h13.5V16.9H16.9z M27,50.7h11.8V54H27V50.7z M35.5,84.4h-5.1V74.3h5.1V84.4z M47.3,84.4h-8.4V60.8h8.4V84.4z
			 M55.7,84.4h-5.1V67.6h5.1V84.4z M64.2,45.6H27v-3.4h37.2V45.6z M64.2,37.2H27v-3.4h37.2V37.2z M64.2,28.7H27v-3.4h37.2V28.7z"/>
	</g>
	<g>
		<rect x="-1143.1" y="-4574.6" class="st16" width="73.7" height="72.7"/>
		<rect x="-1133.7" y="-4562.9" class="st10" width="68.4" height="67.3"/>
		<text transform="matrix(1 0 0 1 -1133.7134 -4522.4688)" class="st0" style="font-family:'Anton'; font-size:56.908px;">U2</text>
	</g>
	<g>
		<rect x="-1144.5" y="-4706.8" class="st16" width="73.7" height="72.7"/>
		<rect x="-1132.4" y="-4695.1" class="st10" width="68.4" height="67.3"/>
		<text transform="matrix(1 0 0 1 -1132.3574 -4654.6895)" class="st0" style="font-family:'Anton'; font-size:56.908px;">U1</text>
	</g>
	<g>
		<rect x="-1143.1" y="-4442.4" class="st16" width="73.7" height="72.7"/>
		<rect x="-1133.7" y="-4430.7" class="st10" width="68.4" height="67.3"/>
		<text transform="matrix(1 0 0 1 -1133.7134 -4390.248)" class="st0" style="font-family:'Anton'; font-size:56.908px;">U3</text>
	</g>
	<g>
		<rect x="-1143.6" y="-4310.1" class="st16" width="73.7" height="72.7"/>
		<rect x="-1133.3" y="-4298.4" class="st10" width="68.4" height="67.3"/>
		<text transform="matrix(1 0 0 1 -1133.2607 -4258.0273)" class="st0" style="font-family:'Anton'; font-size:56.908px;">U4</text>
	</g>
	<g>
		<rect x="-1143.1" y="-4178.4" class="st16" width="73.7" height="72.7"/>
		<rect x="-1133.7" y="-4165.8" class="st10" width="68.4" height="67.3"/>
		<text transform="matrix(1 0 0 1 -1133.7134 -4125.3535)" class="st0" style="font-family:'Anton'; font-size:56.908px;">U5</text>
	</g>
	<rect x="-191.3" y="-4705.2" class="st10" width="434.6" height="125.7"/>
	<text transform="matrix(1 0 0 1 -191.3311 -4679.6118)"><tspan x="0" y="0" style="font-family:'UTM-Avo'; font-size:36px;">POST ADS, BANNER, </tspan><tspan x="0" y="43.2" style="font-family:'UTM-Avo'; font-size:36px;">SQUARE POSTS</tspan></text>
	<rect x="-191.3" y="-4543.1" class="st10" width="737.7" height="125.7"/>
	<text transform="matrix(1 0 0 1 -191.3311 -4517.5669)" style="font-family:'UTM-Avo'; font-size:36px;">TYPOGRAPHY NACIS</text>
	<rect x="-191.3" y="-4408.3" class="st10" width="737.7" height="46.3"/>
	<text transform="matrix(1 0 0 1 -191.3311 -4382.7402)" style="font-family:'UTM-Avo'; font-size:36px;">ADVANCED MASK TECH</text>
	<rect x="-191.3" y="-4278.9" class="st10" width="737.7" height="125.7"/>
	<text transform="matrix(1 0 0 1 -191.3311 -4253.335)" style="font-family:'UTM-Avo'; font-size:36px;">CV &amp; CL DESIGN</text>
	<rect x="-191.3" y="-4168.8" class="st10" width="737.7" height="125.7"/>
	<text transform="matrix(1 0 0 1 -191.3311 -4148.8779)"><tspan x="0" y="0" style="font-family:'UTM-Avo'; font-size:28.0023px;">Bạn vui lòng liên hệ để có </tspan><tspan x="0" y="33.6" style="font-family:'UTM-Avo'; font-size:28.0023px;">chương trình học chi tiết và cụ thể</tspan></text>
	<g>
		<rect x="-310.2" y="-4572.8" class="st16" width="73.7" height="72.7"/>
		<rect x="-300.8" y="-4561.1" class="st10" width="68.4" height="67.3"/>
		<text transform="matrix(1 0 0 1 -300.835 -4520.6626)" class="st0" style="font-family:'Anton'; font-size:56.908px;">U7</text>
	</g>
	<g>
		<rect x="-311.6" y="-4705" class="st16" width="73.7" height="72.7"/>
		<rect x="-299.5" y="-4693.3" class="st10" width="68.4" height="67.3"/>
		<text transform="matrix(1 0 0 1 -299.4776 -4652.8828)" class="st0" style="font-family:'Anton'; font-size:56.908px;">U6</text>
	</g>
	<g>
		<rect x="-310.2" y="-4440.6" class="st16" width="73.7" height="72.7"/>
		<rect x="-300.8" y="-4428.8" class="st10" width="68.4" height="67.3"/>
		<text transform="matrix(1 0 0 1 -300.835 -4388.4414)" class="st0" style="font-family:'Anton'; font-size:56.908px;">U8</text>
	</g>
	<g>
		<rect x="-310.7" y="-4308.3" class="st16" width="73.7" height="72.7"/>
		<rect x="-300.4" y="-4296.6" class="st10" width="68.4" height="67.3"/>
		<text transform="matrix(1 0 0 1 -300.3819 -4256.2207)" class="st0" style="font-family:'Anton'; font-size:56.908px;">U9</text>
	</g>
	<g>
		<rect x="-310.2" y="-4176.6" class="st16" width="73.7" height="72.7"/>
		<rect x="-300.8" y="-4164" class="st10" width="68.4" height="67.3"/>
		<text transform="matrix(1 0 0 1 -300.835 -4123.5469)" class="st0" style="font-family:'Anton'; font-size:56.908px;">A</text>
	</g>
	<rect x="-1251" y="1127.8" class="st10" width="733.3" height="287.9"/>
	<text transform="matrix(1 0 0 1 -1250.9614 1142.0908)"><tspan x="0" y="0" class="st14 st11" style="font-size:20px;">Lưu ý: vì số lượng mỗi lớp hạn chế nên các bạn nhanh tay </tspan><tspan x="0" y="29" class="st14 st11" style="font-size:20px;">đăng kí sớm và đóng học phí để mình giữ chỗ và xếp lớp.</tspan><tspan x="0" y="87" class="st14 st11" style="font-size:20px;">Đăng kí trong 72h- Giảm 5% học phí</tspan><tspan x="0" y="116" class="st14 st11" style="font-size:20px;">Học phí: các bạn vui lòng inbox và sẽ cung cấp số TK </tspan><tspan x="0" y="174" class="st14 st11" style="font-size:20px;">p/s: Về bài học số 5 và bài số 6 trong chương trình học, </tspan><tspan x="0" y="203" class="st14 st11" style="font-size:20px;">các bạn sẽ biết cách làm đẹp hình ảnh của chính </tspan><tspan x="0" y="232" class="st14 st11" style="font-size:20px;">các bạn khi post lên Facebook</tspan></text>
	<g>
		<path class="st6" d="M-1058.3,652.1c-13.9,0-25.1,10.7-25.1,23.9c0,3.8,0.9,7.5,2.7,10.9l0,0c7,11.8,15,23.8,22.5,35.6
			c7-12.1,15.6-23.4,22.3-35.6c1.8-3.4,2.7-7.1,2.7-10.9C-1033.2,662.8-1044.5,652.1-1058.3,652.1L-1058.3,652.1L-1058.3,652.1z
			 M-1058.3,662.1c7.3,0,13.3,5.9,13.3,13.3v0c0,7.3-5.9,13.3-13.3,13.3c0,0,0,0,0,0c-7.3,0-13.3-5.9-13.3-13.3
			C-1071.6,668.1-1065.7,662.1-1058.3,662.1L-1058.3,662.1z"/>
	</g>
	<g>
		<path class="st6" d="M-675.2,647.7c-13.9,0-25.1,10.7-25.1,23.9c0,3.8,0.9,7.5,2.7,10.9l0,0c7,11.8,15,23.8,22.5,35.6
			c7-12.1,15.6-23.4,22.3-35.6c1.8-3.4,2.7-7.1,2.7-10.9C-650.1,658.5-661.3,647.7-675.2,647.7L-675.2,647.7L-675.2,647.7z
			 M-675.2,657.8c7.3,0,13.3,5.9,13.3,13.3v0c0,7.3-5.9,13.3-13.3,13.3c0,0,0,0,0,0c-7.3,0-13.3-5.9-13.3-13.3
			C-688.5,663.7-682.5,657.8-675.2,657.8L-675.2,657.8z"/>
	</g>
	<rect x="-1255.3" y="748.2" class="st10" width="394" height="77.6"/>
	<text transform="matrix(1 0 0 1 -1232.4692 761.7344)"><tspan x="0" y="0" class="st14 st11" style="font-size:19px;">345/86 Trần Hưng Đạo P. Cầu Kho Q.1 </tspan><tspan x="24.1" y="29" class="st14 st11" style="font-size:19px;">(KHỐI NGÀNH 3D &amp; Talent Team)</tspan></text>
	<rect x="-1221.8" y="927.5" class="st10" width="327" height="77.6"/>
	<text transform="matrix(1 0 0 1 -1130.625 946.0583)" class="st14 st11" style="font-size:26px;">0932709998</text>
	<rect x="-838.7" y="927.5" class="st10" width="327" height="77.6"/>
	<text transform="matrix(1 0 0 1 -754.7149 946.0583)" class="st14 st11" style="font-size:26px;">0378 277 414 </text>
	<rect x="-838.7" y="743.8" class="st10" width="327" height="77.6"/>
	<text transform="matrix(1 0 0 1 -790.8067 758.0889)" class="st14 st11" style="font-size:20px;">20 PHAN VĂN TRỊ P2 Q5</text>
	<g transform="translate(0,-952.36218)">
		<path class="st6" d="M-1036.7,1791.7c3.8,4,6.7,7.8,7.3,11.4c-0.1,8.3-7.9,18.6-17.3,27.9c-9.3,9.3-20.2,18.5-28,17.3
			c-3.7-0.6-7.5-3.5-11.5-7.4c-1.3-1.2-1.3-3.9,0-5.2l8-8c1.4-1.4,4.1-1.4,5.8-0.4l5.4,3.9c2.9,2.4,8.9-3.6,12.9-7.6
			c4-4,10.1-9.4,7.5-13l-3.9-5.4c-0.9-1.7-0.9-4.4,0.4-5.7l8-8C-1040.7,1790.3-1038,1790.3-1036.7,1791.7L-1036.7,1791.7z"/>
	</g>
	<g transform="translate(0,-952.36218)">
		<path class="st6" d="M-653.6,1791.7c3.8,4,6.7,7.8,7.3,11.4c-0.1,8.3-7.9,18.6-17.3,27.9c-9.3,9.3-20.2,18.5-28,17.3
			c-3.7-0.6-7.5-3.5-11.5-7.4c-1.3-1.2-1.3-3.9,0-5.2l8-8c1.4-1.4,4.1-1.4,5.8-0.4l5.4,3.9c2.9,2.4,8.9-3.6,12.9-7.6
			c4-4,10.1-9.4,7.5-13l-3.9-5.4c-0.9-1.7-0.9-4.4,0.4-5.7l8-8C-657.6,1790.3-654.9,1790.3-653.6,1791.7L-653.6,1791.7z"/>
	</g>
	<rect x="-840" y="-7918.7" width="63" height="63"/>
</g>
<g id="Layer_7">
	<rect x="-1240.1" y="-7989.4" class="st10" width="864.3" height="96.7"/>
	<text transform="matrix(1 0 0 1 -1240.0713 -7939.7197)" class="st16" style="font-family:'Anton'; font-size:70px;">KODA PHOTOSHOP COURSE</text>
</g>
</svg>
