<?xml version="1.0" encoding="utf-8"?>
<!-- Generator: Adobe Illustrator 24.3.0, SVG Export Plug-In . SVG Version: 6.00 Build 0)  -->
<svg version="1.1" xmlns="http://www.w3.org/2000/svg" xmlns:xlink="http://www.w3.org/1999/xlink" x="0px" y="0px" width="72.9px"
	 height="145.8px" viewBox="0 0 72.9 145.8" style="enable-background:new 0 0 72.9 145.8;" xml:space="preserve">
<style type="text/css">
	.st0{fill:none;}
	.st1{fill:#EB7E29;}
	.st2{fill:#FF6400;}
	.st3{fill:#CD8024;}
	.st4{fill:#C18007;}
	.st5{fill:#FFA345;}
	.st6{fill:#FF8031;}
	.st7{fill:#E88038;}
	.st8{fill:#FF801E;}
	.st9{fill:#BB8008;}
	.st10{font-family:'HelveticaNeue-Bold';}
	.st11{font-size:29px;}
	.st12{font-family:'HelveticaNeue-Medium';}
	.st13{font-size:26px;}
</style>
<g id="Layer_2">
</g>
<g id="Layer_1">
	<rect x="-486.7" y="-8190.9" class="st0" width="1920" height="1080"/>
	<rect x="-486.7" y="-7109.9" class="st0" width="1920" height="1080"/>
	<rect x="-486.7" y="-9270.9" class="st0" width="1920" height="1080"/>
	<rect x="-486.7" y="-10350.9" class="st0" width="1920" height="1080"/>
	<rect x="-486.7" y="-4950.9" class="st0" width="1920" height="1080"/>
	<rect x="-486.7" y="-3870.9" class="st0" width="1920" height="1080"/>
	<rect x="-486.7" y="-2790.9" class="st0" width="1920" height="1080"/>
	<rect x="-486.7" y="-1710.9" class="st0" width="1920" height="1080"/>
	<rect x="-486.7" y="-630.9" class="st0" width="1920" height="1080"/>
	<rect x="-486.7" y="449.1" class="st0" width="1920" height="1080"/>
	<rect x="-486.7" y="1529.1" class="st0" width="1920" height="1080"/>
	<rect x="-486.7" y="2609.1" class="st0" width="1920" height="1080"/>
	<rect x="-486.7" y="3689.1" class="st0" width="1920" height="1080"/>
</g>
<g id="Layer_3">
	<rect x="312" y="-8689.3" class="st0" width="1076.2" height="75"/>
	<text transform="matrix(1 0 0 1 312.049 -8647.3926)" class="st10" style="fill:#004068; font-size:58.7032px;">Upgrade Program 2024</text>
	<text transform="matrix(1 0 0 1 312.049 -8868.9365)"><tspan x="0" y="0" style="fill:#BC4C25; font-family:'Anton'; font-size:97.8386px;">KHAI GIẢNG KHÓA </tspan><tspan x="0" y="135.9" style="fill:#BC4C25; font-family:'Anton'; font-size:97.8386px;">KODA WATERCOLOR CLASS </tspan></text>
</g>
<g id="Layer_6">
</g>
<g id="Layer_4">
</g>
<g id="Layer_5">
	<rect x="-486.7" y="-5937.9" class="st1" width="723.4" height="126.1"/>
	<rect x="-486.7" y="-3736.9" class="st2" width="1076" height="116"/>
	<rect x="308.3" y="-8596.9" class="st3" width="1014" height="43"/>
	<rect x="308.3" y="-8538.9" class="st3" width="331" height="44"/>
	<text transform="matrix(1 0 0 1 315.0495 -8562.4824)"><tspan x="0" y="0" style="fill:#FFFFFF; font-family:'MyriadPro-Bold'; font-size:33.7px;">CHƯƠNG TRÌNH HỌC CẬP NHẬT LIÊN TỤC ĐỔI MỚI KHÔNG NGỪNG </tspan><tspan x="0" y="57.6" style="fill:#FFFFFF; font-family:'MyriadPro-Bold'; font-size:33.7px;">THEO QUÝ MỖI NĂM</tspan></text>
	<g>
		<text transform="matrix(1 0 0 1 -273.2352 -3649.4355)" style="fill:#FFFFFF; font-family:'Anton'; font-size:64.8602px;">NỘI DUNG CHƯƠNG TRÌNH KHÓA HỌC</text>
	</g>
	<rect x="-258.1" y="-1332.8" class="st0" width="554.5" height="95.1"/>
	<text transform="matrix(1 0 0 1 -258.1165 -1312.8652)"><tspan x="0" y="0" class="st12" style="fill:#333333; font-size:27.9885px;">Lớp Sáng:</tspan><tspan x="134.3" y="0" class="st12" style="fill:#333333; font-size:26.1828px;"> Thứ 6: 9h-10h30 sáng </tspan><tspan x="0" y="33.6" class="st12" style="fill:#333333; font-size:27.9885px;">Lớp Sáng:</tspan><tspan x="134.3" y="33.6" class="st12" style="fill:#333333; font-size:26.1828px;"> Thứ 7: 9h-10h30 sáng </tspan><tspan x="0" y="67.2" class="st12" style="fill:#333333; font-size:27.9885px;">Lớp Sáng:</tspan><tspan x="134.3" y="67.2" class="st12" style="fill:#333333; font-size:26.1828px;"> Thứ chủ nhật: 9h-10h30 sáng</tspan></text>
	<rect x="-258.1" y="-1195.9" class="st0" width="581.5" height="95.1"/>
	<text transform="matrix(1 0 0 1 -258.1165 -1175.9531)"><tspan x="0" y="0" class="st12" style="fill:#333333; font-size:27.9885px;">Các em chọn 1 trong 3 hoặc 2 trong 3 buổi </tspan><tspan x="0" y="33.6" class="st12" style="fill:#333333; font-size:27.9885px;">Tùy theo lịch cá nhân</tspan></text>
	<rect x="539.2" y="-6769.3" class="st0" width="728.8" height="222.4"/>
	<text transform="matrix(1 0 0 1 588.9078 -6737.7295)"><tspan x="0" y="0" class="st12" style="font-size:44.1859px;">Theo sát từng học viên trong quá </tspan><tspan x="200.6" y="74.4" class="st12" style="font-size:44.1859px;">trình học và hướng dẫn </tspan><tspan x="404" y="148.8" class="st12" style="font-size:44.1859px;">bài vở về nhà </tspan></text>
	<g>
		<rect x="458.7" y="-6906.7" class="st0" width="822.6" height="152.5"/>
		<text transform="matrix(1 0 0 1 539.5094 -6840.7036)" style="fill:#BC4C25; font-family:'Anton'; font-size:93.0229px;">HƯỚNG DẪN TRỰC </text>
	</g>
	<g>
		<rect x="-266.7" y="-1534.3" class="st0" width="494.1" height="142.1"/>
		<text transform="matrix(1 0 0 1 -266.6966 -1475.9375)" style="fill:#C83443; font-family:'Anton'; font-size:82.1598px;">Thời gian học </text>
	</g>
	<g>
		<rect x="-345.1" y="-5912.7" class="st0" width="789.8" height="102.3"/>
		<text transform="matrix(1 0 0 1 -345.1068 -5848.1089)" style="fill:#FFFFFF; font-family:'Anton'; font-size:91px;">FROM STUDENTS</text>
	</g>
	<g>
		<rect x="-226.5" y="-4089" class="st0" width="716" height="211.8"/>
		<text transform="matrix(1 0 0 1 -226.5052 -4003.7861)"><tspan x="0" y="0" style="fill:#C3B397; font-family:'Anton'; font-size:120px;">FROM STU</tspan><tspan x="524" y="0" style="fill:#C3B397; font-family:'Anton'; font-size:120px;">-</tspan></text>
	</g>
	<g>
		<rect x="-274.4" y="603.9" class="st0" width="325.2" height="120.1"/>
		<text transform="matrix(1 0 0 1 -274.3592 666.2578)" class="st6" style="font-family:'Anton'; font-size:87.8215px;">ĐỊA </text>
	</g>
	
		<image style="overflow:visible;" width="1143" height="480" xlink:href="../../../../Downloads/pTS (16a).jpg"  transform="matrix(1.6772 0 0 1.6772 -485.3507 3826.5837)">
	</image>
	<rect x="-266.6" y="1079.6" class="st0" width="627.6" height="45.6"/>
	<text transform="matrix(1 0 0 1 -266.5804 1099.2822)" class="st10" style="fill:#333333; font-size:27.4997px;">2 chi nhánh cách nhau 30s đi xe máy</text>
	<path class="st4" d="M1269.5-6391.2c0,4.9-4,8.9-8.9,8.9h-267c-4.9,0-8.9-4-8.9-8.9v-76.3c0-4.9,4-8.9,8.9-8.9h267
		c4.9,0,8.9,4,8.9,8.9V-6391.2z"/>
	<rect x="922.5" y="-6452.6" class="st0" width="404.8" height="86"/>
	<text transform="matrix(1 0 0 1 1016.7076 -6407.7861)" class="st10" style="fill:#FFFFFF; font-size:62.7905px;">Liên hệ</text>
	<path class="st5" d="M-42.7-797.8c0,3.8-3.1,6.9-6.9,6.9H-257c-3.8,0-6.9-3.1-6.9-6.9v-59.2c0-3.8,3.1-6.9,6.9-6.9h207.3
		c3.8,0,6.9,3.1,6.9,6.9V-797.8z"/>
	<rect x="-312.2" y="-845.5" class="st0" width="314.3" height="66.8"/>
	<text transform="matrix(1 0 0 1 -239.0467 -810.7041)" class="st10" style="fill:#FFFFFF; font-size:48.7542px;">Liên hệ</text>
	<rect x="-486.7" y="-1254.9" class="st6" width="69.5" height="1226.7"/>
	<rect x="-486.7" y="1191.1" class="st6" width="146" height="172.6"/>
	<rect x="1325.3" y="510.2" class="st6" width="108" height="957.2"/>
	<rect x="-316.2" y="-7931" class="st0" width="774.6" height="94.5"/>
	<text transform="matrix(1 0 0 1 -316.2269 -7911.0435)"><tspan x="0" y="0" class="st10" style="fill:#333333; font-size:28px;">Khám phá những bí ẩn kỳ thú của nghệ thuật tranh màu </tspan><tspan x="0" y="41" class="st10" style="fill:#333333; font-size:28px;">nước đương đại cùng HANNA’S FAMILY nhé</tspan></text>
	<rect x="-316.2" y="-7796" class="st0" width="774.6" height="578.1"/>
	<text transform="matrix(1 0 0 1 -316.2269 -7776.0503)"><tspan x="0" y="0" class="st10" style="fill:#333333; font-size:28px;">Đây là lớp học vẽ tranh màu nước hiện đại mà bên</tspan><tspan x="0" y="41" class="st10" style="fill:#333333; font-size:28px;">HANNA&apos;S FAMILY đã ấp ủ từ lâu. Lớp học được mở ra </tspan><tspan x="0" y="82" class="st10" style="fill:#333333; font-size:28px;">với mục đích mang tới các bạn trẻ kiến thức đầy đủ và </tspan><tspan x="0" y="123" class="st10" style="fill:#333333; font-size:28px;">hiện đại nhất về lý thuyết của màu nước, màu sắc, cách </tspan><tspan x="0" y="164" class="st10" style="fill:#333333; font-size:28px;">phối màu, chọn cọ, giấy vẽ.. đến kỹ thuật vẽ, kiểm soát </tspan><tspan x="0" y="205" class="st10" style="fill:#333333; font-size:28px;">lượng nước, vẽ phác thảo… </tspan><tspan x="0" y="287" class="st10" style="fill:#333333; font-size:28px;">Sau khoá học, các bạn học viên sẽ có đủ khả năng để </tspan><tspan x="0" y="328" class="st10" style="fill:#333333; font-size:28px;">sáng tác những tác phẩm màu nước theo sở thích </tspan><tspan x="0" y="369" class="st10" style="fill:#333333; font-size:28px;">của mình.</tspan></text>
	<polygon class="st0" points="529.4,-7254.9 -322.7,-7254.9 -324.7,-7290.9 527.4,-7290.9 	"/>
	<text transform="matrix(1 0 0 1 -323.3153 -7265.3569)" style="fill:#4D4D4D; font-family:'MyriadPro-Bold'; font-size:36px;">Không gian lớp học</text>
	<g>
		<rect x="-262" y="-1413.9" class="st0" width="548.9" height="56"/>
		<text transform="matrix(1 0 0 1 -261.993 -1379.8779)" class="st6" style="font-family:'Anton'; font-size:47.8513px;">LỚP TRỰC TIẾP</text>
	</g>
	<g>
		<rect x="-263.9" y="-1097.9" class="st0" width="297.9" height="72.2"/>
		<text transform="matrix(1 0 0 1 -263.9315 -1063.8838)" class="st6" style="font-family:'Anton'; font-size:47.8513px;">LỚP ONLINE</text>
	</g>
	<rect x="-260.1" y="-1089.3" class="st0" width="523.4" height="204.9"/>
	<text transform="matrix(1 0 0 1 -260.055 -1013.3809)"><tspan x="0" y="0" class="st12" style="fill:#333333; font-size:24.3771px;">Lớp học online từ xa dành cho các bạn trong </tspan><tspan x="0" y="29.3" class="st12" style="fill:#333333; font-size:24.3771px;">&amp; ngoài nước</tspan><tspan x="0" y="87.8" class="st12" style="fill:#333333; font-size:24.3771px;">Đặc biệt là các bạn đang du học hoặc đang </tspan><tspan x="0" y="117" class="st12" style="fill:#333333; font-size:24.3771px;">làm việc ở nước ngoài</tspan></text>
	<g>
		<rect x="-363.8" y="-686.9" class="st0" width="1624" height="143.2"/>
		<text transform="matrix(1 0 0 1 -26.2611 -632.2562)" class="st6" style="font-family:'Anton'; font-size:77px;">KODA WATERCOLOR COURSE  </text>
	</g>
	<rect x="-115.6" y="-3515.3" class="st0" width="664.3" height="113.2"/>
	<text transform="matrix(1 0 0 1 -115.5921 -3491.0405)" style="font-family:'UTM-Avo'; font-size:34.1658px;">PREPARATION OF WATERCOLORS</text>
	<rect x="-115.6" y="-3396.2" class="st0" width="664.3" height="113.2"/>
	<text transform="matrix(1 0 0 1 -115.5921 -3371.9688)" style="font-family:'UTM-Avo'; font-size:34.1658px;">FROM IDEA TO PAPER</text>
	<rect x="-115.6" y="-3277.2" class="st0" width="664.3" height="41.7"/>
	<text transform="matrix(1 0 0 1 -115.5921 -3252.896)" style="font-family:'UTM-Avo'; font-size:34.1658px;">TECHNIQUE WCL &amp; BRUSH STROKES</text>
	<rect x="-115.6" y="-3159.1" class="st0" width="664.3" height="113.2"/>
	<text transform="matrix(1 0 0 1 -115.5921 -3134.8276)" style="font-family:'UTM-Avo'; font-size:34.1658px;">KNOW YOUR OWN IDEAS</text>
	<rect x="-115.6" y="-3038" class="st0" width="664.3" height="113.2"/>
	<text transform="matrix(1 0 0 1 -115.5921 -3013.7847)" style="font-family:'UTM-Avo'; font-size:34.1658px;">THE BODY - BASIC</text>
	<rect x="-224.7" y="-3421.9" class="st7" width="66" height="66"/>
	<rect x="-216.6" y="-3411.2" class="st0" width="61.6" height="60.6"/>
	<text transform="matrix(1 0 0 1 -216.6463 -3374.7676)" style="fill:#FFFFFF; font-family:'Anton'; font-size:51.2488px;">U2</text>
	<rect x="-226.7" y="-3540.9" class="st7" width="67" height="66"/>
	<rect x="-215.4" y="-3530.2" class="st0" width="61.6" height="60.6"/>
	<text transform="matrix(1 0 0 1 -215.4251 -3493.8403)" style="fill:#FFFFFF; font-family:'Anton'; font-size:51.2488px;">U1</text>
	<rect x="-224.7" y="-3302.9" class="st7" width="66" height="66"/>
	<rect x="-216.6" y="-3292.1" class="st0" width="61.6" height="60.6"/>
	<text transform="matrix(1 0 0 1 -216.6463 -3255.6963)" style="fill:#FFFFFF; font-family:'Anton'; font-size:51.2488px;">U3</text>
	<rect x="-225.7" y="-3183.9" class="st7" width="67" height="66"/>
	<rect x="-216.2" y="-3173" class="st0" width="61.6" height="60.6"/>
	<text transform="matrix(1 0 0 1 -216.2391 -3136.624)" style="fill:#FFFFFF; font-family:'Anton'; font-size:51.2488px;">U4</text>
	<rect x="-224.7" y="-3064.9" class="st7" width="66" height="65"/>
	<rect x="-216.6" y="-3053.5" class="st0" width="61.6" height="60.6"/>
	<text transform="matrix(1 0 0 1 -216.6463 -3017.1445)" style="fill:#FFFFFF; font-family:'Anton'; font-size:51.2488px;">U5</text>
	<rect x="665.3" y="-3516.8" class="st0" width="530.8" height="113.2"/>
	<text transform="matrix(1 0 0 1 665.3414 -3492.4937)" style="font-family:'UTM-Avo'; font-size:34.1658px;">THE CIRCLE OF COLORS</text>
	<rect x="665.3" y="-3397.4" class="st0" width="664.3" height="113.2"/>
	<text transform="matrix(1 0 0 1 665.3414 -3373.1167)" style="font-family:'UTM-Avo'; font-size:34.1658px;">PAINTING OUR ELEMENTS</text>
	<rect x="665.3" y="-3276" class="st0" width="664.3" height="41.7"/>
	<text transform="matrix(1 0 0 1 665.3414 -3251.6968)" style="font-family:'UTM-Avo'; font-size:34.1658px;">PROJECTS</text>
	<rect x="665.3" y="-3174.7" class="st0" width="664.3" height="113.2"/>
	<text transform="matrix(1 0 0 1 665.3414 -3156.7803)"><tspan x="0" y="0" style="font-family:'UTM-Avo'; font-size:25.2176px;">Bạn vui lòng liên hệ để có </tspan><tspan x="0" y="30.3" style="font-family:'UTM-Avo'; font-size:25.2176px;">chương trình học chi tiết và cụ thể</tspan></text>
	<rect x="558.3" y="-3419.9" class="st7" width="66" height="65"/>
	<rect x="566.7" y="-3409.5" class="st0" width="61.6" height="60.6"/>
	<text transform="matrix(1 0 0 1 566.7272 -3373.1411)" style="fill:#FFFFFF; font-family:'Anton'; font-size:51.2488px;">U7</text>
	<rect x="557.3" y="-3538.9" class="st7" width="66" height="65"/>
	<rect x="565.9" y="-3528.6" class="st0" width="61.6" height="60.6"/>
	<text transform="matrix(1 0 0 1 565.9477 -3492.2134)" style="fill:#FFFFFF; font-family:'Anton'; font-size:51.2488px;">U6</text>
	<rect x="558.3" y="-3300.9" class="st7" width="66" height="65"/>
	<rect x="566.7" y="-3290.5" class="st0" width="61.6" height="60.6"/>
	<text transform="matrix(1 0 0 1 566.7272 -3254.0693)" style="fill:#FFFFFF; font-family:'Anton'; font-size:51.2488px;">U8</text>
	<rect x="558.3" y="-3181.9" class="st7" width="66" height="65"/>
	<rect x="567.1" y="-3171.4" class="st0" width="61.6" height="60.6"/>
	<text transform="matrix(1 0 0 1 567.1354 -3134.9971)" style="fill:#FFFFFF; font-family:'Anton'; font-size:51.2488px;">U9</text>
	<rect x="-266.6" y="1122" class="st0" width="650.5" height="255.3"/>
	<text transform="matrix(1 0 0 1 -266.5804 1134.6406)"><tspan x="0" y="0" class="st10" style="fill:#333333; font-size:17.7417px;">Lưu ý: vì số lượng mỗi lớp hạn chế nên các bạn nhanh tay </tspan><tspan x="0" y="25.7" class="st10" style="fill:#333333; font-size:17.7417px;">đăng kí sớm và đóng học phí để mình giữ chỗ và xếp lớp.</tspan><tspan x="0" y="77.2" class="st10" style="fill:#333333; font-size:17.7417px;">Đăng kí trong 72h- Giảm 5% học phí</tspan><tspan x="0" y="102.9" class="st10" style="fill:#333333; font-size:17.7417px;">Học phí: các bạn vui lòng inbox và sẽ cung cấp số TK </tspan><tspan x="0" y="154.4" class="st10" style="fill:#333333; font-size:17.7417px;">p/s: Về bài học số 5 và bài số 6 trong chương trình học, </tspan><tspan x="0" y="180.1" class="st10" style="fill:#333333; font-size:17.7417px;">các bạn sẽ biết cách làm đẹp hình ảnh của chính </tspan><tspan x="0" y="205.8" class="st10" style="fill:#333333; font-size:17.7417px;">các bạn khi post lên Facebook</tspan></text>
	<g>
		<path class="st8" d="M-107.9,758.9c-12.3,0-22.3,9.5-22.3,21.2c0,3.3,0.8,6.6,2.4,9.6l0,0c6.2,10.5,13.3,21.1,20,31.6
			c6.2-10.7,13.8-20.7,19.8-31.6c1.6-3,2.4-6.3,2.4-9.6C-85.6,768.4-95.6,758.9-107.9,758.9L-107.9,758.9L-107.9,758.9z
			 M-107.9,767.8c6.5,0,11.8,5.3,11.8,11.8v0c0,6.5-5.3,11.8-11.8,11.8c0,0,0,0,0,0c-6.5,0-11.8-5.3-11.8-11.8
			C-119.6,773.1-114.4,767.8-107.9,767.8L-107.9,767.8z"/>
	</g>
	<g>
		<path class="st8" d="M232,755.1c-12.3,0-22.3,9.5-22.3,21.2c0,3.3,0.8,6.6,2.4,9.6l0,0c6.2,10.5,13.3,21.1,20,31.6
			c6.2-10.7,13.8-20.7,19.8-31.6c1.6-3,2.4-6.3,2.4-9.6C254.3,764.6,244.3,755.1,232,755.1L232,755.1L232,755.1z M232,764
			c6.5,0,11.8,5.3,11.8,11.8v0c0,6.5-5.3,11.8-11.8,11.8c0,0,0,0,0,0c-6.5,0-11.8-5.3-11.8-11.8C220.3,769.2,225.5,764,232,764
			L232,764z"/>
	</g>
	<rect x="-282.6" y="844.2" class="st0" width="349.5" height="68.9"/>
	<text transform="matrix(1 0 0 1 -273.8802 856.1943)"><tspan x="0" y="0" class="st10" style="fill:#333333; font-size:16.8546px;">345/86 TRẦN HƯNG ĐẠO P. Cầu Kho Q.1 </tspan><tspan x="32.9" y="25.7" class="st10" style="fill:#333333; font-size:16.8546px;">(KHỐI NGÀNH 3D &amp; Talent Team)</tspan></text>
	<rect x="-252.9" y="1003.2" class="st0" width="290.1" height="68.9"/>
	<text transform="matrix(1 0 0 1 -171.9818 1019.71)" class="st10" style="fill:#333333; font-size:23.0642px;">0932709998</text>
	<rect x="87" y="1003.2" class="st0" width="290.1" height="68.9"/>
	<text transform="matrix(1 0 0 1 161.4826 1019.71)" class="st10" style="fill:#333333; font-size:23.0642px;">0378 277 414 </text>
	<rect x="87" y="840.3" class="st0" width="290.1" height="68.9"/>
	<text transform="matrix(1 0 0 1 129.4665 852.96)" class="st10" style="fill:#333333; font-size:17.7417px;">20 PHAN VĂN TRỊ P2 Q5</text>
	<g transform="translate(0,-952.36218)">
		<path class="st8" d="M-88.7,1877.4c3.4,3.6,5.9,6.9,6.5,10.1c-0.1,7.4-7,16.5-15.4,24.8c-8.3,8.3-17.9,16.4-24.9,15.4
			c-3.3-0.6-6.6-3.1-10.2-6.5c-1.2-1.1-1.2-3.5,0-4.6l7.1-7.1c1.2-1.2,3.6-1.2,5.2-0.4l4.8,3.5c2.5,2.2,7.9-3.2,11.5-6.7
			c3.6-3.6,9-8.4,6.7-11.5l-3.5-4.8c-0.8-1.5-0.8-3.9,0.4-5.1l7.1-7.1C-92.2,1876.2-89.9,1876.2-88.7,1877.4L-88.7,1877.4z"/>
	</g>
	<g transform="translate(0,-952.36218)">
		<path class="st8" d="M251.2,1877.4c3.4,3.6,5.9,6.9,6.5,10.1c-0.1,7.4-7,16.5-15.4,24.8c-8.3,8.3-17.9,16.4-24.9,15.4
			c-3.3-0.6-6.6-3.1-10.2-6.5c-1.2-1.1-1.2-3.5,0-4.6l7.1-7.1c1.2-1.2,3.6-1.2,5.2-0.4l4.8,3.5c2.5,2.2,7.9-3.2,11.5-6.7
			c3.6-3.6,9-8.4,6.7-11.5l-3.5-4.8c-0.8-1.5-0.8-3.9,0.4-5.1l7.1-7.1C247.6,1876.2,250,1876.2,251.2,1877.4L251.2,1877.4z"/>
	</g>
	<g>
		<rect x="-383" y="2775.5" class="st0" width="968" height="296"/>
		<text transform="matrix(1 0 0 1 -383.0252 2879.8926)"><tspan x="0" y="0" class="st6" style="font-family:'Anton'; font-size:147px;">FROM STU</tspan><tspan x="641.9" y="0" class="st6" style="font-family:'Anton'; font-size:147px;">-</tspan><tspan x="0" y="176.4" class="st6" style="font-family:'Anton'; font-size:147px;">DENTS </tspan></text>
	</g>
	<g>
		<defs>
			<rect id="SVGID_1_" x="-381.7" y="-2684.9" width="547" height="409"/>
		</defs>
		<clipPath id="SVGID_2_">
			<use xlink:href="#SVGID_1_"  style="overflow:visible;"/>
		</clipPath>
	</g>
	<g>
		<defs>
			<rect id="SVGID_3_" x="786.3" y="-2684.9" width="546" height="409"/>
		</defs>
		<clipPath id="SVGID_4_">
			<use xlink:href="#SVGID_3_"  style="overflow:visible;"/>
		</clipPath>
	</g>
	<g>
		<defs>
			<rect id="SVGID_5_" x="202.3" y="-2684.9" width="546" height="409"/>
		</defs>
		<clipPath id="SVGID_6_">
			<use xlink:href="#SVGID_5_"  style="overflow:visible;"/>
		</clipPath>
	</g>
	<g>
		<defs>
			<rect id="SVGID_7_" x="-378.7" y="-2243.9" width="547" height="409"/>
		</defs>
		<clipPath id="SVGID_8_">
			<use xlink:href="#SVGID_7_"  style="overflow:visible;"/>
		</clipPath>
	</g>
	<g>
		<defs>
			<rect id="SVGID_9_" x="204.3" y="-2243.9" width="546" height="409"/>
		</defs>
		<clipPath id="SVGID_10_">
			<use xlink:href="#SVGID_9_"  style="overflow:visible;"/>
		</clipPath>
	</g>
	<g>
		<defs>
			<rect id="SVGID_11_" x="786.3" y="-2243.9" width="546" height="409"/>
		</defs>
		<clipPath id="SVGID_12_">
			<use xlink:href="#SVGID_11_"  style="overflow:visible;"/>
		</clipPath>
	</g>
	<rect x="-217.1" y="-184.3" class="st0" width="498" height="234"/>
	<text transform="matrix(1 0 0 1 -154.7645 -163.5599)"><tspan x="0" y="0" class="st9 st10 st11">Thành thạo kĩ thuật cơ bản</tspan><tspan x="5.9" y="50" class="st12 st13">Cách sử dụng cọ và phân biệt </tspan><tspan x="94.1" y="100" class="st12 st13">các loại giấy vẽ</tspan></text>
	<rect x="-162.7" y="167.8" class="st0" width="389.3" height="234"/>
	<text transform="matrix(1 0 0 1 -140.5404 188.4902)"><tspan x="0" y="0" class="st9 st10 st11">Tự tạo ra tác phẩm riêng</tspan><tspan x="344.9" y="0" class="st11" style="font-family:'HelveticaNeue';"> </tspan><tspan x="-6.7" y="50" class="st12 st13">Dùng trong việc trang trí hoặc </tspan><tspan x="63.1" y="100" class="st12 st13">công việc cá nhân</tspan></text>
	<rect x="290.4" y="-184.3" class="st0" width="401.5" height="234"/>
	<text transform="matrix(1 0 0 1 342.2951 -163.5599)"><tspan x="0" y="0" class="st9 st10 st11">Tự tin với chính mình</tspan><tspan x="11.8" y="50" class="st10 st13">Phác thảo và hình họa </tspan><tspan x="82.5" y="100" class="st10 st13">vững chắc</tspan><tspan x="148.8" y="150" class="st12 st13"> </tspan></text>
	<rect x="262.9" y="167.8" class="st0" width="456.4" height="234"/>
	<text transform="matrix(1 0 0 1 310.0612 188.4912)"><tspan x="0" y="0" class="st9 st10 st11">Tim được dấu ấn cá nhân</tspan><tspan x="42.8" y="50" class="st12 st13">Phát triển và nhận diện </tspan><tspan x="82.5" y="100" class="st12 st13">được style riêng</tspan></text>
	<rect x="781.1" y="-184.3" class="st0" width="332.5" height="234"/>
	<text transform="matrix(1 0 0 1 819.0558 -163.5599)"><tspan x="0" y="0" class="st9 st10 st11">Phối màu linh hoạt</tspan><tspan x="-31.5" y="50" class="st10 st13">Không còn phối màu theo </tspan><tspan x="71" y="100" class="st10 st13">bản năng</tspan></text>
	<rect x="785.1" y="167.8" class="st0" width="324.5" height="234"/>
	<text transform="matrix(1 0 0 1 785.837 188.4902)"><tspan x="0" y="0" class="st9 st10 st11">Nâng cao gout thẩm mĩ</tspan><tspan x="5.2" y="50" class="st12 st11">Đánh giá được các sản </tspan><tspan x="62.5" y="100" class="st12 st11">phẩm hình ảnh</tspan></text>
	<g>
		<path d="M523.2-396.6c7.8-0.6,14.7,5,15.3,12.9c0.6,7.8-5,14.7-12.9,15.3c-7.9,0.6-14.7-5-15.3-12.9l0,0
			C509.8-388.9,515.4-395.8,523.2-396.6z"/>
		<path d="M526.5-363.6c-0.2,0-0.4,0-0.6,0c0,0,0,0,0.2,0C526.3-363.6,526.5-363.6,526.5-363.6z"/>
		<path d="M459-368.4c0,0.6-1.6,1-3.6,1c-1.8-0.2-3.6-0.6-5.6-1c1.8-0.4,3.6-0.8,5.6-1C457.4-369.4,459-369,459-368.4z"/>
		<path d="M542.8-349.7c-0.8-8.3-7.8-14.3-15.9-13.9h-0.2c-0.2,0-0.4,0-0.6,0c-0.2,0-0.4,0-0.6,0h-0.2c-2.8,0.4-5.4,1.6-7.6,3.4
			l-16.5,7.8l-32.4-15.1c10.3,0,25.6-1,25.6-1s-20.1-1.2-29.6-1h-0.2l0,0c-1.2,0-2.2,0.2-3.4,0.2c-0.4,0-0.6,0.4-0.6,0.8
			c0,0.4,0.2,0.6,0.6,0.6c1,0.2,1.8,0.2,2.8,0.2c-0.4,1.2-0.6,2.4-0.6,3.6c0,5,3,9.7,7.6,11.9l27,12.9c2,1,4.2,1,6.2,0l7.4-3.4
			l-0.4-4.2c0-0.4,0-1,0-1.4c0-2.6,0.6-5.4,2-7.6l0,0c0-0.2,0.2-0.2,0.4-0.2c0.2,0,0.4,0.2,0.6,0.4v0.2c-1.2,2.2-1.8,4.6-1.8,7.2
			c0,0.4,0,0.8,0,1.4l0.4,3.8l1,12.1l7.4-2.8l-2-22.3l0,0c0-0.2,0.2-0.4,0.4-0.6l0,0c0.2,0,0.4,0.2,0.6,0.4l2,23.1l-8.5,3l-16.5,6
			c-0.4-0.6-1-1.2-1.6-1.8c-3.4-2.6-12.9-2-20.9,1.2c-8.1,3.2-11.9,8.3-8.3,10.9c3.6,2.6,13.9,2.6,20.9-1.2c0.4-0.2,0.8-0.6,0.8-1
			c2.4,3,6.2,4.6,10.1,4.6c1.6,0,3-0.2,4.4-0.8l12.3-4.4l15.9-5.8c3.2-1.2,5-4.2,4.8-7.6l-1.8-20.7l0,0c0-0.2,0.2-0.4,0.4-0.6l0,0
			c0.2,0,0.4,0.2,0.6,0.4l1.8,20.7c0.4,3.8-1.8,7.2-5.4,8.7l-16.1,5.8l0.2,2.6v2.2c0,4.6,2.2,9.1,5.8,12.1v79.5h9.5
			c5.2,0,9.5-4.2,9.5-9.5l0,0v-70c3.8-2.8,5.8-7.2,5.8-12.1v-2.2L542.8-349.7z M483.4-325.7c1.4-0.2,2.8,0.2,2.8,1
			c0,0.8-1,1.6-2.6,1.8c-1.6,0.2-2.8-0.2-2.8-1C480.8-324.7,481.8-325.5,483.4-325.7z M468.3-317.9c0-0.8,1-1.6,2.6-1.8
			c1.6-0.2,2.8,0.2,2.8,1c0,0.8-1,1.6-2.6,1.8C469.5-316.7,468.5-317.1,468.3-317.9L468.3-317.9z M474.5-313.3
			c-1.4,0.2-2.8-0.2-2.8-1c0-0.8,1-1.6,2.6-1.8c1.6-0.2,2.8,0.2,2.8,1C477.2-314.3,475.9-313.5,474.5-313.3L474.5-313.3z
			 M476.3-320.7c-1.4,0.2-2.8-0.2-2.8-1c0-0.8,1-1.6,2.6-1.8c1.6-0.2,2.8,0.2,2.8,1C479-321.7,477.8-320.7,476.3-320.7L476.3-320.7z
			 M482-314.3c-1.4,0.2-2.8-0.2-2.8-1c0-0.8,1-1.6,2.6-1.8c1.6-0.2,2.8,0.2,2.8,1C484.6-315.3,483.6-314.5,482-314.3L482-314.3z
			 M486-320.1c0.2,0.4,0.2,0.6,0.4,1c-0.8,0-1.6-0.2-1.6-0.6c0-0.4,0.6-1,1.6-1c0.4,0,0.8,0,1.2,0.2L486-320.1z M491.4-322.9
			c-1.4,0.2-2.8-0.2-2.8-1c0-0.8,1-1.6,2.6-1.8c1.6-0.2,2.8,0.2,2.8,1C494.1-323.9,492.9-323.1,491.4-322.9L491.4-322.9z"/>
		<path d="M452.4-310l-11.1-83.7c-0.2-1,0.6-2.2,1.8-2.2c1-0.2,2.2,0.6,2.2,1.8l11.1,83.9c0.2,1-0.6,2.2-1.8,2.2
			C453.4-308,452.6-308.8,452.4-310L452.4-310z"/>
		<path d="M462.1-221.7c0.2,1-0.6,2.2-1.8,2.2c-1,0.2-2.2-0.6-2.2-1.8L442.9-336l-15.1,114.7c-0.2,1-1.2,1.8-2.2,1.8
			c-1-0.2-1.8-1.2-1.8-2.2l16.9-127.8c0-0.4,0.2-0.6,0.4-0.8l-5.8-42.9c-0.2-1,0.6-2.2,1.8-2.2c1-0.2,2.2,0.6,2.2,1.8L462.1-221.7z"
			/>
	</g>
	<g>
		<path d="M75.8-314.8l-4.6-3.8c-4.7-3.9-7.6-9.6-8.1-15.8h-6.6c0.4,8.1,4.2,15.6,10.4,20.8l4.6,3.8c2.9,2.4,4.6,6,4.6,9.9v61.1
			c0,7.1-5.7,12.8-12.8,12.8h-63c-7.1,0-12.8-5.7-12.8-12.8v-61.1c0-3.8,1.7-7.4,4.6-9.9l4.6-3.8c6.2-5.2,10-12.7,10.4-20.8H0.6
			c-0.4,6.1-3.3,11.8-8.1,15.8l-4.6,3.8c-4.4,3.7-7,9.1-7,14.9v61.1c0,10.7,8.7,19.4,19.4,19.4h63c10.7,0,19.4-8.7,19.4-19.4v-61.1
			C82.8-305.7,80.2-311.1,75.8-314.8z"/>
		<polygon points="21.1,-334.4 29.1,-295 36.3,-295 28.3,-334.4 		"/>
		<path d="M72.9-299.9c0-2.8-1.3-5.5-3.4-7.3l-4.6-3.8c-7-5.8-11.2-14.3-11.6-23.3H31.6l8,39.4h33.3V-299.9z"/>
		<path d="M45-258.8l-8.5,2.8c-1.8,5.7-1.6,10,0.4,12.9c2,2.4,5,3.8,8.1,3.9h6.4c-1-1.5-1.5-3.2-1.5-4.9c0-0.1,0-0.3,0-0.4
			C52.5-254.5,46.7-257.9,45-258.8z"/>
		<polygon points="29.8,-291.7 36.4,-259.4 43.1,-261.6 37,-291.7 		"/>
		<path d="M10.5-334.4c-0.4,9.1-4.6,17.5-11.6,23.3l-4.6,3.8c-2.2,1.8-3.4,4.5-3.4,7.3v4.9h34.9l-8-39.4H10.5z"/>
		<path d="M-9.2-238.8c0,5.3,4.3,9.5,9.5,9.5h63c5.3,0,9.5-4.3,9.5-9.5v-52.9H40.3l6.1,30c2.6,1.3,9.6,6,6.8,17.7
			c-0.1,2.6,1.9,4.7,4.5,4.8c0.1,0,0.3,0,0.4,0c0.9,0,1.6,0.7,1.6,1.6c0,0.9-0.7,1.6-1.6,1.6H45c-4.2-0.1-8.1-2-10.8-5.2
			c-2.8-3.8-3-9.3-0.8-16.2l-7-34.4H-9.2V-238.8z"/>
		<path d="M23.6-357.4l-11.8-58c-0.4-1.9-2.2-3.1-4.1-2.7c-0.1,0-0.3,0.1-0.4,0.1c-1.7,0.6-2.7,2.3-2.3,4l11.6,56.6H23.6z"/>
		<path d="M-0.9-344.2h65.7c0.9,0,1.6,0.7,1.6,1.6v3.3c0,0.9-0.7,1.6-1.6,1.6H-0.9c-0.9,0-1.6-0.7-1.6-1.6v-3.3
			C-2.6-343.5-1.9-344.2-0.9-344.2z"/>
		<path d="M-0.9-354.1h65.7c0.9,0,1.6,0.7,1.6,1.6v3.3c0,0.9-0.7,1.6-1.6,1.6H-0.9c-0.9,0-1.6-0.7-1.6-1.6v-3.3
			C-2.6-353.4-1.9-354.1-0.9-354.1z"/>
	</g>
	<g>
		<path d="M479.2-1.1c-0.7-1.5-1.7-2.9-2.9-4.1c-2.7-2.7-6.3-3.9-10.6-3.6c-1,0.1-1.7,0.9-1.7,1.9c0.1,1,0.9,1.7,1.9,1.7
			c3.3-0.2,5.9,0.7,8,2.6c0.3,0.3,0.7,0.7,0.9,1.1c-20.4-1.5-37.6,7.1-39.3,20.2c-1.8,13.8,17.8,2.1,39.7,4.9
			c21.9,2.9,37.9,19.3,39.7,5.5C516.6,15.4,500.7,2,479.2-1.1z"/>
		<g>
			<path d="M473.3,76c19.1,0,34.5-15.5,34.5-34.5c0-1.3-0.1-2.7-0.2-4c-3.1-0.6-6.6-2-10.8-3.8c-6.1-2.6-13.7-5.8-22-6.9
				c-2.2-0.3-4.7-0.4-7.1-0.4c-5.7,0-11.1,0.8-15.9,1.4c-3.8,0.5-7,1-9.8,1h0c-0.2,0-0.5,0-0.7,0c-1.6,3.9-2.4,8.2-2.4,12.7
				C438.7,60.6,454.2,76,473.3,76z"/>
			<path d="M501.5,72.9c-1.4,1.2-2.9,2.4-4.4,3.5c4.6,9,17.4,31.2,32.7,38.2l-19.9,5c-11.4-6.8-18.1-20.8-21.8-30.8
				c0.9,8.6,3.2,20.9,9.2,27.8l-14.3-2.7c-6.4-9.4-5.3-23.6-4.4-30.5c-1.8,0.2-3.6,0.4-5.4,0.4c-8.8,0-16.9-2.7-23.7-7.2l0,0
				c-0.7-0.5-1.5-1-2.2-1.6c-0.1-0.1-0.3-0.2-0.4-0.3c-0.7-0.5-1.4-1.1-2-1.7c0,0,0,0,0,0c-1.1,0.6-2.2,1.2-3.2,1.9
				c-0.3,0.2-0.6,0.4-0.9,0.5c-1,0.6-2,1.3-2.9,2c-0.3,0.2-0.6,0.4-0.8,0.6c-0.7,0.5-1.3,1-2,1.5c-0.4,0.3-0.9,0.7-1.3,1
				c-0.6,0.5-1.2,1-1.8,1.6c-0.7,0.6-1.3,1.2-1.9,1.9c-0.3,0.3-0.7,0.7-1,1c-8.6,9-14.7,20.6-17.1,33.6c0,0.2-0.1,0.3-0.1,0.5
				c-0.2,1.1-0.4,2.2-0.5,3.3c-0.1,0.5-0.1,1-0.2,1.5c-0.1,0.8-0.2,1.6-0.2,2.5c-0.1,1.4-0.2,2.8-0.2,4.3h38.8h86.1
				C535.6,105.4,521.7,83.6,501.5,72.9z"/>
		</g>
	</g>
	<path d="M978.8-313.2c-0.2-0.2-0.4-0.4-0.7-0.5l-0.3-0.2c-0.2-0.1-0.4-0.2-0.6-0.3l-0.4-0.1h-0.1c-0.5-0.1-1-0.1-1.5,0h-0.1
		l-0.4,0.1l-0.6,0.3l-0.2,0.1c-0.2,0.2-0.5,0.3-0.7,0.5c-0.1,0.1-0.1,0.1-0.2,0.2c-3.9,3.7-7.4,14.2-7.4,28.1
		c0,11.4,5.4,42.3,8.7,59.7c0.2,0.9,1.1,1.6,2,1.4c0.7-0.1,1.2-0.7,1.4-1.4c3.2-17.4,8.6-48.3,8.6-59.7c0-13.9-3.5-24.5-7.4-28.1
		L978.8-313.2z"/>
	<path d="M972.3-322.3c0.6,0.2,1.1,0.4,1.7,0.5l0,0c1.3,0.3,2.7,0.3,4.1,0l0,0c0.6-0.1,1.2-0.3,1.7-0.5c4-1.6,6.6-5.4,6.6-9.6
		c0-4.5-6.6-18.5-10.4-26c-3.7,7.5-10.3,21.5-10.3,26C965.7-327.7,968.3-323.9,972.3-322.3z"/>
	<path d="M933-359.1c-8.8-1.7-18,0.3-25.2,5.6c-15.2,9.5-30.2,32.9-27.4,61.7c1.5,24.1,13.9,46.1,33.8,59.8c7.8,5.4,16,8.4,22.6,8.4
		c1.3,0,2.7-0.1,4-0.4c2.2-0.3,4.2-1.5,5.5-3.3c2.5-3.8,1.3-9.5-0.1-16.2c-0.6-3-1.3-6.1-1.7-9.4c-1.6-10.8-1.3-21.8,0.9-32.4l0,0
		c0.6-4.6,1.6-9.3,2.6-14.3c3.3-16.5,6.7-33.6-1.6-50.3C943.2-354.7,938.4-358,933-359.1z M922.5-337.2c-3.1,0-5.7-2.5-5.7-5.7
		c0-3.1,2.5-5.7,5.7-5.7c3.1,0,5.7,2.5,5.7,5.7c0,0,0,0.1,0,0.1C928.1-339.7,925.6-337.2,922.5-337.2z M905.6-291.9
		c0,3.1-2.5,5.7-5.7,5.7c-3.1,0-5.7-2.5-5.7-5.7c0-3.1,2.5-5.7,5.7-5.7l0,0C903.1-297.5,905.6-295,905.6-291.9z M905.6-317.5
		c-3.1,0-5.7-2.5-5.7-5.7s2.5-5.7,5.7-5.7c3.1,0,5.7,2.5,5.7,5.7l0,0C911.3-320,908.7-317.5,905.6-317.5z M909.9-267.2
		c3.1,0,5.7,2.5,5.7,5.7c0,3.1-2.5,5.7-5.7,5.7c-3.1,0-5.7-2.5-5.7-5.7C904.2-264.7,906.8-267.2,909.9-267.2L909.9-267.2z
		 M927.8-248.4c3.1,0,5.6,2.6,5.6,5.7c0,3.1-2.6,5.6-5.7,5.6c-3.1,0-5.6-2.6-5.6-5.7C922.1-245.9,924.7-248.4,927.8-248.4
		L927.8-248.4z M929.7-289.6c-4.8,0-8.9-6.6-8.9-14.4c0-7.8,4.1-14.4,8.9-14.4c4.8,0,8.9,6.6,8.9,14.4
		C938.6-296.2,934.5-289.6,929.7-289.6z"/>
	<g>
		<path d="M0,0v19.4h12.8c7.7,0,14,6.3,14,14v10.3c0,2.7,2.2,4.9,4.9,4.9s4.9-2.2,4.9-4.9v-17c0-4,3.3-7.3,7.3-7.3
			c4,0,7.3,3.3,7.3,7.3v5.7c0,2.7,2.2,4.9,4.9,4.9c2.7,0,4.9-2.2,4.9-4.9V21.9c0-1.3,1.1-2.4,2.4-2.4h9.7V0H0z"/>
		<path d="M65.6,32.4c0,5.4-4.4,9.7-9.7,9.7c-5.4,0-9.7-4.4-9.7-9.7v-5.7c0-1.3-1.1-2.4-2.4-2.4c-1.3,0-2.4,1.1-2.4,2.4v17
			c0,5.4-4.4,9.7-9.7,9.7c-5.4,0-9.7-4.4-9.7-9.7V33.4c0-5-4.1-9.1-9.1-9.1l0,0H0v31.6h72.9V24.3h-7.3V32.4z"/>
		<path d="M0,76.2c0,0.5,0,0.9,0,1.4c0,0.6,0.1,1.2,0.3,1.8c0,0.2,0,0.3,0,0.5c0,0,0,0,0,0.1c0,0.1,0,0,0,0h72.1l0,0c0,0,0,0,0-0.1
			c0-0.2,0-0.3,0-0.5c0.1-0.6,0.2-1.2,0.3-1.8c0-0.5,0-0.9,0-1.4V60.8H0V76.2z"/>
		<path d="M3.4,86c0.2,0.2,0.3,0.4,0.5,0.6c0.2,0.3,0.4,0.5,0.7,0.7c0.7,0.7,1.4,1.3,2.1,1.8c0.1,0.1,0.1,0.1,0.2,0.1
			c0.2,0.2,0.5,0.3,0.8,0.5c0.6,0.4,1.1,0.7,1.7,0.9l0.9,0.4l1,0.3l0.6,0.2l1.1,0.3h0.2l1.2,0.2h0.4c0.5,0,1,0,1.4,0
			c6.6,0,11.8,5.3,11.8,11.9c0,0.5,0,1.1-0.1,1.6l-3.6,26c-1,6.8,3.7,13,10.5,14c6.8,1,13-3.7,14-10.5c0.2-1.1,0.2-2.3,0-3.5
			L45,105.9c-0.9-6.5,3.6-12.5,10.1-13.4c0.5-0.1,1.1-0.1,1.6-0.1c0.5,0,1,0,1.4,0h0.4l1.2-0.2H60l1.1-0.3l0.6-0.2l1-0.3l0.9-0.4
			c0.6-0.3,1.2-0.6,1.7-0.9c0.3-0.1,0.5-0.3,0.8-0.5c0.1,0,0.1-0.1,0.2-0.1c0.8-0.6,1.5-1.2,2.1-1.8c0.2-0.2,0.5-0.5,0.7-0.7
			c0.2-0.2,0.4-0.4,0.5-0.6c0.2-0.3,0.5-0.6,0.7-1H2.7C2.9,85.4,3.2,85.7,3.4,86z"/>
	</g>
	<g>
		<g>
			<path d="M916.6,115.6l-9.5,26c-0.2,0.7-0.1,1.4,0.3,2c0.4,0.6,1.1,1,1.8,1h8.9c0.9,0,1.8-0.6,2.1-1.5l10-27.5H916.6z"/>
			<path d="M961.1,10.8l-1.2-7.1c-0.2-1.1-1.1-1.9-2.2-1.9h-8.9c-1.1,0-2,0.8-2.2,1.9l-1.2,7.1H961.1z"/>
			<path d="M989.9,115.6h-13.7l10,27.5c0.3,0.9,1.2,1.5,2.1,1.5h8.9c0.7,0,1.4-0.4,1.8-1c0.4-0.6,0.5-1.4,0.3-2L989.9,115.6z"/>
			<path d="M947.1,115.6l1.7,22.5c0.1,1.2,1.1,2.1,2.2,2.1h4.5c1.2,0,2.1-0.9,2.2-2.1l1.7-22.5H947.1z"/>
			<path d="M1006.8,97.8H899.7c-1.2,0-2.2,1-2.2,2.2v8.9c0,1.2,1,2.2,2.2,2.2h107.1c1.2,0,2.2-1,2.2-2.2V100
				C1009,98.8,1008,97.8,1006.8,97.8z"/>
		</g>
		<g>
			<g>
				<polygon points="932.9,15.2 924.6,15.2 926.1,23.4 931.3,23.4 				"/>
				<polygon points="981.9,15.2 973.6,15.2 975.2,23.4 980.4,23.4 				"/>
				<path d="M953.3,33.1c1.2,0,2.2,1,2.2,2.2c0,1.2-1,2.2-2.2,2.2c-1.2,0-2.2-1-2.2-2.2C951,34.1,952,33.1,953.3,33.1z"/>
				<path d="M910.9,68.8V15.2h-6.7c-1.2,0-2.2,1-2.2,2.2v73.6c0,1.2,1,2.2,2.2,2.2h6.7V68.8z"/>
				<path d="M955.3,48.2c0.9-1.1,2.1-1.7,3.5-1.7h11l5.4-9c0.8-1.3,2.3-2.2,3.8-2.2h12.1V15.2h-4.7l-2,10.8
					c-0.2,1.1-1.1,1.8-2.2,1.8h-8.9c-1.1,0-2-0.8-2.2-1.8l-2-10.8h-31.7l-2,10.8c-0.2,1.1-1.1,1.8-2.2,1.8h-8.9
					c-1.1,0-2-0.8-2.2-1.8l-2-10.8h-4.7v51.3H941L955.3,48.2z M953.3,28.6c3.7,0,6.7,3,6.7,6.7c0,3.7-3,6.7-6.7,6.7
					c-3.7,0-6.7-3-6.7-6.7C946.6,31.6,949.6,28.6,953.3,28.6z M936.5,42c-0.6,0-1.1,0.5-1.1,1.1v1.1c0,1.2-1,2.2-2.2,2.2H922V42h9
					c0.5-2.5,2.8-4.5,5.5-4.5c3.1,0,5.6,2.5,5.6,5.6v3.3h-4.5v-3.3C937.6,42.5,937.1,42,936.5,42z"/>
				<path d="M1002.3,15.2h-6.7v22.3v55.8h6.7c1.2,0,2.2-1,2.2-2.2V17.5C1004.6,16.2,1003.6,15.2,1002.3,15.2z"/>
				<path d="M968.9,75.5c0-1.2,1-2.2,2.2-2.2h2.2V55.4h4.5v17.8h1.2l2.4-13.8l4.4,0.8l-2.3,13h1c1.2,0,2.2,1,2.2,2.2v17.8h4.5V39.8
					H979l-6,10.1c-0.4,0.7-1.1,1.1-1.9,1.1h-12.3l-14.9,19.2c-0.4,0.5-1.1,0.9-1.8,0.9h-26.8v22.3h4.5c0-9.8,8-17.8,17.8-17.8h4.5
					c9.8,0,17.8,8,17.8,17.8h8.9V75.5z M957.7,68.8v-4.5h8.9v4.5H957.7z"/>
				<rect x="973.3" y="77.7" width="8.9" height="15.6"/>
			</g>
			<path d="M942.1,79.9h-4.5c-7.4,0-13.4,6-13.4,13.4h31.2C955.5,85.9,949.5,79.9,942.1,79.9z M933.2,91.1h-4.5v-4.5h4.5V91.1z
				 M942.1,86.6h-4.5v-4.5h4.5V86.6z M951,91.1h-4.5v-4.5h4.5V91.1z"/>
		</g>
	</g>
</g>
<g id="Layer_7">
	<rect x="-321.8" y="-8045.6" class="st0" width="864.3" height="96.7"/>
	<text transform="matrix(1 0 0 1 -321.846 -7992.3828)" style="fill:#B38005; font-family:'Anton'; font-size:75px;">KODA WATERCOLOR </text>
</g>
<g id="Layer_8">
	<g>
		<defs>
			<rect id="SVGID_13_" x="-486.7" y="-10350.9" width="1920" height="1080"/>
		</defs>
		<clipPath id="SVGID_14_">
			<use xlink:href="#SVGID_13_"  style="overflow:visible;"/>
		</clipPath>
	</g>
</g>
<g id="Layer_9">
</g>
<g id="Layer_10">
</g>
</svg>
