<svg width="43" height="30" viewBox="0 0 43 30" fill="none" xmlns="http://www.w3.org/2000/svg">
<path d="M17.1429 21.4286L28.2643 15L17.1429 8.57143V21.4286ZM41.9143 4.65C42.1929 5.65714 42.3857 7.00714 42.5143 8.72143C42.6643 10.4357 42.7286 11.9143 42.7286 13.2L42.8571 15C42.8571 19.6929 42.5143 23.1429 41.9143 25.35C41.3786 27.2786 40.1357 28.5214 38.2071 29.0571C37.2 29.3357 35.3571 29.5286 32.5286 29.6571C29.7429 29.8071 27.1929 29.8714 24.8357 29.8714L21.4286 30C12.45 30 6.85714 29.6571 4.65 29.0571C2.72143 28.5214 1.47857 27.2786 0.942857 25.35C0.664286 24.3429 0.471429 22.9929 0.342857 21.2786C0.192857 19.5643 0.128571 18.0857 0.128571 16.8L0 15C0 10.3071 0.342857 6.85714 0.942857 4.65C1.47857 2.72143 2.72143 1.47857 4.65 0.942857C5.65714 0.664286 7.5 0.471428 10.3286 0.342857C13.1143 0.192857 15.6643 0.128571 18.0214 0.128571L21.4286 0C30.4071 0 36 0.342857 38.2071 0.942857C40.1357 1.47857 41.3786 2.72143 41.9143 4.65Z" fill="white"/>
</svg>
