<svg width="235" height="30" viewBox="0 0 235 30" fill="none" xmlns="http://www.w3.org/2000/svg">
<path d="M44.7415 6.55237C43.2532 7.43389 42.0484 8.63372 40.8908 9.88253C40.2766 10.5437 39.8041 11.2538 39.497 12.1108C39.3552 12.4781 39.3552 12.8454 39.6151 13.1392C39.9222 13.5065 40.1585 13.0658 40.4183 12.9678C41.3397 12.6005 42.2374 12.0373 43.3949 12.3801C42.0956 13.0413 40.6309 13.1637 39.5915 14.4125C40.3475 14.6574 40.9853 14.5839 41.5523 14.388C44.4816 13.4331 46.9858 11.7925 48.8285 9.27037C50.7892 6.60135 49.8207 4.37308 46.5606 4.00578C42.828 3.58951 39.5915 4.74038 36.8039 7.33594C35.8353 8.21745 35.5754 9.24588 36.2605 10.7151C34.3233 9.12345 34.158 7.85016 35.6699 6.35648C38.8591 3.17324 42.7335 2.04687 47.0567 2.80595C50.2931 3.36914 51.7342 6.69929 50.0097 9.61318C48.0016 13.0413 45.0014 15.1471 41.1743 15.9307C40.9381 15.9797 40.7018 15.9797 40.4656 15.9552C38.9773 15.8327 38.5284 14.8533 39.3316 13.58C37.7016 12.7719 37.4653 11.9884 38.6229 10.5192C40.2293 8.56026 42.2137 7.09108 44.7415 6.55237Z" fill="white"/>
<path d="M63.0023 8.83025C64.2307 9.49138 64.2544 9.61381 63.4039 10.6912C62.7897 11.4748 62.1282 12.2583 61.6557 13.1399C61.1596 14.0703 60.8053 15.0008 61.4903 16.0537C60.0965 15.9068 59.9075 15.6375 59.8839 13.7765C60.0729 13.2378 60.2619 12.6991 60.4509 12.1849C60.7816 11.7196 61.1832 11.2789 61.3014 10.5688C60.758 10.7892 60.4273 11.083 60.1438 11.4748C58.6791 12.6746 57.2853 13.9724 56.1041 15.4906C55.8442 15.8334 55.6552 16.568 55.0883 16.1027C54.6394 15.7354 54.6394 15.0498 55.0174 14.5111C56.0096 13.0664 57.049 11.6462 57.994 10.1525C58.1358 9.93214 59.1988 9.56484 58.1358 9.05063C58.0176 8.97717 58.4192 8.70782 58.6319 8.58538C59.1752 8.21809 59.7186 8.14463 60.2383 8.60987C60.8289 9.12409 60.2619 9.54036 60.1438 10.0056C59.8839 10.3484 59.6477 10.6667 59.3878 11.0095C59.2461 11.1565 58.9153 11.3034 59.1043 11.4993C59.2933 11.7196 59.4823 11.4013 59.6241 11.2544C59.9312 10.9851 60.2383 10.6912 60.5454 10.4219C61.3486 9.93214 61.9865 9.05063 63.0023 8.83025Z" fill="white"/>
<path d="M55.9223 9.36853C53.6072 9.00123 50.0636 11.7682 49.8037 14.1189C49.7092 14.9025 49.9927 15.3187 50.7959 15.1228C52.3787 14.7555 54.6939 11.6703 54.5994 9.9562C54.5758 9.49096 54.7884 9.61339 54.9774 9.61339C55.6625 9.61339 55.9223 10.0541 55.9696 10.7153C56.1113 12.9925 52.1897 16.4696 50.04 15.9554C49.2604 15.7595 48.9296 15.2453 48.8115 14.3882C48.3627 11.4988 52.7095 7.38513 55.19 8.02177C55.2136 8.02177 55.2372 7.9728 55.2609 7.94831L55.2372 7.92383C55.001 8.63394 56.1113 8.68291 55.9223 9.36853Z" fill="white"/>
<path d="M55.2306 7.95001C54.8054 7.2644 54.0494 6.99505 53.5533 6.40737C53.2698 6.08905 53.01 5.77072 53.4352 5.40343C53.8841 5.01165 54.1912 5.23202 54.451 5.69727C54.7582 6.26045 55.0889 6.79915 55.4669 7.31337C55.7976 7.72964 55.396 7.75412 55.2306 7.95001Z" fill="white"/>
<path d="M55.8965 9.39363L55.9675 9.41811L55.9202 9.36914L55.8965 9.39363Z" fill="white"/>
<path d="M158.661 9.81136C157.409 11.6478 156.37 13.166 155.283 14.7821C154.196 13.1905 153.157 11.6968 152.141 10.1787C152.047 10.2031 151.976 10.2276 151.881 10.2521C151.881 11.5009 151.858 12.7252 151.881 13.974C151.905 14.6842 151.739 15.0025 150.983 15.0025C150.204 15.0025 150.086 14.6352 150.086 13.9496C150.109 11.9172 150.086 9.88482 150.109 7.85244C150.109 7.46066 149.873 6.79952 150.44 6.70158C151.078 6.60363 151.834 6.3098 152.377 7.11785C153.299 8.51358 154.267 9.9093 155.283 11.403C156.204 10.0562 157.149 8.85639 157.882 7.50963C158.425 6.55466 159.157 6.60363 159.984 6.62812C160.386 6.62812 160.528 6.82401 160.528 7.24028C160.528 9.59098 160.504 11.9662 160.528 14.3169C160.528 15.1249 160.008 14.9535 159.559 14.978C159.063 15.0025 158.614 15.0515 158.638 14.2679C158.685 12.8722 158.661 11.5009 158.661 9.81136Z" fill="white"/>
<path d="M95.1545 14.9512C94.3749 14.9512 93.5717 15.0002 92.7921 14.9512C91.1621 14.8288 90.2171 13.7759 90.1935 12.0863C90.1699 11.1803 90.1699 10.2988 90.1935 9.39278C90.2171 7.7277 91.2093 6.60133 92.7921 6.55235C94.3513 6.50338 95.9341 6.50338 97.5169 6.55235C99.2178 6.62581 100.186 7.62976 100.257 9.39278C100.305 10.2743 100.305 11.1803 100.257 12.0863C100.186 13.8003 99.1706 14.8777 97.4933 14.9512C96.7373 15.0002 95.9341 14.9512 95.1545 14.9512ZM95.1782 13.0168C98.8635 12.9678 98.3438 13.58 98.4146 9.63765C98.4383 8.80511 98.0603 8.4623 97.2807 8.4623C95.9105 8.48678 94.5403 8.48678 93.1465 8.4623C92.4142 8.4623 92.0598 8.75613 92.0598 9.5397C92.1543 13.6044 91.4928 12.9678 95.1782 13.0168Z" fill="white"/>
<path d="M119.302 6.62729C120.129 6.62729 120.955 6.57831 121.782 6.62729C123.011 6.70075 123.932 7.63123 123.979 8.90453C124.027 10.1288 124.05 11.3532 123.979 12.553C123.908 13.8998 122.893 14.8792 121.452 14.9282C119.845 14.9772 118.239 14.9282 116.632 14.9527C115.994 14.9772 115.805 14.6588 115.853 14.0712C115.876 13.5814 115.853 13.0917 115.853 12.602C115.853 12.1367 115.805 11.8429 115.286 11.5491C114.648 11.1818 114.813 10.0554 115.144 9.90847C116.231 9.4922 115.853 8.63518 115.805 7.97404C115.735 6.84766 116.089 6.4314 117.176 6.55383C117.884 6.70075 118.593 6.62729 119.302 6.62729ZM119.822 8.46377C119.302 8.46377 118.806 8.46377 118.286 8.46377C117.884 8.46377 117.601 8.56172 117.601 9.07593C117.577 9.56566 117.719 9.88398 118.239 9.83501C118.853 9.78604 119.278 9.8595 119.278 10.7165C119.278 11.4756 119.018 11.745 118.31 11.6715C117.837 11.6225 117.601 11.8184 117.601 12.3571C117.601 12.9938 117.932 13.0917 118.428 13.0672C119.066 13.0427 119.68 13.0672 120.318 13.0672C122.255 13.0672 122.255 13.0672 122.255 11.0104C122.231 8.46377 122.231 8.46377 119.822 8.46377Z" fill="white"/>
<path d="M179.689 6.55273C180.753 6.57722 181.792 6.60171 182.855 6.62619C185.028 6.65068 186.21 8.51165 185.359 10.593C185.217 10.9358 185.028 11.2296 184.863 11.548C184.273 11.9887 183.611 12.1356 182.879 12.1112C181.39 12.1112 179.902 12.2336 178.414 12.1601C177.469 12.1112 177.303 12.5274 177.303 13.36C177.303 13.8742 177.729 14.6333 176.878 14.9026C175.862 15.1964 175.461 14.8781 175.461 13.7517C175.461 11.6949 175.484 9.61354 175.437 7.55668C175.414 6.82209 175.65 6.55273 176.382 6.57722C177.492 6.65068 178.579 6.57722 179.689 6.55273ZM180.469 10.2992C181.225 10.2992 181.957 10.2747 182.713 10.2992C183.375 10.3236 183.729 10.1033 183.729 9.3197C183.729 8.58511 183.351 8.43819 182.761 8.43819C181.272 8.46268 179.784 8.48716 178.272 8.43819C177.54 8.4137 177.327 8.68305 177.327 9.41765C177.327 10.1278 177.587 10.3481 178.225 10.2992C178.981 10.2747 179.713 10.2992 180.469 10.2992Z" fill="white"/>
<path d="M102.93 9.56468C102.93 11.1318 102.906 12.65 102.953 14.1436C102.977 14.9517 102.552 14.9517 101.985 14.9762C101.394 14.9762 101.016 14.9027 101.04 14.1436C101.087 12.0623 101.04 10.0054 101.063 7.92409C101.063 7.48333 100.78 6.8222 101.394 6.6508C102.056 6.4549 102.788 6.38145 103.355 7.04258C104.583 8.48728 105.812 9.883 107.04 11.3277C107.229 11.5481 107.395 11.7685 107.843 11.9154C107.843 10.4952 107.867 9.07495 107.843 7.65474C107.82 6.92015 107.938 6.52836 108.788 6.55285C109.592 6.57734 109.757 6.92015 109.757 7.65474C109.71 9.63814 109.757 11.646 109.733 13.6294C109.733 14.0702 110.017 14.7558 109.426 14.9027C108.788 15.0741 108.032 15.1966 107.465 14.5109C106.237 13.0418 104.961 11.5971 103.709 10.1279C103.52 9.90749 103.379 9.63814 102.93 9.56468Z" fill="white"/>
<path d="M165.632 14.9517C164.451 14.9517 163.269 14.9272 162.088 14.9517C161.474 14.9762 161.261 14.7314 161.285 14.0947C161.309 11.8664 161.309 9.61368 161.285 7.38542C161.285 6.77326 161.474 6.50391 162.088 6.50391C164.451 6.52839 166.813 6.52839 169.152 6.50391C169.884 6.50391 169.955 6.92018 169.955 7.50785C169.955 8.09553 169.908 8.53628 169.152 8.53628C167.474 8.51179 165.773 8.56077 164.096 8.51179C163.387 8.48731 163.104 8.73217 163.151 9.49125C163.198 10.3728 163.198 11.2788 163.151 12.1603C163.128 12.8214 163.387 12.9928 163.978 12.9928C165.655 12.9683 167.356 13.0173 169.034 12.9683C169.79 12.9438 169.955 13.2377 169.955 13.9478C169.955 14.6824 169.766 14.9762 169.01 14.9272C167.923 14.9272 166.766 14.9517 165.632 14.9517Z" fill="white"/>
<path d="M85.8317 14.9524C85.0049 14.9524 84.1781 14.9769 83.3512 14.9524C81.5086 14.9035 80.54 13.8506 80.5164 11.9651C80.5164 11.0591 80.4927 10.1776 80.5164 9.27159C80.5636 7.8024 81.4849 6.65154 82.8788 6.57808C84.8395 6.48013 86.8003 6.55359 88.7847 6.52911C89.6588 6.52911 89.399 7.14127 89.4462 7.631C89.4935 8.1697 89.4226 8.56148 88.7139 8.56148C86.9893 8.53699 85.2412 8.58597 83.5166 8.53699C82.6425 8.51251 82.3354 8.85532 82.359 9.76132C82.4299 13.5322 81.8865 12.969 85.4774 13.018C86.4932 13.0425 87.5327 13.067 88.5485 12.9935C89.3045 12.9446 89.4462 13.2874 89.4698 13.973C89.4698 14.7076 89.2808 15.0014 88.5485 14.9524C87.6508 14.9035 86.7295 14.9524 85.8317 14.9524Z" fill="white"/>
<path d="M129.815 14.953C128.989 14.953 128.162 14.9775 127.335 14.953C125.823 14.8795 124.925 13.949 124.902 12.4064C124.878 10.7903 124.925 9.1497 124.878 7.5336C124.854 6.70106 125.232 6.6276 125.87 6.6276C126.603 6.60311 126.815 6.87246 126.792 7.60706C126.744 9.07624 126.815 10.5454 126.768 12.0146C126.744 12.8227 127.051 13.092 127.807 13.0675C129.178 13.0186 130.571 13.0186 131.942 13.0675C132.745 13.092 132.957 12.7247 132.934 11.9656C132.91 10.5454 132.91 9.12521 132.934 7.68051C132.934 6.87246 134.422 5.79506 135.154 6.01544C135.485 6.11338 135.462 6.30927 135.391 6.55414C134.753 8.56203 134.824 10.6189 134.776 12.7002C134.753 13.9735 133.713 14.904 132.414 14.953C131.54 15.002 130.666 14.953 129.815 14.953Z" fill="white"/>
<path d="M186.184 11.5714C186.207 10.2736 186.254 8.97584 186.231 7.67806C186.231 7.04141 186.278 6.60066 187.081 6.60066C187.837 6.60066 188.003 6.8945 188.003 7.6046C188.026 9.7839 188.05 9.7839 190.129 9.7839C191.192 9.7839 192.255 9.75941 193.318 9.80838C194.05 9.83287 194.334 9.53903 194.263 8.80444C194.239 8.43714 194.287 8.06984 194.263 7.70255C194.192 6.96795 194.357 6.60066 195.208 6.57617C196.011 6.57617 196.2 6.8945 196.2 7.65358C196.153 9.51454 196.177 11.4 196.177 13.261C196.177 15.1219 196.011 15.2444 194.216 14.7302C194.287 14.2404 194.31 13.7507 194.169 13.2855C194.381 11.6449 194.357 11.6204 192.846 11.6204C191.546 11.6204 190.271 11.6449 188.971 11.6204C188.074 11.5959 187.837 11.9877 188.121 12.8202C188.097 13.1875 188.003 13.5548 188.026 13.8976C188.097 14.6567 187.885 14.9995 187.058 14.975C186.207 14.975 186.207 14.5098 186.231 13.8731C186.231 13.1141 186.207 12.355 186.184 11.5714Z" fill="white"/>
<path d="M140.94 6.62585C141.814 6.62585 142.665 6.65034 143.539 6.62585C144.2 6.60136 144.555 6.7238 144.531 7.53185C144.531 8.29093 144.271 8.51131 143.562 8.48682C141.956 8.43785 140.35 8.51131 138.743 8.46233C137.751 8.43785 137.444 8.85412 137.444 9.83357C137.515 13.531 137.042 12.9923 140.491 13.0168C141.554 13.0168 142.617 13.0658 143.681 13.0168C144.389 12.9923 144.555 13.3106 144.507 13.9473C144.484 14.486 144.555 15.0002 143.751 14.9757C141.909 14.9267 140.066 15.0002 138.223 14.9512C136.641 14.9023 135.696 13.8249 135.672 12.2332C135.648 11.1803 135.648 10.1274 135.672 9.07449C135.719 7.67877 136.617 6.74828 137.987 6.65034C138.058 6.65034 138.153 6.65034 138.223 6.65034C139.145 6.62585 140.042 6.62585 140.94 6.62585Z" fill="white"/>
<path d="M134.869 23.179C134.184 24.1584 133.523 25.1624 132.79 26.1908C132.082 25.1624 131.396 24.1829 130.499 22.8851C130.499 24.0115 130.475 24.7951 130.499 25.5786C130.522 26.0684 130.404 26.3377 129.861 26.3377C129.341 26.3377 129.176 26.1418 129.199 25.6276C129.223 24.2808 129.199 22.9341 129.223 21.6118C129.223 21.2935 129.01 20.7793 129.507 20.6813C129.979 20.5834 130.499 20.5099 130.853 21.0731C131.444 22.0281 132.105 22.9341 132.79 23.938C133.475 22.9586 134.113 22.0771 134.657 21.1466C135.035 20.5344 135.554 20.5099 136.098 20.6568C136.641 20.7793 136.381 21.3425 136.381 21.6853C136.405 22.9831 136.381 24.2808 136.405 25.5786C136.405 26.0928 136.287 26.3132 135.743 26.3132C135.223 26.3132 135.058 26.0928 135.082 25.5786C135.105 24.7951 135.082 23.987 135.082 23.179C135.011 23.2034 134.94 23.2034 134.869 23.179Z" fill="white"/>
<path d="M122.793 26.3128C122.746 26.3128 122.722 26.3128 122.675 26.3128C118.753 26.5576 119.249 25.1864 119.297 22.3704C119.297 21.293 119.982 20.6564 121.045 20.6319C122.273 20.5829 123.478 20.6319 124.706 20.6074C125.203 20.6074 125.392 20.7299 125.392 21.293C125.392 21.8807 125.132 21.9542 124.683 21.9542C123.62 21.9297 122.557 21.9787 121.494 21.9297C120.856 21.9052 120.596 22.1256 120.572 22.8357C120.501 25.0395 120.478 25.0395 122.557 25.0395C122.604 25.0395 122.628 25.0395 122.675 25.0395C123.147 24.8925 123.974 25.4068 124.021 24.6232C124.069 23.8396 123.242 24.1824 122.817 24.158C122.297 24.1335 122.297 23.8151 122.273 23.4478C122.25 22.9581 122.462 22.8602 122.887 22.8357C125.368 22.6153 125.321 22.6153 125.392 25.1864C125.415 26.1658 125.132 26.4842 124.21 26.3617C123.738 26.2638 123.265 26.3128 122.793 26.3128Z" fill="white"/>
<path d="M108.84 20.6074C109.312 20.6074 109.785 20.6074 110.257 20.6074C111.485 20.6319 112.123 21.2686 112.218 22.5174C112.218 22.5663 112.218 22.5908 112.218 22.6398C112.241 25.3823 112.454 26.5331 108.887 26.3128C108.84 26.3128 108.816 26.3128 108.769 26.3128C105.509 26.3128 105.225 26.0189 105.343 22.6398C105.39 21.293 106.005 20.6564 107.304 20.6074C107.824 20.6074 108.32 20.6074 108.84 20.6074ZM108.721 25.015C111.131 24.966 110.918 25.3578 110.942 23.5458C110.966 21.9052 110.942 21.9052 109.336 21.9052C108.91 21.9052 108.462 21.9542 108.036 21.9052C106.855 21.7338 106.548 22.248 106.619 23.3989C106.713 24.9905 106.643 25.015 108.249 25.015C108.391 25.015 108.556 25.015 108.721 25.015Z" fill="white"/>
<path d="M149.777 20.6074C150.438 20.6074 151.123 20.6074 151.785 20.6074C152.942 20.6319 153.604 21.3175 153.627 22.4929C153.651 23.6437 152.966 24.4028 151.832 24.4518C151.052 24.4763 150.249 24.5008 149.469 24.4518C148.501 24.3783 147.745 24.4273 147.958 25.7741C148.052 26.3373 147.627 26.3128 147.249 26.3128C146.894 26.3128 146.658 26.2148 146.658 25.7741C146.682 24.2314 146.658 22.6888 146.658 21.1216C146.658 20.6564 146.918 20.6074 147.272 20.6074C148.123 20.6319 148.95 20.6074 149.777 20.6074ZM150.084 23.1295C150.627 23.1295 151.17 23.1295 151.714 23.1295C152.068 23.1295 152.304 23.0071 152.304 22.5908C152.304 22.2235 152.21 21.9297 151.808 21.9297C150.674 21.9052 149.54 21.9297 148.43 21.9297C147.981 21.9297 148.005 22.2725 147.981 22.6153C147.981 22.9581 148.123 23.1295 148.454 23.1295C148.997 23.1295 149.54 23.1295 150.084 23.1295Z" fill="white"/>
<path d="M98.6525 23.3499C98.6525 20.6074 98.6525 20.6074 101.322 20.6074C101.369 20.6074 101.393 20.6074 101.44 20.6074C104.535 20.6074 105.338 21.6359 104.7 24.7946C104.535 25.6761 104.015 26.2638 103.094 26.2883C101.795 26.3373 100.519 26.2883 99.2195 26.3128C98.747 26.3128 98.6289 26.0924 98.6289 25.6516C98.6762 24.8926 98.6525 24.1335 98.6525 23.3499ZM101.7 25.015C102.196 24.8436 103.023 25.3823 103.33 24.6967C103.661 23.9376 103.637 22.9826 103.33 22.199C103.117 21.6359 102.409 21.9052 101.936 21.9052C99.6211 21.9297 99.9755 21.44 99.9046 24.0355C99.881 24.8925 100.188 25.1129 100.92 25.015C101.133 24.9905 101.369 25.015 101.7 25.015Z" fill="white"/>
<path d="M154 23.4225C154 22.7613 154 22.1247 154 21.4635C154 20.9983 153.953 20.582 154.638 20.582C155.276 20.582 155.394 20.9248 155.3 21.4146C155.087 22.6634 155.63 22.9817 156.717 22.8103C157.072 22.7613 157.426 22.7613 157.78 22.8103C159.009 22.9817 159.883 22.8103 159.552 21.1697C159.458 20.6555 159.788 20.582 160.19 20.582C160.615 20.582 160.851 20.6555 160.828 21.1697C160.804 22.6634 160.804 24.1815 160.828 25.6752C160.828 26.1649 160.662 26.3119 160.214 26.3119C159.717 26.3119 159.434 26.1649 159.528 25.6262C159.788 24.2305 159.08 23.9612 157.946 24.1081C157.568 24.1571 157.166 24.1571 156.764 24.1081C155.63 23.9367 155.04 24.304 155.276 25.5773C155.371 26.067 155.182 26.3119 154.638 26.3119C154.119 26.3119 153.953 26.116 153.977 25.5773C154.024 24.8916 154 24.1571 154 23.4225Z" fill="white"/>
<path d="M181.853 26.3145C181.805 26.3145 181.782 26.3145 181.734 26.3145C178.687 26.3145 177.86 25.286 178.522 22.1028C178.711 21.1723 179.325 20.6336 180.27 20.6336C181.357 20.6091 182.467 20.6091 183.554 20.6336C184.64 20.6826 185.325 21.3437 185.325 22.4701C185.396 25.3595 185.727 26.5593 181.853 26.3145ZM181.923 25.0167C182.443 25.0167 182.939 25.0167 183.459 25.0167C183.813 25.0167 184.05 24.8942 184.144 24.5269C184.664 22.7394 184.097 21.9069 182.325 21.9069C181.711 21.9069 181.073 21.9069 180.459 21.9069C180.034 21.9069 179.845 22.1028 179.774 22.5435C179.419 24.6249 179.726 25.0167 181.711 25.0167C181.758 25.0167 181.829 25.0167 181.923 25.0167Z" fill="white"/>
<path d="M117.391 24.4532C117.391 23.1554 117.415 22.2249 117.391 21.2944C117.367 20.7312 117.604 20.6088 118.1 20.6088C118.572 20.6088 118.714 20.8047 118.714 21.2699C118.69 22.6167 118.714 23.9634 118.69 25.2857C118.69 25.6285 118.926 26.1917 118.36 26.2896C117.911 26.3631 117.438 26.4121 117.084 25.9223C116.304 24.9429 115.477 24.0369 114.674 23.0819C114.556 22.935 114.462 22.7391 114.084 22.7881C114.084 23.7186 114.084 24.6735 114.084 25.6285C114.084 26.0448 114.013 26.3141 113.517 26.3141C112.997 26.3141 112.832 26.1427 112.832 25.604C112.855 24.3062 112.832 23.0085 112.855 21.7107C112.855 21.3434 112.595 20.8047 113.091 20.6333C113.635 20.4619 114.131 20.5843 114.556 21.0985C115.359 22.1759 116.281 23.1799 117.391 24.4532Z" fill="white"/>
<path d="M66.7131 12.5039C67.1856 12.1611 67.6345 11.7938 68.107 11.451C68.5086 11.1571 68.8866 11.2061 69.2645 11.5244C69.6898 11.8917 69.4772 12.2345 69.3118 12.5774C69.1228 13.0181 68.9102 13.4344 68.7212 13.8751C68.6976 13.9731 68.6976 14.071 68.6739 14.169C68.7684 14.1445 68.8629 14.12 68.981 14.0955C69.17 14.12 69.4535 14.0955 69.5008 14.2179C69.6661 14.5363 69.3354 14.4873 69.1937 14.5118C68.4613 14.6097 68.0597 15.0995 67.6817 15.7116C66.6423 17.3767 65.5792 19.0663 64.02 20.2906C63.2641 20.9027 62.4136 21.6373 61.3741 20.9027C60.7363 20.462 61.0906 19.2866 62.012 18.0868C62.6498 17.2787 63.642 16.8625 64.1854 15.9565H64.1618C66.5714 15.1974 67.6581 14.0465 67.8235 12.0631C67.5164 12.2835 67.2329 12.5039 66.9494 12.6998C66.8785 12.6508 66.8076 12.5774 66.7131 12.5039ZM66.5478 15.3933C64.5634 16.4217 62.9806 17.4501 61.9411 19.2132C61.7521 19.5315 61.4923 19.9967 61.8702 20.3151C62.1774 20.5599 62.5553 20.2906 62.8388 20.0702C64.3271 18.8459 65.5083 17.3767 66.5478 15.3933Z" fill="white"/>
<path d="M177.978 23.5722C177.978 24.2333 177.955 24.8699 177.978 25.5311C178.002 26.0698 177.907 26.3636 177.293 26.3636C176.726 26.3391 176.702 26.0698 176.655 25.6045C176.632 25.1393 176.962 24.3557 176.348 24.2333C175.45 24.0619 174.458 24.1109 173.56 24.2823C173.135 24.3557 173.372 25.0658 173.372 25.5066C173.348 25.9718 173.419 26.3881 172.734 26.3636C172.025 26.3636 172.119 25.8984 172.119 25.4821C172.119 24.1109 172.143 22.7151 172.119 21.3439C172.119 20.8297 172.261 20.6338 172.781 20.6338C173.277 20.6338 173.348 20.8542 173.372 21.2949C173.395 21.8091 173.112 22.6417 173.56 22.7396C174.505 22.9355 175.521 22.911 176.49 22.7641C176.939 22.6906 176.679 21.9805 176.702 21.5643C176.726 21.0501 176.655 20.6093 177.411 20.6338C178.096 20.6583 178.025 21.0745 178.025 21.5398C177.978 22.1764 177.978 22.8621 177.978 23.5722Z" fill="white"/>
<path d="M94.8724 23.547C94.8724 24.2327 94.8488 24.9428 94.8724 25.6284C94.8961 26.1426 94.7307 26.3385 94.211 26.3385C93.7149 26.314 93.4314 26.1671 93.5259 25.6284C93.7857 24.2572 93.1006 23.9388 91.9667 24.1102C91.6596 24.1592 91.3288 24.1347 91.0217 24.1102C89.9114 24.0123 88.9192 24.0368 89.2736 25.7019C89.368 26.1671 89.1082 26.3385 88.6593 26.3385C88.2341 26.3385 88.0215 26.2161 88.0215 25.7263C88.0451 24.2327 88.0451 22.7145 88.0215 21.2208C88.0215 20.6821 88.2813 20.6576 88.683 20.6576C89.1554 20.6332 89.3444 20.8535 89.2736 21.2943C88.9901 22.739 89.6752 23.0573 90.88 22.8614C91.1871 22.8125 91.5178 22.8369 91.8249 22.8614C92.9589 22.9839 93.8802 22.9104 93.5495 21.2943C93.4314 20.7066 93.833 20.6821 94.2582 20.6576C94.8252 20.6087 94.8961 20.9025 94.8961 21.3922C94.8724 22.0779 94.8724 22.8125 94.8724 23.547Z" fill="white"/>
<path d="M82.8472 22.4683C82.8472 23.7416 82.8472 24.6965 82.8472 25.627C82.8472 26.0433 82.7999 26.3126 82.2802 26.3126C81.7841 26.3126 81.5715 26.1657 81.5951 25.627C81.6187 24.2803 81.5951 22.9335 81.6187 21.6113C81.6187 21.2929 81.3825 20.8032 81.8786 20.6808C82.3274 20.5583 82.7999 20.5828 83.1543 21.0236C84.0756 22.1255 85.0206 23.1784 86.1545 24.4762C86.1545 23.2274 86.1545 22.2724 86.1545 21.3174C86.1545 20.9011 86.2018 20.6318 86.7215 20.6318C87.194 20.6318 87.4302 20.7542 87.4302 21.3174C87.4066 22.6152 87.4302 23.913 87.4066 25.2108C87.4066 25.5781 87.6664 26.1168 87.1467 26.2882C86.6034 26.4596 86.1073 26.3371 85.682 25.8229C84.8316 24.721 83.9102 23.7416 82.8472 22.4683Z" fill="white"/>
<path d="M139.946 20.6346C140.702 20.6346 141.434 20.6346 142.19 20.6346C142.592 20.6346 142.875 20.6591 142.851 21.1978C142.851 21.6876 142.757 21.9569 142.214 21.9324C141.198 21.9079 140.158 21.9814 139.143 21.9079C138.339 21.859 138.15 22.1773 138.15 22.9609C138.15 25.0422 138.127 25.0422 140.111 25.0422C140.82 25.0422 141.529 25.0667 142.237 25.0422C142.686 25.0177 142.875 25.1646 142.851 25.6544C142.828 26.0706 142.781 26.34 142.285 26.34C140.702 26.3155 139.143 26.3155 137.56 26.34C136.993 26.34 136.922 26.0951 136.922 25.6054C136.945 24.1852 136.945 22.765 136.922 21.3447C136.922 20.8305 137.064 20.6102 137.583 20.6346C138.363 20.6591 139.143 20.6346 139.946 20.6346Z" fill="white"/>
<path d="M164.73 26.3127C161.47 26.3127 161.47 26.3127 161.494 22.9336C161.494 22.3704 161.517 21.8072 161.494 21.2196C161.47 20.7298 161.683 20.6074 162.132 20.6074C162.604 20.6074 162.746 20.7788 162.746 21.244C162.722 22.2235 162.769 23.203 162.722 24.1579C162.699 24.7456 162.84 25.0639 163.502 25.015C164.4 24.966 165.321 24.966 166.219 25.015C166.88 25.0639 167.022 24.7701 166.998 24.1579C166.951 23.2764 166.975 22.3704 166.998 21.4889C166.998 21.0726 166.856 20.6074 167.565 20.5829C168.345 20.5584 168.227 21.0482 168.227 21.5379C168.227 22.4684 168.227 23.3989 168.227 24.3293C168.203 25.7985 167.754 26.2638 166.313 26.2883C165.746 26.3127 165.226 26.3127 164.73 26.3127Z" fill="white"/>
<path d="M64.1874 15.9796C63.2424 15.9551 62.8408 15.4409 62.9353 14.486C63.1243 12.4536 64.4 11.1313 65.7466 9.88251C66.4081 9.27035 67.2349 8.82959 68.0854 8.51127C69.6209 7.94808 70.5186 8.65819 70.4714 10.4457C70.3533 9.68662 69.8572 9.61316 69.2666 9.63764C67.4475 9.78456 64.6126 12.4046 64.1874 14.437C65.0851 13.7514 65.912 13.1147 66.7388 12.5026C66.8097 12.576 66.9042 12.674 66.975 12.7474C66.6207 13.1147 66.2191 13.433 65.9356 13.8493C65.3686 14.5839 64.4 14.9512 64.1874 15.9796Z" fill="white"/>
<path d="M191.542 23.057C191.708 23.4978 191.849 23.963 192.298 24.3793C192.794 23.3998 193.338 22.4938 193.716 21.5144C194.07 20.5839 194.613 20.437 195.488 20.7063C194.802 22.151 194.141 23.5467 193.48 24.9669C193.314 25.2363 193.172 25.5301 193.007 25.7995C192.535 26.5586 191.826 26.5586 191.401 25.7505C190.55 24.1099 189.747 22.4448 188.896 20.7553C189.841 20.388 190.385 20.6328 190.716 21.5633C190.975 22.102 191.283 22.5673 191.542 23.057Z" fill="white"/>
<path d="M76.3278 20.6343C77.1074 20.6343 77.9106 20.6588 78.6902 20.6343C79.1154 20.6343 79.3281 20.7077 79.3281 21.222C79.3281 21.7362 79.1863 21.9076 78.6666 21.9321C76.753 22.0545 76.7767 22.079 76.7767 24.0624C76.7767 24.6011 76.753 25.1153 76.7767 25.654C76.8003 26.2172 76.5641 26.3396 76.068 26.3396C75.5482 26.3396 75.501 26.0458 75.5246 25.654C75.5482 25.1643 75.5246 24.6745 75.5246 24.1848C75.5246 23.4992 75.7136 22.6667 75.4065 22.1524C75.0994 21.6137 74.2489 21.981 73.6347 21.9321C73.115 21.9076 73.0913 21.6137 73.0913 21.222C73.0677 20.7077 73.3276 20.6098 73.7292 20.6343C74.6033 20.6343 75.4537 20.6343 76.3278 20.6343Z" fill="white"/>
<path d="M166.972 9.80908C167.492 9.80908 167.988 9.83356 168.508 9.80908C169.24 9.73562 169.547 9.93151 169.547 10.7885C169.547 11.6456 169.122 11.67 168.508 11.67C167.374 11.6456 166.24 11.6456 165.082 11.67C164.397 11.6945 164.326 11.3028 164.326 10.7396C164.326 10.2009 164.373 9.76011 165.059 9.80908C165.72 9.83356 166.358 9.80908 166.972 9.80908Z" fill="white"/>
<path d="M195.75 25.9935C195.774 24.4509 195.797 22.9327 195.797 21.3901C195.797 20.8514 195.892 20.582 196.506 20.582C197.097 20.582 197.12 20.9248 197.097 21.3656C197.097 22.7858 197.097 24.1815 197.097 25.6017C197.097 25.9446 197.049 26.2384 196.695 26.3608C196.388 26.2384 195.939 26.4833 195.75 25.9935Z" fill="white"/>
<path d="M80.963 23.5219C80.963 24.2076 80.9394 24.8932 80.963 25.6033C80.9866 26.1175 80.8449 26.3379 80.3015 26.3134C79.8054 26.3134 79.7109 26.0685 79.7109 25.6278C79.7346 24.1586 79.7346 22.6894 79.7109 21.2447C79.7109 20.7795 79.8291 20.6081 80.3015 20.5836C80.8449 20.5591 80.963 20.8284 80.9394 21.3182C80.963 22.0528 80.963 22.7873 80.963 23.5219Z" fill="white"/>
<path d="M140.802 22.8126C141.157 22.8126 141.511 22.8371 141.865 22.8126C142.361 22.7637 142.574 22.9351 142.55 23.4982C142.527 23.9635 142.361 24.1349 141.913 24.1349C141.18 24.1104 140.424 24.1104 139.692 24.1349C139.172 24.1594 139.03 23.9635 139.03 23.4248C139.007 22.8126 139.338 22.7881 139.763 22.8126C140.117 22.8371 140.448 22.8126 140.802 22.8126Z" fill="white"/>
<path d="M131.989 4.34926C131.114 5.30423 130.429 6.35714 128.988 5.79396C129.461 4.34926 130.477 4.00645 131.989 4.34926Z" fill="white"/>
<path d="M166.5 16.3474C166.642 17.082 166.241 17.2044 165.626 17.2044C165.036 17.2044 164.705 17.1065 164.705 16.3719C164.705 15.5883 164.989 15.4414 165.674 15.4414C166.335 15.4414 166.619 15.6618 166.5 16.3474Z" fill="white"/>
<path d="M183.506 20.1929C182.42 19.9971 181.475 19.8257 180.482 20.2419C181.238 18.6503 182.396 18.6013 183.506 20.1929Z" fill="white"/>
<path d="M80.9174 19.3346C80.3505 18.9673 79.6418 19.4081 79.0039 18.8694C79.7362 18.5511 80.3505 18.649 80.9411 18.7225C81.2954 18.747 81.4608 19.0408 81.4608 19.4326C81.4608 19.7999 81.2718 20.0692 80.9174 20.1182C80.5158 20.1917 80.0906 20.2406 79.689 20.0203C79.9252 19.2857 80.6103 19.8978 80.9174 19.3346Z" fill="white"/>
<path d="M109.349 20.0448C108.404 20.3387 107.908 19.8489 107.436 19.2123C108.64 19.0164 108.64 19.0164 109.349 20.0448Z" fill="white"/>
<path d="M139.93 26.7073C140.403 26.6339 140.497 26.9032 140.497 27.344C140.521 27.9561 140.214 27.9561 139.789 27.9561C139.245 27.9806 139.293 27.6378 139.269 27.246C139.245 26.7318 139.529 26.6829 139.93 26.7073Z" fill="white"/>
<path d="M182.519 27.2931C182.59 27.8073 182.401 27.9542 181.952 27.9787C181.433 28.0032 181.314 27.7828 181.314 27.2686C181.314 26.7299 181.574 26.7054 181.976 26.7054C182.425 26.6809 182.637 26.8523 182.519 27.2931Z" fill="white"/>
<path d="M165.389 20.0454C164.585 20.3392 164.066 19.9474 163.664 19.2863C164.704 18.968 164.704 18.968 165.389 20.0454Z" fill="white"/>
<path d="M226.691 6.55367C227.566 6.55367 228.416 6.48021 229.266 6.57815C230.826 6.72507 231.747 7.7535 231.818 9.3696C231.865 10.3001 231.841 11.2306 231.818 12.1611C231.771 13.7282 230.778 14.8791 229.266 14.9525C227.613 15.026 225.959 15.026 224.329 14.9525C222.723 14.8791 221.778 13.7772 221.754 12.0876C221.73 11.2061 221.73 10.3001 221.754 9.41858C221.801 7.68004 222.793 6.62712 224.471 6.55367C225.203 6.50469 225.959 6.52918 226.691 6.55367C226.691 6.52918 226.691 6.52918 226.691 6.55367ZM226.81 13.0181C230.424 12.9691 229.928 13.5813 229.975 9.5655C229.975 9.51652 229.975 9.49204 229.975 9.44306C229.975 8.78193 229.621 8.46361 229.007 8.46361C227.518 8.46361 226.03 8.46361 224.542 8.46361C223.998 8.46361 223.715 8.75744 223.644 9.34512C223.219 12.7977 223.384 12.9936 226.691 12.9936C226.739 13.0181 226.762 13.0181 226.81 13.0181Z" fill="white"/>
<path d="M201.936 14.9523C201.061 14.9523 200.211 14.9768 199.337 14.9523C197.849 14.8789 196.951 13.9239 196.927 12.3813C196.904 10.7652 196.951 9.12457 196.904 7.50847C196.88 6.77387 197.187 6.62695 197.801 6.62695C198.439 6.62695 198.841 6.67593 198.817 7.53295C198.746 9.02663 198.817 10.5448 198.794 12.0385C198.77 12.7731 199.03 13.0669 199.738 13.0424C201.156 13.0179 202.573 13.0179 203.991 13.0424C204.7 13.0669 204.983 12.7731 204.959 12.0385C204.936 10.5448 205.007 9.02663 204.936 7.53295C204.912 6.70041 205.29 6.62695 205.928 6.62695C206.542 6.62695 206.873 6.74939 206.849 7.50847C206.802 9.10009 206.873 10.6672 206.826 12.2588C206.778 13.9974 205.833 14.9279 204.156 14.9768C203.424 14.9768 202.691 14.9523 201.936 14.9523Z" fill="white"/>
<path d="M221.03 10.8123C221.03 11.9632 221.006 13.0896 221.03 14.2159C221.054 15.073 220.51 14.9505 220.014 14.9505C219.494 14.975 219.046 14.926 219.14 14.1915C219.14 14.1425 219.14 14.118 219.14 14.069C219.022 11.6204 219.022 11.6204 216.589 11.6204C214.297 11.6204 214.274 11.6204 214.25 13.9466C214.25 14.6567 214.085 14.9505 213.329 14.9505C212.525 14.9505 212.454 14.5343 212.454 13.8976C212.478 11.7918 212.478 9.66146 212.454 7.55563C212.431 6.79655 212.714 6.57617 213.423 6.57617C214.155 6.57617 214.25 6.91898 214.25 7.55563C214.297 9.7839 214.321 9.7839 216.471 9.7839C216.589 9.7839 216.707 9.7839 216.825 9.7839C219.022 9.7839 219.069 9.7839 219.116 7.45768C219.14 6.72309 219.424 6.57617 220.038 6.57617C220.676 6.57617 221.124 6.62514 221.03 7.48217C220.983 8.04536 221.03 8.60855 221.03 9.19622C221.03 9.75941 221.03 10.2736 221.03 10.8123Z" fill="white"/>
<path d="M223.79 20.6074C227.097 20.6074 227.168 20.6564 227.168 24.0845C227.168 24.6232 227.144 25.1374 227.168 25.6761C227.192 26.1414 227.073 26.3372 226.577 26.3372C226.105 26.3372 225.798 26.2148 225.892 25.6516C226.081 24.5742 225.514 24.4518 224.687 24.5253C224.144 24.5742 223.577 24.5253 223.034 24.5497C222.585 24.5742 222.396 24.4273 222.42 23.9376C222.42 23.4234 222.538 23.1785 223.081 23.2275C223.743 23.252 224.428 23.2275 225.089 23.2275C225.491 23.2275 225.892 23.2275 225.892 22.6153C225.892 22.0521 225.585 21.9297 225.136 21.9542C225.065 21.9542 224.971 21.9542 224.9 21.9542C221.687 21.8317 221.711 21.8317 221.664 25.1374C221.664 25.5782 222.018 26.2883 221.12 26.3372C220.695 26.3617 220.341 26.3372 220.364 25.7251C220.388 24.5987 220.317 23.4478 220.388 22.3215C220.459 21.2441 221.026 20.6074 222.136 20.6564C222.703 20.6319 223.246 20.6074 223.79 20.6074Z" fill="white"/>
<path d="M233.477 23.1066C233.004 23.8167 232.532 24.5268 232.036 25.2369C231.28 26.3388 231.256 26.3633 230.524 25.1879C230.122 24.5023 229.768 23.7922 229.059 22.9841C229.059 24.037 229.035 24.8451 229.059 25.6776C229.083 26.1429 228.941 26.3388 228.468 26.3388C228.043 26.3388 227.807 26.2408 227.807 25.7266C227.831 24.2329 227.807 22.7148 227.807 21.2211C227.807 20.9762 227.783 20.7069 228.114 20.6579C228.539 20.6089 228.988 20.56 229.272 21.0007C229.744 21.6864 230.24 22.372 230.666 23.0821C231.02 23.6698 231.327 23.6942 231.729 23.18C232.225 22.5189 232.792 21.9067 233.217 21.1721C233.595 20.5355 234.115 20.56 234.634 20.6579C235.225 20.7559 234.918 21.3191 234.941 21.6619C234.989 22.9596 234.941 24.2574 234.965 25.5552C234.965 25.996 234.941 26.3388 234.351 26.3143C233.807 26.3143 233.689 26.0694 233.713 25.5797C233.737 24.7961 233.713 23.9881 233.713 23.2045C233.642 23.1555 233.548 23.1311 233.477 23.1066Z" fill="white"/>
<path d="M218.479 24.3787C218.479 23.2523 218.479 22.3708 218.479 21.5137C218.479 21.073 218.408 20.6322 219.093 20.6077C219.849 20.5833 219.778 21.0485 219.778 21.5627C219.778 22.787 219.802 24.0114 219.755 25.2112C219.755 25.5785 220.014 26.1172 219.495 26.2641C218.951 26.4355 218.455 26.3621 218.03 25.8234C217.18 24.7704 216.258 23.7665 215.266 22.6156C215.006 23.6441 215.172 24.5501 215.124 25.4316C215.101 25.8723 215.242 26.3376 214.534 26.3376C213.872 26.3376 213.896 25.9458 213.896 25.4805C213.896 24.1828 213.872 22.885 213.919 21.5872C213.919 21.2689 213.683 20.7791 214.179 20.6567C214.628 20.5588 215.101 20.5343 215.479 20.975C216.282 21.93 217.085 22.8605 217.912 23.791C218.03 23.9379 218.172 24.0603 218.479 24.3787Z" fill="white"/>
<path d="M200.66 20.6331C201.416 20.6331 202.149 20.6331 202.905 20.6331C203.306 20.6331 203.566 20.6821 203.566 21.2208C203.566 21.735 203.448 21.9554 202.905 21.9309C201.936 21.9064 200.944 21.9554 199.952 21.9064C199.172 21.8574 198.841 22.0778 198.865 22.9593C198.889 25.0162 198.841 25.0162 200.826 25.0162C201.534 25.0162 202.243 25.0407 202.952 25.0162C203.401 24.9917 203.59 25.1386 203.566 25.6283C203.566 26.0691 203.495 26.314 202.999 26.314C201.44 26.2895 199.857 26.2895 198.298 26.314C197.731 26.314 197.66 26.0446 197.66 25.5794C197.684 24.1592 197.684 22.7389 197.66 21.3187C197.66 20.78 197.826 20.6086 198.322 20.6331C199.078 20.6576 199.857 20.6331 200.66 20.6331Z" fill="white"/>
<path d="M207.016 21.9052C206.236 21.9052 205.457 21.8807 204.677 21.9052C204.181 21.9297 203.992 21.7583 203.992 21.2196C203.992 20.7299 204.205 20.6074 204.63 20.6074C206.26 20.6319 207.914 20.6319 209.544 20.6074C210.04 20.6074 210.229 20.7543 210.229 21.293C210.229 21.9052 209.898 21.9052 209.473 21.9052C208.646 21.9052 207.819 21.9052 207.016 21.9052Z" fill="white"/>
<path d="M229.013 5.84337C228.28 5.91683 227.619 6.11272 227.099 5.50056C226.91 5.28018 226.674 5.30467 226.509 5.50056C225.965 6.1372 225.28 5.84337 224.43 5.94131C225.044 5.18223 225.209 4.32521 226.225 4.20278C227.454 4.08034 228.399 4.47213 229.013 5.84337Z" fill="white"/>
<path d="M206.452 24.551C206.452 24.1348 206.476 23.743 206.452 23.3267C206.428 22.8615 206.712 22.8125 207.066 22.8125C207.444 22.8125 207.775 22.837 207.751 23.3757C207.728 24.1103 207.728 24.8449 207.751 25.555C207.775 26.0202 207.704 26.3141 207.137 26.3385C206.523 26.363 206.405 26.0692 206.452 25.5305C206.452 25.2122 206.428 24.8694 206.452 24.551Z" fill="white"/>
<path d="M201.372 24.1103C200.971 24.1103 200.593 24.1103 200.191 24.1103C199.719 24.1103 199.742 23.792 199.719 23.4491C199.719 23.0819 199.742 22.8125 200.191 22.8125C201.018 22.837 201.845 22.837 202.672 22.8125C203.073 22.8125 203.215 22.9839 203.215 23.4002C203.215 23.8164 203.144 24.1103 202.648 24.1103C202.247 24.0858 201.821 24.1103 201.372 24.1103Z" fill="white"/>
<path d="M199.766 4.37607C201.23 3.98428 202.223 4.37607 202.719 5.77179C201.301 6.38395 200.64 5.30655 199.766 4.37607Z" fill="white"/>
<path d="M226.818 15.4671C227.479 15.3447 227.692 15.663 227.716 16.3486C227.739 17.0832 227.408 17.2057 226.794 17.2301C226.133 17.2301 225.896 17.0342 225.896 16.3241C225.896 15.614 226.18 15.3692 226.818 15.4671Z" fill="white"/>
<path d="M202.155 20.1666C201.068 20.0197 200.123 19.8238 199.107 20.2401C199.958 18.6975 201.068 18.673 202.155 20.1666Z" fill="white"/>
<path d="M201.179 27.2928C201.25 27.807 201.061 27.9539 200.612 27.9539C200.093 27.9784 199.975 27.758 199.975 27.2683C199.975 26.7296 200.234 26.7051 200.636 26.7051C201.061 26.7051 201.274 26.852 201.179 27.2928Z" fill="white"/>
<path d="M21.4688 22.4445C20.5475 25.2605 19.3191 27.6357 16.8858 29.2273C17.3819 29.4966 17.7835 29.2028 18.1851 29.0314C20.453 27.9785 22.2248 26.2889 23.3588 24.0362C24.0202 22.6894 24.8707 22.2242 26.2173 22.4445C26.4771 22.4935 26.7606 22.3466 27.0913 22.6649C24.3273 27.1949 20.3585 29.7905 15.1849 29.9864C9.4915 30.2067 5.16831 27.5867 1.9082 22.4445C2.90041 22.4445 3.68 22.469 4.43597 22.4445C5.07381 22.4201 5.16831 22.9832 5.38093 23.375C6.65662 25.7992 8.35754 27.7581 10.8144 28.9334C11.1688 29.1049 11.4995 29.3742 12.0665 29.2518C11.4995 28.6886 10.9562 28.2233 10.4601 27.7091C9.27888 26.4113 8.57016 24.8197 7.90869 23.2036C7.67245 22.6159 7.81419 22.3711 8.45204 22.4445C8.8064 22.469 9.16076 22.4935 9.51512 22.4445C10.2475 22.3466 10.5309 22.6649 10.6963 23.3995C11.0507 25.1625 11.5468 26.8766 12.5626 28.3703C12.9406 28.909 13.295 29.5211 14.1927 29.5701C13.6966 27.6602 13.5312 25.7747 13.295 23.9137C13.1532 22.7874 13.4131 22.1997 14.6179 22.4201C14.8069 22.4445 15.0195 22.4445 15.2085 22.4201C15.8227 22.3466 16.0117 22.567 15.9645 23.2526C15.8227 25.3584 15.6101 27.4398 15.0195 29.5456C16.0353 29.4966 16.4133 28.7376 16.8149 28.1009C17.6181 26.8276 18.1615 25.4074 18.3741 23.9137C18.5631 22.567 19.1773 22.2242 20.3349 22.4201C20.6184 22.4935 20.9727 22.4445 21.4688 22.4445Z" fill="white"/>
<path d="M20.4414 20.7793C22.9692 17.9144 24.5756 14.8291 25.2607 11.2051C25.6151 12.8702 26.0403 14.5108 25.4969 16.2249C25.4261 16.4452 25.2607 16.6901 25.2843 16.9105C25.3079 17.3512 25.5914 17.7185 25.993 17.7675C26.4183 17.8165 26.371 17.3268 26.3946 17.0329C26.5836 14.7557 26.5128 12.4784 25.8749 10.2747C25.6623 9.54007 25.6151 9.24624 26.5364 9.19726C27.694 9.1238 28.2137 9.56456 28.4972 10.6909C29.3004 13.8007 29.2768 16.8615 28.2846 19.9223C28.1428 20.3386 28.0483 20.9018 27.4577 20.7549C26.8671 20.5835 26.1112 21.318 25.6387 20.2162C25.1662 19.1143 23.9378 19.0653 23.2999 20.0692C22.6148 21.1956 21.6226 20.6814 20.4414 20.7793Z" fill="white"/>
<path d="M11.5725 12.9183C11.2654 15.2201 11.3835 17.4728 11.5253 19.75C11.5489 20.2398 11.7143 20.9009 10.8638 20.803C10.2023 20.7295 9.32823 21.1947 9.21011 19.897C8.87938 16.6403 8.85575 13.4081 9.21011 10.1514C9.28098 9.49023 9.56447 9.1964 10.2023 9.26986C10.2496 9.26986 10.2732 9.26986 10.3204 9.26986C12.8482 9.1964 12.8482 9.1964 13.4152 11.7185C13.7932 13.4326 14.4074 15.0487 15.2578 16.5913C15.6595 17.3014 15.376 18.5257 14.7381 18.942C14.2656 19.2358 14.1948 18.7706 14.053 18.5502C13.1789 17.179 12.4938 15.7343 11.9977 14.1671C11.8796 13.7264 11.7143 13.3346 11.5725 12.9183Z" fill="white"/>
<path d="M17.6259 12.7251C17.1298 13.9005 16.8227 15.1738 16.1612 16.3736C15.4052 15.2717 14.7674 14.3167 15.3343 12.8965C15.7123 11.966 15.7832 10.9376 15.9958 9.93367C16.0667 9.61534 16.0431 9.24805 16.4919 9.24805C17.4369 9.24805 18.3818 9.24805 19.3268 9.24805C19.752 9.24805 19.7993 9.59086 19.8465 9.93367C20.2718 13.3373 20.2954 16.7409 19.8229 20.1445C19.6575 21.3443 18.6889 20.6342 18.0983 20.7567C17.3896 20.8791 17.5078 20.2914 17.555 19.8507C17.8149 17.5 17.6967 15.1248 17.6259 12.7251Z" fill="white"/>
<path d="M17.9746 0.455078C21.9671 1.41005 24.9201 3.80972 27.2116 7.58063C26.3848 7.58063 25.7705 7.53166 25.1563 7.58063C24.4712 7.65409 24.1169 7.36025 23.8097 6.72361C22.6758 4.42188 21.0694 2.56091 18.8723 1.3121C18.4471 1.06724 18.0219 0.699942 17.4785 0.944807L17.5021 0.969293C17.5258 0.944807 17.573 0.895834 17.573 0.871348C17.573 0.797888 17.5494 0.748915 17.5258 0.675456C17.4785 0.626483 17.4785 0.553024 17.4785 0.479565C17.6439 0.479565 17.8093 0.479565 17.9746 0.455078Z" fill="white"/>
<path d="M11.5491 0.725333C8.92684 1.77825 6.91881 3.63922 5.61949 6.2103C5.05251 7.31218 4.43829 7.80191 3.25709 7.60602C2.87911 7.53256 2.4775 7.60602 1.86328 7.60602C4.1548 3.8596 7.08417 1.45993 11.0766 0.480469C11.242 0.553928 11.4074 0.627387 11.5491 0.725333Z" fill="white"/>
<path d="M3.47272 20.6574C2.83487 20.9023 2.24428 20.7308 1.65368 20.7798C1.22845 20.8043 1.03945 20.5839 0.89771 20.1921C0.307111 18.5026 0 16.764 0 14.952C0 14.3644 0.212616 14.193 0.755967 14.1685C2.52776 14.0705 2.52776 14.046 2.59864 15.8825C2.66951 17.4986 2.97662 19.0903 3.47272 20.6574Z" fill="white"/>
<path d="M17.4546 0.971066C19.0137 2.63614 20.3839 4.42365 21.1635 6.65192C21.4234 7.38651 21.3998 7.63138 20.5493 7.63138C18.7775 7.63138 18.8011 7.65586 18.305 5.91733C17.738 3.93392 17.2183 1.90155 15.541 0.53031C15.7064 0.163014 16.0844 0.285446 16.3442 0.1875C16.7222 0.236473 17.0766 0.260959 17.4546 0.309932C17.4546 0.383391 17.4782 0.456851 17.4782 0.505824C17.1474 0.554796 16.7222 0.285446 16.5332 0.628256C16.4387 0.799661 16.8403 0.897607 17.0293 0.971066C17.1711 0.971066 17.3364 0.971066 17.4546 0.971066Z" fill="white"/>
<path d="M13.7273 0.0390625C14.2707 0.0390625 14.7904 0.0390625 15.3338 0.0390625C15.0975 0.308413 14.5778 0.504305 15.0739 0.994034C15.5936 2.90398 15.7354 4.88738 15.9007 6.87078C15.948 7.50743 15.7354 7.60537 15.192 7.62986C13.1131 7.72781 13.0422 7.70332 13.3021 5.62197C13.4911 3.95689 13.5147 2.29182 14.1762 0.724683C14.6723 0.0635489 13.7273 0.357386 13.7273 0.0390625Z" fill="white"/>
<path d="M12.9928 0.970378C11.6935 2.61097 11.0793 4.59437 10.6304 6.62675C10.4414 7.41031 8.40979 8.07145 7.86644 7.53274C7.65382 7.31237 7.81919 7.0675 7.89006 6.87161C8.8114 4.39848 10.0162 2.14573 12.3314 0.75C12.5204 0.798973 12.8275 0.652054 12.9928 0.970378Z" fill="white"/>
<path d="M5.48279 12.5268C3.23852 12.4779 3.42751 12.9431 3.87636 10.4944C4.06536 9.49051 4.49059 9.22115 5.45917 9.24564C7.86881 9.3191 7.84519 9.27013 7.58532 11.6453C7.51445 12.3064 7.34909 12.6003 6.66399 12.5513C6.28601 12.4779 5.8844 12.5268 5.48279 12.5268Z" fill="white"/>
<path d="M5.55172 16.6426C5.22099 16.6426 4.98475 16.6426 4.74851 16.6426C3.42557 16.6426 2.95309 15.9325 3.33107 14.5857C3.44919 14.145 3.73268 14.1694 4.06342 14.1694C4.72489 14.1694 5.38636 14.2184 6.04783 14.145C7.04003 14.0225 7.32352 14.3164 7.39439 15.4427C7.51251 17.4261 6.14232 16.3487 5.55172 16.6426Z" fill="white"/>
<path d="M3.42431 9.39426C3.23531 10.2513 3.11719 11.1328 2.81008 11.9653C2.38485 13.1162 1.39265 12.4306 0.683927 12.4795C-0.0956642 12.5285 0.447687 11.8674 0.424063 11.5001C0.424063 11.4266 0.447687 11.3287 0.471311 11.2552C0.991038 9.12491 1.15641 9.00247 3.42431 9.39426Z" fill="white"/>
<path d="M12.9936 0.970216C12.8283 0.651892 12.5211 0.798811 12.2849 0.749838C12.0487 0.749838 11.8124 0.725352 11.5526 0.725352C11.3872 0.651892 11.2218 0.553947 11.0801 0.480487C11.9305 0.0887042 12.8046 -0.033728 13.726 0.0397313C13.7496 0.358055 14.6709 0.0642178 14.1748 0.725352C13.6315 0.113191 13.3716 0.896757 12.9936 0.970216Z" fill="white"/>
<path d="M15.0686 0.994957C14.5725 0.505228 15.0923 0.309337 15.3285 0.0399862C15.6829 -0.00898669 16.0372 -0.0579596 16.3443 0.186905C16.0845 0.309337 15.7065 0.186905 15.5411 0.529715C15.1868 0.456256 15.0923 0.676634 15.0686 0.994957Z" fill="white"/>
<path d="M17.4846 0.504906C17.4846 0.431447 17.4846 0.357988 17.4609 0.309015C17.6736 0.260042 17.8389 0.309015 17.9807 0.48042C17.8153 0.48042 17.6499 0.48042 17.4846 0.504906Z" fill="white"/>
<path d="M17.0383 0.945689C16.8257 0.87223 16.4477 0.774284 16.5422 0.602879C16.7312 0.260069 17.1565 0.52942 17.4872 0.480447C17.4872 0.553906 17.4872 0.627366 17.4872 0.700825C17.3218 0.749798 17.1092 0.725311 17.0383 0.945689Z" fill="white"/>
<path d="M17.0371 0.946037C17.108 0.701172 17.3206 0.750145 17.486 0.701172C17.5096 0.774631 17.5332 0.823604 17.5332 0.897064C17.5332 0.92155 17.486 0.946036 17.4623 0.995009C17.3442 0.970523 17.1789 0.970523 17.0371 0.946037Z" fill="white"/>
</svg>
