<svg width="1440" height="556" viewBox="0 0 1440 556" fill="none" xmlns="http://www.w3.org/2000/svg">
<mask id="mask0_1292_10163" style="mask-type:luminance" maskUnits="userSpaceOnUse" x="1" y="122" width="1439" height="303">
<path d="M1 122.328H1440V424.041H1V122.328Z" fill="white"/>
</mask>
<g mask="url(#mask0_1292_10163)">
<path d="M1514.32 381.143C1341.5 410.815 1137.45 402.209 954.839 381.882C772.23 361.555 598.831 330.246 412.48 315.066C226.633 299.914 30.8575 301.418 -153.047 319.396C-139.52 358.598 -127.504 398.064 -113.978 437.267C-110.596 447.061 -106.063 457.726 -86.3489 464.458C-64.62 471.876 -31.739 472.14 -2.09557 471.981C454.283 469.5 910.59 466.992 1366.97 464.51C1425.61 464.194 1493.67 462.108 1526.55 444.262C1559.29 426.496 1535.19 401.18 1514.32 381.143Z" fill="#052664"/>
</g>
<mask id="mask1_1292_10163" style="mask-type:luminance" maskUnits="userSpaceOnUse" x="0" y="0" width="1440" height="425">
<path d="M0 0H1440V424.002H0V0Z" fill="white"/>
</mask>
<g mask="url(#mask1_1292_10163)">
<path d="M1540.66 355.333C1473.41 374.802 1380.39 383.107 1289.45 385.83C1151.13 389.983 1009.43 382.472 883 364.296C956.585 367.882 1025.99 372.851 1100.44 372.556C1174.89 372.238 1250.35 368.131 1316.74 357.512C1402.56 343.761 1467.65 320.23 1530.51 297.289C1547.72 315.737 1547.5 336.227 1540.66 355.333Z" fill="#2974B8"/>
</g>
<path d="M0 354.524V555.186H1440V397.049C1439.8 396.901 1439.7 396.783 1439.5 396.635C1290.2 416.864 1114.03 410.987 956.299 397.137C798.568 383.287 648.867 361.966 487.964 351.601C327.656 341.294 158.722 342.299 0 354.524Z" fill="white"/>
</svg>
