<svg width="403" height="250" viewBox="0 0 403 250" fill="none" xmlns="http://www.w3.org/2000/svg">
<g clip-path="url(#clip0_1018_42006)">
<path d="M402.44 115.757C318.285 154.612 197.196 155.329 139.155 240.398L138.887 240.308C198.448 152.996 316.496 148.958 402.44 108.309V115.757Z" fill="#159EEA"/>
<path d="M0 237.796C73.6016 199.928 93.2764 128.5 204.528 123.295C283.138 119.616 351.821 119.706 402.439 68.8262V76.5433C351.732 124.372 283.496 120.782 204.886 124.461C94.1707 129.666 75.0325 206.658 0 245.065V237.796Z" fill="#159EEA"/>
<path d="M0 200.108C47.3089 177.585 83.9756 142.14 134.862 124.462C199.163 102.118 289.577 99.516 334.382 42.1758L334.561 42.2655C288.593 101.221 201.13 104.092 135.577 126.795C84.7805 144.473 48.0244 182.161 0 205.313V200.108Z" fill="#159EEA"/>
<path fill-rule="evenodd" clip-rule="evenodd" d="M76.1055 221.285L81.5608 220.836L79.5038 229.271L76.1055 221.285Z" fill="#90D4F6"/>
<path fill-rule="evenodd" clip-rule="evenodd" d="M81.5618 220.836L85.5861 225.682L80.1309 226.579L81.5618 220.836Z" fill="#008AB5"/>
<path fill-rule="evenodd" clip-rule="evenodd" d="M65.5527 224.516L76.1056 221.285L79.504 229.272L65.5527 224.516Z" fill="#008AB5"/>
<path fill-rule="evenodd" clip-rule="evenodd" d="M79.504 229.272L74.2275 233.758L65.5527 224.516L79.504 229.272Z" fill="#26AAD9"/>
<path fill-rule="evenodd" clip-rule="evenodd" d="M74.2285 233.759L56.8789 215.363L59.9196 240.668L74.2285 233.759Z" fill="#90D4F6"/>
<path fill-rule="evenodd" clip-rule="evenodd" d="M56.8774 215.362L33.7148 201.184L39.0807 230.527L56.8774 215.362Z" fill="#008AB5"/>
<path fill-rule="evenodd" clip-rule="evenodd" d="M46.5039 238.874L59.9185 240.668L56.8779 215.363L46.5039 238.874Z" fill="#26AAD9"/>
<path fill-rule="evenodd" clip-rule="evenodd" d="M56.8788 215.363L39.082 230.528L42.8381 236.451L56.8788 215.363Z" fill="#26AAD9"/>
<path fill-rule="evenodd" clip-rule="evenodd" d="M56.8787 215.363L46.5047 238.874L40.334 240.22L56.8787 215.363Z" fill="#008AB5"/>
<path fill-rule="evenodd" clip-rule="evenodd" d="M33.7152 201.184L21.7315 186.736L21.1055 209.439L33.7152 201.184Z" fill="#90D4F6"/>
<path fill-rule="evenodd" clip-rule="evenodd" d="M21.1055 209.439L26.4713 220.476L33.7152 201.184L21.1055 209.439Z" fill="#26AAD9"/>
<path fill-rule="evenodd" clip-rule="evenodd" d="M26.4707 220.476L39.0805 230.527L33.7146 201.184L26.4707 220.476Z" fill="#90D4F6"/>
<path fill-rule="evenodd" clip-rule="evenodd" d="M39.0819 230.528L24.3258 228.016L19.5859 238.425L39.0819 230.528Z" fill="#26AAD9"/>
<path fill-rule="evenodd" clip-rule="evenodd" d="M42.838 236.45L19.5859 238.424L39.0819 230.527L42.838 236.45Z" fill="#90D4F6"/>
<path fill-rule="evenodd" clip-rule="evenodd" d="M42.8374 236.449L19.5854 238.423L19.0488 243.987L42.8374 236.449Z" fill="#008AB5"/>
<path fill-rule="evenodd" clip-rule="evenodd" d="M54.6414 239.949L54.9097 243.808L40.4219 249.641L54.6414 239.949Z" fill="#008AB5"/>
<path fill-rule="evenodd" clip-rule="evenodd" d="M40.4234 249.641L40.334 240.219L46.5047 238.873L54.6429 239.95L40.4234 249.641Z" fill="#90D4F6"/>
<path fill-rule="evenodd" clip-rule="evenodd" d="M40.4233 249.641L28.8867 250L40.3339 240.219L40.4233 249.641Z" fill="#26AAD9"/>
<path fill-rule="evenodd" clip-rule="evenodd" d="M42.8374 236.449L40.3334 240.218L19.0488 243.987L42.8374 236.449Z" fill="#26AAD9"/>
<path fill-rule="evenodd" clip-rule="evenodd" d="M40.3334 240.219L28.8862 250L19.0488 243.988L40.3334 240.219Z" fill="#008AB5"/>
<path fill-rule="evenodd" clip-rule="evenodd" d="M105.26 184.225L101.593 197.057L76.1055 221.285L105.26 184.225Z" fill="#90D4F6"/>
<path fill-rule="evenodd" clip-rule="evenodd" d="M65.5527 224.515L94.3495 198.133L76.1056 221.284L65.5527 224.515Z" fill="#26AAD9"/>
<path fill-rule="evenodd" clip-rule="evenodd" d="M215.35 96.8223L217.138 97.0017L215.886 99.7835L215.35 96.8223Z" fill="#90D4F6"/>
<path fill-rule="evenodd" clip-rule="evenodd" d="M217.137 97.002L218.121 98.9761L216.332 98.8864L217.137 97.002Z" fill="#008AB5"/>
<path fill-rule="evenodd" clip-rule="evenodd" d="M211.592 97.1812L215.348 96.8223L215.884 99.7835L211.592 97.1812Z" fill="#008AB5"/>
<path fill-rule="evenodd" clip-rule="evenodd" d="M215.884 99.7839L213.828 100.861L211.592 97.1816L215.884 99.7839Z" fill="#26AAD9"/>
<path fill-rule="evenodd" clip-rule="evenodd" d="M213.828 100.86L209.356 93.502L208.641 102.206L213.828 100.86Z" fill="#90D4F6"/>
<path fill-rule="evenodd" clip-rule="evenodd" d="M209.356 93.5021L202.56 87.2207L202.381 97.4504L209.356 93.5021Z" fill="#008AB5"/>
<path fill-rule="evenodd" clip-rule="evenodd" d="M204.35 100.77L208.642 102.206L209.358 93.502L204.35 100.77Z" fill="#26AAD9"/>
<path fill-rule="evenodd" clip-rule="evenodd" d="M209.356 93.502L202.381 97.4503L203.275 99.6936L209.356 93.502Z" fill="#26AAD9"/>
<path fill-rule="evenodd" clip-rule="evenodd" d="M209.357 93.502L204.349 100.77H202.113L209.357 93.502Z" fill="#008AB5"/>
<path fill-rule="evenodd" clip-rule="evenodd" d="M202.56 87.2215L199.52 81.4785L197.82 89.1059L202.56 87.2215Z" fill="#90D4F6"/>
<path fill-rule="evenodd" clip-rule="evenodd" d="M197.82 89.1051L198.893 93.2329L202.56 87.2207L197.82 89.1051Z" fill="#26AAD9"/>
<path fill-rule="evenodd" clip-rule="evenodd" d="M198.893 93.2329L202.38 97.4504L202.559 87.2207L198.893 93.2329Z" fill="#90D4F6"/>
<path fill-rule="evenodd" clip-rule="evenodd" d="M202.382 97.4508L197.642 95.5664L195.406 98.7968L202.382 97.4508Z" fill="#26AAD9"/>
<path fill-rule="evenodd" clip-rule="evenodd" d="M203.276 99.6945L195.406 98.7972L202.382 97.4512L203.276 99.6945Z" fill="#90D4F6"/>
<path fill-rule="evenodd" clip-rule="evenodd" d="M203.276 99.6942L195.406 98.7969L194.869 100.592L203.276 99.6942Z" fill="#008AB5"/>
<path fill-rule="evenodd" clip-rule="evenodd" d="M206.942 101.668L206.763 102.924L201.576 103.911L206.942 101.668Z" fill="#008AB5"/>
<path fill-rule="evenodd" clip-rule="evenodd" d="M201.576 103.912L202.113 100.771H204.349L206.942 101.669L201.576 103.912Z" fill="#90D4F6"/>
<path fill-rule="evenodd" clip-rule="evenodd" d="M201.576 103.912L197.73 103.284L202.113 100.771L201.576 103.912Z" fill="#26AAD9"/>
<path fill-rule="evenodd" clip-rule="evenodd" d="M203.276 99.6953L202.113 100.772L194.869 100.593L203.276 99.6953Z" fill="#26AAD9"/>
<path fill-rule="evenodd" clip-rule="evenodd" d="M202.113 100.771L197.731 103.284L194.869 100.592L202.113 100.771Z" fill="#008AB5"/>
<path fill-rule="evenodd" clip-rule="evenodd" d="M227.512 86.3242L225.455 90.3623L215.35 96.8231L227.512 86.3242Z" fill="#90D4F6"/>
<path fill-rule="evenodd" clip-rule="evenodd" d="M211.592 97.183L222.95 90.2734L215.348 96.8241L211.592 97.183Z" fill="#26AAD9"/>
<path fill-rule="evenodd" clip-rule="evenodd" d="M58.9355 105.527L62.0656 107.95L60.1876 111.809L58.9355 105.527Z" fill="#90D4F6"/>
<path fill-rule="evenodd" clip-rule="evenodd" d="M58.9358 105.527L55.1797 106.066L59.7407 109.835L58.9358 105.527Z" fill="#008AB5"/>
<path fill-rule="evenodd" clip-rule="evenodd" d="M55.178 106.066L51.6007 99.2461L45.0723 108.13L55.178 106.066Z" fill="#0C7098"/>
<path fill-rule="evenodd" clip-rule="evenodd" d="M51.6016 99.2461L66.0894 59.2246L57.9512 62.0961L51.6016 99.2461Z" fill="#90D4F6"/>
<path fill-rule="evenodd" clip-rule="evenodd" d="M57.9512 62.0957L40.6016 74.0304L51.6016 99.2457L57.9512 62.0957Z" fill="#26AAD9"/>
<path fill-rule="evenodd" clip-rule="evenodd" d="M40.6022 74.0312L30.5859 89.645L51.6022 99.2466L40.6022 74.0312Z" fill="#008AB5"/>
<path fill-rule="evenodd" clip-rule="evenodd" d="M30.5859 89.6445L33.3583 100.682L51.6022 99.2461L30.5859 89.6445Z" fill="#0C7098"/>
<path fill-rule="evenodd" clip-rule="evenodd" d="M33.3574 100.682L41.2273 107.502L51.6013 99.2461L33.3574 100.682Z" fill="#26AAD9"/>
<path fill-rule="evenodd" clip-rule="evenodd" d="M41.2285 107.502L45.074 108.13L51.6025 99.2461L41.2285 107.502Z" fill="#008AB5"/>
<path fill-rule="evenodd" clip-rule="evenodd" d="M59.7406 109.834L59.1145 113.334L50.082 120.064L59.7406 109.834Z" fill="#26AAD9"/>
<path fill-rule="evenodd" clip-rule="evenodd" d="M57.0574 107.682L39.8867 113.963L45.0737 108.13L57.0574 107.682Z" fill="#90D4F6"/>
<path fill-rule="evenodd" clip-rule="evenodd" d="M45.0723 108.13L55.178 106.066L57.056 107.682L45.0723 108.13Z" fill="#26AAD9"/>
<path fill-rule="evenodd" clip-rule="evenodd" d="M45.0737 108.129L40.0656 110.283L39.8867 113.962L45.0737 108.129Z" fill="#26AAD9"/>
<path fill-rule="evenodd" clip-rule="evenodd" d="M59.7406 109.835L57.0576 107.682L50.082 120.065L59.7406 109.835Z" fill="#90D4F6"/>
<path fill-rule="evenodd" clip-rule="evenodd" d="M57.0574 107.682L39.8867 113.963L44.9843 117.014L57.0574 107.682Z" fill="#26AAD9"/>
<path fill-rule="evenodd" clip-rule="evenodd" d="M59.4708 111.539L67.1619 115.757L53.5684 117.462L59.1131 113.334L59.4708 111.539Z" fill="#0C7098"/>
<path fill-rule="evenodd" clip-rule="evenodd" d="M67.1621 115.758L105.26 120.155L96.4954 126.705L67.1621 115.758Z" fill="#90D4F6"/>
<path fill-rule="evenodd" clip-rule="evenodd" d="M96.4954 126.705L84.9589 130.833L67.1621 115.758L96.4954 126.705Z" fill="#26AAD9"/>
<path fill-rule="evenodd" clip-rule="evenodd" d="M67.1621 115.758L84.9589 130.833L71.0076 131.192L67.1621 115.758Z" fill="#008AB5"/>
<path fill-rule="evenodd" clip-rule="evenodd" d="M67.163 115.758L56.7891 124.552L71.0086 131.192L67.163 115.758Z" fill="#90D4F6"/>
<path fill-rule="evenodd" clip-rule="evenodd" d="M67.1619 115.758L53.5684 117.463L56.7879 124.552L67.1619 115.758Z" fill="#26AAD9"/>
<path fill-rule="evenodd" clip-rule="evenodd" d="M40.065 110.284L23.1626 104.361L20.3008 115.309L40.065 110.284Z" fill="#008AB5"/>
<path fill-rule="evenodd" clip-rule="evenodd" d="M39.8861 113.962L40.065 110.283L20.3008 115.308L39.8861 113.962Z" fill="#0C7098"/>
<path fill-rule="evenodd" clip-rule="evenodd" d="M20.3008 115.309L23.6992 124.193L39.8861 113.963L20.3008 115.309Z" fill="#90D4F6"/>
<path fill-rule="evenodd" clip-rule="evenodd" d="M23.6992 124.193L31.122 129.846L39.8862 113.963L23.6992 124.193Z" fill="#26AAD9"/>
<path fill-rule="evenodd" clip-rule="evenodd" d="M39.8853 113.963L44.9829 117.014L31.1211 129.846L39.8853 113.963Z" fill="#0C7098"/>
<path fill-rule="evenodd" clip-rule="evenodd" d="M31.1211 129.846L39.8853 135.23L44.9829 117.014L31.1211 129.846Z" fill="#008AB5"/>
<path fill-rule="evenodd" clip-rule="evenodd" d="M39.8867 135.23L44.9843 117.014L50.0818 120.065L39.8867 135.23Z" fill="#90D4F6"/>
<path fill-rule="evenodd" clip-rule="evenodd" d="M50.0818 120.064L50.529 137.563L39.8867 135.23L50.0818 120.064Z" fill="#26AAD9"/>
<path fill-rule="evenodd" clip-rule="evenodd" d="M50.082 120.064L56.5211 135.858L50.5292 137.563L50.082 120.064Z" fill="#0C7098"/>
<path fill-rule="evenodd" clip-rule="evenodd" d="M57.0575 107.682L44.9844 117.014L50.0819 120.065L57.0575 107.682Z" fill="#0C7098"/>
<path fill-rule="evenodd" clip-rule="evenodd" d="M53.5681 117.463L52.6738 118.091L56.7876 124.552L53.5681 117.463Z" fill="#008AB5"/>
<path fill-rule="evenodd" clip-rule="evenodd" d="M127.171 67.3008L128.512 71.1594L121.805 73.9411L127.171 67.3008Z" fill="#26AAD9"/>
<path fill-rule="evenodd" clip-rule="evenodd" d="M128.513 71.1582V73.94L124.936 72.6837L128.513 71.1582Z" fill="#90D4F6"/>
<path fill-rule="evenodd" clip-rule="evenodd" d="M128.513 73.941L128.244 74.8383L127.439 73.582L128.513 73.941Z" fill="#008AB5"/>
<path fill-rule="evenodd" clip-rule="evenodd" d="M124.667 70.4414L118.765 77.6201L115.992 68.8262L124.667 70.4414Z" fill="#90D4F6"/>
<path fill-rule="evenodd" clip-rule="evenodd" d="M127.171 67.3008L115.992 68.8263L124.667 70.4415L127.171 67.3008Z" fill="#008AB5"/>
<path fill-rule="evenodd" clip-rule="evenodd" d="M117.691 41.1875L108.211 52.2248L117.691 52.853V41.1875Z" fill="#90D4F6"/>
<path fill-rule="evenodd" clip-rule="evenodd" d="M117.69 52.8535L120.91 61.6475L104.723 62.9935L117.69 52.8535Z" fill="#26AAD9"/>
<path fill-rule="evenodd" clip-rule="evenodd" d="M117.69 52.8528L108.21 52.2246L104.723 62.9927L117.69 52.8528Z" fill="#008AB5"/>
<path fill-rule="evenodd" clip-rule="evenodd" d="M120.91 61.6465L104.723 62.9925L112.414 73.6709L120.91 61.6465Z" fill="#90D4F6"/>
<path fill-rule="evenodd" clip-rule="evenodd" d="M112.414 73.6709L114.739 76.4527L120.91 61.6465L112.414 73.6709Z" fill="#26AAD9"/>
<path fill-rule="evenodd" clip-rule="evenodd" d="M116.798 71.5176L111.879 82.8241L118.765 77.6195L116.798 71.5176Z" fill="#008AB5"/>
<path fill-rule="evenodd" clip-rule="evenodd" d="M110.447 70.9785L112.414 73.6705L106.064 73.1321L110.447 70.9785Z" fill="#008AB5"/>
<path fill-rule="evenodd" clip-rule="evenodd" d="M106.065 73.1328L93.9922 74.0302L95.5125 75.5556L106.065 73.1328Z" fill="#90D4F6"/>
<path fill-rule="evenodd" clip-rule="evenodd" d="M106.064 73.1328L112.414 73.6712L114.65 76.3632L106.064 73.1328Z" fill="#90D4F6"/>
<path fill-rule="evenodd" clip-rule="evenodd" d="M106.064 73.1328L114.65 76.3632L111.877 82.8241L106.064 73.1328Z" fill="#26AAD9"/>
<path fill-rule="evenodd" clip-rule="evenodd" d="M106.065 73.1328L111.878 82.8241H105.707L106.065 73.1328Z" fill="#008AB5"/>
<path fill-rule="evenodd" clip-rule="evenodd" d="M92.2928 74.1198L90.1465 71.4277L106.065 73.1327L92.2928 74.1198Z" fill="#26AAD9"/>
<path fill-rule="evenodd" clip-rule="evenodd" d="M106.065 73.1338L88.5366 71.2494L86.3008 67.5703L106.065 73.1338Z" fill="#008AB5"/>
<path fill-rule="evenodd" clip-rule="evenodd" d="M106.066 73.1328L97.9277 75.0172L105.708 82.8241L106.066 73.1328Z" fill="#26AAD9"/>
<path fill-rule="evenodd" clip-rule="evenodd" d="M162.674 159.457L163.389 162.239L158.471 163.764L162.674 159.457Z" fill="#26AAD9"/>
<path fill-rule="evenodd" clip-rule="evenodd" d="M163.39 162.238L163.212 164.212L160.797 163.046L163.39 162.238Z" fill="#90D4F6"/>
<path fill-rule="evenodd" clip-rule="evenodd" d="M163.212 164.212L163.033 164.841L162.496 163.854L163.212 164.212Z" fill="#008AB5"/>
<path fill-rule="evenodd" clip-rule="evenodd" d="M160.707 161.521L156.146 166.188L154.715 159.816L160.707 161.521Z" fill="#90D4F6"/>
<path fill-rule="evenodd" clip-rule="evenodd" d="M162.674 159.457L154.715 159.816L160.707 161.521L162.674 159.457Z" fill="#008AB5"/>
<path fill-rule="evenodd" clip-rule="evenodd" d="M157.576 140.434L150.332 147.612L156.86 148.599L157.576 140.434Z" fill="#90D4F6"/>
<path fill-rule="evenodd" clip-rule="evenodd" d="M156.862 148.6L158.65 155.06L147.203 154.971L156.862 148.6Z" fill="#26AAD9"/>
<path fill-rule="evenodd" clip-rule="evenodd" d="M156.862 148.6L150.333 147.613L147.203 154.971L156.862 148.6Z" fill="#008AB5"/>
<path fill-rule="evenodd" clip-rule="evenodd" d="M158.65 155.06L147.203 154.971L151.943 163.047L158.65 155.06Z" fill="#90D4F6"/>
<path fill-rule="evenodd" clip-rule="evenodd" d="M151.943 163.047L153.374 165.111L158.651 155.061L151.943 163.047Z" fill="#26AAD9"/>
<path fill-rule="evenodd" clip-rule="evenodd" d="M155.162 161.791L150.959 169.418L156.146 166.188L155.162 161.791Z" fill="#008AB5"/>
<path fill-rule="evenodd" clip-rule="evenodd" d="M150.78 160.982L151.943 163.046L147.561 162.239L150.78 160.982Z" fill="#008AB5"/>
<path fill-rule="evenodd" clip-rule="evenodd" d="M147.56 162.238L138.975 162.148L139.958 163.315L147.56 162.238Z" fill="#90D4F6"/>
<path fill-rule="evenodd" clip-rule="evenodd" d="M147.561 162.238L151.943 163.046L153.374 165.11L147.561 162.238Z" fill="#90D4F6"/>
<path fill-rule="evenodd" clip-rule="evenodd" d="M147.561 162.238L153.374 165.11L150.959 169.417L147.561 162.238Z" fill="#26AAD9"/>
<path fill-rule="evenodd" clip-rule="evenodd" d="M147.56 162.238L150.959 169.417L146.666 169.058L147.56 162.238Z" fill="#008AB5"/>
<path fill-rule="evenodd" clip-rule="evenodd" d="M137.722 162.15L136.381 160.086L147.56 162.24L137.722 162.15Z" fill="#26AAD9"/>
<path fill-rule="evenodd" clip-rule="evenodd" d="M147.56 162.24L135.308 159.817L133.967 157.125L147.56 162.24Z" fill="#008AB5"/>
<path fill-rule="evenodd" clip-rule="evenodd" d="M147.561 162.238L141.658 163.046L146.666 169.058L147.561 162.238Z" fill="#26AAD9"/>
<path fill-rule="evenodd" clip-rule="evenodd" d="M342.072 93.5024L344.219 89.1055L347.617 92.2462L342.072 93.5024Z" fill="#90D4F6"/>
<path fill-rule="evenodd" clip-rule="evenodd" d="M343.414 90.8105L339.211 94.8486L340.731 96.2844L343.414 90.8105Z" fill="#008AB5"/>
<path fill-rule="evenodd" clip-rule="evenodd" d="M342.072 93.5027L346.007 92.5156L344.576 95.2077L342.072 93.5027Z" fill="#008AB5"/>
<path fill-rule="evenodd" clip-rule="evenodd" d="M342.072 93.5039L340.73 96.2857L344.576 95.2089L342.072 93.5039Z" fill="#0C6D8E"/>
<path fill-rule="evenodd" clip-rule="evenodd" d="M340.73 96.2838L344.844 102.206L344.576 95.207L340.73 96.2838Z" fill="#008AB5"/>
<path fill-rule="evenodd" clip-rule="evenodd" d="M339.211 94.8499L336.26 94.0423L340.642 93.5039L339.211 94.8499Z" fill="#26AAD9"/>
<path fill-rule="evenodd" clip-rule="evenodd" d="M344.845 102.207L359.422 114.949L333.219 113.424L344.845 102.207Z" fill="#008AB5"/>
<path fill-rule="evenodd" clip-rule="evenodd" d="M359.422 114.949L378.65 123.384L367.56 127.961L359.422 114.949Z" fill="#26AAD9"/>
<path fill-rule="evenodd" clip-rule="evenodd" d="M367.561 127.961L354.504 126.974L359.423 114.949L367.561 127.961Z" fill="#008AB5"/>
<path fill-rule="evenodd" clip-rule="evenodd" d="M359.422 114.949L333.219 113.424L338.674 122.128L359.422 114.949Z" fill="#26AAD9"/>
<path fill-rule="evenodd" clip-rule="evenodd" d="M338.674 122.128L354.503 126.974L359.422 114.949L338.674 122.128Z" fill="#90D4F6"/>
<path fill-rule="evenodd" clip-rule="evenodd" d="M336.26 94.0414L329.553 79.9531L324.902 103.822L336.26 94.0414Z" fill="#008AB5"/>
<path fill-rule="evenodd" clip-rule="evenodd" d="M329.552 79.9531L321.682 55.9043L316.227 73.7614L329.552 79.9531Z" fill="#26AAD9"/>
<path fill-rule="evenodd" clip-rule="evenodd" d="M329.552 79.9534L316.227 73.7617L314.17 85.4272L329.552 79.9534Z" fill="#008AB5"/>
<path fill-rule="evenodd" clip-rule="evenodd" d="M314.17 85.4269L316.495 93.503L329.552 79.9531L314.17 85.4269Z" fill="#90D4F6"/>
<path fill-rule="evenodd" clip-rule="evenodd" d="M316.494 93.503L324.901 103.822L329.551 79.9531L316.494 93.503Z" fill="#26AAD9"/>
<path fill-rule="evenodd" clip-rule="evenodd" d="M324.902 103.822L315.064 95.8359L310.414 104.002L324.902 103.822Z" fill="#008AB5"/>
<path fill-rule="evenodd" clip-rule="evenodd" d="M310.414 104.002L309.52 111.45L324.902 103.822L310.414 104.002Z" fill="#26AAD9"/>
<path fill-rule="evenodd" clip-rule="evenodd" d="M309.52 111.45L313.812 121.859L324.902 103.822L309.52 111.45Z" fill="#008AB5"/>
<path fill-rule="evenodd" clip-rule="evenodd" d="M324.902 103.822L324.365 111.719L313.812 121.859L324.902 103.822Z" fill="#0C6D8E"/>
<path fill-rule="evenodd" clip-rule="evenodd" d="M324.365 111.719L333.219 113.424L313.812 121.859L324.365 111.719Z" fill="#008AB5"/>
<path fill-rule="evenodd" clip-rule="evenodd" d="M313.812 121.859L324.544 128.051L333.219 113.424L313.812 121.859Z" fill="#26AAD9"/>
<path fill-rule="evenodd" clip-rule="evenodd" d="M324.543 128.051L332.145 127.692L333.218 113.424L324.543 128.051Z" fill="#90D4F6"/>
<path fill-rule="evenodd" clip-rule="evenodd" d="M332.145 127.692L339.299 124.192L333.218 113.424L332.145 127.692Z" fill="#008AB5"/>
<path fill-rule="evenodd" clip-rule="evenodd" d="M336.26 94.041L324.902 103.822L324.365 111.719L336.26 94.041Z" fill="#90D4F6"/>
<path fill-rule="evenodd" clip-rule="evenodd" d="M344.845 102.207L324.365 111.719L333.219 113.424L344.845 102.207Z" fill="#26AAD9"/>
<path fill-rule="evenodd" clip-rule="evenodd" d="M336.26 94.041L344.845 102.207L324.365 111.719L336.26 94.041Z" fill="#008AB5"/>
<path fill-rule="evenodd" clip-rule="evenodd" d="M344.845 102.207L340.731 96.2844L339.211 94.8486L336.26 94.041L344.845 102.207Z" fill="#90D4F6"/>
<path fill-rule="evenodd" clip-rule="evenodd" d="M341.805 157.663L343.683 156.496L344.577 159.816L341.805 157.663Z" fill="#9FD5D8"/>
<path fill-rule="evenodd" clip-rule="evenodd" d="M343.682 156.496L346.007 157.393L344.308 158.739L343.682 156.496Z" fill="#56ADC3"/>
<path fill-rule="evenodd" clip-rule="evenodd" d="M338.586 160.893L341.805 157.662L344.578 159.816L338.586 160.893Z" fill="#56ADC3"/>
<path fill-rule="evenodd" clip-rule="evenodd" d="M344.578 159.816L343.505 162.419L338.586 160.893L344.578 159.816Z" fill="#63BBC8"/>
<path fill-rule="evenodd" clip-rule="evenodd" d="M343.504 162.418L333.756 159.277L339.658 167.623L343.504 162.418Z" fill="#9FD5D8"/>
<path fill-rule="evenodd" clip-rule="evenodd" d="M333.755 159.279L322.666 158.83L330.178 168.073L333.755 159.279Z" fill="#56ADC3"/>
<path fill-rule="evenodd" clip-rule="evenodd" d="M334.471 169.597L339.658 167.623L333.756 159.277L334.471 169.597Z" fill="#63BBC8"/>
<path fill-rule="evenodd" clip-rule="evenodd" d="M333.755 159.277L330.178 168.071L332.682 169.417L333.755 159.277Z" fill="#63BBC8"/>
<path fill-rule="evenodd" clip-rule="evenodd" d="M333.756 159.277L334.471 169.597L332.504 171.212L333.756 159.277Z" fill="#56ADC3"/>
<path fill-rule="evenodd" clip-rule="evenodd" d="M322.666 158.829L315.512 156.047L319.626 164.123L322.666 158.829Z" fill="#9FD5D8"/>
<path fill-rule="evenodd" clip-rule="evenodd" d="M319.625 164.124L323.649 166.996L322.666 158.83L319.625 164.124Z" fill="#63BBC8"/>
<path fill-rule="evenodd" clip-rule="evenodd" d="M323.65 166.996L330.178 168.073L322.666 158.83L323.65 166.996Z" fill="#9FD5D8"/>
<path fill-rule="evenodd" clip-rule="evenodd" d="M330.178 168.072L324.365 170.046L324.634 174.623L330.178 168.072Z" fill="#63BBC8"/>
<path fill-rule="evenodd" clip-rule="evenodd" d="M332.682 169.418L324.633 174.623L330.178 168.072L332.682 169.418Z" fill="#9FD5D8"/>
<path fill-rule="evenodd" clip-rule="evenodd" d="M332.682 169.418L324.633 174.623L325.527 176.686L332.682 169.418Z" fill="#56ADC3"/>
<path fill-rule="evenodd" clip-rule="evenodd" d="M337.602 168.342L338.407 169.688L334.293 174.533L337.602 168.342Z" fill="#56ADC3"/>
<path fill-rule="evenodd" clip-rule="evenodd" d="M334.293 174.533L332.504 171.213L334.471 169.598L337.601 168.342L334.293 174.533Z" fill="#9FD5D8"/>
<path fill-rule="evenodd" clip-rule="evenodd" d="M334.292 174.533L330.178 176.866L332.503 171.213L334.292 174.533Z" fill="#63BBC8"/>
<path fill-rule="evenodd" clip-rule="evenodd" d="M332.682 169.418L332.503 171.213L325.527 176.686L332.682 169.418Z" fill="#63BBC8"/>
<path fill-rule="evenodd" clip-rule="evenodd" d="M332.503 171.213L330.178 176.866L325.527 176.687L332.503 171.213Z" fill="#56ADC3"/>
<path fill-rule="evenodd" clip-rule="evenodd" d="M345.203 139.088L346.366 144.292L341.805 157.663L345.203 139.088Z" fill="#9FD5D8"/>
<path fill-rule="evenodd" clip-rule="evenodd" d="M338.586 160.894L343.952 146.088L341.805 157.664L338.586 160.894Z" fill="#63BBC8"/>
<path fill-rule="evenodd" clip-rule="evenodd" d="M383.568 44.7773L386.788 45.3157L387.503 50.8793L383.568 44.7773Z" fill="#90D4F6"/>
<path fill-rule="evenodd" clip-rule="evenodd" d="M383.569 44.7772L375.342 43.0723L386.342 48.9947L383.569 44.7772Z" fill="#0095C2"/>
<path fill-rule="evenodd" clip-rule="evenodd" d="M386.342 48.9947L378.025 52.8533L375.342 43.0723L386.342 48.9947Z" fill="#1B688B"/>
<path fill-rule="evenodd" clip-rule="evenodd" d="M387.057 50.071L385.537 49.3531L386.342 48.9941L387.057 50.071Z" fill="#676C6E"/>
<path fill-rule="evenodd" clip-rule="evenodd" d="M378.024 52.8535L372.211 30.4199L362.463 58.0581L378.024 52.8535Z" fill="#0095C2"/>
<path fill-rule="evenodd" clip-rule="evenodd" d="M378.024 52.8535L371.674 62.7243L362.463 58.0581L378.024 52.8535Z" fill="#1B688B"/>
<path fill-rule="evenodd" clip-rule="evenodd" d="M372.211 30.4195L356.65 10.8574L352.715 23.2408L372.211 30.4195Z" fill="#90D4F6"/>
<path fill-rule="evenodd" clip-rule="evenodd" d="M372.211 30.419L369.17 39.0335L352.715 23.2402L372.211 30.419Z" fill="#26AAD9"/>
<path fill-rule="evenodd" clip-rule="evenodd" d="M369.17 39.0335L354.414 43.0715L352.715 23.2402L369.17 39.0335Z" fill="#0095C2"/>
<path fill-rule="evenodd" clip-rule="evenodd" d="M354.414 43.0713L362.463 58.0569L369.17 39.0332L354.414 43.0713Z" fill="#26AAD9"/>
<path fill-rule="evenodd" clip-rule="evenodd" d="M353.431 32.3038L329.195 20.3691L337.244 31.0475L353.431 32.3038Z" fill="#90D4F6"/>
<path fill-rule="evenodd" clip-rule="evenodd" d="M353.43 32.3047L354.414 43.0728L351.016 44.3291L353.43 32.3047Z" fill="#1B688B"/>
<path fill-rule="evenodd" clip-rule="evenodd" d="M351.016 44.3285L362.463 58.0579L354.414 43.0723L351.016 44.3285Z" fill="#008AB5"/>
<path fill-rule="evenodd" clip-rule="evenodd" d="M353.431 32.3032L337.244 31.0469L351.016 44.3276L353.431 32.3032Z" fill="#26AAD9"/>
<path fill-rule="evenodd" clip-rule="evenodd" d="M362.464 58.0586L345.293 66.1347L347.529 74.9287L362.464 58.0586Z" fill="#90D4F6"/>
<path fill-rule="evenodd" clip-rule="evenodd" d="M347.529 74.9287L371.676 62.7248L362.464 58.0586L347.529 74.9287Z" fill="#26AAD9"/>
<path fill-rule="evenodd" clip-rule="evenodd" d="M347.529 74.9285L366.846 76.0053L371.676 62.7246L347.529 74.9285Z" fill="#0095C2"/>
<path fill-rule="evenodd" clip-rule="evenodd" d="M371.675 62.7246L379.366 66.7627L366.846 76.0053L371.675 62.7246Z" fill="#1B688B"/>
<path fill-rule="evenodd" clip-rule="evenodd" d="M279.65 175.343L281.707 174.445L281.797 176.599L279.65 175.343Z" fill="#90D4F6"/>
<path fill-rule="evenodd" clip-rule="evenodd" d="M280.902 174.803L278.309 174.892L278.398 175.79L280.902 174.803Z" fill="#008AB5"/>
<path fill-rule="evenodd" clip-rule="evenodd" d="M279.65 175.342L281.26 176.149L279.919 176.598L279.65 175.342Z" fill="#008AB5"/>
<path fill-rule="evenodd" clip-rule="evenodd" d="M279.65 175.342L278.398 175.79L279.919 176.598L279.65 175.342Z" fill="#0C6D8E"/>
<path fill-rule="evenodd" clip-rule="evenodd" d="M278.398 175.791L277.861 179.111L279.918 176.599L278.398 175.791Z" fill="#008AB5"/>
<path fill-rule="evenodd" clip-rule="evenodd" d="M278.309 174.893L277.594 173.727L279.204 174.893H278.309Z" fill="#26AAD9"/>
<path fill-rule="evenodd" clip-rule="evenodd" d="M277.862 179.111L278.666 187.905L270.707 179.291L277.862 179.111Z" fill="#008AB5"/>
<path fill-rule="evenodd" clip-rule="evenodd" d="M278.666 187.904L282.243 196.788L277.324 194.814L278.666 187.904Z" fill="#26AAD9"/>
<path fill-rule="evenodd" clip-rule="evenodd" d="M277.326 194.814L273.391 190.507L278.667 187.904L277.326 194.814Z" fill="#008AB5"/>
<path fill-rule="evenodd" clip-rule="evenodd" d="M278.666 187.906L270.707 179.291L269.812 183.957L278.666 187.906Z" fill="#26AAD9"/>
<path fill-rule="evenodd" clip-rule="evenodd" d="M269.812 183.957L273.39 190.508L278.666 187.905L269.812 183.957Z" fill="#90D4F6"/>
<path fill-rule="evenodd" clip-rule="evenodd" d="M277.592 173.726L279.739 166.816L270.975 173.457L277.592 173.726Z" fill="#008AB5"/>
<path fill-rule="evenodd" clip-rule="evenodd" d="M279.739 166.817L284.658 156.229L277.414 160.625L279.739 166.817Z" fill="#26AAD9"/>
<path fill-rule="evenodd" clip-rule="evenodd" d="M279.739 166.817L277.414 160.625L273.121 163.945L279.739 166.817Z" fill="#008AB5"/>
<path fill-rule="evenodd" clip-rule="evenodd" d="M273.121 163.945L271.422 167.355L279.739 166.817L273.121 163.945Z" fill="#90D4F6"/>
<path fill-rule="evenodd" clip-rule="evenodd" d="M271.422 167.355L270.975 173.457L279.739 166.816L271.422 167.355Z" fill="#26AAD9"/>
<path fill-rule="evenodd" clip-rule="evenodd" d="M270.976 173.458L270.261 167.715L266.236 169.061L270.976 173.458Z" fill="#008AB5"/>
<path fill-rule="evenodd" clip-rule="evenodd" d="M266.236 169.061L263.643 171.304L270.976 173.458L266.236 169.061Z" fill="#26AAD9"/>
<path fill-rule="evenodd" clip-rule="evenodd" d="M263.642 171.305L261.854 176.15L270.975 173.458L263.642 171.305Z" fill="#008AB5"/>
<path fill-rule="evenodd" clip-rule="evenodd" d="M270.975 173.457L268.382 175.97L261.854 176.149L270.975 173.457Z" fill="#0C6D8E"/>
<path fill-rule="evenodd" clip-rule="evenodd" d="M268.382 175.971L270.707 179.291L261.854 176.15L268.382 175.971Z" fill="#008AB5"/>
<path fill-rule="evenodd" clip-rule="evenodd" d="M261.854 176.15L263.463 181.534L270.707 179.291L261.854 176.15Z" fill="#26AAD9"/>
<path fill-rule="evenodd" clip-rule="evenodd" d="M263.463 181.534L265.967 183.867L270.707 179.291L263.463 181.534Z" fill="#90D4F6"/>
<path fill-rule="evenodd" clip-rule="evenodd" d="M265.967 183.867L269.365 184.855L270.707 179.291L265.967 183.867Z" fill="#008AB5"/>
<path fill-rule="evenodd" clip-rule="evenodd" d="M277.594 173.726L270.976 173.457L268.383 175.97L277.594 173.726Z" fill="#90D4F6"/>
<path fill-rule="evenodd" clip-rule="evenodd" d="M277.862 179.111L268.383 175.971L270.708 179.291L277.862 179.111Z" fill="#26AAD9"/>
<path fill-rule="evenodd" clip-rule="evenodd" d="M277.594 173.727L277.862 179.111L268.383 175.97L277.594 173.727Z" fill="#008AB5"/>
<path fill-rule="evenodd" clip-rule="evenodd" d="M277.862 179.111L278.399 175.79L278.309 174.893L277.594 173.727L277.862 179.111Z" fill="#90D4F6"/>
<path fill-rule="evenodd" clip-rule="evenodd" d="M72.082 176.598L73.6918 177.405L73.0658 180.366L72.082 176.598Z" fill="#9FD5D8"/>
<path fill-rule="evenodd" clip-rule="evenodd" d="M72.0814 176.599L68.1465 174.355L72.7969 179.201L72.0814 176.599Z" fill="#59B1C3"/>
<path fill-rule="evenodd" clip-rule="evenodd" d="M72.7961 179.201L67.9668 179.829L68.1457 174.355L72.7961 179.201Z" fill="#349DC0"/>
<path fill-rule="evenodd" clip-rule="evenodd" d="M72.9756 179.919L72.3496 179.291L72.7968 179.201L72.9756 179.919Z" fill="#777F80"/>
<path fill-rule="evenodd" clip-rule="evenodd" d="M67.9674 179.828L68.5934 167.266L59.2031 180.098L67.9674 179.828Z" fill="#59B1C3"/>
<path fill-rule="evenodd" clip-rule="evenodd" d="M67.9674 179.828L63.1381 183.956L59.2031 180.097L67.9674 179.828Z" fill="#349DC0"/>
<path fill-rule="evenodd" clip-rule="evenodd" d="M68.5943 167.266L63.8545 154.523L59.8301 160.356L68.5943 167.266Z" fill="#9FD5D8"/>
<path fill-rule="evenodd" clip-rule="evenodd" d="M68.5943 167.265L65.6431 171.213L59.8301 160.355L68.5943 167.265Z" fill="#63BBC8"/>
<path fill-rule="evenodd" clip-rule="evenodd" d="M65.6417 171.213L57.4141 170.944L59.8287 160.355L65.6417 171.213Z" fill="#59B1C3"/>
<path fill-rule="evenodd" clip-rule="evenodd" d="M57.4141 170.945L59.2027 180.098L65.6417 171.215L57.4141 170.945Z" fill="#63BBC8"/>
<path fill-rule="evenodd" clip-rule="evenodd" d="M58.7564 165.202L48.293 155.062L50.6182 161.882L58.7564 165.202Z" fill="#9FD5D8"/>
<path fill-rule="evenodd" clip-rule="evenodd" d="M58.7566 165.201L57.4152 170.944L55.5371 171.034L58.7566 165.201Z" fill="#349DC0"/>
<path fill-rule="evenodd" clip-rule="evenodd" d="M55.5371 171.035L59.2038 180.098L57.4152 170.945L55.5371 171.035Z" fill="#56ADC3"/>
<path fill-rule="evenodd" clip-rule="evenodd" d="M58.7574 165.201L50.6191 161.881L55.5378 171.034L58.7574 165.201Z" fill="#63BBC8"/>
<path fill-rule="evenodd" clip-rule="evenodd" d="M59.2041 180.098L49.0984 181.444L48.8301 186.379L59.2041 180.098Z" fill="#9FD5D8"/>
<path fill-rule="evenodd" clip-rule="evenodd" d="M48.8301 186.379L63.139 183.956L59.2041 180.098L48.8301 186.379Z" fill="#63BBC8"/>
<path fill-rule="evenodd" clip-rule="evenodd" d="M48.8301 186.38L58.4886 190.059L63.139 183.957L48.8301 186.38Z" fill="#59B1C3"/>
<path fill-rule="evenodd" clip-rule="evenodd" d="M63.1387 183.957L66.3582 187.367L58.4883 190.059L63.1387 183.957Z" fill="#349DC0"/>
<path fill-rule="evenodd" clip-rule="evenodd" d="M127.438 147.254L128.064 148.51L126.365 150.215L127.438 147.254Z" fill="#9FD5D8"/>
<path fill-rule="evenodd" clip-rule="evenodd" d="M127.438 147.254L125.918 144.023L126.723 149.318L127.438 147.254Z" fill="#59B1C3"/>
<path fill-rule="evenodd" clip-rule="evenodd" d="M126.723 149.318L123.324 147.523L125.918 144.023L126.723 149.318Z" fill="#349DC0"/>
<path fill-rule="evenodd" clip-rule="evenodd" d="M126.544 149.857L126.365 149.139L126.723 149.318L126.544 149.857Z" fill="#777F80"/>
<path fill-rule="evenodd" clip-rule="evenodd" d="M123.326 147.524L129.407 139.627L117.691 143.755L123.326 147.524Z" fill="#59B1C3"/>
<path fill-rule="evenodd" clip-rule="evenodd" d="M123.326 147.525L118.407 148.153L117.691 143.756L123.326 147.525Z" fill="#349DC0"/>
<path fill-rule="evenodd" clip-rule="evenodd" d="M129.406 139.628L132 129.039L126.902 131.103L129.406 139.628Z" fill="#9FD5D8"/>
<path fill-rule="evenodd" clip-rule="evenodd" d="M129.407 139.628L125.74 140.885L126.903 131.104L129.407 139.628Z" fill="#63BBC8"/>
<path fill-rule="evenodd" clip-rule="evenodd" d="M125.74 140.885L120.643 137.026L126.903 131.104L125.74 140.885Z" fill="#59B1C3"/>
<path fill-rule="evenodd" clip-rule="evenodd" d="M120.643 137.025L117.691 143.755L125.74 140.884L120.643 137.025Z" fill="#63BBC8"/>
<path fill-rule="evenodd" clip-rule="evenodd" d="M124.04 133.795L121.893 122.398L120.373 127.962L124.04 133.795Z" fill="#9FD5D8"/>
<path fill-rule="evenodd" clip-rule="evenodd" d="M124.041 133.795L120.643 137.025L119.391 136.218L124.041 133.795Z" fill="#349DC0"/>
<path fill-rule="evenodd" clip-rule="evenodd" d="M119.391 136.217L117.691 143.754L120.643 137.024L119.391 136.217Z" fill="#56ADC3"/>
<path fill-rule="evenodd" clip-rule="evenodd" d="M124.041 133.796L120.374 127.963L119.391 136.218L124.041 133.796Z" fill="#63BBC8"/>
<path fill-rule="evenodd" clip-rule="evenodd" d="M117.691 143.755L110.715 140.166L108.301 143.307L117.691 143.755Z" fill="#9FD5D8"/>
<path fill-rule="evenodd" clip-rule="evenodd" d="M108.301 143.307L118.406 148.152L117.691 143.755L108.301 143.307Z" fill="#63BBC8"/>
<path fill-rule="evenodd" clip-rule="evenodd" d="M108.301 143.307L112.772 150.037L118.406 148.152L108.301 143.307Z" fill="#59B1C3"/>
<path fill-rule="evenodd" clip-rule="evenodd" d="M118.406 148.152L119.032 151.742L112.771 150.037L118.406 148.152Z" fill="#349DC0"/>
<path fill-rule="evenodd" clip-rule="evenodd" d="M111.252 167.893L111.699 166.547L112.862 167.265L111.252 167.893Z" fill="#90D4F6"/>
<path fill-rule="evenodd" clip-rule="evenodd" d="M111.52 167.086L110.447 168.432L110.984 168.791L111.52 167.086Z" fill="#008AB5"/>
<path fill-rule="evenodd" clip-rule="evenodd" d="M111.252 167.894L112.415 167.445L112.057 168.343L111.252 167.894Z" fill="#008AB5"/>
<path fill-rule="evenodd" clip-rule="evenodd" d="M111.251 167.895L110.982 168.792L112.056 168.343L111.251 167.895Z" fill="#0C6D8E"/>
<path fill-rule="evenodd" clip-rule="evenodd" d="M110.982 168.79L112.413 170.316L112.056 168.342L110.982 168.79Z" fill="#008AB5"/>
<path fill-rule="evenodd" clip-rule="evenodd" d="M110.447 168.433L109.553 168.343L110.805 167.984L110.447 168.433Z" fill="#26AAD9"/>
<path fill-rule="evenodd" clip-rule="evenodd" d="M112.414 170.316L117.333 173.547L109.463 174.175L112.414 170.316Z" fill="#008AB5"/>
<path fill-rule="evenodd" clip-rule="evenodd" d="M117.332 173.547L123.413 175.252L120.283 177.047L117.332 173.547Z" fill="#26AAD9"/>
<path fill-rule="evenodd" clip-rule="evenodd" d="M120.285 177.047L116.35 177.316L117.333 173.547L120.285 177.047Z" fill="#008AB5"/>
<path fill-rule="evenodd" clip-rule="evenodd" d="M117.333 173.547L109.463 174.175L111.43 176.508L117.333 173.547Z" fill="#26AAD9"/>
<path fill-rule="evenodd" clip-rule="evenodd" d="M111.43 176.508L116.348 177.316L117.332 173.547L111.43 176.508Z" fill="#90D4F6"/>
<path fill-rule="evenodd" clip-rule="evenodd" d="M109.553 168.343L106.959 164.395L106.602 171.663L109.553 168.343Z" fill="#008AB5"/>
<path fill-rule="evenodd" clip-rule="evenodd" d="M106.959 164.394L103.65 157.664L102.756 163.138L106.959 164.394Z" fill="#26AAD9"/>
<path fill-rule="evenodd" clip-rule="evenodd" d="M106.959 164.395L102.755 163.139L102.666 166.728L106.959 164.395Z" fill="#008AB5"/>
<path fill-rule="evenodd" clip-rule="evenodd" d="M102.666 166.728L103.65 168.971L106.959 164.395L102.666 166.728Z" fill="#90D4F6"/>
<path fill-rule="evenodd" clip-rule="evenodd" d="M103.65 168.971L106.602 171.663L106.959 164.395L103.65 168.971Z" fill="#26AAD9"/>
<path fill-rule="evenodd" clip-rule="evenodd" d="M106.601 171.664L103.292 169.689L102.309 172.292L106.601 171.664Z" fill="#008AB5"/>
<path fill-rule="evenodd" clip-rule="evenodd" d="M102.309 172.29V174.534L106.601 171.662L102.309 172.29Z" fill="#26AAD9"/>
<path fill-rule="evenodd" clip-rule="evenodd" d="M102.309 174.534L104.008 177.495L106.601 171.662L102.309 174.534Z" fill="#008AB5"/>
<path fill-rule="evenodd" clip-rule="evenodd" d="M106.601 171.662L106.78 173.995L104.008 177.495L106.601 171.662Z" fill="#0C6D8E"/>
<path fill-rule="evenodd" clip-rule="evenodd" d="M106.78 173.996L109.463 174.176L104.008 177.496L106.78 173.996Z" fill="#008AB5"/>
<path fill-rule="evenodd" clip-rule="evenodd" d="M104.008 177.496L107.496 178.842L109.463 174.176L104.008 177.496Z" fill="#26AAD9"/>
<path fill-rule="evenodd" clip-rule="evenodd" d="M107.496 178.842L109.732 178.393L109.464 174.176L107.496 178.842Z" fill="#90D4F6"/>
<path fill-rule="evenodd" clip-rule="evenodd" d="M109.731 178.393L111.699 177.047L109.463 174.176L109.731 178.393Z" fill="#008AB5"/>
<path fill-rule="evenodd" clip-rule="evenodd" d="M109.553 168.342L106.602 171.662L106.78 173.995L109.553 168.342Z" fill="#90D4F6"/>
<path fill-rule="evenodd" clip-rule="evenodd" d="M112.413 170.316L106.779 173.996L109.462 174.175L112.413 170.316Z" fill="#26AAD9"/>
<path fill-rule="evenodd" clip-rule="evenodd" d="M109.552 168.342L112.413 170.316L106.779 173.995L109.552 168.342Z" fill="#008AB5"/>
<path fill-rule="evenodd" clip-rule="evenodd" d="M112.415 170.316L110.984 168.79L110.447 168.432L109.553 168.342L112.415 170.316Z" fill="#90D4F6"/>
<path fill-rule="evenodd" clip-rule="evenodd" d="M255.325 106.064L255.683 107.949L253.805 108.667L255.325 106.064Z" fill="#90D4F6"/>
<path fill-rule="evenodd" clip-rule="evenodd" d="M255.325 106.065L253.895 105.078L254.342 107.86L255.325 106.065Z" fill="#008AB5"/>
<path fill-rule="evenodd" clip-rule="evenodd" d="M253.894 105.078L254.877 101.488L249.869 102.565L253.894 105.078Z" fill="#0C7098"/>
<path fill-rule="evenodd" clip-rule="evenodd" d="M254.877 101.488L272.227 91.797L268.56 90.2715L254.877 101.488Z" fill="#90D4F6"/>
<path fill-rule="evenodd" clip-rule="evenodd" d="M268.56 90.272L258.991 89.1055L254.877 101.489L268.56 90.272Z" fill="#26AAD9"/>
<path fill-rule="evenodd" clip-rule="evenodd" d="M258.991 89.1055L250.764 91.4386L254.877 101.489L258.991 89.1055Z" fill="#008AB5"/>
<path fill-rule="evenodd" clip-rule="evenodd" d="M250.764 91.4395L248.26 96.2851L254.878 101.49L250.764 91.4395Z" fill="#0C7098"/>
<path fill-rule="evenodd" clip-rule="evenodd" d="M248.26 96.2852L248.796 101.221L254.878 101.49L248.26 96.2852Z" fill="#26AAD9"/>
<path fill-rule="evenodd" clip-rule="evenodd" d="M248.797 101.219L249.87 102.565L254.878 101.488L248.797 101.219Z" fill="#008AB5"/>
<path fill-rule="evenodd" clip-rule="evenodd" d="M254.341 107.859L252.999 108.846L247.812 108.398L254.341 107.859Z" fill="#26AAD9"/>
<path fill-rule="evenodd" clip-rule="evenodd" d="M254.072 106.246L246.291 103.105L249.868 102.566L254.072 106.246Z" fill="#90D4F6"/>
<path fill-rule="evenodd" clip-rule="evenodd" d="M249.869 102.566L253.894 105.079L254.072 106.246L249.869 102.566Z" fill="#26AAD9"/>
<path fill-rule="evenodd" clip-rule="evenodd" d="M249.868 102.566L247.454 101.848L246.291 103.104L249.868 102.566Z" fill="#26AAD9"/>
<path fill-rule="evenodd" clip-rule="evenodd" d="M254.341 107.859L254.073 106.244L247.812 108.398L254.341 107.859Z" fill="#90D4F6"/>
<path fill-rule="evenodd" clip-rule="evenodd" d="M254.072 106.244L246.291 103.104L247.096 105.706L254.072 106.244Z" fill="#26AAD9"/>
<path fill-rule="evenodd" clip-rule="evenodd" d="M253.625 108.309L254.966 112.257L249.779 108.578L252.999 108.847L253.625 108.309Z" fill="#0C7098"/>
<path fill-rule="evenodd" clip-rule="evenodd" d="M254.967 112.258L266.414 125.808L261.406 125.359L254.967 112.258Z" fill="#90D4F6"/>
<path fill-rule="evenodd" clip-rule="evenodd" d="M261.406 125.359L256.219 123.205L254.967 112.258L261.406 125.359Z" fill="#26AAD9"/>
<path fill-rule="evenodd" clip-rule="evenodd" d="M254.966 112.258L256.218 123.205L251.389 118.988L254.966 112.258Z" fill="#008AB5"/>
<path fill-rule="evenodd" clip-rule="evenodd" d="M254.967 112.258L248.707 112.078L251.39 118.988L254.967 112.258Z" fill="#90D4F6"/>
<path fill-rule="evenodd" clip-rule="evenodd" d="M254.967 112.257L249.78 108.578L248.707 112.078L254.967 112.257Z" fill="#26AAD9"/>
<path fill-rule="evenodd" clip-rule="evenodd" d="M247.454 101.848L243.609 94.4004L239.227 97.3616L247.454 101.848Z" fill="#008AB5"/>
<path fill-rule="evenodd" clip-rule="evenodd" d="M246.292 103.104L247.454 101.848L239.227 97.3613L246.292 103.104Z" fill="#0C7098"/>
<path fill-rule="evenodd" clip-rule="evenodd" d="M239.227 97.3613L237.617 101.579L246.292 103.104L239.227 97.3613Z" fill="#90D4F6"/>
<path fill-rule="evenodd" clip-rule="evenodd" d="M237.617 101.578L238.333 105.975L246.292 103.104L237.617 101.578Z" fill="#26AAD9"/>
<path fill-rule="evenodd" clip-rule="evenodd" d="M246.291 103.104L247.007 105.706L238.332 105.975L246.291 103.104Z" fill="#0C7098"/>
<path fill-rule="evenodd" clip-rule="evenodd" d="M238.332 105.976L239.673 110.642L247.007 105.707L238.332 105.976Z" fill="#008AB5"/>
<path fill-rule="evenodd" clip-rule="evenodd" d="M239.674 110.642L247.007 105.707L247.812 108.399L239.674 110.642Z" fill="#90D4F6"/>
<path fill-rule="evenodd" clip-rule="evenodd" d="M247.812 108.398L242.536 114.77L239.674 110.642L247.812 108.398Z" fill="#26AAD9"/>
<path fill-rule="evenodd" clip-rule="evenodd" d="M247.812 108.398L245.129 116.026L242.535 114.77L247.812 108.398Z" fill="#0C7098"/>
<path fill-rule="evenodd" clip-rule="evenodd" d="M254.073 106.245L247.008 105.707L247.813 108.399L254.073 106.245Z" fill="#0C7098"/>
<path fill-rule="evenodd" clip-rule="evenodd" d="M249.78 108.578H249.333L248.707 112.078L249.78 108.578Z" fill="#008AB5"/>
<path fill-rule="evenodd" clip-rule="evenodd" d="M157.221 98.9759L159.814 98.4375L159.367 102.655L157.221 98.9759Z" fill="#90D4F6"/>
<path fill-rule="evenodd" clip-rule="evenodd" d="M159.813 98.4375L162.049 100.501L159.455 101.309L159.813 98.4375Z" fill="#008AB5"/>
<path fill-rule="evenodd" clip-rule="evenodd" d="M152.211 101.22L157.219 98.9766L159.365 102.656L152.211 101.22Z" fill="#008AB5"/>
<path fill-rule="evenodd" clip-rule="evenodd" d="M159.365 102.654L157.04 105.077L152.211 101.219L159.365 102.654Z" fill="#26AAD9"/>
<path fill-rule="evenodd" clip-rule="evenodd" d="M157.042 105.078L147.473 97.2715L150.513 109.296L157.042 105.078Z" fill="#90D4F6"/>
<path fill-rule="evenodd" clip-rule="evenodd" d="M147.472 97.2708L135.398 91.8867L139.781 105.706L147.472 97.2708Z" fill="#008AB5"/>
<path fill-rule="evenodd" clip-rule="evenodd" d="M143.895 109.296H150.512L147.472 97.2715L143.895 109.296Z" fill="#26AAD9"/>
<path fill-rule="evenodd" clip-rule="evenodd" d="M147.472 97.2715L139.781 105.707L141.928 108.309L147.472 97.2715Z" fill="#26AAD9"/>
<path fill-rule="evenodd" clip-rule="evenodd" d="M147.472 97.2715L143.895 109.296L140.943 110.283L147.472 97.2715Z" fill="#008AB5"/>
<path fill-rule="evenodd" clip-rule="evenodd" d="M135.399 91.8869L128.691 85.6055L129.765 96.6428L135.399 91.8869Z" fill="#90D4F6"/>
<path fill-rule="evenodd" clip-rule="evenodd" d="M129.764 96.6426L133.073 101.668L135.398 91.8867L129.764 96.6426Z" fill="#26AAD9"/>
<path fill-rule="evenodd" clip-rule="evenodd" d="M133.074 101.668L139.782 105.706L135.399 91.8867L133.074 101.668Z" fill="#90D4F6"/>
<path fill-rule="evenodd" clip-rule="evenodd" d="M139.781 105.707L132.448 105.348L130.838 110.642L139.781 105.707Z" fill="#26AAD9"/>
<path fill-rule="evenodd" clip-rule="evenodd" d="M141.927 108.309L130.838 110.642L139.781 105.707L141.927 108.309Z" fill="#90D4F6"/>
<path fill-rule="evenodd" clip-rule="evenodd" d="M141.927 108.309L130.838 110.642V113.423L141.927 108.309Z" fill="#008AB5"/>
<path fill-rule="evenodd" clip-rule="evenodd" d="M147.92 109.295L148.278 111.09L141.57 114.769L147.92 109.295Z" fill="#008AB5"/>
<path fill-rule="evenodd" clip-rule="evenodd" d="M141.569 114.769L140.943 110.282L143.895 109.295H147.919L141.569 114.769Z" fill="#90D4F6"/>
<path fill-rule="evenodd" clip-rule="evenodd" d="M141.57 114.77L136.025 115.667L140.944 110.283L141.57 114.77Z" fill="#26AAD9"/>
<path fill-rule="evenodd" clip-rule="evenodd" d="M141.927 108.309L140.944 110.283L130.838 113.423L141.927 108.309Z" fill="#26AAD9"/>
<path fill-rule="evenodd" clip-rule="evenodd" d="M140.944 110.283L136.025 115.667L130.838 113.424L140.944 110.283Z" fill="#008AB5"/>
<path fill-rule="evenodd" clip-rule="evenodd" d="M169.115 79.3242L168.131 85.6954L157.221 98.9761L169.115 79.3242Z" fill="#90D4F6"/>
<path fill-rule="evenodd" clip-rule="evenodd" d="M152.211 101.219L164.642 86.6816L157.219 98.9753L152.211 101.219Z" fill="#26AAD9"/>
<path fill-rule="evenodd" clip-rule="evenodd" d="M253.357 149.678L254.609 150.306L253.178 152.011L253.357 149.678Z" fill="#9CD8F7"/>
<path fill-rule="evenodd" clip-rule="evenodd" d="M254.609 150.305L254.966 151.92L253.625 151.471L254.609 150.305Z" fill="#5AA2CC"/>
<path fill-rule="evenodd" clip-rule="evenodd" d="M250.496 149.139L253.358 149.677L253.179 152.01L250.496 149.139Z" fill="#5AA2CC"/>
<path fill-rule="evenodd" clip-rule="evenodd" d="M253.179 152.01L251.39 152.459L250.496 149.139L253.179 152.01Z" fill="#63BAE4"/>
<path fill-rule="evenodd" clip-rule="evenodd" d="M251.391 152.459L249.602 145.908L247.188 152.369L251.391 152.459Z" fill="#9CD8F7"/>
<path fill-rule="evenodd" clip-rule="evenodd" d="M249.601 145.908L245.935 139.627L243.609 147.344L249.601 145.908Z" fill="#5AA2CC"/>
<path fill-rule="evenodd" clip-rule="evenodd" d="M244.324 150.305L247.186 152.369L249.601 145.908L244.324 150.305Z" fill="#63BAE4"/>
<path fill-rule="evenodd" clip-rule="evenodd" d="M249.601 145.908L243.609 147.344L243.788 149.228L249.601 145.908Z" fill="#63BAE4"/>
<path fill-rule="evenodd" clip-rule="evenodd" d="M249.601 145.908L244.325 150.305L242.715 149.857L249.601 145.908Z" fill="#5AA2CC"/>
<path fill-rule="evenodd" clip-rule="evenodd" d="M245.935 139.627L244.951 134.691L242 140.075L245.935 139.627Z" fill="#9CD8F7"/>
<path fill-rule="evenodd" clip-rule="evenodd" d="M242 140.076L241.91 143.396L245.935 139.627L242 140.076Z" fill="#63BAE4"/>
<path fill-rule="evenodd" clip-rule="evenodd" d="M241.91 143.396L243.609 147.344L245.935 139.627L241.91 143.396Z" fill="#9CD8F7"/>
<path fill-rule="evenodd" clip-rule="evenodd" d="M243.609 147.345L240.479 144.922L238.064 146.806L243.609 147.345Z" fill="#63BAE4"/>
<path fill-rule="evenodd" clip-rule="evenodd" d="M243.788 149.228L238.064 146.805L243.609 147.343L243.788 149.228Z" fill="#9CD8F7"/>
<path fill-rule="evenodd" clip-rule="evenodd" d="M243.788 149.228L238.065 146.805L237.26 148.061L243.788 149.228Z" fill="#5AA2CC"/>
<path fill-rule="evenodd" clip-rule="evenodd" d="M246.024 151.561L245.667 152.458L241.553 152.099L246.024 151.561Z" fill="#5AA2CC"/>
<path fill-rule="evenodd" clip-rule="evenodd" d="M241.553 152.101L242.715 149.857L244.325 150.306L246.024 151.562L241.553 152.101Z" fill="#9CD8F7"/>
<path fill-rule="evenodd" clip-rule="evenodd" d="M241.552 152.101L238.869 150.755L242.715 149.857L241.552 152.101Z" fill="#63BAE4"/>
<path fill-rule="evenodd" clip-rule="evenodd" d="M243.788 149.229L242.715 149.857L237.26 148.062L243.788 149.229Z" fill="#63BAE4"/>
<path fill-rule="evenodd" clip-rule="evenodd" d="M242.715 149.857L238.87 150.755L237.26 148.062L242.715 149.857Z" fill="#5AA2CC"/>
<path fill-rule="evenodd" clip-rule="evenodd" d="M264.626 144.473L262.211 147.075L253.357 149.677L264.626 144.473Z" fill="#9CD8F7"/>
<path fill-rule="evenodd" clip-rule="evenodd" d="M250.496 149.139L260.423 146.447L253.358 149.678L250.496 149.139Z" fill="#63BAE4"/>
<path fill-rule="evenodd" clip-rule="evenodd" d="M375.164 177.674L375.074 176.148L376.416 176.418L375.164 177.674Z" fill="#9CD8F7"/>
<path fill-rule="evenodd" clip-rule="evenodd" d="M375.073 176.777L374.715 178.393L375.341 178.572L375.073 176.777Z" fill="#5AA2CC"/>
<path fill-rule="evenodd" clip-rule="evenodd" d="M375.162 177.675L376.056 176.777L376.146 177.675H375.162Z" fill="#5AA2CC"/>
<path fill-rule="evenodd" clip-rule="evenodd" d="M375.162 177.674L375.341 178.571L376.146 177.674H375.162Z" fill="#448CB7"/>
<path fill-rule="evenodd" clip-rule="evenodd" d="M375.342 178.571L377.309 179.289L376.147 177.674L375.342 178.571Z" fill="#5AA2CC"/>
<path fill-rule="evenodd" clip-rule="evenodd" d="M374.717 178.392L373.822 178.751L374.806 177.854L374.717 178.392Z" fill="#63BAE4"/>
<path fill-rule="evenodd" clip-rule="evenodd" d="M377.309 179.289L383.122 180.097L376.146 183.955L377.309 179.289Z" fill="#5AA2CC"/>
<path fill-rule="evenodd" clip-rule="evenodd" d="M383.123 180.096L389.383 179.109L387.326 181.981L383.123 180.096Z" fill="#63BAE4"/>
<path fill-rule="evenodd" clip-rule="evenodd" d="M387.326 181.982L383.749 183.866L383.123 180.098L387.326 181.982Z" fill="#5AA2CC"/>
<path fill-rule="evenodd" clip-rule="evenodd" d="M383.122 180.098L376.146 183.956L378.919 185.302L383.122 180.098Z" fill="#63BAE4"/>
<path fill-rule="evenodd" clip-rule="evenodd" d="M378.918 185.302L383.747 183.866L383.121 180.098L378.918 185.302Z" fill="#9CD8F7"/>
<path fill-rule="evenodd" clip-rule="evenodd" d="M373.821 178.751L369.797 176.328L372.48 182.968L373.821 178.751Z" fill="#5AA2CC"/>
<path fill-rule="evenodd" clip-rule="evenodd" d="M369.797 176.328L363.895 171.662L365.415 176.956L369.797 176.328Z" fill="#63BAE4"/>
<path fill-rule="evenodd" clip-rule="evenodd" d="M369.796 176.328L365.414 176.956L366.756 180.187L369.796 176.328Z" fill="#5AA2CC"/>
<path fill-rule="evenodd" clip-rule="evenodd" d="M366.756 180.187L368.634 181.802L369.797 176.328L366.756 180.187Z" fill="#9CD8F7"/>
<path fill-rule="evenodd" clip-rule="evenodd" d="M368.635 181.802L372.48 182.968L369.797 176.328L368.635 181.802Z" fill="#63BAE4"/>
<path fill-rule="evenodd" clip-rule="evenodd" d="M372.48 182.968L368.635 182.609L368.814 185.391L372.48 182.968Z" fill="#5AA2CC"/>
<path fill-rule="evenodd" clip-rule="evenodd" d="M368.812 185.392L369.796 187.366L372.479 182.969L368.812 185.392Z" fill="#63BAE4"/>
<path fill-rule="evenodd" clip-rule="evenodd" d="M369.797 187.366L372.569 189.25L372.48 182.969L369.797 187.366Z" fill="#5AA2CC"/>
<path fill-rule="evenodd" clip-rule="evenodd" d="M372.48 182.969L373.643 185.033L372.57 189.25L372.48 182.969Z" fill="#448CB7"/>
<path fill-rule="evenodd" clip-rule="evenodd" d="M373.642 185.032L376.146 183.955L372.568 189.249L373.642 185.032Z" fill="#5AA2CC"/>
<path fill-rule="evenodd" clip-rule="evenodd" d="M372.568 189.249L376.235 188.98L376.146 183.955L372.568 189.249Z" fill="#63BAE4"/>
<path fill-rule="evenodd" clip-rule="evenodd" d="M376.236 188.98L378.203 187.724L376.146 183.955L376.236 188.98Z" fill="#9CD8F7"/>
<path fill-rule="evenodd" clip-rule="evenodd" d="M378.203 187.724L379.455 185.66L376.146 183.955L378.203 187.724Z" fill="#5AA2CC"/>
<path fill-rule="evenodd" clip-rule="evenodd" d="M373.822 178.752L372.48 182.969L373.643 185.033L373.822 178.752Z" fill="#9CD8F7"/>
<path fill-rule="evenodd" clip-rule="evenodd" d="M377.309 179.289L373.643 185.032L376.147 183.955L377.309 179.289Z" fill="#63BAE4"/>
<path fill-rule="evenodd" clip-rule="evenodd" d="M373.821 178.752L377.309 179.29L373.643 185.033L373.821 178.752Z" fill="#5AA2CC"/>
<path fill-rule="evenodd" clip-rule="evenodd" d="M377.31 179.29L375.343 178.572L374.717 178.393L373.822 178.752L377.31 179.29Z" fill="#9CD8F7"/>
<path fill-rule="evenodd" clip-rule="evenodd" d="M383.926 151.203L384.552 151.652L384.194 152.908L383.926 151.203Z" fill="#9CD8F7"/>
<path fill-rule="evenodd" clip-rule="evenodd" d="M383.926 151.202L382.316 150.035L384.105 152.368L383.926 151.202Z" fill="#5AA9D3"/>
<path fill-rule="evenodd" clip-rule="evenodd" d="M384.105 152.368H381.959L382.317 150.035L384.105 152.368Z" fill="#4486B3"/>
<path fill-rule="evenodd" clip-rule="evenodd" d="M384.105 152.638L383.926 152.369H384.105V152.638Z" fill="#777F84"/>
<path fill-rule="evenodd" clip-rule="evenodd" d="M381.959 152.368L382.854 146.984L378.203 152.099L381.959 152.368Z" fill="#5AA9D3"/>
<path fill-rule="evenodd" clip-rule="evenodd" d="M381.959 152.369L379.723 153.984L378.203 152.1L381.959 152.369Z" fill="#4486B3"/>
<path fill-rule="evenodd" clip-rule="evenodd" d="M382.853 146.985L381.422 141.242L379.365 143.575L382.853 146.985Z" fill="#9CD8F7"/>
<path fill-rule="evenodd" clip-rule="evenodd" d="M382.853 146.984L381.422 148.599L379.365 143.574L382.853 146.984Z" fill="#63BAE4"/>
<path fill-rule="evenodd" clip-rule="evenodd" d="M381.423 148.599L377.846 148.061L379.366 143.574L381.423 148.599Z" fill="#5AA9D3"/>
<path fill-rule="evenodd" clip-rule="evenodd" d="M377.846 148.061L378.203 152.099L381.423 148.599L377.846 148.061Z" fill="#63BAE4"/>
<path fill-rule="evenodd" clip-rule="evenodd" d="M378.649 145.639L374.625 140.793L375.34 143.844L378.649 145.639Z" fill="#9CD8F7"/>
<path fill-rule="evenodd" clip-rule="evenodd" d="M378.651 145.639L377.846 148.061H377.041L378.651 145.639Z" fill="#4486B3"/>
<path fill-rule="evenodd" clip-rule="evenodd" d="M377.041 148.061L378.204 152.099L377.846 148.061H377.041Z" fill="#5AA2CC"/>
<path fill-rule="evenodd" clip-rule="evenodd" d="M378.651 145.638L375.342 143.844L377.041 148.061L378.651 145.638Z" fill="#63BAE4"/>
<path fill-rule="evenodd" clip-rule="evenodd" d="M378.203 152.1L373.821 152.189L373.463 154.343L378.203 152.1Z" fill="#9CD8F7"/>
<path fill-rule="evenodd" clip-rule="evenodd" d="M373.463 154.343L379.723 153.984L378.203 152.1L373.463 154.343Z" fill="#63BAE4"/>
<path fill-rule="evenodd" clip-rule="evenodd" d="M373.463 154.343L377.398 156.407L379.723 153.984L373.463 154.343Z" fill="#5AA9D3"/>
<path fill-rule="evenodd" clip-rule="evenodd" d="M379.724 153.984L380.976 155.6L377.398 156.407L379.724 153.984Z" fill="#4486B3"/>
<path fill-rule="evenodd" clip-rule="evenodd" d="M289.578 127.422L290.651 128.229L290.025 129.575L289.578 127.422Z" fill="#90D4F6"/>
<path fill-rule="evenodd" clip-rule="evenodd" d="M289.578 127.422L288.326 127.601L289.847 128.858L289.578 127.422Z" fill="#008AB5"/>
<path fill-rule="evenodd" clip-rule="evenodd" d="M288.326 127.601L287.074 125.268L284.838 128.319L288.326 127.601Z" fill="#0C7098"/>
<path fill-rule="evenodd" clip-rule="evenodd" d="M287.074 125.269L291.993 111.629L289.221 112.616L287.074 125.269Z" fill="#90D4F6"/>
<path fill-rule="evenodd" clip-rule="evenodd" d="M289.221 112.615L283.318 116.653L287.074 125.268L289.221 112.615Z" fill="#26AAD9"/>
<path fill-rule="evenodd" clip-rule="evenodd" d="M283.318 116.654L279.92 122.038L287.074 125.269L283.318 116.654Z" fill="#008AB5"/>
<path fill-rule="evenodd" clip-rule="evenodd" d="M279.92 122.039L280.904 125.808L287.074 125.27L279.92 122.039Z" fill="#0C7098"/>
<path fill-rule="evenodd" clip-rule="evenodd" d="M280.902 125.806L283.585 128.049L287.073 125.268L280.902 125.806Z" fill="#26AAD9"/>
<path fill-rule="evenodd" clip-rule="evenodd" d="M283.586 128.049L284.838 128.319L287.074 125.268L283.586 128.049Z" fill="#008AB5"/>
<path fill-rule="evenodd" clip-rule="evenodd" d="M289.846 128.857L289.667 130.024L286.537 132.357L289.846 128.857Z" fill="#26AAD9"/>
<path fill-rule="evenodd" clip-rule="evenodd" d="M288.952 128.141L283.139 130.294L284.838 128.32L288.952 128.141Z" fill="#90D4F6"/>
<path fill-rule="evenodd" clip-rule="evenodd" d="M284.838 128.319L288.326 127.602L288.952 128.14L284.838 128.319Z" fill="#26AAD9"/>
<path fill-rule="evenodd" clip-rule="evenodd" d="M284.838 128.32L283.139 129.038V130.294L284.838 128.32Z" fill="#26AAD9"/>
<path fill-rule="evenodd" clip-rule="evenodd" d="M289.846 128.859L288.952 128.141L286.537 132.358L289.846 128.859Z" fill="#90D4F6"/>
<path fill-rule="evenodd" clip-rule="evenodd" d="M288.952 128.141L283.139 130.294L284.838 131.281L288.952 128.141Z" fill="#26AAD9"/>
<path fill-rule="evenodd" clip-rule="evenodd" d="M289.757 129.486L292.439 130.922L287.789 131.46L289.667 130.025L289.757 129.486Z" fill="#0C7098"/>
<path fill-rule="evenodd" clip-rule="evenodd" d="M292.439 130.922L305.317 132.358L302.366 134.601L292.439 130.922Z" fill="#90D4F6"/>
<path fill-rule="evenodd" clip-rule="evenodd" d="M302.366 134.601L298.431 136.037L292.439 130.922L302.366 134.601Z" fill="#26AAD9"/>
<path fill-rule="evenodd" clip-rule="evenodd" d="M292.439 130.922L298.431 136.037L293.691 136.126L292.439 130.922Z" fill="#008AB5"/>
<path fill-rule="evenodd" clip-rule="evenodd" d="M292.441 130.922L288.863 133.883L293.693 136.126L292.441 130.922Z" fill="#90D4F6"/>
<path fill-rule="evenodd" clip-rule="evenodd" d="M292.439 130.922L287.789 131.46L288.862 133.883L292.439 130.922Z" fill="#26AAD9"/>
<path fill-rule="evenodd" clip-rule="evenodd" d="M283.139 129.037L277.415 126.973L276.432 130.741L283.139 129.037Z" fill="#008AB5"/>
<path fill-rule="evenodd" clip-rule="evenodd" d="M283.139 130.293V129.037L276.432 130.742L283.139 130.293Z" fill="#0C7098"/>
<path fill-rule="evenodd" clip-rule="evenodd" d="M276.432 130.742L277.594 133.703L283.139 130.293L276.432 130.742Z" fill="#90D4F6"/>
<path fill-rule="evenodd" clip-rule="evenodd" d="M277.594 133.703L280.098 135.677L283.138 130.293L277.594 133.703Z" fill="#26AAD9"/>
<path fill-rule="evenodd" clip-rule="evenodd" d="M283.138 130.293L284.837 131.28L280.098 135.677L283.138 130.293Z" fill="#0C7098"/>
<path fill-rule="evenodd" clip-rule="evenodd" d="M280.098 135.678L283.138 137.473L284.837 131.281L280.098 135.678Z" fill="#008AB5"/>
<path fill-rule="evenodd" clip-rule="evenodd" d="M283.139 137.473L284.838 131.281L286.537 132.358L283.139 137.473Z" fill="#90D4F6"/>
<path fill-rule="evenodd" clip-rule="evenodd" d="M286.537 132.357L286.716 138.28L283.139 137.472L286.537 132.357Z" fill="#26AAD9"/>
<path fill-rule="evenodd" clip-rule="evenodd" d="M286.537 132.357L288.773 137.741L286.716 138.28L286.537 132.357Z" fill="#0C7098"/>
<path fill-rule="evenodd" clip-rule="evenodd" d="M288.952 128.141L284.838 131.281L286.537 132.358L288.952 128.141Z" fill="#0C7098"/>
<path fill-rule="evenodd" clip-rule="evenodd" d="M287.789 131.461L287.432 131.73L288.863 133.884L287.789 131.461Z" fill="#008AB5"/>
<path fill-rule="evenodd" clip-rule="evenodd" d="M23.6102 51.1484L23.4313 52.4945L22.0898 52.6739L23.6102 51.1484Z" fill="#9CD8F7"/>
<path fill-rule="evenodd" clip-rule="evenodd" d="M23.6103 51.1492L22.8054 50.1621L22.5371 52.1363L23.6103 51.1492Z" fill="#5AA2CC"/>
<path fill-rule="evenodd" clip-rule="evenodd" d="M22.8057 50.161L24.1471 47.8279L20.4805 47.6484L22.8057 50.161Z" fill="#3B8ABC"/>
<path fill-rule="evenodd" clip-rule="evenodd" d="M24.1465 47.8278L37.9188 44.4178L35.6831 42.7129L24.1465 47.8278Z" fill="#9CD8F7"/>
<path fill-rule="evenodd" clip-rule="evenodd" d="M35.6831 42.7134L29.3335 39.9316L24.1465 47.8283L35.6831 42.7134Z" fill="#63BAE4"/>
<path fill-rule="evenodd" clip-rule="evenodd" d="M29.3328 39.9316L23.1621 40.0214L24.1458 47.8283L29.3328 39.9316Z" fill="#5AA2CC"/>
<path fill-rule="evenodd" clip-rule="evenodd" d="M23.1619 40.0215L20.5684 42.9827L24.1456 47.8284L23.1619 40.0215Z" fill="#3B8ABC"/>
<path fill-rule="evenodd" clip-rule="evenodd" d="M20.5698 42.9824L20.0332 46.4821L24.147 47.8281L20.5698 42.9824Z" fill="#63BAE4"/>
<path fill-rule="evenodd" clip-rule="evenodd" d="M20.0332 46.4824L20.4804 47.649L24.147 47.8284L20.0332 46.4824Z" fill="#5AA2CC"/>
<path fill-rule="evenodd" clip-rule="evenodd" d="M22.5375 52.1357L21.4644 52.6741L17.9766 51.3281L22.5375 52.1357Z" fill="#63BAE4"/>
<path fill-rule="evenodd" clip-rule="evenodd" d="M22.7164 50.9682L17.9766 47.2891L20.4806 47.648L22.7164 50.9682Z" fill="#9CD8F7"/>
<path fill-rule="evenodd" clip-rule="evenodd" d="M20.4805 47.6484L22.8057 50.161L22.7162 50.9686L20.4805 47.6484Z" fill="#63BAE4"/>
<path fill-rule="evenodd" clip-rule="evenodd" d="M20.4806 47.6492L18.9603 46.6621L17.9766 47.2903L20.4806 47.6492Z" fill="#63BAE4"/>
<path fill-rule="evenodd" clip-rule="evenodd" d="M22.5375 52.1353L22.7164 50.9688L17.9766 51.3277L22.5375 52.1353Z" fill="#9CD8F7"/>
<path fill-rule="evenodd" clip-rule="evenodd" d="M22.7164 50.9682L17.9766 47.2891V49.353L22.7164 50.9682Z" fill="#63BAE4"/>
<path fill-rule="evenodd" clip-rule="evenodd" d="M21.9993 52.4056L22.1782 55.3668L19.3164 51.8672L21.4627 52.6748L21.9993 52.4056Z" fill="#3B8ABC"/>
<path fill-rule="evenodd" clip-rule="evenodd" d="M22.1797 55.3652L27.4561 67.0307L24.0577 65.7744L22.1797 55.3652Z" fill="#9CD8F7"/>
<path fill-rule="evenodd" clip-rule="evenodd" d="M24.0578 65.7744L20.9277 63.3516L22.1798 55.3652L24.0578 65.7744Z" fill="#63BAE4"/>
<path fill-rule="evenodd" clip-rule="evenodd" d="M22.1799 55.3652L20.9279 63.3516L18.4238 59.4033L22.1799 55.3652Z" fill="#5AA2CC"/>
<path fill-rule="evenodd" clip-rule="evenodd" d="M22.1794 55.3657L17.8867 54.1094L18.4233 59.4037L22.1794 55.3657Z" fill="#9CD8F7"/>
<path fill-rule="evenodd" clip-rule="evenodd" d="M22.1794 55.3668L19.3176 51.8672L17.8867 54.1105L22.1794 55.3668Z" fill="#63BAE4"/>
<path fill-rule="evenodd" clip-rule="evenodd" d="M18.9601 46.6607L17.7975 40.7383L14.1309 41.9946L18.9601 46.6607Z" fill="#5AA2CC"/>
<path fill-rule="evenodd" clip-rule="evenodd" d="M17.9764 47.2904L18.9601 46.6623L14.1309 41.9961L17.9764 47.2904Z" fill="#3B8ABC"/>
<path fill-rule="evenodd" clip-rule="evenodd" d="M14.13 41.9961L12.252 44.5984L17.9755 47.2904L14.13 41.9961Z" fill="#9CD8F7"/>
<path fill-rule="evenodd" clip-rule="evenodd" d="M12.2527 44.5977L11.9844 47.8281L17.9762 47.2897L12.2527 44.5977Z" fill="#63BAE4"/>
<path fill-rule="evenodd" clip-rule="evenodd" d="M17.9762 47.2891V49.2632L11.9844 47.8275L17.9762 47.2891Z" fill="#3B8ABC"/>
<path fill-rule="evenodd" clip-rule="evenodd" d="M11.984 47.8281L11.8945 51.3278L17.9758 49.2639L11.984 47.8281Z" fill="#5AA2CC"/>
<path fill-rule="evenodd" clip-rule="evenodd" d="M11.8945 51.3276L17.9758 49.2637V51.3276H11.8945Z" fill="#9CD8F7"/>
<path fill-rule="evenodd" clip-rule="evenodd" d="M17.9758 51.3281L13.0571 54.738L11.8945 51.3281H17.9758Z" fill="#63BAE4"/>
<path fill-rule="evenodd" clip-rule="evenodd" d="M17.9753 51.3281L14.6664 56.1738L13.0566 54.738L17.9753 51.3281Z" fill="#3B8ABC"/>
<path fill-rule="evenodd" clip-rule="evenodd" d="M22.7164 50.9686L17.9766 49.2637V51.3276L22.7164 50.9686Z" fill="#3B8ABC"/>
<path fill-rule="evenodd" clip-rule="evenodd" d="M19.3176 51.867L18.9599 51.6875L17.8867 54.1103L19.3176 51.867Z" fill="#5AA2CC"/>
<path fill-rule="evenodd" clip-rule="evenodd" d="M161.333 129.936L161.869 130.205L161.064 130.923L161.333 129.936Z" fill="#9CD8F7"/>
<path fill-rule="evenodd" clip-rule="evenodd" d="M161.869 130.205V131.013L161.332 130.743L161.869 130.205Z" fill="#5AA2CC"/>
<path fill-rule="evenodd" clip-rule="evenodd" d="M160.08 129.398L161.332 129.937L161.064 130.924L160.08 129.398Z" fill="#5AA2CC"/>
<path fill-rule="evenodd" clip-rule="evenodd" d="M161.064 130.924H160.259L160.08 129.398L161.064 130.924Z" fill="#63BAE4"/>
<path fill-rule="evenodd" clip-rule="evenodd" d="M160.259 130.924L159.991 127.873L158.381 130.565L160.259 130.924Z" fill="#9CD8F7"/>
<path fill-rule="evenodd" clip-rule="evenodd" d="M159.991 127.873L158.829 124.822L157.219 128.053L159.991 127.873Z" fill="#5AA2CC"/>
<path fill-rule="evenodd" clip-rule="evenodd" d="M157.309 129.399L158.382 130.565L159.992 127.873L157.309 129.399Z" fill="#63BAE4"/>
<path fill-rule="evenodd" clip-rule="evenodd" d="M159.991 127.873L157.218 128.053L157.129 128.86L159.991 127.873Z" fill="#63BAE4"/>
<path fill-rule="evenodd" clip-rule="evenodd" d="M159.992 127.873L157.309 129.399L156.594 129.04L159.992 127.873Z" fill="#5AA2CC"/>
<path fill-rule="evenodd" clip-rule="evenodd" d="M158.83 124.821V122.488L157.041 124.642L158.83 124.821Z" fill="#9CD8F7"/>
<path fill-rule="evenodd" clip-rule="evenodd" d="M157.04 124.643L156.771 126.168L158.828 124.822L157.04 124.643Z" fill="#63BAE4"/>
<path fill-rule="evenodd" clip-rule="evenodd" d="M156.771 126.168L157.219 128.053L158.828 124.822L156.771 126.168Z" fill="#9CD8F7"/>
<path fill-rule="evenodd" clip-rule="evenodd" d="M157.219 128.051L155.967 126.705L154.805 127.333L157.219 128.051Z" fill="#63BAE4"/>
<path fill-rule="evenodd" clip-rule="evenodd" d="M157.13 128.859L154.805 127.334L157.219 128.052L157.13 128.859Z" fill="#9CD8F7"/>
<path fill-rule="evenodd" clip-rule="evenodd" d="M157.13 128.859L154.805 127.334L154.357 127.872L157.13 128.859Z" fill="#5AA2CC"/>
<path fill-rule="evenodd" clip-rule="evenodd" d="M157.934 130.115L157.666 130.474L155.877 130.025L157.934 130.115Z" fill="#5AA2CC"/>
<path fill-rule="evenodd" clip-rule="evenodd" d="M155.877 130.026L156.592 129.039L157.308 129.398L157.934 130.116L155.877 130.026Z" fill="#9CD8F7"/>
<path fill-rule="evenodd" clip-rule="evenodd" d="M155.878 130.026L154.805 129.129L156.593 129.039L155.878 130.026Z" fill="#63BAE4"/>
<path fill-rule="evenodd" clip-rule="evenodd" d="M157.13 128.86L156.593 129.04L154.357 127.873L157.13 128.86Z" fill="#63BAE4"/>
<path fill-rule="evenodd" clip-rule="evenodd" d="M156.593 129.04L154.805 129.129L154.357 127.873L156.593 129.04Z" fill="#5AA2CC"/>
<path fill-rule="evenodd" clip-rule="evenodd" d="M166.698 128.5L165.446 129.397L161.332 129.936L166.698 128.5Z" fill="#9CD8F7"/>
<path fill-rule="evenodd" clip-rule="evenodd" d="M160.08 129.398L164.73 129.039L161.332 129.936L160.08 129.398Z" fill="#63BAE4"/>
<path fill-rule="evenodd" clip-rule="evenodd" d="M88.5367 97.2734L88.9838 97.7221L88.4473 98.7092L88.5367 97.2734Z" fill="#9CD8F7"/>
<path fill-rule="evenodd" clip-rule="evenodd" d="M88.5376 97.2719L87.375 96.0156L88.5376 98.259V97.2719Z" fill="#5AA9D3"/>
<path fill-rule="evenodd" clip-rule="evenodd" d="M88.5367 98.259L86.748 97.9898L87.3741 96.0156L88.5367 98.259Z" fill="#4486B3"/>
<path fill-rule="evenodd" clip-rule="evenodd" d="M88.4488 98.529L88.3594 98.2598H88.5382L88.4488 98.529Z" fill="#777F84"/>
<path fill-rule="evenodd" clip-rule="evenodd" d="M86.7492 97.9907L88.2695 93.5938L83.6191 97.0934L86.7492 97.9907Z" fill="#5AA9D3"/>
<path fill-rule="evenodd" clip-rule="evenodd" d="M86.7492 97.9911L84.6029 98.8884L83.6191 97.0938L86.7492 97.9911Z" fill="#4486B3"/>
<path fill-rule="evenodd" clip-rule="evenodd" d="M88.2686 93.5935L88.0003 88.5684L85.9434 90.1836L88.2686 93.5935Z" fill="#9CD8F7"/>
<path fill-rule="evenodd" clip-rule="evenodd" d="M88.2686 93.5935L86.8377 94.6703L85.9434 90.1836L88.2686 93.5935Z" fill="#63BAE4"/>
<path fill-rule="evenodd" clip-rule="evenodd" d="M86.8383 94.6703L83.9766 93.6832L85.944 90.1836L86.8383 94.6703Z" fill="#5AA9D3"/>
<path fill-rule="evenodd" clip-rule="evenodd" d="M83.9769 93.6836L83.6191 97.0935L86.8387 94.6707L83.9769 93.6836Z" fill="#63BAE4"/>
<path fill-rule="evenodd" clip-rule="evenodd" d="M85.0505 91.7989L82.457 87.043L82.6359 89.735L85.0505 91.7989Z" fill="#9CD8F7"/>
<path fill-rule="evenodd" clip-rule="evenodd" d="M85.0488 91.7988L83.9756 93.6832L83.3496 93.5038L85.0488 91.7988Z" fill="#4486B3"/>
<path fill-rule="evenodd" clip-rule="evenodd" d="M83.3496 93.5039L83.6179 97.0933L83.9756 93.6834L83.3496 93.5039Z" fill="#5AA2CC"/>
<path fill-rule="evenodd" clip-rule="evenodd" d="M85.0494 91.7983L82.6348 89.7344L83.3502 93.5032L85.0494 91.7983Z" fill="#63BAE4"/>
<path fill-rule="evenodd" clip-rule="evenodd" d="M83.6189 97.093L79.9522 96.4648L79.3262 98.2595L83.6189 97.093Z" fill="#9CD8F7"/>
<path fill-rule="evenodd" clip-rule="evenodd" d="M79.3262 98.2603L84.6026 98.8884L83.6189 97.0938L79.3262 98.2603Z" fill="#63BAE4"/>
<path fill-rule="evenodd" clip-rule="evenodd" d="M79.3262 98.2598L82.3668 100.593L84.6026 98.8879L79.3262 98.2598Z" fill="#5AA9D3"/>
<path fill-rule="evenodd" clip-rule="evenodd" d="M84.603 98.8887L85.4078 100.414L82.3672 100.594L84.603 98.8887Z" fill="#4486B3"/>
<path fill-rule="evenodd" clip-rule="evenodd" d="M33.6258 156.227L35.325 158.111L32.1055 161.341L33.6258 156.227Z" fill="#63BBC8"/>
<path fill-rule="evenodd" clip-rule="evenodd" d="M35.3238 158.111L35.9498 159.727L33.5352 159.816L35.3238 158.111Z" fill="#9FD5D8"/>
<path fill-rule="evenodd" clip-rule="evenodd" d="M35.9498 159.727L36.0393 160.265L35.2344 159.727H35.9498Z" fill="#56ADC3"/>
<path fill-rule="evenodd" clip-rule="evenodd" d="M32.9104 158.65L31.2112 164.124L27.4551 159.817L32.9104 158.65Z" fill="#9FD5D8"/>
<path fill-rule="evenodd" clip-rule="evenodd" d="M33.6258 156.227L27.4551 159.816L32.9104 158.649L33.6258 156.227Z" fill="#56ADC3"/>
<path fill-rule="evenodd" clip-rule="evenodd" d="M21.9106 143.754L19.0488 152.279L24.683 150.305L21.9106 143.754Z" fill="#9FD5D8"/>
<path fill-rule="evenodd" clip-rule="evenodd" d="M24.6815 150.305L28.6165 154.612L19.584 159.188L24.6815 150.305Z" fill="#63BBC8"/>
<path fill-rule="evenodd" clip-rule="evenodd" d="M24.683 150.305L19.0488 152.279L19.5854 159.188L24.683 150.305Z" fill="#56ADC3"/>
<path fill-rule="evenodd" clip-rule="evenodd" d="M28.6165 154.611L19.584 159.188L26.5596 163.405L28.6165 154.611Z" fill="#9FD5D8"/>
<path fill-rule="evenodd" clip-rule="evenodd" d="M26.5605 163.405L28.6175 164.482V154.611L26.5605 163.405Z" fill="#63BBC8"/>
<path fill-rule="evenodd" clip-rule="evenodd" d="M28.6164 161.072L28.4375 168.7L31.2099 164.123L28.6164 161.072Z" fill="#56ADC3"/>
<path fill-rule="evenodd" clip-rule="evenodd" d="M24.8616 162.328L26.5608 163.405L22.8047 164.661L24.8616 162.328Z" fill="#56ADC3"/>
<path fill-rule="evenodd" clip-rule="evenodd" d="M22.8046 164.662L16.0078 167.982L17.2598 168.521L22.8046 164.662Z" fill="#9FD5D8"/>
<path fill-rule="evenodd" clip-rule="evenodd" d="M22.8047 164.663L26.5608 163.406L28.5283 164.393L22.8047 164.663Z" fill="#9FD5D8"/>
<path fill-rule="evenodd" clip-rule="evenodd" d="M22.8047 164.662L28.5283 164.393L28.4388 168.7L22.8047 164.662Z" fill="#63BBC8"/>
<path fill-rule="evenodd" clip-rule="evenodd" d="M22.8047 164.662L28.4388 168.7L24.8616 170.226L22.8047 164.662Z" fill="#56ADC3"/>
<path fill-rule="evenodd" clip-rule="evenodd" d="M15.0245 168.521L13.1465 167.444L22.805 164.662L15.0245 168.521Z" fill="#63BBC8"/>
<path fill-rule="evenodd" clip-rule="evenodd" d="M22.8042 164.662L12.162 167.713L10.0156 166.188L22.8042 164.662Z" fill="#56ADC3"/>
<path fill-rule="evenodd" clip-rule="evenodd" d="M22.8044 164.662L18.5117 167.623L24.8613 170.226L22.8044 164.662Z" fill="#63BBC8"/>
<path fill-rule="evenodd" clip-rule="evenodd" d="M212.846 128.32L214.814 129.666L212.578 133.166L212.846 128.32Z" fill="#49B4C2"/>
<path fill-rule="evenodd" clip-rule="evenodd" d="M214.813 129.666L215.707 130.922L213.65 131.55L214.813 129.666Z" fill="#91D0D4"/>
<path fill-rule="evenodd" clip-rule="evenodd" d="M215.708 130.922L215.977 131.371L215.172 131.101L215.708 130.922Z" fill="#44A5BC"/>
<path fill-rule="evenodd" clip-rule="evenodd" d="M212.756 130.652L212.488 135.857L208.195 132.896L212.756 130.652Z" fill="#91D0D4"/>
<path fill-rule="evenodd" clip-rule="evenodd" d="M212.846 128.32L208.195 132.897L212.756 130.653L212.846 128.32Z" fill="#44A5BC"/>
<path fill-rule="evenodd" clip-rule="evenodd" d="M199.521 119.975L198.895 128.14L203.456 125.179L199.521 119.975Z" fill="#91D0D4"/>
<path fill-rule="evenodd" clip-rule="evenodd" d="M203.455 125.18L208.016 128.051L200.951 134.153L203.455 125.18Z" fill="#49B4C2"/>
<path fill-rule="evenodd" clip-rule="evenodd" d="M203.456 125.18L198.895 128.141L200.951 134.153L203.456 125.18Z" fill="#44A5BC"/>
<path fill-rule="evenodd" clip-rule="evenodd" d="M208.016 128.051L200.951 134.153L208.195 136.306L208.016 128.051Z" fill="#91D0D4"/>
<path fill-rule="evenodd" clip-rule="evenodd" d="M208.196 136.306L210.253 136.755L208.018 128.051L208.196 136.306Z" fill="#49B4C2"/>
<path fill-rule="evenodd" clip-rule="evenodd" d="M209.447 133.793L211.057 140.523L212.488 135.857L209.447 133.793Z" fill="#44A5BC"/>
<path fill-rule="evenodd" clip-rule="evenodd" d="M206.318 135.768L208.196 136.306L205.066 138.28L206.318 135.768Z" fill="#44A5BC"/>
<path fill-rule="evenodd" clip-rule="evenodd" d="M205.065 138.281L199.699 142.768L200.951 142.947L205.065 138.281Z" fill="#91D0D4"/>
<path fill-rule="evenodd" clip-rule="evenodd" d="M205.066 138.281L208.196 136.307L210.164 136.755L205.066 138.281Z" fill="#91D0D4"/>
<path fill-rule="evenodd" clip-rule="evenodd" d="M205.066 138.281L210.164 136.756L211.058 140.525L205.066 138.281Z" fill="#49B4C2"/>
<path fill-rule="evenodd" clip-rule="evenodd" d="M205.066 138.281L211.058 140.525L208.196 142.678L205.066 138.281Z" fill="#44A5BC"/>
<path fill-rule="evenodd" clip-rule="evenodd" d="M198.985 143.486L197.018 142.947L205.066 138.281L198.985 143.486Z" fill="#49B4C2"/>
<path fill-rule="evenodd" clip-rule="evenodd" d="M205.066 138.281L196.212 143.396L193.977 142.588L205.066 138.281Z" fill="#44A5BC"/>
<path fill-rule="evenodd" clip-rule="evenodd" d="M205.066 138.281L201.936 141.871L208.196 142.678L205.066 138.281Z" fill="#49B4C2"/>
<path fill-rule="evenodd" clip-rule="evenodd" d="M178.771 118.899L179.04 118.092L179.755 118.54L178.771 118.899Z" fill="#9CD8F7"/>
<path fill-rule="evenodd" clip-rule="evenodd" d="M178.95 118.449L178.324 119.257L178.593 119.436L178.95 118.449Z" fill="#5AA2CC"/>
<path fill-rule="evenodd" clip-rule="evenodd" d="M178.771 118.898L179.487 118.629L179.308 119.167L178.771 118.898Z" fill="#5AA2CC"/>
<path fill-rule="evenodd" clip-rule="evenodd" d="M178.773 118.898L178.594 119.437L179.309 119.168L178.773 118.898Z" fill="#448CB7"/>
<path fill-rule="evenodd" clip-rule="evenodd" d="M178.594 119.437L179.488 120.335L179.309 119.168L178.594 119.437Z" fill="#5AA2CC"/>
<path fill-rule="evenodd" clip-rule="evenodd" d="M178.326 119.257L177.789 119.168L178.505 118.988L178.326 119.257Z" fill="#63BAE4"/>
<path fill-rule="evenodd" clip-rule="evenodd" d="M179.488 120.334L182.35 122.308L177.699 122.577L179.488 120.334Z" fill="#5AA2CC"/>
<path fill-rule="evenodd" clip-rule="evenodd" d="M182.35 122.309L185.927 123.296L184.138 124.372L182.35 122.309Z" fill="#63BAE4"/>
<path fill-rule="evenodd" clip-rule="evenodd" d="M184.138 124.372L181.812 124.552L182.349 122.309L184.138 124.372Z" fill="#5AA2CC"/>
<path fill-rule="evenodd" clip-rule="evenodd" d="M182.35 122.309L177.699 122.578L178.862 124.014L182.35 122.309Z" fill="#63BAE4"/>
<path fill-rule="evenodd" clip-rule="evenodd" d="M178.861 124.014L181.813 124.552L182.349 122.309L178.861 124.014Z" fill="#9CD8F7"/>
<path fill-rule="evenodd" clip-rule="evenodd" d="M177.789 119.167L176.268 116.834L176 121.141L177.789 119.167Z" fill="#5AA2CC"/>
<path fill-rule="evenodd" clip-rule="evenodd" d="M176.268 116.835L174.3 112.797L173.764 116.027L176.268 116.835Z" fill="#63BAE4"/>
<path fill-rule="evenodd" clip-rule="evenodd" d="M176.267 116.835L173.763 116.027L173.674 118.181L176.267 116.835Z" fill="#5AA2CC"/>
<path fill-rule="evenodd" clip-rule="evenodd" d="M173.674 118.18L174.3 119.526L176.267 116.834L173.674 118.18Z" fill="#9CD8F7"/>
<path fill-rule="evenodd" clip-rule="evenodd" d="M174.301 119.526L176 121.141L176.268 116.834L174.301 119.526Z" fill="#63BAE4"/>
<path fill-rule="evenodd" clip-rule="evenodd" d="M176 121.143L174.032 119.977L173.406 121.502L176 121.143Z" fill="#5AA2CC"/>
<path fill-rule="evenodd" clip-rule="evenodd" d="M173.406 121.502V122.848L176 121.143L173.406 121.502Z" fill="#63BAE4"/>
<path fill-rule="evenodd" clip-rule="evenodd" d="M173.406 122.848L174.479 124.552L176 121.143L173.406 122.848Z" fill="#5AA2CC"/>
<path fill-rule="evenodd" clip-rule="evenodd" d="M175.999 121.143L176.088 122.489L174.479 124.552L175.999 121.143Z" fill="#448CB7"/>
<path fill-rule="evenodd" clip-rule="evenodd" d="M176.088 122.488L177.698 122.578L174.479 124.552L176.088 122.488Z" fill="#5AA2CC"/>
<path fill-rule="evenodd" clip-rule="evenodd" d="M174.479 124.552L176.446 125.36L177.698 122.578L174.479 124.552Z" fill="#63BAE4"/>
<path fill-rule="evenodd" clip-rule="evenodd" d="M176.447 125.36L177.789 125.18L177.699 122.578L176.447 125.36Z" fill="#9CD8F7"/>
<path fill-rule="evenodd" clip-rule="evenodd" d="M177.789 125.18L179.041 124.373L177.699 122.578L177.789 125.18Z" fill="#5AA2CC"/>
<path fill-rule="evenodd" clip-rule="evenodd" d="M177.789 119.168L176 121.142L176.089 122.488L177.789 119.168Z" fill="#9CD8F7"/>
<path fill-rule="evenodd" clip-rule="evenodd" d="M179.488 120.334L176.09 122.488L177.7 122.577L179.488 120.334Z" fill="#63BAE4"/>
<path fill-rule="evenodd" clip-rule="evenodd" d="M177.789 119.168L179.488 120.335L176.09 122.488L177.789 119.168Z" fill="#5AA2CC"/>
<path fill-rule="evenodd" clip-rule="evenodd" d="M179.488 120.335L178.594 119.437L178.326 119.258L177.789 119.168L179.488 120.335Z" fill="#9CD8F7"/>
<path fill-rule="evenodd" clip-rule="evenodd" d="M380.797 91.4405L381.333 90.7227L381.87 91.4405H380.797Z" fill="#9FD5D8"/>
<path fill-rule="evenodd" clip-rule="evenodd" d="M381.156 90.9922L380.172 91.6203L380.44 91.8895L381.156 90.9922Z" fill="#56ADC3"/>
<path fill-rule="evenodd" clip-rule="evenodd" d="M380.797 91.4395H381.512L381.155 91.8881L380.797 91.4395Z" fill="#56ADC3"/>
<path fill-rule="evenodd" clip-rule="evenodd" d="M380.797 91.4395L380.439 91.8881H381.155L380.797 91.4395Z" fill="#369DBB"/>
<path fill-rule="evenodd" clip-rule="evenodd" d="M380.439 91.8887L380.976 93.145L381.155 91.8887H380.439Z" fill="#56ADC3"/>
<path fill-rule="evenodd" clip-rule="evenodd" d="M380.172 91.6188L379.725 91.3496H380.529L380.172 91.6188Z" fill="#63BBC8"/>
<path fill-rule="evenodd" clip-rule="evenodd" d="M380.976 93.1445L383.123 96.016L378.383 94.67L380.976 93.1445Z" fill="#56ADC3"/>
<path fill-rule="evenodd" clip-rule="evenodd" d="M383.123 96.0156L386.343 98.259L384.107 98.6179L383.123 96.0156Z" fill="#63BBC8"/>
<path fill-rule="evenodd" clip-rule="evenodd" d="M384.106 98.6179L381.781 97.9L383.123 96.0156L384.106 98.6179Z" fill="#56ADC3"/>
<path fill-rule="evenodd" clip-rule="evenodd" d="M383.123 96.0159L378.383 94.6699L379.098 96.4646L383.123 96.0159Z" fill="#63BBC8"/>
<path fill-rule="evenodd" clip-rule="evenodd" d="M379.098 96.4643L381.781 97.9L383.122 96.0156L379.098 96.4643Z" fill="#9FD5D8"/>
<path fill-rule="evenodd" clip-rule="evenodd" d="M379.725 91.3501L379.01 88.5684L377.311 92.6064L379.725 91.3501Z" fill="#56ADC3"/>
<path fill-rule="evenodd" clip-rule="evenodd" d="M379.01 88.5685L378.473 83.9023L376.863 86.8636L379.01 88.5685Z" fill="#63BBC8"/>
<path fill-rule="evenodd" clip-rule="evenodd" d="M379.009 88.5682L376.863 86.8633L375.969 88.9272L379.009 88.5682Z" fill="#56ADC3"/>
<path fill-rule="evenodd" clip-rule="evenodd" d="M375.969 88.9273L376.148 90.4528L379.009 88.5684L375.969 88.9273Z" fill="#9FD5D8"/>
<path fill-rule="evenodd" clip-rule="evenodd" d="M376.146 90.4528L377.309 92.6064L379.008 88.5684L376.146 90.4528Z" fill="#63BBC8"/>
<path fill-rule="evenodd" clip-rule="evenodd" d="M377.31 92.6072L375.79 90.8125L374.627 92.0688L377.31 92.6072Z" fill="#56ADC3"/>
<path fill-rule="evenodd" clip-rule="evenodd" d="M374.627 92.0684L374.18 93.3246L377.31 92.6068L374.627 92.0684Z" fill="#63BBC8"/>
<path fill-rule="evenodd" clip-rule="evenodd" d="M374.18 93.3253L374.537 95.3892L377.31 92.6074L374.18 93.3253Z" fill="#56ADC3"/>
<path fill-rule="evenodd" clip-rule="evenodd" d="M377.309 92.6074L376.862 94.0432L374.537 95.3892L377.309 92.6074Z" fill="#369DBB"/>
<path fill-rule="evenodd" clip-rule="evenodd" d="M376.862 94.043L378.383 94.6711L374.537 95.389L376.862 94.043Z" fill="#56ADC3"/>
<path fill-rule="evenodd" clip-rule="evenodd" d="M374.537 95.3878L376.326 96.9133L378.383 94.6699L374.537 95.3878Z" fill="#63BBC8"/>
<path fill-rule="evenodd" clip-rule="evenodd" d="M376.326 96.9133L377.668 97.1825L378.383 94.6699L376.326 96.9133Z" fill="#9FD5D8"/>
<path fill-rule="evenodd" clip-rule="evenodd" d="M377.668 97.1825L379.099 96.8235L378.383 94.6699L377.668 97.1825Z" fill="#56ADC3"/>
<path fill-rule="evenodd" clip-rule="evenodd" d="M379.725 91.3496L377.31 92.6059L376.863 94.0416L379.725 91.3496Z" fill="#9FD5D8"/>
<path fill-rule="evenodd" clip-rule="evenodd" d="M380.977 93.1445L376.863 94.0419L378.384 94.67L380.977 93.1445Z" fill="#63BBC8"/>
<path fill-rule="evenodd" clip-rule="evenodd" d="M379.725 91.3496L380.977 93.1443L376.863 94.0416L379.725 91.3496Z" fill="#56ADC3"/>
<path fill-rule="evenodd" clip-rule="evenodd" d="M380.977 93.1443L380.44 91.888L380.172 91.6188L379.725 91.3496L380.977 93.1443Z" fill="#9FD5D8"/>
<path fill-rule="evenodd" clip-rule="evenodd" d="M294.406 57.8789L295.39 60.212L291.365 62.2759L294.406 57.8789Z" fill="#49B4C2"/>
<path fill-rule="evenodd" clip-rule="evenodd" d="M295.39 60.2129L295.48 61.9178L293.244 61.2897L295.39 60.2129Z" fill="#91D0D4"/>
<path fill-rule="evenodd" clip-rule="evenodd" d="M295.48 61.9177L295.39 62.4562L294.854 61.7383L295.48 61.9177Z" fill="#44A5BC"/>
<path fill-rule="evenodd" clip-rule="evenodd" d="M292.975 59.9427L289.666 64.6089L287.52 59.4043L292.975 59.9427Z" fill="#91D0D4"/>
<path fill-rule="evenodd" clip-rule="evenodd" d="M294.406 57.8789L287.52 59.4044L292.975 59.9428L294.406 57.8789Z" fill="#44A5BC"/>
<path fill-rule="evenodd" clip-rule="evenodd" d="M287.163 42.2656L281.887 49.5341L287.7 49.4444L287.163 42.2656Z" fill="#91D0D4"/>
<path fill-rule="evenodd" clip-rule="evenodd" d="M287.7 49.4453L290.204 54.7396L280.277 56.3549L287.7 49.4453Z" fill="#49B4C2"/>
<path fill-rule="evenodd" clip-rule="evenodd" d="M287.7 49.4453L281.887 49.535L280.277 56.3549L287.7 49.4453Z" fill="#44A5BC"/>
<path fill-rule="evenodd" clip-rule="evenodd" d="M290.204 54.7383L280.277 56.3535L285.554 62.5452L290.204 54.7383Z" fill="#91D0D4"/>
<path fill-rule="evenodd" clip-rule="evenodd" d="M285.553 62.5452L287.163 64.1604L290.203 54.7383L285.553 62.5452Z" fill="#49B4C2"/>
<path fill-rule="evenodd" clip-rule="evenodd" d="M288.147 61.0195L285.643 68.1983L289.667 64.6089L288.147 61.0195Z" fill="#44A5BC"/>
<path fill-rule="evenodd" clip-rule="evenodd" d="M284.211 61.0195L285.552 62.545H281.617L284.211 61.0195Z" fill="#44A5BC"/>
<path fill-rule="evenodd" clip-rule="evenodd" d="M281.618 62.5449L274.105 63.7115L275.179 64.6088L281.618 62.5449Z" fill="#91D0D4"/>
<path fill-rule="evenodd" clip-rule="evenodd" d="M281.617 62.5449H285.552L287.072 64.1601L281.617 62.5449Z" fill="#91D0D4"/>
<path fill-rule="evenodd" clip-rule="evenodd" d="M281.617 62.5449L287.072 64.1601L285.642 68.1982L281.617 62.5449Z" fill="#49B4C2"/>
<path fill-rule="evenodd" clip-rule="evenodd" d="M281.617 62.5449L285.642 68.1982L281.885 68.5571L281.617 62.5449Z" fill="#44A5BC"/>
<path fill-rule="evenodd" clip-rule="evenodd" d="M273.122 63.8926L271.602 62.2773L281.618 62.5465L273.122 63.8926Z" fill="#49B4C2"/>
<path fill-rule="evenodd" clip-rule="evenodd" d="M281.618 62.5459L270.618 62.2767L269.098 60.123L281.618 62.5459Z" fill="#44A5BC"/>
<path fill-rule="evenodd" clip-rule="evenodd" d="M281.618 62.5449L276.699 64.1601L281.886 68.5571L281.618 62.5449Z" fill="#49B4C2"/>
<path fill-rule="evenodd" clip-rule="evenodd" d="M382.049 8.52517L383.033 8.3457L383.39 9.33278L382.049 8.52517Z" fill="#9FD5D8"/>
<path fill-rule="evenodd" clip-rule="evenodd" d="M382.048 8.52539L381.512 9.333L382.943 9.0638L382.048 8.52539Z" fill="#56ADC3"/>
<path fill-rule="evenodd" clip-rule="evenodd" d="M381.511 9.33159L379.633 8.97266L380.259 11.6647L381.511 9.33159Z" fill="#17A2C8"/>
<path fill-rule="evenodd" clip-rule="evenodd" d="M379.633 8.97344L374.446 0L373.641 1.97416L379.633 8.97344Z" fill="#9FD5D8"/>
<path fill-rule="evenodd" clip-rule="evenodd" d="M373.642 1.97461L373.016 7.1792L379.634 8.97389L373.642 1.97461Z" fill="#63BBC8"/>
<path fill-rule="evenodd" clip-rule="evenodd" d="M373.016 7.17969L374.268 11.4869L379.634 8.97438L373.016 7.17969Z" fill="#56ADC3"/>
<path fill-rule="evenodd" clip-rule="evenodd" d="M374.268 11.4852L376.861 12.6518L379.633 8.97266L374.268 11.4852Z" fill="#17A2C8"/>
<path fill-rule="evenodd" clip-rule="evenodd" d="M376.861 12.6518L379.455 12.2031L379.634 8.97266L376.861 12.6518Z" fill="#63BBC8"/>
<path fill-rule="evenodd" clip-rule="evenodd" d="M379.455 12.2031L380.26 11.6647L379.634 8.97266L379.455 12.2031Z" fill="#56ADC3"/>
<path fill-rule="evenodd" clip-rule="evenodd" d="M382.941 9.0625L383.567 9.78037L383.299 12.4724L382.941 9.0625Z" fill="#63BBC8"/>
<path fill-rule="evenodd" clip-rule="evenodd" d="M382.138 9.24219L380.439 13.5494L380.26 11.665L382.138 9.24219Z" fill="#9FD5D8"/>
<path fill-rule="evenodd" clip-rule="evenodd" d="M380.26 11.665L381.512 9.33192L382.138 9.24219L380.26 11.665Z" fill="#63BBC8"/>
<path fill-rule="evenodd" clip-rule="evenodd" d="M380.26 11.666L379.812 12.9223L380.438 13.5504L380.26 11.666Z" fill="#63BBC8"/>
<path fill-rule="evenodd" clip-rule="evenodd" d="M382.942 9.0625L382.137 9.24197L383.299 12.4724L382.942 9.0625Z" fill="#9FD5D8"/>
<path fill-rule="evenodd" clip-rule="evenodd" d="M382.137 9.24219L380.438 13.5494L381.868 13.011L382.137 9.24219Z" fill="#63BBC8"/>
<path fill-rule="evenodd" clip-rule="evenodd" d="M383.301 9.42284L385.358 8.61523L383.39 11.4867L383.569 9.78178L383.301 9.42284Z" fill="#17A2C8"/>
<path fill-rule="evenodd" clip-rule="evenodd" d="M385.357 8.61495L392.512 1.97461L392.244 4.66664L385.357 8.61495Z" fill="#9FD5D8"/>
<path fill-rule="evenodd" clip-rule="evenodd" d="M392.244 4.66602L391.17 7.53752L385.357 8.61433L392.244 4.66602Z" fill="#63BBC8"/>
<path fill-rule="evenodd" clip-rule="evenodd" d="M385.357 8.61392L391.17 7.53711L388.935 10.2291L385.357 8.61392Z" fill="#56ADC3"/>
<path fill-rule="evenodd" clip-rule="evenodd" d="M385.357 8.61523L385.268 11.9354L388.934 10.2305L385.357 8.61523Z" fill="#9FD5D8"/>
<path fill-rule="evenodd" clip-rule="evenodd" d="M385.356 8.61523L383.389 11.4867L385.267 11.9354L385.356 8.61523Z" fill="#63BBC8"/>
<path fill-rule="evenodd" clip-rule="evenodd" d="M379.812 12.9219L375.877 15.1652L377.487 17.4983L379.812 12.9219Z" fill="#56ADC3"/>
<path fill-rule="evenodd" clip-rule="evenodd" d="M380.438 13.55L379.812 12.9219L377.486 17.4983L380.438 13.55Z" fill="#17A2C8"/>
<path fill-rule="evenodd" clip-rule="evenodd" d="M377.486 17.4991L379.722 18.217L380.438 13.5508L377.486 17.4991Z" fill="#9FD5D8"/>
<path fill-rule="evenodd" clip-rule="evenodd" d="M379.723 18.217L382.048 17.6786L380.438 13.5508L379.723 18.217Z" fill="#63BBC8"/>
<path fill-rule="evenodd" clip-rule="evenodd" d="M380.438 13.5501L381.868 13.0117L382.047 17.6779L380.438 13.5501Z" fill="#17A2C8"/>
<path fill-rule="evenodd" clip-rule="evenodd" d="M382.048 17.6779L384.463 16.7806L381.869 13.0117L382.048 17.6779Z" fill="#56ADC3"/>
<path fill-rule="evenodd" clip-rule="evenodd" d="M384.463 16.7799L381.869 13.0111L383.3 12.4727L384.463 16.7799Z" fill="#9FD5D8"/>
<path fill-rule="evenodd" clip-rule="evenodd" d="M383.301 12.4727L386.699 15.1647L384.463 16.7799L383.301 12.4727Z" fill="#63BBC8"/>
<path fill-rule="evenodd" clip-rule="evenodd" d="M383.301 12.4727L387.325 13.7289L386.699 15.1647L383.301 12.4727Z" fill="#17A2C8"/>
<path fill-rule="evenodd" clip-rule="evenodd" d="M382.137 9.24219L381.869 13.011L383.3 12.4726L382.137 9.24219Z" fill="#17A2C8"/>
<path fill-rule="evenodd" clip-rule="evenodd" d="M383.389 11.4863V11.6658L385.267 11.935L383.389 11.4863Z" fill="#56ADC3"/>
</g>
<defs>
<clipPath id="clip0_1018_42006">
<rect width="402.439" height="250" fill="white"/>
</clipPath>
</defs>
</svg>
