<svg width="403" height="250" viewBox="0 0 403 250" fill="none" xmlns="http://www.w3.org/2000/svg">
<g clip-path="url(#clip0_1018_42682)">
<path d="M0.560425 115.757C84.7149 154.612 205.804 155.329 263.845 240.398L264.113 240.308C204.552 152.996 86.5035 148.958 0.560425 108.309V115.757Z" fill="#159EEA"/>
<path d="M403 237.796C329.398 199.928 309.724 128.5 198.472 123.295C119.862 119.616 51.1789 119.706 0.560974 68.8262V76.5433C51.2683 124.372 119.504 120.782 198.114 124.461C308.829 129.666 327.967 206.658 403 245.065V237.796Z" fill="#159EEA"/>
<path d="M403 200.108C355.691 177.585 319.024 142.14 268.138 124.462C203.837 102.118 113.423 99.5161 68.6179 42.1758L68.439 42.2655C114.406 101.221 201.87 104.093 267.423 126.795C318.22 144.473 354.976 182.161 403 205.313V200.108Z" fill="#159EEA"/>
<path fill-rule="evenodd" clip-rule="evenodd" d="M326.895 221.285L321.439 220.836L323.496 229.271L326.895 221.285Z" fill="#90D4F6"/>
<path fill-rule="evenodd" clip-rule="evenodd" d="M321.438 220.836L317.414 225.682L322.869 226.579L321.438 220.836Z" fill="#008AB5"/>
<path fill-rule="evenodd" clip-rule="evenodd" d="M337.447 224.516L326.894 221.285L323.496 229.272L337.447 224.516Z" fill="#008AB5"/>
<path fill-rule="evenodd" clip-rule="evenodd" d="M323.496 229.272L328.772 233.758L337.447 224.516L323.496 229.272Z" fill="#26AAD9"/>
<path fill-rule="evenodd" clip-rule="evenodd" d="M328.771 233.759L346.121 215.363L343.08 240.668L328.771 233.759Z" fill="#90D4F6"/>
<path fill-rule="evenodd" clip-rule="evenodd" d="M346.123 215.362L369.285 201.184L363.919 230.527L346.123 215.362Z" fill="#008AB5"/>
<path fill-rule="evenodd" clip-rule="evenodd" d="M356.496 238.874L343.081 240.668L346.122 215.363L356.496 238.874Z" fill="#26AAD9"/>
<path fill-rule="evenodd" clip-rule="evenodd" d="M346.121 215.363L363.918 230.528L360.162 236.451L346.121 215.363Z" fill="#26AAD9"/>
<path fill-rule="evenodd" clip-rule="evenodd" d="M346.121 215.363L356.495 238.874L362.666 240.22L346.121 215.363Z" fill="#008AB5"/>
<path fill-rule="evenodd" clip-rule="evenodd" d="M369.285 201.184L381.269 186.736L381.895 209.439L369.285 201.184Z" fill="#90D4F6"/>
<path fill-rule="evenodd" clip-rule="evenodd" d="M381.895 209.439L376.529 220.476L369.285 201.184L381.895 209.439Z" fill="#26AAD9"/>
<path fill-rule="evenodd" clip-rule="evenodd" d="M376.529 220.476L363.92 230.527L369.285 201.184L376.529 220.476Z" fill="#90D4F6"/>
<path fill-rule="evenodd" clip-rule="evenodd" d="M363.918 230.528L378.674 228.016L383.414 238.425L363.918 230.528Z" fill="#26AAD9"/>
<path fill-rule="evenodd" clip-rule="evenodd" d="M360.162 236.45L383.414 238.424L363.918 230.527L360.162 236.45Z" fill="#90D4F6"/>
<path fill-rule="evenodd" clip-rule="evenodd" d="M360.163 236.449L383.415 238.423L383.951 243.987L360.163 236.449Z" fill="#008AB5"/>
<path fill-rule="evenodd" clip-rule="evenodd" d="M348.359 239.949L348.09 243.808L362.578 249.641L348.359 239.949Z" fill="#008AB5"/>
<path fill-rule="evenodd" clip-rule="evenodd" d="M362.577 249.641L362.666 240.219L356.495 238.873L348.357 239.95L362.577 249.641Z" fill="#90D4F6"/>
<path fill-rule="evenodd" clip-rule="evenodd" d="M362.577 249.641L374.113 250L362.666 240.219L362.577 249.641Z" fill="#26AAD9"/>
<path fill-rule="evenodd" clip-rule="evenodd" d="M360.163 236.449L362.667 240.218L383.951 243.987L360.163 236.449Z" fill="#26AAD9"/>
<path fill-rule="evenodd" clip-rule="evenodd" d="M362.667 240.219L374.114 250L383.951 243.988L362.667 240.219Z" fill="#008AB5"/>
<path fill-rule="evenodd" clip-rule="evenodd" d="M297.74 184.225L301.407 197.057L326.895 221.285L297.74 184.225Z" fill="#90D4F6"/>
<path fill-rule="evenodd" clip-rule="evenodd" d="M337.447 224.515L308.651 198.133L326.894 221.284L337.447 224.515Z" fill="#26AAD9"/>
<path fill-rule="evenodd" clip-rule="evenodd" d="M187.65 96.8223L185.862 97.0017L187.114 99.7835L187.65 96.8223Z" fill="#90D4F6"/>
<path fill-rule="evenodd" clip-rule="evenodd" d="M185.863 97.002L184.879 98.9761L186.668 98.8864L185.863 97.002Z" fill="#008AB5"/>
<path fill-rule="evenodd" clip-rule="evenodd" d="M191.408 97.1812L187.652 96.8223L187.116 99.7835L191.408 97.1812Z" fill="#008AB5"/>
<path fill-rule="evenodd" clip-rule="evenodd" d="M187.116 99.7839L189.172 100.861L191.408 97.1816L187.116 99.7839Z" fill="#26AAD9"/>
<path fill-rule="evenodd" clip-rule="evenodd" d="M189.172 100.86L193.644 93.502L194.359 102.206L189.172 100.86Z" fill="#90D4F6"/>
<path fill-rule="evenodd" clip-rule="evenodd" d="M193.644 93.5021L200.44 87.2207L200.619 97.4504L193.644 93.5021Z" fill="#008AB5"/>
<path fill-rule="evenodd" clip-rule="evenodd" d="M198.65 100.77L194.358 102.206L193.642 93.502L198.65 100.77Z" fill="#26AAD9"/>
<path fill-rule="evenodd" clip-rule="evenodd" d="M193.644 93.502L200.619 97.4503L199.725 99.6936L193.644 93.502Z" fill="#26AAD9"/>
<path fill-rule="evenodd" clip-rule="evenodd" d="M193.643 93.502L198.651 100.77H200.887L193.643 93.502Z" fill="#008AB5"/>
<path fill-rule="evenodd" clip-rule="evenodd" d="M200.44 87.2215L203.48 81.4785L205.18 89.1059L200.44 87.2215Z" fill="#90D4F6"/>
<path fill-rule="evenodd" clip-rule="evenodd" d="M205.18 89.1051L204.107 93.2329L200.44 87.2207L205.18 89.1051Z" fill="#26AAD9"/>
<path fill-rule="evenodd" clip-rule="evenodd" d="M204.107 93.2329L200.62 97.4504L200.441 87.2207L204.107 93.2329Z" fill="#90D4F6"/>
<path fill-rule="evenodd" clip-rule="evenodd" d="M200.618 97.4508L205.358 95.5664L207.594 98.7968L200.618 97.4508Z" fill="#26AAD9"/>
<path fill-rule="evenodd" clip-rule="evenodd" d="M199.724 99.6945L207.594 98.7972L200.618 97.4512L199.724 99.6945Z" fill="#90D4F6"/>
<path fill-rule="evenodd" clip-rule="evenodd" d="M199.724 99.6942L207.594 98.7969L208.131 100.592L199.724 99.6942Z" fill="#008AB5"/>
<path fill-rule="evenodd" clip-rule="evenodd" d="M196.058 101.668L196.237 102.924L201.424 103.911L196.058 101.668Z" fill="#008AB5"/>
<path fill-rule="evenodd" clip-rule="evenodd" d="M201.424 103.912L200.887 100.771H198.651L196.058 101.669L201.424 103.912Z" fill="#90D4F6"/>
<path fill-rule="evenodd" clip-rule="evenodd" d="M201.424 103.912L205.27 103.284L200.887 100.771L201.424 103.912Z" fill="#26AAD9"/>
<path fill-rule="evenodd" clip-rule="evenodd" d="M199.724 99.6953L200.887 100.772L208.131 100.593L199.724 99.6953Z" fill="#26AAD9"/>
<path fill-rule="evenodd" clip-rule="evenodd" d="M200.887 100.771L205.269 103.284L208.131 100.592L200.887 100.771Z" fill="#008AB5"/>
<path fill-rule="evenodd" clip-rule="evenodd" d="M175.488 86.3242L177.545 90.3623L187.65 96.8231L175.488 86.3242Z" fill="#90D4F6"/>
<path fill-rule="evenodd" clip-rule="evenodd" d="M191.408 97.183L180.05 90.2734L187.652 96.824L191.408 97.183Z" fill="#26AAD9"/>
<path fill-rule="evenodd" clip-rule="evenodd" d="M344.064 105.527L340.934 107.95L342.812 111.809L344.064 105.527Z" fill="#90D4F6"/>
<path fill-rule="evenodd" clip-rule="evenodd" d="M344.064 105.527L347.82 106.066L343.259 109.835L344.064 105.527Z" fill="#008AB5"/>
<path fill-rule="evenodd" clip-rule="evenodd" d="M347.822 106.066L351.399 99.2461L357.928 108.13L347.822 106.066Z" fill="#0C7098"/>
<path fill-rule="evenodd" clip-rule="evenodd" d="M351.398 99.2461L336.911 59.2246L345.049 62.0961L351.398 99.2461Z" fill="#90D4F6"/>
<path fill-rule="evenodd" clip-rule="evenodd" d="M345.049 62.0957L362.398 74.0304L351.398 99.2457L345.049 62.0957Z" fill="#26AAD9"/>
<path fill-rule="evenodd" clip-rule="evenodd" d="M362.398 74.0312L372.414 89.645L351.398 99.2466L362.398 74.0312Z" fill="#008AB5"/>
<path fill-rule="evenodd" clip-rule="evenodd" d="M372.414 89.6445L369.642 100.682L351.398 99.2461L372.414 89.6445Z" fill="#0C7098"/>
<path fill-rule="evenodd" clip-rule="evenodd" d="M369.643 100.682L361.773 107.502L351.399 99.2461L369.643 100.682Z" fill="#26AAD9"/>
<path fill-rule="evenodd" clip-rule="evenodd" d="M361.771 107.502L357.926 108.13L351.397 99.2461L361.771 107.502Z" fill="#008AB5"/>
<path fill-rule="evenodd" clip-rule="evenodd" d="M343.259 109.834L343.885 113.334L352.918 120.064L343.259 109.834Z" fill="#26AAD9"/>
<path fill-rule="evenodd" clip-rule="evenodd" d="M345.943 107.682L363.113 113.963L357.926 108.13L345.943 107.682Z" fill="#90D4F6"/>
<path fill-rule="evenodd" clip-rule="evenodd" d="M357.928 108.13L347.822 106.066L345.944 107.682L357.928 108.13Z" fill="#26AAD9"/>
<path fill-rule="evenodd" clip-rule="evenodd" d="M357.926 108.129L362.934 110.283L363.113 113.962L357.926 108.129Z" fill="#26AAD9"/>
<path fill-rule="evenodd" clip-rule="evenodd" d="M343.259 109.835L345.942 107.682L352.918 120.065L343.259 109.835Z" fill="#90D4F6"/>
<path fill-rule="evenodd" clip-rule="evenodd" d="M345.943 107.682L363.113 113.963L358.016 117.014L345.943 107.682Z" fill="#26AAD9"/>
<path fill-rule="evenodd" clip-rule="evenodd" d="M343.529 111.539L335.838 115.757L349.432 117.462L343.887 113.334L343.529 111.539Z" fill="#0C7098"/>
<path fill-rule="evenodd" clip-rule="evenodd" d="M335.838 115.758L297.74 120.155L306.505 126.705L335.838 115.758Z" fill="#90D4F6"/>
<path fill-rule="evenodd" clip-rule="evenodd" d="M306.505 126.705L318.041 130.833L335.838 115.758L306.505 126.705Z" fill="#26AAD9"/>
<path fill-rule="evenodd" clip-rule="evenodd" d="M335.838 115.758L318.041 130.833L331.992 131.192L335.838 115.758Z" fill="#008AB5"/>
<path fill-rule="evenodd" clip-rule="evenodd" d="M335.837 115.758L346.211 124.552L331.991 131.192L335.837 115.758Z" fill="#90D4F6"/>
<path fill-rule="evenodd" clip-rule="evenodd" d="M335.838 115.758L349.432 117.463L346.212 124.552L335.838 115.758Z" fill="#26AAD9"/>
<path fill-rule="evenodd" clip-rule="evenodd" d="M362.935 110.284L379.837 104.361L382.699 115.309L362.935 110.284Z" fill="#008AB5"/>
<path fill-rule="evenodd" clip-rule="evenodd" d="M363.114 113.962L362.935 110.283L382.699 115.308L363.114 113.962Z" fill="#0C7098"/>
<path fill-rule="evenodd" clip-rule="evenodd" d="M382.699 115.309L379.301 124.193L363.114 113.963L382.699 115.309Z" fill="#90D4F6"/>
<path fill-rule="evenodd" clip-rule="evenodd" d="M379.301 124.193L371.878 129.846L363.114 113.963L379.301 124.193Z" fill="#26AAD9"/>
<path fill-rule="evenodd" clip-rule="evenodd" d="M363.115 113.963L358.017 117.014L371.879 129.846L363.115 113.963Z" fill="#0C7098"/>
<path fill-rule="evenodd" clip-rule="evenodd" d="M371.879 129.846L363.115 135.23L358.017 117.014L371.879 129.846Z" fill="#008AB5"/>
<path fill-rule="evenodd" clip-rule="evenodd" d="M363.113 135.23L358.016 117.014L352.918 120.065L363.113 135.23Z" fill="#90D4F6"/>
<path fill-rule="evenodd" clip-rule="evenodd" d="M352.918 120.064L352.471 137.563L363.113 135.23L352.918 120.064Z" fill="#26AAD9"/>
<path fill-rule="evenodd" clip-rule="evenodd" d="M352.918 120.064L346.479 135.858L352.471 137.563L352.918 120.064Z" fill="#0C7098"/>
<path fill-rule="evenodd" clip-rule="evenodd" d="M345.942 107.682L358.016 117.014L352.918 120.065L345.942 107.682Z" fill="#0C7098"/>
<path fill-rule="evenodd" clip-rule="evenodd" d="M349.432 117.463L350.326 118.091L346.212 124.552L349.432 117.463Z" fill="#008AB5"/>
<path fill-rule="evenodd" clip-rule="evenodd" d="M275.829 67.3008L274.488 71.1594L281.195 73.9411L275.829 67.3008Z" fill="#26AAD9"/>
<path fill-rule="evenodd" clip-rule="evenodd" d="M274.487 71.1582V73.94L278.064 72.6837L274.487 71.1582Z" fill="#90D4F6"/>
<path fill-rule="evenodd" clip-rule="evenodd" d="M274.487 73.941L274.756 74.8383L275.561 73.582L274.487 73.941Z" fill="#008AB5"/>
<path fill-rule="evenodd" clip-rule="evenodd" d="M278.333 70.4414L284.235 77.6201L287.008 68.8262L278.333 70.4414Z" fill="#90D4F6"/>
<path fill-rule="evenodd" clip-rule="evenodd" d="M275.829 67.3008L287.008 68.8263L278.333 70.4415L275.829 67.3008Z" fill="#008AB5"/>
<path fill-rule="evenodd" clip-rule="evenodd" d="M285.309 41.1875L294.789 52.2248L285.309 52.853V41.1875Z" fill="#90D4F6"/>
<path fill-rule="evenodd" clip-rule="evenodd" d="M285.31 52.8535L282.09 61.6475L298.277 62.9935L285.31 52.8535Z" fill="#26AAD9"/>
<path fill-rule="evenodd" clip-rule="evenodd" d="M285.31 52.8528L294.79 52.2246L298.277 62.9927L285.31 52.8528Z" fill="#008AB5"/>
<path fill-rule="evenodd" clip-rule="evenodd" d="M282.09 61.6465L298.277 62.9925L290.586 73.6709L282.09 61.6465Z" fill="#90D4F6"/>
<path fill-rule="evenodd" clip-rule="evenodd" d="M290.586 73.6709L288.261 76.4527L282.09 61.6465L290.586 73.6709Z" fill="#26AAD9"/>
<path fill-rule="evenodd" clip-rule="evenodd" d="M286.202 71.5176L291.121 82.8241L284.235 77.6195L286.202 71.5176Z" fill="#008AB5"/>
<path fill-rule="evenodd" clip-rule="evenodd" d="M292.553 70.9785L290.586 73.6705L296.936 73.1321L292.553 70.9785Z" fill="#008AB5"/>
<path fill-rule="evenodd" clip-rule="evenodd" d="M296.935 73.1328L309.008 74.0302L307.487 75.5556L296.935 73.1328Z" fill="#90D4F6"/>
<path fill-rule="evenodd" clip-rule="evenodd" d="M296.936 73.1328L290.586 73.6712L288.35 76.3632L296.936 73.1328Z" fill="#90D4F6"/>
<path fill-rule="evenodd" clip-rule="evenodd" d="M296.936 73.1328L288.35 76.3632L291.123 82.8241L296.936 73.1328Z" fill="#26AAD9"/>
<path fill-rule="evenodd" clip-rule="evenodd" d="M296.935 73.1328L291.122 82.8241H297.293L296.935 73.1328Z" fill="#008AB5"/>
<path fill-rule="evenodd" clip-rule="evenodd" d="M310.707 74.1198L312.854 71.4277L296.935 73.1327L310.707 74.1198Z" fill="#26AAD9"/>
<path fill-rule="evenodd" clip-rule="evenodd" d="M296.935 73.1338L314.463 71.2494L316.699 67.5703L296.935 73.1338Z" fill="#008AB5"/>
<path fill-rule="evenodd" clip-rule="evenodd" d="M296.934 73.1328L305.072 75.0172L297.292 82.8241L296.934 73.1328Z" fill="#26AAD9"/>
<path fill-rule="evenodd" clip-rule="evenodd" d="M240.326 159.457L239.611 162.239L244.529 163.764L240.326 159.457Z" fill="#26AAD9"/>
<path fill-rule="evenodd" clip-rule="evenodd" d="M239.61 162.238L239.788 164.212L242.203 163.046L239.61 162.238Z" fill="#90D4F6"/>
<path fill-rule="evenodd" clip-rule="evenodd" d="M239.788 164.212L239.967 164.841L240.504 163.854L239.788 164.212Z" fill="#008AB5"/>
<path fill-rule="evenodd" clip-rule="evenodd" d="M242.293 161.521L246.854 166.188L248.285 159.816L242.293 161.521Z" fill="#90D4F6"/>
<path fill-rule="evenodd" clip-rule="evenodd" d="M240.326 159.457L248.285 159.816L242.293 161.521L240.326 159.457Z" fill="#008AB5"/>
<path fill-rule="evenodd" clip-rule="evenodd" d="M245.424 140.434L252.668 147.612L246.14 148.599L245.424 140.434Z" fill="#90D4F6"/>
<path fill-rule="evenodd" clip-rule="evenodd" d="M246.138 148.6L244.35 155.06L255.797 154.971L246.138 148.6Z" fill="#26AAD9"/>
<path fill-rule="evenodd" clip-rule="evenodd" d="M246.138 148.6L252.667 147.613L255.797 154.971L246.138 148.6Z" fill="#008AB5"/>
<path fill-rule="evenodd" clip-rule="evenodd" d="M244.35 155.06L255.797 154.971L251.057 163.047L244.35 155.06Z" fill="#90D4F6"/>
<path fill-rule="evenodd" clip-rule="evenodd" d="M251.057 163.047L249.626 165.111L244.349 155.061L251.057 163.047Z" fill="#26AAD9"/>
<path fill-rule="evenodd" clip-rule="evenodd" d="M247.838 161.791L252.041 169.418L246.854 166.188L247.838 161.791Z" fill="#008AB5"/>
<path fill-rule="evenodd" clip-rule="evenodd" d="M252.22 160.982L251.057 163.046L255.439 162.239L252.22 160.982Z" fill="#008AB5"/>
<path fill-rule="evenodd" clip-rule="evenodd" d="M255.44 162.238L264.025 162.148L263.042 163.315L255.44 162.238Z" fill="#90D4F6"/>
<path fill-rule="evenodd" clip-rule="evenodd" d="M255.439 162.238L251.057 163.046L249.626 165.11L255.439 162.238Z" fill="#90D4F6"/>
<path fill-rule="evenodd" clip-rule="evenodd" d="M255.439 162.238L249.626 165.11L252.041 169.417L255.439 162.238Z" fill="#26AAD9"/>
<path fill-rule="evenodd" clip-rule="evenodd" d="M255.44 162.238L252.041 169.417L256.334 169.058L255.44 162.238Z" fill="#008AB5"/>
<path fill-rule="evenodd" clip-rule="evenodd" d="M265.278 162.15L266.619 160.086L255.44 162.24L265.278 162.15Z" fill="#26AAD9"/>
<path fill-rule="evenodd" clip-rule="evenodd" d="M255.44 162.24L267.692 159.817L269.033 157.125L255.44 162.24Z" fill="#008AB5"/>
<path fill-rule="evenodd" clip-rule="evenodd" d="M255.439 162.238L261.342 163.046L256.334 169.058L255.439 162.238Z" fill="#26AAD9"/>
<path fill-rule="evenodd" clip-rule="evenodd" d="M60.9277 93.5024L58.7814 89.1055L55.383 92.2462L60.9277 93.5024Z" fill="#90D4F6"/>
<path fill-rule="evenodd" clip-rule="evenodd" d="M59.5858 90.8105L63.7891 94.8486L62.2687 96.2843L59.5858 90.8105Z" fill="#008AB5"/>
<path fill-rule="evenodd" clip-rule="evenodd" d="M60.9277 93.5027L56.9928 92.5156L58.4237 95.2077L60.9277 93.5027Z" fill="#008AB5"/>
<path fill-rule="evenodd" clip-rule="evenodd" d="M60.9281 93.5039L62.2695 96.2857L58.424 95.2089L60.9281 93.5039Z" fill="#0C6D8E"/>
<path fill-rule="evenodd" clip-rule="evenodd" d="M62.2695 96.2838L58.1557 102.206L58.424 95.207L62.2695 96.2838Z" fill="#008AB5"/>
<path fill-rule="evenodd" clip-rule="evenodd" d="M63.789 94.8499L66.7402 94.0423L62.3581 93.5039L63.789 94.8499Z" fill="#26AAD9"/>
<path fill-rule="evenodd" clip-rule="evenodd" d="M58.1552 102.207L43.578 114.949L69.7812 113.424L58.1552 102.207Z" fill="#008AB5"/>
<path fill-rule="evenodd" clip-rule="evenodd" d="M43.5781 114.949L24.3505 123.384L35.4399 127.961L43.5781 114.949Z" fill="#26AAD9"/>
<path fill-rule="evenodd" clip-rule="evenodd" d="M35.4392 127.961L48.4961 126.974L43.5774 114.949L35.4392 127.961Z" fill="#008AB5"/>
<path fill-rule="evenodd" clip-rule="evenodd" d="M43.578 114.949L69.7812 113.424L64.326 122.128L43.578 114.949Z" fill="#26AAD9"/>
<path fill-rule="evenodd" clip-rule="evenodd" d="M64.3262 122.128L48.4969 126.974L43.5782 114.949L64.3262 122.128Z" fill="#90D4F6"/>
<path fill-rule="evenodd" clip-rule="evenodd" d="M66.7399 94.0414L73.4472 79.9531L78.0977 103.822L66.7399 94.0414Z" fill="#008AB5"/>
<path fill-rule="evenodd" clip-rule="evenodd" d="M73.4482 79.9531L81.3181 55.9043L86.7734 73.7614L73.4482 79.9531Z" fill="#26AAD9"/>
<path fill-rule="evenodd" clip-rule="evenodd" d="M73.448 79.9534L86.7732 73.7617L88.8301 85.4272L73.448 79.9534Z" fill="#008AB5"/>
<path fill-rule="evenodd" clip-rule="evenodd" d="M88.8301 85.4269L86.5049 93.503L73.448 79.9531L88.8301 85.4269Z" fill="#90D4F6"/>
<path fill-rule="evenodd" clip-rule="evenodd" d="M86.5039 93.503L78.0974 103.822L73.447 79.9531L86.5039 93.503Z" fill="#26AAD9"/>
<path fill-rule="evenodd" clip-rule="evenodd" d="M78.0981 103.822L87.9355 95.8359L92.5859 104.002L78.0981 103.822Z" fill="#008AB5"/>
<path fill-rule="evenodd" clip-rule="evenodd" d="M92.5862 104.002L93.4805 111.45L78.0984 103.822L92.5862 104.002Z" fill="#26AAD9"/>
<path fill-rule="evenodd" clip-rule="evenodd" d="M93.4805 111.45L89.1878 121.859L78.0984 103.822L93.4805 111.45Z" fill="#008AB5"/>
<path fill-rule="evenodd" clip-rule="evenodd" d="M78.0981 103.822L78.6346 111.719L89.1875 121.859L78.0981 103.822Z" fill="#0C6D8E"/>
<path fill-rule="evenodd" clip-rule="evenodd" d="M78.6346 111.719L69.781 113.424L89.1875 121.859L78.6346 111.719Z" fill="#008AB5"/>
<path fill-rule="evenodd" clip-rule="evenodd" d="M89.1875 121.859L78.4558 128.051L69.781 113.424L89.1875 121.859Z" fill="#26AAD9"/>
<path fill-rule="evenodd" clip-rule="evenodd" d="M78.457 128.051L70.8554 127.692L69.7822 113.424L78.457 128.051Z" fill="#90D4F6"/>
<path fill-rule="evenodd" clip-rule="evenodd" d="M70.8535 127.692L63.699 124.192L69.7803 113.424L70.8535 127.692Z" fill="#008AB5"/>
<path fill-rule="evenodd" clip-rule="evenodd" d="M66.7405 94.041L78.0982 103.822L78.6348 111.719L66.7405 94.041Z" fill="#90D4F6"/>
<path fill-rule="evenodd" clip-rule="evenodd" d="M58.1551 102.207L78.6348 111.719L69.7811 113.424L58.1551 102.207Z" fill="#26AAD9"/>
<path fill-rule="evenodd" clip-rule="evenodd" d="M66.7405 94.041L58.1551 102.207L78.6348 111.719L66.7405 94.041Z" fill="#008AB5"/>
<path fill-rule="evenodd" clip-rule="evenodd" d="M58.1549 102.207L62.2687 96.2844L63.789 94.8486L66.7402 94.041L58.1549 102.207Z" fill="#90D4F6"/>
<path fill-rule="evenodd" clip-rule="evenodd" d="M61.1953 157.663L59.3173 156.496L58.423 159.816L61.1953 157.663Z" fill="#9FD5D8"/>
<path fill-rule="evenodd" clip-rule="evenodd" d="M59.3184 156.496L56.9932 157.393L58.6923 158.739L59.3184 156.496Z" fill="#56ADC3"/>
<path fill-rule="evenodd" clip-rule="evenodd" d="M64.416 160.893L61.1965 157.662L58.4242 159.816L64.416 160.893Z" fill="#56ADC3"/>
<path fill-rule="evenodd" clip-rule="evenodd" d="M58.4242 159.816L59.4973 162.419L64.416 160.893L58.4242 159.816Z" fill="#63BBC8"/>
<path fill-rule="evenodd" clip-rule="evenodd" d="M59.4962 162.418L69.2441 159.277L63.3417 167.623L59.4962 162.418Z" fill="#9FD5D8"/>
<path fill-rule="evenodd" clip-rule="evenodd" d="M69.2445 159.279L80.334 158.83L72.8218 168.073L69.2445 159.279Z" fill="#56ADC3"/>
<path fill-rule="evenodd" clip-rule="evenodd" d="M68.5287 169.597L63.3417 167.623L69.2441 159.277L68.5287 169.597Z" fill="#63BBC8"/>
<path fill-rule="evenodd" clip-rule="evenodd" d="M69.245 159.277L72.8223 168.071L70.3182 169.417L69.245 159.277Z" fill="#63BBC8"/>
<path fill-rule="evenodd" clip-rule="evenodd" d="M69.244 159.277L68.5286 169.597L70.4961 171.212L69.244 159.277Z" fill="#56ADC3"/>
<path fill-rule="evenodd" clip-rule="evenodd" d="M80.3338 158.829L87.4883 156.047L83.3745 164.123L80.3338 158.829Z" fill="#9FD5D8"/>
<path fill-rule="evenodd" clip-rule="evenodd" d="M83.375 164.124L79.3506 166.996L80.3344 158.83L83.375 164.124Z" fill="#63BBC8"/>
<path fill-rule="evenodd" clip-rule="evenodd" d="M79.3502 166.996L72.8218 168.073L80.334 158.83L79.3502 166.996Z" fill="#9FD5D8"/>
<path fill-rule="evenodd" clip-rule="evenodd" d="M72.8218 168.072L78.6348 170.046L78.3665 174.623L72.8218 168.072Z" fill="#63BBC8"/>
<path fill-rule="evenodd" clip-rule="evenodd" d="M70.3184 169.418L78.3672 174.623L72.8225 168.072L70.3184 169.418Z" fill="#9FD5D8"/>
<path fill-rule="evenodd" clip-rule="evenodd" d="M70.3184 169.418L78.3672 174.623L77.4729 176.686L70.3184 169.418Z" fill="#56ADC3"/>
<path fill-rule="evenodd" clip-rule="evenodd" d="M65.3981 168.342L64.5932 169.688L68.707 174.533L65.3981 168.342Z" fill="#56ADC3"/>
<path fill-rule="evenodd" clip-rule="evenodd" d="M68.7075 174.533L70.4961 171.213L68.5286 169.598L65.3985 168.342L68.7075 174.533Z" fill="#9FD5D8"/>
<path fill-rule="evenodd" clip-rule="evenodd" d="M68.7085 174.533L72.8223 176.866L70.4971 171.213L68.7085 174.533Z" fill="#63BBC8"/>
<path fill-rule="evenodd" clip-rule="evenodd" d="M70.3182 169.418L70.4971 171.213L77.4727 176.686L70.3182 169.418Z" fill="#63BBC8"/>
<path fill-rule="evenodd" clip-rule="evenodd" d="M70.4971 171.213L72.8222 176.866L77.4727 176.687L70.4971 171.213Z" fill="#56ADC3"/>
<path fill-rule="evenodd" clip-rule="evenodd" d="M57.7969 139.088L56.6344 144.292L61.1953 157.663L57.7969 139.088Z" fill="#9FD5D8"/>
<path fill-rule="evenodd" clip-rule="evenodd" d="M64.416 160.894L59.0502 146.088L61.1965 157.664L64.416 160.894Z" fill="#63BBC8"/>
<path fill-rule="evenodd" clip-rule="evenodd" d="M19.4316 44.7773L16.2121 45.3157L15.4967 50.8793L19.4316 44.7773Z" fill="#90D4F6"/>
<path fill-rule="evenodd" clip-rule="evenodd" d="M19.4306 44.7772L27.6582 43.0723L16.6582 48.9947L19.4306 44.7772Z" fill="#0095C2"/>
<path fill-rule="evenodd" clip-rule="evenodd" d="M16.6582 48.9947L24.9753 52.8533L27.6582 43.0723L16.6582 48.9947Z" fill="#1B688B"/>
<path fill-rule="evenodd" clip-rule="evenodd" d="M15.9426 50.071L17.4629 49.3531L16.658 48.9941L15.9426 50.071Z" fill="#676C6E"/>
<path fill-rule="evenodd" clip-rule="evenodd" d="M24.9761 52.8535L30.7891 30.4199L40.5371 58.0581L24.9761 52.8535Z" fill="#0095C2"/>
<path fill-rule="evenodd" clip-rule="evenodd" d="M24.9761 52.8535L31.3257 62.7243L40.5371 58.0581L24.9761 52.8535Z" fill="#1B688B"/>
<path fill-rule="evenodd" clip-rule="evenodd" d="M30.7892 30.4195L46.3502 10.8574L50.2852 23.2408L30.7892 30.4195Z" fill="#90D4F6"/>
<path fill-rule="evenodd" clip-rule="evenodd" d="M30.7892 30.419L33.8299 39.0335L50.2852 23.2402L30.7892 30.419Z" fill="#26AAD9"/>
<path fill-rule="evenodd" clip-rule="evenodd" d="M33.8299 39.0335L48.586 43.0715L50.2852 23.2402L33.8299 39.0335Z" fill="#0095C2"/>
<path fill-rule="evenodd" clip-rule="evenodd" d="M48.5859 43.0713L40.5372 58.0569L33.8298 39.0332L48.5859 43.0713Z" fill="#26AAD9"/>
<path fill-rule="evenodd" clip-rule="evenodd" d="M49.5689 32.3038L73.8047 20.3691L65.7559 31.0475L49.5689 32.3038Z" fill="#90D4F6"/>
<path fill-rule="evenodd" clip-rule="evenodd" d="M49.5697 32.3047L48.586 43.0728L51.9844 44.3291L49.5697 32.3047Z" fill="#1B688B"/>
<path fill-rule="evenodd" clip-rule="evenodd" d="M51.9844 44.3285L40.5372 58.0579L48.586 43.0723L51.9844 44.3285Z" fill="#008AB5"/>
<path fill-rule="evenodd" clip-rule="evenodd" d="M49.5689 32.3032L65.7559 31.0469L51.9835 44.3276L49.5689 32.3032Z" fill="#26AAD9"/>
<path fill-rule="evenodd" clip-rule="evenodd" d="M40.5363 58.0586L57.707 66.1347L55.4713 74.9287L40.5363 58.0586Z" fill="#90D4F6"/>
<path fill-rule="evenodd" clip-rule="evenodd" d="M55.4707 74.9287L31.3244 62.7248L40.5358 58.0586L55.4707 74.9287Z" fill="#26AAD9"/>
<path fill-rule="evenodd" clip-rule="evenodd" d="M55.4707 74.9285L36.1536 76.0053L31.3244 62.7246L55.4707 74.9285Z" fill="#0095C2"/>
<path fill-rule="evenodd" clip-rule="evenodd" d="M31.325 62.7246L23.634 66.7627L36.1543 76.0053L31.325 62.7246Z" fill="#1B688B"/>
<path fill-rule="evenodd" clip-rule="evenodd" d="M123.35 175.343L121.293 174.445L121.203 176.599L123.35 175.343Z" fill="#90D4F6"/>
<path fill-rule="evenodd" clip-rule="evenodd" d="M122.098 174.803L124.691 174.892L124.602 175.79L122.098 174.803Z" fill="#008AB5"/>
<path fill-rule="evenodd" clip-rule="evenodd" d="M123.35 175.342L121.74 176.149L123.081 176.598L123.35 175.342Z" fill="#008AB5"/>
<path fill-rule="evenodd" clip-rule="evenodd" d="M123.35 175.342L124.602 175.79L123.081 176.598L123.35 175.342Z" fill="#0C6D8E"/>
<path fill-rule="evenodd" clip-rule="evenodd" d="M124.602 175.791L125.139 179.111L123.082 176.599L124.602 175.791Z" fill="#008AB5"/>
<path fill-rule="evenodd" clip-rule="evenodd" d="M124.691 174.893L125.406 173.727L123.796 174.893H124.691Z" fill="#26AAD9"/>
<path fill-rule="evenodd" clip-rule="evenodd" d="M125.138 179.111L124.334 187.905L132.293 179.291L125.138 179.111Z" fill="#008AB5"/>
<path fill-rule="evenodd" clip-rule="evenodd" d="M124.334 187.904L120.757 196.788L125.676 194.814L124.334 187.904Z" fill="#26AAD9"/>
<path fill-rule="evenodd" clip-rule="evenodd" d="M125.674 194.814L129.609 190.507L124.333 187.904L125.674 194.814Z" fill="#008AB5"/>
<path fill-rule="evenodd" clip-rule="evenodd" d="M124.334 187.906L132.293 179.291L133.188 183.957L124.334 187.906Z" fill="#26AAD9"/>
<path fill-rule="evenodd" clip-rule="evenodd" d="M133.188 183.957L129.61 190.508L124.334 187.905L133.188 183.957Z" fill="#90D4F6"/>
<path fill-rule="evenodd" clip-rule="evenodd" d="M125.408 173.726L123.261 166.816L132.025 173.457L125.408 173.726Z" fill="#008AB5"/>
<path fill-rule="evenodd" clip-rule="evenodd" d="M123.261 166.817L118.342 156.229L125.586 160.625L123.261 166.817Z" fill="#26AAD9"/>
<path fill-rule="evenodd" clip-rule="evenodd" d="M123.261 166.817L125.586 160.625L129.879 163.945L123.261 166.817Z" fill="#008AB5"/>
<path fill-rule="evenodd" clip-rule="evenodd" d="M129.879 163.945L131.578 167.355L123.261 166.817L129.879 163.945Z" fill="#90D4F6"/>
<path fill-rule="evenodd" clip-rule="evenodd" d="M131.578 167.355L132.025 173.457L123.261 166.816L131.578 167.355Z" fill="#26AAD9"/>
<path fill-rule="evenodd" clip-rule="evenodd" d="M132.024 173.458L132.739 167.715L136.764 169.061L132.024 173.458Z" fill="#008AB5"/>
<path fill-rule="evenodd" clip-rule="evenodd" d="M136.764 169.061L139.357 171.304L132.024 173.458L136.764 169.061Z" fill="#26AAD9"/>
<path fill-rule="evenodd" clip-rule="evenodd" d="M139.358 171.305L141.146 176.15L132.025 173.458L139.358 171.305Z" fill="#008AB5"/>
<path fill-rule="evenodd" clip-rule="evenodd" d="M132.025 173.457L134.618 175.97L141.146 176.149L132.025 173.457Z" fill="#0C6D8E"/>
<path fill-rule="evenodd" clip-rule="evenodd" d="M134.618 175.971L132.293 179.291L141.146 176.15L134.618 175.971Z" fill="#008AB5"/>
<path fill-rule="evenodd" clip-rule="evenodd" d="M141.146 176.15L139.537 181.534L132.293 179.291L141.146 176.15Z" fill="#26AAD9"/>
<path fill-rule="evenodd" clip-rule="evenodd" d="M139.537 181.534L137.033 183.867L132.293 179.291L139.537 181.534Z" fill="#90D4F6"/>
<path fill-rule="evenodd" clip-rule="evenodd" d="M137.033 183.867L133.635 184.855L132.293 179.291L137.033 183.867Z" fill="#008AB5"/>
<path fill-rule="evenodd" clip-rule="evenodd" d="M125.406 173.726L132.024 173.457L134.617 175.97L125.406 173.726Z" fill="#90D4F6"/>
<path fill-rule="evenodd" clip-rule="evenodd" d="M125.138 179.111L134.617 175.971L132.292 179.291L125.138 179.111Z" fill="#26AAD9"/>
<path fill-rule="evenodd" clip-rule="evenodd" d="M125.406 173.727L125.138 179.111L134.617 175.97L125.406 173.727Z" fill="#008AB5"/>
<path fill-rule="evenodd" clip-rule="evenodd" d="M125.138 179.111L124.601 175.79L124.691 174.893L125.406 173.727L125.138 179.111Z" fill="#90D4F6"/>
<path fill-rule="evenodd" clip-rule="evenodd" d="M330.918 176.598L329.308 177.405L329.934 180.366L330.918 176.598Z" fill="#9FD5D8"/>
<path fill-rule="evenodd" clip-rule="evenodd" d="M330.919 176.599L334.854 174.355L330.203 179.201L330.919 176.599Z" fill="#59B1C3"/>
<path fill-rule="evenodd" clip-rule="evenodd" d="M330.204 179.201L335.033 179.829L334.854 174.355L330.204 179.201Z" fill="#349DC0"/>
<path fill-rule="evenodd" clip-rule="evenodd" d="M330.024 179.919L330.65 179.291L330.203 179.201L330.024 179.919Z" fill="#777F80"/>
<path fill-rule="evenodd" clip-rule="evenodd" d="M335.033 179.828L334.407 167.266L343.797 180.098L335.033 179.828Z" fill="#59B1C3"/>
<path fill-rule="evenodd" clip-rule="evenodd" d="M335.033 179.828L339.862 183.956L343.797 180.097L335.033 179.828Z" fill="#349DC0"/>
<path fill-rule="evenodd" clip-rule="evenodd" d="M334.406 167.266L339.146 154.523L343.17 160.356L334.406 167.266Z" fill="#9FD5D8"/>
<path fill-rule="evenodd" clip-rule="evenodd" d="M334.406 167.265L337.357 171.213L343.17 160.355L334.406 167.265Z" fill="#63BBC8"/>
<path fill-rule="evenodd" clip-rule="evenodd" d="M337.358 171.213L345.586 170.944L343.171 160.355L337.358 171.213Z" fill="#59B1C3"/>
<path fill-rule="evenodd" clip-rule="evenodd" d="M345.586 170.945L343.797 180.098L337.358 171.215L345.586 170.945Z" fill="#63BBC8"/>
<path fill-rule="evenodd" clip-rule="evenodd" d="M344.244 165.202L354.707 155.062L352.382 161.882L344.244 165.202Z" fill="#9FD5D8"/>
<path fill-rule="evenodd" clip-rule="evenodd" d="M344.243 165.201L345.585 170.944L347.463 171.034L344.243 165.201Z" fill="#349DC0"/>
<path fill-rule="evenodd" clip-rule="evenodd" d="M347.463 171.035L343.796 180.098L345.585 170.945L347.463 171.035Z" fill="#56ADC3"/>
<path fill-rule="evenodd" clip-rule="evenodd" d="M344.243 165.201L352.381 161.881L347.462 171.034L344.243 165.201Z" fill="#63BBC8"/>
<path fill-rule="evenodd" clip-rule="evenodd" d="M343.796 180.098L353.902 181.444L354.17 186.379L343.796 180.098Z" fill="#9FD5D8"/>
<path fill-rule="evenodd" clip-rule="evenodd" d="M354.17 186.379L339.861 183.956L343.796 180.098L354.17 186.379Z" fill="#63BBC8"/>
<path fill-rule="evenodd" clip-rule="evenodd" d="M354.17 186.38L344.511 190.059L339.861 183.957L354.17 186.38Z" fill="#59B1C3"/>
<path fill-rule="evenodd" clip-rule="evenodd" d="M339.861 183.957L336.642 187.367L344.512 190.059L339.861 183.957Z" fill="#349DC0"/>
<path fill-rule="evenodd" clip-rule="evenodd" d="M275.562 147.254L274.936 148.51L276.635 150.215L275.562 147.254Z" fill="#9FD5D8"/>
<path fill-rule="evenodd" clip-rule="evenodd" d="M275.562 147.256L277.082 144.025L276.277 149.32L275.562 147.256Z" fill="#59B1C3"/>
<path fill-rule="evenodd" clip-rule="evenodd" d="M276.277 149.32L279.676 147.525L277.082 144.025L276.277 149.32Z" fill="#349DC0"/>
<path fill-rule="evenodd" clip-rule="evenodd" d="M276.456 149.857L276.635 149.139L276.277 149.318L276.456 149.857Z" fill="#777F80"/>
<path fill-rule="evenodd" clip-rule="evenodd" d="M279.674 147.524L273.593 139.627L285.309 143.755L279.674 147.524Z" fill="#59B1C3"/>
<path fill-rule="evenodd" clip-rule="evenodd" d="M279.674 147.525L284.593 148.153L285.309 143.756L279.674 147.525Z" fill="#349DC0"/>
<path fill-rule="evenodd" clip-rule="evenodd" d="M273.594 139.628L271 129.039L276.098 131.103L273.594 139.628Z" fill="#9FD5D8"/>
<path fill-rule="evenodd" clip-rule="evenodd" d="M273.593 139.628L277.26 140.885L276.097 131.104L273.593 139.628Z" fill="#63BBC8"/>
<path fill-rule="evenodd" clip-rule="evenodd" d="M277.26 140.885L282.357 137.026L276.097 131.104L277.26 140.885Z" fill="#59B1C3"/>
<path fill-rule="evenodd" clip-rule="evenodd" d="M282.357 137.025L285.309 143.755L277.26 140.884L282.357 137.025Z" fill="#63BBC8"/>
<path fill-rule="evenodd" clip-rule="evenodd" d="M278.96 133.795L281.107 122.398L282.627 127.962L278.96 133.795Z" fill="#9FD5D8"/>
<path fill-rule="evenodd" clip-rule="evenodd" d="M278.959 133.795L282.357 137.025L283.609 136.218L278.959 133.795Z" fill="#349DC0"/>
<path fill-rule="evenodd" clip-rule="evenodd" d="M283.609 136.217L285.309 143.754L282.357 137.024L283.609 136.217Z" fill="#56ADC3"/>
<path fill-rule="evenodd" clip-rule="evenodd" d="M278.959 133.796L282.626 127.963L283.609 136.218L278.959 133.796Z" fill="#63BBC8"/>
<path fill-rule="evenodd" clip-rule="evenodd" d="M285.309 143.755L292.285 140.166L294.699 143.307L285.309 143.755Z" fill="#9FD5D8"/>
<path fill-rule="evenodd" clip-rule="evenodd" d="M294.699 143.307L284.594 148.152L285.309 143.755L294.699 143.307Z" fill="#63BBC8"/>
<path fill-rule="evenodd" clip-rule="evenodd" d="M294.699 143.307L290.228 150.037L284.594 148.152L294.699 143.307Z" fill="#59B1C3"/>
<path fill-rule="evenodd" clip-rule="evenodd" d="M284.594 148.152L283.968 151.742L290.229 150.037L284.594 148.152Z" fill="#349DC0"/>
<path fill-rule="evenodd" clip-rule="evenodd" d="M291.748 167.893L291.301 166.547L290.138 167.265L291.748 167.893Z" fill="#90D4F6"/>
<path fill-rule="evenodd" clip-rule="evenodd" d="M291.48 167.086L292.553 168.432L292.016 168.791L291.48 167.086Z" fill="#008AB5"/>
<path fill-rule="evenodd" clip-rule="evenodd" d="M291.748 167.894L290.585 167.445L290.943 168.343L291.748 167.894Z" fill="#008AB5"/>
<path fill-rule="evenodd" clip-rule="evenodd" d="M291.749 167.895L292.018 168.792L290.944 168.343L291.749 167.895Z" fill="#0C6D8E"/>
<path fill-rule="evenodd" clip-rule="evenodd" d="M292.018 168.79L290.587 170.316L290.944 168.342L292.018 168.79Z" fill="#008AB5"/>
<path fill-rule="evenodd" clip-rule="evenodd" d="M292.553 168.433L293.447 168.343L292.195 167.984L292.553 168.433Z" fill="#26AAD9"/>
<path fill-rule="evenodd" clip-rule="evenodd" d="M290.586 170.316L285.667 173.547L293.537 174.175L290.586 170.316Z" fill="#008AB5"/>
<path fill-rule="evenodd" clip-rule="evenodd" d="M285.668 173.547L279.587 175.252L282.717 177.047L285.668 173.547Z" fill="#26AAD9"/>
<path fill-rule="evenodd" clip-rule="evenodd" d="M282.715 177.047L286.65 177.316L285.667 173.547L282.715 177.047Z" fill="#008AB5"/>
<path fill-rule="evenodd" clip-rule="evenodd" d="M285.667 173.547L293.537 174.175L291.57 176.508L285.667 173.547Z" fill="#26AAD9"/>
<path fill-rule="evenodd" clip-rule="evenodd" d="M291.57 176.508L286.652 177.316L285.668 173.547L291.57 176.508Z" fill="#90D4F6"/>
<path fill-rule="evenodd" clip-rule="evenodd" d="M293.447 168.343L296.041 164.395L296.398 171.663L293.447 168.343Z" fill="#008AB5"/>
<path fill-rule="evenodd" clip-rule="evenodd" d="M296.041 164.394L299.35 157.664L300.244 163.138L296.041 164.394Z" fill="#26AAD9"/>
<path fill-rule="evenodd" clip-rule="evenodd" d="M296.041 164.395L300.245 163.139L300.334 166.728L296.041 164.395Z" fill="#008AB5"/>
<path fill-rule="evenodd" clip-rule="evenodd" d="M300.334 166.728L299.35 168.971L296.041 164.395L300.334 166.728Z" fill="#90D4F6"/>
<path fill-rule="evenodd" clip-rule="evenodd" d="M299.35 168.971L296.398 171.663L296.041 164.395L299.35 168.971Z" fill="#26AAD9"/>
<path fill-rule="evenodd" clip-rule="evenodd" d="M296.399 171.662L299.708 169.688L300.691 172.29L296.399 171.662Z" fill="#008AB5"/>
<path fill-rule="evenodd" clip-rule="evenodd" d="M300.691 172.29V174.534L296.399 171.662L300.691 172.29Z" fill="#26AAD9"/>
<path fill-rule="evenodd" clip-rule="evenodd" d="M300.691 174.534L298.992 177.495L296.399 171.662L300.691 174.534Z" fill="#008AB5"/>
<path fill-rule="evenodd" clip-rule="evenodd" d="M296.399 171.662L296.22 173.995L298.992 177.495L296.399 171.662Z" fill="#0C6D8E"/>
<path fill-rule="evenodd" clip-rule="evenodd" d="M296.22 173.996L293.537 174.176L298.992 177.496L296.22 173.996Z" fill="#008AB5"/>
<path fill-rule="evenodd" clip-rule="evenodd" d="M298.992 177.496L295.504 178.842L293.537 174.176L298.992 177.496Z" fill="#26AAD9"/>
<path fill-rule="evenodd" clip-rule="evenodd" d="M295.504 178.842L293.268 178.393L293.536 174.176L295.504 178.842Z" fill="#90D4F6"/>
<path fill-rule="evenodd" clip-rule="evenodd" d="M293.269 178.393L291.301 177.047L293.537 174.176L293.269 178.393Z" fill="#008AB5"/>
<path fill-rule="evenodd" clip-rule="evenodd" d="M293.447 168.342L296.398 171.662L296.22 173.995L293.447 168.342Z" fill="#90D4F6"/>
<path fill-rule="evenodd" clip-rule="evenodd" d="M290.587 170.316L296.221 173.996L293.538 174.175L290.587 170.316Z" fill="#26AAD9"/>
<path fill-rule="evenodd" clip-rule="evenodd" d="M293.448 168.342L290.587 170.316L296.221 173.995L293.448 168.342Z" fill="#008AB5"/>
<path fill-rule="evenodd" clip-rule="evenodd" d="M290.585 170.316L292.016 168.79L292.553 168.432L293.447 168.342L290.585 170.316Z" fill="#90D4F6"/>
<path fill-rule="evenodd" clip-rule="evenodd" d="M147.675 106.064L147.317 107.949L149.195 108.667L147.675 106.064Z" fill="#90D4F6"/>
<path fill-rule="evenodd" clip-rule="evenodd" d="M147.675 106.065L149.105 105.078L148.658 107.86L147.675 106.065Z" fill="#008AB5"/>
<path fill-rule="evenodd" clip-rule="evenodd" d="M149.106 105.078L148.123 101.488L153.131 102.565L149.106 105.078Z" fill="#0C7098"/>
<path fill-rule="evenodd" clip-rule="evenodd" d="M148.123 101.488L130.773 91.797L134.44 90.2715L148.123 101.488Z" fill="#90D4F6"/>
<path fill-rule="evenodd" clip-rule="evenodd" d="M134.44 90.272L144.009 89.1055L148.123 101.489L134.44 90.272Z" fill="#26AAD9"/>
<path fill-rule="evenodd" clip-rule="evenodd" d="M144.009 89.1055L152.236 91.4386L148.123 101.489L144.009 89.1055Z" fill="#008AB5"/>
<path fill-rule="evenodd" clip-rule="evenodd" d="M152.236 91.4395L154.74 96.2851L148.122 101.49L152.236 91.4395Z" fill="#0C7098"/>
<path fill-rule="evenodd" clip-rule="evenodd" d="M154.74 96.2852L154.204 101.221L148.122 101.49L154.74 96.2852Z" fill="#26AAD9"/>
<path fill-rule="evenodd" clip-rule="evenodd" d="M154.203 101.219L153.13 102.565L148.122 101.488L154.203 101.219Z" fill="#008AB5"/>
<path fill-rule="evenodd" clip-rule="evenodd" d="M148.659 107.859L150.001 108.846L155.188 108.398L148.659 107.859Z" fill="#26AAD9"/>
<path fill-rule="evenodd" clip-rule="evenodd" d="M148.928 106.246L156.709 103.105L153.132 102.566L148.928 106.246Z" fill="#90D4F6"/>
<path fill-rule="evenodd" clip-rule="evenodd" d="M153.131 102.566L149.106 105.079L148.928 106.246L153.131 102.566Z" fill="#26AAD9"/>
<path fill-rule="evenodd" clip-rule="evenodd" d="M153.132 102.566L155.546 101.848L156.709 103.104L153.132 102.566Z" fill="#26AAD9"/>
<path fill-rule="evenodd" clip-rule="evenodd" d="M148.659 107.859L148.927 106.244L155.188 108.398L148.659 107.859Z" fill="#90D4F6"/>
<path fill-rule="evenodd" clip-rule="evenodd" d="M148.928 106.244L156.709 103.104L155.904 105.706L148.928 106.244Z" fill="#26AAD9"/>
<path fill-rule="evenodd" clip-rule="evenodd" d="M149.375 108.309L148.034 112.257L153.221 108.578L150.001 108.847L149.375 108.309Z" fill="#0C7098"/>
<path fill-rule="evenodd" clip-rule="evenodd" d="M148.033 112.258L136.586 125.808L141.594 125.359L148.033 112.258Z" fill="#90D4F6"/>
<path fill-rule="evenodd" clip-rule="evenodd" d="M141.594 125.359L146.781 123.205L148.033 112.258L141.594 125.359Z" fill="#26AAD9"/>
<path fill-rule="evenodd" clip-rule="evenodd" d="M148.034 112.258L146.782 123.205L151.611 118.988L148.034 112.258Z" fill="#008AB5"/>
<path fill-rule="evenodd" clip-rule="evenodd" d="M148.033 112.258L154.293 112.078L151.61 118.988L148.033 112.258Z" fill="#90D4F6"/>
<path fill-rule="evenodd" clip-rule="evenodd" d="M148.033 112.257L153.22 108.578L154.293 112.078L148.033 112.257Z" fill="#26AAD9"/>
<path fill-rule="evenodd" clip-rule="evenodd" d="M155.546 101.848L159.391 94.4004L163.773 97.3616L155.546 101.848Z" fill="#008AB5"/>
<path fill-rule="evenodd" clip-rule="evenodd" d="M156.708 103.104L155.546 101.848L163.773 97.3613L156.708 103.104Z" fill="#0C7098"/>
<path fill-rule="evenodd" clip-rule="evenodd" d="M163.773 97.3613L165.383 101.579L156.708 103.104L163.773 97.3613Z" fill="#90D4F6"/>
<path fill-rule="evenodd" clip-rule="evenodd" d="M165.383 101.578L164.667 105.975L156.708 103.104L165.383 101.578Z" fill="#26AAD9"/>
<path fill-rule="evenodd" clip-rule="evenodd" d="M156.709 103.104L155.993 105.706L164.668 105.975L156.709 103.104Z" fill="#0C7098"/>
<path fill-rule="evenodd" clip-rule="evenodd" d="M164.668 105.976L163.327 110.642L155.993 105.707L164.668 105.976Z" fill="#008AB5"/>
<path fill-rule="evenodd" clip-rule="evenodd" d="M163.326 110.642L155.993 105.707L155.188 108.399L163.326 110.642Z" fill="#90D4F6"/>
<path fill-rule="evenodd" clip-rule="evenodd" d="M155.188 108.398L160.464 114.77L163.326 110.642L155.188 108.398Z" fill="#26AAD9"/>
<path fill-rule="evenodd" clip-rule="evenodd" d="M155.188 108.398L157.871 116.026L160.465 114.77L155.188 108.398Z" fill="#0C7098"/>
<path fill-rule="evenodd" clip-rule="evenodd" d="M148.927 106.245L155.992 105.707L155.187 108.399L148.927 106.245Z" fill="#0C7098"/>
<path fill-rule="evenodd" clip-rule="evenodd" d="M153.22 108.578H153.667L154.293 112.078L153.22 108.578Z" fill="#008AB5"/>
<path fill-rule="evenodd" clip-rule="evenodd" d="M245.779 98.9759L243.186 98.4375L243.633 102.655L245.779 98.9759Z" fill="#90D4F6"/>
<path fill-rule="evenodd" clip-rule="evenodd" d="M243.187 98.4375L240.951 100.501L243.545 101.309L243.187 98.4375Z" fill="#008AB5"/>
<path fill-rule="evenodd" clip-rule="evenodd" d="M250.789 101.22L245.781 98.9766L243.635 102.656L250.789 101.22Z" fill="#008AB5"/>
<path fill-rule="evenodd" clip-rule="evenodd" d="M243.635 102.654L245.96 105.077L250.789 101.219L243.635 102.654Z" fill="#26AAD9"/>
<path fill-rule="evenodd" clip-rule="evenodd" d="M245.958 105.078L255.527 97.2715L252.487 109.296L245.958 105.078Z" fill="#90D4F6"/>
<path fill-rule="evenodd" clip-rule="evenodd" d="M255.528 97.2708L267.602 91.8867L263.219 105.706L255.528 97.2708Z" fill="#008AB5"/>
<path fill-rule="evenodd" clip-rule="evenodd" d="M259.105 109.296H252.488L255.528 97.2715L259.105 109.296Z" fill="#26AAD9"/>
<path fill-rule="evenodd" clip-rule="evenodd" d="M255.528 97.2715L263.219 105.707L261.072 108.309L255.528 97.2715Z" fill="#26AAD9"/>
<path fill-rule="evenodd" clip-rule="evenodd" d="M255.528 97.2715L259.105 109.296L262.057 110.283L255.528 97.2715Z" fill="#008AB5"/>
<path fill-rule="evenodd" clip-rule="evenodd" d="M267.601 91.8869L274.309 85.6055L273.235 96.6428L267.601 91.8869Z" fill="#90D4F6"/>
<path fill-rule="evenodd" clip-rule="evenodd" d="M273.236 96.6426L269.927 101.668L267.602 91.8867L273.236 96.6426Z" fill="#26AAD9"/>
<path fill-rule="evenodd" clip-rule="evenodd" d="M269.926 101.668L263.218 105.706L267.601 91.8867L269.926 101.668Z" fill="#90D4F6"/>
<path fill-rule="evenodd" clip-rule="evenodd" d="M263.219 105.707L270.552 105.348L272.162 110.642L263.219 105.707Z" fill="#26AAD9"/>
<path fill-rule="evenodd" clip-rule="evenodd" d="M261.073 108.309L272.162 110.642L263.219 105.707L261.073 108.309Z" fill="#90D4F6"/>
<path fill-rule="evenodd" clip-rule="evenodd" d="M261.073 108.309L272.162 110.642V113.423L261.073 108.309Z" fill="#008AB5"/>
<path fill-rule="evenodd" clip-rule="evenodd" d="M255.08 109.295L254.722 111.09L261.43 114.769L255.08 109.295Z" fill="#008AB5"/>
<path fill-rule="evenodd" clip-rule="evenodd" d="M261.431 114.769L262.057 110.282L259.105 109.295H255.081L261.431 114.769Z" fill="#90D4F6"/>
<path fill-rule="evenodd" clip-rule="evenodd" d="M261.43 114.77L266.975 115.667L262.056 110.283L261.43 114.77Z" fill="#26AAD9"/>
<path fill-rule="evenodd" clip-rule="evenodd" d="M261.073 108.309L262.056 110.283L272.162 113.423L261.073 108.309Z" fill="#26AAD9"/>
<path fill-rule="evenodd" clip-rule="evenodd" d="M262.056 110.283L266.975 115.667L272.162 113.424L262.056 110.283Z" fill="#008AB5"/>
<path fill-rule="evenodd" clip-rule="evenodd" d="M233.885 79.3242L234.869 85.6954L245.779 98.9761L233.885 79.3242Z" fill="#90D4F6"/>
<path fill-rule="evenodd" clip-rule="evenodd" d="M250.789 101.219L238.358 86.6816L245.781 98.9753L250.789 101.219Z" fill="#26AAD9"/>
<path fill-rule="evenodd" clip-rule="evenodd" d="M149.643 149.678L148.391 150.306L149.822 152.011L149.643 149.678Z" fill="#9CD8F7"/>
<path fill-rule="evenodd" clip-rule="evenodd" d="M148.391 150.305L148.034 151.92L149.375 151.471L148.391 150.305Z" fill="#5AA2CC"/>
<path fill-rule="evenodd" clip-rule="evenodd" d="M152.504 149.139L149.642 149.677L149.821 152.01L152.504 149.139Z" fill="#5AA2CC"/>
<path fill-rule="evenodd" clip-rule="evenodd" d="M149.821 152.01L151.61 152.459L152.504 149.139L149.821 152.01Z" fill="#63BAE4"/>
<path fill-rule="evenodd" clip-rule="evenodd" d="M151.609 152.459L153.398 145.908L155.812 152.369L151.609 152.459Z" fill="#9CD8F7"/>
<path fill-rule="evenodd" clip-rule="evenodd" d="M153.399 145.908L157.065 139.627L159.391 147.344L153.399 145.908Z" fill="#5AA2CC"/>
<path fill-rule="evenodd" clip-rule="evenodd" d="M158.676 150.305L155.814 152.369L153.399 145.908L158.676 150.305Z" fill="#63BAE4"/>
<path fill-rule="evenodd" clip-rule="evenodd" d="M153.399 145.908L159.391 147.344L159.212 149.228L153.399 145.908Z" fill="#63BAE4"/>
<path fill-rule="evenodd" clip-rule="evenodd" d="M153.399 145.908L158.675 150.305L160.285 149.857L153.399 145.908Z" fill="#5AA2CC"/>
<path fill-rule="evenodd" clip-rule="evenodd" d="M157.065 139.627L158.049 134.691L161 140.075L157.065 139.627Z" fill="#9CD8F7"/>
<path fill-rule="evenodd" clip-rule="evenodd" d="M161 140.076L161.09 143.396L157.065 139.627L161 140.076Z" fill="#63BAE4"/>
<path fill-rule="evenodd" clip-rule="evenodd" d="M161.09 143.396L159.391 147.344L157.065 139.627L161.09 143.396Z" fill="#9CD8F7"/>
<path fill-rule="evenodd" clip-rule="evenodd" d="M159.391 147.345L162.521 144.922L164.936 146.806L159.391 147.345Z" fill="#63BAE4"/>
<path fill-rule="evenodd" clip-rule="evenodd" d="M159.212 149.228L164.936 146.805L159.391 147.343L159.212 149.228Z" fill="#9CD8F7"/>
<path fill-rule="evenodd" clip-rule="evenodd" d="M159.212 149.228L164.935 146.805L165.74 148.061L159.212 149.228Z" fill="#5AA2CC"/>
<path fill-rule="evenodd" clip-rule="evenodd" d="M156.976 151.561L157.333 152.458L161.447 152.099L156.976 151.561Z" fill="#5AA2CC"/>
<path fill-rule="evenodd" clip-rule="evenodd" d="M161.447 152.101L160.285 149.857L158.675 150.306L156.976 151.562L161.447 152.101Z" fill="#9CD8F7"/>
<path fill-rule="evenodd" clip-rule="evenodd" d="M161.448 152.101L164.131 150.755L160.285 149.857L161.448 152.101Z" fill="#63BAE4"/>
<path fill-rule="evenodd" clip-rule="evenodd" d="M159.212 149.229L160.285 149.857L165.74 148.062L159.212 149.229Z" fill="#63BAE4"/>
<path fill-rule="evenodd" clip-rule="evenodd" d="M160.285 149.857L164.13 150.755L165.74 148.062L160.285 149.857Z" fill="#5AA2CC"/>
<path fill-rule="evenodd" clip-rule="evenodd" d="M138.374 144.473L140.789 147.075L149.643 149.677L138.374 144.473Z" fill="#9CD8F7"/>
<path fill-rule="evenodd" clip-rule="evenodd" d="M152.504 149.139L142.577 146.447L149.642 149.678L152.504 149.139Z" fill="#63BAE4"/>
<path fill-rule="evenodd" clip-rule="evenodd" d="M27.8363 177.674L27.9258 176.148L26.5843 176.418L27.8363 177.674Z" fill="#9CD8F7"/>
<path fill-rule="evenodd" clip-rule="evenodd" d="M27.9274 176.777L28.2852 178.393L27.6591 178.572L27.9274 176.777Z" fill="#5AA2CC"/>
<path fill-rule="evenodd" clip-rule="evenodd" d="M27.8379 177.675L26.9436 176.777L26.8541 177.675H27.8379Z" fill="#5AA2CC"/>
<path fill-rule="evenodd" clip-rule="evenodd" d="M27.8379 177.674L27.659 178.571L26.8541 177.674H27.8379Z" fill="#448CB7"/>
<path fill-rule="evenodd" clip-rule="evenodd" d="M27.6582 178.571L25.6907 179.289L26.8533 177.674L27.6582 178.571Z" fill="#5AA2CC"/>
<path fill-rule="evenodd" clip-rule="evenodd" d="M28.2834 178.392L29.1777 178.751L28.194 177.854L28.2834 178.392Z" fill="#63BAE4"/>
<path fill-rule="evenodd" clip-rule="evenodd" d="M25.6909 179.289L19.8779 180.097L26.8535 183.955L25.6909 179.289Z" fill="#5AA2CC"/>
<path fill-rule="evenodd" clip-rule="evenodd" d="M19.877 180.096L13.6168 179.109L15.6737 181.981L19.877 180.096Z" fill="#63BAE4"/>
<path fill-rule="evenodd" clip-rule="evenodd" d="M15.6737 181.982L19.2509 183.866L19.877 180.098L15.6737 181.982Z" fill="#5AA2CC"/>
<path fill-rule="evenodd" clip-rule="evenodd" d="M19.8779 180.098L26.8535 183.956L24.0812 185.302L19.8779 180.098Z" fill="#63BAE4"/>
<path fill-rule="evenodd" clip-rule="evenodd" d="M24.082 185.302L19.2528 183.866L19.8788 180.098L24.082 185.302Z" fill="#9CD8F7"/>
<path fill-rule="evenodd" clip-rule="evenodd" d="M29.1787 178.751L33.2031 176.328L30.5202 182.968L29.1787 178.751Z" fill="#5AA2CC"/>
<path fill-rule="evenodd" clip-rule="evenodd" d="M33.203 176.328L39.1055 171.662L37.5851 176.956L33.203 176.328Z" fill="#63BAE4"/>
<path fill-rule="evenodd" clip-rule="evenodd" d="M33.2038 176.328L37.5859 176.956L36.2445 180.187L33.2038 176.328Z" fill="#5AA2CC"/>
<path fill-rule="evenodd" clip-rule="evenodd" d="M36.2441 180.187L34.3661 181.802L33.2035 176.328L36.2441 180.187Z" fill="#9CD8F7"/>
<path fill-rule="evenodd" clip-rule="evenodd" d="M34.3652 181.802L30.5197 182.968L33.2026 176.328L34.3652 181.802Z" fill="#63BAE4"/>
<path fill-rule="evenodd" clip-rule="evenodd" d="M30.5197 182.968L34.3652 182.609L34.1864 185.391L30.5197 182.968Z" fill="#5AA2CC"/>
<path fill-rule="evenodd" clip-rule="evenodd" d="M34.1875 185.392L33.2038 187.366L30.5208 182.969L34.1875 185.392Z" fill="#63BAE4"/>
<path fill-rule="evenodd" clip-rule="evenodd" d="M33.2031 187.366L30.4308 189.25L30.5202 182.969L33.2031 187.366Z" fill="#5AA2CC"/>
<path fill-rule="evenodd" clip-rule="evenodd" d="M30.5195 182.969L29.3569 185.033L30.4301 189.25L30.5195 182.969Z" fill="#448CB7"/>
<path fill-rule="evenodd" clip-rule="evenodd" d="M29.3585 185.032L26.8544 183.955L30.4316 189.249L29.3585 185.032Z" fill="#5AA2CC"/>
<path fill-rule="evenodd" clip-rule="evenodd" d="M30.4316 189.249L26.765 188.98L26.8544 183.955L30.4316 189.249Z" fill="#63BAE4"/>
<path fill-rule="evenodd" clip-rule="evenodd" d="M26.7641 188.98L24.7966 187.724L26.8535 183.955L26.7641 188.98Z" fill="#9CD8F7"/>
<path fill-rule="evenodd" clip-rule="evenodd" d="M24.7966 187.724L23.5446 185.66L26.8535 183.955L24.7966 187.724Z" fill="#5AA2CC"/>
<path fill-rule="evenodd" clip-rule="evenodd" d="M29.1781 178.752L30.5195 182.969L29.3569 185.033L29.1781 178.752Z" fill="#9CD8F7"/>
<path fill-rule="evenodd" clip-rule="evenodd" d="M25.6907 179.289L29.3574 185.032L26.8533 183.955L25.6907 179.289Z" fill="#63BAE4"/>
<path fill-rule="evenodd" clip-rule="evenodd" d="M29.1785 178.752L25.6907 179.29L29.3574 185.033L29.1785 178.752Z" fill="#5AA2CC"/>
<path fill-rule="evenodd" clip-rule="evenodd" d="M25.6899 179.29L27.6574 178.572L28.2834 178.393L29.1777 178.752L25.6899 179.29Z" fill="#9CD8F7"/>
<path fill-rule="evenodd" clip-rule="evenodd" d="M19.0742 151.203L18.4482 151.652L18.8059 152.908L19.0742 151.203Z" fill="#9CD8F7"/>
<path fill-rule="evenodd" clip-rule="evenodd" d="M19.0738 151.202L20.6836 150.035L18.895 152.368L19.0738 151.202Z" fill="#5AA9D3"/>
<path fill-rule="evenodd" clip-rule="evenodd" d="M18.8947 152.368H21.041L20.6833 150.035L18.8947 152.368Z" fill="#4486B3"/>
<path fill-rule="evenodd" clip-rule="evenodd" d="M18.8953 152.638L19.0742 152.369H18.8953V152.638Z" fill="#777F84"/>
<path fill-rule="evenodd" clip-rule="evenodd" d="M21.0408 152.368L20.1465 146.984L24.7969 152.099L21.0408 152.368Z" fill="#5AA9D3"/>
<path fill-rule="evenodd" clip-rule="evenodd" d="M21.0408 152.369L23.2765 153.984L24.7969 152.1L21.0408 152.369Z" fill="#4486B3"/>
<path fill-rule="evenodd" clip-rule="evenodd" d="M20.147 146.985L21.5779 141.242L23.6348 143.575L20.147 146.985Z" fill="#9CD8F7"/>
<path fill-rule="evenodd" clip-rule="evenodd" d="M20.147 146.984L21.5779 148.599L23.6348 143.574L20.147 146.984Z" fill="#63BAE4"/>
<path fill-rule="evenodd" clip-rule="evenodd" d="M21.5771 148.599L25.1543 148.061L23.634 143.574L21.5771 148.599Z" fill="#5AA9D3"/>
<path fill-rule="evenodd" clip-rule="evenodd" d="M25.1543 148.061L24.7966 152.099L21.5771 148.599L25.1543 148.061Z" fill="#63BAE4"/>
<path fill-rule="evenodd" clip-rule="evenodd" d="M24.3506 145.639L28.375 140.793L27.6595 143.844L24.3506 145.639Z" fill="#9CD8F7"/>
<path fill-rule="evenodd" clip-rule="evenodd" d="M24.3492 145.639L25.1541 148.061H25.959L24.3492 145.639Z" fill="#4486B3"/>
<path fill-rule="evenodd" clip-rule="evenodd" d="M25.959 148.061L24.7964 152.099L25.1541 148.061H25.959Z" fill="#5AA2CC"/>
<path fill-rule="evenodd" clip-rule="evenodd" d="M24.3493 145.638L27.6582 143.844L25.959 148.061L24.3493 145.638Z" fill="#63BAE4"/>
<path fill-rule="evenodd" clip-rule="evenodd" d="M24.7973 152.1L29.1794 152.189L29.5371 154.343L24.7973 152.1Z" fill="#9CD8F7"/>
<path fill-rule="evenodd" clip-rule="evenodd" d="M29.5371 154.343L23.2769 153.984L24.7973 152.1L29.5371 154.343Z" fill="#63BAE4"/>
<path fill-rule="evenodd" clip-rule="evenodd" d="M29.5371 154.343L25.6022 156.407L23.2769 153.984L29.5371 154.343Z" fill="#5AA9D3"/>
<path fill-rule="evenodd" clip-rule="evenodd" d="M23.2764 153.984L22.0243 155.6L25.6016 156.407L23.2764 153.984Z" fill="#4486B3"/>
<path fill-rule="evenodd" clip-rule="evenodd" d="M113.422 127.422L112.349 128.229L112.975 129.575L113.422 127.422Z" fill="#90D4F6"/>
<path fill-rule="evenodd" clip-rule="evenodd" d="M113.422 127.422L114.674 127.601L113.153 128.858L113.422 127.422Z" fill="#008AB5"/>
<path fill-rule="evenodd" clip-rule="evenodd" d="M114.674 127.601L115.926 125.268L118.162 128.319L114.674 127.601Z" fill="#0C7098"/>
<path fill-rule="evenodd" clip-rule="evenodd" d="M115.926 125.269L111.007 111.629L113.779 112.616L115.926 125.269Z" fill="#90D4F6"/>
<path fill-rule="evenodd" clip-rule="evenodd" d="M113.779 112.615L119.682 116.653L115.926 125.268L113.779 112.615Z" fill="#26AAD9"/>
<path fill-rule="evenodd" clip-rule="evenodd" d="M119.682 116.654L123.08 122.038L115.926 125.269L119.682 116.654Z" fill="#008AB5"/>
<path fill-rule="evenodd" clip-rule="evenodd" d="M123.08 122.039L122.096 125.808L115.926 125.27L123.08 122.039Z" fill="#0C7098"/>
<path fill-rule="evenodd" clip-rule="evenodd" d="M122.098 125.806L119.415 128.049L115.927 125.268L122.098 125.806Z" fill="#26AAD9"/>
<path fill-rule="evenodd" clip-rule="evenodd" d="M119.414 128.049L118.162 128.319L115.926 125.268L119.414 128.049Z" fill="#008AB5"/>
<path fill-rule="evenodd" clip-rule="evenodd" d="M113.154 128.857L113.333 130.024L116.463 132.357L113.154 128.857Z" fill="#26AAD9"/>
<path fill-rule="evenodd" clip-rule="evenodd" d="M114.048 128.141L119.861 130.294L118.162 128.32L114.048 128.141Z" fill="#90D4F6"/>
<path fill-rule="evenodd" clip-rule="evenodd" d="M118.162 128.319L114.674 127.602L114.048 128.14L118.162 128.319Z" fill="#26AAD9"/>
<path fill-rule="evenodd" clip-rule="evenodd" d="M118.162 128.32L119.861 129.038V130.294L118.162 128.32Z" fill="#26AAD9"/>
<path fill-rule="evenodd" clip-rule="evenodd" d="M113.154 128.859L114.048 128.141L116.463 132.358L113.154 128.859Z" fill="#90D4F6"/>
<path fill-rule="evenodd" clip-rule="evenodd" d="M114.048 128.141L119.861 130.294L118.162 131.281L114.048 128.141Z" fill="#26AAD9"/>
<path fill-rule="evenodd" clip-rule="evenodd" d="M113.243 129.486L110.561 130.922L115.211 131.46L113.333 130.025L113.243 129.486Z" fill="#0C7098"/>
<path fill-rule="evenodd" clip-rule="evenodd" d="M110.561 130.922L97.6825 132.358L100.634 134.601L110.561 130.922Z" fill="#90D4F6"/>
<path fill-rule="evenodd" clip-rule="evenodd" d="M100.634 134.601L104.569 136.037L110.561 130.922L100.634 134.601Z" fill="#26AAD9"/>
<path fill-rule="evenodd" clip-rule="evenodd" d="M110.561 130.922L104.569 136.037L109.309 136.126L110.561 130.922Z" fill="#008AB5"/>
<path fill-rule="evenodd" clip-rule="evenodd" d="M110.559 130.922L114.137 133.883L109.307 136.126L110.559 130.922Z" fill="#90D4F6"/>
<path fill-rule="evenodd" clip-rule="evenodd" d="M110.561 130.922L115.211 131.46L114.138 133.883L110.561 130.922Z" fill="#26AAD9"/>
<path fill-rule="evenodd" clip-rule="evenodd" d="M119.861 129.037L125.585 126.973L126.568 130.741L119.861 129.037Z" fill="#008AB5"/>
<path fill-rule="evenodd" clip-rule="evenodd" d="M119.861 130.293V129.037L126.568 130.742L119.861 130.293Z" fill="#0C7098"/>
<path fill-rule="evenodd" clip-rule="evenodd" d="M126.568 130.742L125.406 133.703L119.861 130.293L126.568 130.742Z" fill="#90D4F6"/>
<path fill-rule="evenodd" clip-rule="evenodd" d="M125.406 133.703L122.902 135.677L119.862 130.293L125.406 133.703Z" fill="#26AAD9"/>
<path fill-rule="evenodd" clip-rule="evenodd" d="M119.862 130.293L118.163 131.28L122.902 135.677L119.862 130.293Z" fill="#0C7098"/>
<path fill-rule="evenodd" clip-rule="evenodd" d="M122.902 135.678L119.862 137.473L118.163 131.281L122.902 135.678Z" fill="#008AB5"/>
<path fill-rule="evenodd" clip-rule="evenodd" d="M119.861 137.473L118.162 131.281L116.463 132.358L119.861 137.473Z" fill="#90D4F6"/>
<path fill-rule="evenodd" clip-rule="evenodd" d="M116.463 132.357L116.284 138.28L119.861 137.472L116.463 132.357Z" fill="#26AAD9"/>
<path fill-rule="evenodd" clip-rule="evenodd" d="M116.463 132.357L114.227 137.741L116.284 138.28L116.463 132.357Z" fill="#0C7098"/>
<path fill-rule="evenodd" clip-rule="evenodd" d="M114.048 128.141L118.162 131.281L116.463 132.358L114.048 128.141Z" fill="#0C7098"/>
<path fill-rule="evenodd" clip-rule="evenodd" d="M115.211 131.461L115.568 131.73L114.137 133.884L115.211 131.461Z" fill="#008AB5"/>
<path fill-rule="evenodd" clip-rule="evenodd" d="M379.39 51.1484L379.569 52.4945L380.91 52.6739L379.39 51.1484Z" fill="#9CD8F7"/>
<path fill-rule="evenodd" clip-rule="evenodd" d="M379.39 51.1492L380.195 50.1621L380.463 52.1363L379.39 51.1492Z" fill="#5AA2CC"/>
<path fill-rule="evenodd" clip-rule="evenodd" d="M380.194 50.161L378.853 47.8279L382.52 47.6484L380.194 50.161Z" fill="#3B8ABC"/>
<path fill-rule="evenodd" clip-rule="evenodd" d="M378.854 47.8278L365.081 44.4178L367.317 42.7129L378.854 47.8278Z" fill="#9CD8F7"/>
<path fill-rule="evenodd" clip-rule="evenodd" d="M367.317 42.7134L373.667 39.9316L378.854 47.8283L367.317 42.7134Z" fill="#63BAE4"/>
<path fill-rule="evenodd" clip-rule="evenodd" d="M373.667 39.9316L379.838 40.0214L378.854 47.8283L373.667 39.9316Z" fill="#5AA2CC"/>
<path fill-rule="evenodd" clip-rule="evenodd" d="M379.838 40.0215L382.432 42.9827L378.854 47.8284L379.838 40.0215Z" fill="#3B8ABC"/>
<path fill-rule="evenodd" clip-rule="evenodd" d="M382.43 42.9824L382.967 46.4821L378.853 47.8281L382.43 42.9824Z" fill="#63BAE4"/>
<path fill-rule="evenodd" clip-rule="evenodd" d="M382.967 46.4824L382.52 47.649L378.853 47.8284L382.967 46.4824Z" fill="#5AA2CC"/>
<path fill-rule="evenodd" clip-rule="evenodd" d="M380.462 52.1357L381.536 52.6741L385.023 51.3281L380.462 52.1357Z" fill="#63BAE4"/>
<path fill-rule="evenodd" clip-rule="evenodd" d="M380.284 50.9682L385.023 47.2891L382.519 47.648L380.284 50.9682Z" fill="#9CD8F7"/>
<path fill-rule="evenodd" clip-rule="evenodd" d="M382.52 47.6484L380.194 50.161L380.284 50.9686L382.52 47.6484Z" fill="#63BAE4"/>
<path fill-rule="evenodd" clip-rule="evenodd" d="M382.519 47.6492L384.04 46.6621L385.023 47.2903L382.519 47.6492Z" fill="#63BAE4"/>
<path fill-rule="evenodd" clip-rule="evenodd" d="M380.462 52.1353L380.284 50.9688L385.023 51.3277L380.462 52.1353Z" fill="#9CD8F7"/>
<path fill-rule="evenodd" clip-rule="evenodd" d="M380.284 50.9682L385.023 47.2891V49.353L380.284 50.9682Z" fill="#63BAE4"/>
<path fill-rule="evenodd" clip-rule="evenodd" d="M381.001 52.4056L380.822 55.3668L383.684 51.8672L381.537 52.6748L381.001 52.4056Z" fill="#3B8ABC"/>
<path fill-rule="evenodd" clip-rule="evenodd" d="M380.82 55.3652L375.544 67.0307L378.942 65.7744L380.82 55.3652Z" fill="#9CD8F7"/>
<path fill-rule="evenodd" clip-rule="evenodd" d="M378.942 65.7744L382.072 63.3516L380.82 55.3652L378.942 65.7744Z" fill="#63BAE4"/>
<path fill-rule="evenodd" clip-rule="evenodd" d="M380.82 55.3652L382.072 63.3516L384.576 59.4033L380.82 55.3652Z" fill="#5AA2CC"/>
<path fill-rule="evenodd" clip-rule="evenodd" d="M380.821 55.3657L385.113 54.1094L384.577 59.4037L380.821 55.3657Z" fill="#9CD8F7"/>
<path fill-rule="evenodd" clip-rule="evenodd" d="M380.821 55.3668L383.682 51.8672L385.113 54.1105L380.821 55.3668Z" fill="#63BAE4"/>
<path fill-rule="evenodd" clip-rule="evenodd" d="M384.04 46.6607L385.202 40.7383L388.869 41.9946L384.04 46.6607Z" fill="#5AA2CC"/>
<path fill-rule="evenodd" clip-rule="evenodd" d="M385.024 47.2904L384.04 46.6623L388.869 41.9961L385.024 47.2904Z" fill="#3B8ABC"/>
<path fill-rule="evenodd" clip-rule="evenodd" d="M388.87 41.9961L390.748 44.5984L385.024 47.2904L388.87 41.9961Z" fill="#9CD8F7"/>
<path fill-rule="evenodd" clip-rule="evenodd" d="M390.747 44.5977L391.016 47.8281L385.024 47.2897L390.747 44.5977Z" fill="#63BAE4"/>
<path fill-rule="evenodd" clip-rule="evenodd" d="M385.024 47.2891V49.2632L391.016 47.8275L385.024 47.2891Z" fill="#3B8ABC"/>
<path fill-rule="evenodd" clip-rule="evenodd" d="M391.016 47.8281L391.105 51.3278L385.024 49.2639L391.016 47.8281Z" fill="#5AA2CC"/>
<path fill-rule="evenodd" clip-rule="evenodd" d="M391.105 51.3276L385.024 49.2637V51.3276H391.105Z" fill="#9CD8F7"/>
<path fill-rule="evenodd" clip-rule="evenodd" d="M385.024 51.3281L389.943 54.738L391.105 51.3281H385.024Z" fill="#63BAE4"/>
<path fill-rule="evenodd" clip-rule="evenodd" d="M385.025 51.3281L388.334 56.1738L389.943 54.738L385.025 51.3281Z" fill="#3B8ABC"/>
<path fill-rule="evenodd" clip-rule="evenodd" d="M380.284 50.9686L385.023 49.2637V51.3276L380.284 50.9686Z" fill="#3B8ABC"/>
<path fill-rule="evenodd" clip-rule="evenodd" d="M383.682 51.867L384.04 51.6875L385.113 54.1103L383.682 51.867Z" fill="#5AA2CC"/>
<path fill-rule="evenodd" clip-rule="evenodd" d="M241.667 129.936L241.131 130.205L241.936 130.923L241.667 129.936Z" fill="#9CD8F7"/>
<path fill-rule="evenodd" clip-rule="evenodd" d="M241.129 130.205V131.013L241.666 130.743L241.129 130.205Z" fill="#5AA2CC"/>
<path fill-rule="evenodd" clip-rule="evenodd" d="M242.92 129.398L241.668 129.937L241.936 130.924L242.92 129.398Z" fill="#5AA2CC"/>
<path fill-rule="evenodd" clip-rule="evenodd" d="M241.936 130.924H242.741L242.92 129.398L241.936 130.924Z" fill="#63BAE4"/>
<path fill-rule="evenodd" clip-rule="evenodd" d="M242.741 130.924L243.009 127.873L244.619 130.565L242.741 130.924Z" fill="#9CD8F7"/>
<path fill-rule="evenodd" clip-rule="evenodd" d="M243.009 127.873L244.171 124.822L245.781 128.053L243.009 127.873Z" fill="#5AA2CC"/>
<path fill-rule="evenodd" clip-rule="evenodd" d="M245.691 129.399L244.618 130.565L243.008 127.873L245.691 129.399Z" fill="#63BAE4"/>
<path fill-rule="evenodd" clip-rule="evenodd" d="M243.009 127.873L245.782 128.053L245.871 128.86L243.009 127.873Z" fill="#63BAE4"/>
<path fill-rule="evenodd" clip-rule="evenodd" d="M243.008 127.873L245.691 129.399L246.406 129.04L243.008 127.873Z" fill="#5AA2CC"/>
<path fill-rule="evenodd" clip-rule="evenodd" d="M244.17 124.821V122.488L245.959 124.642L244.17 124.821Z" fill="#9CD8F7"/>
<path fill-rule="evenodd" clip-rule="evenodd" d="M245.96 124.643L246.229 126.168L244.172 124.822L245.96 124.643Z" fill="#63BAE4"/>
<path fill-rule="evenodd" clip-rule="evenodd" d="M246.229 126.168L245.781 128.053L244.172 124.822L246.229 126.168Z" fill="#9CD8F7"/>
<path fill-rule="evenodd" clip-rule="evenodd" d="M245.781 128.051L247.033 126.705L248.195 127.333L245.781 128.051Z" fill="#63BAE4"/>
<path fill-rule="evenodd" clip-rule="evenodd" d="M245.87 128.859L248.195 127.334L245.781 128.052L245.87 128.859Z" fill="#9CD8F7"/>
<path fill-rule="evenodd" clip-rule="evenodd" d="M245.87 128.859L248.195 127.334L248.643 127.872L245.87 128.859Z" fill="#5AA2CC"/>
<path fill-rule="evenodd" clip-rule="evenodd" d="M245.066 130.115L245.334 130.474L247.123 130.025L245.066 130.115Z" fill="#5AA2CC"/>
<path fill-rule="evenodd" clip-rule="evenodd" d="M247.123 130.026L246.408 129.039L245.692 129.398L245.066 130.116L247.123 130.026Z" fill="#9CD8F7"/>
<path fill-rule="evenodd" clip-rule="evenodd" d="M247.122 130.026L248.195 129.129L246.407 129.039L247.122 130.026Z" fill="#63BAE4"/>
<path fill-rule="evenodd" clip-rule="evenodd" d="M245.87 128.86L246.407 129.04L248.643 127.873L245.87 128.86Z" fill="#63BAE4"/>
<path fill-rule="evenodd" clip-rule="evenodd" d="M246.407 129.04L248.195 129.129L248.643 127.873L246.407 129.04Z" fill="#5AA2CC"/>
<path fill-rule="evenodd" clip-rule="evenodd" d="M236.3 128.5L237.552 129.397L241.666 129.936L236.3 128.5Z" fill="#9CD8F7"/>
<path fill-rule="evenodd" clip-rule="evenodd" d="M242.92 129.398L238.27 129.039L241.668 129.936L242.92 129.398Z" fill="#63BAE4"/>
<path fill-rule="evenodd" clip-rule="evenodd" d="M314.465 97.2734L314.018 97.7221L314.555 98.7092L314.465 97.2734Z" fill="#9CD8F7"/>
<path fill-rule="evenodd" clip-rule="evenodd" d="M314.464 97.2719L315.627 96.0156L314.464 98.259V97.2719Z" fill="#5AA9D3"/>
<path fill-rule="evenodd" clip-rule="evenodd" d="M314.465 98.259L316.254 97.9898L315.628 96.0156L314.465 98.259Z" fill="#4486B3"/>
<path fill-rule="evenodd" clip-rule="evenodd" d="M314.553 98.529L314.643 98.2598H314.464L314.553 98.529Z" fill="#777F84"/>
<path fill-rule="evenodd" clip-rule="evenodd" d="M316.253 97.9907L314.732 93.5938L319.383 97.0934L316.253 97.9907Z" fill="#5AA9D3"/>
<path fill-rule="evenodd" clip-rule="evenodd" d="M316.253 97.9911L318.399 98.8884L319.383 97.0938L316.253 97.9911Z" fill="#4486B3"/>
<path fill-rule="evenodd" clip-rule="evenodd" d="M314.733 93.5935L315.002 88.5684L317.059 90.1836L314.733 93.5935Z" fill="#9CD8F7"/>
<path fill-rule="evenodd" clip-rule="evenodd" d="M314.733 93.5935L316.164 94.6703L317.059 90.1836L314.733 93.5935Z" fill="#63BAE4"/>
<path fill-rule="evenodd" clip-rule="evenodd" d="M316.164 94.6703L319.025 93.6832L317.058 90.1836L316.164 94.6703Z" fill="#5AA9D3"/>
<path fill-rule="evenodd" clip-rule="evenodd" d="M319.025 93.6836L319.383 97.0935L316.163 94.6707L319.025 93.6836Z" fill="#63BAE4"/>
<path fill-rule="evenodd" clip-rule="evenodd" d="M317.951 91.7989L320.545 87.043L320.366 89.735L317.951 91.7989Z" fill="#9CD8F7"/>
<path fill-rule="evenodd" clip-rule="evenodd" d="M317.953 91.7988L319.026 93.6832L319.652 93.5038L317.953 91.7988Z" fill="#4486B3"/>
<path fill-rule="evenodd" clip-rule="evenodd" d="M319.652 93.5039L319.384 97.0933L319.026 93.6834L319.652 93.5039Z" fill="#5AA2CC"/>
<path fill-rule="evenodd" clip-rule="evenodd" d="M317.953 91.7983L320.367 89.7344L319.652 93.5032L317.953 91.7983Z" fill="#63BAE4"/>
<path fill-rule="evenodd" clip-rule="evenodd" d="M319.383 97.093L323.05 96.4648L323.676 98.2595L319.383 97.093Z" fill="#9CD8F7"/>
<path fill-rule="evenodd" clip-rule="evenodd" d="M323.676 98.2603L318.399 98.8884L319.383 97.0938L323.676 98.2603Z" fill="#63BAE4"/>
<path fill-rule="evenodd" clip-rule="evenodd" d="M323.676 98.2598L320.635 100.593L318.399 98.8879L323.676 98.2598Z" fill="#5AA9D3"/>
<path fill-rule="evenodd" clip-rule="evenodd" d="M318.399 98.8887L317.594 100.414L320.635 100.594L318.399 98.8887Z" fill="#4486B3"/>
<path fill-rule="evenodd" clip-rule="evenodd" d="M369.374 156.227L367.675 158.111L370.895 161.341L369.374 156.227Z" fill="#63BBC8"/>
<path fill-rule="evenodd" clip-rule="evenodd" d="M367.676 158.111L367.05 159.727L369.465 159.816L367.676 158.111Z" fill="#9FD5D8"/>
<path fill-rule="evenodd" clip-rule="evenodd" d="M367.05 159.727L366.961 160.265L367.766 159.727H367.05Z" fill="#56ADC3"/>
<path fill-rule="evenodd" clip-rule="evenodd" d="M370.09 158.65L371.789 164.124L375.545 159.817L370.09 158.65Z" fill="#9FD5D8"/>
<path fill-rule="evenodd" clip-rule="evenodd" d="M369.374 156.227L375.545 159.816L370.09 158.649L369.374 156.227Z" fill="#56ADC3"/>
<path fill-rule="evenodd" clip-rule="evenodd" d="M381.089 143.754L383.951 152.279L378.317 150.305L381.089 143.754Z" fill="#9FD5D8"/>
<path fill-rule="evenodd" clip-rule="evenodd" d="M378.318 150.305L374.383 154.612L383.416 159.188L378.318 150.305Z" fill="#63BBC8"/>
<path fill-rule="evenodd" clip-rule="evenodd" d="M378.317 150.305L383.951 152.279L383.415 159.188L378.317 150.305Z" fill="#56ADC3"/>
<path fill-rule="evenodd" clip-rule="evenodd" d="M374.383 154.611L383.416 159.188L376.44 163.405L374.383 154.611Z" fill="#9FD5D8"/>
<path fill-rule="evenodd" clip-rule="evenodd" d="M376.439 163.405L374.383 164.482V154.611L376.439 163.405Z" fill="#63BBC8"/>
<path fill-rule="evenodd" clip-rule="evenodd" d="M374.384 161.072L374.562 168.7L371.79 164.123L374.384 161.072Z" fill="#56ADC3"/>
<path fill-rule="evenodd" clip-rule="evenodd" d="M378.138 162.328L376.439 163.405L380.195 164.661L378.138 162.328Z" fill="#56ADC3"/>
<path fill-rule="evenodd" clip-rule="evenodd" d="M380.195 164.662L386.992 167.982L385.74 168.521L380.195 164.662Z" fill="#9FD5D8"/>
<path fill-rule="evenodd" clip-rule="evenodd" d="M380.195 164.663L376.439 163.406L374.472 164.393L380.195 164.663Z" fill="#9FD5D8"/>
<path fill-rule="evenodd" clip-rule="evenodd" d="M380.195 164.662L374.472 164.393L374.561 168.7L380.195 164.662Z" fill="#63BBC8"/>
<path fill-rule="evenodd" clip-rule="evenodd" d="M380.195 164.662L374.561 168.7L378.138 170.226L380.195 164.662Z" fill="#56ADC3"/>
<path fill-rule="evenodd" clip-rule="evenodd" d="M387.975 168.521L389.854 167.444L380.195 164.662L387.975 168.521Z" fill="#63BBC8"/>
<path fill-rule="evenodd" clip-rule="evenodd" d="M380.196 164.662L390.838 167.713L392.984 166.188L380.196 164.662Z" fill="#56ADC3"/>
<path fill-rule="evenodd" clip-rule="evenodd" d="M380.196 164.662L384.488 167.623L378.139 170.226L380.196 164.662Z" fill="#63BBC8"/>
<path fill-rule="evenodd" clip-rule="evenodd" d="M190.154 128.32L188.186 129.666L190.422 133.166L190.154 128.32Z" fill="#49B4C2"/>
<path fill-rule="evenodd" clip-rule="evenodd" d="M188.187 129.666L187.293 130.922L189.35 131.55L188.187 129.666Z" fill="#91D0D4"/>
<path fill-rule="evenodd" clip-rule="evenodd" d="M187.292 130.922L187.023 131.371L187.828 131.101L187.292 130.922Z" fill="#44A5BC"/>
<path fill-rule="evenodd" clip-rule="evenodd" d="M190.244 130.652L190.512 135.857L194.805 132.896L190.244 130.652Z" fill="#91D0D4"/>
<path fill-rule="evenodd" clip-rule="evenodd" d="M190.154 128.32L194.805 132.897L190.244 130.653L190.154 128.32Z" fill="#44A5BC"/>
<path fill-rule="evenodd" clip-rule="evenodd" d="M203.479 119.975L204.105 128.14L199.544 125.179L203.479 119.975Z" fill="#91D0D4"/>
<path fill-rule="evenodd" clip-rule="evenodd" d="M199.543 125.18L194.982 128.051L202.047 134.153L199.543 125.18Z" fill="#49B4C2"/>
<path fill-rule="evenodd" clip-rule="evenodd" d="M199.544 125.18L204.105 128.141L202.049 134.153L199.544 125.18Z" fill="#44A5BC"/>
<path fill-rule="evenodd" clip-rule="evenodd" d="M194.982 128.051L202.047 134.153L194.803 136.306L194.982 128.051Z" fill="#91D0D4"/>
<path fill-rule="evenodd" clip-rule="evenodd" d="M194.804 136.306L192.747 136.755L194.982 128.051L194.804 136.306Z" fill="#49B4C2"/>
<path fill-rule="evenodd" clip-rule="evenodd" d="M193.553 133.793L191.943 140.523L190.512 135.857L193.553 133.793Z" fill="#44A5BC"/>
<path fill-rule="evenodd" clip-rule="evenodd" d="M196.682 135.768L194.804 136.306L197.934 138.28L196.682 135.768Z" fill="#44A5BC"/>
<path fill-rule="evenodd" clip-rule="evenodd" d="M197.935 138.281L203.301 142.768L202.049 142.947L197.935 138.281Z" fill="#91D0D4"/>
<path fill-rule="evenodd" clip-rule="evenodd" d="M197.934 138.281L194.804 136.307L192.836 136.755L197.934 138.281Z" fill="#91D0D4"/>
<path fill-rule="evenodd" clip-rule="evenodd" d="M197.934 138.281L192.836 136.756L191.942 140.525L197.934 138.281Z" fill="#49B4C2"/>
<path fill-rule="evenodd" clip-rule="evenodd" d="M197.934 138.281L191.942 140.525L194.804 142.678L197.934 138.281Z" fill="#44A5BC"/>
<path fill-rule="evenodd" clip-rule="evenodd" d="M204.015 143.486L205.982 142.947L197.934 138.281L204.015 143.486Z" fill="#49B4C2"/>
<path fill-rule="evenodd" clip-rule="evenodd" d="M197.934 138.281L206.788 143.396L209.023 142.588L197.934 138.281Z" fill="#44A5BC"/>
<path fill-rule="evenodd" clip-rule="evenodd" d="M197.934 138.281L201.064 141.871L194.804 142.678L197.934 138.281Z" fill="#49B4C2"/>
<path fill-rule="evenodd" clip-rule="evenodd" d="M224.229 118.899L223.96 118.092L223.245 118.54L224.229 118.899Z" fill="#9CD8F7"/>
<path fill-rule="evenodd" clip-rule="evenodd" d="M224.05 118.449L224.676 119.257L224.407 119.436L224.05 118.449Z" fill="#5AA2CC"/>
<path fill-rule="evenodd" clip-rule="evenodd" d="M224.229 118.898L223.513 118.629L223.692 119.167L224.229 118.898Z" fill="#5AA2CC"/>
<path fill-rule="evenodd" clip-rule="evenodd" d="M224.227 118.898L224.406 119.437L223.691 119.168L224.227 118.898Z" fill="#448CB7"/>
<path fill-rule="evenodd" clip-rule="evenodd" d="M224.406 119.437L223.512 120.335L223.691 119.168L224.406 119.437Z" fill="#5AA2CC"/>
<path fill-rule="evenodd" clip-rule="evenodd" d="M224.674 119.257L225.211 119.168L224.495 118.988L224.674 119.257Z" fill="#63BAE4"/>
<path fill-rule="evenodd" clip-rule="evenodd" d="M223.512 120.334L220.65 122.308L225.301 122.577L223.512 120.334Z" fill="#5AA2CC"/>
<path fill-rule="evenodd" clip-rule="evenodd" d="M220.65 122.309L217.073 123.296L218.862 124.372L220.65 122.309Z" fill="#63BAE4"/>
<path fill-rule="evenodd" clip-rule="evenodd" d="M218.862 124.372L221.188 124.552L220.651 122.309L218.862 124.372Z" fill="#5AA2CC"/>
<path fill-rule="evenodd" clip-rule="evenodd" d="M220.65 122.309L225.301 122.578L224.138 124.014L220.65 122.309Z" fill="#63BAE4"/>
<path fill-rule="evenodd" clip-rule="evenodd" d="M224.139 124.014L221.187 124.552L220.651 122.309L224.139 124.014Z" fill="#9CD8F7"/>
<path fill-rule="evenodd" clip-rule="evenodd" d="M225.211 119.167L226.732 116.834L227 121.141L225.211 119.167Z" fill="#5AA2CC"/>
<path fill-rule="evenodd" clip-rule="evenodd" d="M226.732 116.835L228.7 112.797L229.236 116.027L226.732 116.835Z" fill="#63BAE4"/>
<path fill-rule="evenodd" clip-rule="evenodd" d="M226.733 116.835L229.237 116.027L229.326 118.181L226.733 116.835Z" fill="#5AA2CC"/>
<path fill-rule="evenodd" clip-rule="evenodd" d="M229.326 118.18L228.7 119.526L226.733 116.834L229.326 118.18Z" fill="#9CD8F7"/>
<path fill-rule="evenodd" clip-rule="evenodd" d="M228.699 119.526L227 121.141L226.732 116.834L228.699 119.526Z" fill="#63BAE4"/>
<path fill-rule="evenodd" clip-rule="evenodd" d="M227 121.143L228.968 119.977L229.594 121.502L227 121.143Z" fill="#5AA2CC"/>
<path fill-rule="evenodd" clip-rule="evenodd" d="M229.594 121.502V122.848L227 121.143L229.594 121.502Z" fill="#63BAE4"/>
<path fill-rule="evenodd" clip-rule="evenodd" d="M229.594 122.848L228.521 124.552L227 121.143L229.594 122.848Z" fill="#5AA2CC"/>
<path fill-rule="evenodd" clip-rule="evenodd" d="M227.001 121.143L226.912 122.489L228.521 124.552L227.001 121.143Z" fill="#448CB7"/>
<path fill-rule="evenodd" clip-rule="evenodd" d="M226.912 122.488L225.302 122.578L228.521 124.552L226.912 122.488Z" fill="#5AA2CC"/>
<path fill-rule="evenodd" clip-rule="evenodd" d="M228.521 124.552L226.554 125.36L225.302 122.578L228.521 124.552Z" fill="#63BAE4"/>
<path fill-rule="evenodd" clip-rule="evenodd" d="M226.553 125.36L225.211 125.18L225.301 122.578L226.553 125.36Z" fill="#9CD8F7"/>
<path fill-rule="evenodd" clip-rule="evenodd" d="M225.211 125.18L223.959 124.373L225.301 122.578L225.211 125.18Z" fill="#5AA2CC"/>
<path fill-rule="evenodd" clip-rule="evenodd" d="M225.211 119.168L227 121.142L226.911 122.488L225.211 119.168Z" fill="#9CD8F7"/>
<path fill-rule="evenodd" clip-rule="evenodd" d="M223.512 120.334L226.91 122.488L225.3 122.577L223.512 120.334Z" fill="#63BAE4"/>
<path fill-rule="evenodd" clip-rule="evenodd" d="M225.211 119.168L223.512 120.335L226.91 122.488L225.211 119.168Z" fill="#5AA2CC"/>
<path fill-rule="evenodd" clip-rule="evenodd" d="M223.512 120.335L224.406 119.437L224.674 119.258L225.211 119.168L223.512 120.335Z" fill="#9CD8F7"/>
<path fill-rule="evenodd" clip-rule="evenodd" d="M22.2031 91.4405L21.6665 90.7227L21.1299 91.4405H22.2031Z" fill="#9FD5D8"/>
<path fill-rule="evenodd" clip-rule="evenodd" d="M21.8444 90.9922L22.8281 91.6203L22.5598 91.8895L21.8444 90.9922Z" fill="#56ADC3"/>
<path fill-rule="evenodd" clip-rule="evenodd" d="M22.2031 91.4395H21.4877L21.8454 91.8881L22.2031 91.4395Z" fill="#56ADC3"/>
<path fill-rule="evenodd" clip-rule="evenodd" d="M22.2028 91.4395L22.5605 91.8881H21.8451L22.2028 91.4395Z" fill="#369DBB"/>
<path fill-rule="evenodd" clip-rule="evenodd" d="M22.5605 91.8887L22.024 93.145L21.8451 91.8887H22.5605Z" fill="#56ADC3"/>
<path fill-rule="evenodd" clip-rule="evenodd" d="M22.8282 91.6188L23.2754 91.3496H22.4705L22.8282 91.6188Z" fill="#63BBC8"/>
<path fill-rule="evenodd" clip-rule="evenodd" d="M22.0237 93.1445L19.8774 96.016L24.6172 94.67L22.0237 93.1445Z" fill="#56ADC3"/>
<path fill-rule="evenodd" clip-rule="evenodd" d="M19.877 96.0156L16.6574 98.259L18.8932 98.6179L19.877 96.0156Z" fill="#63BBC8"/>
<path fill-rule="evenodd" clip-rule="evenodd" d="M18.8935 98.6179L21.2188 97.9L19.8773 96.0156L18.8935 98.6179Z" fill="#56ADC3"/>
<path fill-rule="evenodd" clip-rule="evenodd" d="M19.8774 96.0159L24.6172 94.6699L23.9018 96.4646L19.8774 96.0159Z" fill="#63BBC8"/>
<path fill-rule="evenodd" clip-rule="evenodd" d="M23.9023 96.4643L21.2194 97.9L19.878 96.0156L23.9023 96.4643Z" fill="#9FD5D8"/>
<path fill-rule="evenodd" clip-rule="evenodd" d="M23.2748 91.3501L23.9903 88.5684L25.6895 92.6064L23.2748 91.3501Z" fill="#56ADC3"/>
<path fill-rule="evenodd" clip-rule="evenodd" d="M23.9904 88.5685L24.5269 83.9023L26.1367 86.8636L23.9904 88.5685Z" fill="#63BBC8"/>
<path fill-rule="evenodd" clip-rule="evenodd" d="M23.9906 88.5682L26.1369 86.8633L27.0312 88.9272L23.9906 88.5682Z" fill="#56ADC3"/>
<path fill-rule="evenodd" clip-rule="evenodd" d="M27.0312 88.9273L26.8524 90.4528L23.9906 88.5684L27.0312 88.9273Z" fill="#9FD5D8"/>
<path fill-rule="evenodd" clip-rule="evenodd" d="M26.8535 90.4528L25.6909 92.6064L23.9917 88.5684L26.8535 90.4528Z" fill="#63BBC8"/>
<path fill-rule="evenodd" clip-rule="evenodd" d="M25.6901 92.6072L27.2104 90.8125L28.373 92.0688L25.6901 92.6072Z" fill="#56ADC3"/>
<path fill-rule="evenodd" clip-rule="evenodd" d="M28.3732 92.0684L28.8203 93.3246L25.6902 92.6068L28.3732 92.0684Z" fill="#63BBC8"/>
<path fill-rule="evenodd" clip-rule="evenodd" d="M28.8203 93.3253L28.4626 95.3892L25.6902 92.6074L28.8203 93.3253Z" fill="#56ADC3"/>
<path fill-rule="evenodd" clip-rule="evenodd" d="M25.6905 92.6074L26.1377 94.0432L28.4629 95.3892L25.6905 92.6074Z" fill="#369DBB"/>
<path fill-rule="evenodd" clip-rule="evenodd" d="M26.1377 94.043L24.6173 94.6711L28.4629 95.389L26.1377 94.043Z" fill="#56ADC3"/>
<path fill-rule="evenodd" clip-rule="evenodd" d="M28.4629 95.3878L26.6743 96.9133L24.6173 94.6699L28.4629 95.3878Z" fill="#63BBC8"/>
<path fill-rule="evenodd" clip-rule="evenodd" d="M26.6738 96.9133L25.3324 97.1825L24.6169 94.6699L26.6738 96.9133Z" fill="#9FD5D8"/>
<path fill-rule="evenodd" clip-rule="evenodd" d="M25.332 97.1825L23.9011 96.8235L24.6166 94.6699L25.332 97.1825Z" fill="#56ADC3"/>
<path fill-rule="evenodd" clip-rule="evenodd" d="M23.2749 91.3496L25.6896 92.6059L26.1367 94.0416L23.2749 91.3496Z" fill="#9FD5D8"/>
<path fill-rule="evenodd" clip-rule="evenodd" d="M22.0229 93.1445L26.1367 94.0419L24.6164 94.67L22.0229 93.1445Z" fill="#63BBC8"/>
<path fill-rule="evenodd" clip-rule="evenodd" d="M23.2749 91.3496L22.0229 93.1443L26.1367 94.0416L23.2749 91.3496Z" fill="#56ADC3"/>
<path fill-rule="evenodd" clip-rule="evenodd" d="M22.0234 93.1443L22.56 91.888L22.8282 91.6188L23.2754 91.3496L22.0234 93.1443Z" fill="#9FD5D8"/>
<path fill-rule="evenodd" clip-rule="evenodd" d="M108.594 57.8789L107.61 60.212L111.635 62.2759L108.594 57.8789Z" fill="#49B4C2"/>
<path fill-rule="evenodd" clip-rule="evenodd" d="M107.61 60.2129L107.52 61.9178L109.756 61.2897L107.61 60.2129Z" fill="#91D0D4"/>
<path fill-rule="evenodd" clip-rule="evenodd" d="M107.52 61.9177L107.61 62.4562L108.146 61.7383L107.52 61.9177Z" fill="#44A5BC"/>
<path fill-rule="evenodd" clip-rule="evenodd" d="M110.025 59.9427L113.334 64.6089L115.48 59.4043L110.025 59.9427Z" fill="#91D0D4"/>
<path fill-rule="evenodd" clip-rule="evenodd" d="M108.594 57.8789L115.48 59.4044L110.025 59.9428L108.594 57.8789Z" fill="#44A5BC"/>
<path fill-rule="evenodd" clip-rule="evenodd" d="M115.837 42.2656L121.113 49.5341L115.3 49.4444L115.837 42.2656Z" fill="#91D0D4"/>
<path fill-rule="evenodd" clip-rule="evenodd" d="M115.3 49.4453L112.796 54.7396L122.723 56.3549L115.3 49.4453Z" fill="#49B4C2"/>
<path fill-rule="evenodd" clip-rule="evenodd" d="M115.3 49.4453L121.113 49.535L122.723 56.3549L115.3 49.4453Z" fill="#44A5BC"/>
<path fill-rule="evenodd" clip-rule="evenodd" d="M112.796 54.7383L122.723 56.3535L117.446 62.5452L112.796 54.7383Z" fill="#91D0D4"/>
<path fill-rule="evenodd" clip-rule="evenodd" d="M117.447 62.5452L115.837 64.1604L112.797 54.7383L117.447 62.5452Z" fill="#49B4C2"/>
<path fill-rule="evenodd" clip-rule="evenodd" d="M114.853 61.0195L117.357 68.1983L113.333 64.6089L114.853 61.0195Z" fill="#44A5BC"/>
<path fill-rule="evenodd" clip-rule="evenodd" d="M118.789 61.0195L117.448 62.545H121.383L118.789 61.0195Z" fill="#44A5BC"/>
<path fill-rule="evenodd" clip-rule="evenodd" d="M121.382 62.5449L128.895 63.7115L127.821 64.6088L121.382 62.5449Z" fill="#91D0D4"/>
<path fill-rule="evenodd" clip-rule="evenodd" d="M121.383 62.5449H117.448L115.928 64.1601L121.383 62.5449Z" fill="#91D0D4"/>
<path fill-rule="evenodd" clip-rule="evenodd" d="M121.383 62.5449L115.928 64.1601L117.358 68.1982L121.383 62.5449Z" fill="#49B4C2"/>
<path fill-rule="evenodd" clip-rule="evenodd" d="M121.383 62.5449L117.358 68.1982L121.115 68.5571L121.383 62.5449Z" fill="#44A5BC"/>
<path fill-rule="evenodd" clip-rule="evenodd" d="M129.878 63.8926L131.398 62.2773L121.382 62.5465L129.878 63.8926Z" fill="#49B4C2"/>
<path fill-rule="evenodd" clip-rule="evenodd" d="M121.382 62.5459L132.382 62.2767L133.902 60.123L121.382 62.5459Z" fill="#44A5BC"/>
<path fill-rule="evenodd" clip-rule="evenodd" d="M121.382 62.5449L126.301 64.1601L121.114 68.5571L121.382 62.5449Z" fill="#49B4C2"/>
<path fill-rule="evenodd" clip-rule="evenodd" d="M20.9512 8.52517L19.9675 8.3457L19.6097 9.33278L20.9512 8.52517Z" fill="#9FD5D8"/>
<path fill-rule="evenodd" clip-rule="evenodd" d="M20.9517 8.52539L21.4883 9.333L20.0574 9.0638L20.9517 8.52539Z" fill="#56ADC3"/>
<path fill-rule="evenodd" clip-rule="evenodd" d="M21.4891 9.33159L23.3672 8.97266L22.7412 11.6647L21.4891 9.33159Z" fill="#17A2C8"/>
<path fill-rule="evenodd" clip-rule="evenodd" d="M23.3675 8.97344L28.5545 0L29.3594 1.97416L23.3675 8.97344Z" fill="#9FD5D8"/>
<path fill-rule="evenodd" clip-rule="evenodd" d="M29.3584 1.97461L29.9844 7.1792L23.3665 8.97389L29.3584 1.97461Z" fill="#63BBC8"/>
<path fill-rule="evenodd" clip-rule="evenodd" d="M29.9844 7.17969L28.7323 11.4869L23.3665 8.97438L29.9844 7.17969Z" fill="#56ADC3"/>
<path fill-rule="evenodd" clip-rule="evenodd" d="M28.7324 11.4852L26.1389 12.6518L23.3666 8.97266L28.7324 11.4852Z" fill="#17A2C8"/>
<path fill-rule="evenodd" clip-rule="evenodd" d="M26.1387 12.6518L23.5452 12.2031L23.3663 8.97266L26.1387 12.6518Z" fill="#63BBC8"/>
<path fill-rule="evenodd" clip-rule="evenodd" d="M23.5449 12.2031L22.74 11.6647L23.366 8.97266L23.5449 12.2031Z" fill="#56ADC3"/>
<path fill-rule="evenodd" clip-rule="evenodd" d="M20.0566 9.0625L19.4306 9.78037L19.6989 12.4724L20.0566 9.0625Z" fill="#63BBC8"/>
<path fill-rule="evenodd" clip-rule="evenodd" d="M20.8622 9.24219L22.5614 13.5494L22.7402 11.665L20.8622 9.24219Z" fill="#9FD5D8"/>
<path fill-rule="evenodd" clip-rule="evenodd" d="M22.7402 11.665L21.4882 9.33192L20.8622 9.24219L22.7402 11.665Z" fill="#63BBC8"/>
<path fill-rule="evenodd" clip-rule="evenodd" d="M22.7403 11.666L23.1875 12.9223L22.5615 13.5504L22.7403 11.666Z" fill="#63BBC8"/>
<path fill-rule="evenodd" clip-rule="evenodd" d="M20.0584 9.0625L20.8633 9.24197L19.7007 12.4724L20.0584 9.0625Z" fill="#9FD5D8"/>
<path fill-rule="evenodd" clip-rule="evenodd" d="M20.8633 9.24219L22.5625 13.5494L21.1316 13.011L20.8633 9.24219Z" fill="#63BBC8"/>
<path fill-rule="evenodd" clip-rule="evenodd" d="M19.6992 9.42284L17.6423 8.61523L19.6098 11.4867L19.4309 9.78178L19.6992 9.42284Z" fill="#17A2C8"/>
<path fill-rule="evenodd" clip-rule="evenodd" d="M17.6426 8.61495L10.4881 1.97461L10.7564 4.66664L17.6426 8.61495Z" fill="#9FD5D8"/>
<path fill-rule="evenodd" clip-rule="evenodd" d="M10.7564 4.66602L11.8296 7.53752L17.6426 8.61433L10.7564 4.66602Z" fill="#63BBC8"/>
<path fill-rule="evenodd" clip-rule="evenodd" d="M17.6426 8.61392L11.8296 7.53711L14.0653 10.2291L17.6426 8.61392Z" fill="#56ADC3"/>
<path fill-rule="evenodd" clip-rule="evenodd" d="M17.643 8.61523L17.7324 11.9354L14.0657 10.2305L17.643 8.61523Z" fill="#9FD5D8"/>
<path fill-rule="evenodd" clip-rule="evenodd" d="M17.6439 8.61523L19.6113 11.4867L17.7333 11.9354L17.6439 8.61523Z" fill="#63BBC8"/>
<path fill-rule="evenodd" clip-rule="evenodd" d="M23.1881 12.9219L27.123 15.1652L25.5133 17.4983L23.1881 12.9219Z" fill="#56ADC3"/>
<path fill-rule="evenodd" clip-rule="evenodd" d="M22.5625 13.55L23.1885 12.9219L25.5137 17.4983L22.5625 13.55Z" fill="#17A2C8"/>
<path fill-rule="evenodd" clip-rule="evenodd" d="M25.5137 17.4991L23.2779 18.217L22.5625 13.5508L25.5137 17.4991Z" fill="#9FD5D8"/>
<path fill-rule="evenodd" clip-rule="evenodd" d="M23.2773 18.217L20.9521 17.6786L22.5619 13.5508L23.2773 18.217Z" fill="#63BBC8"/>
<path fill-rule="evenodd" clip-rule="evenodd" d="M22.5625 13.5501L21.1316 13.0117L20.9527 17.6779L22.5625 13.5501Z" fill="#17A2C8"/>
<path fill-rule="evenodd" clip-rule="evenodd" d="M20.952 17.6779L18.5374 16.7806L21.1309 13.0117L20.952 17.6779Z" fill="#56ADC3"/>
<path fill-rule="evenodd" clip-rule="evenodd" d="M18.5374 16.7799L21.1309 13.0111L19.7 12.4727L18.5374 16.7799Z" fill="#9FD5D8"/>
<path fill-rule="evenodd" clip-rule="evenodd" d="M19.6992 12.4727L16.3009 15.1647L18.5366 16.7799L19.6992 12.4727Z" fill="#63BBC8"/>
<path fill-rule="evenodd" clip-rule="evenodd" d="M19.6992 12.4727L15.6748 13.7289L16.3009 15.1647L19.6992 12.4727Z" fill="#17A2C8"/>
<path fill-rule="evenodd" clip-rule="evenodd" d="M20.8626 9.24219L21.1309 13.011L19.7 12.4726L20.8626 9.24219Z" fill="#17A2C8"/>
<path fill-rule="evenodd" clip-rule="evenodd" d="M19.6113 11.4863V11.6658L17.7333 11.935L19.6113 11.4863Z" fill="#56ADC3"/>
</g>
<defs>
<clipPath id="clip0_1018_42682">
<rect width="402.439" height="250" fill="white" transform="matrix(-1 0 0 1 403 0)"/>
</clipPath>
</defs>
</svg>
