<svg width="1442" height="563" viewBox="0 0 1442 563" fill="none" xmlns="http://www.w3.org/2000/svg">
<path d="M0 4.63807V74.1381V194.638L81.5 219.138L291.5 259.638C352.333 280.304 475.5 322.238 481.5 324.638C487.5 327.038 569.333 346.638 609.5 356.138L827 321.638L1224 176.638L1441.5 148.138V62.1377C1428.33 62.1377 1398.1 64.5378 1382.5 74.1381C1366.9 83.7384 1344.67 86.1379 1335.5 86.1377C1324.5 82.1378 1298.3 74.1381 1281.5 74.1381C1260.5 74.1381 1242 62.1377 1233 62.1377C1225.8 62.1377 1202 78.1377 1191 86.1377C1185.83 85.1377 1170.4 81.3378 1150 74.1381C1124.5 65.1385 1053.5 114.638 1025 114.638C996.5 114.638 904 134.638 889 148.138C874 161.638 854.5 161.638 827 160.138C768 116.638 677.5 111.638 650.5 114.638C622 101.138 516 74.1381 489 74.1381C467.4 74.1381 432.667 66.1378 418 62.1377L397 74.1381H370C365.333 80.6379 353.6 94.5377 344 98.1377C334.4 101.738 317 83.6379 309.5 74.1381H291.5L256.5 62.1377V74.1381L234 62.1377H219L188.5 43.6377H166C139.833 34.1378 81.5 13.0381 57.5 4.63807C33.5 -3.76193 9.16667 1.13807 0 4.63807Z" fill="#CAE4F0"/>
<path d="M21.0146 105.205L0 94V178.549L82.0569 206.052C140.598 228.293 258.68 272.061 262.682 269.209C266.685 266.357 397.442 321.33 462.321 349.174L621.431 367H738.012L946.157 332.366L1044.22 237.121L1249.37 182.623L1441 231.519V116.41H1416.98L1382.46 139.33L1366.95 132.709L1340.93 116.41C1332.92 118.957 1316.51 125.782 1314.91 132.709C1313.31 139.636 1293.23 113.524 1283.39 99.6026H1256.87L1231.85 116.41L1207.84 132.709C1197 127.276 1173.51 116.41 1166.31 116.41C1159.1 116.41 1121.95 131.69 1104.27 139.33L1084.75 132.709L1071.74 157.157L1044.22 168.362L1031.22 189.244H972.675L856.094 224.897L772.036 269.209L720.5 224.897L692.481 253.929C689.145 247.987 670.265 231.417 621.431 212.674C572.597 193.93 551.049 175.323 546.379 168.362L505.851 189.244L420.792 139.33L285.698 116.41L273.69 105.205L262.682 94L234.663 105.205L198.638 125.069L168.117 116.41V125.069H160.611L151.605 139.33L140.598 132.709L130.09 139.33H118.082L105.073 125.069L96.0667 116.41H74.5517L51.5358 105.205L36.025 94L21.0146 105.205Z" fill="#8CBEDC"/>
<path d="M1084.4 150.906L1059.95 196.45L981.437 192.646L948.426 253.904L855.208 235.787L769.688 276.126L721.796 238.089L667.063 287.336L607.711 265.515L613.356 235.387L542.544 183.938L489.179 222.374L454.971 253.704L448.642 211.464L384.502 197.451L349.609 158.213L253.313 241.693L0 562.999H1440L1188.23 189.443L1084.4 150.906Z" fill="#699EC0"/>
<path d="M1180.36 185.341L1014.96 225.78C1014.96 225.78 962.281 244.898 949.452 242.796C936.795 240.694 903.955 239.593 903.955 239.593L913.192 266.619L864.103 276.228L837.591 298.95L768.148 295.346L756.688 350.298C756.688 350.298 716.665 324.774 718.546 321.571C720.428 318.368 683.996 334.383 683.996 334.383L633.025 321.571C633.025 321.571 585.818 313.063 574.871 297.148C563.924 281.233 529.374 258.811 529.374 258.811L483.877 290.742L432.907 306.657L438.38 268.32L411.184 272.625L423.841 213.068L376.634 208.764L313.006 182.138L234.84 175.732L200.803 146.004L109.809 189.645L0 254.507V562.901H1440V271.523L1180.36 185.341Z" fill="url(#paint0_linear_1281_10155)"/>
<path d="M1441 229.082C1441 229.082 1355.59 215.069 1307.67 185.04C1259.74 155.011 1184.43 165.021 1184.43 165.021L1112.54 203.057L1044.08 235.088C1044.08 235.088 989.307 257.109 979.038 263.114C968.768 269.12 951.652 305.154 951.652 313.162C951.652 321.17 920.843 329.177 920.843 329.177L879.765 313.162L800.86 333.481L784.257 356.203L747.629 329.578L702.1 358.806L653.833 345.193L599.062 349.196L530.597 295.145L455.287 329.177L386.823 289.139L403.939 233.086L296.45 234.787L232.778 195.05L178.007 187.042L133.505 195.05L109.543 159.015L82.157 143L30.8089 145.002L0 149.006V563H1441V229.082Z" fill="#184E77"/>
<defs>
<linearGradient id="paint0_linear_1281_10155" x1="719.991" y1="562.962" x2="719.991" y2="146.031" gradientUnits="userSpaceOnUse">
<stop stop-color="#1F436B"/>
<stop offset="0.3623" stop-color="#204973"/>
<stop offset="0.9194" stop-color="#225888"/>
<stop offset="0.9983" stop-color="#225B8C"/>
</linearGradient>
</defs>
</svg>
